<?xml version="1.0" standalone="no"?>
<!DOCTYPE svg
  PUBLIC '-//W3C//DTD SVG 1.1//EN'
  'http://www.w3.org/Graphics/SVG/1.1/DTD/svg11.dtd'><svg version="1.1" xmlns="http://www.w3.org/2000/svg"><defs><font horiz-adv-x="0" id="font"><font-face ascent="730" bbox="-82 -192 1039 782" cap-height="508" descent="-270" font-family="Unistra A" font-stretch="normal" font-style="normal" font-weight="508" units-per-em="1000" x-height="413" /><missing-glyph d="" horiz-adv-x="200" /><glyph d="" glyph-name=".null" horiz-adv-x="0" unicode="" /><glyph d="" glyph-name="CR" horiz-adv-x="0" unicode="" /><glyph d="" glyph-name="space" horiz-adv-x="200" unicode=" " /><glyph d="" glyph-name="uni00A0" horiz-adv-x="200" unicode=" " /><glyph d="M147 186 317 186L232 426ZM12 0 196 508H269L453 0H383L337 129H127L81 0Z" glyph-name="A" horiz-adv-x="465" unicode="A" /><glyph d="M68 0 68 508H240Q315 508 357 472Q399 436 399 375Q399 339 380.5 311.5Q362 284 325 265Q371 250 394 218.5Q417 187 417 138Q417 72 373 36Q329 0 248 0ZM333 373Q333 412 309.5 431.5Q286 451 240 451H134V57H246Q299 57 324.5 77.5Q350 98 350 140Q350 190 311 210.5Q272 231 174 231L172 283Q264 289 298.5 309.5Q333 330 333 373Z" glyph-name="B" horiz-adv-x="458" unicode="B" /><glyph d="M50 188 50 320Q50 416 100.5 467.5Q151 519 247 519Q285 519 320.5 511Q356 503 391 486L365 430Q331 446 303 453Q275 460 247 460Q182 460 149 424.5Q116 389 116 320V188Q116 121 148.5 85Q181 49 240 49Q272 49 303 57Q334 65 373 84L399 29Q347 5 312 -3Q277 -11 237 -11Q149 -11 99.5 42Q50 95 50 188Z" glyph-name="C" horiz-adv-x="419" unicode="C" /><glyph d="M68 0 68 508H223Q322 508 375.5 456Q429 404 429 309V199Q429 104 375.5 52Q322 0 223 0ZM363 199 363 309Q363 378 327 414.5Q291 451 223 451H134V57H223Q286 57 324.5 95Q363 133 363 199Z" glyph-name="D" horiz-adv-x="479" unicode="D" /><glyph d="M68 0 68 508H364V451H134V285H340V228H134V57H371V0Z" glyph-name="E" horiz-adv-x="413" unicode="E" /><glyph d="M68 0 68 508H364V451H134V271H340V214H134V0Z" glyph-name="F" horiz-adv-x="394" unicode="F" /><glyph d="M50 188 50 320Q50 416 100.5 467.5Q151 519 247 519Q285 519 320.5 511Q356 503 391 486L365 430Q331 446 303 453Q275 460 247 460Q182 460 149 424.5Q116 389 116 320V188Q116 121 148.5 85Q181 49 240 49Q268 49 293 54Q318 59 348 71V214H246V271H412V32Q341 3 308 -4Q275 -11 237 -11Q149 -11 99.5 42Q50 95 50 188Z" glyph-name="G" horiz-adv-x="470" unicode="G" /><glyph d="M366 283 366 508H432V0H366V226H134V0H68V508H134V283Z" glyph-name="H" horiz-adv-x="500" unicode="H" /><glyph d="M68 0 68 508H134V0Z" glyph-name="I" horiz-adv-x="202" unicode="I" /><glyph d="M203 172 203 508H269V172Q269 86 223 37.5Q177 -11 93 -11Q74 -11 54.5 -8Q35 -5 12 1L27 59Q43 54 58.5 52Q74 50 91 50Q145 50 174 81.5Q203 113 203 172Z" glyph-name="J" horiz-adv-x="334" unicode="J" /><glyph d="M134 222 342 508H420L268 301L433 0H357L226 243L134 118V0H68V508H134Z" glyph-name="K" horiz-adv-x="435" unicode="K" /><glyph d="M68 0 68 508H134V59H354V0Z" glyph-name="L" horiz-adv-x="376" unicode="L" /><glyph d="M325 144 494 508H584V0H518V418L357 75H293L134 419V0H68V508H159Z" glyph-name="M" horiz-adv-x="652" unicode="M" /><glyph d="M368 97 368 508H431V0H352L133 408V0H68V508H148Z" glyph-name="N" horiz-adv-x="499" unicode="N" /><glyph d="M50 188 50 320Q50 415 100.5 467Q151 519 245 519Q338 519 389 466.5Q440 414 440 320V188Q440 94 389 41.5Q338 -11 245 -11Q152 -11 101 41.5Q50 94 50 188ZM374 188 374 320Q374 389 340.5 425Q307 461 245 461Q183 461 149.5 425Q116 389 116 320V188Q116 120 149.5 84Q183 48 245 48Q307 48 340.5 84Q374 120 374 188Z" glyph-name="O" horiz-adv-x="490" unicode="O" /><glyph d="M68 0 68 508H230Q313 508 357.5 462Q402 416 402 334V297Q402 221 359.5 176.5Q317 132 240 132Q222 132 204.5 135.5Q187 139 168 146L178 196Q196 192 208 190.5Q220 189 231 189Q281 189 308.5 217Q336 245 336 297V334Q336 391 305 421Q274 451 215 451H134V0Z" glyph-name="P" horiz-adv-x="445" unicode="P" /><glyph d="M50 188 50 320Q50 415 100.5 467Q151 519 245 519Q338 519 389 466.5Q440 414 440 320V188Q440 147 423 108.5Q406 70 372 37L333 76Q357 102 365.5 126.5Q374 151 374 188V320Q374 389 340.5 425Q307 461 245 461Q183 461 149.5 425Q116 389 116 320V188Q116 126 150 90.5Q184 55 259 41Q320 29 355.5 8Q391 -13 431 -54L387 -96Q353 -62 324 -45.5Q295 -29 242 -17Q141 6 95.5 55Q50 104 50 188Z" glyph-name="Q" horiz-adv-x="490" unicode="Q" /><glyph d="M68 0 68 508H213Q299 508 344.5 466Q390 424 390 348V321Q390 267 368.5 229.5Q347 192 307 175L404 0H330L242 163Q223 163 205 166.5Q187 170 168 177L178 227Q196 223 208 221.5Q220 220 231 220Q276 220 300 246Q324 272 324 321V348Q324 402 294 426.5Q264 451 198 451H134V0Z" glyph-name="R" horiz-adv-x="444" unicode="R" /><glyph d="M78 286Q54 306 43 329Q32 352 32 381Q32 445 76 482Q120 519 194 519Q231 519 267.5 510.5Q304 502 338 486L312 430Q278 446 250 453Q222 460 194 460Q149 460 123.5 440.5Q98 421 98 386Q98 368 105.5 353Q113 338 129 325Q135 320 150 311Q165 302 190 289Q239 263 259.5 250.5Q280 238 294 227Q321 205 333 180.5Q345 156 345 123Q345 58 299.5 23.5Q254 -11 171 -11Q137 -11 102 -4Q67 3 27 17L48 74Q87 60 116 54.5Q145 49 176 49Q227 49 253 67.5Q279 86 279 122Q279 141 270 156.5Q261 172 240 187Q235 191 218 201Q201 211 172 227Q116 259 102 268Q88 277 78 286Z" glyph-name="S" horiz-adv-x="374" unicode="S" /><glyph d="M78 286Q54 306 43 329Q32 352 32 381Q32 443 71.5 481Q111 519 173 519Q211 519 243 506Q275 493 323 455Q352 432 375 422.5Q398 413 426 413Q458 413 474 436Q490 459 495 508H544V413H628V357H544V127Q544 88 557.5 70Q571 52 601 52Q606 52 613 52.5Q620 53 627 54L633 -5Q625 -6 615.5 -6.5Q606 -7 598 -7Q538 -7 508 26.5Q478 60 478 127V357H440Q395 357 364.5 368Q334 379 296 409Q258 438 232.5 449Q207 460 180 460Q142 460 120 440Q98 420 98 386Q98 368 105.5 353Q113 338 129 325Q135 320 150 311Q165 302 190 289Q238 264 258.5 251Q279 238 294 227Q320 205 332.5 180.5Q345 156 345 123Q346 59 300 24Q254 -11 171 -11Q137 -11 102 -4Q67 3 27 17L48 74Q87 60 116 54.5Q145 49 176 49Q228 49 254 67.5Q280 86 279 122Q279 141 269.5 156.5Q260 172 240 187Q235 191 218 201Q201 211 172 227Q116 259 102 268Q88 277 78 286Z" glyph-name="S_t" horiz-adv-x="666" unicode="" /><glyph d="M24 451 24 508H382V451H236V0H170V451Z" glyph-name="T" horiz-adv-x="407" unicode="T" /><glyph d="M366 188 366 508H432V188Q432 90 385 39.5Q338 -11 247 -11Q155 -11 108.5 39.5Q62 90 62 188V508H128V188Q128 117 157 82.5Q186 48 247 48Q307 48 336.5 82.5Q366 117 366 188Z" glyph-name="U" horiz-adv-x="494" unicode="U" /><glyph d="M221 75 357 508H428L265 0H177L14 508H84Z" glyph-name="V" horiz-adv-x="443" unicode="V" /><glyph d="M471 66 515 508H581L531 0H436L314 285L193 0H97L47 508H113L157 66L281 363H347Z" glyph-name="W" horiz-adv-x="628" unicode="W" /><glyph d="M206 314 322 508H396L247 262L401 0H326L208 206L87 0H12L168 260L17 508H91Z" glyph-name="X" horiz-adv-x="413" unicode="X" /><glyph d="M203 223 331 508H401L236 150V0H170V150L5 508H75Z" glyph-name="Y" horiz-adv-x="406" unicode="Y" /><glyph d="M40 451 40 508H363V451L101 57H368V0H25V57L287 451Z" glyph-name="Z" horiz-adv-x="397" unicode="Z" /><glyph d="M144 169 304 169V442ZM-30 0 272 508H578V451H370V285H554V228H370V57H585V0H304V112H111L45 0Z" glyph-name="AE" horiz-adv-x="627" unicode="Æ" /><glyph d="M245 508 597 508V451H389V285H573V228H389V57H604V0H245Q152 0 101 52.5Q50 105 50 199V309Q50 403 101 455.5Q152 508 245 508ZM245 57 323 57V451H245Q184 451 150 414Q116 377 116 309V199Q116 131 150 94Q184 57 245 57Z" glyph-name="OE" horiz-adv-x="646" unicode="Œ" /><glyph d="M65 268 65 508H131V305L209 350L238 302L131 240V59H351V0H65V202L24 178L-4 228Z" glyph-name="Lslash" horiz-adv-x="373" unicode="Ł" /><glyph d="M374 188 374 320Q374 389 340.5 425Q307 461 245 461Q183 461 149.5 425Q116 389 116 320V188Q116 120 149.5 84Q183 48 245 48Q307 48 340.5 84Q374 120 374 188ZM245 519Q260 519 273.5 517.5Q287 516 300 513L328 584L385 562L357 490Q397 464 418.5 420Q440 376 440 320V188Q440 94 389 41.5Q338 -11 245 -11Q230 -11 216 -9.5Q202 -8 189 -5L164 -76L106 -56L132 19Q93 45 71.5 88.5Q50 132 50 188V320Q50 415 100.5 467Q151 519 245 519Z" glyph-name="Oslash" horiz-adv-x="490" unicode="Ø" /><glyph d="M223 0 68 0V228H6V281H68V508H223Q322 508 375.5 456Q429 404 429 309V199Q429 104 375.5 52Q322 0 223 0ZM134 228 134 57H223Q286 57 324.5 95Q363 133 363 199V309Q363 378 327 414.5Q291 451 223 451H134V281H253V228Z" glyph-name="Eth" horiz-adv-x="479" unicode="Ð" /><glyph d="M68 0 68 508H134V440H230Q313 440 357.5 394Q402 348 402 266V229Q402 153 359.5 108.5Q317 64 240 64Q222 64 204.5 67.5Q187 71 168 78L178 128Q196 124 208 122.5Q220 121 231 121Q281 121 308.5 149Q336 177 336 229V266Q336 323 305 353Q274 383 215 383H134V0Z" glyph-name="Thorn" horiz-adv-x="445" unicode="Þ" /><glyph d="M173 47Q223 47 254 74.5Q285 102 285 151V203Q179 201 139.5 182Q100 163 100 116Q100 83 119.5 65Q139 47 173 47ZM85 340 63 394Q104 412 135 418Q166 424 204 424Q274 424 312.5 385Q351 346 351 276V0H300L287 45Q262 16 233 2.5Q204 -11 169 -11Q104 -11 69 22.5Q34 56 34 116Q34 188 92.5 220.5Q151 253 285 254V276Q285 321 263 343.5Q241 366 196 366Q170 366 144 360Q118 354 85 340Z" glyph-name="a" horiz-adv-x="412" unicode="a" /><glyph d="M68 0 68 594H134V163Q134 109 160.5 78Q187 47 233 47Q280 47 304 73Q328 99 328 149V264Q328 315 305.5 341Q283 367 239 367Q226 367 211.5 364Q197 361 185 355L162 399Q182 411 204 417.5Q226 424 248 424Q318 424 356 382Q394 340 394 264V149Q394 77 353.5 33Q313 -11 243 -11Q208 -11 179.5 3Q151 17 132 43L119 0Z" glyph-name="b" horiz-adv-x="450" unicode="b" /><glyph d="M56 153 56 260Q56 339 101 381.5Q146 424 231 424Q259 424 288.5 417Q318 410 345 397L319 342Q290 356 268.5 361Q247 366 224 366Q173 366 147.5 339.5Q122 313 122 260V153Q122 98 147.5 72.5Q173 47 229 47Q249 47 275 53.5Q301 60 329 72L354 17Q320 2 290.5 -4.5Q261 -11 229 -11Q143 -11 99.5 30.5Q56 72 56 153Z" glyph-name="c" horiz-adv-x="382" unicode="c" /><glyph d="M316 163 316 594H382V0H331L318 44Q298 17 269 3Q240 -11 204 -11Q133 -11 94.5 32Q56 75 56 149V264Q56 339 96.5 381.5Q137 424 210 424Q228 424 245.5 420.5Q263 417 282 410L272 360Q254 364 242 365.5Q230 367 219 367Q171 367 146.5 341Q122 315 122 264V149Q122 99 145.5 73Q169 47 214 47Q262 47 289 78Q316 109 316 163Z" glyph-name="d" horiz-adv-x="450" unicode="d" /><glyph d="M56 149 56 260Q56 337 98.5 380.5Q141 424 219 424Q297 424 339.5 380.5Q382 337 382 260Q382 233 381.5 214Q381 195 379 178H122V149Q122 96 147.5 71.5Q173 47 229 47Q249 47 275.5 54Q302 61 337 75L362 20Q324 3 293 -4Q262 -11 229 -11Q143 -11 99.5 29Q56 69 56 149ZM316 235 316 260Q316 313 291 340.5Q266 368 219 368Q172 368 147 340.5Q122 313 122 260V235Z" glyph-name="e" horiz-adv-x="432" unicode="e" /><glyph d="M111 413 111 440Q111 517 150.5 558Q190 599 265 599Q277 599 289 598Q301 597 310 595L301 538Q291 540 282.5 540.5Q274 541 267 541Q223 541 200 515Q177 489 177 440V413H299V356H177V0H111V356H27V413Z" glyph-name="f" horiz-adv-x="331" unicode="f" /><glyph d="M56 149 56 264Q56 336 96.5 380Q137 424 207 424Q242 424 270.5 410Q299 396 318 370L331 413H382V-6Q382 -97 339.5 -142.5Q297 -188 212 -188Q188 -188 161 -183Q134 -178 103 -168L124 -112Q149 -121 171 -125Q193 -129 212 -129Q266 -129 291 -100.5Q316 -72 316 -6V250Q316 304 289.5 335Q263 366 217 366Q170 366 146 340Q122 314 122 264V149Q122 99 146 72.5Q170 46 214 46Q227 46 239.5 49Q252 52 265 58L288 14Q271 2 249.5 -4.5Q228 -11 205 -11Q134 -11 95 31.5Q56 74 56 149Z" glyph-name="g" horiz-adv-x="450" unicode="g" /><glyph d="M68 0 68 594H134V372Q154 397 182.5 410.5Q211 424 246 424Q317 424 355.5 381Q394 338 394 264V0H328V264Q328 314 304.5 340Q281 366 236 366Q188 366 161 335Q134 304 134 250V0Z" glyph-name="h" horiz-adv-x="455" unicode="h" /><glyph d="M103 471 44 530L103 589L162 530ZM70 0 70 413H136V0Z" glyph-name="i" horiz-adv-x="206" unicode="i" /><glyph d="M103 471 44 530L103 589L162 530ZM70 -57 70 413H136V-57Q136 -124 106 -157.5Q76 -191 16 -191Q8 -191 -1.5 -190.5Q-11 -190 -19 -189L-13 -130Q-6 -131 1 -131.5Q8 -132 13 -132Q43 -132 56.5 -114Q70 -96 70 -57Z" glyph-name="j" horiz-adv-x="206" unicode="j" /><glyph d="M68 0 68 594H134V205L308 413H389L249 248L401 0H324L206 198L134 114V0Z" glyph-name="k" horiz-adv-x="414" unicode="k" /><glyph d="M68 0 68 594H134V0Z" glyph-name="l" horiz-adv-x="202" unicode="l" /><glyph d="M244 424Q286 424 316 405.5Q346 387 363 351Q382 386 415 405Q448 424 490 424Q555 424 590.5 380.5Q626 337 626 263V0H560V264Q560 314 539 340Q518 366 479 366Q433 366 406.5 335Q380 304 380 250V0H314V264Q314 314 293 340Q272 366 233 366Q187 366 160.5 335Q134 304 134 250V0H68V413H119L132 370Q151 396 179.5 410Q208 424 244 424Z" glyph-name="m" horiz-adv-x="687" unicode="m" /><glyph d="M119 413 132 369Q152 396 181 410Q210 424 246 424Q317 424 355.5 381Q394 338 394 264V0H328V264Q328 314 304.5 340Q281 366 236 366Q188 366 161 335Q134 304 134 250V0H68V413Z" glyph-name="n" horiz-adv-x="455" unicode="n" /><glyph d="M56 153 56 260Q56 337 99 380.5Q142 424 221 424Q300 424 343 380.5Q386 337 386 260V153Q386 76 343 32.5Q300 -11 221 -11Q142 -11 99 32.5Q56 76 56 153ZM320 153 320 260Q320 313 295 340Q270 367 221 367Q172 367 147 340Q122 313 122 260V153Q122 100 147 73Q172 46 221 46Q270 46 295 73Q320 100 320 153Z" glyph-name="o" horiz-adv-x="442" unicode="o" /><glyph d="M119 413 132 369Q152 396 181 410Q210 424 246 424Q317 424 355.5 381Q394 338 394 264V149Q394 74 353.5 31.5Q313 -11 240 -11Q222 -11 204.5 -7.5Q187 -4 168 3L178 53Q196 49 208 47.5Q220 46 231 46Q279 46 303.5 72Q328 98 328 149V264Q328 314 304.5 340Q281 366 236 366Q188 366 161 335Q134 304 134 250V-180H68V413Z" glyph-name="p" horiz-adv-x="450" unicode="p" /><glyph d="M56 149 56 264Q56 336 96.5 380Q137 424 207 424Q242 424 270.5 410Q299 396 318 370L331 413H382V-180H316V250Q316 304 289.5 335Q263 366 217 366Q170 366 146 340Q122 314 122 264V149Q122 98 144.5 72Q167 46 211 46Q224 46 238.5 49Q253 52 265 58L288 14Q268 2 246 -4.5Q224 -11 202 -11Q132 -11 94 31Q56 73 56 149Z" glyph-name="q" horiz-adv-x="450" unicode="q" /><glyph d="M119 413 134 362Q153 392 182 408Q211 424 246 424Q265 424 283.5 420Q302 416 317 408L290 350Q277 356 263.5 359Q250 362 236 362Q190 362 162 329.5Q134 297 134 241V0H68V413Z" glyph-name="r" horiz-adv-x="325" unicode="r" /><glyph d="M79 233Q58 249 49 268Q40 287 40 313Q40 362 79.5 393Q119 424 178 424Q214 424 249 416Q284 408 314 393L288 338Q257 353 231 359.5Q205 366 179 366Q145 366 125.5 352Q106 338 106 314Q106 298 113.5 286.5Q121 275 140 264Q150 258 171.5 247.5Q193 237 198 235Q268 201 293.5 171.5Q319 142 319 100Q319 49 278.5 19Q238 -11 171 -11Q139 -11 106 -4.5Q73 2 35 17L56 73Q89 60 117 54Q145 48 170 48Q212 48 232.5 61Q253 74 253 101Q253 126 235.5 142.5Q218 159 161 187Q111 212 99 219Q87 226 79 233Z" glyph-name="s" horiz-adv-x="357" unicode="s" /><glyph d="M121 508 170 508V413H254V357H170V127Q170 88 183.5 70Q197 52 227 52Q232 52 239 52.5Q246 53 253 54L259 -5Q251 -6 241.5 -6.5Q232 -7 224 -7Q164 -7 134 26.5Q104 60 104 127V357H20V413Q78 413 96.5 432.5Q115 452 121 508Z" glyph-name="t" horiz-adv-x="292" unicode="t" /><glyph d="M321 163 321 413H387V0H336L323 44Q303 17 274 3Q245 -11 209 -11Q138 -11 99.5 32Q61 75 61 149V413H127V149Q127 99 150.5 73Q174 47 219 47Q267 47 294 78Q321 109 321 163Z" glyph-name="u" horiz-adv-x="455" unicode="u" /><glyph d="M203 76 320 413H388L242 0H163L17 413H85Z" glyph-name="v" horiz-adv-x="405" unicode="v" /><glyph d="M453 78 529 413H597L501 0H414L304 331L193 0H106L10 413H78L154 78L267 413H340Z" glyph-name="w" horiz-adv-x="607" unicode="w" /><glyph d="M200 270 296 413H375L238 218L385 0H306L198 160L93 0H14L161 216L24 413H103Z" glyph-name="x" horiz-adv-x="399" unicode="x" /><glyph d="M210 84 328 413H399L210 -99Q191 -149 163 -170Q135 -191 84 -191Q76 -191 66.5 -190.5Q57 -190 49 -189L55 -130Q62 -131 69 -131.5Q76 -132 81 -132Q110 -132 124 -120.5Q138 -109 151 -75L176 -8L20 413H91Z" glyph-name="y" horiz-adv-x="419" unicode="y" /><glyph d="M40 356 40 413H323V356L112 57H328V0H35V57L245 356Z" glyph-name="z" horiz-adv-x="367" unicode="z" /><glyph d="M204 424Q244 424 273.5 409Q303 394 321 366Q343 394 375 409Q407 424 445 424Q521 424 563 380.5Q605 337 605 260Q605 237 604.5 220.5Q604 204 604 192H348V149Q348 96 373 71.5Q398 47 452 47Q472 47 498.5 54Q525 61 560 75L585 20Q547 3 516 -4Q485 -11 452 -11Q399 -11 364 5Q329 21 309 54Q286 23 250.5 6Q215 -11 173 -11Q106 -11 70 22.5Q34 56 34 116Q34 187 92 217.5Q150 248 282 249V271Q282 320 261 343Q240 366 196 366Q170 366 144 360Q118 354 85 340L63 394Q104 412 135 418Q166 424 204 424ZM539 249 539 260Q539 312 514.5 340Q490 368 445 368Q398 368 373 340.5Q348 313 348 260V249ZM173 47Q227 47 254.5 73Q282 99 282 151V192Q175 191 137.5 174.5Q100 158 100 116Q100 83 119.5 65Q139 47 173 47Z" glyph-name="ae" horiz-adv-x="655" unicode="æ" /><glyph d="M218 424Q263 424 295 409.5Q327 395 351 364Q375 394 406.5 409Q438 424 477 424Q553 424 595 380.5Q637 337 637 260Q637 225 637 208Q637 191 636 178H380V149Q380 96 405 71.5Q430 47 484 47Q504 47 530.5 54Q557 61 592 75L617 20Q579 3 548 -4Q517 -11 484 -11Q431 -11 396.5 4.5Q362 20 343 53Q321 21 290 5Q259 -11 218 -11Q141 -11 98.5 32.5Q56 76 56 153V261Q56 337 98.5 380.5Q141 424 218 424ZM571 235 571 260Q571 312 546.5 340Q522 368 477 368Q430 368 405 340.5Q380 313 380 260V235ZM314 153 314 261Q314 314 290 340.5Q266 367 218 367Q172 367 147 340Q122 313 122 261V153Q122 101 146.5 73.5Q171 46 218 46Q266 46 290 73Q314 100 314 153Z" glyph-name="oe" horiz-adv-x="687" unicode="œ" /><glyph d="M129 239 129 0H63V201L24 178L-4 228L63 266V594H129V304L181 334L209 285Z" glyph-name="lslash" horiz-adv-x="205" unicode="ł" /><glyph d="M320 153 320 260Q320 313 295 340Q270 367 221 367Q172 367 147 340Q122 313 122 260V153Q122 100 147 73Q172 46 221 46Q270 46 295 73Q320 100 320 153ZM221 424Q232 424 241 423Q250 422 261 420L288 489L345 467L318 398Q351 377 368.5 341Q386 305 386 260V153Q386 76 343 32.5Q300 -11 221 -11Q209 -11 199.5 -10Q190 -9 179 -7L155 -75L99 -55L124 15Q91 36 73.5 72Q56 108 56 153V260Q56 337 99 380.5Q142 424 221 424Z" glyph-name="oslash" horiz-adv-x="442" unicode="ø" /><glyph d="M149 566 183 620Q209 605 231.5 589Q254 573 274 556L348 598L376 549L314 513Q349 470 366 413.5Q383 357 383 282V149Q383 71 341.5 30Q300 -11 219 -11Q139 -11 97.5 29.5Q56 70 56 146V241Q56 314 92.5 354Q129 394 199 394Q219 394 238.5 390Q258 386 275 379L265 330Q248 334 234.5 335.5Q221 337 208 337Q165 338 144 314Q123 290 123 241V146Q123 95 146 70.5Q169 46 219 46Q267 46 292 72Q317 98 317 149V282Q317 348 303 396Q289 444 258 481L191 442L163 492L214 521Q203 530 189.5 539.5Q176 549 149 566Z" glyph-name="eth" horiz-adv-x="451" unicode="ð" /><glyph d="M70 -180 70 594H136V372Q154 397 183.5 410.5Q213 424 248 424Q319 424 357.5 381Q396 338 396 264V149Q396 74 355.5 31.5Q315 -11 242 -11Q224 -11 206.5 -7.5Q189 -4 170 3L180 53Q198 49 210 47.5Q222 46 233 46Q281 46 305.5 72Q330 98 330 149V264Q330 313 306 339.5Q282 366 238 366Q190 366 163 335Q136 304 136 250V-180Z" glyph-name="thorn" horiz-adv-x="452" unicode="þ" /><glyph d="M119 508 132 463Q152 490 185.5 504.5Q219 519 259 519Q322 519 360.5 480.5Q399 442 399 384Q399 346 380 316Q361 286 325 268Q372 253 394.5 221Q417 189 417 138Q417 70 373.5 29.5Q330 -11 259 -11Q234 -11 210 -7Q186 -3 168 4L178 54Q198 50 214.5 48Q231 46 247 46Q298 46 324 69.5Q350 93 350 140Q350 191 311 212.5Q272 234 174 234L172 286Q265 292 299 314Q333 336 333 382Q333 422 310 442Q287 462 243 462Q195 462 164.5 431.5Q134 401 134 350V-180H68V508Z" glyph-name="germandbls" horiz-adv-x="458" unicode="ß" /><glyph d="M70 0 70 413H136V0Z" glyph-name="dotlessi" horiz-adv-x="206" unicode="ı" /><glyph d="M70 -57 70 413H136V-57Q136 -124 106 -157.5Q76 -191 16 -191Q8 -191 -1.5 -190.5Q-11 -190 -19 -189L-13 -130Q-6 -131 1 -131.5Q8 -132 13 -132Q43 -132 56.5 -114Q70 -96 70 -57Z" glyph-name="dotlessj" horiz-adv-x="206" unicode="ȷ" /><glyph d="M111 413 111 440Q111 517 150.5 558Q190 599 265 599Q277 599 289 598Q301 597 310 595L301 538Q291 540 282.5 540.5Q274 541 267 541Q223 541 200 515Q177 489 177 440V413H299V356H177V0H111V356H27V413ZM434 471 375 530L434 589L493 530ZM401 0 401 413H467V0Z" glyph-name="fi" horiz-adv-x="537" unicode="ﬁ" /><glyph d="M111 413 111 440Q111 517 150.5 558Q190 599 265 599Q277 599 289 598Q301 597 310 595L301 538Q291 540 282.5 540.5Q274 541 267 541Q223 541 200 515Q177 489 177 440V413H299V356H177V0H111V356H27V413ZM399 0 399 594H465V0Z" glyph-name="fl" horiz-adv-x="533" unicode="ﬂ" /><glyph d="M50 188 50 320Q50 415 100.5 467Q151 519 245 519Q338 519 389 466.5Q440 414 440 320V188Q440 147 423 108.5Q406 70 372 37L333 76Q357 102 365.5 126.5Q374 151 374 188V320Q374 389 340.5 425Q307 461 245 461Q183 461 149.5 425Q116 389 116 320V188Q116 126 150 90.5Q184 55 259 41Q315 30 351 10Q387 -10 429 -50Q466 -85 512 -99Q558 -113 635 -118L630 -177Q541 -173 483.5 -153.5Q426 -134 387 -96Q352 -61 323.5 -45Q295 -29 242 -17Q141 6 95.5 55Q50 104 50 188ZM811 163 811 413H877V0H826L813 44Q793 17 764 3Q735 -11 699 -11Q628 -11 589.5 32Q551 75 551 149V413H617V149Q617 99 640.5 73Q664 47 709 47Q757 47 784 78Q811 109 811 163Z" glyph-name="Q_u" horiz-adv-x="945" unicode="" /><glyph d="M147 186 317 186L232 426ZM12 0 196 508H269L453 0H383L337 129H127L81 0ZM194 566 166 610L288 696L322 643Z" glyph-name="Aacute" horiz-adv-x="465" unicode="Á" /><glyph d="M147 186 317 186L232 426ZM12 0 196 508H269L453 0H383L337 129H127L81 0ZM146 580 124 622L233 687L341 622L319 580L233 622Z" glyph-name="Acircumflex" horiz-adv-x="465" unicode="Â" /><glyph d="M147 186 317 186L232 426ZM12 0 196 508H269L453 0H383L337 129H127L81 0ZM311 574 259 625L311 676L362 625ZM157 574 105 625L157 676L208 625Z" glyph-name="Adieresis" horiz-adv-x="465" unicode="Ä" /><glyph d="M147 186 317 186L232 426ZM12 0 196 508H269L453 0H383L337 129H127L81 0ZM282 566 154 643L188 696L310 610Z" glyph-name="Agrave" horiz-adv-x="465" unicode="À" /><glyph d="M147 186 317 186L232 426ZM12 0 196 508H269L453 0H383L337 129H127L81 0ZM157 623 157 633Q157 663 177.5 682Q198 701 233 701Q268 701 289 682Q310 663 310 633V623Q310 593 289 574Q268 555 233 555Q198 555 177.5 574Q157 593 157 623ZM264 623 264 632Q264 646 256 653.5Q248 661 233 661Q219 661 211 653.5Q203 646 203 632V623Q203 609 210.5 601.5Q218 594 233 594Q248 594 256 601.5Q264 609 264 623Z" glyph-name="Aring" horiz-adv-x="465" unicode="Å" /><glyph d="M147 186 317 186L232 426ZM12 0 196 508H269L453 0H383L337 129H127L81 0ZM269 639Q277 639 281.5 645.5Q286 652 286 665H336Q336 627 320.5 607.5Q305 588 277 588Q267 588 256.5 590.5Q246 593 233 598Q217 605 207 608Q197 611 194 611Q186 611 182.5 605Q179 599 179 587H129Q129 624 144 644Q159 664 186 664Q196 664 207 661Q218 658 230 653Q246 646 256 642.5Q266 639 269 639Z" glyph-name="Atilde" horiz-adv-x="465" unicode="Ã" /><glyph d="M147 186 317 186L232 426ZM12 0 196 508H269L453 0H383L337 129H127L81 0ZM233 629Q253 629 265.5 640.5Q278 652 282 673H330Q324 626 299.5 602Q275 578 233 578Q191 578 167 601.5Q143 625 136 673H184Q188 652 200.5 640.5Q213 629 233 629Z" glyph-name="Abreve" horiz-adv-x="465" unicode="Ă" /><glyph d="M147 186 317 186L232 426ZM12 0 196 508H269L453 0H383L337 129H127L81 0ZM147 592 147 647H320V592Z" glyph-name="Amacron" horiz-adv-x="465" unicode="Ā" /><glyph d="M351 -103Q351 -80 360 -60.5Q369 -41 402 0H383L337 129H127L81 0H12L196 508H269L453 0Q423 -38 414 -55Q405 -72 405 -89Q405 -105 413.5 -112.5Q422 -120 440 -120V-166Q397 -166 374 -150Q351 -134 351 -103ZM147 186 317 186L232 426Z" glyph-name="Aogonek" horiz-adv-x="465" unicode="Ą" /><glyph d="M50 188 50 320Q50 416 100.5 467.5Q151 519 247 519Q285 519 320.5 511Q356 503 391 486L365 430Q331 446 303 453Q275 460 247 460Q182 460 149 424.5Q116 389 116 320V188Q116 121 148.5 85Q181 49 240 49Q272 49 303 57Q334 65 373 84L399 29Q347 5 312 -3Q277 -11 237 -11Q149 -11 99.5 42Q50 95 50 188ZM238 -176 192 -160L224 -49L279 -68Z" glyph-name="Ccedilla" horiz-adv-x="419" unicode="Ç" /><glyph d="M50 188 50 320Q50 416 100.5 467.5Q151 519 247 519Q285 519 320.5 511Q356 503 391 486L365 430Q331 446 303 453Q275 460 247 460Q182 460 149 424.5Q116 389 116 320V188Q116 121 148.5 85Q181 49 240 49Q272 49 303 57Q334 65 373 84L399 29Q347 5 312 -3Q277 -11 237 -11Q149 -11 99.5 42Q50 95 50 188ZM206 566 178 610L300 696L334 643Z" glyph-name="Cacute" horiz-adv-x="419" unicode="Ć" /><glyph d="M50 188 50 320Q50 416 100.5 467.5Q151 519 247 519Q285 519 320.5 511Q356 503 391 486L365 430Q331 446 303 453Q275 460 247 460Q182 460 149 424.5Q116 389 116 320V188Q116 121 148.5 85Q181 49 240 49Q272 49 303 57Q334 65 373 84L399 29Q347 5 312 -3Q277 -11 237 -11Q149 -11 99.5 42Q50 95 50 188ZM158 682 245 640L331 682L353 640L245 575L136 640Z" glyph-name="Ccaron" horiz-adv-x="419" unicode="Č" /><glyph d="M50 188 50 320Q50 416 100.5 467.5Q151 519 247 519Q285 519 320.5 511Q356 503 391 486L365 430Q331 446 303 453Q275 460 247 460Q182 460 149 424.5Q116 389 116 320V188Q116 121 148.5 85Q181 49 240 49Q272 49 303 57Q334 65 373 84L399 29Q347 5 312 -3Q277 -11 237 -11Q149 -11 99.5 42Q50 95 50 188ZM158 580 136 622L245 687L353 622L331 580L245 622Z" glyph-name="Ccircumflex" horiz-adv-x="419" unicode="Ĉ" /><glyph d="M50 188 50 320Q50 416 100.5 467.5Q151 519 247 519Q285 519 320.5 511Q356 503 391 486L365 430Q331 446 303 453Q275 460 247 460Q182 460 149 424.5Q116 389 116 320V188Q116 121 148.5 85Q181 49 240 49Q272 49 303 57Q334 65 373 84L399 29Q347 5 312 -3Q277 -11 237 -11Q149 -11 99.5 42Q50 95 50 188ZM245 566 186 625L245 684L304 625Z" glyph-name="Cdotaccent" horiz-adv-x="419" unicode="Ċ" /><glyph d="M68 0 68 508H223Q322 508 375.5 456Q429 404 429 309V199Q429 104 375.5 52Q322 0 223 0ZM363 199 363 309Q363 378 327 414.5Q291 451 223 451H134V57H223Q286 57 324.5 95Q363 133 363 199ZM141 682 228 640L314 682L336 640L228 575L119 640Z" glyph-name="Dcaron" horiz-adv-x="479" unicode="Ď" /><glyph d="M223 0 68 0V228H6V281H68V508H223Q322 508 375.5 456Q429 404 429 309V199Q429 104 375.5 52Q322 0 223 0ZM134 228 134 57H223Q286 57 324.5 95Q363 133 363 199V309Q363 378 327 414.5Q291 451 223 451H134V281H253V228Z" glyph-name="Dcroat" horiz-adv-x="479" unicode="Đ" /><glyph d="M68 0 68 508H364V451H134V285H340V228H134V57H371V0ZM173 566 145 610L267 696L301 643Z" glyph-name="Eacute" horiz-adv-x="413" unicode="É" /><glyph d="M68 0 68 508H364V451H134V285H340V228H134V57H371V0ZM125 580 103 622L212 687L320 622L298 580L212 622Z" glyph-name="Ecircumflex" horiz-adv-x="413" unicode="Ê" /><glyph d="M68 0 68 508H364V451H134V285H340V228H134V57H371V0ZM290 574 238 625L290 676L341 625ZM136 574 84 625L136 676L187 625Z" glyph-name="Edieresis" horiz-adv-x="413" unicode="Ë" /><glyph d="M68 0 68 508H364V451H134V285H340V228H134V57H371V0ZM261 566 133 643L167 696L289 610Z" glyph-name="Egrave" horiz-adv-x="413" unicode="È" /><glyph d="M68 0 68 508H364V451H134V285H340V228H134V57H371V0ZM223 629Q243 629 255.5 640.5Q268 652 272 673H320Q314 626 289.5 602Q265 578 223 578Q181 578 157 601.5Q133 625 126 673H174Q178 652 190.5 640.5Q203 629 223 629Z" glyph-name="Ebreve" horiz-adv-x="413" unicode="Ĕ" /><glyph d="M68 0 68 508H364V451H134V285H340V228H134V57H371V0ZM125 682 212 640L298 682L320 640L212 575L103 640Z" glyph-name="Ecaron" horiz-adv-x="413" unicode="Ě" /><glyph d="M68 0 68 508H364V451H134V285H340V228H134V57H371V0ZM212 566 153 625L212 684L271 625Z" glyph-name="Edotaccent" horiz-adv-x="413" unicode="Ė" /><glyph d="M68 0 68 508H364V451H134V285H340V228H134V57H371V0ZM126 592 126 647H299V592Z" glyph-name="Emacron" horiz-adv-x="413" unicode="Ē" /><glyph d="M237 -103Q237 -80 246 -60.5Q255 -41 288 0H68V508H364V451H134V285H340V228H134V57H371V0H339Q309 -38 300 -55Q291 -72 291 -89Q291 -105 299.5 -112.5Q308 -120 326 -120V-166Q284 -167 260.5 -150.5Q237 -134 237 -103Z" glyph-name="Eogonek" horiz-adv-x="413" unicode="Ę" /><glyph d="M50 188 50 320Q50 416 100.5 467.5Q151 519 247 519Q285 519 320.5 511Q356 503 391 486L365 430Q331 446 303 453Q275 460 247 460Q182 460 149 424.5Q116 389 116 320V188Q116 121 148.5 85Q181 49 240 49Q268 49 293 54Q318 59 348 71V214H246V271H412V32Q341 3 308 -4Q275 -11 237 -11Q149 -11 99.5 42Q50 95 50 188ZM247 629Q267 629 279.5 640.5Q292 652 296 673H344Q338 626 313.5 602Q289 578 247 578Q205 578 181 601.5Q157 625 150 673H198Q202 652 214.5 640.5Q227 629 247 629Z" glyph-name="Gbreve" horiz-adv-x="470" unicode="Ğ" /><glyph d="M50 188 50 320Q50 416 100.5 467.5Q151 519 247 519Q285 519 320.5 511Q356 503 391 486L365 430Q331 446 303 453Q275 460 247 460Q182 460 149 424.5Q116 389 116 320V188Q116 121 148.5 85Q181 49 240 49Q268 49 293 54Q318 59 348 71V214H246V271H412V32Q341 3 308 -4Q275 -11 237 -11Q149 -11 99.5 42Q50 95 50 188ZM158 580 136 622L245 687L353 622L331 580L245 622Z" glyph-name="Gcircumflex" horiz-adv-x="470" unicode="Ĝ" /><glyph d="M50 188 50 320Q50 416 100.5 467.5Q151 519 247 519Q285 519 320.5 511Q356 503 391 486L365 430Q331 446 303 453Q275 460 247 460Q182 460 149 424.5Q116 389 116 320V188Q116 121 148.5 85Q181 49 240 49Q268 49 293 54Q318 59 348 71V214H246V271H412V32Q341 3 308 -4Q275 -11 237 -11Q149 -11 99.5 42Q50 95 50 188ZM230 -175 184 -159L216 -48L271 -67Z" glyph-name="Gcommaaccent" horiz-adv-x="470" unicode="Ģ" /><glyph d="M50 188 50 320Q50 416 100.5 467.5Q151 519 247 519Q285 519 320.5 511Q356 503 391 486L365 430Q331 446 303 453Q275 460 247 460Q182 460 149 424.5Q116 389 116 320V188Q116 121 148.5 85Q181 49 240 49Q268 49 293 54Q318 59 348 71V214H246V271H412V32Q341 3 308 -4Q275 -11 237 -11Q149 -11 99.5 42Q50 95 50 188ZM247 566 188 625L247 684L306 625Z" glyph-name="Gdotaccent" horiz-adv-x="470" unicode="Ġ" /><glyph d="M136 283 368 283V361H136ZM368 413 368 508H434V413H496V361H434V0H368V226H136V0H70V361H8V413H70V508H136V413Z" glyph-name="Hbar" horiz-adv-x="504" unicode="Ħ" /><glyph d="M366 283 366 508H432V0H366V226H134V0H68V508H134V283ZM165 580 143 622L252 687L360 622L338 580L252 622Z" glyph-name="Hcircumflex" horiz-adv-x="500" unicode="Ĥ" /><glyph d="M68 0 68 508H134V0ZM62 566 34 610L156 696L190 643Z" glyph-name="Iacute" horiz-adv-x="202" unicode="Í" /><glyph d="M68 0 68 508H134V0ZM14 580 -8 622L101 687L209 622L187 580L101 622Z" glyph-name="Icircumflex" horiz-adv-x="202" unicode="Î" /><glyph d="M68 0 68 508H134V0ZM179 574 127 625L179 676L230 625ZM25 574 -27 625L25 676L76 625Z" glyph-name="Idieresis" horiz-adv-x="202" unicode="Ï" /><glyph d="M68 0 68 508H134V0ZM150 566 22 643L56 696L178 610Z" glyph-name="Igrave" horiz-adv-x="202" unicode="Ì" /><glyph d="M68 0 68 508H134V0ZM102 629Q122 629 134.5 640.5Q147 652 151 673H199Q193 626 168.5 602Q144 578 102 578Q60 578 36 601.5Q12 625 5 673H53Q57 652 69.5 640.5Q82 629 102 629Z" glyph-name="Ibreve" horiz-adv-x="202" unicode="Ĭ" /><glyph d="M68 0 68 508H134V0ZM101 566 42 625L101 684L160 625Z" glyph-name="Idotaccent" horiz-adv-x="202" unicode="İ" /><glyph d="M68 0 68 508H134V0ZM15 592 15 647H188V592Z" glyph-name="Imacron" horiz-adv-x="202" unicode="Ī" /><glyph d="M134 508 134 0Q104 -38 95 -55Q86 -72 86 -89Q86 -105 94.5 -112.5Q103 -120 121 -120V-166Q79 -167 55.5 -150.5Q32 -134 32 -103Q32 -80 41 -60.5Q50 -41 83 0H68V508Z" glyph-name="Iogonek" horiz-adv-x="202" unicode="Į" /><glyph d="M68 0 68 508H134V0ZM137 639Q145 639 149.5 645.5Q154 652 154 665H204Q204 627 188.5 607.5Q173 588 145 588Q135 588 124.5 590.5Q114 593 101 598Q85 605 75 608Q65 611 62 611Q54 611 50.5 605Q47 599 47 587H-3Q-3 624 12 644Q27 664 54 664Q64 664 75 661Q86 658 98 653Q114 646 124 642.5Q134 639 137 639Z" glyph-name="Itilde" horiz-adv-x="202" unicode="Ĩ" /><glyph d="M203 172 203 508H269V172Q269 86 223 37.5Q177 -11 93 -11Q74 -11 54.5 -8Q35 -5 12 1L27 59Q43 54 58.5 52Q74 50 91 50Q145 50 174 81.5Q203 113 203 172ZM150 580 128 622L237 687L345 622L323 580L237 622Z" glyph-name="Jcircumflex" horiz-adv-x="334" unicode="Ĵ" /><glyph d="M68 0 68 508H134V0ZM405 172 405 508H471V172Q471 86 425 37.5Q379 -11 295 -11Q276 -11 256.5 -8Q237 -5 214 1L229 59Q245 54 260.5 52Q276 50 293 50Q347 50 376 81.5Q405 113 405 172Z" glyph-name="IJ" horiz-adv-x="536" unicode="Ĳ" /><glyph d="M134 222 342 508H420L268 301L433 0H357L226 243L134 118V0H68V508H134ZM214 -175 168 -159L200 -48L255 -67Z" glyph-name="Kcommaaccent" horiz-adv-x="435" unicode="Ķ" /><glyph d="M68 0 68 508H134V59H354V0ZM62 566 34 610L156 696L190 643Z" glyph-name="Lacute" horiz-adv-x="376" unicode="Ĺ" /><glyph d="M68 0 68 508H134V59H354V0ZM244 378 202 390Q213 440 219 469.5Q225 499 230 525L288 513Q279 481 268.5 449Q258 417 244 378Z" glyph-name="Lcaron" horiz-adv-x="376" unicode="Ľ" /><glyph d="M68 0 68 508H134V59H354V0ZM199 -175 153 -159L185 -48L240 -67Z" glyph-name="Lcommaaccent" horiz-adv-x="376" unicode="Ļ" /><glyph d="M68 0 68 508H134V59H354V0ZM290 195 231 254L290 313L349 254Z" glyph-name="Ldot" horiz-adv-x="376" unicode="Ŀ" /><glyph d="M357 121 357 508H423V-21Q423 -88 393 -121.5Q363 -155 303 -155Q295 -155 285.5 -154.5Q276 -154 268 -153L274 -94Q281 -95 288 -95.5Q295 -96 300 -96Q330 -96 343.5 -78Q357 -60 357 -21V-4L126 414V0H60V508H143Z" glyph-name="Eng" horiz-adv-x="483" unicode="Ŋ" /><glyph d="M368 97 368 508H431V0H352L133 408V0H68V508H148ZM286 639Q294 639 298.5 645.5Q303 652 303 665H353Q353 627 337.5 607.5Q322 588 294 588Q284 588 273.5 590.5Q263 593 250 598Q234 605 224 608Q214 611 211 611Q203 611 199.5 605Q196 599 196 587H146Q146 624 161 644Q176 664 203 664Q213 664 224 661Q235 658 247 653Q263 646 273 642.5Q283 639 286 639Z" glyph-name="Ntilde" horiz-adv-x="499" unicode="Ñ" /><glyph d="M368 97 368 508H431V0H352L133 408V0H68V508H148ZM211 566 183 610L305 696L339 643Z" glyph-name="Nacute" horiz-adv-x="499" unicode="Ń" /><glyph d="M368 97 368 508H431V0H352L133 408V0H68V508H148ZM163 682 250 640L336 682L358 640L250 575L141 640Z" glyph-name="Ncaron" horiz-adv-x="499" unicode="Ň" /><glyph d="M368 97 368 508H431V0H352L133 408V0H68V508H148ZM238 -175 192 -159L224 -48L279 -67Z" glyph-name="Ncommaaccent" horiz-adv-x="499" unicode="Ņ" /><glyph d="M50 188 50 320Q50 415 100.5 467Q151 519 245 519Q338 519 389 466.5Q440 414 440 320V188Q440 94 389 41.5Q338 -11 245 -11Q152 -11 101 41.5Q50 94 50 188ZM374 188 374 320Q374 389 340.5 425Q307 461 245 461Q183 461 149.5 425Q116 389 116 320V188Q116 120 149.5 84Q183 48 245 48Q307 48 340.5 84Q374 120 374 188ZM206 566 178 610L300 696L334 643Z" glyph-name="Oacute" horiz-adv-x="490" unicode="Ó" /><glyph d="M50 188 50 320Q50 415 100.5 467Q151 519 245 519Q338 519 389 466.5Q440 414 440 320V188Q440 94 389 41.5Q338 -11 245 -11Q152 -11 101 41.5Q50 94 50 188ZM374 188 374 320Q374 389 340.5 425Q307 461 245 461Q183 461 149.5 425Q116 389 116 320V188Q116 120 149.5 84Q183 48 245 48Q307 48 340.5 84Q374 120 374 188ZM158 580 136 622L245 687L353 622L331 580L245 622Z" glyph-name="Ocircumflex" horiz-adv-x="490" unicode="Ô" /><glyph d="M50 188 50 320Q50 415 100.5 467Q151 519 245 519Q338 519 389 466.5Q440 414 440 320V188Q440 94 389 41.5Q338 -11 245 -11Q152 -11 101 41.5Q50 94 50 188ZM374 188 374 320Q374 389 340.5 425Q307 461 245 461Q183 461 149.5 425Q116 389 116 320V188Q116 120 149.5 84Q183 48 245 48Q307 48 340.5 84Q374 120 374 188ZM323 574 271 625L323 676L374 625ZM169 574 117 625L169 676L220 625Z" glyph-name="Odieresis" horiz-adv-x="490" unicode="Ö" /><glyph d="M50 188 50 320Q50 415 100.5 467Q151 519 245 519Q338 519 389 466.5Q440 414 440 320V188Q440 94 389 41.5Q338 -11 245 -11Q152 -11 101 41.5Q50 94 50 188ZM374 188 374 320Q374 389 340.5 425Q307 461 245 461Q183 461 149.5 425Q116 389 116 320V188Q116 120 149.5 84Q183 48 245 48Q307 48 340.5 84Q374 120 374 188ZM294 566 166 643L200 696L322 610Z" glyph-name="Ograve" horiz-adv-x="490" unicode="Ò" /><glyph d="M50 188 50 320Q50 415 100.5 467Q151 519 245 519Q338 519 389 466.5Q440 414 440 320V188Q440 94 389 41.5Q338 -11 245 -11Q152 -11 101 41.5Q50 94 50 188ZM374 188 374 320Q374 389 340.5 425Q307 461 245 461Q183 461 149.5 425Q116 389 116 320V188Q116 120 149.5 84Q183 48 245 48Q307 48 340.5 84Q374 120 374 188ZM281 639Q289 639 293.5 645.5Q298 652 298 665H348Q348 627 332.5 607.5Q317 588 289 588Q279 588 268.5 590.5Q258 593 245 598Q229 605 219 608Q209 611 206 611Q198 611 194.5 605Q191 599 191 587H141Q141 624 156 644Q171 664 198 664Q208 664 219 661Q230 658 242 653Q258 646 268 642.5Q278 639 281 639Z" glyph-name="Otilde" horiz-adv-x="490" unicode="Õ" /><glyph d="M50 188 50 320Q50 415 100.5 467Q151 519 245 519Q338 519 389 466.5Q440 414 440 320V188Q440 94 389 41.5Q338 -11 245 -11Q152 -11 101 41.5Q50 94 50 188ZM374 188 374 320Q374 389 340.5 425Q307 461 245 461Q183 461 149.5 425Q116 389 116 320V188Q116 120 149.5 84Q183 48 245 48Q307 48 340.5 84Q374 120 374 188ZM237 629Q257 629 269.5 640.5Q282 652 286 673H334Q328 626 303.5 602Q279 578 237 578Q195 578 171 601.5Q147 625 140 673H188Q192 652 204.5 640.5Q217 629 237 629Z" glyph-name="Obreve" horiz-adv-x="490" unicode="Ŏ" /><glyph d="M50 188 50 320Q50 415 100.5 467Q151 519 245 519Q338 519 389 466.5Q440 414 440 320V188Q440 94 389 41.5Q338 -11 245 -11Q152 -11 101 41.5Q50 94 50 188ZM374 188 374 320Q374 389 340.5 425Q307 461 245 461Q183 461 149.5 425Q116 389 116 320V188Q116 120 149.5 84Q183 48 245 48Q307 48 340.5 84Q374 120 374 188ZM295 564 259 595L339 686L381 648ZM157 564 121 595L201 686L243 648Z" glyph-name="Ohungarumlaut" horiz-adv-x="490" unicode="Ő" /><glyph d="M50 188 50 320Q50 415 100.5 467Q151 519 245 519Q338 519 389 466.5Q440 414 440 320V188Q440 94 389 41.5Q338 -11 245 -11Q152 -11 101 41.5Q50 94 50 188ZM374 188 374 320Q374 389 340.5 425Q307 461 245 461Q183 461 149.5 425Q116 389 116 320V188Q116 120 149.5 84Q183 48 245 48Q307 48 340.5 84Q374 120 374 188ZM159 592 159 647H332V592Z" glyph-name="Omacron" horiz-adv-x="490" unicode="Ō" /><glyph d="M68 0 68 508H213Q299 508 344.5 466Q390 424 390 348V321Q390 267 368.5 229.5Q347 192 307 175L404 0H330L242 163Q223 163 205 166.5Q187 170 168 177L178 227Q196 223 208 221.5Q220 220 231 220Q276 220 300 246Q324 272 324 321V348Q324 402 294 426.5Q264 451 198 451H134V0ZM180 566 152 610L274 696L308 643Z" glyph-name="Racute" horiz-adv-x="444" unicode="Ŕ" /><glyph d="M68 0 68 508H213Q299 508 344.5 466Q390 424 390 348V321Q390 267 368.5 229.5Q347 192 307 175L404 0H330L242 163Q223 163 205 166.5Q187 170 168 177L178 227Q196 223 208 221.5Q220 220 231 220Q276 220 300 246Q324 272 324 321V348Q324 402 294 426.5Q264 451 198 451H134V0ZM132 682 219 640L305 682L327 640L219 575L110 640Z" glyph-name="Rcaron" horiz-adv-x="444" unicode="Ř" /><glyph d="M68 0 68 508H213Q299 508 344.5 466Q390 424 390 348V321Q390 267 368.5 229.5Q347 192 307 175L404 0H330L242 163Q223 163 205 166.5Q187 170 168 177L178 227Q196 223 208 221.5Q220 220 231 220Q276 220 300 246Q324 272 324 321V348Q324 402 294 426.5Q264 451 198 451H134V0ZM217 -175 171 -159L203 -48L258 -67Z" glyph-name="Rcommaaccent" horiz-adv-x="444" unicode="Ŗ" /><glyph d="M78 286Q54 306 43 329Q32 352 32 381Q32 445 76 482Q120 519 194 519Q231 519 267.5 510.5Q304 502 338 486L312 430Q278 446 250 453Q222 460 194 460Q149 460 123.5 440.5Q98 421 98 386Q98 368 105.5 353Q113 338 129 325Q135 320 150 311Q165 302 190 289Q239 263 259.5 250.5Q280 238 294 227Q321 205 333 180.5Q345 156 345 123Q345 58 299.5 23.5Q254 -11 171 -11Q137 -11 102 -4Q67 3 27 17L48 74Q87 60 116 54.5Q145 49 176 49Q227 49 253 67.5Q279 86 279 122Q279 141 270 156.5Q261 172 240 187Q235 191 218 201Q201 211 172 227Q116 259 102 268Q88 277 78 286ZM103 682 190 640L276 682L298 640L190 575L81 640Z" glyph-name="Scaron" horiz-adv-x="374" unicode="Š" /><glyph d="M78 286Q54 306 43 329Q32 352 32 381Q32 445 76 482Q120 519 194 519Q231 519 267.5 510.5Q304 502 338 486L312 430Q278 446 250 453Q222 460 194 460Q149 460 123.5 440.5Q98 421 98 386Q98 368 105.5 353Q113 338 129 325Q135 320 150 311Q165 302 190 289Q239 263 259.5 250.5Q280 238 294 227Q321 205 333 180.5Q345 156 345 123Q345 58 299.5 23.5Q254 -11 171 -11Q137 -11 102 -4Q67 3 27 17L48 74Q87 60 116 54.5Q145 49 176 49Q227 49 253 67.5Q279 86 279 122Q279 141 270 156.5Q261 172 240 187Q235 191 218 201Q201 211 172 227Q116 259 102 268Q88 277 78 286ZM151 566 123 610L245 696L279 643Z" glyph-name="Sacute" horiz-adv-x="374" unicode="Ś" /><glyph d="M78 286Q54 306 43 329Q32 352 32 381Q32 445 76 482Q120 519 194 519Q231 519 267.5 510.5Q304 502 338 486L312 430Q278 446 250 453Q222 460 194 460Q149 460 123.5 440.5Q98 421 98 386Q98 368 105.5 353Q113 338 129 325Q135 320 150 311Q165 302 190 289Q239 263 259.5 250.5Q280 238 294 227Q321 205 333 180.5Q345 156 345 123Q345 58 299.5 23.5Q254 -11 171 -11Q137 -11 102 -4Q67 3 27 17L48 74Q87 60 116 54.5Q145 49 176 49Q227 49 253 67.5Q279 86 279 122Q279 141 270 156.5Q261 172 240 187Q235 191 218 201Q201 211 172 227Q116 259 102 268Q88 277 78 286ZM103 580 81 622L190 687L298 622L276 580L190 622Z" glyph-name="Scircumflex" horiz-adv-x="374" unicode="Ŝ" /><glyph d="M78 286Q54 306 43 329Q32 352 32 381Q32 445 76 482Q120 519 194 519Q231 519 267.5 510.5Q304 502 338 486L312 430Q278 446 250 453Q222 460 194 460Q149 460 123.5 440.5Q98 421 98 386Q98 368 105.5 353Q113 338 129 325Q135 320 150 311Q165 302 190 289Q239 263 259.5 250.5Q280 238 294 227Q321 205 333 180.5Q345 156 345 123Q345 58 299.5 23.5Q254 -11 171 -11Q137 -11 102 -4Q67 3 27 17L48 74Q87 60 116 54.5Q145 49 176 49Q227 49 253 67.5Q279 86 279 122Q279 141 270 156.5Q261 172 240 187Q235 191 218 201Q201 211 172 227Q116 259 102 268Q88 277 78 286ZM168 -176 122 -160L154 -49L209 -68Z" glyph-name="Scedilla" horiz-adv-x="374" unicode="Ş" /><glyph d="M78 286Q54 306 43 329Q32 352 32 381Q32 445 76 482Q120 519 194 519Q231 519 267.5 510.5Q304 502 338 486L312 430Q278 446 250 453Q222 460 194 460Q149 460 123.5 440.5Q98 421 98 386Q98 368 105.5 353Q113 338 129 325Q135 320 150 311Q165 302 190 289Q239 263 259.5 250.5Q280 238 294 227Q321 205 333 180.5Q345 156 345 123Q345 58 299.5 23.5Q254 -11 171 -11Q137 -11 102 -4Q67 3 27 17L48 74Q87 60 116 54.5Q145 49 176 49Q227 49 253 67.5Q279 86 279 122Q279 141 270 156.5Q261 172 240 187Q235 191 218 201Q201 211 172 227Q116 259 102 268Q88 277 78 286ZM168 -175 122 -159L154 -48L209 -67Z" glyph-name="uni0218" horiz-adv-x="374" unicode="Ș" /><glyph d="M382 508 382 451H236V353H321V301H236V0H170V301H85V353H170V451H24V508Z" glyph-name="Tbar" horiz-adv-x="407" unicode="Ŧ" /><glyph d="M24 451 24 508H382V451H236V0H170V451ZM116 682 203 640L289 682L311 640L203 575L94 640Z" glyph-name="Tcaron" horiz-adv-x="407" unicode="Ť" /><glyph d="M24 451 24 508H382V451H236V0H170V451ZM196 -175 150 -159L182 -48L237 -67Z" glyph-name="uni0162" horiz-adv-x="407" unicode="Ţ" /><glyph d="M24 451 24 508H382V451H236V0H170V451ZM196 -175 150 -159L182 -48L237 -67Z" glyph-name="uni021A" horiz-adv-x="407" unicode="Ț" /><glyph d="M366 188 366 508H432V188Q432 90 385 39.5Q338 -11 247 -11Q155 -11 108.5 39.5Q62 90 62 188V508H128V188Q128 117 157 82.5Q186 48 247 48Q307 48 336.5 82.5Q366 117 366 188ZM208 566 180 610L302 696L336 643Z" glyph-name="Uacute" horiz-adv-x="494" unicode="Ú" /><glyph d="M366 188 366 508H432V188Q432 90 385 39.5Q338 -11 247 -11Q155 -11 108.5 39.5Q62 90 62 188V508H128V188Q128 117 157 82.5Q186 48 247 48Q307 48 336.5 82.5Q366 117 366 188ZM160 580 138 622L247 687L355 622L333 580L247 622Z" glyph-name="Ucircumflex" horiz-adv-x="494" unicode="Û" /><glyph d="M366 188 366 508H432V188Q432 90 385 39.5Q338 -11 247 -11Q155 -11 108.5 39.5Q62 90 62 188V508H128V188Q128 117 157 82.5Q186 48 247 48Q307 48 336.5 82.5Q366 117 366 188ZM325 574 273 625L325 676L376 625ZM171 574 119 625L171 676L222 625Z" glyph-name="Udieresis" horiz-adv-x="494" unicode="Ü" /><glyph d="M366 188 366 508H432V188Q432 90 385 39.5Q338 -11 247 -11Q155 -11 108.5 39.5Q62 90 62 188V508H128V188Q128 117 157 82.5Q186 48 247 48Q307 48 336.5 82.5Q366 117 366 188ZM296 566 168 643L202 696L324 610Z" glyph-name="Ugrave" horiz-adv-x="494" unicode="Ù" /><glyph d="M366 188 366 508H432V188Q432 90 385 39.5Q338 -11 247 -11Q155 -11 108.5 39.5Q62 90 62 188V508H128V188Q128 117 157 82.5Q186 48 247 48Q307 48 336.5 82.5Q366 117 366 188ZM239 629Q259 629 271.5 640.5Q284 652 288 673H336Q330 626 305.5 602Q281 578 239 578Q197 578 173 601.5Q149 625 142 673H190Q194 652 206.5 640.5Q219 629 239 629Z" glyph-name="Ubreve" horiz-adv-x="494" unicode="Ŭ" /><glyph d="M366 188 366 508H432V188Q432 90 385 39.5Q338 -11 247 -11Q155 -11 108.5 39.5Q62 90 62 188V508H128V188Q128 117 157 82.5Q186 48 247 48Q307 48 336.5 82.5Q366 117 366 188ZM297 564 261 595L341 686L383 648ZM159 564 123 595L203 686L245 648Z" glyph-name="Uhungarumlaut" horiz-adv-x="494" unicode="Ű" /><glyph d="M366 188 366 508H432V188Q432 90 385 39.5Q338 -11 247 -11Q155 -11 108.5 39.5Q62 90 62 188V508H128V188Q128 117 157 82.5Q186 48 247 48Q307 48 336.5 82.5Q366 117 366 188ZM161 592 161 647H334V592Z" glyph-name="Umacron" horiz-adv-x="494" unicode="Ū" /><glyph d="M309 -120 309 -166Q267 -167 243.5 -150.5Q220 -134 220 -103Q220 -81 228 -63Q236 -45 262 -11H247Q155 -11 108.5 39.5Q62 90 62 188V508H128V188Q128 117 157 82.5Q186 48 247 48Q307 48 336.5 82.5Q366 117 366 188V508H432V188Q432 113 404 65.5Q376 18 322 0Q292 -38 283 -55Q274 -72 274 -89Q274 -105 282.5 -112.5Q291 -120 309 -120Z" glyph-name="Uogonek" horiz-adv-x="494" unicode="Ų" /><glyph d="M366 188 366 508H432V188Q432 90 385 39.5Q338 -11 247 -11Q155 -11 108.5 39.5Q62 90 62 188V508H128V188Q128 117 157 82.5Q186 48 247 48Q307 48 336.5 82.5Q366 117 366 188ZM171 623 171 633Q171 663 191.5 682Q212 701 247 701Q282 701 303 682Q324 663 324 633V623Q324 593 303 574Q282 555 247 555Q212 555 191.5 574Q171 593 171 623ZM278 623 278 632Q278 646 270 653.5Q262 661 247 661Q233 661 225 653.5Q217 646 217 632V623Q217 609 224.5 601.5Q232 594 247 594Q262 594 270 601.5Q278 609 278 623Z" glyph-name="Uring" horiz-adv-x="494" unicode="Ů" /><glyph d="M366 188 366 508H432V188Q432 90 385 39.5Q338 -11 247 -11Q155 -11 108.5 39.5Q62 90 62 188V508H128V188Q128 117 157 82.5Q186 48 247 48Q307 48 336.5 82.5Q366 117 366 188ZM283 639Q291 639 295.5 645.5Q300 652 300 665H350Q350 627 334.5 607.5Q319 588 291 588Q281 588 270.5 590.5Q260 593 247 598Q231 605 221 608Q211 611 208 611Q200 611 196.5 605Q193 599 193 587H143Q143 624 158 644Q173 664 200 664Q210 664 221 661Q232 658 244 653Q260 646 270 642.5Q280 639 283 639Z" glyph-name="Utilde" horiz-adv-x="494" unicode="Ũ" /><glyph d="M471 66 515 508H581L531 0H436L314 285L193 0H97L47 508H113L157 66L281 363H347ZM275 566 247 610L369 696L403 643Z" glyph-name="Wacute" horiz-adv-x="628" unicode="Ẃ" /><glyph d="M471 66 515 508H581L531 0H436L314 285L193 0H97L47 508H113L157 66L281 363H347ZM227 580 205 622L314 687L422 622L400 580L314 622Z" glyph-name="Wcircumflex" horiz-adv-x="628" unicode="Ŵ" /><glyph d="M471 66 515 508H581L531 0H436L314 285L193 0H97L47 508H113L157 66L281 363H347ZM392 574 340 625L392 676L443 625ZM238 574 186 625L238 676L289 625Z" glyph-name="Wdieresis" horiz-adv-x="628" unicode="Ẅ" /><glyph d="M471 66 515 508H581L531 0H436L314 285L193 0H97L47 508H113L157 66L281 363H347ZM363 566 235 643L269 696L391 610Z" glyph-name="Wgrave" horiz-adv-x="628" unicode="Ẁ" /><glyph d="M203 223 331 508H401L236 150V0H170V150L5 508H75ZM164 566 136 610L258 696L292 643Z" glyph-name="Yacute" horiz-adv-x="406" unicode="Ý" /><glyph d="M203 223 331 508H401L236 150V0H170V150L5 508H75ZM281 574 229 625L281 676L332 625ZM127 574 75 625L127 676L178 625Z" glyph-name="Ydieresis" horiz-adv-x="406" unicode="Ÿ" /><glyph d="M203 223 331 508H401L236 150V0H170V150L5 508H75ZM116 580 94 622L203 687L311 622L289 580L203 622Z" glyph-name="Ycircumflex" horiz-adv-x="406" unicode="Ŷ" /><glyph d="M203 223 331 508H401L236 150V0H170V150L5 508H75ZM252 566 124 643L158 696L280 610Z" glyph-name="Ygrave" horiz-adv-x="406" unicode="Ỳ" /><glyph d="M40 451 40 508H363V451L101 57H368V0H25V57L287 451ZM111 682 198 640L284 682L306 640L198 575L89 640Z" glyph-name="Zcaron" horiz-adv-x="397" unicode="Ž" /><glyph d="M40 451 40 508H363V451L101 57H368V0H25V57L287 451ZM159 566 131 610L253 696L287 643Z" glyph-name="Zacute" horiz-adv-x="397" unicode="Ź" /><glyph d="M40 451 40 508H363V451L101 57H368V0H25V57L287 451ZM198 566 139 625L198 684L257 625Z" glyph-name="Zdotaccent" horiz-adv-x="397" unicode="Ż" /><glyph d="M173 47Q223 47 254 74.5Q285 102 285 151V203Q179 201 139.5 182Q100 163 100 116Q100 83 119.5 65Q139 47 173 47ZM85 340 63 394Q104 412 135 418Q166 424 204 424Q274 424 312.5 385Q351 346 351 276V0H300L287 45Q262 16 233 2.5Q204 -11 169 -11Q104 -11 69 22.5Q34 56 34 116Q34 188 92.5 220.5Q151 253 285 254V276Q285 321 263 343.5Q241 366 196 366Q170 366 144 360Q118 354 85 340ZM156 471 128 515L250 601L284 548Z" glyph-name="aacute" horiz-adv-x="412" unicode="á" /><glyph d="M173 47Q223 47 254 74.5Q285 102 285 151V203Q179 201 139.5 182Q100 163 100 116Q100 83 119.5 65Q139 47 173 47ZM85 340 63 394Q104 412 135 418Q166 424 204 424Q274 424 312.5 385Q351 346 351 276V0H300L287 45Q262 16 233 2.5Q204 -11 169 -11Q104 -11 69 22.5Q34 56 34 116Q34 188 92.5 220.5Q151 253 285 254V276Q285 321 263 343.5Q241 366 196 366Q170 366 144 360Q118 354 85 340ZM108 485 86 527L195 592L303 527L281 485L195 527Z" glyph-name="acircumflex" horiz-adv-x="412" unicode="â" /><glyph d="M173 47Q223 47 254 74.5Q285 102 285 151V203Q179 201 139.5 182Q100 163 100 116Q100 83 119.5 65Q139 47 173 47ZM85 340 63 394Q104 412 135 418Q166 424 204 424Q274 424 312.5 385Q351 346 351 276V0H300L287 45Q262 16 233 2.5Q204 -11 169 -11Q104 -11 69 22.5Q34 56 34 116Q34 188 92.5 220.5Q151 253 285 254V276Q285 321 263 343.5Q241 366 196 366Q170 366 144 360Q118 354 85 340ZM273 479 221 530L273 581L324 530ZM119 479 67 530L119 581L170 530Z" glyph-name="adieresis" horiz-adv-x="412" unicode="ä" /><glyph d="M173 47Q223 47 254 74.5Q285 102 285 151V203Q179 201 139.5 182Q100 163 100 116Q100 83 119.5 65Q139 47 173 47ZM85 340 63 394Q104 412 135 418Q166 424 204 424Q274 424 312.5 385Q351 346 351 276V0H300L287 45Q262 16 233 2.5Q204 -11 169 -11Q104 -11 69 22.5Q34 56 34 116Q34 188 92.5 220.5Q151 253 285 254V276Q285 321 263 343.5Q241 366 196 366Q170 366 144 360Q118 354 85 340ZM244 471 116 548L150 601L272 515Z" glyph-name="agrave" horiz-adv-x="412" unicode="à" /><glyph d="M173 47Q223 47 254 74.5Q285 102 285 151V203Q179 201 139.5 182Q100 163 100 116Q100 83 119.5 65Q139 47 173 47ZM85 340 63 394Q104 412 135 418Q166 424 204 424Q274 424 312.5 385Q351 346 351 276V0H300L287 45Q262 16 233 2.5Q204 -11 169 -11Q104 -11 69 22.5Q34 56 34 116Q34 188 92.5 220.5Q151 253 285 254V276Q285 321 263 343.5Q241 366 196 366Q170 366 144 360Q118 354 85 340ZM128 528 128 538Q128 568 148.5 587Q169 606 204 606Q239 606 260 587Q281 568 281 538V528Q281 498 260 479Q239 460 204 460Q169 460 148.5 479Q128 498 128 528ZM235 528 235 537Q235 551 227 558.5Q219 566 204 566Q190 566 182 558.5Q174 551 174 537V528Q174 514 181.5 506.5Q189 499 204 499Q219 499 227 506.5Q235 514 235 528Z" glyph-name="aring" horiz-adv-x="412" unicode="å" /><glyph d="M173 47Q223 47 254 74.5Q285 102 285 151V203Q179 201 139.5 182Q100 163 100 116Q100 83 119.5 65Q139 47 173 47ZM85 340 63 394Q104 412 135 418Q166 424 204 424Q274 424 312.5 385Q351 346 351 276V0H300L287 45Q262 16 233 2.5Q204 -11 169 -11Q104 -11 69 22.5Q34 56 34 116Q34 188 92.5 220.5Q151 253 285 254V276Q285 321 263 343.5Q241 366 196 366Q170 366 144 360Q118 354 85 340ZM231 544Q239 544 243.5 550.5Q248 557 248 570H298Q298 532 282.5 512.5Q267 493 239 493Q229 493 218.5 495.5Q208 498 195 503Q179 510 169 513Q159 516 156 516Q148 516 144.5 510Q141 504 141 492H91Q91 529 106 549Q121 569 148 569Q158 569 169 566Q180 563 192 558Q208 551 218 547.5Q228 544 231 544Z" glyph-name="atilde" horiz-adv-x="412" unicode="ã" /><glyph d="M173 47Q223 47 254 74.5Q285 102 285 151V203Q179 201 139.5 182Q100 163 100 116Q100 83 119.5 65Q139 47 173 47ZM85 340 63 394Q104 412 135 418Q166 424 204 424Q274 424 312.5 385Q351 346 351 276V0H300L287 45Q262 16 233 2.5Q204 -11 169 -11Q104 -11 69 22.5Q34 56 34 116Q34 188 92.5 220.5Q151 253 285 254V276Q285 321 263 343.5Q241 366 196 366Q170 366 144 360Q118 354 85 340ZM195 534Q215 534 227.5 545.5Q240 557 244 578H292Q286 531 261.5 507Q237 483 195 483Q153 483 129 506.5Q105 530 98 578H146Q150 557 162.5 545.5Q175 534 195 534Z" glyph-name="abreve" horiz-adv-x="412" unicode="ă" /><glyph d="M173 47Q223 47 254 74.5Q285 102 285 151V203Q179 201 139.5 182Q100 163 100 116Q100 83 119.5 65Q139 47 173 47ZM85 340 63 394Q104 412 135 418Q166 424 204 424Q274 424 312.5 385Q351 346 351 276V0H300L287 45Q262 16 233 2.5Q204 -11 169 -11Q104 -11 69 22.5Q34 56 34 116Q34 188 92.5 220.5Q151 253 285 254V276Q285 321 263 343.5Q241 366 196 366Q170 366 144 360Q118 354 85 340ZM109 497 109 552H282V497Z" glyph-name="amacron" horiz-adv-x="412" unicode="ā" /><glyph d="M249 -103Q249 -80 258 -60.5Q267 -41 300 0L287 45Q262 16 233 2.5Q204 -11 169 -11Q104 -11 69 22.5Q34 56 34 116Q34 188 92.5 220.5Q151 253 285 254V276Q285 321 263 343.5Q241 366 196 366Q170 366 144 360Q118 354 85 340L63 394Q104 412 135 418Q166 424 204 424Q274 424 312.5 385Q351 346 351 276V0Q321 -38 312 -55Q303 -72 303 -89Q303 -105 311.5 -112.5Q320 -120 338 -120V-166Q296 -167 272.5 -150.5Q249 -134 249 -103ZM173 47Q223 47 254 74.5Q285 102 285 151V203Q179 201 139.5 182Q100 163 100 116Q100 83 119.5 65Q139 47 173 47Z" glyph-name="aogonek" horiz-adv-x="412" unicode="ą" /><glyph d="M56 153 56 260Q56 339 101 381.5Q146 424 231 424Q259 424 288.5 417Q318 410 345 397L319 342Q290 356 268.5 361Q247 366 224 366Q173 366 147.5 339.5Q122 313 122 260V153Q122 98 147.5 72.5Q173 47 229 47Q249 47 275 53.5Q301 60 329 72L354 17Q320 2 290.5 -4.5Q261 -11 229 -11Q143 -11 99.5 30.5Q56 72 56 153ZM215 -176 169 -160L201 -49L256 -68Z" glyph-name="ccedilla" horiz-adv-x="382" unicode="ç" /><glyph d="M56 153 56 260Q56 339 101 381.5Q146 424 231 424Q259 424 288.5 417Q318 410 345 397L319 342Q290 356 268.5 361Q247 366 224 366Q173 366 147.5 339.5Q122 313 122 260V153Q122 98 147.5 72.5Q173 47 229 47Q249 47 275 53.5Q301 60 329 72L354 17Q320 2 290.5 -4.5Q261 -11 229 -11Q143 -11 99.5 30.5Q56 72 56 153ZM186 471 158 515L280 601L314 548Z" glyph-name="cacute" horiz-adv-x="382" unicode="ć" /><glyph d="M56 153 56 260Q56 339 101 381.5Q146 424 231 424Q259 424 288.5 417Q318 410 345 397L319 342Q290 356 268.5 361Q247 366 224 366Q173 366 147.5 339.5Q122 313 122 260V153Q122 98 147.5 72.5Q173 47 229 47Q249 47 275 53.5Q301 60 329 72L354 17Q320 2 290.5 -4.5Q261 -11 229 -11Q143 -11 99.5 30.5Q56 72 56 153ZM138 587 225 545L311 587L333 545L225 480L116 545Z" glyph-name="ccaron" horiz-adv-x="382" unicode="č" /><glyph d="M56 153 56 260Q56 339 101 381.5Q146 424 231 424Q259 424 288.5 417Q318 410 345 397L319 342Q290 356 268.5 361Q247 366 224 366Q173 366 147.5 339.5Q122 313 122 260V153Q122 98 147.5 72.5Q173 47 229 47Q249 47 275 53.5Q301 60 329 72L354 17Q320 2 290.5 -4.5Q261 -11 229 -11Q143 -11 99.5 30.5Q56 72 56 153ZM138 485 116 527L225 592L333 527L311 485L225 527Z" glyph-name="ccircumflex" horiz-adv-x="382" unicode="ĉ" /><glyph d="M56 153 56 260Q56 339 101 381.5Q146 424 231 424Q259 424 288.5 417Q318 410 345 397L319 342Q290 356 268.5 361Q247 366 224 366Q173 366 147.5 339.5Q122 313 122 260V153Q122 98 147.5 72.5Q173 47 229 47Q249 47 275 53.5Q301 60 329 72L354 17Q320 2 290.5 -4.5Q261 -11 229 -11Q143 -11 99.5 30.5Q56 72 56 153ZM225 471 166 530L225 589L284 530Z" glyph-name="cdotaccent" horiz-adv-x="382" unicode="ċ" /><glyph d="M316 163 316 594H382V0H331L318 44Q298 17 269 3Q240 -11 204 -11Q133 -11 94.5 32Q56 75 56 149V264Q56 339 96.5 381.5Q137 424 210 424Q228 424 245.5 420.5Q263 417 282 410L272 360Q254 364 242 365.5Q230 367 219 367Q171 367 146.5 341Q122 315 122 264V149Q122 99 145.5 73Q169 47 214 47Q262 47 289 78Q316 109 316 163ZM476 463 434 475Q445 525 451 554.5Q457 584 462 610L520 598Q511 566 500.5 534Q490 502 476 463Z" glyph-name="dcaron" horiz-adv-x="448" unicode="ď" /><glyph d="M316 522 316 594H382V522H437V470H382V0H331L318 44Q298 17 269 3Q240 -11 204 -11Q133 -11 94.5 32Q56 75 56 149V264Q56 339 96.5 381.5Q137 424 210 424Q228 424 245.5 420.5Q263 417 282 410L272 360Q254 364 242 365.5Q230 367 219 367Q171 367 146.5 341Q122 315 122 264V149Q122 99 145.5 73Q169 47 214 47Q262 47 289 78Q316 109 316 163V470H219V522Z" glyph-name="dcroat" horiz-adv-x="452" unicode="đ" /><glyph d="M56 149 56 260Q56 337 98.5 380.5Q141 424 219 424Q297 424 339.5 380.5Q382 337 382 260Q382 233 381.5 214Q381 195 379 178H122V149Q122 96 147.5 71.5Q173 47 229 47Q249 47 275.5 54Q302 61 337 75L362 20Q324 3 293 -4Q262 -11 229 -11Q143 -11 99.5 29Q56 69 56 149ZM316 235 316 260Q316 313 291 340.5Q266 368 219 368Q172 368 147 340.5Q122 313 122 260V235ZM180 471 152 515L274 601L308 548Z" glyph-name="eacute" horiz-adv-x="432" unicode="é" /><glyph d="M56 149 56 260Q56 337 98.5 380.5Q141 424 219 424Q297 424 339.5 380.5Q382 337 382 260Q382 233 381.5 214Q381 195 379 178H122V149Q122 96 147.5 71.5Q173 47 229 47Q249 47 275.5 54Q302 61 337 75L362 20Q324 3 293 -4Q262 -11 229 -11Q143 -11 99.5 29Q56 69 56 149ZM316 235 316 260Q316 313 291 340.5Q266 368 219 368Q172 368 147 340.5Q122 313 122 260V235ZM132 485 110 527L219 592L327 527L305 485L219 527Z" glyph-name="ecircumflex" horiz-adv-x="432" unicode="ê" /><glyph d="M56 149 56 260Q56 337 98.5 380.5Q141 424 219 424Q297 424 339.5 380.5Q382 337 382 260Q382 233 381.5 214Q381 195 379 178H122V149Q122 96 147.5 71.5Q173 47 229 47Q249 47 275.5 54Q302 61 337 75L362 20Q324 3 293 -4Q262 -11 229 -11Q143 -11 99.5 29Q56 69 56 149ZM316 235 316 260Q316 313 291 340.5Q266 368 219 368Q172 368 147 340.5Q122 313 122 260V235ZM297 479 245 530L297 581L348 530ZM143 479 91 530L143 581L194 530Z" glyph-name="edieresis" horiz-adv-x="432" unicode="ë" /><glyph d="M56 149 56 260Q56 337 98.5 380.5Q141 424 219 424Q297 424 339.5 380.5Q382 337 382 260Q382 233 381.5 214Q381 195 379 178H122V149Q122 96 147.5 71.5Q173 47 229 47Q249 47 275.5 54Q302 61 337 75L362 20Q324 3 293 -4Q262 -11 229 -11Q143 -11 99.5 29Q56 69 56 149ZM316 235 316 260Q316 313 291 340.5Q266 368 219 368Q172 368 147 340.5Q122 313 122 260V235ZM268 471 140 548L174 601L296 515Z" glyph-name="egrave" horiz-adv-x="432" unicode="è" /><glyph d="M56 149 56 260Q56 337 98.5 380.5Q141 424 219 424Q297 424 339.5 380.5Q382 337 382 260Q382 233 381.5 214Q381 195 379 178H122V149Q122 96 147.5 71.5Q173 47 229 47Q249 47 275.5 54Q302 61 337 75L362 20Q324 3 293 -4Q262 -11 229 -11Q143 -11 99.5 29Q56 69 56 149ZM316 235 316 260Q316 313 291 340.5Q266 368 219 368Q172 368 147 340.5Q122 313 122 260V235ZM219 534Q239 534 251.5 545.5Q264 557 268 578H316Q310 531 285.5 507Q261 483 219 483Q177 483 153 506.5Q129 530 122 578H170Q174 557 186.5 545.5Q199 534 219 534Z" glyph-name="ebreve" horiz-adv-x="432" unicode="ĕ" /><glyph d="M56 149 56 260Q56 337 98.5 380.5Q141 424 219 424Q297 424 339.5 380.5Q382 337 382 260Q382 233 381.5 214Q381 195 379 178H122V149Q122 96 147.5 71.5Q173 47 229 47Q249 47 275.5 54Q302 61 337 75L362 20Q324 3 293 -4Q262 -11 229 -11Q143 -11 99.5 29Q56 69 56 149ZM316 235 316 260Q316 313 291 340.5Q266 368 219 368Q172 368 147 340.5Q122 313 122 260V235ZM132 587 219 545L305 587L327 545L219 480L110 545Z" glyph-name="ecaron" horiz-adv-x="432" unicode="ě" /><glyph d="M56 149 56 260Q56 337 98.5 380.5Q141 424 219 424Q297 424 339.5 380.5Q382 337 382 260Q382 233 381.5 214Q381 195 379 178H122V149Q122 96 147.5 71.5Q173 47 229 47Q249 47 275.5 54Q302 61 337 75L362 20Q324 3 293 -4Q262 -11 229 -11Q143 -11 99.5 29Q56 69 56 149ZM316 235 316 260Q316 313 291 340.5Q266 368 219 368Q172 368 147 340.5Q122 313 122 260V235ZM219 471 160 530L219 589L278 530Z" glyph-name="edotaccent" horiz-adv-x="432" unicode="ė" /><glyph d="M56 149 56 260Q56 337 98.5 380.5Q141 424 219 424Q297 424 339.5 380.5Q382 337 382 260Q382 233 381.5 214Q381 195 379 178H122V149Q122 96 147.5 71.5Q173 47 229 47Q249 47 275.5 54Q302 61 337 75L362 20Q324 3 293 -4Q262 -11 229 -11Q143 -11 99.5 29Q56 69 56 149ZM316 235 316 260Q316 313 291 340.5Q266 368 219 368Q172 368 147 340.5Q122 313 122 260V235ZM133 497 133 552H306V497Z" glyph-name="emacron" horiz-adv-x="432" unicode="ē" /><glyph d="M56 149 56 260Q56 337 98.5 380.5Q141 424 219 424Q297 424 339.5 380.5Q382 337 382 260V241Q382 222 382 206.5Q382 191 381 178H122V149Q122 96 147.5 71.5Q173 47 229 47Q249 47 275.5 54Q302 61 337 75L362 20Q323 -23 308.5 -45Q294 -67 294 -89Q294 -105 302.5 -112.5Q311 -120 329 -120V-166Q287 -167 263.5 -150.5Q240 -134 240 -103Q240 -77 250.5 -56.5Q261 -36 289 -4Q277 -7 261.5 -9Q246 -11 229 -11Q143 -11 99.5 29Q56 69 56 149ZM316 235 316 260Q316 313 291 340.5Q266 368 219 368Q172 368 147 340.5Q122 313 122 260V235Z" glyph-name="eogonek" horiz-adv-x="432" unicode="ę" /><glyph d="M56 149 56 264Q56 336 96.5 380Q137 424 207 424Q242 424 270.5 410Q299 396 318 370L331 413H382V-6Q382 -97 339.5 -142.5Q297 -188 212 -188Q188 -188 161 -183Q134 -178 103 -168L124 -112Q149 -121 171 -125Q193 -129 212 -129Q266 -129 291 -100.5Q316 -72 316 -6V250Q316 304 289.5 335Q263 366 217 366Q170 366 146 340Q122 314 122 264V149Q122 99 146 72.5Q170 46 214 46Q227 46 239.5 49Q252 52 265 58L288 14Q271 2 249.5 -4.5Q228 -11 205 -11Q134 -11 95 31.5Q56 74 56 149ZM213 534Q233 534 245.5 545.5Q258 557 262 578H310Q304 531 279.5 507Q255 483 213 483Q171 483 147 506.5Q123 530 116 578H164Q168 557 180.5 545.5Q193 534 213 534Z" glyph-name="gbreve" horiz-adv-x="450" unicode="ğ" /><glyph d="M56 149 56 264Q56 336 96.5 380Q137 424 207 424Q242 424 270.5 410Q299 396 318 370L331 413H382V-6Q382 -97 339.5 -142.5Q297 -188 212 -188Q188 -188 161 -183Q134 -178 103 -168L124 -112Q149 -121 171 -125Q193 -129 212 -129Q266 -129 291 -100.5Q316 -72 316 -6V250Q316 304 289.5 335Q263 366 217 366Q170 366 146 340Q122 314 122 264V149Q122 99 146 72.5Q170 46 214 46Q227 46 239.5 49Q252 52 265 58L288 14Q271 2 249.5 -4.5Q228 -11 205 -11Q134 -11 95 31.5Q56 74 56 149ZM125 485 103 527L212 592L320 527L298 485L212 527Z" glyph-name="gcircumflex" horiz-adv-x="450" unicode="ĝ" /><glyph d="M56 149 56 264Q56 336 96.5 380Q137 424 207 424Q242 424 270.5 410Q299 396 318 370L331 413H382V-6Q382 -97 339.5 -142.5Q297 -188 212 -188Q188 -188 161 -183Q134 -178 103 -168L124 -112Q149 -121 171 -125Q193 -129 212 -129Q266 -129 291 -100.5Q316 -72 316 -6V250Q316 304 289.5 335Q263 366 217 366Q170 366 146 340Q122 314 122 264V149Q122 99 146 72.5Q170 46 214 46Q227 46 239.5 49Q252 52 265 58L288 14Q271 2 249.5 -4.5Q228 -11 205 -11Q134 -11 95 31.5Q56 74 56 149ZM226 594 272 578L240 467L185 486Z" glyph-name="gcommaaccent" horiz-adv-x="450" unicode="ģ" /><glyph d="M56 149 56 264Q56 336 96.5 380Q137 424 207 424Q242 424 270.5 410Q299 396 318 370L331 413H382V-6Q382 -97 339.5 -142.5Q297 -188 212 -188Q188 -188 161 -183Q134 -178 103 -168L124 -112Q149 -121 171 -125Q193 -129 212 -129Q266 -129 291 -100.5Q316 -72 316 -6V250Q316 304 289.5 335Q263 366 217 366Q170 366 146 340Q122 314 122 264V149Q122 99 146 72.5Q170 46 214 46Q227 46 239.5 49Q252 52 265 58L288 14Q271 2 249.5 -4.5Q228 -11 205 -11Q134 -11 95 31.5Q56 74 56 149ZM213 471 154 530L213 589L272 530Z" glyph-name="gdotaccent" horiz-adv-x="450" unicode="ġ" /><glyph d="M70 522 70 594H136V522H233V470H136V372Q156 397 184.5 410.5Q213 424 248 424Q319 424 357.5 381Q396 338 396 264V0H330V264Q330 314 306.5 340Q283 366 238 366Q190 366 163 335Q136 304 136 250V0H70V470H15V522Z" glyph-name="hbar" horiz-adv-x="457" unicode="ħ" /><glyph d="M68 0 68 594H134V372Q154 397 182.5 410.5Q211 424 246 424Q317 424 355.5 381Q394 338 394 264V0H328V264Q328 314 304.5 340Q281 366 236 366Q188 366 161 335Q134 304 134 250V0ZM95 665 73 707L182 772L290 707L268 665L182 707Z" glyph-name="hcircumflex" horiz-adv-x="455" unicode="ĥ" /><glyph d="M70 0 70 413H136V0ZM62 471 34 515L156 601L190 548Z" glyph-name="iacute" horiz-adv-x="206" unicode="í" /><glyph d="M70 0 70 413H136V0ZM16 485 -6 527L103 592L211 527L189 485L103 527Z" glyph-name="icircumflex" horiz-adv-x="206" unicode="î" /><glyph d="M70 0 70 413H136V0ZM180 479 128 530L180 581L231 530ZM26 479 -26 530L26 581L77 530Z" glyph-name="idieresis" horiz-adv-x="206" unicode="ï" /><glyph d="M70 0 70 413H136V0ZM150 471 22 548L56 601L178 515Z" glyph-name="igrave" horiz-adv-x="206" unicode="ì" /><glyph d="M70 0 70 413H136V0ZM103 534Q123 534 135.5 545.5Q148 557 152 578H200Q194 531 169.5 507Q145 483 103 483Q61 483 37 506.5Q13 530 6 578H54Q58 557 70.5 545.5Q83 534 103 534Z" glyph-name="ibreve" horiz-adv-x="206" unicode="ĭ" /><glyph d="M103 471 44 530L103 589L162 530ZM70 0 70 413H136V0Z" glyph-name="i.dot" horiz-adv-x="206" unicode="" /><glyph d="M70 0 70 413H136V0ZM16 497 16 552H189V497Z" glyph-name="imacron" horiz-adv-x="206" unicode="ī" /><glyph d="M103 471 44 530L103 589L162 530ZM34 -103Q34 -80 43 -60.5Q52 -41 85 0H70V413H136V0Q106 -38 97 -55Q88 -72 88 -89Q88 -105 96.5 -112.5Q105 -120 123 -120V-166Q81 -167 57.5 -150.5Q34 -134 34 -103Z" glyph-name="iogonek" horiz-adv-x="206" unicode="į" /><glyph d="M70 0 70 413H136V0ZM138 544Q146 544 150.5 550.5Q155 557 155 570H205Q205 532 189.5 512.5Q174 493 146 493Q136 493 125.5 495.5Q115 498 102 503Q86 510 76 513Q66 516 63 516Q55 516 51.5 510Q48 504 48 492H-2Q-2 529 13 549Q28 569 55 569Q65 569 76 566Q87 563 99 558Q115 551 125 547.5Q135 544 138 544Z" glyph-name="itilde" horiz-adv-x="206" unicode="ĩ" /><glyph d="M70 -57 70 413H136V-57Q136 -124 106 -157.5Q76 -191 16 -191Q8 -191 -1.5 -190.5Q-11 -190 -19 -189L-13 -130Q-6 -131 1 -131.5Q8 -132 13 -132Q43 -132 56.5 -114Q70 -96 70 -57ZM16 485 -6 527L103 592L211 527L189 485L103 527Z" glyph-name="jcircumflex" horiz-adv-x="206" unicode="ĵ" /><glyph d="M103 471 44 530L103 589L162 530ZM70 0 70 413H136V0ZM309 471 250 530L309 589L368 530ZM276 -57 276 413H342V-57Q342 -124 312 -157.5Q282 -191 222 -191Q214 -191 204.5 -190.5Q195 -190 187 -189L193 -130Q200 -131 207 -131.5Q214 -132 219 -132Q249 -132 262.5 -114Q276 -96 276 -57Z" glyph-name="ij" horiz-adv-x="412" unicode="ĳ" /><glyph d="M68 0 68 594H134V205L308 413H389L249 248L401 0H324L206 198L134 114V0ZM195 -175 149 -159L181 -48L236 -67Z" glyph-name="kcommaaccent" horiz-adv-x="414" unicode="ķ" /><glyph d="M68 0 68 594H134V0ZM62 652 34 696L156 782L190 729Z" glyph-name="lacute" horiz-adv-x="202" unicode="ĺ" /><glyph d="M68 0 68 594H134V0ZM228 462 186 474Q197 524 203 553.5Q209 583 214 609L272 597Q263 565 252.5 533Q242 501 228 462Z" glyph-name="lcaron" horiz-adv-x="202" unicode="ľ" /><glyph d="M68 0 68 594H134V0ZM94 -175 48 -159L80 -48L135 -67Z" glyph-name="lcommaaccent" horiz-adv-x="202" unicode="ļ" /><glyph d="M65 0 65 594H131V0ZM239 195 180 254L239 313L298 254Z" glyph-name="ldot" horiz-adv-x="313" unicode="ŀ" /><glyph d="M119 413 132 369Q152 396 181 410Q210 424 246 424Q317 424 355.5 381Q394 338 394 264V-54Q394 -124 352.5 -162Q311 -200 239 -191L245 -132Q289 -136 308.5 -117.5Q328 -99 328 -54V264Q328 314 304.5 340Q281 366 236 366Q188 366 161 335Q134 304 134 250V0H68V413Z" glyph-name="eng" horiz-adv-x="462" unicode="ŋ" /><glyph d="M119 413 132 369Q152 396 181 410Q210 424 246 424Q317 424 355.5 381Q394 338 394 264V0H328V264Q328 314 304.5 340Q281 366 236 366Q188 366 161 335Q134 304 134 250V0H68V413ZM272 544Q280 544 284.5 550.5Q289 557 289 570H339Q339 532 323.5 512.5Q308 493 280 493Q270 493 259.5 495.5Q249 498 236 503Q220 510 210 513Q200 516 197 516Q189 516 185.5 510Q182 504 182 492H132Q132 529 147 549Q162 569 189 569Q199 569 210 566Q221 563 233 558Q249 551 259 547.5Q269 544 272 544Z" glyph-name="ntilde" horiz-adv-x="455" unicode="ñ" /><glyph d="M119 413 132 369Q152 396 181 410Q210 424 246 424Q317 424 355.5 381Q394 338 394 264V0H328V264Q328 314 304.5 340Q281 366 236 366Q188 366 161 335Q134 304 134 250V0H68V413ZM197 471 169 515L291 601L325 548Z" glyph-name="nacute" horiz-adv-x="455" unicode="ń" /><glyph d="M119 413 132 369Q152 396 181 410Q210 424 246 424Q317 424 355.5 381Q394 338 394 264V0H328V264Q328 314 304.5 340Q281 366 236 366Q188 366 161 335Q134 304 134 250V0H68V413ZM149 587 236 545L322 587L344 545L236 480L127 545Z" glyph-name="ncaron" horiz-adv-x="455" unicode="ň" /><glyph d="M119 413 132 369Q152 396 181 410Q210 424 246 424Q317 424 355.5 381Q394 338 394 264V0H328V264Q328 314 304.5 340Q281 366 236 366Q188 366 161 335Q134 304 134 250V0H68V413ZM223 -175 177 -159L209 -48L264 -67Z" glyph-name="ncommaaccent" horiz-adv-x="455" unicode="ņ" /><glyph d="M56 153 56 260Q56 337 99 380.5Q142 424 221 424Q300 424 343 380.5Q386 337 386 260V153Q386 76 343 32.5Q300 -11 221 -11Q142 -11 99 32.5Q56 76 56 153ZM320 153 320 260Q320 313 295 340Q270 367 221 367Q172 367 147 340Q122 313 122 260V153Q122 100 147 73Q172 46 221 46Q270 46 295 73Q320 100 320 153ZM182 471 154 515L276 601L310 548Z" glyph-name="oacute" horiz-adv-x="442" unicode="ó" /><glyph d="M56 153 56 260Q56 337 99 380.5Q142 424 221 424Q300 424 343 380.5Q386 337 386 260V153Q386 76 343 32.5Q300 -11 221 -11Q142 -11 99 32.5Q56 76 56 153ZM320 153 320 260Q320 313 295 340Q270 367 221 367Q172 367 147 340Q122 313 122 260V153Q122 100 147 73Q172 46 221 46Q270 46 295 73Q320 100 320 153ZM134 485 112 527L221 592L329 527L307 485L221 527Z" glyph-name="ocircumflex" horiz-adv-x="442" unicode="ô" /><glyph d="M56 153 56 260Q56 337 99 380.5Q142 424 221 424Q300 424 343 380.5Q386 337 386 260V153Q386 76 343 32.5Q300 -11 221 -11Q142 -11 99 32.5Q56 76 56 153ZM320 153 320 260Q320 313 295 340Q270 367 221 367Q172 367 147 340Q122 313 122 260V153Q122 100 147 73Q172 46 221 46Q270 46 295 73Q320 100 320 153ZM299 479 247 530L299 581L350 530ZM145 479 93 530L145 581L196 530Z" glyph-name="odieresis" horiz-adv-x="442" unicode="ö" /><glyph d="M56 153 56 260Q56 337 99 380.5Q142 424 221 424Q300 424 343 380.5Q386 337 386 260V153Q386 76 343 32.5Q300 -11 221 -11Q142 -11 99 32.5Q56 76 56 153ZM320 153 320 260Q320 313 295 340Q270 367 221 367Q172 367 147 340Q122 313 122 260V153Q122 100 147 73Q172 46 221 46Q270 46 295 73Q320 100 320 153ZM270 471 142 548L176 601L298 515Z" glyph-name="ograve" horiz-adv-x="442" unicode="ò" /><glyph d="M56 153 56 260Q56 337 99 380.5Q142 424 221 424Q300 424 343 380.5Q386 337 386 260V153Q386 76 343 32.5Q300 -11 221 -11Q142 -11 99 32.5Q56 76 56 153ZM320 153 320 260Q320 313 295 340Q270 367 221 367Q172 367 147 340Q122 313 122 260V153Q122 100 147 73Q172 46 221 46Q270 46 295 73Q320 100 320 153ZM257 544Q265 544 269.5 550.5Q274 557 274 570H324Q324 532 308.5 512.5Q293 493 265 493Q255 493 244.5 495.5Q234 498 221 503Q205 510 195 513Q185 516 182 516Q174 516 170.5 510Q167 504 167 492H117Q117 529 132 549Q147 569 174 569Q184 569 195 566Q206 563 218 558Q234 551 244 547.5Q254 544 257 544Z" glyph-name="otilde" horiz-adv-x="442" unicode="õ" /><glyph d="M56 153 56 260Q56 337 99 380.5Q142 424 221 424Q300 424 343 380.5Q386 337 386 260V153Q386 76 343 32.5Q300 -11 221 -11Q142 -11 99 32.5Q56 76 56 153ZM320 153 320 260Q320 313 295 340Q270 367 221 367Q172 367 147 340Q122 313 122 260V153Q122 100 147 73Q172 46 221 46Q270 46 295 73Q320 100 320 153ZM221 534Q241 534 253.5 545.5Q266 557 270 578H318Q312 531 287.5 507Q263 483 221 483Q179 483 155 506.5Q131 530 124 578H172Q176 557 188.5 545.5Q201 534 221 534Z" glyph-name="obreve" horiz-adv-x="442" unicode="ŏ" /><glyph d="M56 153 56 260Q56 337 99 380.5Q142 424 221 424Q300 424 343 380.5Q386 337 386 260V153Q386 76 343 32.5Q300 -11 221 -11Q142 -11 99 32.5Q56 76 56 153ZM320 153 320 260Q320 313 295 340Q270 367 221 367Q172 367 147 340Q122 313 122 260V153Q122 100 147 73Q172 46 221 46Q270 46 295 73Q320 100 320 153ZM271 469 235 500L315 591L357 553ZM133 469 97 500L177 591L219 553Z" glyph-name="ohungarumlaut" horiz-adv-x="442" unicode="ő" /><glyph d="M56 153 56 260Q56 337 99 380.5Q142 424 221 424Q300 424 343 380.5Q386 337 386 260V153Q386 76 343 32.5Q300 -11 221 -11Q142 -11 99 32.5Q56 76 56 153ZM320 153 320 260Q320 313 295 340Q270 367 221 367Q172 367 147 340Q122 313 122 260V153Q122 100 147 73Q172 46 221 46Q270 46 295 73Q320 100 320 153ZM135 497 135 552H308V497Z" glyph-name="omacron" horiz-adv-x="442" unicode="ō" /><glyph d="M119 413 134 362Q153 392 182 408Q211 424 246 424Q265 424 283.5 420Q302 416 317 408L290 350Q277 356 263.5 359Q250 362 236 362Q190 362 162 329.5Q134 297 134 241V0H68V413ZM134 471 106 515L228 601L262 548Z" glyph-name="racute" horiz-adv-x="325" unicode="ŕ" /><glyph d="M119 413 134 362Q153 392 182 408Q211 424 246 424Q265 424 283.5 420Q302 416 317 408L290 350Q277 356 263.5 359Q250 362 236 362Q190 362 162 329.5Q134 297 134 241V0H68V413ZM86 587 173 545L259 587L281 545L173 480L64 545Z" glyph-name="rcaron" horiz-adv-x="325" unicode="ř" /><glyph d="M119 413 134 362Q153 392 182 408Q211 424 246 424Q265 424 283.5 420Q302 416 317 408L290 350Q277 356 263.5 359Q250 362 236 362Q190 362 162 329.5Q134 297 134 241V0H68V413ZM94 -175 48 -159L80 -48L135 -67Z" glyph-name="rcommaaccent" horiz-adv-x="325" unicode="ŗ" /><glyph d="M79 233Q58 249 49 268Q40 287 40 313Q40 362 79.5 393Q119 424 178 424Q214 424 249 416Q284 408 314 393L288 338Q257 353 231 359.5Q205 366 179 366Q145 366 125.5 352Q106 338 106 314Q106 298 113.5 286.5Q121 275 140 264Q150 258 171.5 247.5Q193 237 198 235Q268 201 293.5 171.5Q319 142 319 100Q319 49 278.5 19Q238 -11 171 -11Q139 -11 106 -4.5Q73 2 35 17L56 73Q89 60 117 54Q145 48 170 48Q212 48 232.5 61Q253 74 253 101Q253 126 235.5 142.5Q218 159 161 187Q111 212 99 219Q87 226 79 233ZM89 587 176 545L262 587L284 545L176 480L67 545Z" glyph-name="scaron" horiz-adv-x="357" unicode="š" /><glyph d="M79 233Q58 249 49 268Q40 287 40 313Q40 362 79.5 393Q119 424 178 424Q214 424 249 416Q284 408 314 393L288 338Q257 353 231 359.5Q205 366 179 366Q145 366 125.5 352Q106 338 106 314Q106 298 113.5 286.5Q121 275 140 264Q150 258 171.5 247.5Q193 237 198 235Q268 201 293.5 171.5Q319 142 319 100Q319 49 278.5 19Q238 -11 171 -11Q139 -11 106 -4.5Q73 2 35 17L56 73Q89 60 117 54Q145 48 170 48Q212 48 232.5 61Q253 74 253 101Q253 126 235.5 142.5Q218 159 161 187Q111 212 99 219Q87 226 79 233ZM137 471 109 515L231 601L265 548Z" glyph-name="sacute" horiz-adv-x="357" unicode="ś" /><glyph d="M79 233Q58 249 49 268Q40 287 40 313Q40 362 79.5 393Q119 424 178 424Q214 424 249 416Q284 408 314 393L288 338Q257 353 231 359.5Q205 366 179 366Q145 366 125.5 352Q106 338 106 314Q106 298 113.5 286.5Q121 275 140 264Q150 258 171.5 247.5Q193 237 198 235Q268 201 293.5 171.5Q319 142 319 100Q319 49 278.5 19Q238 -11 171 -11Q139 -11 106 -4.5Q73 2 35 17L56 73Q89 60 117 54Q145 48 170 48Q212 48 232.5 61Q253 74 253 101Q253 126 235.5 142.5Q218 159 161 187Q111 212 99 219Q87 226 79 233ZM89 485 67 527L176 592L284 527L262 485L176 527Z" glyph-name="scircumflex" horiz-adv-x="357" unicode="ŝ" /><glyph d="M79 233Q58 249 49 268Q40 287 40 313Q40 362 79.5 393Q119 424 178 424Q214 424 249 416Q284 408 314 393L288 338Q257 353 231 359.5Q205 366 179 366Q145 366 125.5 352Q106 338 106 314Q106 298 113.5 286.5Q121 275 140 264Q150 258 171.5 247.5Q193 237 198 235Q268 201 293.5 171.5Q319 142 319 100Q319 49 278.5 19Q238 -11 171 -11Q139 -11 106 -4.5Q73 2 35 17L56 73Q89 60 117 54Q145 48 170 48Q212 48 232.5 61Q253 74 253 101Q253 126 235.5 142.5Q218 159 161 187Q111 212 99 219Q87 226 79 233ZM164 -176 118 -160L150 -49L205 -68Z" glyph-name="scedilla" horiz-adv-x="357" unicode="ş" /><glyph d="M79 233Q58 249 49 268Q40 287 40 313Q40 362 79.5 393Q119 424 178 424Q214 424 249 416Q284 408 314 393L288 338Q257 353 231 359.5Q205 366 179 366Q145 366 125.5 352Q106 338 106 314Q106 298 113.5 286.5Q121 275 140 264Q150 258 171.5 247.5Q193 237 198 235Q268 201 293.5 171.5Q319 142 319 100Q319 49 278.5 19Q238 -11 171 -11Q139 -11 106 -4.5Q73 2 35 17L56 73Q89 60 117 54Q145 48 170 48Q212 48 232.5 61Q253 74 253 101Q253 126 235.5 142.5Q218 159 161 187Q111 212 99 219Q87 226 79 233ZM164 -175 118 -159L150 -48L205 -67Z" glyph-name="uni0219" horiz-adv-x="357" unicode="ș" /><glyph d="M121 508 170 508V413H254V357H170V278H254V223H170V127Q170 88 183.5 70Q197 52 227 52Q232 52 239 52.5Q246 53 253 54L259 -5Q251 -6 241.5 -6.5Q232 -7 224 -7Q164 -7 134 26.5Q104 60 104 127V223H20V278H104V357H20V413Q78 413 96.5 432.5Q115 452 121 508Z" glyph-name="tbar" horiz-adv-x="292" unicode="ŧ" /><glyph d="M121 508 170 508V413H254V357H170V127Q170 88 183.5 70Q197 52 227 52Q232 52 239 52.5Q246 53 253 54L259 -5Q251 -6 241.5 -6.5Q232 -7 224 -7Q164 -7 134 26.5Q104 60 104 127V357H20V413Q78 413 96.5 432.5Q115 452 121 508ZM253 463 211 475Q222 525 228 554.5Q234 584 239 610L297 598Q288 566 277.5 534Q267 502 253 463Z" glyph-name="tcaron" horiz-adv-x="292" unicode="ť" /><glyph d="M121 508 170 508V413H254V357H170V127Q170 88 183.5 70Q197 52 227 52Q232 52 239 52.5Q246 53 253 54L259 -5Q251 -6 241.5 -6.5Q232 -7 224 -7Q164 -7 134 26.5Q104 60 104 127V357H20V413Q78 413 96.5 432.5Q115 452 121 508ZM170 -175 124 -159L156 -48L211 -67Z" glyph-name="uni0163" horiz-adv-x="292" unicode="ţ" /><glyph d="M121 508 170 508V413H254V357H170V127Q170 88 183.5 70Q197 52 227 52Q232 52 239 52.5Q246 53 253 54L259 -5Q251 -6 241.5 -6.5Q232 -7 224 -7Q164 -7 134 26.5Q104 60 104 127V357H20V413Q78 413 96.5 432.5Q115 452 121 508ZM170 -175 124 -159L156 -48L211 -67Z" glyph-name="uni021B" horiz-adv-x="292" unicode="ț" /><glyph d="M321 163 321 413H387V0H336L323 44Q303 17 274 3Q245 -11 209 -11Q138 -11 99.5 32Q61 75 61 149V413H127V149Q127 99 150.5 73Q174 47 219 47Q267 47 294 78Q321 109 321 163ZM187 471 159 515L281 601L315 548Z" glyph-name="uacute" horiz-adv-x="455" unicode="ú" /><glyph d="M321 163 321 413H387V0H336L323 44Q303 17 274 3Q245 -11 209 -11Q138 -11 99.5 32Q61 75 61 149V413H127V149Q127 99 150.5 73Q174 47 219 47Q267 47 294 78Q321 109 321 163ZM139 485 117 527L226 592L334 527L312 485L226 527Z" glyph-name="ucircumflex" horiz-adv-x="455" unicode="û" /><glyph d="M321 163 321 413H387V0H336L323 44Q303 17 274 3Q245 -11 209 -11Q138 -11 99.5 32Q61 75 61 149V413H127V149Q127 99 150.5 73Q174 47 219 47Q267 47 294 78Q321 109 321 163ZM304 479 252 530L304 581L355 530ZM150 479 98 530L150 581L201 530Z" glyph-name="udieresis" horiz-adv-x="455" unicode="ü" /><glyph d="M321 163 321 413H387V0H336L323 44Q303 17 274 3Q245 -11 209 -11Q138 -11 99.5 32Q61 75 61 149V413H127V149Q127 99 150.5 73Q174 47 219 47Q267 47 294 78Q321 109 321 163ZM275 471 147 548L181 601L303 515Z" glyph-name="ugrave" horiz-adv-x="455" unicode="ù" /><glyph d="M321 163 321 413H387V0H336L323 44Q303 17 274 3Q245 -11 209 -11Q138 -11 99.5 32Q61 75 61 149V413H127V149Q127 99 150.5 73Q174 47 219 47Q267 47 294 78Q321 109 321 163ZM218 534Q238 534 250.5 545.5Q263 557 267 578H315Q309 531 284.5 507Q260 483 218 483Q176 483 152 506.5Q128 530 121 578H169Q173 557 185.5 545.5Q198 534 218 534Z" glyph-name="ubreve" horiz-adv-x="455" unicode="ŭ" /><glyph d="M321 163 321 413H387V0H336L323 44Q303 17 274 3Q245 -11 209 -11Q138 -11 99.5 32Q61 75 61 149V413H127V149Q127 99 150.5 73Q174 47 219 47Q267 47 294 78Q321 109 321 163ZM276 469 240 500L320 591L362 553ZM138 469 102 500L182 591L224 553Z" glyph-name="uhungarumlaut" horiz-adv-x="455" unicode="ű" /><glyph d="M321 163 321 413H387V0H336L323 44Q303 17 274 3Q245 -11 209 -11Q138 -11 99.5 32Q61 75 61 149V413H127V149Q127 99 150.5 73Q174 47 219 47Q267 47 294 78Q321 109 321 163ZM140 497 140 552H313V497Z" glyph-name="umacron" horiz-adv-x="455" unicode="ū" /><glyph d="M285 -103Q285 -80 294 -60.5Q303 -41 336 0L323 44Q303 17 274 3Q245 -11 209 -11Q138 -11 99.5 32Q61 75 61 149V413H127V149Q127 99 150.5 73Q174 47 219 47Q267 47 294 78Q321 109 321 163V413H387V0Q357 -38 348 -55Q339 -72 339 -89Q339 -105 347.5 -112.5Q356 -120 374 -120V-166Q332 -167 308.5 -150.5Q285 -134 285 -103Z" glyph-name="uogonek" horiz-adv-x="455" unicode="ų" /><glyph d="M321 163 321 413H387V0H336L323 44Q303 17 274 3Q245 -11 209 -11Q138 -11 99.5 32Q61 75 61 149V413H127V149Q127 99 150.5 73Q174 47 219 47Q267 47 294 78Q321 109 321 163ZM150 528 150 538Q150 568 170.5 587Q191 606 226 606Q261 606 282 587Q303 568 303 538V528Q303 498 282 479Q261 460 226 460Q191 460 170.5 479Q150 498 150 528ZM257 528 257 537Q257 551 249 558.5Q241 566 226 566Q212 566 204 558.5Q196 551 196 537V528Q196 514 203.5 506.5Q211 499 226 499Q241 499 249 506.5Q257 514 257 528Z" glyph-name="uring" horiz-adv-x="455" unicode="ů" /><glyph d="M321 163 321 413H387V0H336L323 44Q303 17 274 3Q245 -11 209 -11Q138 -11 99.5 32Q61 75 61 149V413H127V149Q127 99 150.5 73Q174 47 219 47Q267 47 294 78Q321 109 321 163ZM262 544Q270 544 274.5 550.5Q279 557 279 570H329Q329 532 313.5 512.5Q298 493 270 493Q260 493 249.5 495.5Q239 498 226 503Q210 510 200 513Q190 516 187 516Q179 516 175.5 510Q172 504 172 492H122Q122 529 137 549Q152 569 179 569Q189 569 200 566Q211 563 223 558Q239 551 249 547.5Q259 544 262 544Z" glyph-name="utilde" horiz-adv-x="455" unicode="ũ" /><glyph d="M453 78 529 413H597L501 0H414L304 331L193 0H106L10 413H78L154 78L267 413H340ZM265 470 237 514L359 600L393 547Z" glyph-name="wacute" horiz-adv-x="607" unicode="ẃ" /><glyph d="M453 78 529 413H597L501 0H414L304 331L193 0H106L10 413H78L154 78L267 413H340ZM217 484 195 526L304 591L412 526L390 484L304 526Z" glyph-name="wcircumflex" horiz-adv-x="607" unicode="ŵ" /><glyph d="M453 78 529 413H597L501 0H414L304 331L193 0H106L10 413H78L154 78L267 413H340ZM382 478 330 529L382 580L433 529ZM228 478 176 529L228 580L279 529Z" glyph-name="wdieresis" horiz-adv-x="607" unicode="ẅ" /><glyph d="M453 78 529 413H597L501 0H414L304 331L193 0H106L10 413H78L154 78L267 413H340ZM353 470 225 547L259 600L381 514Z" glyph-name="wgrave" horiz-adv-x="607" unicode="ẁ" /><glyph d="M210 84 328 413H399L210 -99Q191 -149 163 -170Q135 -191 84 -191Q76 -191 66.5 -190.5Q57 -190 49 -189L55 -130Q62 -131 69 -131.5Q76 -132 81 -132Q110 -132 124 -120.5Q138 -109 151 -75L176 -8L20 413H91ZM168 471 140 515L262 601L296 548Z" glyph-name="yacute" horiz-adv-x="419" unicode="ý" /><glyph d="M210 84 328 413H399L210 -99Q191 -149 163 -170Q135 -191 84 -191Q76 -191 66.5 -190.5Q57 -190 49 -189L55 -130Q62 -131 69 -131.5Q76 -132 81 -132Q110 -132 124 -120.5Q138 -109 151 -75L176 -8L20 413H91ZM285 479 233 530L285 581L336 530ZM131 479 79 530L131 581L182 530Z" glyph-name="ydieresis" horiz-adv-x="419" unicode="ÿ" /><glyph d="M210 84 328 413H399L210 -99Q191 -149 163 -170Q135 -191 84 -191Q76 -191 66.5 -190.5Q57 -190 49 -189L55 -130Q62 -131 69 -131.5Q76 -132 81 -132Q110 -132 124 -120.5Q138 -109 151 -75L176 -8L20 413H91ZM120 485 98 527L207 592L315 527L293 485L207 527Z" glyph-name="ycircumflex" horiz-adv-x="419" unicode="ŷ" /><glyph d="M210 84 328 413H399L210 -99Q191 -149 163 -170Q135 -191 84 -191Q76 -191 66.5 -190.5Q57 -190 49 -189L55 -130Q62 -131 69 -131.5Q76 -132 81 -132Q110 -132 124 -120.5Q138 -109 151 -75L176 -8L20 413H91ZM256 471 128 548L162 601L284 515Z" glyph-name="ygrave" horiz-adv-x="419" unicode="ỳ" /><glyph d="M40 356 40 413H323V356L112 57H328V0H35V57L245 356ZM95 587 182 545L268 587L290 545L182 480L73 545Z" glyph-name="zcaron" horiz-adv-x="367" unicode="ž" /><glyph d="M40 356 40 413H323V356L112 57H328V0H35V57L245 356ZM143 471 115 515L237 601L271 548Z" glyph-name="zacute" horiz-adv-x="367" unicode="ź" /><glyph d="M40 356 40 413H323V356L112 57H328V0H35V57L245 356ZM182 471 123 530L182 589L241 530Z" glyph-name="zdotaccent" horiz-adv-x="367" unicode="ż" /><glyph d="M143 471 115 515L237 601L271 548Z" glyph-name="acute" horiz-adv-x="256" unicode="´" /><glyph d="M256 471 128 548L162 601L284 515Z" glyph-name="grave" horiz-adv-x="256" unicode="`" /><glyph d="M120 485 98 527L207 592L315 527L293 485L207 527Z" glyph-name="circumflex" horiz-adv-x="303" unicode="ˆ" /><glyph d="M95 587 182 545L268 587L290 545L182 480L73 545Z" glyph-name="caron" horiz-adv-x="303" unicode="ˇ" /><glyph d="M262 544Q270 544 274.5 550.5Q279 557 279 570H329Q329 532 313.5 512.5Q298 493 270 493Q260 493 249.5 495.5Q239 498 226 503Q210 510 200 513Q190 516 187 516Q179 516 175.5 510Q172 504 172 492H122Q122 529 137 549Q152 569 179 569Q189 569 200 566Q211 563 223 558Q239 551 249 547.5Q259 544 262 544Z" glyph-name="tilde" horiz-adv-x="303" unicode="˜" /><glyph d="M285 479 233 530L285 581L336 530ZM131 479 79 530L131 581L182 530Z" glyph-name="dieresis" horiz-adv-x="418" unicode="¨" /><glyph d="M150 528 150 538Q150 568 170.5 587Q191 606 226 606Q261 606 282 587Q303 568 303 538V528Q303 498 282 479Q261 460 226 460Q191 460 170.5 479Q150 498 150 528ZM257 528 257 537Q257 551 249 558.5Q241 566 226 566Q212 566 204 558.5Q196 551 196 537V528Q196 514 203.5 506.5Q211 499 226 499Q241 499 249 506.5Q257 514 257 528Z" glyph-name="ring" horiz-adv-x="289" unicode="˚" /><glyph d="M164 -176 118 -160L150 -49L205 -68Z" glyph-name="cedilla" horiz-adv-x="185" unicode="¸" /><glyph d="M276 469 240 500L320 591L362 553ZM138 469 102 500L182 591L224 553Z" glyph-name="hungarumlaut" horiz-adv-x="374" unicode="˝" /><glyph d="M218 534Q238 534 250.5 545.5Q263 557 267 578H315Q309 531 284.5 507Q260 483 218 483Q176 483 152 506.5Q128 530 121 578H169Q173 557 185.5 545.5Q198 534 218 534Z" glyph-name="breve" horiz-adv-x="288" unicode="˘" /><glyph d="M140 497 140 552H313V497Z" glyph-name="macron" horiz-adv-x="302" unicode="¯" /><glyph d="M182 471 123 530L182 589L241 530Z" glyph-name="dotaccent" horiz-adv-x="228" unicode="˙" /><glyph d="M118 189 53 254L118 319L183 254Z" glyph-name="periodcentered" horiz-adv-x="236" unicode="·" /><glyph d="M80 -103Q80 -80 89 -60.5Q98 -41 131 0H182Q152 -38 143 -55Q134 -72 134 -89Q134 -105 142.5 -112.5Q151 -120 169 -120V-166Q126 -166 103 -150Q80 -134 80 -103Z" glyph-name="ogonek" horiz-adv-x="220" unicode="˛" /><glyph d="M170 -175 124 -159L156 -48L211 -67Z" glyph-name="commaaccent" horiz-adv-x="185" unicode="" /><glyph d="M226 594 272 578L240 467L185 486Z" glyph-name="revcommaaccent" horiz-adv-x="185" unicode="" /><glyph d="M253 463 211 475Q222 525 228 554.5Q234 584 239 610L297 598Q288 566 277.5 534Q267 502 253 463Z" glyph-name="caron.alt" horiz-adv-x="167" unicode="" /><glyph d="M115 -19 50 46L115 111L180 46Z" glyph-name="period" horiz-adv-x="230" unicode="." /><glyph d="M91 -129 39 -116L85 103L161 87Z" glyph-name="comma" horiz-adv-x="230" unicode="," /><glyph d="M115 304 53 366L115 428L177 366ZM115 -16 53 46L115 108L177 46Z" glyph-name="colon" horiz-adv-x="230" unicode=":" /><glyph d="M117 304 55 366L117 428L179 366ZM91 -129 39 -116L85 103L161 87Z" glyph-name="semicolon" horiz-adv-x="230" unicode=";" /><glyph d="M487 -16 431 40L487 97L544 40ZM97 -16 41 40L97 97L154 40ZM292 -16 236 40L292 97L349 40Z" glyph-name="ellipsis" horiz-adv-x="585" unicode="…" /><glyph d="M44 436 20 490Q54 507 85.5 514.5Q117 522 156 522Q226 522 269.5 485Q313 448 313 388Q313 347 293 309.5Q273 272 222 222Q216 216 201.5 202.5Q187 189 164 169L124 216L179 265Q215 297 230.5 325.5Q246 354 246 388Q246 420 220 441.5Q194 463 156 463Q131 463 105 457Q79 451 44 436ZM155 -16 93 46L155 108L217 46Z" glyph-name="question" horiz-adv-x="353" unicode="?" /><glyph d="M70 186 66 508H140L136 186ZM103 -16 41 46L103 108L165 46Z" glyph-name="exclam" horiz-adv-x="206" unicode="!" /><glyph d="M198 304 136 366L198 428L260 366ZM40 24Q40 65 60 102.5Q80 140 131 190Q138 197 152.5 210Q167 223 189 243L229 196L174 147Q138 115 122.5 86.5Q107 58 107 24Q107 -8 133 -29.5Q159 -51 197 -51Q222 -51 248 -45Q274 -39 309 -24L333 -78Q299 -95 267.5 -102.5Q236 -110 197 -110Q127 -110 83.5 -73Q40 -36 40 24Z" glyph-name="questiondown" horiz-adv-x="349" unicode="¿" /><glyph d="M103 304 41 366L103 428L165 366ZM66 -96 70 226H136L140 -96Z" glyph-name="exclamdown" horiz-adv-x="206" unicode="¡" /><glyph d="M184 593 215 613L248 559L217 539Q171 509 151.5 464.5Q132 420 132 350V157Q132 87 152 42Q172 -3 217 -33L248 -53L215 -108L184 -88Q121 -46 93.5 11Q66 68 66 157V350Q66 442 93.5 498.5Q121 555 184 593Z" glyph-name="parenleft" horiz-adv-x="264" unicode="(" /><glyph d="M47 539 16 559L49 613L80 593Q143 550 170.5 494Q198 438 198 350V157Q198 65 170 7.5Q142 -50 80 -88L49 -108L16 -53L47 -33Q92 -3 112 42Q132 87 132 157V350Q132 420 112.5 464.5Q93 509 47 539Z" glyph-name="parenright" horiz-adv-x="264" unicode=")" /><glyph d="M205 -110 31 254L205 619L264 590L102 254L264 -81Z" glyph-name="parenleft.alt" horiz-adv-x="274" unicode="" /><glyph d="M172 254 10 589L69 618L243 254L69 -110L10 -81Z" glyph-name="parenright.alt" horiz-adv-x="274" unicode="" /><glyph d="M246 610 268 610V551H246Q213 551 194 527Q175 503 175 462V392Q175 331 158 298.5Q141 266 105 253Q142 240 158.5 208Q175 176 175 115V44Q175 4 194 -19.5Q213 -43 246 -43H268V-103H246Q182 -103 146 -63.5Q110 -24 110 44V137Q110 176 92.5 198Q75 220 40 225V282Q75 287 92.5 309Q110 331 110 370V462Q110 531 146 570.5Q182 610 246 610Z" glyph-name="braceleft" horiz-adv-x="295" unicode="{" /><glyph d="M27 551 27 610H49Q113 610 149 570.5Q185 531 185 462V370Q185 331 202.5 309Q220 287 255 282V225Q220 220 202.5 198Q185 176 185 137V44Q185 -24 149 -63.5Q113 -103 49 -103H27V-43H49Q82 -43 101 -19.5Q120 4 120 44V115Q120 176 136.5 208Q153 240 190 253Q154 266 137 298.5Q120 331 120 392V462Q120 503 101 527Q82 551 49 551Z" glyph-name="braceright" horiz-adv-x="295" unicode="}" /><glyph d="M246 610 268 610V551H246Q213 551 194 527Q175 503 175 462V392Q175 330 147.5 296.5Q120 263 38 221L13 272Q66 302 88 325.5Q110 349 110 380V462Q110 531 146 570.5Q182 610 246 610ZM96 209 148 231Q163 203 169 177.5Q175 152 175 115V44Q175 4 194 -19.5Q213 -43 246 -43H268V-103H246Q182 -103 146 -63.5Q110 -24 110 44V115Q110 150 107.5 167Q105 184 96 209Z" glyph-name="braceleft.alt" horiz-adv-x="295" unicode="" /><glyph d="M49 -103 27 -103V-43H49Q82 -43 101 -19Q120 5 120 45V115Q120 177 147.5 210.5Q175 244 257 286L282 235Q229 205 207 181.5Q185 158 185 127V45Q185 -24 149 -63.5Q113 -103 49 -103ZM199 298 147 276Q132 304 126 329.5Q120 355 120 392V463Q120 503 101 527Q82 551 49 551H27V610H49Q113 610 149 570.5Q185 531 185 463V392Q185 357 187.5 340Q190 323 199 298Z" glyph-name="braceright.alt" horiz-adv-x="295" unicode="" /><glyph d="M70 -103 70 610H246V551H136V-43H246V-103Z" glyph-name="bracketleft" horiz-adv-x="266" unicode="[" /><glyph d="M20 551 20 610H196V-103H20V-43H130V551Z" glyph-name="bracketright" horiz-adv-x="266" unicode="]" /><glyph d="M70 413 70 610H246V551H136V413ZM70 -103 70 94H136V-43H246V-103Z" glyph-name="bracketleft.alt" horiz-adv-x="266" unicode="" /><glyph d="M20 551 20 610H196V413H130V551ZM130 -43 130 94H196V-103H20V-43Z" glyph-name="bracketright.alt" horiz-adv-x="266" unicode="" /><glyph d="M25 -86 193 594H258L90 -86Z" glyph-name="slash" horiz-adv-x="283" unicode="/" /><glyph d="M193 -86 25 594H90L258 -86Z" glyph-name="backslash" horiz-adv-x="283" unicode="\" /><glyph d="M25 -107 25 -50H330V-107Z" glyph-name="underscore" horiz-adv-x="355" unicode="_" /><glyph d="M45 226 45 283H292V226Z" glyph-name="hyphen" horiz-adv-x="337" unicode="-" /><glyph d="" glyph-name="uni00AD" horiz-adv-x="0" unicode="­" /><glyph d="M45 226 45 283H395V226Z" glyph-name="endash" horiz-adv-x="440" unicode="–" /><glyph d="M45 226 45 283H552V226Z" glyph-name="emdash" horiz-adv-x="597" unicode="—" /><glyph d="M68 360 68 594H129V360ZM68 -86 68 148H129V-86Z" glyph-name="brokenbar" horiz-adv-x="197" unicode="¦" /><glyph d="M68 -86 68 594H99V-86Z" glyph-name="bar" horiz-adv-x="167" unicode="|" /><glyph d="M68 -86 68 594H129V-86Z" glyph-name="bar.alt" horiz-adv-x="197" unicode="" /><glyph d="M115 432 68 446Q79 495 88.5 540.5Q98 586 108 637L177 623Q162 572 147 526Q132 480 115 432Z" glyph-name="apostrophe" horiz-adv-x="245" unicode="ʼ" /><glyph d="M333 86 218 255L333 424L383 389L292 255L383 121ZM165 86 50 255L165 424L215 389L124 255L215 121Z" glyph-name="guillemotleft" horiz-adv-x="443" unicode="«" /><glyph d="M319 255 228 389L278 424L393 255L278 86L228 121ZM151 255 60 389L110 424L225 255L110 86L60 121Z" glyph-name="guillemotright" horiz-adv-x="443" unicode="»" /><glyph d="M165 86 50 255L165 424L215 389L124 255L215 121Z" glyph-name="guilsinglleft" horiz-adv-x="275" unicode="‹" /><glyph d="M151 255 60 389L110 424L225 255L110 86L60 121Z" glyph-name="guilsinglright" horiz-adv-x="275" unicode="›" /><glyph d="M88 -102 41 -88Q52 -39 61.5 6.5Q71 52 81 103L150 89Q135 38 120 -8Q105 -54 88 -102Z" glyph-name="quotesinglbase" horiz-adv-x="201" unicode="‚" /><glyph d="M228 -102 181 -88Q192 -39 201.5 6.5Q211 52 221 103L290 89Q275 38 260 -8Q245 -54 228 -102ZM88 -102 41 -88Q52 -39 61.5 6.5Q71 52 81 103L150 89Q135 38 120 -8Q105 -54 88 -102Z" glyph-name="quotedblbase" horiz-adv-x="341" unicode="„" /><glyph d="M120 405 51 419Q66 470 81 516Q96 562 113 610L160 596Q149 547 139.5 501.5Q130 456 120 405Z" glyph-name="quoteleft" horiz-adv-x="201" unicode="‘" /><glyph d="M260 405 191 419Q206 470 221 516Q236 562 253 610L300 596Q289 547 279.5 501.5Q270 456 260 405ZM120 405 51 419Q66 470 81 516Q96 562 113 610L160 596Q149 547 139.5 501.5Q130 456 120 405Z" glyph-name="quotedblleft" horiz-adv-x="341" unicode="“" /><glyph d="M98 405 51 419Q62 468 71.5 513.5Q81 559 91 610L160 596Q145 545 130 499Q115 453 98 405Z" glyph-name="quoteright" horiz-adv-x="201" unicode="’" /><glyph d="M238 405 191 419Q202 468 211.5 513.5Q221 559 231 610L300 596Q285 545 270 499Q255 453 238 405ZM98 405 51 419Q62 468 71.5 513.5Q81 559 91 610L160 596Q145 545 130 499Q115 453 98 405Z" glyph-name="quotedblright" horiz-adv-x="341" unicode="”" /><glyph d="M98 405 51 419Q62 468 71.5 513.5Q81 559 91 610L160 596Q145 545 130 499Q115 453 98 405Z" glyph-name="quotesingle" horiz-adv-x="201" unicode="'" /><glyph d="M238 405 191 419Q202 468 211.5 513.5Q221 559 231 610L300 596Q285 545 270 499Q255 453 238 405ZM98 405 51 419Q62 468 71.5 513.5Q81 559 91 610L160 596Q145 545 130 499Q115 453 98 405Z" glyph-name="quotedbl" horiz-adv-x="341" unicode="&quot;" /><glyph d="M179 128 53 254L179 380L305 254Z" glyph-name="bullet" horiz-adv-x="358" unicode="•" /><glyph d="M65 237 65 271Q65 319 91 345Q117 371 166 371Q215 371 241 345Q267 319 267 271V237Q267 189 241 163Q215 137 166 137Q117 137 91 163Q65 189 65 237Z" glyph-name="bullet.alt" horiz-adv-x="332" unicode="" /><glyph d="M128 267Q86 284 66 311.5Q46 339 46 381Q46 444 91.5 481.5Q137 519 211 519Q248 519 282.5 511Q317 503 352 486L326 430Q292 446 264 453Q236 460 208 460Q163 460 137.5 440.5Q112 421 112 386Q112 343 140 319Q168 295 215 294L220 241Q163 231 134 205.5Q105 180 105 139Q105 95 134.5 72Q164 49 220 49Q248 49 273 54Q298 59 328 71V271H463V214H392V32Q321 3 288 -4Q255 -11 217 -11Q130 -11 84.5 28Q39 67 39 139Q39 181 60 212Q81 243 128 267Z" glyph-name="ampersand" horiz-adv-x="490" unicode="&amp;" /><glyph d="M207 508 518 508V-97H452V451H382V-97H316V451H222Q173 451 147.5 421Q122 391 122 334V287Q122 237 146 210.5Q170 184 214 184Q227 184 239.5 187Q252 190 265 196L288 152Q271 140 249.5 133.5Q228 127 205 127Q134 127 95 169.5Q56 212 56 287V334Q56 418 94.5 463Q133 508 207 508Z" glyph-name="paragraph" horiz-adv-x="586" unicode="¶" /><glyph d="M151 470 151 594H217V470H339V413H217V0H151V413H29V470Z" glyph-name="dagger" horiz-adv-x="368" unicode="†" /><glyph d="M162 470 162 594H228V470H350V413H228V95H350V38H228V-86H162V38H40V95H162V413H40V470Z" glyph-name="daggerdbl" horiz-adv-x="390" unicode="‡" /><glyph d="M231 224Q255 236 265 249Q275 262 275 282Q275 304 256 320Q237 336 161 374Q134 364 120.5 348.5Q107 333 107 314Q107 293 126.5 277Q146 261 231 224ZM104 404Q76 423 64 444Q52 465 52 494Q52 543 91 574Q130 605 187 605Q224 605 259 597Q294 589 324 574L298 519Q268 534 242 540.5Q216 547 191 547Q157 547 137.5 533Q118 519 118 495Q118 479 125.5 467.5Q133 456 152 445Q162 439 183.5 428.5Q205 418 210 416Q288 378 314.5 349Q341 320 341 281Q341 251 326.5 228Q312 205 285 190Q309 171 319.5 149.5Q330 128 330 100Q330 50 290 19.5Q250 -11 187 -11Q154 -11 120.5 -4.5Q87 2 49 17L70 73Q103 60 131.5 54Q160 48 186 48Q224 48 244 61.5Q264 75 264 101Q264 126 246.5 142.5Q229 159 172 187Q171 187 136.5 204Q102 221 86 233Q62 249 51.5 268.5Q41 288 41 313Q41 345 57.5 368.5Q74 392 104 404Z" glyph-name="section" horiz-adv-x="391" unicode="§" /><glyph d="M166 588 161 695H225L220 588ZM135 527 32 555L51 616L152 578ZM251 527 234 578L335 616L354 555ZM260 389 202 478L246 511L312 427ZM126 389 74 427L140 511L184 478Z" glyph-name="asterisk" horiz-adv-x="386" unicode="*" /><glyph d="M37 474 37 508H186V474H131V305H92V474ZM331 382 390 508H436V305H397V440L348 334H315L265 440V305H227V508H274Z" glyph-name="trademark" horiz-adv-x="503" unicode="™" /><glyph d="M254 203Q167 203 117 252Q67 301 67 381V427Q67 507 117 556Q167 605 254 605Q341 605 391 556Q441 507 441 427V381Q441 301 391 252Q341 203 254 203ZM254 238Q325 238 363 275Q401 312 401 380V428Q401 496 363 533Q325 570 254 570Q183 570 145 533Q107 496 107 428V380Q107 312 145 275Q183 238 254 238ZM188 305 188 508H256Q291 508 310.5 489.5Q330 471 330 439V433Q330 413 322.5 397Q315 381 301 373L339 305H296L263 366Q256 366 249.5 367Q243 368 236 371L243 402Q246 401 251.5 400Q257 399 263 399Q277 399 283.5 407.5Q290 416 290 433V439Q290 459 281 467Q272 475 250 475H227V305Z" glyph-name="registered" horiz-adv-x="508" unicode="®" /><glyph d="M70 162 70 250Q70 394 159 480.5Q248 567 402 567Q557 567 646 480Q735 393 735 250V162Q735 19 646 -67.5Q557 -154 402 -154Q248 -154 159 -67.5Q70 19 70 162ZM676 159 676 252Q676 374 604 443.5Q532 513 402 513Q272 513 200 443.5Q128 374 128 252V159Q128 37 200 -33Q272 -103 402 -103Q532 -103 604 -33Q676 37 676 159ZM267 159 267 256Q267 328 308 366.5Q349 405 426 405Q451 405 477.5 399Q504 393 529 381L506 331Q475 345 456.5 349Q438 353 419 353Q373 353 350 328.5Q327 304 327 256V159Q327 109 350.5 86Q374 63 424 63Q442 63 465.5 68.5Q489 74 515 85L537 35Q506 21 479.5 15.5Q453 10 424 10Q346 10 306.5 47.5Q267 85 267 159Z" glyph-name="copyright" horiz-adv-x="805" unicode="©" /><glyph d="M70 167 70 250Q70 394 158.5 480.5Q247 567 401 567Q565 567 649 489Q733 411 733 260V207Q733 111 699 60.5Q665 10 600 10Q562 10 538 26Q514 42 502 75Q489 45 457.5 27Q426 9 384 9Q319 9 283.5 47.5Q248 86 248 154V259Q248 324 285 364Q322 404 385 404Q417 404 442.5 391.5Q468 379 486 355L498 394H544V129Q544 95 558 78Q572 61 600 61Q638 61 656.5 96.5Q675 132 675 205V263Q675 389 607 451Q539 513 401 513Q272 513 200 443.5Q128 374 128 252V164Q128 42 193 -29.5Q258 -101 373 -101Q408 -101 432.5 -97Q457 -93 484 -82L506 -129Q480 -142 448 -148Q416 -154 373 -154Q232 -154 151 -67Q70 20 70 167ZM484 176 484 246Q484 295 460 323Q436 351 394 351Q352 351 330 327.5Q308 304 308 259V154Q308 109 330 85Q352 61 392 61Q436 61 460 90.5Q484 120 484 176Z" glyph-name="at" horiz-adv-x="803" unicode="@" /><glyph d="M124 286Q150 286 164.5 303Q179 320 179 352V374Q121 372 100 361Q79 350 79 324Q79 305 90 295.5Q101 286 124 286ZM59 450 43 491Q75 505 94.5 509Q114 513 137 513Q182 513 207.5 487Q233 461 233 417V248H192L183 274Q171 258 152.5 249.5Q134 241 113 241Q73 241 50 263.5Q27 286 27 324Q27 368 63 389Q99 410 179 412V419Q179 445 168 456.5Q157 468 131 468Q116 468 100 464Q84 460 59 450Z" glyph-name="ordfeminine" horiz-adv-x="282" unicode="ª" /><glyph d="M45 348 45 407Q45 456 73.5 484.5Q102 513 152 513Q202 513 230.5 484.5Q259 456 259 407V348Q259 300 230.5 271.5Q202 243 152 243Q102 243 73.5 271.5Q45 300 45 348ZM205 348 205 407Q205 438 192 453Q179 468 152 468Q125 468 112 453Q99 438 99 407V348Q99 317 112 302.5Q125 288 152 288Q179 288 192 302.5Q205 317 205 348Z" glyph-name="ordmasculine" horiz-adv-x="304" unicode="º" /><glyph d="M214 151 358 151L383 357H239ZM389 412 401 508H465L453 412H552V357H447L422 151H521V96H416L404 0H340L352 96H208L196 0H132L144 96H45V151H150L175 357H76V412H181L193 508H257L245 412Z" glyph-name="numbersign" horiz-adv-x="597" unicode="#" /><glyph d="M15 335 83 335Q88 423 136 471Q184 519 269 519Q300 519 330.5 512.5Q361 506 390 493L364 437Q339 449 315 454.5Q291 460 268 460Q214 460 183.5 428Q153 396 149 335H286V281H148V233H286V179H148Q151 114 181 81.5Q211 49 268 49Q296 49 324.5 56Q353 63 376 75L402 20Q367 3 334 -4Q301 -11 265 -11Q179 -11 132 38Q85 87 82 179H15V233H82V281H15Z" glyph-name="Euro" horiz-adv-x="422" unicode="€" /><glyph d="M164 517 164 594H223V518Q253 515 282 507Q311 499 338 486L312 430Q278 446 250 453Q222 460 194 460Q149 460 123.5 440.5Q98 421 98 386Q98 368 105.5 353Q113 338 129 325Q135 320 150 311Q165 302 190 289Q239 263 259.5 250.5Q280 238 294 227Q321 205 333 180.5Q345 156 345 123Q345 66 310 32Q275 -2 209 -9V-85H150V-10Q122 -9 92 -2Q62 5 27 17L48 74Q87 60 116 54.5Q145 49 176 49Q227 49 253 67.5Q279 86 279 122Q279 141 270 156.5Q261 172 240 187Q235 191 218 201Q201 211 172 227Q116 259 102 268Q88 277 78 286Q54 306 43 329Q32 352 32 381Q32 438 67.5 474Q103 510 164 517Z" glyph-name="dollar" horiz-adv-x="374" unicode="$" /><glyph d="M211 226 331 508H401L289 253H351V199H265L244 151H351V97H244V0H178V97H71V151H178L157 199H71V253H133L21 508H91Z" glyph-name="yen" horiz-adv-x="422" unicode="¥" /><glyph d="M82 283 82 344Q82 428 126.5 473.5Q171 519 256 519Q287 519 317.5 512.5Q348 506 377 493L351 437Q326 449 302 454.5Q278 460 255 460Q202 460 175 430.5Q148 401 148 344V283H286V226H148V191Q148 152 134.5 114.5Q121 77 101 55Q114 60 130.5 63Q147 66 163 66Q174 66 185 64Q196 62 217 57Q237 51 247.5 49.5Q258 48 268 48Q288 48 309 53.5Q330 59 356 72L382 17Q350 2 326.5 -4.5Q303 -11 275 -11Q262 -11 248.5 -9Q235 -7 210 -2Q184 4 170.5 6Q157 8 144 8Q124 8 102.5 3.5Q81 -1 58 -11L23 42Q57 87 69.5 119Q82 151 82 191V226H15V283Z" glyph-name="sterling" horiz-adv-x="392" unicode="£" /><glyph d="M193 422 193 498H252V423Q274 421 298 414.5Q322 408 345 397L319 342Q290 356 268.5 361Q247 366 224 366Q173 366 147.5 339.5Q122 313 122 260V153Q122 98 147.5 72.5Q173 47 229 47Q249 47 275 53.5Q301 60 329 72L354 17Q328 5 303.5 -1.5Q279 -8 252 -10V-85H193V-9Q125 -1 90.5 40Q56 81 56 153V260Q56 329 91 370.5Q126 412 193 422Z" glyph-name="cent" horiz-adv-x="382" unicode="¢" /><glyph d="M106 283 113 360Q120 437 160 478Q200 519 271 519Q298 519 324.5 513.5Q351 508 374 498L348 442Q331 450 309.5 455Q288 460 267 460Q228 460 205.5 434.5Q183 409 179 360L172 283H309V226H167L145 -32Q138 -116 102 -153.5Q66 -191 -4 -191Q-22 -191 -43.5 -187.5Q-65 -184 -80 -179L-59 -122Q-46 -127 -31.5 -129.5Q-17 -132 -1 -132Q36 -132 55.5 -108Q75 -84 79 -32L101 226H38V283Z" glyph-name="florin" horiz-adv-x="384" unicode="ƒ" /><glyph d="M233 424Q266 424 294 415.5Q322 407 343 390L394 441L436 399L380 343Q389 324 393.5 303.5Q398 283 398 260V216Q398 193 393.5 172.5Q389 152 380 133L436 77L394 35L343 86Q322 69 294 60.5Q266 52 233 52Q200 52 172 60.5Q144 69 123 86L72 35L30 77L86 133Q77 152 72.5 172.5Q68 193 68 216V260Q68 283 72.5 303.5Q77 324 86 343L30 399L72 441L123 390Q144 407 172 415.5Q200 424 233 424ZM332 216 332 260Q332 313 307 340Q282 367 233 367Q184 367 159 340Q134 313 134 260V216Q134 163 159 136Q184 109 233 109Q282 109 307 136Q332 163 332 216Z" glyph-name="currency" horiz-adv-x="466" unicode="¤" /><glyph d="M124 286Q150 286 164.5 303Q179 320 179 352V374Q121 372 100 361Q79 350 79 324Q79 305 90 295.5Q101 286 124 286ZM59 450 43 491Q75 505 94.5 509Q114 513 137 513Q182 513 207.5 487Q233 461 233 417V248H192L183 274Q171 258 152.5 249.5Q134 241 113 241Q73 241 50 263.5Q27 286 27 324Q27 368 63 389Q99 410 179 412V419Q179 445 168 456.5Q157 468 131 468Q116 468 100 464Q84 460 59 450Z" glyph-name="a.sup" horiz-adv-x="282" unicode="" /><glyph d="M203 352 203 616H257V248H216L207 274Q194 257 176.5 249Q159 241 138 241Q95 241 70 269.5Q45 298 45 344V410Q45 455 71.5 484Q98 513 140 513Q152 513 163 511Q174 509 186 505L175 463Q164 465 158.5 466Q153 467 148 467Q123 467 111 453Q99 439 99 410V344Q99 315 111 301.5Q123 288 148 288Q174 288 188.5 304.5Q203 321 203 352Z" glyph-name="d.sup" horiz-adv-x="311" unicode="" /><glyph d="M45 340 45 407Q45 456 73 484.5Q101 513 151 513Q201 513 229 484.5Q257 456 257 407Q257 380 257 369.5Q257 359 256 352H99V340Q99 309 112.5 296.5Q126 284 158 284Q170 284 187 288.5Q204 293 227 303L246 259Q223 247 201.5 242Q180 237 157 237Q102 237 73.5 263.5Q45 290 45 340ZM204 396 204 409Q204 439 190.5 454Q177 469 151 469Q125 469 112 454Q99 439 99 409V396Z" glyph-name="e.sup" horiz-adv-x="297" unicode="" /><glyph d="M54 248 54 620H108V487Q120 501 136.5 508Q153 515 173 515Q216 515 241 486.5Q266 458 266 412V248H212V412Q212 440 199.5 454Q187 468 163 468Q136 468 122 451.5Q108 435 108 404V248Z" glyph-name="h.sup" horiz-adv-x="315" unicode="" /><glyph d="M54 248 54 620H108V248Z" glyph-name="l.sup" horiz-adv-x="162" unicode="" /><glyph d="M172 515Q193 515 210.5 504Q228 493 240 474Q254 494 275 504.5Q296 515 321 515Q360 515 383 486Q406 457 406 411V248H352V412Q352 440 341.5 454Q331 468 310 468Q285 468 271 451Q257 434 257 404V248H203V412Q203 440 192.5 454Q182 468 161 468Q136 468 122 451.5Q108 435 108 404V248H54V508H95L104 482Q117 499 134 507Q151 515 172 515Z" glyph-name="m.sup" horiz-adv-x="455" unicode="" /><glyph d="M95 508 104 482Q117 499 134.5 507Q152 515 173 515Q216 515 241 486.5Q266 458 266 412V248H212V412Q212 440 199.5 454Q187 468 163 468Q136 468 122 451.5Q108 435 108 404V248H54V508Z" glyph-name="n.sup" horiz-adv-x="315" unicode="" /><glyph d="M45 348 45 407Q45 456 73.5 484.5Q102 513 152 513Q202 513 230.5 484.5Q259 456 259 407V348Q259 300 230.5 271.5Q202 243 152 243Q102 243 73.5 271.5Q45 300 45 348ZM205 348 205 407Q205 438 192 453Q179 468 152 468Q125 468 112 453Q99 438 99 407V348Q99 317 112 302.5Q125 288 152 288Q179 288 192 302.5Q205 317 205 348Z" glyph-name="o.sup" horiz-adv-x="304" unicode="" /><glyph d="M95 508 105 477Q117 495 133.5 505Q150 515 169 515Q182 515 195.5 511Q209 507 221 501L200 455Q189 460 180.5 462.5Q172 465 163 465Q139 465 123.5 444.5Q108 424 108 391V248H54V508Z" glyph-name="r.sup" horiz-adv-x="227" unicode="" /><glyph d="M58 387Q45 397 39 409.5Q33 422 33 439Q33 471 59.5 492Q86 513 124 513Q147 513 171.5 507Q196 501 215 490L196 448Q157 463 146.5 465Q136 467 126 467Q108 467 97.5 459.5Q87 452 87 440Q87 430 93.5 423Q100 416 139 397Q182 376 199 356.5Q216 337 216 310Q216 277 189 257Q162 237 119 237Q99 237 78 241.5Q57 246 28 257L45 301Q67 292 86 288Q105 284 123 284Q142 284 152 291.5Q162 299 162 312Q162 324 152 333Q142 342 110 358Q76 375 69.5 379Q63 383 58 387Z" glyph-name="s.sup" horiz-adv-x="246" unicode="" /><glyph d="M78 565 121 565V508H172V464H121V328Q121 307 127 298Q133 289 148 289Q151 289 156 289.5Q161 290 165 291L171 243Q167 242 159.5 241.5Q152 241 147 241Q107 241 87 263Q67 285 67 328V464H16V508Q54 508 64.5 518.5Q75 529 78 565Z" glyph-name="t.sup" horiz-adv-x="198" unicode="" /><glyph d="M184 536 94 589L122 632L207 572ZM45 340 45 407Q45 456 73 484.5Q101 513 151 513Q201 513 229 484.5Q257 456 257 407Q257 380 257 369.5Q257 359 256 352H99V340Q99 309 112.5 296.5Q126 284 158 284Q170 284 187 288.5Q204 293 227 303L246 259Q223 247 201.5 242Q180 237 157 237Q102 237 73.5 263.5Q45 290 45 340ZM204 396 204 409Q204 439 190.5 454Q177 469 151 469Q125 469 112 454Q99 439 99 409V396Z" glyph-name="egrave.sup" horiz-adv-x="297" unicode="" /><glyph d="M50 188 50 320Q50 420 92.5 469.5Q135 519 221 519Q307 519 349.5 469.5Q392 420 392 320V188Q392 88 349.5 38.5Q307 -11 221 -11Q135 -11 92.5 38.5Q50 88 50 188ZM326 188 326 320Q326 393 300.5 427Q275 461 221 461Q167 461 141.5 427Q116 393 116 320V188Q116 115 141 81.5Q166 48 221 48Q276 48 301 81.5Q326 115 326 188Z" glyph-name="zero" horiz-adv-x="442" unicode="0" /><glyph d="M65 417 218 508H284V57H406V0H96V57H218V439L94 365Z" glyph-name="one" horiz-adv-x="442" unicode="1" /><glyph d="M94 432 71 487Q117 507 147 513Q177 519 213 519Q280 519 321 482Q362 445 362 385Q362 357 353.5 333Q345 309 327 285Q313 266 282.5 237Q252 208 252 208Q176 135 156.5 109.5Q137 84 127 57H358V0H58V57Q80 109 110 148Q140 187 204 245Q264 299 279.5 326.5Q295 354 295 385Q295 420 270 440Q245 460 205 460Q181 460 157 454Q133 448 94 432Z" glyph-name="two" horiz-adv-x="442" unicode="2" /><glyph d="M81 433 58 488Q97 505 128.5 512Q160 519 192 519Q265 519 305.5 481.5Q346 444 346 383Q346 346 324.5 315.5Q303 285 268 270Q317 256 342.5 222.5Q368 189 368 138Q368 68 321.5 28.5Q275 -11 190 -11Q163 -11 128.5 -4Q94 3 56 17L77 74Q114 61 141.5 55Q169 49 193 49Q244 48 273 71.5Q302 95 302 138Q302 187 266.5 212Q231 237 160 237L158 289Q219 298 249.5 321.5Q280 345 280 383Q280 420 255.5 440Q231 460 188 460Q165 460 142.5 455Q120 450 81 433Z" glyph-name="three" horiz-adv-x="442" unicode="3" /><glyph d="M35 160 264 508H345V160H417V103H345V0H282V103H35ZM103 160 282 160V435Z" glyph-name="four" horiz-adv-x="442" unicode="4" /><glyph d="M85 288 103 508H352V450H163L151 305Q167 310 183 312Q199 314 216 314Q291 314 332.5 273Q374 232 374 159Q374 84 327.5 36.5Q281 -11 200 -11Q169 -11 133.5 -4Q98 3 62 16L83 73Q116 61 146 55Q176 49 200 49Q251 49 278.5 77Q306 105 306 158Q306 205 278.5 231Q251 257 200 257Q173 257 149.5 253.5Q126 250 106 243Z" glyph-name="five" horiz-adv-x="442" unicode="5" /><glyph d="M66 164 66 320Q66 413 113.5 466Q161 519 245 519Q272 519 297.5 514.5Q323 510 346 501L324 444Q303 452 283.5 456Q264 460 245 460Q191 460 161.5 423.5Q132 387 132 320V164Q132 107 157.5 77.5Q183 48 233 48Q279 48 304 74Q329 100 329 150V168Q329 215 304.5 240Q280 265 235 265Q222 265 209 262.5Q196 260 183 255L162 300Q180 311 202 316.5Q224 322 250 322Q317 322 356 280Q395 238 395 168V150Q395 79 351.5 34Q308 -11 233 -11Q152 -11 109 34.5Q66 80 66 164Z" glyph-name="six" horiz-adv-x="442" unicode="6" /><glyph d="M60 451 60 508H393V451Q323 355 274.5 243Q226 131 198 0H129Q157 128 203.5 241.5Q250 355 314 451Z" glyph-name="seven" horiz-adv-x="442" unicode="7" /><glyph d="M130 279Q100 299 84 326.5Q68 354 68 385Q68 441 110 480Q152 519 221 519Q291 519 333 480Q375 441 375 385Q375 351 360 320Q345 289 313 260Q350 238 369 207Q388 176 388 138Q388 72 343 30.5Q298 -11 221 -11Q144 -11 99 30.5Q54 72 54 138V139Q54 183 72.5 217Q91 251 130 279ZM263 283Q288 308 299 331Q310 354 310 385Q310 421 285.5 442Q261 463 221 463Q181 463 156.5 442Q132 421 133 385Q134 347 162 324.5Q190 302 263 283ZM221 48Q268 48 295 71.5Q322 95 322 138Q322 179 295.5 204Q269 229 179 255Q148 234 134 206Q120 178 120 138Q120 95 147 71.5Q174 48 221 48Z" glyph-name="eight" horiz-adv-x="442" unicode="8" /><glyph d="M48 340 48 358Q48 430 90 474.5Q132 519 206 519Q291 519 334 468.5Q377 418 377 320V188Q377 91 334 40Q291 -11 209 -11Q178 -11 146.5 -5Q115 1 85 13L106 70Q130 61 158 55Q186 49 205 49Q260 49 285.5 82Q311 115 311 188V320Q311 393 286 426.5Q261 460 206 460Q162 460 138 433.5Q114 407 114 358V340Q114 293 138.5 268Q163 243 208 243Q221 243 234 245.5Q247 248 260 253L281 208Q263 197 241 191.5Q219 186 193 186Q127 186 87.5 228.5Q48 271 48 340Z" glyph-name="nine" horiz-adv-x="442" unicode="9" /><glyph d="M58 188 58 320Q58 420 100.5 469.5Q143 519 229 519Q315 519 357.5 469.5Q400 420 400 320V188Q400 88 357.5 38.5Q315 -11 229 -11Q143 -11 100.5 38.5Q58 88 58 188ZM334 188 334 320Q334 393 308.5 427Q283 461 229 461Q175 461 149.5 427Q124 393 124 320V188Q124 115 149 81.5Q174 48 229 48Q284 48 309 81.5Q334 115 334 188Z" glyph-name="zero.plf" horiz-adv-x="458" unicode="" /><glyph d="M13 422 158 508H224V0H158V437L43 369Z" glyph-name="one.plf" horiz-adv-x="302" unicode="" /><glyph d="M66 432 43 487Q89 507 119 513Q149 519 185 519Q252 519 293 482Q334 445 334 385Q334 357 325.5 333Q317 309 299 285Q285 266 254.5 237Q224 208 224 208Q148 135 128.5 109.5Q109 84 99 57H330V0H30V57Q52 109 82 148Q112 187 176 245Q236 299 251.5 326.5Q267 354 267 385Q267 420 242 440Q217 460 177 460Q153 460 129 454Q105 448 66 432Z" glyph-name="two.plf" horiz-adv-x="382" unicode="" /><glyph d="M57 433 34 488Q73 505 104.5 512Q136 519 168 519Q241 519 281.5 481.5Q322 444 322 383Q322 346 300.5 315.5Q279 285 244 270Q293 256 318.5 222.5Q344 189 344 138Q344 68 297.5 28.5Q251 -11 166 -11Q139 -11 104.5 -4Q70 3 32 17L53 74Q90 61 117.5 55Q145 49 169 49Q220 48 249 71.5Q278 95 278 138Q278 187 242.5 212Q207 237 136 237L134 289Q195 298 225.5 321.5Q256 345 256 383Q256 420 231.5 440Q207 460 164 460Q141 460 118.5 455Q96 450 57 433Z" glyph-name="three.plf" horiz-adv-x="387" unicode="" /><glyph d="M28 160 257 508H338V160H410V103H338V0H275V103H28ZM96 160 275 160V435Z" glyph-name="four.plf" horiz-adv-x="438" unicode="" /><glyph d="M57 288 75 508H324V450H135L123 305Q139 310 155 312Q171 314 188 314Q263 314 304.5 273Q346 232 346 159Q346 84 299.5 36.5Q253 -11 172 -11Q141 -11 105.5 -4Q70 3 34 16L55 73Q88 61 118 55Q148 49 172 49Q223 49 250.5 77Q278 105 278 158Q278 205 250.5 231Q223 257 172 257Q145 257 121.5 253.5Q98 250 78 243Z" glyph-name="five.plf" horiz-adv-x="387" unicode="" /><glyph d="M59 164 59 320Q59 413 106.5 466Q154 519 238 519Q265 519 290.5 514.5Q316 510 339 501L317 444Q296 452 276.5 456Q257 460 238 460Q184 460 154.5 423.5Q125 387 125 320V164Q125 107 150.5 77.5Q176 48 226 48Q272 48 297 74Q322 100 322 150V168Q322 215 297.5 240Q273 265 228 265Q215 265 202 262.5Q189 260 176 255L155 300Q173 311 195 316.5Q217 322 243 322Q310 322 349 280Q388 238 388 168V150Q388 79 344.5 34Q301 -11 226 -11Q145 -11 102 34.5Q59 80 59 164Z" glyph-name="six.plf" horiz-adv-x="431" unicode="" /><glyph d="M19 451 19 508H334V451Q272 366 229.5 261.5Q187 157 153 0H84Q117 148 158.5 256Q200 364 256 451Z" glyph-name="seven.plf" horiz-adv-x="357" unicode="" /><glyph d="M124 279Q94 299 78 326.5Q62 354 62 385Q62 441 104 480Q146 519 215 519Q285 519 327 480Q369 441 369 385Q369 351 354 320Q339 289 307 260Q344 238 363 207Q382 176 382 138Q382 72 337 30.5Q292 -11 215 -11Q138 -11 93 30.5Q48 72 48 138V139Q48 183 66.5 217Q85 251 124 279ZM257 283Q282 308 293 331Q304 354 304 385Q304 421 279.5 442Q255 463 215 463Q175 463 150.5 442Q126 421 127 385Q128 347 156 324.5Q184 302 257 283ZM215 48Q262 48 289 71.5Q316 95 316 138Q316 179 289.5 204Q263 229 173 255Q142 234 128 206Q114 178 114 138Q114 95 141 71.5Q168 48 215 48Z" glyph-name="eight.plf" horiz-adv-x="430" unicode="" /><glyph d="M43 340 43 358Q43 430 85 474.5Q127 519 201 519Q286 519 329 468.5Q372 418 372 320V188Q372 91 329 40Q286 -11 204 -11Q173 -11 141.5 -5Q110 1 80 13L101 70Q125 61 153 55Q181 49 200 49Q255 49 280.5 82Q306 115 306 188V320Q306 393 281 426.5Q256 460 201 460Q157 460 133 433.5Q109 407 109 358V340Q109 293 133.5 268Q158 243 203 243Q216 243 229 245.5Q242 248 255 253L276 208Q258 197 236 191.5Q214 186 188 186Q122 186 82.5 228.5Q43 271 43 340Z" glyph-name="nine.plf" horiz-adv-x="431" unicode="" /><glyph d="M50 188 50 320Q50 420 92.5 469.5Q135 519 221 519Q307 519 349.5 469.5Q392 420 392 320V188Q392 88 349.5 38.5Q307 -11 221 -11Q135 -11 92.5 38.5Q50 88 50 188ZM326 188 326 320Q326 393 300.5 427Q275 461 221 461Q167 461 141.5 427Q116 393 116 320V188Q116 115 141 81.5Q166 48 221 48Q276 48 301 81.5Q326 115 326 188Z" glyph-name="zero.tlf" horiz-adv-x="442" unicode="" /><glyph d="M65 417 218 508H284V57H406V0H96V57H218V439L94 365Z" glyph-name="one.tlf" horiz-adv-x="442" unicode="" /><glyph d="M94 432 71 487Q117 507 147 513Q177 519 213 519Q280 519 321 482Q362 445 362 385Q362 357 353.5 333Q345 309 327 285Q313 266 282.5 237Q252 208 252 208Q176 135 156.5 109.5Q137 84 127 57H358V0H58V57Q80 109 110 148Q140 187 204 245Q264 299 279.5 326.5Q295 354 295 385Q295 420 270 440Q245 460 205 460Q181 460 157 454Q133 448 94 432Z" glyph-name="two.tlf" horiz-adv-x="442" unicode="" /><glyph d="M81 433 58 488Q97 505 128.5 512Q160 519 192 519Q265 519 305.5 481.5Q346 444 346 383Q346 346 324.5 315.5Q303 285 268 270Q317 256 342.5 222.5Q368 189 368 138Q368 68 321.5 28.5Q275 -11 190 -11Q163 -11 128.5 -4Q94 3 56 17L77 74Q114 61 141.5 55Q169 49 193 49Q244 48 273 71.5Q302 95 302 138Q302 187 266.5 212Q231 237 160 237L158 289Q219 298 249.5 321.5Q280 345 280 383Q280 420 255.5 440Q231 460 188 460Q165 460 142.5 455Q120 450 81 433Z" glyph-name="three.tlf" horiz-adv-x="442" unicode="" /><glyph d="M35 160 264 508H345V160H417V103H345V0H282V103H35ZM103 160 282 160V435Z" glyph-name="four.tlf" horiz-adv-x="442" unicode="" /><glyph d="M85 288 103 508H352V450H163L151 305Q167 310 183 312Q199 314 216 314Q291 314 332.5 273Q374 232 374 159Q374 84 327.5 36.5Q281 -11 200 -11Q169 -11 133.5 -4Q98 3 62 16L83 73Q116 61 146 55Q176 49 200 49Q251 49 278.5 77Q306 105 306 158Q306 205 278.5 231Q251 257 200 257Q173 257 149.5 253.5Q126 250 106 243Z" glyph-name="five.tlf" horiz-adv-x="442" unicode="" /><glyph d="M66 164 66 320Q66 413 113.5 466Q161 519 245 519Q272 519 297.5 514.5Q323 510 346 501L324 444Q303 452 283.5 456Q264 460 245 460Q191 460 161.5 423.5Q132 387 132 320V164Q132 107 157.5 77.5Q183 48 233 48Q279 48 304 74Q329 100 329 150V168Q329 215 304.5 240Q280 265 235 265Q222 265 209 262.5Q196 260 183 255L162 300Q180 311 202 316.5Q224 322 250 322Q317 322 356 280Q395 238 395 168V150Q395 79 351.5 34Q308 -11 233 -11Q152 -11 109 34.5Q66 80 66 164Z" glyph-name="six.tlf" horiz-adv-x="442" unicode="" /><glyph d="M60 451 60 508H393V451Q323 355 274.5 243Q226 131 198 0H129Q157 128 203.5 241.5Q250 355 314 451Z" glyph-name="seven.tlf" horiz-adv-x="442" unicode="" /><glyph d="M130 279Q100 299 84 326.5Q68 354 68 385Q68 441 110 480Q152 519 221 519Q291 519 333 480Q375 441 375 385Q375 351 360 320Q345 289 313 260Q350 238 369 207Q388 176 388 138Q388 72 343 30.5Q298 -11 221 -11Q144 -11 99 30.5Q54 72 54 138V139Q54 183 72.5 217Q91 251 130 279ZM263 283Q288 308 299 331Q310 354 310 385Q310 421 285.5 442Q261 463 221 463Q181 463 156.5 442Q132 421 133 385Q134 347 162 324.5Q190 302 263 283ZM221 48Q268 48 295 71.5Q322 95 322 138Q322 179 295.5 204Q269 229 179 255Q148 234 134 206Q120 178 120 138Q120 95 147 71.5Q174 48 221 48Z" glyph-name="eight.tlf" horiz-adv-x="442" unicode="" /><glyph d="M48 340 48 358Q48 430 90 474.5Q132 519 206 519Q291 519 334 468.5Q377 418 377 320V188Q377 91 334 40Q291 -11 209 -11Q178 -11 146.5 -5Q115 1 85 13L106 70Q130 61 158 55Q186 49 205 49Q260 49 285.5 82Q311 115 311 188V320Q311 393 286 426.5Q261 460 206 460Q162 460 138 433.5Q114 407 114 358V340Q114 293 138.5 268Q163 243 208 243Q221 243 234 245.5Q247 248 260 253L281 208Q263 197 241 191.5Q219 186 193 186Q127 186 87.5 228.5Q48 271 48 340Z" glyph-name="nine.tlf" horiz-adv-x="442" unicode="" /><glyph d="M59 162 59 251Q59 331 104 377.5Q149 424 230 424Q310 424 355 377Q400 330 400 251V162Q400 83 355 36Q310 -11 230 -11Q149 -11 104 35.5Q59 82 59 162ZM333 162 333 251Q333 308 307 337Q281 366 230 366Q177 366 151 337Q125 308 125 251V162Q125 104 151 75.5Q177 47 230 47Q281 47 307 76Q333 105 333 162Z" glyph-name="zero.posf" horiz-adv-x="459" unicode="" /><glyph d="M13 327 158 413H224V0H158V342L43 274Z" glyph-name="one.posf" horiz-adv-x="302" unicode="" /><glyph d="M66 337 43 392Q89 412 119 418Q149 424 185 424Q254 424 294 388.5Q334 353 334 290Q334 257 314 225Q294 193 250 156Q232 141 186.5 108Q141 75 122 57H335V0H40V58Q60 79 84.5 100Q109 121 157 156Q227 207 247 234Q267 261 267 290Q267 327 244 346Q221 365 177 365Q153 365 129 359Q105 353 66 337Z" glyph-name="two.posf" horiz-adv-x="385" unicode="" /><glyph d="M48 338 25 393Q64 410 95.5 417Q127 424 159 424Q232 424 272.5 386.5Q313 349 313 288Q313 251 291.5 220.5Q270 190 235 175Q284 161 309.5 127.5Q335 94 335 43Q335 -27 288.5 -66.5Q242 -106 157 -106Q130 -106 95.5 -99Q61 -92 23 -78L44 -21Q81 -34 108.5 -40Q136 -46 160 -46Q211 -47 240 -23.5Q269 0 269 43Q269 92 233.5 117Q198 142 127 142L125 194Q186 203 216.5 226.5Q247 250 247 288Q247 325 222.5 345Q198 365 155 365Q132 365 109.5 360Q87 355 48 338Z" glyph-name="three.posf" horiz-adv-x="378" unicode="" /><glyph d="M23 84 249 413H334V84H406V27H334V-95H271V27H23ZM93 84 271 84V342Z" glyph-name="four.posf" horiz-adv-x="439" unicode="" /><glyph d="M57 193 75 413H324V355H135L123 210Q139 215 155 217Q171 219 188 219Q263 219 304.5 178Q346 137 346 64Q346 -11 299.5 -58.5Q253 -106 172 -106Q141 -106 105.5 -99Q70 -92 34 -79L55 -22Q88 -34 118 -40Q148 -46 172 -46Q223 -46 250.5 -18Q278 10 278 63Q278 110 250.5 136Q223 162 172 162Q145 162 121.5 158.5Q98 155 78 148Z" glyph-name="five.posf" horiz-adv-x="387" unicode="" /><glyph d="M59 164 59 320Q59 413 106.5 466Q154 519 238 519Q265 519 290.5 514.5Q316 510 339 501L317 444Q296 452 276.5 456Q257 460 238 460Q184 460 154.5 423.5Q125 387 125 320V164Q125 107 150.5 77.5Q176 48 226 48Q272 48 297 74Q322 100 322 150V168Q322 215 297.5 240Q273 265 228 265Q215 265 202 262.5Q189 260 176 255L155 300Q173 311 195 316.5Q217 322 243 322Q310 322 349 280Q388 238 388 168V150Q388 79 344.5 34Q301 -11 226 -11Q145 -11 102 34.5Q59 80 59 164Z" glyph-name="six.posf" horiz-adv-x="432" unicode="" /><glyph d="M19 356 19 413H334V356Q272 271 229.5 166.5Q187 62 153 -95H84Q117 53 158.5 161Q200 269 256 356Z" glyph-name="seven.posf" horiz-adv-x="361" unicode="" /><glyph d="M124 279Q94 299 78 326.5Q62 354 62 385Q62 441 104 480Q146 519 215 519Q285 519 327 480Q369 441 369 385Q369 351 354 320Q339 289 307 260Q344 238 363 207Q382 176 382 138Q382 72 337 30Q292 -12 215 -11Q138 -12 93 30Q48 72 48 138V139Q48 183 66.5 217Q85 251 124 279ZM257 283Q282 308 293 331Q304 354 304 385Q304 421 279.5 442Q255 463 215 463Q175 463 150.5 442Q126 421 127 385Q128 347 156 324.5Q184 302 257 283ZM215 48Q262 48 289 71.5Q316 95 316 138Q316 179 289.5 204Q263 229 173 255Q142 234 128 206Q114 178 114 138Q114 95 141 71.5Q168 48 215 48Z" glyph-name="eight.posf" horiz-adv-x="431" unicode="" /><glyph d="M43 245 43 263Q43 335 85 379.5Q127 424 201 424Q286 424 329 373.5Q372 323 372 225V93Q372 -4 329 -55Q286 -106 204 -106Q173 -106 141.5 -100Q110 -94 80 -82L101 -25Q125 -34 153 -40Q181 -46 200 -46Q255 -46 280.5 -13Q306 20 306 93V225Q306 298 281 331.5Q256 365 201 365Q157 365 133 338.5Q109 312 109 263V245Q109 198 133.5 173Q158 148 203 148Q216 148 229 150.5Q242 153 255 158L276 113Q258 102 236 96.5Q214 91 188 91Q122 91 82.5 133.5Q43 176 43 245Z" glyph-name="nine.posf" horiz-adv-x="432" unicode="" /><glyph d="M53 162 53 251Q53 331 97 377.5Q141 424 221 424Q301 424 345 377.5Q389 331 389 251V162Q389 82 345 35.5Q301 -11 221 -11Q141 -11 97 35.5Q53 82 53 162ZM323 162 323 251Q323 308 297.5 337Q272 366 221 366Q170 366 144.5 337Q119 308 119 251V162Q119 104 144.5 75.5Q170 47 221 47Q272 47 297.5 75.5Q323 104 323 162Z" glyph-name="zero.tosf" horiz-adv-x="442" unicode="" /><glyph d="M74 327 219 413H285V57H407V0H97V57H219V342L104 274Z" glyph-name="one.tosf" horiz-adv-x="442" unicode="" /><glyph d="M89 337 66 392Q112 412 142 418Q172 424 208 424Q277 424 317 388.5Q357 353 357 290Q357 257 337 225Q317 193 273 156Q255 141 209.5 108Q164 75 145 57H358V0H63V58Q83 79 107.5 100Q132 121 180 156Q250 207 270 234Q290 261 290 290Q290 327 267 346Q244 365 200 365Q176 365 152 359Q128 353 89 337Z" glyph-name="two.tosf" horiz-adv-x="442" unicode="" /><glyph d="M78 338 55 393Q94 410 125.5 417Q157 424 189 424Q262 424 302.5 386.5Q343 349 343 288Q343 251 321.5 220.5Q300 190 265 175Q314 161 339.5 127.5Q365 94 365 43Q365 -27 318.5 -66.5Q272 -106 187 -106Q160 -106 125.5 -99Q91 -92 53 -78L74 -21Q111 -34 138.5 -40Q166 -46 190 -46Q241 -47 270 -23.5Q299 0 299 43Q299 92 263.5 117Q228 142 157 142L155 194Q216 203 246.5 226.5Q277 250 277 288Q277 325 252.5 345Q228 365 185 365Q162 365 139.5 360Q117 355 78 338Z" glyph-name="three.tosf" horiz-adv-x="442" unicode="" /><glyph d="M27 84 253 413H338V84H410V27H338V-95H275V27H27ZM97 84 275 84V342Z" glyph-name="four.tosf" horiz-adv-x="442" unicode="" /><glyph d="M85 193 103 413H352V355H163L151 210Q167 215 183 217Q199 219 216 219Q291 219 332.5 178Q374 137 374 64Q374 -11 327.5 -58.5Q281 -106 200 -106Q169 -106 133.5 -99Q98 -92 62 -79L83 -22Q116 -34 146 -40Q176 -46 200 -46Q251 -46 278.5 -18Q306 10 306 63Q306 110 278.5 136Q251 162 200 162Q173 162 149.5 158.5Q126 155 106 148Z" glyph-name="five.tosf" horiz-adv-x="442" unicode="" /><glyph d="M66 164 66 320Q66 413 113.5 466Q161 519 245 519Q272 519 297.5 514.5Q323 510 346 501L324 444Q303 452 283.5 456Q264 460 245 460Q191 460 161.5 423.5Q132 387 132 320V164Q132 107 157.5 77.5Q183 48 233 48Q279 48 304 74Q329 100 329 150V168Q329 215 304.5 240Q280 265 235 265Q222 265 209 262.5Q196 260 183 255L162 300Q180 311 202 316.5Q224 322 250 322Q317 322 356 280Q395 238 395 168V150Q395 79 351.5 34Q308 -11 233 -11Q152 -11 109 34.5Q66 80 66 164Z" glyph-name="six.tosf" horiz-adv-x="442" unicode="" /><glyph d="M46 356 46 413H379V356Q309 260 260.5 148Q212 36 184 -95H115Q143 33 189.5 146.5Q236 260 300 356Z" glyph-name="seven.tosf" horiz-adv-x="442" unicode="" /><glyph d="M130 279Q100 299 84 326.5Q68 354 68 385Q68 441 110 480Q152 519 221 519Q291 519 333 480Q375 441 375 385Q375 351 360 320Q345 289 313 260Q350 238 369 207Q388 176 388 138Q388 72 343 30Q298 -12 221 -11Q144 -12 99 30Q54 72 54 138V139Q54 183 72.5 217Q91 251 130 279ZM263 283Q288 308 299 331Q310 354 310 385Q310 421 285.5 442Q261 463 221 463Q181 463 156.5 442Q132 421 133 385Q134 347 162 324.5Q190 302 263 283ZM221 48Q268 48 295 71.5Q322 95 322 138Q322 179 295.5 204Q269 229 179 255Q148 234 134 206Q120 178 120 138Q120 95 147 71.5Q174 48 221 48Z" glyph-name="eight.tosf" horiz-adv-x="442" unicode="" /><glyph d="M48 245 48 263Q48 335 90 379.5Q132 424 206 424Q291 424 334 373.5Q377 323 377 225V93Q377 -4 334 -55Q291 -106 209 -106Q178 -106 146.5 -100Q115 -94 85 -82L106 -25Q130 -34 158 -40Q186 -46 205 -46Q260 -46 285.5 -13Q311 20 311 93V225Q311 298 286 331.5Q261 365 206 365Q162 365 138 338.5Q114 312 114 263V245Q114 198 138.5 173Q163 148 208 148Q221 148 234 150.5Q247 153 260 158L281 113Q263 102 241 96.5Q219 91 193 91Q127 91 87.5 133.5Q48 176 48 245Z" glyph-name="nine.tosf" horiz-adv-x="442" unicode="" /><glyph d="M55 491 55 505Q55 549 84.5 577Q114 605 166 605Q218 605 247.5 577Q277 549 277 505V491Q277 446 247.5 418Q218 390 166 390Q114 390 84.5 418Q55 446 55 491ZM223 491 223 505Q223 531 208.5 544.5Q194 558 166 558Q138 558 123.5 544.5Q109 531 109 505V491Q109 465 123.5 451Q138 437 166 437Q194 437 208.5 451Q223 465 223 491Z" glyph-name="degree" horiz-adv-x="332" unicode="°" /><glyph d="M268 -27 222 0L531 535L577 508ZM161 182Q106 182 78 214Q50 246 50 308V387Q50 449 78 481Q106 513 161 513Q216 513 244 481Q272 449 272 387V308Q272 246 244 214Q216 182 161 182ZM161 229Q191 229 204.5 247.5Q218 266 218 308V387Q218 429 204.5 447.5Q191 466 161 466Q131 466 117.5 447.5Q104 429 104 387V308Q104 266 117.5 247.5Q131 229 161 229ZM638 -5Q583 -5 555 27Q527 59 527 121V200Q527 262 555 294Q583 326 638 326Q693 326 721 294Q749 262 749 200V121Q749 59 721 27Q693 -5 638 -5ZM638 42Q668 42 681.5 60.5Q695 79 695 121V200Q695 242 681.5 260.5Q668 279 638 279Q608 279 594.5 260.5Q581 242 581 200V121Q581 79 594.5 60.5Q608 42 638 42Z" glyph-name="percent" horiz-adv-x="799" unicode="%" /><glyph d="M268 -27 222 0L531 535L577 508ZM161 182Q106 182 78 214Q50 246 50 308V387Q50 449 78 481Q106 513 161 513Q216 513 244 481Q272 449 272 387V308Q272 246 244 214Q216 182 161 182ZM161 229Q191 229 204.5 247.5Q218 266 218 308V387Q218 429 204.5 447.5Q191 466 161 466Q131 466 117.5 447.5Q104 429 104 387V308Q104 266 117.5 247.5Q131 229 161 229ZM928 -5Q873 -5 845 27Q817 59 817 121V200Q817 262 845 294Q873 326 928 326Q983 326 1011 294Q1039 262 1039 200V121Q1039 59 1011 27Q983 -5 928 -5ZM638 -5Q583 -5 555 27Q527 59 527 121V200Q527 262 555 294Q583 326 638 326Q693 326 721 294Q749 262 749 200V121Q749 59 721 27Q693 -5 638 -5ZM928 42Q958 42 971.5 60.5Q985 79 985 121V200Q985 242 971.5 260.5Q958 279 928 279Q898 279 884.5 260.5Q871 242 871 200V121Q871 79 884.5 60.5Q898 42 928 42ZM638 42Q668 42 681.5 60.5Q695 79 695 121V200Q695 242 681.5 260.5Q668 279 638 279Q608 279 594.5 260.5Q581 242 581 200V121Q581 79 594.5 60.5Q608 42 638 42Z" glyph-name="perthousand" horiz-adv-x="1089" unicode="‰" /><glyph d="M-36 -27 -82 0L227 535L273 508Z" glyph-name="fraction" horiz-adv-x="191" unicode="⁄" /><glyph d="M-36 -27 -82 0L227 535L273 508Z" glyph-name="uni2215" horiz-adv-x="191" unicode="∕" /><glyph d="M50 308 50 387Q50 449 78 481Q106 513 161 513Q216 513 244 481Q272 449 272 387V308Q272 246 244 214Q216 182 161 182Q106 182 78 214Q50 246 50 308ZM218 308 218 387Q218 429 204.5 447.5Q191 466 161 466Q131 466 117.5 447.5Q104 429 104 387V308Q104 266 117.5 247.5Q131 229 161 229Q191 229 204.5 247.5Q218 266 218 308Z" glyph-name="zero.numerator" horiz-adv-x="322" unicode="" /><glyph d="M10 452 105 508H154V187H100V448L34 409Z" glyph-name="one.numerator" horiz-adv-x="219" unicode="" /><glyph d="M52 447 33 491Q60 503 82 508Q104 513 128 513Q171 513 198 488.5Q225 464 225 426Q225 409 220 393.5Q215 378 204 363Q195 351 176.5 333.5Q158 316 157 315Q107 267 98.5 256Q90 245 86 234H223V187H27V229Q41 261 59.5 285.5Q78 310 117 345Q153 378 162 393.5Q171 409 171 426Q171 445 158.5 455.5Q146 466 123 466Q107 466 91 462Q75 458 52 447Z" glyph-name="two.numerator" horiz-adv-x="270" unicode="" /><glyph d="M49 448 30 492Q56 503 77.5 508Q99 513 120 513Q168 513 194.5 489Q221 465 221 426Q221 405 209.5 386.5Q198 368 178 358Q206 347 220 326.5Q234 306 234 277Q234 233 203.5 207.5Q173 182 119 182Q99 182 75.5 187Q52 192 29 201L47 247Q76 236 91.5 232.5Q107 229 121 229Q150 229 165 241.5Q180 254 180 277Q180 307 160.5 319.5Q141 332 94 332L93 374Q131 378 149 391Q167 404 167 426Q167 446 154.5 456Q142 466 118 466Q102 466 85.5 461.5Q69 457 49 448Z" glyph-name="three.numerator" horiz-adv-x="281" unicode="" /><glyph d="M25 292 166 508H227V296H271V249H227V187H175V249H25ZM81 296 175 296V441Z" glyph-name="four.numerator" horiz-adv-x="296" unicode="" /><glyph d="M48 367 59 508H223V461H107L102 386Q109 388 117.5 389Q126 390 134 390Q182 390 209 363Q236 336 236 290Q236 243 206 212.5Q176 182 124 182Q101 182 77 186.5Q53 191 31 200L49 246Q72 237 90.5 233Q109 229 124 229Q152 229 166.5 244Q181 259 181 289Q181 317 167 330.5Q153 344 125 344Q112 344 99.5 341.5Q87 339 72 334Z" glyph-name="five.numerator" horiz-adv-x="274" unicode="" /><glyph d="M50 293 50 388Q50 446 80.5 479.5Q111 513 165 513Q184 513 202 509.5Q220 506 235 500L217 455Q206 460 192 463Q178 466 165 466Q135 466 119.5 446.5Q104 427 104 388V293Q104 260 117 244.5Q130 229 158 229Q184 229 196.5 243Q209 257 209 285V295Q209 322 197 335.5Q185 349 162 349Q155 349 147.5 347.5Q140 346 133 344L117 383Q129 389 142 392Q155 395 169 395Q212 395 237.5 367Q263 339 263 295V285Q263 240 234.5 211Q206 182 158 182Q106 182 78 211.5Q50 241 50 293Z" glyph-name="six.numerator" horiz-adv-x="303" unicode="" /><glyph d="M10 462 10 508H215V466Q178 416 152 352Q126 288 104 187H48Q68 279 92.5 344.5Q117 410 149 462Z" glyph-name="seven.numerator" horiz-adv-x="238" unicode="" /><glyph d="M90 363Q72 376 62.5 392.5Q53 409 53 427Q53 462 80.5 487.5Q108 513 153 513Q198 513 226 487.5Q254 462 254 427Q254 406 244.5 387.5Q235 369 216 352Q238 339 249.5 319.5Q261 300 261 277Q261 236 231.5 209Q202 182 153 182Q104 182 74.5 209Q45 236 45 278Q45 305 56 326Q67 347 90 363ZM177 372Q189 385 194.5 397.5Q200 410 200 427Q200 446 187.5 457Q175 468 153 468Q131 468 118.5 457Q106 446 107 427Q107 406 122 394.5Q137 383 177 372ZM153 229Q179 229 193 241Q207 253 207 277Q207 300 192 314Q177 328 129 341Q113 329 106 314.5Q99 300 99 277Q99 253 113 241Q127 229 153 229Z" glyph-name="eight.numerator" horiz-adv-x="306" unicode="" /><glyph d="M40 400 40 411Q40 456 68 484.5Q96 513 143 513Q197 513 225 481Q253 449 253 388V308Q253 247 225.5 214.5Q198 182 145 182Q123 182 101 186.5Q79 191 60 199L78 244Q95 238 113 233.5Q131 229 142 229Q172 229 185.5 247Q199 265 199 308V388Q199 430 186 448Q173 466 143 466Q119 466 106.5 452Q94 438 94 411V400Q94 373 106.5 359.5Q119 346 142 346Q149 346 156 347Q163 348 170 351L186 312Q176 307 162 303.5Q148 300 136 300Q93 300 66.5 328Q40 356 40 400Z" glyph-name="nine.numerator" horiz-adv-x="303" unicode="" /><glyph d="M50 121 50 200Q50 262 78 294Q106 326 161 326Q216 326 244 294Q272 262 272 200V121Q272 59 244 27Q216 -5 161 -5Q106 -5 78 27Q50 59 50 121ZM218 121 218 200Q218 242 204.5 260.5Q191 279 161 279Q131 279 117.5 260.5Q104 242 104 200V121Q104 79 117.5 60.5Q131 42 161 42Q191 42 204.5 60.5Q218 79 218 121Z" glyph-name="zero.denominator" horiz-adv-x="322" unicode="" /><glyph d="M10 265 105 321H154V0H100V261L34 222Z" glyph-name="one.denominator" horiz-adv-x="219" unicode="" /><glyph d="M52 260 33 304Q60 316 82 321Q104 326 128 326Q171 326 198 301.5Q225 277 225 239Q225 222 220 206.5Q215 191 204 176Q195 164 176.5 146.5Q158 129 157 128Q107 80 98.5 69Q90 58 86 47H223V0H27V42Q41 74 59.5 98.5Q78 123 117 158Q153 191 162 206.5Q171 222 171 239Q171 258 158.5 268.5Q146 279 123 279Q107 279 91 275Q75 271 52 260Z" glyph-name="two.denominator" horiz-adv-x="270" unicode="" /><glyph d="M49 261 30 305Q56 316 77.5 321Q99 326 120 326Q168 326 194.5 302Q221 278 221 239Q221 218 209.5 199.5Q198 181 178 171Q206 160 220 139.5Q234 119 234 90Q234 46 203.5 20.5Q173 -5 119 -5Q99 -5 75.5 0Q52 5 29 14L47 60Q76 49 91.5 45.5Q107 42 121 42Q150 42 165 54.5Q180 67 180 90Q180 120 160.5 132.5Q141 145 94 145L93 187Q131 191 149 204Q167 217 167 239Q167 259 154.5 269Q142 279 118 279Q102 279 85.5 274.5Q69 270 49 261Z" glyph-name="three.denominator" horiz-adv-x="281" unicode="" /><glyph d="M25 105 166 321H227V109H271V62H227V0H175V62H25ZM81 109 175 109V254Z" glyph-name="four.denominator" horiz-adv-x="296" unicode="" /><glyph d="M48 180 59 321H223V274H107L102 199Q109 201 117.5 202Q126 203 134 203Q182 203 209 176Q236 149 236 103Q236 56 206 25.5Q176 -5 124 -5Q101 -5 77 -0.5Q53 4 31 13L49 59Q72 50 90.5 46Q109 42 124 42Q152 42 166.5 57Q181 72 181 102Q181 130 167 143.5Q153 157 125 157Q112 157 99.5 154.5Q87 152 72 147Z" glyph-name="five.denominator" horiz-adv-x="274" unicode="" /><glyph d="M50 106 50 201Q50 259 80.5 292.5Q111 326 165 326Q184 326 202 322.5Q220 319 235 313L217 268Q206 273 192 276Q178 279 165 279Q135 279 119.5 259.5Q104 240 104 201V106Q104 73 117 57.5Q130 42 158 42Q184 42 196.5 56Q209 70 209 98V108Q209 135 197 148.5Q185 162 162 162Q155 162 147.5 160.5Q140 159 133 157L117 196Q129 202 142 205Q155 208 169 208Q212 208 237.5 180Q263 152 263 108V98Q263 53 234.5 24Q206 -5 158 -5Q106 -5 78 24.5Q50 54 50 106Z" glyph-name="six.denominator" horiz-adv-x="303" unicode="" /><glyph d="M10 275 10 321H215V279Q178 229 152 165Q126 101 104 0H48Q68 92 92.5 157.5Q117 223 149 275Z" glyph-name="seven.denominator" horiz-adv-x="238" unicode="" /><glyph d="M90 176Q72 189 62.5 205.5Q53 222 53 240Q53 275 80.5 300.5Q108 326 153 326Q198 326 226 300.5Q254 275 254 240Q254 219 244.5 200.5Q235 182 216 165Q238 152 249.5 132.5Q261 113 261 90Q261 49 231.5 22Q202 -5 153 -5Q104 -5 74.5 22Q45 49 45 91Q45 118 56 139Q67 160 90 176ZM177 185Q189 198 194.5 210.5Q200 223 200 240Q200 259 187.5 270Q175 281 153 281Q131 281 118.5 270Q106 259 107 240Q107 219 122 207.5Q137 196 177 185ZM153 42Q179 42 193 54Q207 66 207 90Q207 113 192 127Q177 141 129 154Q113 142 106 127.5Q99 113 99 90Q99 66 113 54Q127 42 153 42Z" glyph-name="eight.denominator" horiz-adv-x="306" unicode="" /><glyph d="M40 213 40 224Q40 269 68 297.5Q96 326 143 326Q197 326 225 294Q253 262 253 201V121Q253 60 225.5 27.5Q198 -5 145 -5Q123 -5 101 -0.5Q79 4 60 12L78 57Q95 51 113 46.5Q131 42 142 42Q172 42 185.5 60Q199 78 199 121V201Q199 243 186 261Q173 279 143 279Q119 279 106.5 265Q94 251 94 224V213Q94 186 106.5 172.5Q119 159 142 159Q149 159 156 160Q163 161 170 164L186 125Q176 120 162 116.5Q148 113 136 113Q93 113 66.5 141Q40 169 40 213Z" glyph-name="nine.denominator" horiz-adv-x="303" unicode="" /><glyph d="M50 407 50 486Q50 548 78 580Q106 612 161 612Q216 612 244 580Q272 548 272 486V407Q272 345 244 313Q216 281 161 281Q106 281 78 313Q50 345 50 407ZM218 407 218 486Q218 528 204.5 546.5Q191 565 161 565Q131 565 117.5 546.5Q104 528 104 486V407Q104 365 117.5 346.5Q131 328 161 328Q191 328 204.5 346.5Q218 365 218 407Z" glyph-name="zerosuperior" horiz-adv-x="322" unicode="⁰" /><glyph d="M10 551 105 607H154V286H100V547L34 508Z" glyph-name="onesuperior" horiz-adv-x="219" unicode="¹" /><glyph d="M52 546 33 590Q60 602 82 607Q104 612 128 612Q171 612 198 587.5Q225 563 225 525Q225 508 220 492.5Q215 477 204 462Q195 450 176.5 432.5Q158 415 157 414Q107 366 98.5 355Q90 344 86 333H223V286H27V328Q41 360 59.5 384.5Q78 409 117 444Q153 477 162 492.5Q171 508 171 525Q171 544 158.5 554.5Q146 565 123 565Q107 565 91 561Q75 557 52 546Z" glyph-name="twosuperior" horiz-adv-x="270" unicode="²" /><glyph d="M49 547 30 591Q56 602 77.5 607Q99 612 120 612Q168 612 194.5 588Q221 564 221 525Q221 504 209.5 485.5Q198 467 178 457Q206 446 220 425.5Q234 405 234 376Q234 332 203.5 306.5Q173 281 119 281Q99 281 75.5 286Q52 291 29 300L47 346Q76 335 91.5 331.5Q107 328 121 328Q150 328 165 340.5Q180 353 180 376Q180 406 160.5 418.5Q141 431 94 431L93 473Q131 477 149 490Q167 503 167 525Q167 545 154.5 555Q142 565 118 565Q102 565 85.5 560.5Q69 556 49 547Z" glyph-name="threesuperior" horiz-adv-x="281" unicode="³" /><glyph d="M25 391 166 607H227V395H271V348H227V286H175V348H25ZM81 395 175 395V540Z" glyph-name="foursuperior" horiz-adv-x="296" unicode="⁴" /><glyph d="M48 466 59 607H223V560H107L102 485Q109 487 117.5 488Q126 489 134 489Q182 489 209 462Q236 435 236 389Q236 342 206 311.5Q176 281 124 281Q101 281 77 285.5Q53 290 31 299L49 345Q72 336 90.5 332Q109 328 124 328Q152 328 166.5 343Q181 358 181 388Q181 416 167 429.5Q153 443 125 443Q112 443 99.5 440.5Q87 438 72 433Z" glyph-name="fivesuperior" horiz-adv-x="274" unicode="⁵" /><glyph d="M50 392 50 487Q50 545 80.5 578.5Q111 612 165 612Q184 612 202 608.5Q220 605 235 599L217 554Q206 559 192 562Q178 565 165 565Q135 565 119.5 545.5Q104 526 104 487V392Q104 359 117 343.5Q130 328 158 328Q184 328 196.5 342Q209 356 209 384V394Q209 421 197 434.5Q185 448 162 448Q155 448 147.5 446.5Q140 445 133 443L117 482Q129 488 142 491Q155 494 169 494Q212 494 237.5 466Q263 438 263 394V384Q263 339 234.5 310Q206 281 158 281Q106 281 78 310.5Q50 340 50 392Z" glyph-name="sixsuperior" horiz-adv-x="303" unicode="⁶" /><glyph d="M10 561 10 607H215V565Q178 515 152 451Q126 387 104 286H48Q68 378 92.5 443.5Q117 509 149 561Z" glyph-name="sevensuperior" horiz-adv-x="238" unicode="⁷" /><glyph d="M90 462Q72 475 62.5 491.5Q53 508 53 526Q53 561 80.5 586.5Q108 612 153 612Q198 612 226 586.5Q254 561 254 526Q254 505 244.5 486.5Q235 468 216 451Q238 438 249.5 418.5Q261 399 261 376Q261 335 231.5 308Q202 281 153 281Q104 281 74.5 308Q45 335 45 377Q45 404 56 425Q67 446 90 462ZM177 471Q189 484 194.5 496.5Q200 509 200 526Q200 545 187.5 556Q175 567 153 567Q131 567 118.5 556Q106 545 107 526Q107 505 122 493.5Q137 482 177 471ZM153 328Q179 328 193 340Q207 352 207 376Q207 399 192 413Q177 427 129 440Q113 428 106 413.5Q99 399 99 376Q99 352 113 340Q127 328 153 328Z" glyph-name="eightsuperior" horiz-adv-x="306" unicode="⁸" /><glyph d="M40 499 40 510Q40 555 68 583.5Q96 612 143 612Q197 612 225 580Q253 548 253 487V407Q253 346 225.5 313.5Q198 281 145 281Q123 281 101 285.5Q79 290 60 298L78 343Q95 337 113 332.5Q131 328 142 328Q172 328 185.5 346Q199 364 199 407V487Q199 529 186 547Q173 565 143 565Q119 565 106.5 551Q94 537 94 510V499Q94 472 106.5 458.5Q119 445 142 445Q149 445 156 446Q163 447 170 450L186 411Q176 406 162 402.5Q148 399 136 399Q93 399 66.5 427Q40 455 40 499Z" glyph-name="ninesuperior" horiz-adv-x="303" unicode="⁹" /><glyph d="M50 22 50 101Q50 163 78 195Q106 227 161 227Q216 227 244 195Q272 163 272 101V22Q272 -40 244 -72Q216 -104 161 -104Q106 -104 78 -72Q50 -40 50 22ZM218 22 218 101Q218 143 204.5 161.5Q191 180 161 180Q131 180 117.5 161.5Q104 143 104 101V22Q104 -20 117.5 -38.5Q131 -57 161 -57Q191 -57 204.5 -38.5Q218 -20 218 22Z" glyph-name="zeroinferior" horiz-adv-x="322" unicode="₀" /><glyph d="M10 166 105 222H154V-99H100V162L34 123Z" glyph-name="oneinferior" horiz-adv-x="219" unicode="₁" /><glyph d="M52 161 33 205Q60 217 82 222Q104 227 128 227Q171 227 198 202.5Q225 178 225 140Q225 123 220 107.5Q215 92 204 77Q195 65 176.5 47.5Q158 30 157 29Q107 -19 98.5 -30Q90 -41 86 -52H223V-99H27V-57Q41 -25 59.5 -0.5Q78 24 117 59Q153 92 162 107.5Q171 123 171 140Q171 159 158.5 169.5Q146 180 123 180Q107 180 91 176Q75 172 52 161Z" glyph-name="twoinferior" horiz-adv-x="270" unicode="₂" /><glyph d="M49 162 30 206Q56 217 77.5 222Q99 227 120 227Q168 227 194.5 203Q221 179 221 140Q221 119 209.5 100.5Q198 82 178 72Q206 61 220 40.5Q234 20 234 -9Q234 -53 203.5 -78.5Q173 -104 119 -104Q99 -104 75.5 -99Q52 -94 29 -85L47 -39Q76 -50 91.5 -53.5Q107 -57 121 -57Q150 -57 165 -44.5Q180 -32 180 -9Q180 21 160.5 33.5Q141 46 94 46L93 88Q131 92 149 105Q167 118 167 140Q167 160 154.5 170Q142 180 118 180Q102 180 85.5 175.5Q69 171 49 162Z" glyph-name="threeinferior" horiz-adv-x="281" unicode="₃" /><glyph d="M25 6 166 222H227V10H271V-37H227V-99H175V-37H25ZM81 10 175 10V155Z" glyph-name="fourinferior" horiz-adv-x="296" unicode="₄" /><glyph d="M48 81 59 222H223V175H107L102 100Q109 102 117.5 103Q126 104 134 104Q182 104 209 77Q236 50 236 4Q236 -43 206 -73.5Q176 -104 124 -104Q101 -104 77 -99.5Q53 -95 31 -86L49 -40Q72 -49 90.5 -53Q109 -57 124 -57Q152 -57 166.5 -42Q181 -27 181 3Q181 31 167 44.5Q153 58 125 58Q112 58 99.5 55.5Q87 53 72 48Z" glyph-name="fiveinferior" horiz-adv-x="274" unicode="₅" /><glyph d="M50 7 50 102Q50 160 80.5 193.5Q111 227 165 227Q184 227 202 223.5Q220 220 235 214L217 169Q206 174 192 177Q178 180 165 180Q135 180 119.5 160.5Q104 141 104 102V7Q104 -26 117 -41.5Q130 -57 158 -57Q184 -57 196.5 -43Q209 -29 209 -1V9Q209 36 197 49.5Q185 63 162 63Q155 63 147.5 61.5Q140 60 133 58L117 97Q129 103 142 106Q155 109 169 109Q212 109 237.5 81Q263 53 263 9V-1Q263 -46 234.5 -75Q206 -104 158 -104Q106 -104 78 -74.5Q50 -45 50 7Z" glyph-name="sixinferior" horiz-adv-x="303" unicode="₆" /><glyph d="M10 176 10 222H215V180Q178 130 152 66Q126 2 104 -99H48Q68 -7 92.5 58.5Q117 124 149 176Z" glyph-name="seveninferior" horiz-adv-x="238" unicode="₇" /><glyph d="M90 77Q72 90 62.5 106.5Q53 123 53 141Q53 176 80.5 201.5Q108 227 153 227Q198 227 226 201.5Q254 176 254 141Q254 120 244.5 101.5Q235 83 216 66Q238 53 249.5 33.5Q261 14 261 -9Q261 -50 231.5 -77Q202 -104 153 -104Q104 -104 74.5 -77Q45 -50 45 -8Q45 19 56 40Q67 61 90 77ZM177 86Q189 99 194.5 111.5Q200 124 200 141Q200 160 187.5 171Q175 182 153 182Q131 182 118.5 171Q106 160 107 141Q107 120 122 108.5Q137 97 177 86ZM153 -57Q179 -57 193 -45Q207 -33 207 -9Q207 14 192 28Q177 42 129 55Q113 43 106 28.5Q99 14 99 -9Q99 -33 113 -45Q127 -57 153 -57Z" glyph-name="eightinferior" horiz-adv-x="306" unicode="₈" /><glyph d="M40 114 40 125Q40 170 68 198.5Q96 227 143 227Q197 227 225 195Q253 163 253 102V22Q253 -39 225.5 -71.5Q198 -104 145 -104Q123 -104 101 -99.5Q79 -95 60 -87L78 -42Q95 -48 113 -52.5Q131 -57 142 -57Q172 -57 185.5 -39Q199 -21 199 22V102Q199 144 186 162Q173 180 143 180Q119 180 106.5 166Q94 152 94 125V114Q94 87 106.5 73.5Q119 60 142 60Q149 60 156 61Q163 62 170 65L186 26Q176 21 162 17.5Q148 14 136 14Q93 14 66.5 42Q40 70 40 114Z" glyph-name="nineinferior" horiz-adv-x="303" unicode="₉" /><glyph d="M10 452 105 508H154V187H100V448L34 409ZM183 -27 137 0L446 535L492 508ZM462 260 443 304Q470 316 492 321Q514 326 538 326Q581 326 608 301.5Q635 277 635 239Q635 222 630 206.5Q625 191 614 176Q605 164 586.5 146.5Q568 129 567 128Q517 80 508.5 69Q500 58 496 47H633V0H437V42Q451 74 469.5 98.5Q488 123 527 158Q563 191 572 206.5Q581 222 581 239Q581 258 568.5 268.5Q556 279 533 279Q517 279 501 275Q485 271 462 260Z" glyph-name="onehalf" horiz-adv-x="680" unicode="½" /><glyph d="M10 452 105 508H154V187H100V448L34 409ZM183 -27 137 0L446 535L492 508ZM459 261 440 305Q466 316 487.5 321Q509 326 530 326Q578 326 604.5 302Q631 278 631 239Q631 218 619.5 199.5Q608 181 588 171Q616 160 630 139.5Q644 119 644 90Q644 46 613.5 20.5Q583 -5 529 -5Q509 -5 485.5 0Q462 5 439 14L457 60Q486 49 501.5 45.5Q517 42 531 42Q560 42 575 54.5Q590 67 590 90Q590 120 570.5 132.5Q551 145 504 145L503 187Q541 191 559 204Q577 217 577 239Q577 259 564.5 269Q552 279 528 279Q512 279 495.5 274.5Q479 270 459 261Z" glyph-name="onethird" horiz-adv-x="691" unicode="⅓" /><glyph d="M10 452 105 508H154V187H100V448L34 409ZM183 -27 137 0L446 535L492 508ZM375 105 516 321H577V109H621V62H577V0H525V62H375ZM431 109 525 109V254Z" glyph-name="onequarter" horiz-adv-x="646" unicode="¼" /><glyph d="M10 452 105 508H154V187H100V448L34 409ZM183 -27 137 0L446 535L492 508ZM458 180 469 321H633V274H517L512 199Q519 201 527.5 202Q536 203 544 203Q592 203 619 176Q646 149 646 103Q646 56 616 25.5Q586 -5 534 -5Q511 -5 487 -0.5Q463 4 441 13L459 59Q482 50 500.5 46Q519 42 534 42Q562 42 576.5 57Q591 72 591 102Q591 130 577 143.5Q563 157 535 157Q522 157 509.5 154.5Q497 152 482 147Z" glyph-name="onefifth" horiz-adv-x="684" unicode="" /><glyph d="M10 452 105 508H154V187H100V448L34 409ZM183 -27 137 0L446 535L492 508ZM460 106 460 201Q460 259 490.5 292.5Q521 326 575 326Q594 326 612 322.5Q630 319 645 313L627 268Q616 273 602 276Q588 279 575 279Q545 279 529.5 259.5Q514 240 514 201V106Q514 73 527 57.5Q540 42 568 42Q594 42 606.5 56Q619 70 619 98V108Q619 135 607 148.5Q595 162 572 162Q565 162 557.5 160.5Q550 159 543 157L527 196Q539 202 552 205Q565 208 579 208Q622 208 647.5 180Q673 152 673 108V98Q673 53 644.5 24Q616 -5 568 -5Q516 -5 488 24.5Q460 54 460 106Z" glyph-name="onesixth" horiz-adv-x="713" unicode="" /><glyph d="M10 452 105 508H154V187H100V448L34 409ZM183 -27 137 0L446 535L492 508ZM460 275 460 321H665V279Q628 229 602 165Q576 101 554 0H498Q518 92 542.5 157.5Q567 223 599 275Z" glyph-name="oneseventh" horiz-adv-x="688" unicode="" /><glyph d="M10 452 105 508H154V187H100V448L34 409ZM183 -27 137 0L446 535L492 508ZM500 176Q482 189 472.5 205.5Q463 222 463 240Q463 275 490.5 300.5Q518 326 563 326Q608 326 636 300.5Q664 275 664 240Q664 219 654.5 200.5Q645 182 626 165Q648 152 659.5 132.5Q671 113 671 90Q671 49 641.5 22Q612 -5 563 -5Q514 -5 484.5 22Q455 49 455 91Q455 118 466 139Q477 160 500 176ZM587 185Q599 198 604.5 210.5Q610 223 610 240Q610 259 597.5 270Q585 281 563 281Q541 281 528.5 270Q516 259 517 240Q517 219 532 207.5Q547 196 587 185ZM563 42Q589 42 603 54Q617 66 617 90Q617 113 602 127Q587 141 539 154Q523 142 516 127.5Q509 113 509 90Q509 66 523 54Q537 42 563 42Z" glyph-name="oneeighth" horiz-adv-x="716" unicode="⅛" /><glyph d="M10 452 105 508H154V187H100V448L34 409ZM183 -27 137 0L446 535L492 508ZM450 213 450 224Q450 269 478 297.5Q506 326 553 326Q607 326 635 294Q663 262 663 201V121Q663 60 635.5 27.5Q608 -5 555 -5Q533 -5 511 -0.5Q489 4 470 12L488 57Q505 51 523 46.5Q541 42 552 42Q582 42 595.5 60Q609 78 609 121V201Q609 243 596 261Q583 279 553 279Q529 279 516.5 265Q504 251 504 224V213Q504 186 516.5 172.5Q529 159 552 159Q559 159 566 160Q573 161 580 164L596 125Q586 120 572 116.5Q558 113 546 113Q503 113 476.5 141Q450 169 450 213Z" glyph-name="oneninth" horiz-adv-x="713" unicode="" /><glyph d="M52 447 33 491Q60 503 82 508Q104 513 128 513Q171 513 198 488.5Q225 464 225 426Q225 409 220 393.5Q215 378 204 363Q195 351 176.5 333.5Q158 316 157 315Q107 267 98.5 256Q90 245 86 234H223V187H27V229Q41 261 59.5 285.5Q78 310 117 345Q153 378 162 393.5Q171 409 171 426Q171 445 158.5 455.5Q146 466 123 466Q107 466 91 462Q75 458 52 447ZM234 -27 188 0L497 535L543 508ZM510 261 491 305Q517 316 538.5 321Q560 326 581 326Q629 326 655.5 302Q682 278 682 239Q682 218 670.5 199.5Q659 181 639 171Q667 160 681 139.5Q695 119 695 90Q695 46 664.5 20.5Q634 -5 580 -5Q560 -5 536.5 0Q513 5 490 14L508 60Q537 49 552.5 45.5Q568 42 582 42Q611 42 626 54.5Q641 67 641 90Q641 120 621.5 132.5Q602 145 555 145L554 187Q592 191 610 204Q628 217 628 239Q628 259 615.5 269Q603 279 579 279Q563 279 546.5 274.5Q530 270 510 261Z" glyph-name="twothirds" horiz-adv-x="742" unicode="⅔" /><glyph d="M52 447 33 491Q60 503 82 508Q104 513 128 513Q171 513 198 488.5Q225 464 225 426Q225 409 220 393.5Q215 378 204 363Q195 351 176.5 333.5Q158 316 157 315Q107 267 98.5 256Q90 245 86 234H223V187H27V229Q41 261 59.5 285.5Q78 310 117 345Q153 378 162 393.5Q171 409 171 426Q171 445 158.5 455.5Q146 466 123 466Q107 466 91 462Q75 458 52 447ZM234 -27 188 0L497 535L543 508ZM509 180 520 321H684V274H568L563 199Q570 201 578.5 202Q587 203 595 203Q643 203 670 176Q697 149 697 103Q697 56 667 25.5Q637 -5 585 -5Q562 -5 538 -0.5Q514 4 492 13L510 59Q533 50 551.5 46Q570 42 585 42Q613 42 627.5 57Q642 72 642 102Q642 130 628 143.5Q614 157 586 157Q573 157 560.5 154.5Q548 152 533 147Z" glyph-name="twofifths" horiz-adv-x="735" unicode="" /><glyph d="M52 447 33 491Q60 503 82 508Q104 513 128 513Q171 513 198 488.5Q225 464 225 426Q225 409 220 393.5Q215 378 204 363Q195 351 176.5 333.5Q158 316 157 315Q107 267 98.5 256Q90 245 86 234H223V187H27V229Q41 261 59.5 285.5Q78 310 117 345Q153 378 162 393.5Q171 409 171 426Q171 445 158.5 455.5Q146 466 123 466Q107 466 91 462Q75 458 52 447ZM234 -27 188 0L497 535L543 508ZM511 275 511 321H716V279Q679 229 653 165Q627 101 605 0H549Q569 92 593.5 157.5Q618 223 650 275Z" glyph-name="twosevenths" horiz-adv-x="739" unicode="" /><glyph d="M52 447 33 491Q60 503 82 508Q104 513 128 513Q171 513 198 488.5Q225 464 225 426Q225 409 220 393.5Q215 378 204 363Q195 351 176.5 333.5Q158 316 157 315Q107 267 98.5 256Q90 245 86 234H223V187H27V229Q41 261 59.5 285.5Q78 310 117 345Q153 378 162 393.5Q171 409 171 426Q171 445 158.5 455.5Q146 466 123 466Q107 466 91 462Q75 458 52 447ZM234 -27 188 0L497 535L543 508ZM501 213 501 224Q501 269 529 297.5Q557 326 604 326Q658 326 686 294Q714 262 714 201V121Q714 60 686.5 27.5Q659 -5 606 -5Q584 -5 562 -0.5Q540 4 521 12L539 57Q556 51 574 46.5Q592 42 603 42Q633 42 646.5 60Q660 78 660 121V201Q660 243 647 261Q634 279 604 279Q580 279 567.5 265Q555 251 555 224V213Q555 186 567.5 172.5Q580 159 603 159Q610 159 617 160Q624 161 631 164L647 125Q637 120 623 116.5Q609 113 597 113Q554 113 527.5 141Q501 169 501 213Z" glyph-name="twoninths" horiz-adv-x="764" unicode="" /><glyph d="M49 448 30 492Q56 503 77.5 508Q99 513 120 513Q168 513 194.5 489Q221 465 221 426Q221 405 209.5 386.5Q198 368 178 358Q206 347 220 326.5Q234 306 234 277Q234 233 203.5 207.5Q173 182 119 182Q99 182 75.5 187Q52 192 29 201L47 247Q76 236 91.5 232.5Q107 229 121 229Q150 229 165 241.5Q180 254 180 277Q180 307 160.5 319.5Q141 332 94 332L93 374Q131 378 149 391Q167 404 167 426Q167 446 154.5 456Q142 466 118 466Q102 466 85.5 461.5Q69 457 49 448ZM245 -27 199 0L508 535L554 508ZM437 105 578 321H639V109H683V62H639V0H587V62H437ZM493 109 587 109V254Z" glyph-name="threequarters" horiz-adv-x="708" unicode="¾" /><glyph d="M49 448 30 492Q56 503 77.5 508Q99 513 120 513Q168 513 194.5 489Q221 465 221 426Q221 405 209.5 386.5Q198 368 178 358Q206 347 220 326.5Q234 306 234 277Q234 233 203.5 207.5Q173 182 119 182Q99 182 75.5 187Q52 192 29 201L47 247Q76 236 91.5 232.5Q107 229 121 229Q150 229 165 241.5Q180 254 180 277Q180 307 160.5 319.5Q141 332 94 332L93 374Q131 378 149 391Q167 404 167 426Q167 446 154.5 456Q142 466 118 466Q102 466 85.5 461.5Q69 457 49 448ZM245 -27 199 0L508 535L554 508ZM520 180 531 321H695V274H579L574 199Q581 201 589.5 202Q598 203 606 203Q654 203 681 176Q708 149 708 103Q708 56 678 25.5Q648 -5 596 -5Q573 -5 549 -0.5Q525 4 503 13L521 59Q544 50 562.5 46Q581 42 596 42Q624 42 638.5 57Q653 72 653 102Q653 130 639 143.5Q625 157 597 157Q584 157 571.5 154.5Q559 152 544 147Z" glyph-name="threefifths" horiz-adv-x="746" unicode="" /><glyph d="M49 448 30 492Q56 503 77.5 508Q99 513 120 513Q168 513 194.5 489Q221 465 221 426Q221 405 209.5 386.5Q198 368 178 358Q206 347 220 326.5Q234 306 234 277Q234 233 203.5 207.5Q173 182 119 182Q99 182 75.5 187Q52 192 29 201L47 247Q76 236 91.5 232.5Q107 229 121 229Q150 229 165 241.5Q180 254 180 277Q180 307 160.5 319.5Q141 332 94 332L93 374Q131 378 149 391Q167 404 167 426Q167 446 154.5 456Q142 466 118 466Q102 466 85.5 461.5Q69 457 49 448ZM245 -27 199 0L508 535L554 508ZM522 275 522 321H727V279Q690 229 664 165Q638 101 616 0H560Q580 92 604.5 157.5Q629 223 661 275Z" glyph-name="threesevenths" horiz-adv-x="750" unicode="" /><glyph d="M49 448 30 492Q56 503 77.5 508Q99 513 120 513Q168 513 194.5 489Q221 465 221 426Q221 405 209.5 386.5Q198 368 178 358Q206 347 220 326.5Q234 306 234 277Q234 233 203.5 207.5Q173 182 119 182Q99 182 75.5 187Q52 192 29 201L47 247Q76 236 91.5 232.5Q107 229 121 229Q150 229 165 241.5Q180 254 180 277Q180 307 160.5 319.5Q141 332 94 332L93 374Q131 378 149 391Q167 404 167 426Q167 446 154.5 456Q142 466 118 466Q102 466 85.5 461.5Q69 457 49 448ZM245 -27 199 0L508 535L554 508ZM562 176Q544 189 534.5 205.5Q525 222 525 240Q525 275 552.5 300.5Q580 326 625 326Q670 326 698 300.5Q726 275 726 240Q726 219 716.5 200.5Q707 182 688 165Q710 152 721.5 132.5Q733 113 733 90Q733 49 703.5 22Q674 -5 625 -5Q576 -5 546.5 22Q517 49 517 91Q517 118 528 139Q539 160 562 176ZM649 185Q661 198 666.5 210.5Q672 223 672 240Q672 259 659.5 270Q647 281 625 281Q603 281 590.5 270Q578 259 579 240Q579 219 594 207.5Q609 196 649 185ZM625 42Q651 42 665 54Q679 66 679 90Q679 113 664 127Q649 141 601 154Q585 142 578 127.5Q571 113 571 90Q571 66 585 54Q599 42 625 42Z" glyph-name="threeeighths" horiz-adv-x="778" unicode="⅜" /><glyph d="M25 292 166 508H227V296H271V249H227V187H175V249H25ZM81 296 175 296V441ZM260 -27 214 0L523 535L569 508ZM535 180 546 321H710V274H594L589 199Q596 201 604.5 202Q613 203 621 203Q669 203 696 176Q723 149 723 103Q723 56 693 25.5Q663 -5 611 -5Q588 -5 564 -0.5Q540 4 518 13L536 59Q559 50 577.5 46Q596 42 611 42Q639 42 653.5 57Q668 72 668 102Q668 130 654 143.5Q640 157 612 157Q599 157 586.5 154.5Q574 152 559 147Z" glyph-name="fourfifths" horiz-adv-x="761" unicode="" /><glyph d="M25 292 166 508H227V296H271V249H227V187H175V249H25ZM81 296 175 296V441ZM260 -27 214 0L523 535L569 508ZM537 275 537 321H742V279Q705 229 679 165Q653 101 631 0H575Q595 92 619.5 157.5Q644 223 676 275Z" glyph-name="foursevenths" horiz-adv-x="765" unicode="" /><glyph d="M25 292 166 508H227V296H271V249H227V187H175V249H25ZM81 296 175 296V441ZM260 -27 214 0L523 535L569 508ZM527 213 527 224Q527 269 555 297.5Q583 326 630 326Q684 326 712 294Q740 262 740 201V121Q740 60 712.5 27.5Q685 -5 632 -5Q610 -5 588 -0.5Q566 4 547 12L565 57Q582 51 600 46.5Q618 42 629 42Q659 42 672.5 60Q686 78 686 121V201Q686 243 673 261Q660 279 630 279Q606 279 593.5 265Q581 251 581 224V213Q581 186 593.5 172.5Q606 159 629 159Q636 159 643 160Q650 161 657 164L673 125Q663 120 649 116.5Q635 113 623 113Q580 113 553.5 141Q527 169 527 213Z" glyph-name="fourninths" horiz-adv-x="790" unicode="" /><glyph d="M48 367 59 508H223V461H107L102 386Q109 388 117.5 389Q126 390 134 390Q182 390 209 363Q236 336 236 290Q236 243 206 212.5Q176 182 124 182Q101 182 77 186.5Q53 191 31 200L49 246Q72 237 90.5 233Q109 229 124 229Q152 229 166.5 244Q181 259 181 289Q181 317 167 330.5Q153 344 125 344Q112 344 99.5 341.5Q87 339 72 334ZM238 -27 192 0L501 535L547 508ZM515 106 515 201Q515 259 545.5 292.5Q576 326 630 326Q649 326 667 322.5Q685 319 700 313L682 268Q671 273 657 276Q643 279 630 279Q600 279 584.5 259.5Q569 240 569 201V106Q569 73 582 57.5Q595 42 623 42Q649 42 661.5 56Q674 70 674 98V108Q674 135 662 148.5Q650 162 627 162Q620 162 612.5 160.5Q605 159 598 157L582 196Q594 202 607 205Q620 208 634 208Q677 208 702.5 180Q728 152 728 108V98Q728 53 699.5 24Q671 -5 623 -5Q571 -5 543 24.5Q515 54 515 106Z" glyph-name="fivesixths" horiz-adv-x="768" unicode="" /><glyph d="M48 367 59 508H223V461H107L102 386Q109 388 117.5 389Q126 390 134 390Q182 390 209 363Q236 336 236 290Q236 243 206 212.5Q176 182 124 182Q101 182 77 186.5Q53 191 31 200L49 246Q72 237 90.5 233Q109 229 124 229Q152 229 166.5 244Q181 259 181 289Q181 317 167 330.5Q153 344 125 344Q112 344 99.5 341.5Q87 339 72 334ZM238 -27 192 0L501 535L547 508ZM515 275 515 321H720V279Q683 229 657 165Q631 101 609 0H553Q573 92 597.5 157.5Q622 223 654 275Z" glyph-name="fivesevenths" horiz-adv-x="743" unicode="" /><glyph d="M48 367 59 508H223V461H107L102 386Q109 388 117.5 389Q126 390 134 390Q182 390 209 363Q236 336 236 290Q236 243 206 212.5Q176 182 124 182Q101 182 77 186.5Q53 191 31 200L49 246Q72 237 90.5 233Q109 229 124 229Q152 229 166.5 244Q181 259 181 289Q181 317 167 330.5Q153 344 125 344Q112 344 99.5 341.5Q87 339 72 334ZM238 -27 192 0L501 535L547 508ZM555 176Q537 189 527.5 205.5Q518 222 518 240Q518 275 545.5 300.5Q573 326 618 326Q663 326 691 300.5Q719 275 719 240Q719 219 709.5 200.5Q700 182 681 165Q703 152 714.5 132.5Q726 113 726 90Q726 49 696.5 22Q667 -5 618 -5Q569 -5 539.5 22Q510 49 510 91Q510 118 521 139Q532 160 555 176ZM642 185Q654 198 659.5 210.5Q665 223 665 240Q665 259 652.5 270Q640 281 618 281Q596 281 583.5 270Q571 259 572 240Q572 219 587 207.5Q602 196 642 185ZM618 42Q644 42 658 54Q672 66 672 90Q672 113 657 127Q642 141 594 154Q578 142 571 127.5Q564 113 564 90Q564 66 578 54Q592 42 618 42Z" glyph-name="fiveeighths" horiz-adv-x="771" unicode="⅝" /><glyph d="M48 367 59 508H223V461H107L102 386Q109 388 117.5 389Q126 390 134 390Q182 390 209 363Q236 336 236 290Q236 243 206 212.5Q176 182 124 182Q101 182 77 186.5Q53 191 31 200L49 246Q72 237 90.5 233Q109 229 124 229Q152 229 166.5 244Q181 259 181 289Q181 317 167 330.5Q153 344 125 344Q112 344 99.5 341.5Q87 339 72 334ZM238 -27 192 0L501 535L547 508ZM505 213 505 224Q505 269 533 297.5Q561 326 608 326Q662 326 690 294Q718 262 718 201V121Q718 60 690.5 27.5Q663 -5 610 -5Q588 -5 566 -0.5Q544 4 525 12L543 57Q560 51 578 46.5Q596 42 607 42Q637 42 650.5 60Q664 78 664 121V201Q664 243 651 261Q638 279 608 279Q584 279 571.5 265Q559 251 559 224V213Q559 186 571.5 172.5Q584 159 607 159Q614 159 621 160Q628 161 635 164L651 125Q641 120 627 116.5Q613 113 601 113Q558 113 531.5 141Q505 169 505 213Z" glyph-name="fiveninths" horiz-adv-x="768" unicode="" /><glyph d="M50 293 50 388Q50 446 80.5 479.5Q111 513 165 513Q184 513 202 509.5Q220 506 235 500L217 455Q206 460 192 463Q178 466 165 466Q135 466 119.5 446.5Q104 427 104 388V293Q104 260 117 244.5Q130 229 158 229Q184 229 196.5 243Q209 257 209 285V295Q209 322 197 335.5Q185 349 162 349Q155 349 147.5 347.5Q140 346 133 344L117 383Q129 389 142 392Q155 395 169 395Q212 395 237.5 367Q263 339 263 295V285Q263 240 234.5 211Q206 182 158 182Q106 182 78 211.5Q50 241 50 293ZM267 -27 221 0L530 535L576 508ZM544 275 544 321H749V279Q712 229 686 165Q660 101 638 0H582Q602 92 626.5 157.5Q651 223 683 275Z" glyph-name="sixsevenths" horiz-adv-x="772" unicode="" /><glyph d="M10 462 10 508H215V466Q178 416 152 352Q126 288 104 187H48Q68 279 92.5 344.5Q117 410 149 462ZM152 -27 106 0L415 535L461 508ZM469 176Q451 189 441.5 205.5Q432 222 432 240Q432 275 459.5 300.5Q487 326 532 326Q577 326 605 300.5Q633 275 633 240Q633 219 623.5 200.5Q614 182 595 165Q617 152 628.5 132.5Q640 113 640 90Q640 49 610.5 22Q581 -5 532 -5Q483 -5 453.5 22Q424 49 424 91Q424 118 435 139Q446 160 469 176ZM556 185Q568 198 573.5 210.5Q579 223 579 240Q579 259 566.5 270Q554 281 532 281Q510 281 497.5 270Q485 259 486 240Q486 219 501 207.5Q516 196 556 185ZM532 42Q558 42 572 54Q586 66 586 90Q586 113 571 127Q556 141 508 154Q492 142 485 127.5Q478 113 478 90Q478 66 492 54Q506 42 532 42Z" glyph-name="seveneighths" horiz-adv-x="685" unicode="⅞" /><glyph d="M10 462 10 508H215V466Q178 416 152 352Q126 288 104 187H48Q68 279 92.5 344.5Q117 410 149 462ZM152 -27 106 0L415 535L461 508ZM419 213 419 224Q419 269 447 297.5Q475 326 522 326Q576 326 604 294Q632 262 632 201V121Q632 60 604.5 27.5Q577 -5 524 -5Q502 -5 480 -0.5Q458 4 439 12L457 57Q474 51 492 46.5Q510 42 521 42Q551 42 564.5 60Q578 78 578 121V201Q578 243 565 261Q552 279 522 279Q498 279 485.5 265Q473 251 473 224V213Q473 186 485.5 172.5Q498 159 521 159Q528 159 535 160Q542 161 549 164L565 125Q555 120 541 116.5Q527 113 515 113Q472 113 445.5 141Q419 169 419 213Z" glyph-name="sevenninths" horiz-adv-x="682" unicode="" /><glyph d="M90 363Q72 376 62.5 392.5Q53 409 53 427Q53 462 80.5 487.5Q108 513 153 513Q198 513 226 487.5Q254 462 254 427Q254 406 244.5 387.5Q235 369 216 352Q238 339 249.5 319.5Q261 300 261 277Q261 236 231.5 209Q202 182 153 182Q104 182 74.5 209Q45 236 45 278Q45 305 56 326Q67 347 90 363ZM177 372Q189 385 194.5 397.5Q200 410 200 427Q200 446 187.5 457Q175 468 153 468Q131 468 118.5 457Q106 446 107 427Q107 406 122 394.5Q137 383 177 372ZM153 229Q179 229 193 241Q207 253 207 277Q207 300 192 314Q177 328 129 341Q113 329 106 314.5Q99 300 99 277Q99 253 113 241Q127 229 153 229ZM270 -27 224 0L533 535L579 508ZM537 213 537 224Q537 269 565 297.5Q593 326 640 326Q694 326 722 294Q750 262 750 201V121Q750 60 722.5 27.5Q695 -5 642 -5Q620 -5 598 -0.5Q576 4 557 12L575 57Q592 51 610 46.5Q628 42 639 42Q669 42 682.5 60Q696 78 696 121V201Q696 243 683 261Q670 279 640 279Q616 279 603.5 265Q591 251 591 224V213Q591 186 603.5 172.5Q616 159 639 159Q646 159 653 160Q660 161 667 164L683 125Q673 120 659 116.5Q645 113 633 113Q590 113 563.5 141Q537 169 537 213Z" glyph-name="eightninths" horiz-adv-x="800" unicode="" /><glyph d="M188 283 188 413H254V283H379V226H254V96H188V226H63V283Z" glyph-name="plus" horiz-adv-x="442" unicode="+" /><glyph d="M63 226 63 283H379V226Z" glyph-name="minus" horiz-adv-x="442" unicode="−" /><glyph d="M118 397 222 294L325 397L365 357L262 254L365 152L325 109L221 213L117 109L77 149L181 253L77 357Z" glyph-name="multiply" horiz-adv-x="442" unicode="×" /><glyph d="M221 341 162 400L221 459L280 400ZM63 226 63 283H379V226ZM221 50 162 109L221 168L280 109Z" glyph-name="divide" horiz-adv-x="442" unicode="÷" /><glyph d="M73 293 73 350H369V293ZM73 159 73 216H369V159Z" glyph-name="equal" horiz-adv-x="442" unicode="=" /><glyph d="M63 226 63 283H379V161H314V226Z" glyph-name="logicalnot" horiz-adv-x="442" unicode="¬" /><glyph d="M148 302Q161 302 177 298.5Q193 295 212 289Q246 278 261.5 274.5Q277 271 287 271Q301 271 308.5 279Q316 287 319 306L379 295Q371 252 351 231.5Q331 211 297 211Q283 211 265.5 214.5Q248 218 227 225Q195 236 180 239.5Q165 243 155 243Q141 243 133.5 235Q126 227 123 208L63 219Q71 261 92 281.5Q113 302 148 302Z" glyph-name="asciitilde" horiz-adv-x="442" unicode="~" /><glyph d="M73 222 73 287L369 411V349L134 255L369 160V98Z" glyph-name="less" horiz-adv-x="442" unicode="&lt;" /><glyph d="M308 255 73 349V411L369 287V222L73 98V160Z" glyph-name="greater" horiz-adv-x="442" unicode="&gt;" /><glyph d="M190 350 190 464H251V350H369V293H251V179H190V293H73V350ZM73 75 73 132H369V75Z" glyph-name="plusminus" horiz-adv-x="442" unicode="±" /><glyph d="M21 373 142 594H207L330 373H263L175 537L86 373Z" glyph-name="asciicircum" horiz-adv-x="351" unicode="^" /><glyph d="M73 350 218 350L245 439L303 420L282 350H369V293H265L241 216H369V159H224L197 70L139 89L160 159H73V216H177L201 293H73Z" glyph-name="notequal" horiz-adv-x="442" unicode="≠" /><glyph d="M148 373Q161 373 177 369.5Q193 366 212 360Q246 349 261.5 345.5Q277 342 287 342Q301 342 308.5 350Q316 358 319 377L379 366Q371 323 351 302.5Q331 282 297 282Q283 282 265.5 285.5Q248 289 227 296Q195 307 180 310.5Q165 314 155 314Q141 314 133.5 306Q126 298 123 279L63 290Q71 332 92 352.5Q113 373 148 373ZM148 229Q161 229 177 225.5Q193 222 212 216Q246 205 261.5 201.5Q277 198 287 198Q301 198 308.5 206Q316 214 319 233L379 222Q371 179 351 158.5Q331 138 297 138Q283 138 265.5 141.5Q248 145 227 152Q195 163 180 166.5Q165 170 155 170Q141 170 133.5 162Q126 154 123 135L63 146Q71 188 92 208.5Q113 229 148 229Z" glyph-name="approxequal" horiz-adv-x="442" unicode="≈" /><glyph d="M73 265 73 330L369 434V374L140 298L369 221V161ZM73 75 73 132H369V75Z" glyph-name="lessequal" horiz-adv-x="442" unicode="≤" /><glyph d="M302 298 73 374V434L369 330V265L73 161V221ZM73 75 73 132H369V75Z" glyph-name="greaterequal" horiz-adv-x="442" unicode="≥" /><glyph d="M179 360Q213 360 246 342Q279 324 305 293Q332 325 365 342.5Q398 360 431 360Q486 360 516.5 332Q547 304 547 255Q547 206 516.5 177.5Q486 149 431 149Q397 149 364.5 167Q332 185 305 217Q280 186 247 168Q214 150 179 149Q124 150 93.5 178Q63 206 63 255Q63 304 93.5 332Q124 360 179 360ZM180 198Q204 198 227.5 212.5Q251 227 274 255Q252 283 228 297Q204 311 180 311Q151 311 135 296Q119 281 119 255Q119 228 135 213Q151 198 180 198ZM430 198Q459 198 475 213Q491 228 491 255Q491 281 475 296Q459 311 430 311Q406 311 381 296.5Q356 282 332 255Q356 227 381 212.5Q406 198 430 198Z" glyph-name="infinity" horiz-adv-x="610" unicode="∞" /><glyph d="M22 254 179 508H242L398 254L242 0H179ZM210 69 323 254L210 439L96 254Z" glyph-name="lozenge" horiz-adv-x="420" unicode="◊" /><glyph d="M213 76 388 594H457L256 0H178L68 245H0V302H111Z" glyph-name="radical" horiz-adv-x="457" unicode="√" /><glyph d="M111 -27 111 440Q111 517 150.5 558Q190 599 265 599Q279 599 290 598Q301 597 310 595L301 538Q292 540 283.5 540.5Q275 541 267 541Q223 541 200 515Q177 489 177 440V-27Q177 -104 137.5 -145Q98 -186 23 -186Q10 -186 -1.5 -185Q-13 -184 -22 -182L-13 -125Q-4 -127 4.5 -127.5Q13 -128 21 -128Q65 -128 88 -102Q111 -76 111 -27Z" glyph-name="integral" horiz-adv-x="331" unicode="∫" /><glyph d="M235 478 268 533Q355 482 380 420Q405 358 390 249L377 149Q366 68 322 28.5Q278 -11 199 -11Q120 -11 80 35Q40 81 53 153L56 170Q70 249 110 285.5Q150 322 219 322Q239 322 258 318Q277 314 294 307L279 258Q263 262 249.5 263.5Q236 265 223 265Q179 266 154.5 243.5Q130 221 121 169L118 152Q109 100 131 73Q153 46 204 46Q251 46 277.5 71.5Q304 97 311 149L324 249Q336 340 320.5 385.5Q305 431 235 478Z" glyph-name="partialdiff" horiz-adv-x="457" unicode="∂" /><glyph d="M429 452 429 -95H363V452H170V-95H104V452H20V508H513V452Z" glyph-name="product" horiz-adv-x="533" unicode="∏" /><glyph d="M20 357 20 413H477V357H393V127Q393 88 406.5 70Q420 52 450 52Q455 52 462 52.5Q469 53 476 54L482 -5Q474 -6 464.5 -6.5Q455 -7 447 -7Q387 -7 357 26.5Q327 60 327 127V357H170V0H104V357Z" glyph-name="pi" horiz-adv-x="515" unicode="π" /><glyph d="M328 163 328 413H394V0H343L330 44Q312 17 287 3Q262 -11 231 -11Q201 -11 176 2.5Q151 16 134 41V-180H68V413H134V163Q134 109 159 79Q184 49 231 49Q278 49 303 79Q328 109 328 163Z" glyph-name="mu" horiz-adv-x="462" unicode="µ" /><glyph d="M20 537 20 594H363V537H95L293 207L80 -123H378V-180H5V-123L218 207Z" glyph-name="summation" horiz-adv-x="358" unicode="∑" /><glyph d="M60 215 60 320Q60 414 111 466.5Q162 519 255 519Q348 519 399 466.5Q450 414 450 320V215Q450 154 433.5 119.5Q417 85 379 57H472V0H289V57Q342 81 363 116Q384 151 384 215V320Q384 389 350.5 425Q317 461 255 461Q193 461 159.5 425Q126 389 126 320V215Q126 151 147 116Q168 81 221 57V0H38V57H131Q93 85 76.5 119.5Q60 154 60 215Z" glyph-name="Omega" horiz-adv-x="510" unicode="Ω" /><glyph d="M12 59 205 508H276L469 59V0H12ZM82 59 397 59L240 426Z" glyph-name="Delta" horiz-adv-x="481" unicode="∆" /><glyph d="M790 314 790 305H207Q204 305 203 304Q202 303 202 301V125Q202 119 204 114Q206 109 210 105Q254 59 311 34Q368 9 431 9Q498 9 558 37Q618 65 663 116H715Q664 57 589 23.5Q514 -10 430 -10Q281 -10 175.5 85Q70 180 70 314Q70 448 175.5 543Q281 638 430 638Q579 638 684.5 543Q790 448 790 314ZM658 328 658 506Q658 512 656 517.5Q654 523 649 527Q605 571 548.5 595Q492 619 431 619Q369 619 312 594.5Q255 570 211 524Q206 519 204 514Q202 509 202 502V328Q202 326 203.5 324.5Q205 323 207 323H654Q656 323 657 324.5Q658 326 658 328Z" glyph-name="estimated" horiz-adv-x="861" unicode="℮" /><glyph d="M285 -4 27 254L285 512L324 474L134 283H607V225H134L324 34Z" glyph-name="arrowleft" horiz-adv-x="640" unicode="←" /><glyph d="M100 258 62 297L320 555L578 297L540 258L350 447V0H290V447Z" glyph-name="arrowup" horiz-adv-x="640" unicode="↑" /><glyph d="M506 283 316 474L355 512L613 254L355 -4L316 34L506 225H33V283Z" glyph-name="arrowright" horiz-adv-x="640" unicode="→" /><glyph d="M290 97 290 544H350V97L540 286L578 247L320 -11L62 247L100 286Z" glyph-name="arrowdown" horiz-adv-x="640" unicode="↓" /><glyph d="M686 283 496 474L535 512L793 254L535 -4L496 34L686 225H134L324 34L285 -4L27 254L285 512L324 474L134 283Z" glyph-name="arrowboth" horiz-adv-x="820" unicode="↔" /><glyph d="M100 258 62 297L320 555L578 297L540 258L350 447V-75L540 114L578 75L320 -183L62 75L100 114L290 -75V447Z" glyph-name="arrowupdn" horiz-adv-x="640" unicode="↕" /><glyph d="M115 143 115 508H480V452H213L546 118L505 77L173 409V143Z" glyph-name="uni2196" horiz-adv-x="640" unicode="↖" /><glyph d="M160 452 160 508H525V143H467V409L135 77L94 118L427 452Z" glyph-name="uni2197" horiz-adv-x="640" unicode="↗" /><glyph d="M427 133 94 467L135 508L467 176V442H525V77H160V133Z" glyph-name="uni2198" horiz-adv-x="640" unicode="↘" /><glyph d="M173 442 173 176L505 508L546 467L213 133H480V77H115V442Z" glyph-name="uni2199" horiz-adv-x="640" unicode="↙" /><glyph d="M33 230 33 278Q104 309 169 356Q234 403 296 467L337 428Q282 372 236 336Q190 300 152 283H607V225H152Q190 208 236 172Q282 136 337 80L296 41Q234 105 169 152Q104 199 33 230Z" glyph-name="arrowleft.alt" horiz-adv-x="640" unicode="⇐" /><glyph d="M296 594 344 594Q375 525 423 459Q471 393 539 327L498 286Q434 351 400.5 392.5Q367 434 351 466V0H289V466Q273 434 239.5 392.5Q206 351 142 286L101 327Q169 393 217 459Q265 525 296 594Z" glyph-name="arrowup.alt" horiz-adv-x="640" unicode="⇑" /><glyph d="M303 428 344 467Q406 403 471 356Q536 309 607 278V230Q536 199 471 152Q406 105 344 41L303 80Q358 136 404 172Q450 208 488 225H33V283H488Q450 300 404 336Q358 372 303 428Z" glyph-name="arrowright.alt" horiz-adv-x="640" unicode="⇒" /><glyph d="M289 128 289 594H351V128Q367 160 400.5 201.5Q434 243 498 308L539 267Q471 201 423 135Q375 69 344 0H296Q265 69 217 135Q169 201 101 267L142 308Q206 243 239.5 201.5Q273 160 289 128Z" glyph-name="arrowdown.alt" horiz-adv-x="640" unicode="⇓" /><glyph d="M483 428 524 467Q586 403 651 356Q716 309 787 278V230Q716 199 651 152Q586 105 524 41L483 80Q538 136 584 172Q630 208 668 225H152Q190 208 236 172Q282 136 337 80L296 41Q234 105 169 152Q104 199 33 230V278Q104 309 169 356Q234 403 296 467L337 428Q282 372 236 336Q190 300 152 283H668Q630 300 584 336Q538 372 483 428Z" glyph-name="arrowboth.alt" horiz-adv-x="820" unicode="⇔" /><glyph d="M296 594 344 594Q375 525 423 459Q471 393 539 327L498 286Q434 351 400.5 392.5Q367 434 351 466V-52Q367 -20 400.5 21.5Q434 63 498 128L539 87Q471 21 423 -45Q375 -111 344 -180H296Q265 -111 217 -45Q169 21 101 87L142 128Q206 63 239.5 21.5Q273 -20 289 -52V466Q273 434 239.5 392.5Q206 351 142 286L101 327Q169 393 217 459Q265 525 296 594Z" glyph-name="arrowupdn.alt" horiz-adv-x="640" unicode="⇕" /><glyph d="M93 477 127 511Q196 484 277 471.5Q358 459 454 460V402Q361 403 308.5 408.5Q256 414 222 425L552 96L508 52L179 382Q190 348 195.5 295.5Q201 243 202 150H144Q145 246 132.5 327Q120 408 93 477Z" glyph-name="uni21D6" horiz-adv-x="640" unicode="⇖" /><glyph d="M186 402 186 460Q282 459 363 471.5Q444 484 513 511L547 477Q520 408 507.5 327Q495 246 496 150H438Q439 243 444.5 295.5Q450 348 461 382L132 52L88 96L418 425Q384 414 331.5 408.5Q279 403 186 402Z" glyph-name="uni21D7" horiz-adv-x="640" unicode="⇗" /><glyph d="M418 138 88 467L132 511L461 181Q450 215 444.5 267.5Q439 320 438 413H496Q495 317 507.5 236Q520 155 547 86L513 52Q444 79 363 91.5Q282 104 186 103V161Q279 160 331.5 154.5Q384 149 418 138Z" glyph-name="uni21D8" horiz-adv-x="640" unicode="⇘" /><glyph d="M179 181 508 511L552 467L222 138Q256 149 308.5 154.5Q361 160 454 161V103Q358 104 277 91.5Q196 79 127 52L93 86Q120 155 132.5 236Q145 317 144 413H202Q201 320 195.5 267.5Q190 215 179 181Z" glyph-name="uni21D9" horiz-adv-x="640" unicode="⇙" /></font>
</defs>
</svg>
