<?xml version="1.0" standalone="no"?>
<!DOCTYPE svg PUBLIC "-//W3C//DTD SVG 1.1//EN" "http://www.w3.org/Graphics/SVG/1.1/DTD/svg11.dtd" >
<svg xmlns="http://www.w3.org/2000/svg" xmlns:xlink="http://www.w3.org/1999/xlink" version="1.1">
<metadata></metadata>
<defs>
<font id="cosimobold" horiz-adv-x="1243" >
<font-face units-per-em="2048" ascent="1550" descent="-498" />
<missing-glyph horiz-adv-x="620" />
<glyph unicode="&#xfb00;" horiz-adv-x="1445" d="M12 729v189l138 75v35q0 104 35 196.5t100 163t165.5 111.5t223.5 41q78 0 127 -8v-332q-62 12 -117 12q-96 0 -153.5 -50t-57.5 -134v-35h338v11q0 111 38 207.5t109.5 170t181 116t244.5 42.5q109 0 201 -18v-334q-101 24 -199 24q-116 0 -184.5 -57.5t-68.5 -150.5 v-11h313v-264h-313v-377l6 -352h-328v729h-338v-377l4 -352h-327v729h-138z" />
<glyph unicode="&#xfb01;" horiz-adv-x="1241" d="M12 729v189l138 75v11q0 111 40.5 207.5t116 170t192.5 116t261 42.5q159 0 325 -39v-336q-177 47 -321 47q-135 0 -213 -57t-78 -151v-11h643v-993h-323v729h-320v-377l4 -352h-327v729h-138z" />
<glyph unicode="&#xfb02;" horiz-adv-x="1282" d="M12 729v189l138 75v11q0 110 38.5 207t110 170.5t181 116t243.5 42.5h113l327 10l-4 -557v-993h-323v1206q-52 6 -111 6q-116 0 -184 -57.5t-68 -150.5v-11h238v-264h-238v-377l4 -352h-327v729h-138z" />
<glyph unicode="&#xfb03;" horiz-adv-x="1900" d="M12 729v189l138 75v35q0 104 35 196.5t100 163t165.5 111.5t223.5 41q65 0 127 -10v-330q-62 12 -117 12q-96 0 -153.5 -50t-57.5 -134v-35h338v11q0 111 40.5 207.5t116 170t192.5 116t261 42.5q162 0 326 -37v-338q-161 47 -324 47q-133 0 -211.5 -57.5t-78.5 -150.5 v-11h645v-993h-324v729h-321v-377l6 -352h-328v729h-338v-377l4 -352h-327v729h-138z" />
<glyph unicode="&#xfb04;" horiz-adv-x="1943" d="M12 729v189l138 75v35q0 104 35 196.5t100 163t165.5 111.5t223.5 41q78 0 127 -8v-332q-62 12 -117 12q-96 0 -153.5 -50t-57.5 -134v-35h338v11q0 111 38 207.5t109.5 170t181 116t244.5 42.5h113l328 10l-6 -557v-993h-322v1206q-52 6 -111 6q-116 0 -184.5 -57.5 t-68.5 -150.5v-11h239v-264h-239v-377l6 -352h-328v729h-338v-377l4 -352h-327v729h-138z" />
<glyph unicode="ch" horiz-adv-x="2070" d="M59 492q0 235 157.5 383.5t420.5 148.5q126 0 205 -16v-336q-92 39 -205 39q-117 0 -183.5 -57.5t-66.5 -155.5q0 -90 73 -152.5t195 -62.5q103 0 195 28v-319q-101 -23 -205 -23q-271 0 -428.5 144.5t-157.5 378.5zM999 0v1540l328 10l-6 -557v-190q63 106 139 163.5 t182 57.5q144 0 229 -107.5t85 -298.5v-618h-324v567q0 67 -34 103.5t-101 36.5q-92 0 -176 -78v-629h-322z" />
<glyph unicode="ck" horiz-adv-x="2050" d="M59 492q0 235 157.5 383.5t420.5 148.5q126 0 205 -16v-336q-92 39 -205 39q-117 0 -183.5 -57.5t-66.5 -155.5q0 -90 73 -152.5t195 -62.5q103 0 195 28v-319q-101 -23 -205 -23q-271 0 -428.5 144.5t-157.5 378.5zM999 0v1540l328 10l-6 -557v-360l113 137l186 223h414 l-414 -426l432 -567h-428l-139 207l-92 129l-72 -72v-264h-322z" />
<glyph unicode="fb" horiz-adv-x="1916" d="M12 729v189l138 75v11q0 110 38.5 207t110 170.5t181 116t243.5 42.5h113l327 10l-6 -557v-139q129 170 305 170q171 0 282 -137t111 -359q0 -174 -78 -302.5t-206 -192.5t-287 -64q-160 0 -338 35l-110 23v1179q-52 6 -111 6q-116 0 -184 -57.5t-68 -150.5v-11h238v-264 h-238v-377l4 -352h-327v729h-138zM1157 293q65 -21 133 -21q108 0 172 61t64 179q0 95 -53.5 152t-137.5 57q-100 0 -178 -59v-369z" />
<glyph unicode="ffb" horiz-adv-x="2578" d="M12 729v189l138 75v35q0 104 35 196.5t100 163t165.5 111.5t223.5 41q78 0 127 -8v-332q-62 12 -117 12q-96 0 -153.5 -50t-57.5 -134v-35h338v11q0 111 38 207.5t109.5 170t181 116t244.5 42.5h113l328 10l-6 -557v-139q129 170 305 170q171 0 282 -137t111 -359 q0 -174 -78 -302.5t-206 -192.5t-287 -64q-160 0 -338 35l-111 23v1179q-52 6 -111 6q-116 0 -184.5 -57.5t-68.5 -150.5v-11h239v-264h-239v-377l6 -352h-328v729h-338v-377l4 -352h-327v729h-138zM1819 293q65 -21 133 -21q108 0 171.5 61t63.5 179q0 96 -53 152.5 t-137 56.5q-100 0 -178 -59v-369z" />
<glyph unicode="fh" horiz-adv-x="1906" d="M12 729v189l138 75v11q0 110 38.5 207t110 170.5t181 116t243.5 42.5h113l327 10l-6 -557v-190q118 221 322 221q144 0 228.5 -107.5t84.5 -298.5v-618h-324v567q0 67 -34 103.5t-101 36.5q-92 0 -176 -78v-629h-321v1206q-52 6 -111 6q-116 0 -184 -57.5t-68 -150.5v-11 h238v-264h-238v-377l4 -352h-327v729h-138z" />
<glyph unicode="ffh" horiz-adv-x="2568" d="M12 729v189l138 75v35q0 104 35 196.5t100 163t165.5 111.5t223.5 41q78 0 127 -8v-332q-62 12 -117 12q-96 0 -153.5 -50t-57.5 -134v-35h338v11q0 111 38 207.5t109.5 170t181 116t244.5 42.5h113l328 10l-6 -557v-190q118 221 321 221q144 0 229 -107.5t85 -298.5 v-618h-324v567q0 67 -34 103.5t-101 36.5q-92 0 -176 -78v-629h-322v1206q-52 6 -111 6q-116 0 -184.5 -57.5t-68.5 -150.5v-11h239v-264h-239v-377l6 -352h-328v729h-338v-377l4 -352h-327v729h-138z" />
<glyph unicode="fj" horiz-adv-x="1241" d="M12 729v189l138 75v11q0 111 40.5 207.5t116 170t192.5 116t261 42.5q159 0 325 -39v-336q-177 47 -321 47q-135 0 -213 -57t-78 -151v-11h643v-1005q0 -235 -121.5 -360.5t-337.5 -125.5q-79 0 -149 17v303q79 -17 119 -17q78 0 122 46.5t44 136.5v741h-320v-377l4 -352 h-327v729h-138z" />
<glyph unicode="ffj" horiz-adv-x="1900" d="M12 729v189l138 75v35q0 104 35 196.5t100 163t165.5 111.5t223.5 41q65 0 127 -10v-330q-62 12 -117 12q-96 0 -153.5 -50t-57.5 -134v-35h338v11q0 111 40.5 207.5t116 170t192.5 116t261 42.5q162 0 326 -37v-338q-161 47 -324 47q-133 0 -211.5 -57.5t-78.5 -150.5 v-11h645v-1005q0 -235 -121.5 -360.5t-337.5 -125.5q-80 0 -150 17v303q79 -17 119 -17q78 0 122 46.5t44 136.5v741h-321v-377l6 -352h-328v729h-338v-377l4 -352h-327v729h-138z" />
<glyph unicode="fk" horiz-adv-x="1878" d="M12 729v189l138 75v11q0 110 38.5 207t110 170.5t181 116t243.5 42.5h113l327 10l-6 -557v-340l103 117l192 223h418l-414 -426l432 -567h-440l-139 207l-86 123l-66 -66v-264h-321v1206q-52 6 -111 6q-116 0 -184 -57.5t-68 -150.5v-11h238v-264h-238v-377l4 -352h-327 v729h-138z" />
<glyph unicode="ffk" horiz-adv-x="2539" d="M12 729v189l138 75v35q0 104 35 196.5t100 163t165.5 111.5t223.5 41q78 0 127 -8v-332q-62 12 -117 12q-96 0 -153.5 -50t-57.5 -134v-35h338v11q0 111 38 207.5t109.5 170t181 116t244.5 42.5h113l328 10l-6 -557v-340l102 117l193 223h417l-413 -426l432 -567h-441 l-139 207l-86 123l-65 -66v-264h-322v1206q-52 6 -111 6q-116 0 -184.5 -57.5t-68.5 -150.5v-11h239v-264h-239v-377l6 -352h-328v729h-338v-377l4 -352h-327v729h-138z" />
<glyph horiz-adv-x="0" />
<glyph horiz-adv-x="682" />
<glyph horiz-adv-x="0" />
<glyph horiz-adv-x="0" />
<glyph unicode="&#xd;" horiz-adv-x="620" />
<glyph unicode=" "  horiz-adv-x="620" />
<glyph unicode="&#x09;" horiz-adv-x="620" />
<glyph unicode="&#xa0;" horiz-adv-x="620" />
<glyph unicode="!" horiz-adv-x="620" d="M96 184q0 91 61.5 152t153.5 61q91 0 152 -61t61 -152q0 -92 -61 -153.5t-152 -61.5q-92 0 -153.5 61.5t-61.5 153.5zM150 922v569h323v-569q0 -150 -37.5 -252.5t-124.5 -190.5q-86 88 -123.5 190.5t-37.5 252.5z" />
<glyph unicode="&#x22;" horiz-adv-x="1218" d="M141 1300q0 103 53.5 162.5t141.5 59.5q87 0 139.5 -61t52.5 -165q0 -53 -44.5 -207t-61.5 -249l-37 -207h-98l-39 209q-16 88 -61.5 245.5t-45.5 212.5zM688 1300q0 103 53.5 162.5t141.5 59.5q87 0 139.5 -61t52.5 -165q0 -53 -44.5 -207t-61.5 -249l-37 -207h-98 l-39 209q-16 88 -61.5 245.5t-45.5 212.5z" />
<glyph unicode="#" horiz-adv-x="1431" d="M59 328v288h199l70 258h-150v289h228l90 328h292l-90 -328h256l90 328h293l-90 -328h125v-289h-201l-69 -258h151v-288h-229l-86 -328h-295l88 328h-256l-88 -328h-293l88 328h-123zM551 616h256l70 258h-256z" />
<glyph unicode="$" d="M145 1061q0 169 103 291t280 157v226h230v-215q134 -11 280 -58v-377q-107 46 -194 69.5t-189 23.5q-82 0 -124 -30t-42 -77q0 -38 28 -65.5t95 -55.5l154 -61q181 -73 266.5 -185.5t85.5 -287.5q0 -176 -92.5 -288.5t-280.5 -143.5v-228h-229v217q-205 6 -358 72v375 q117 -55 214 -82t218 -27q94 0 139 32t45 87q0 50 -31 82t-110 61l-156 58q-175 65 -253.5 170t-78.5 260z" />
<glyph unicode="%" horiz-adv-x="2238" d="M90 1104q0 181 117.5 299.5t296.5 118.5q182 0 300 -118t118 -300q0 -180 -118.5 -298t-299.5 -118q-179 0 -296.5 118t-117.5 298zM336 1104q0 -71 49 -120.5t119 -49.5q73 0 121.5 49.5t48.5 120.5q0 72 -48.5 120t-121.5 48q-71 0 -119.5 -48t-48.5 -120zM539 0 l860 1491h301l-860 -1491h-301zM1317 387q0 180 118.5 298t299.5 118q180 0 297.5 -118t117.5 -298t-117.5 -299t-297.5 -119q-181 0 -299.5 119t-118.5 299zM1567 387q0 -72 48 -120t120 -48q71 0 120.5 48.5t49.5 119.5t-49.5 120.5t-120.5 49.5t-119.5 -49.5 t-48.5 -120.5z" />
<glyph unicode="&#x26;" horiz-adv-x="1718" d="M70 442q0 302 321 443q-92 112 -92 245q0 170 123.5 281t325.5 111q192 0 316 -109.5t124 -277.5q0 -127 -71 -211.5t-208 -139.5l160 -163l236 309h413l-430 -533l58 -59l331 -338h-475l-141 147q-92 -88 -199.5 -133t-253.5 -45q-247 0 -392.5 134.5t-145.5 338.5z M430 479q0 -75 58 -123.5t153 -48.5q111 0 199 78l-269 281q-70 -28 -105.5 -77.5t-35.5 -109.5zM631 1116q0 -63 88 -139q70 18 106.5 55.5t36.5 83.5q0 45 -32.5 75t-84.5 30q-50 0 -82 -29.5t-32 -75.5z" />
<glyph unicode="'" horiz-adv-x="620" d="M117 1300q0 103 53.5 162.5t140.5 59.5t140 -61.5t53 -164.5q0 -53 -45 -207t-62 -249l-37 -207h-100l-37 209q-16 92 -61 248t-45 210z" />
<glyph unicode="(" horiz-adv-x="806" d="M106 498q0 594 340 993h361q-365 -419 -365 -993q0 -577 365 -996h-361q-340 403 -340 996z" />
<glyph unicode=")" horiz-adv-x="806" d="M0 -498q365 416 365 996q0 577 -365 993h360q340 -399 340 -993q0 -593 -340 -996h-360z" />
<glyph unicode="*" horiz-adv-x="1187" d="M104 997l115 355l291 -197l-111 336h389l-112 -336l299 199l108 -357l-350 7l277 -224l-293 -219l-121 326l-115 -326l-299 219l275 224z" />
<glyph unicode="+" d="M125 602v287h352v354h289v-354h352v-287h-352v-354h-289v354h-352z" />
<glyph unicode="," horiz-adv-x="620" d="M82 211q0 83 55.5 134.5t138.5 51.5q127 0 214.5 -101.5t87.5 -256.5q0 -301 -207 -483h-234q148 145 148 278q0 56 -23 96t-78 86q-55 47 -78.5 91.5t-23.5 103.5z" />
<glyph unicode="-" horiz-adv-x="620" d="M49 336v323h522v-323h-522z" />
<glyph unicode="." horiz-adv-x="620" d="M96 184q0 91 61.5 152t153.5 61q91 0 152 -61t61 -152q0 -92 -61 -153.5t-152 -61.5q-92 0 -153.5 61.5t-61.5 153.5z" />
<glyph unicode="/" horiz-adv-x="772" d="M39 0l401 1491h293l-399 -1491h-295z" />
<glyph unicode="0" d="M66 745q0 184 42 332t116.5 244.5t176 148.5t220.5 52q120 0 221.5 -51.5t176.5 -148.5t117 -245t42 -332t-42 -331.5t-117 -244.5t-176.5 -148.5t-221.5 -51.5q-119 0 -220.5 51.5t-176 148t-116.5 244.5t-42 332zM410 745q0 -220 57.5 -337t153.5 -117q97 0 155 116.5 t58 337.5t-58 338t-155 117q-96 0 -153.5 -117t-57.5 -338z" />
<glyph unicode="1" d="M209 954v252l373 285h290v-1491h-335v1106z" />
<glyph unicode="2" d="M90 0l397 549q156 217 200 303t44 172q0 83 -51.5 129.5t-144.5 46.5q-100 0 -188.5 -32t-184.5 -95v342q173 107 393 107q243 0 380.5 -130.5t137.5 -351.5q0 -143 -67 -268.5t-265 -351.5l-73 -84h456v-336h-1034z" />
<glyph unicode="3" d="M162 37v344q177 -94 381 -94q114 0 173.5 40t59.5 117q0 73 -61.5 116.5t-179.5 43.5h-166v303h141q102 0 156.5 39.5t54.5 110.5q0 68 -55 108.5t-158 40.5q-149 0 -334 -80v320q155 76 365 76q236 0 378 -117t142 -309q0 -220 -240 -324q137 -39 217 -133t80 -240 q0 -199 -146 -314.5t-407 -115.5q-236 0 -401 68z" />
<glyph unicode="4" d="M20 272l715 1219h361v-920h125v-299h-125v-272h-336v272h-740zM477 571h283v504z" />
<glyph unicode="5" d="M166 31v329q168 -71 348 -71q129 0 195.5 46.5t66.5 131.5t-77 133.5t-244 48.5q-130 0 -277 -24l51 866h815v-336h-538l-12 -201h34q279 0 435.5 -127t156.5 -360t-151.5 -365.5t-433.5 -132.5q-206 0 -369 62z" />
<glyph unicode="6" d="M80 569q0 545 506 922h575q-313 -169 -494 -356.5t-229 -378.5q117 153 295 153q181 0 297.5 -125t116.5 -331q0 -212 -137.5 -348t-360.5 -136q-267 0 -418 163.5t-151 436.5zM438 510q0 -103 58 -167t147 -64q80 0 129 52.5t49 133.5q0 73 -48.5 122.5t-123.5 49.5 q-117 0 -211 -100v-27z" />
<glyph unicode="7" d="M94 1155v336h1090l-580 -1491h-399l530 1155h-641z" />
<glyph unicode="8" d="M104 381q0 121 62 207.5t190 148.5q-105 83 -153.5 166.5t-48.5 188.5q0 189 140 310.5t347 121.5q113 0 204.5 -33t150.5 -88.5t90.5 -128.5t31.5 -154q0 -215 -233 -315q142 -75 210 -174t68 -238q0 -193 -136.5 -308.5t-385.5 -115.5q-252 0 -394.5 115.5 t-142.5 296.5zM424 422q0 -73 60.5 -120.5t158.5 -47.5q95 0 143 38.5t48 98.5q0 45 -31.5 80.5t-110.5 77.5l-137 72q-131 -91 -131 -199zM477 1098q0 -71 90 -117l123 -63q56 31 87.5 73.5t31.5 89.5q0 62 -45.5 100t-124.5 38q-76 0 -119 -34.5t-43 -86.5z" />
<glyph unicode="9" d="M86 1020q0 221 142.5 361.5t365.5 140.5q254 0 405.5 -173t151.5 -456q0 -290 -116 -513.5t-320 -379.5h-596q612 322 684 745q-55 -72 -136 -116.5t-180 -44.5q-167 0 -284 121.5t-117 314.5zM412 1026q0 -75 50.5 -123.5t125.5 -48.5q60 0 108 25.5t97 74.5v27 q0 104 -54.5 167.5t-142.5 63.5q-79 0 -131.5 -51.5t-52.5 -134.5z" />
<glyph unicode=":" horiz-adv-x="620" d="M96 184q0 91 61.5 152t153.5 61q91 0 152 -61t61 -152q0 -92 -61 -153.5t-152 -61.5q-92 0 -153.5 61.5t-61.5 153.5zM96 811q0 91 61.5 152t153.5 61q91 0 152 -61t61 -152q0 -92 -61 -153.5t-152 -61.5q-92 0 -153.5 61.5t-61.5 153.5z" />
<glyph unicode=";" horiz-adv-x="620" d="M82 211q0 83 55.5 134.5t138.5 51.5q127 0 214.5 -101.5t87.5 -256.5q0 -301 -207 -483h-234q148 145 148 278q0 56 -23 96t-78 86q-55 47 -78.5 91.5t-23.5 103.5zM96 811q0 91 61.5 152t153.5 61q91 0 152 -61t61 -152q0 -92 -61 -153.5t-152 -61.5q-92 0 -153.5 61.5 t-61.5 153.5z" />
<glyph unicode="&#x3c;" d="M100 745l1018 617v-342l-491 -275l491 -272v-344z" />
<glyph unicode="=" d="M125 352v289h993v-289h-993zM125 850v289h993v-289h-993z" />
<glyph unicode="&#x3e;" d="M125 129v344l491 272l-491 275v342l1018 -617z" />
<glyph unicode="?" horiz-adv-x="839" d="M59 1163v305q124 54 283 54q194 0 309 -111.5t115 -286.5q0 -103 -34 -184t-124 -174l-63 -68q-46 -47 -79 -90.5t-46.5 -66t-34.5 -62.5q-56 20 -98.5 77.5t-42.5 127.5q0 91 73 178l52 60q44 50 58.5 82.5t14.5 70.5q0 58 -45 95.5t-121 37.5q-91 0 -217 -45zM152 184 q0 91 61 152t152 61q92 0 153.5 -61t61.5 -152q0 -92 -61.5 -153.5t-153.5 -61.5q-91 0 -152 61.5t-61 153.5z" />
<glyph unicode="@" horiz-adv-x="2115" d="M115 508q0 216 77.5 405t211.5 322.5t321 210t399 76.5q191 0 356.5 -65t283 -179.5t184.5 -276.5t67 -350q0 -337 -119.5 -501t-359.5 -164q-113 0 -196 50t-119 146q-51 -101 -121 -148.5t-170 -47.5q-126 0 -202.5 72t-76.5 186q0 227 273 303q101 27 262 39v16 q0 66 -40.5 99.5t-133.5 33.5q-152 0 -328 -76v302q172 77 360 77q226 0 345.5 -109t119.5 -327v-262q0 -32 18 -51t52 -19q67 0 109.5 86.5t42.5 272.5q0 172 -74.5 311.5t-216.5 222t-326 82.5q-154 0 -287 -54t-227 -150.5t-147.5 -234t-53.5 -298.5q0 -154 51 -287.5 t143.5 -231t230.5 -153t304 -55.5q162 0 294 28.5t268 86.5v-299q-266 -95 -553 -95q-229 0 -422 78t-323.5 213t-203.5 319.5t-73 395.5zM967 303q0 -44 24.5 -70t65.5 -26q82 0 129 104v152q-77 -13 -127 -33q-92 -39 -92 -127z" />
<glyph unicode="A" horiz-adv-x="1456" d="M10 0l514 1491h414l508 -1491h-385l-68 225h-538l-64 -225h-381zM543 528h364l-184 547z" />
<glyph unicode="B" horiz-adv-x="1296" d="M150 0v1491h546q116 0 208 -31.5t150.5 -86.5t89 -127t30.5 -156q0 -227 -220 -314q125 -37 204 -130t79 -240q0 -184 -128 -295t-376 -111h-583zM498 307h202q91 0 138 42t47 114q0 65 -48.5 107t-127.5 42h-211v-305zM498 905h155q82 0 124 38.5t42 103.5q0 61 -43 99 t-114 38h-164v-279z" />
<glyph unicode="C" horiz-adv-x="1306" d="M84 745q0 164 61.5 308t169.5 247t261 162.5t329 59.5q183 0 332 -41v-377q-168 67 -332 67q-201 0 -327.5 -114.5t-126.5 -311.5t128.5 -310t338.5 -113q164 0 329 69v-377q-152 -45 -329 -45q-242 0 -432 98.5t-296 275.5t-106 402z" />
<glyph unicode="D" horiz-adv-x="1523" d="M150 0v1491h503q249 0 427.5 -91.5t269 -255t90.5 -384.5q0 -356 -206 -558t-591 -202h-493zM498 313h123q217 0 332.5 114.5t115.5 324.5q0 203 -114.5 314.5t-327.5 111.5h-129v-865z" />
<glyph unicode="E" horiz-adv-x="1159" d="M150 0v1491h899v-313h-551v-263h501v-313h-501v-289h575v-313h-923z" />
<glyph unicode="F" horiz-adv-x="1044" d="M150 0v1491h849v-313h-501v-263h452v-313h-452v-602h-348z" />
<glyph unicode="G" horiz-adv-x="1484" d="M84 735q0 170 60.5 315t171 249.5t274 163.5t360.5 59q226 0 424 -54v-383q-222 86 -432 86q-227 0 -357 -114.5t-130 -321.5q0 -193 130 -307.5t349 -114.5q53 0 86 4v66l-8 346h342v-725l-109 -12q-20 -2 -67 -7t-78.5 -8t-76.5 -5.5t-83 -2.5q-252 0 -447.5 98.5 t-302 273t-106.5 394.5z" />
<glyph unicode="H" horiz-adv-x="1591" d="M150 0v1491h348v-576h598v576h346v-1491h-346v602h-598v-602h-348z" />
<glyph unicode="I" horiz-adv-x="647" d="M150 0v1491h348v-1491h-348z" />
<glyph unicode="J" horiz-adv-x="817" d="M74 -12v338q54 -13 100 -13q172 0 172 172v1006h342v-1024q0 -251 -120.5 -374.5t-342.5 -123.5q-86 0 -151 19z" />
<glyph unicode="K" horiz-adv-x="1501" d="M150 0v1491h348v-651l307 366l231 285h451l-580 -655l619 -836h-453l-209 291l-198 266l-168 -192v-365h-348z" />
<glyph unicode="L" horiz-adv-x="1118" d="M150 0v1491h348v-1178h551v-313h-899z" />
<glyph unicode="M" horiz-adv-x="1990" d="M150 0v1491h348l485 -709l487 709h371v-1491h-348v940l-514 -745l-498 723v-918h-331z" />
<glyph unicode="N" horiz-adv-x="1689" d="M150 0v1491h352l706 -932v932h332v-1491h-352l-707 928v-928h-331z" />
<glyph unicode="O" horiz-adv-x="1742" d="M84 748q0 225 103.5 402.5t283.5 274.5t403 97q225 0 403.5 -99t279 -275.5t100.5 -399.5q0 -169 -60.5 -315t-166 -247.5t-252 -159t-314.5 -57.5q-224 0 -402 99t-278 277t-100 403zM451 748q0 -189 119 -313t302 -124q180 0 300 119.5t120 312.5q0 191 -122 313 t-306 122q-178 0 -295.5 -118.5t-117.5 -311.5z" />
<glyph unicode="P" horiz-adv-x="1361" d="M150 0v1491h571q266 0 413.5 -131.5t147.5 -351.5q0 -498 -569 -498h-215v-510h-348zM498 823h202q211 0 211 181q0 81 -53.5 127.5t-150.5 46.5h-209v-355z" />
<glyph unicode="Q" horiz-adv-x="1742" d="M84 748q0 225 103.5 402.5t283.5 274.5t403 97q225 0 403.5 -99t279 -275.5t100.5 -399.5q0 -285 -147.5 -467.5t-407.5 -247.5q495 -221 989 -221q209 0 387 38v-331q-198 -41 -391 -41q-251 0 -470.5 49.5t-481 169.5t-631.5 342q-202 122 -311 302t-109 407zM451 748 q0 -189 119 -313t302 -124q180 0 300 119.5t120 312.5q0 191 -122 313t-306 122q-178 0 -295.5 -118.5t-117.5 -311.5z" />
<glyph unicode="R" horiz-adv-x="1345" d="M150 0v1491h546q250 0 393.5 -129.5t143.5 -337.5q0 -299 -307 -410l420 -614h-426l-199 315l-150 236h-73v-551h-348zM498 864h176q188 0 188 162q0 73 -48 112.5t-136 39.5h-180v-314z" />
<glyph unicode="S" horiz-adv-x="1114" d="M72 1061q0 202 141.5 331.5t376.5 129.5q198 0 375 -56v-381q-107 46 -194 69.5t-189 23.5q-82 0 -124 -30t-42 -77q0 -39 26.5 -66.5t87.5 -52.5l185 -75q172 -71 250.5 -182.5t78.5 -278.5q0 -209 -131.5 -328t-396.5 -119q-253 0 -432 76v375q117 -55 214 -82t218 -27 q91 0 137.5 32t46.5 87q0 46 -28.5 78t-100.5 59l-168 64q-175 66 -253 171t-78 259z" />
<glyph unicode="T" horiz-adv-x="1208" d="M31 1178v313h1147v-313h-400v-1178h-348v1178h-399z" />
<glyph unicode="U" horiz-adv-x="1497" d="M139 573v918h350v-901q0 -126 68.5 -201.5t198.5 -75.5q132 0 200 74.5t68 198.5v905h334v-918q0 -133 -37.5 -242.5t-111.5 -190.5t-191.5 -126t-269.5 -45q-151 0 -268.5 45t-191 126t-111.5 190.5t-38 242.5z" />
<glyph unicode="V" horiz-adv-x="1411" d="M0 1491h395l103 -326l211 -651l213 651l102 326h387l-514 -1491h-385z" />
<glyph unicode="W" horiz-adv-x="2256" d="M0 1491h397l103 -381l164 -580l297 961h344l292 -959l175 607l94 352h391l-469 -1491h-387l-273 874l-276 -874h-385z" />
<glyph unicode="X" horiz-adv-x="1462" d="M10 0l506 766l-485 725h424l290 -447l275 447h410l-490 -739l512 -752h-428l-313 469l-285 -469h-416z" />
<glyph unicode="Y" horiz-adv-x="1337" d="M0 1491h406l155 -313l113 -209l110 209l162 313h391l-497 -887v-604h-348v612z" />
<glyph unicode="Z" horiz-adv-x="1372" d="M31 0l686 1178h-633v313h1223l-689 -1178h705v-313h-1292z" />
<glyph unicode="[" horiz-adv-x="806" d="M131 -498v1989h641v-180h-328v-1626h328v-183h-641z" />
<glyph unicode="\" horiz-adv-x="772" d="M39 1491h295l399 -1491h-293z" />
<glyph unicode="]" horiz-adv-x="806" d="M35 -315h327v1626h-327v180h641v-1989h-641v183z" />
<glyph unicode="^" d="M61 502l560 1020l559 -1020h-332l-227 450l-226 -450h-334z" />
<glyph unicode="_" horiz-adv-x="1024" d="M0 -174h1024v-324h-1024v324z" />
<glyph unicode="`" horiz-adv-x="1024" d="M209 1540h375l231 -410h-280z" />
<glyph unicode="a" horiz-adv-x="1050" d="M66 229q0 115 63.5 191.5t208.5 111.5q108 26 270 39v15q0 68 -39.5 101.5t-132.5 33.5q-156 0 -340 -78v311q160 70 371 70q227 0 346 -109t119 -329v-307l78 -271l-340 -39l-35 187q-51 -99 -121 -143t-172 -44q-124 0 -200 73t-76 187zM381 285q0 -41 26 -68t66 -27 q88 0 135 105v151q-84 -7 -135 -30q-92 -44 -92 -131z" />
<glyph unicode="b" horiz-adv-x="1206" d="M125 27v1513l328 10l-7 -557v-139q129 170 306 170q171 0 282 -137t111 -359q0 -174 -78.5 -302.5t-206.5 -192.5t-287 -64q-158 0 -337 35zM446 293q65 -21 134 -21q108 0 171.5 61t63.5 179q0 96 -53 152.5t-137 56.5q-101 0 -179 -59v-369z" />
<glyph unicode="c" horiz-adv-x="905" d="M59 492q0 235 157.5 383.5t420.5 148.5q126 0 205 -16v-336q-92 39 -205 39q-117 0 -183.5 -57.5t-66.5 -155.5q0 -90 73 -152.5t195 -62.5q103 0 195 28v-319q-101 -23 -205 -23q-271 0 -428.5 144.5t-157.5 378.5z" />
<glyph unicode="d" horiz-adv-x="1206" d="M59 473q0 164 74 290t204 193.5t294 67.5q16 0 127 -6v522l327 10l-4 -557v-665l33 -328h-330l-12 174q-45 -95 -120.5 -150t-176.5 -55q-192 0 -304 136.5t-112 367.5zM391 485q0 -103 54 -161t147 -58q90 0 166 68v375q-58 12 -125 12q-105 0 -173.5 -63t-68.5 -173z " />
<glyph unicode="e" horiz-adv-x="1124" d="M59 492q0 231 149 381.5t374 150.5q221 0 350 -127t129 -334v-133h-690q44 -158 282 -158q159 0 346 68v-317q-164 -54 -350 -54q-282 0 -436 143t-154 380zM373 586h385q0 74 -46.5 121t-131.5 47q-88 0 -139.5 -47t-67.5 -121z" />
<glyph unicode="f" horiz-adv-x="784" d="M12 729v189l138 75v11q0 110 38.5 207t110 170.5t181 116t243.5 42.5q125 0 201 -18v-334q-101 24 -199 24q-116 0 -184 -57.5t-68 -150.5v-11h311v-264h-311v-377l4 -352h-327v729h-138z" />
<glyph unicode="g" horiz-adv-x="1210" d="M66 473q0 129 45 234t123 174t181.5 106t221.5 37q153 0 332 -31l116 -18v-903q0 -98 -21 -182t-67.5 -156.5t-117 -123t-174.5 -79.5t-234 -29q-193 0 -367 47v326q186 -63 353 -63q307 0 307 290v37q-64 -85 -131 -127.5t-156 -42.5q-184 0 -297.5 137.5t-113.5 366.5z M395 492q0 -104 55 -165t148 -61t166 64v377q-72 14 -133 14q-102 0 -169 -60t-67 -169z" />
<glyph unicode="h" horiz-adv-x="1196" d="M125 0v1540l328 10l-7 -557v-190q63 106 139.5 163.5t182.5 57.5q144 0 228.5 -107.5t84.5 -298.5v-618h-323v567q0 67 -34 103.5t-101 36.5q-93 0 -177 -78v-629h-321z" />
<glyph unicode="i" horiz-adv-x="571" d="M84 1339q0 86 58.5 143.5t144.5 57.5t143 -57.5t57 -143.5t-57 -143t-143 -57q-87 0 -145 57t-58 143zM125 0v993h321v-993h-321z" />
<glyph unicode="j" horiz-adv-x="602" d="M-131 -178q79 -17 119 -17q78 0 122 46.5t44 136.5v1005h323v-1005q0 -235 -121.5 -360.5t-337.5 -125.5q-79 0 -149 17v303zM109 1339q0 86 58 143.5t144 57.5t143.5 -57.5t57.5 -143.5t-57.5 -143t-143.5 -57t-144 57t-58 143z" />
<glyph unicode="k" horiz-adv-x="1167" d="M125 0v1540l328 10l-7 -557v-360l113 137l186 223h414l-414 -426l433 -567h-428l-140 207l-92 129l-72 -72v-264h-321z" />
<glyph unicode="l" horiz-adv-x="571" d="M125 0v1540l328 10l-7 -557v-993h-321z" />
<glyph unicode="m" horiz-adv-x="1759" d="M119 989l323 10v-196q48 103 126.5 162t181.5 59q96 0 166 -53t104 -152q109 205 323 205q141 0 221.5 -101.5t80.5 -281.5v-641h-322v582q0 60 -30.5 92.5t-84.5 32.5q-89 0 -161 -78v-629h-324v582q0 60 -30 92.5t-85 32.5q-87 0 -162 -78v-629h-321v686z" />
<glyph unicode="n" horiz-adv-x="1196" d="M119 989l323 10v-198q132 223 324 223q146 0 230.5 -107t84.5 -299v-618h-323v567q0 65 -36.5 102.5t-98.5 37.5q-93 0 -177 -78v-629h-321v686z" />
<glyph unicode="o" horiz-adv-x="1187" d="M59 492q0 231 147 381.5t398 150.5q123 0 223.5 -42t165.5 -114t100 -166.5t35 -201.5q0 -231 -146.5 -381t-397.5 -150q-122 0 -223 43t-166 116t-100.5 166.5t-35.5 197.5zM383 504q0 -100 63 -166t158 -66q90 0 145.5 58t55.5 159t-62.5 166.5t-156.5 65.5 q-90 0 -146.5 -58t-56.5 -159z" />
<glyph unicode="p" horiz-adv-x="1206" d="M119 989l323 10v-139q62 79 134 121.5t167 42.5q174 0 290 -139.5t116 -360.5q0 -175 -76 -302.5t-201 -190t-282 -62.5q-70 0 -144 19v-31l7 -455h-328v1184zM446 289q65 -21 134 -21q107 0 171 63t64 181q0 96 -53 152.5t-137 56.5q-101 0 -179 -59v-373z" />
<glyph unicode="q" horiz-adv-x="1210" d="M66 473q0 129 45 234t123 174t181.5 106t221.5 37q153 0 332 -31l116 -18v-1473h-327l6 498v139q-61 -83 -129.5 -126.5t-159.5 -43.5q-183 0 -296 137.5t-113 366.5zM395 492q0 -102 53 -162t138 -60q101 0 178 64v373q-72 14 -133 14q-102 0 -169 -60t-67 -169z" />
<glyph unicode="r" horiz-adv-x="849" d="M119 989l323 10v-223q118 248 326 248q46 0 82 -8v-340q-66 8 -121 8q-165 0 -283 -90v-295l11 -299h-332v686z" />
<glyph unicode="s" horiz-adv-x="886" d="M78 698q0 138 108.5 232t302.5 94q152 0 283 -39v-334q-165 70 -297 70q-113 0 -113 -55q0 -19 16 -33.5t44 -20.5l127 -30q143 -34 209.5 -106t66.5 -193q0 -145 -108.5 -229.5t-308.5 -84.5q-96 0 -164 12.5t-148 38.5v342q184 -90 338 -90q107 0 107 56q0 41 -62 57 l-143 37q-258 67 -258 276z" />
<glyph unicode="t" horiz-adv-x="792" d="M12 729v189l451 325v-250h285v-264h-285v-334q0 -116 131 -116q77 0 170 43v-308q-119 -45 -252 -45q-174 0 -273.5 98t-99.5 291v371h-127z" />
<glyph unicode="u" horiz-adv-x="1185" d="M115 342v651h323v-565q0 -139 123 -139q97 0 176 76v628h324v-665l20 -328h-321l-8 201q-125 -232 -318 -232q-152 0 -235.5 98.5t-83.5 274.5z" />
<glyph unicode="v" horiz-adv-x="1075" d="M0 993h352l99 -303l94 -319l92 315l100 307h338l-352 -993h-371z" />
<glyph unicode="w" horiz-adv-x="1683" d="M0 993h348l84 -305l78 -287l172 592h334l170 -587l80 290l84 297h333l-313 -993h-358l-172 516l-168 -516h-359z" />
<glyph unicode="x" horiz-adv-x="1101" d="M4 0l344 528l-321 465h399l145 -239l138 239h364l-317 -495l340 -498h-406l-166 268l-147 -268h-373z" />
<glyph unicode="y" horiz-adv-x="1075" d="M0 993h352l97 -303l94 -287l90 283l96 307h346l-559 -1491h-377l217 490z" />
<glyph unicode="z" horiz-adv-x="1054" d="M14 0l449 694h-412v299h946l-444 -692h451v-301h-990z" />
<glyph unicode="{" horiz-adv-x="806" d="M104 358v279h66q100 0 100 92q0 30 -24 148l-13 55q-22 90 -22 176q0 170 113.5 276.5t281.5 106.5h166v-281h-96q-71 0 -109.5 -40.5t-38.5 -110.5q0 -41 17 -117l12 -57q14 -66 14 -148q0 -94 -49 -154.5t-137 -84.5q88 -26 137 -87t49 -155q0 -81 -14 -147l-12 -58 q-17 -76 -17 -117q0 -69 38.5 -110t109.5 -41h96v-281h-166q-168 0 -281.5 106.5t-113.5 276.5q0 86 22 176l13 56q24 118 24 149q0 41 -24.5 66.5t-75.5 25.5h-66z" />
<glyph unicode="|" horiz-adv-x="620" d="M166 -498v1989h289v-1989h-289z" />
<glyph unicode="}" horiz-adv-x="806" d="M35 -217h96q72 0 110 41t38 110q0 20 -2.5 41.5t-7 46t-5.5 29.5l-14 58q-14 82 -14 147q0 94 49.5 155t136.5 87q-87 24 -136.5 84.5t-49.5 154.5q0 66 14 148l14 57q1 5 5.5 29.5t7 46t2.5 41.5q0 70 -38 110.5t-110 40.5h-96v281h166q168 0 281.5 -106.5t113.5 -276.5 q0 -82 -23 -176l-12 -55q-24 -118 -24 -148q0 -42 25 -67t77 -25h63v-279h-63q-51 0 -76.5 -25.5t-25.5 -66.5q0 -31 24 -149l12 -56q23 -94 23 -176q0 -170 -113.5 -276.5t-281.5 -106.5h-166v281z" />
<glyph unicode="~" d="M125 561v301q120 82 266 82q132 0 260 -57q124 -53 221 -53q123 0 246 94v-301q-120 -82 -266 -82q-132 0 -260 57q-124 53 -221 53q-123 0 -246 -94z" />
<glyph unicode="&#xa1;" horiz-adv-x="620" d="M96 1307q0 92 61 153.5t152 61.5q92 0 153.5 -61.5t61.5 -153.5q0 -91 -61.5 -152t-153.5 -61q-91 0 -152 61t-61 152zM147 0v569q0 150 37.5 252.5t124.5 190.5q87 -88 124.5 -190.5t37.5 -252.5v-569h-324z" />
<glyph unicode="&#xa2;" d="M231 748q0 192 103.5 328t290.5 181v234h227v-213q59 -2 141 -14v-336q-92 39 -194 39q-117 0 -180.5 -56t-63.5 -157q0 -93 68 -154t184 -61q102 0 194 28v-319q-63 -17 -149 -23v-225h-227v244q-188 44 -291 177.5t-103 326.5z" />
<glyph unicode="&#xa3;" d="M104 -31v238q96 66 136 153.5t51 253.5l2 39h-150v230h174l9 75q26 265 184 414.5t418 149.5q105 0 213 -23v-356q-102 24 -195 24q-249 0 -272 -260l-2 -24h329v-230h-354l-8 -67q-18 -154 -109 -250q61 0 107 -10q169 -33 244 -33q122 0 243 65v-342q-120 -47 -254 -47 q-92 0 -254 29q-19 3 -64 11.5t-66 11.5t-55.5 6.5t-65.5 3.5q-69 0 -125 -14t-136 -48z" />
<glyph unicode="&#xa5;" d="M10 1491h396l137 -313l82 -179l82 179l141 313h381l-277 -557h226v-227h-338l-49 -103v-67h387v-230h-387v-307h-349v307h-393v230h393v75l-47 95h-346v227h234z" />
<glyph unicode="&#xa6;" horiz-adv-x="620" d="M166 229h289v-727h-289v727zM166 766v725h289v-725h-289z" />
<glyph unicode="&#xa7;" horiz-adv-x="1107" d="M82 1061q0 203 136.5 332t375.5 129q201 0 375 -58v-379q-107 46 -194 69.5t-189 23.5q-81 0 -123.5 -26t-42.5 -67q0 -61 88 -86l154 -45q193 -56 289 -176t96 -270q0 -162 -105 -299q109 -121 109 -299q0 -192 -123.5 -300t-370.5 -108q-281 0 -457 76v375 q220 -109 457 -109q81 0 118.5 27t37.5 72q0 43 -34 72t-106 51l-124 38q-194 61 -279.5 164.5t-85.5 255.5q0 159 94 283q-96 104 -96 254zM395 555q0 -89 109 -125l194 -61q33 48 33 110q0 56 -35 95t-118 63l-144 37q-39 -58 -39 -119z" />
<glyph unicode="&#xa8;" horiz-adv-x="1024" d="M80 1350q0 84 55 137t139 53t137.5 -53t53.5 -137q0 -85 -54 -140t-137 -55q-84 0 -139 55.5t-55 139.5zM557 1350q0 84 54.5 137t138.5 53q85 0 138.5 -52.5t53.5 -137.5t-54 -140t-138 -55q-83 0 -138 55t-55 140z" />
<glyph unicode="&#xa9;" horiz-adv-x="1740" d="M90 748q0 217 103.5 395t282 278.5t392.5 100.5q166 0 312 -60t249 -163t162.5 -246.5t59.5 -304.5q0 -162 -60 -307t-162.5 -248t-244.5 -163.5t-299 -60.5q-230 0 -412 100t-282.5 277.5t-100.5 401.5zM305 748q0 -254 163 -414t419 -160q148 0 273.5 74.5t199.5 206.5 t74 293q0 160 -72.5 290t-202.5 204.5t-291 74.5q-154 0 -283 -73.5t-204.5 -204.5t-75.5 -291zM463 748q0 187 127.5 308.5t324.5 121.5q81 0 195 -27v-238q-87 41 -195 41q-97 0 -159 -55.5t-62 -150.5q0 -96 63 -150.5t165 -54.5q97 0 194 43v-238q-105 -31 -201 -31 q-198 0 -325 121t-127 310z" />
<glyph unicode="&#xaa;" horiz-adv-x="776" d="M59 621q0 165 205 215q45 11 164 24q0 84 -113 84q-102 0 -229 -55v229q128 56 264 56q162 0 248 -79t86 -235v-201l57 -204l-254 -27l-30 137q-26 -65 -76.5 -101t-112.5 -36q-98 0 -153.5 54t-55.5 139zM285 666q0 -25 17 -41.5t44 -16.5q53 0 82 56v98 q-69 -6 -106 -32t-37 -64z" />
<glyph unicode="&#xab;" d="M20 492l314 501h350l-307 -501l307 -492h-350zM557 492l313 501h351l-306 -501l306 -492h-351z" />
<glyph unicode="&#xac;" d="M125 850v289h993v-787h-289v498h-704z" />
<glyph unicode="&#xad;" horiz-adv-x="620" d="M49 336v323h522v-323h-522z" />
<glyph unicode="&#xae;" horiz-adv-x="1740" d="M90 748q0 217 103.5 395t282 278.5t392.5 100.5q166 0 312 -60t249 -163t162.5 -246.5t59.5 -304.5q0 -162 -60 -307t-162.5 -248t-244.5 -163.5t-299 -60.5q-230 0 -412 100t-282.5 277.5t-100.5 401.5zM305 748q0 -254 163 -414t419 -160q148 0 273.5 74.5t199.5 206.5 t74 293q0 160 -72.5 290t-202.5 204.5t-291 74.5q-154 0 -283 -73.5t-204.5 -204.5t-75.5 -291zM547 340v825h342q140 0 216.5 -72t76.5 -192q0 -165 -154 -225l223 -336h-272l-170 291h-43v-291h-219zM766 803h102q41 0 63.5 21.5t22.5 58.5q0 38 -23.5 63t-60.5 25h-104 v-168z" />
<glyph unicode="&#xaf;" horiz-adv-x="1024" d="M180 1206v303h664v-303h-664z" />
<glyph unicode="&#xb0;" horiz-adv-x="1071" d="M119 1104q0 181 118 299.5t298 118.5q181 0 299 -118t118 -300q0 -180 -118 -298t-299 -118q-180 0 -298 118t-118 298zM365 1104q0 -70 49.5 -120t120.5 -50t119 49.5t48 120.5q0 72 -47.5 120t-119.5 48q-71 0 -120.5 -48.5t-49.5 -119.5z" />
<glyph unicode="&#xb1;" d="M125 139v289h352v283h-352v288h352v353h289v-353h352v-288h-352v-283h352v-289h-993z" />
<glyph unicode="&#xb2;" horiz-adv-x="909" d="M59 496l289 403q104 144 133 198.5t29 106.5q0 44 -34 72.5t-93 28.5q-64 0 -121 -19t-137 -61v262q116 72 278 72q178 0 275.5 -96t97.5 -249q0 -90 -48 -168t-157 -194l-88 -92h328v-264h-752z" />
<glyph unicode="&#xb3;" horiz-adv-x="882" d="M102 526v267q139 -68 275 -68q70 0 104.5 26.5t34.5 69.5q0 46 -36.5 71.5t-106.5 25.5h-131v212h114q121 0 121 84q0 44 -33 68.5t-96 24.5q-110 0 -239 -58v254q115 56 260 56q168 0 271 -84t103 -222q0 -142 -149 -215q184 -74 184 -264q0 -137 -100.5 -217 t-282.5 -80q-168 0 -293 49z" />
<glyph unicode="&#xb4;" horiz-adv-x="1024" d="M209 1130l231 410h375l-326 -410h-280z" />
<glyph unicode="&#xb5;" horiz-adv-x="1196" d="M125 -498v1491h324v-565q0 -139 122 -139q98 0 177 76v628h323v-665l21 -328h-322l-8 201q-125 -232 -307 -232q-41 0 -68 6l62 -473h-324z" />
<glyph unicode="&#xb6;" horiz-adv-x="1581" d="M90 1001q0 104 36.5 192.5t108 155t185 104.5t258.5 38h743v-1989h-288v1708h-179v-1708h-288v1002q-133 0 -237 29t-181 88t-117.5 155t-40.5 225z" />
<glyph unicode="&#xb7;" horiz-adv-x="620" d="M96 489q0 91 61.5 152t153.5 61q91 0 152 -61t61 -152q0 -92 -61 -153.5t-152 -61.5q-92 0 -153.5 61.5t-61.5 153.5z" />
<glyph unicode="&#xb8;" horiz-adv-x="1024" d="M295 -313q61 -17 119 -17q41 0 61.5 14t20.5 37q0 29 -35.5 49t-114.5 23l41 297h133l-18 -184q114 -9 170.5 -60.5t56.5 -134.5q0 -98 -70.5 -153.5t-201.5 -55.5q-82 0 -162 17v168z" />
<glyph unicode="&#xb9;" horiz-adv-x="696" d="M82 1147v190l264 203h221v-1044h-266v737z" />
<glyph unicode="&#xba;" horiz-adv-x="872" d="M57 799q0 164 103 269.5t282 105.5q173 0 273 -107t100 -264q0 -163 -104.5 -269t-282.5 -106q-115 0 -201 52t-128 135.5t-42 183.5zM313 805q0 -60 36.5 -98.5t92.5 -38.5q52 0 84.5 34.5t32.5 92.5q0 59 -37 98t-92 39q-52 0 -84.5 -33.5t-32.5 -93.5z" />
<glyph unicode="&#xbb;" d="M23 0l305 492l-305 501h350l313 -501l-313 -492h-350zM559 0l305 492l-305 501h350l314 -501l-314 -492h-350z" />
<glyph unicode="&#xbc;" horiz-adv-x="2215" d="M82 1098v190l264 203h221v-1045h-266v738zM592 0l649 1491h289l-649 -1491h-289zM1292 184l502 858h272v-643h84v-215h-84v-184h-262v184h-512zM1614 399h190v332z" />
<glyph unicode="&#xbd;" horiz-adv-x="2334" d="M82 1098v190l264 203h221v-1045h-266v738zM592 0l649 1491h289l-649 -1491h-289zM1485 0l289 403q103 142 132 197.5t29 108.5q0 44 -34 72t-93 28q-64 0 -121 -19t-137 -61v262q116 72 279 72q178 0 275.5 -95.5t97.5 -248.5q0 -90 -48 -169t-157 -194l-88 -92h327v-264 h-751z" />
<glyph unicode="&#xbe;" horiz-adv-x="2402" d="M102 477v266q137 -67 275 -67q70 0 104.5 26.5t34.5 69.5q0 46 -36.5 71t-106.5 25h-131v213h114q121 0 121 84q0 44 -33 68t-96 24q-113 0 -239 -57v254q113 55 260 55q168 0 271 -83.5t103 -221.5q0 -142 -149 -215q184 -74 184 -264q0 -137 -100.5 -217t-282.5 -80 q-168 0 -293 49zM778 0l649 1491h289l-649 -1491h-289zM1479 184l501 858h273v-643h84v-215h-84v-184h-262v184h-512zM1800 399h191v332z" />
<glyph unicode="&#xbf;" horiz-adv-x="839" d="M59 367q0 103 34 184t124 174l64 68q46 46 79 90.5t45.5 65.5t34.5 63q56 -20 99 -77.5t43 -127.5q0 -90 -74 -178l-51 -60q-44 -50 -59 -83t-15 -70q0 -58 45 -95.5t121 -37.5q91 0 217 45v-305q-124 -54 -283 -54q-194 0 -309 111.5t-115 286.5zM246 1307 q0 92 61.5 153.5t153.5 61.5q91 0 152 -61.5t61 -153.5q0 -91 -61 -152t-152 -61q-92 0 -153.5 61t-61.5 152z" />
<glyph unicode="&#xc0;" horiz-adv-x="1456" d="M10 0l514 1491h414l508 -1491h-385l-68 225h-538l-64 -225h-381zM348 1948h379l227 -334h-290zM543 528h364l-184 547z" />
<glyph unicode="&#xc1;" horiz-adv-x="1456" d="M10 0l514 1491h414l508 -1491h-385l-68 225h-538l-64 -225h-381zM498 1614l225 334h381l-316 -334h-290zM543 528h364l-184 547z" />
<glyph unicode="&#xc2;" horiz-adv-x="1456" d="M10 0l514 1491h414l508 -1491h-385l-68 225h-538l-64 -225h-381zM311 1614l256 334h318l256 -334h-264l-150 96l-152 -96h-264zM543 528h364l-184 547z" />
<glyph unicode="&#xc3;" horiz-adv-x="1456" d="M10 0l514 1491h414l508 -1491h-385l-68 225h-538l-64 -225h-381zM391 1628v299q82 47 174 47q79 0 180 -39q72 -28 152 -28q75 0 158 51v-297q-76 -47 -174 -47q-75 0 -179 37q-72 28 -151 28q-77 0 -160 -51zM543 528h364l-184 547z" />
<glyph unicode="&#xc4;" horiz-adv-x="1456" d="M10 0l514 1491h414l508 -1491h-385l-68 225h-538l-64 -225h-381zM295 1806q0 84 55 138.5t139 54.5q83 0 137 -54t54 -139q0 -83 -54 -137.5t-137 -54.5t-138.5 54.5t-55.5 137.5zM543 528h364l-184 547zM772 1806q0 84 54.5 138.5t138.5 54.5q85 0 138.5 -54t53.5 -139 q0 -84 -54 -138t-138 -54q-83 0 -138 54.5t-55 137.5z" />
<glyph unicode="&#xc5;" horiz-adv-x="1456" d="M10 0l510 1479q-94 88 -94 223q0 129 85.5 215t213.5 86q129 0 215 -86t86 -215q0 -130 -88 -215l508 -1487h-385l-68 225h-538l-64 -225h-381zM547 539h356l-180 536zM627 1702q0 -43 27.5 -70.5t70.5 -27.5q42 0 70 28t28 70q0 41 -28.5 69.5t-69.5 28.5q-42 0 -70 -28 t-28 -70z" />
<glyph unicode="&#xc6;" horiz-adv-x="1988" d="M10 0l754 1491h1114v-313h-551v-263h502v-313h-502v-289h578v-313h-926v225h-465l-111 -225h-393zM664 530h315v650z" />
<glyph unicode="&#xc7;" horiz-adv-x="1306" d="M84 745q0 164 61.5 308t169.5 247t261 162.5t329 59.5t332 -43v-375q-168 67 -332 67q-201 0 -327.5 -114.5t-126.5 -311.5t128.5 -310t338.5 -113q164 0 329 69v-377q-133 -39 -315 -45l-4 -55q112 -12 169.5 -66.5t57.5 -136.5q0 -98 -70.5 -153.5t-201.5 -55.5 q-82 0 -162 17v168q61 -17 119 -17q41 0 61.5 14t20.5 37q0 29 -35.5 49t-114.5 23l27 182q-319 31 -517 243.5t-198 526.5z" />
<glyph unicode="&#xc8;" horiz-adv-x="1159" d="M150 0v1491h899v-313h-551v-263h501v-313h-501v-289h575v-313h-923zM221 1948h379l227 -334h-290z" />
<glyph unicode="&#xc9;" horiz-adv-x="1159" d="M150 0v1491h899v-313h-551v-263h501v-313h-501v-289h575v-313h-923zM371 1614l225 334h381l-315 -334h-291z" />
<glyph unicode="&#xca;" horiz-adv-x="1159" d="M150 0v1491h899v-313h-551v-263h501v-313h-501v-289h575v-313h-923zM188 1614l256 334h318l256 -334h-264l-150 96l-151 -96h-265z" />
<glyph unicode="&#xcb;" horiz-adv-x="1159" d="M150 0v1491h899v-313h-551v-263h501v-313h-501v-289h575v-313h-923zM172 1806q0 84 55.5 138.5t139.5 54.5q83 0 136.5 -54t53.5 -139q0 -83 -53.5 -137.5t-136.5 -54.5q-84 0 -139.5 54.5t-55.5 137.5zM649 1806q0 84 54.5 138.5t138.5 54.5q85 0 138.5 -54t53.5 -139 q0 -84 -54 -138t-138 -54q-83 0 -138 54.5t-55 137.5z" />
<glyph unicode="&#xcc;" horiz-adv-x="647" d="M-51 1948h379l227 -334h-291zM150 0v1491h348v-1491h-348z" />
<glyph unicode="&#xcd;" horiz-adv-x="647" d="M98 1614l226 334h381l-316 -334h-291zM150 0v1491h348v-1491h-348z" />
<glyph unicode="&#xce;" horiz-adv-x="647" d="M-90 1614l256 334h317l256 -334h-264l-149 96l-152 -96h-264zM150 0v1491h348v-1491h-348z" />
<glyph unicode="&#xcf;" horiz-adv-x="647" d="M-111 1806q0 84 55.5 138.5t139.5 54.5q83 0 136.5 -54t53.5 -139q0 -83 -53.5 -137.5t-136.5 -54.5q-84 0 -139.5 54.5t-55.5 137.5zM150 0v1491h348v-1491h-348zM367 1806q0 84 54.5 138.5t137.5 54.5q85 0 139 -54t54 -139q0 -84 -54 -138t-139 -54q-83 0 -137.5 54.5 t-54.5 137.5z" />
<glyph unicode="&#xd0;" horiz-adv-x="1607" d="M10 662v178h223v651h504q249 0 427.5 -91.5t269 -255t90.5 -384.5q0 -355 -206 -557.5t-589 -202.5h-496v662h-223zM582 313h125q217 0 331.5 114t114.5 325q0 204 -114 315t-328 111h-129v-338h333v-178h-333v-349z" />
<glyph unicode="&#xd1;" horiz-adv-x="1689" d="M150 0v1491h352l706 -932v932h332v-1491h-352l-707 928v-928h-331zM528 1628v299q82 47 174 47q80 0 181 -39q72 -28 151 -28q75 0 158 51v-297q-76 -47 -174 -47q-74 0 -178 37q-72 28 -152 28q-77 0 -160 -51z" />
<glyph unicode="&#xd2;" horiz-adv-x="1742" d="M84 748q0 225 103.5 402.5t283.5 274.5t403 97q225 0 403.5 -99t279 -275.5t100.5 -399.5q0 -169 -60.5 -315t-166 -247.5t-252 -159t-314.5 -57.5q-224 0 -402 99t-278 277t-100 403zM451 748q0 -189 119 -313t302 -124q180 0 300 119.5t120 312.5q0 191 -122 313 t-306 122q-178 0 -295.5 -118.5t-117.5 -311.5zM494 1948h378l228 -334h-291z" />
<glyph unicode="&#xd3;" horiz-adv-x="1742" d="M84 748q0 225 103.5 402.5t283.5 274.5t403 97q225 0 403.5 -99t279 -275.5t100.5 -399.5q0 -169 -60.5 -315t-166 -247.5t-252 -159t-314.5 -57.5q-224 0 -402 99t-278 277t-100 403zM451 748q0 -189 119 -313t302 -124q180 0 300 119.5t120 312.5q0 191 -122 313 t-306 122q-178 0 -295.5 -118.5t-117.5 -311.5zM641 1614l225 334h381l-315 -334h-291z" />
<glyph unicode="&#xd4;" horiz-adv-x="1742" d="M84 748q0 225 103.5 402.5t283.5 274.5t403 97q225 0 403.5 -99t279 -275.5t100.5 -399.5q0 -169 -60.5 -315t-166 -247.5t-252 -159t-314.5 -57.5q-224 0 -402 99t-278 277t-100 403zM451 748q0 -189 119 -313t302 -124q180 0 300 119.5t120 312.5q0 191 -122 313 t-306 122q-178 0 -295.5 -118.5t-117.5 -311.5zM455 1614l256 334h317l256 -334h-264l-150 96l-151 -96h-264z" />
<glyph unicode="&#xd5;" horiz-adv-x="1742" d="M84 748q0 225 103.5 402.5t283.5 274.5t403 97q225 0 403.5 -99t279 -275.5t100.5 -399.5q0 -169 -60.5 -315t-166 -247.5t-252 -159t-314.5 -57.5q-224 0 -402 99t-278 277t-100 403zM451 748q0 -189 119 -313t302 -124q180 0 300 119.5t120 312.5q0 191 -122 313 t-306 122q-178 0 -295.5 -118.5t-117.5 -311.5zM539 1628v299q82 47 174 47q79 0 180 -39q72 -28 151 -28q75 0 158 51v-297q-76 -47 -174 -47q-74 0 -178 37q-72 28 -152 28q-76 0 -159 -51z" />
<glyph unicode="&#xd6;" horiz-adv-x="1742" d="M84 748q0 225 103.5 402.5t283.5 274.5t403 97q225 0 403.5 -99t279 -275.5t100.5 -399.5q0 -169 -60.5 -315t-166 -247.5t-252 -159t-314.5 -57.5q-224 0 -402 99t-278 277t-100 403zM440 1806q0 84 55.5 138.5t139.5 54.5q83 0 136.5 -54t53.5 -139q0 -83 -53.5 -137.5 t-136.5 -54.5q-84 0 -139.5 54.5t-55.5 137.5zM451 748q0 -189 119 -313t302 -124q180 0 300 119.5t120 312.5q0 191 -122 313t-306 122q-178 0 -295.5 -118.5t-117.5 -311.5zM918 1806q0 84 54 138.5t138 54.5q85 0 139 -54t54 -139q0 -84 -54.5 -138t-138.5 -54 q-83 0 -137.5 54.5t-54.5 137.5z" />
<glyph unicode="&#xd7;" d="M170 498l248 247l-248 248l203 205l248 -248l249 248l203 -205l-248 -248l248 -247l-203 -205l-249 250l-248 -250z" />
<glyph unicode="&#xd8;" horiz-adv-x="1742" d="M-8 0l254 254q-162 201 -162 494q0 225 103.5 402.5t283.5 274.5t403 97q281 0 486 -156l125 125h252l-248 -248q168 -211 168 -495q0 -169 -60.5 -315t-166 -247.5t-252 -159t-314.5 -57.5q-284 0 -491 158l-127 -127h-254zM451 748q0 -135 57 -234l596 596 q-108 68 -240 68q-178 0 -295.5 -118.5t-117.5 -311.5zM629 383q104 -72 243 -72q180 0 300 119.5t120 312.5q0 131 -63 238z" />
<glyph unicode="&#xd9;" horiz-adv-x="1497" d="M139 573v918h350v-901q0 -126 68.5 -201.5t198.5 -75.5q132 0 200 74.5t68 198.5v905h334v-918q0 -133 -37.5 -242.5t-111.5 -190.5t-191.5 -126t-269.5 -45q-151 0 -268.5 45t-191 126t-111.5 190.5t-38 242.5zM381 1948h379l227 -334h-291z" />
<glyph unicode="&#xda;" horiz-adv-x="1497" d="M139 573v918h350v-901q0 -126 68.5 -201.5t198.5 -75.5q132 0 200 74.5t68 198.5v905h334v-918q0 -133 -37.5 -242.5t-111.5 -190.5t-191.5 -126t-269.5 -45q-151 0 -268.5 45t-191 126t-111.5 190.5t-38 242.5zM530 1614l226 334h381l-316 -334h-291z" />
<glyph unicode="&#xdb;" horiz-adv-x="1497" d="M139 573v918h350v-901q0 -126 68.5 -201.5t198.5 -75.5q132 0 200 74.5t68 198.5v905h334v-918q0 -133 -37.5 -242.5t-111.5 -190.5t-191.5 -126t-269.5 -45q-151 0 -268.5 45t-191 126t-111.5 190.5t-38 242.5zM342 1614l256 334h317l256 -334h-264l-149 96l-152 -96 h-264z" />
<glyph unicode="&#xdc;" horiz-adv-x="1497" d="M139 573v918h350v-901q0 -126 68.5 -201.5t198.5 -75.5q132 0 200 74.5t68 198.5v905h334v-918q0 -133 -37.5 -242.5t-111.5 -190.5t-191.5 -126t-269.5 -45q-151 0 -268.5 45t-191 126t-111.5 190.5t-38 242.5zM326 1806q0 84 55 138.5t139 54.5q83 0 137 -54t54 -139 q0 -83 -54 -137.5t-137 -54.5t-138.5 54.5t-55.5 137.5zM803 1806q0 84 54.5 138.5t137.5 54.5q85 0 139 -54t54 -139q0 -84 -54 -138t-139 -54q-83 0 -137.5 54.5t-54.5 137.5z" />
<glyph unicode="&#xdd;" horiz-adv-x="1337" d="M0 1491h406l155 -313l113 -209l110 209l162 313h391l-497 -887v-604h-348v612zM449 1614l225 334h381l-316 -334h-290z" />
<glyph unicode="&#xde;" horiz-adv-x="1382" d="M150 0v1491h348v-258h221q267 0 415 -132t148 -353q0 -241 -142 -368.5t-433 -127.5h-209v-252h-348zM498 563h202q211 0 211 182q0 81 -53.5 128t-150.5 47h-209v-357z" />
<glyph unicode="&#xdf;" horiz-adv-x="1251" d="M12 721v197l138 75v11q0 111 35 207.5t100 170t167.5 116t229.5 42.5q104 0 192 -32t145 -85t88.5 -120.5t31.5 -139.5q0 -96 -41 -159.5t-119 -124.5q-51 -37 -51 -78q0 -22 10 -39.5t39 -46.5l82 -86q151 -156 151 -322q0 -164 -91.5 -251t-276.5 -87q-111 0 -221 35 v307q90 -39 163 -39q48 0 72.5 20t24.5 54q0 50 -70 117l-53 51q-76 76 -103.5 131t-27.5 125q0 106 102 197q26 26 39 41t23 38t10 48q0 51 -36 84.5t-97 33.5q-93 0 -144 -61t-51 -166v-985h-323v721h-138z" />
<glyph unicode="&#xe0;" horiz-adv-x="1050" d="M66 229q0 115 63.5 191.5t208.5 111.5q108 26 270 39v15q0 68 -39.5 101.5t-132.5 33.5q-156 0 -340 -78v311q160 70 371 70q227 0 346 -109t119 -329v-307l78 -271l-340 -39l-35 187q-51 -99 -121 -143t-172 -44q-124 0 -200 73t-76 187zM135 1540h375l231 -410h-280z M381 285q0 -41 26 -68t66 -27q88 0 135 105v151q-84 -7 -135 -30q-92 -44 -92 -131z" />
<glyph unicode="&#xe1;" horiz-adv-x="1050" d="M66 229q0 115 63.5 191.5t208.5 111.5q108 26 270 39v15q0 68 -39.5 101.5t-132.5 33.5q-156 0 -340 -78v311q160 70 371 70q227 0 346 -109t119 -329v-307l78 -271l-340 -39l-35 187q-51 -99 -121 -143t-172 -44q-124 0 -200 73t-76 187zM285 1130l231 410h375 l-326 -410h-280zM381 285q0 -41 26 -68t66 -27q88 0 135 105v151q-84 -7 -135 -30q-92 -44 -92 -131z" />
<glyph unicode="&#xe2;" horiz-adv-x="1050" d="M66 229q0 115 63.5 191.5t208.5 111.5q108 26 270 39v15q0 68 -39.5 101.5t-132.5 33.5q-156 0 -340 -78v311q160 70 371 70q227 0 346 -109t119 -329v-307l78 -271l-340 -39l-35 187q-51 -99 -121 -143t-172 -44q-124 0 -200 73t-76 187zM113 1130l231 410h318l231 -410 h-254l-135 158l-137 -158h-254zM381 285q0 -41 26 -68t66 -27q88 0 135 105v151q-84 -7 -135 -30q-92 -44 -92 -131z" />
<glyph unicode="&#xe3;" horiz-adv-x="1050" d="M66 229q0 115 63.5 191.5t208.5 111.5q108 26 270 39v15q0 68 -39.5 101.5t-132.5 33.5q-156 0 -340 -78v311q160 70 371 70q227 0 346 -109t119 -329v-307l78 -271l-340 -39l-35 187q-51 -99 -121 -143t-172 -44q-124 0 -200 73t-76 187zM178 1196v297q76 47 174 47 q76 0 180 -37q72 -28 152 -28q75 0 158 51v-297q-79 -49 -174 -49q-70 0 -179 39q-72 28 -151 28q-77 0 -160 -51zM381 285q0 -41 26 -68t66 -27q88 0 135 105v151q-84 -7 -135 -30q-92 -44 -92 -131z" />
<glyph unicode="&#xe4;" horiz-adv-x="1050" d="M66 229q0 115 63.5 191.5t208.5 111.5q108 26 270 39v15q0 68 -39.5 101.5t-132.5 33.5q-156 0 -340 -78v311q160 70 371 70q227 0 346 -109t119 -329v-307l78 -271l-340 -39l-35 187q-51 -99 -121 -143t-172 -44q-124 0 -200 73t-76 187zM80 1350q0 84 55 137t139 53 t137.5 -53t53.5 -137q0 -85 -54 -140t-137 -55q-84 0 -139 55.5t-55 139.5zM381 285q0 -41 26 -68t66 -27q88 0 135 105v151q-84 -7 -135 -30q-92 -44 -92 -131zM557 1350q0 84 54.5 137t138.5 53q85 0 138.5 -52.5t53.5 -137.5t-54 -140t-138 -55q-83 0 -138 55t-55 140z " />
<glyph unicode="&#xe5;" horiz-adv-x="1050" d="M66 229q0 115 63.5 191.5t208.5 111.5q108 26 270 39v15q0 68 -39.5 101.5t-132.5 33.5q-156 0 -340 -78v311q160 70 371 70q227 0 346 -109t119 -329v-307l78 -271l-340 -39l-35 187q-51 -99 -121 -143t-172 -44q-124 0 -200 73t-76 187zM211 1405q0 128 86 214.5 t215 86.5q128 0 214.5 -87t86.5 -214q0 -129 -86.5 -215t-214.5 -86q-129 0 -215 86t-86 215zM381 285q0 -41 26 -68t66 -27q88 0 135 105v151q-84 -7 -135 -30q-92 -44 -92 -131zM412 1405q0 -43 28.5 -71.5t71.5 -28.5q40 0 68 29t28 71q0 40 -28 68t-68 28q-42 0 -71 -28 t-29 -68z" />
<glyph unicode="&#xe6;" horiz-adv-x="1675" d="M66 229q0 235 272 303q83 21 270 39v15q0 68 -39.5 101.5t-132.5 33.5q-156 0 -340 -78v311q160 70 371 70q226 0 344 -106q134 106 328 106q217 0 346 -127.5t129 -333.5v-133h-692q47 -158 284 -158q150 0 344 68v-317q-160 -54 -350 -54q-158 0 -288 52t-205 155 q-53 -96 -141.5 -151.5t-194.5 -55.5q-144 0 -224.5 72t-80.5 188zM381 289q0 -44 28.5 -71.5t73.5 -27.5q103 0 156 105q-21 84 -27 151q-81 -6 -139 -30q-92 -39 -92 -127zM924 586h385q0 73 -47 120.5t-132 47.5q-88 0 -138.5 -47t-67.5 -121z" />
<glyph unicode="&#xe7;" horiz-adv-x="905" d="M59 492q0 235 157.5 383.5t422.5 148.5q124 0 203 -16v-336q-92 39 -205 39q-117 0 -183.5 -57.5t-66.5 -155.5q0 -90 73 -152.5t195 -62.5q103 0 195 28v-319q-112 -23 -217 -23h-27l-4 -61q113 -9 170 -61.5t57 -135.5q0 -98 -70.5 -153.5t-201.5 -55.5q-82 0 -162 17 v168q61 -17 119 -17q41 0 61.5 14t20.5 37q0 67 -150 72l27 195q-194 38 -304 173.5t-110 330.5z" />
<glyph unicode="&#xe8;" horiz-adv-x="1124" d="M59 492q0 231 149 381.5t374 150.5q221 0 350 -127t129 -334v-133h-690q44 -158 282 -158q159 0 346 68v-317q-164 -54 -350 -54q-282 0 -436 143t-154 380zM209 1540h375l231 -410h-280zM373 586h385q0 74 -46.5 121t-131.5 47q-88 0 -139.5 -47t-67.5 -121z" />
<glyph unicode="&#xe9;" horiz-adv-x="1124" d="M59 492q0 231 149 381.5t374 150.5q221 0 350 -127t129 -334v-133h-690q44 -158 282 -158q159 0 346 68v-317q-164 -54 -350 -54q-282 0 -436 143t-154 380zM358 1130l232 410h375l-326 -410h-281zM373 586h385q0 74 -46.5 121t-131.5 47q-88 0 -139.5 -47t-67.5 -121z " />
<glyph unicode="&#xea;" horiz-adv-x="1124" d="M59 492q0 231 149 381.5t374 150.5q221 0 350 -127t129 -334v-133h-690q44 -158 282 -158q159 0 346 68v-317q-164 -54 -350 -54q-282 0 -436 143t-154 380zM199 1130l231 410h318l231 -410h-254l-135 158l-137 -158h-254zM373 586h385q0 74 -46.5 121t-131.5 47 q-88 0 -139.5 -47t-67.5 -121z" />
<glyph unicode="&#xeb;" horiz-adv-x="1124" d="M59 492q0 231 149 381.5t374 150.5q221 0 350 -127t129 -334v-133h-690q44 -158 282 -158q159 0 346 68v-317q-164 -54 -350 -54q-282 0 -436 143t-154 380zM158 1350q0 84 55 137t139 53t137.5 -53t53.5 -137q0 -85 -54 -140t-137 -55q-84 0 -139 55.5t-55 139.5z M373 586h385q0 74 -46.5 121t-131.5 47q-88 0 -139.5 -47t-67.5 -121zM635 1350q0 84 54 137t138 53q85 0 139 -53t54 -137q0 -85 -54 -140t-139 -55q-83 0 -137.5 55t-54.5 140z" />
<glyph unicode="&#xec;" horiz-adv-x="571" d="M-92 1540h375l231 -410h-281zM125 0v993h321v-993h-321z" />
<glyph unicode="&#xed;" horiz-adv-x="571" d="M57 1130l232 410h375l-326 -410h-281zM125 0v993h321v-993h-321z" />
<glyph unicode="&#xee;" horiz-adv-x="571" d="M-104 1130l231 410h317l232 -410h-254l-135 158l-137 -158h-254zM125 0v993h321v-993h-321z" />
<glyph unicode="&#xef;" horiz-adv-x="571" d="M-111 1350q0 85 49.5 137.5t129.5 52.5q79 0 126.5 -52.5t47.5 -137.5q0 -86 -47.5 -140.5t-126.5 -54.5t-129 55t-50 140zM125 0v993h321v-993h-321zM334 1350q0 85 48.5 137.5t127.5 52.5q81 0 128.5 -52t47.5 -138t-47.5 -140.5t-128.5 -54.5q-79 0 -127.5 54.5 t-48.5 140.5z" />
<glyph unicode="&#xf0;" horiz-adv-x="1218" d="M59 492q0 229 140 369t348 140q93 0 170 -24q-45 94 -111 178l-397 -31l22 183l224 20q-77 77 -250 213h493q77 -74 152 -178l289 27l-25 -183l-151 -16q180 -316 180 -612q0 -295 -142.5 -452t-404.5 -157q-123 0 -226 43t-170 115.5t-104 167t-37 197.5zM383 498 q0 -96 63 -161t158 -65q90 0 143.5 64.5t53.5 183.5q0 53 -8 94q-51 47 -98 70t-113 23q-87 0 -143 -59t-56 -150z" />
<glyph unicode="&#xf1;" horiz-adv-x="1196" d="M119 989l323 10v-198q132 223 324 223q146 0 230.5 -107t84.5 -299v-618h-323v567q0 65 -36.5 102.5t-98.5 37.5q-93 0 -177 -78v-629h-321v686zM262 1196v297q76 47 174 47q76 0 180 -37q72 -28 152 -28q75 0 158 51v-297q-79 -49 -174 -49q-70 0 -179 39 q-72 28 -151 28q-77 0 -160 -51z" />
<glyph unicode="&#xf2;" horiz-adv-x="1187" d="M59 492q0 231 147 381.5t398 150.5q123 0 223.5 -42t165.5 -114t100 -166.5t35 -201.5q0 -231 -146.5 -381t-397.5 -150q-122 0 -223 43t-166 116t-100.5 166.5t-35.5 197.5zM213 1540h375l231 -410h-280zM383 504q0 -100 63 -166t158 -66q90 0 145.5 58t55.5 159 t-62.5 166.5t-156.5 65.5q-90 0 -146.5 -58t-56.5 -159z" />
<glyph unicode="&#xf3;" horiz-adv-x="1187" d="M59 492q0 231 147 381.5t398 150.5q123 0 223.5 -42t165.5 -114t100 -166.5t35 -201.5q0 -231 -146.5 -381t-397.5 -150q-122 0 -223 43t-166 116t-100.5 166.5t-35.5 197.5zM360 1130l232 410h375l-326 -410h-281zM383 504q0 -100 63 -166t158 -66q90 0 145.5 58 t55.5 159t-62.5 166.5t-156.5 65.5q-90 0 -146.5 -58t-56.5 -159z" />
<glyph unicode="&#xf4;" horiz-adv-x="1187" d="M59 492q0 231 147 381.5t398 150.5q123 0 223.5 -42t165.5 -114t100 -166.5t35 -201.5q0 -231 -146.5 -381t-397.5 -150q-122 0 -223 43t-166 116t-100.5 166.5t-35.5 197.5zM199 1130l231 410h318l231 -410h-254l-135 158l-137 -158h-254zM383 504q0 -100 63 -166 t158 -66q90 0 145.5 58t55.5 159t-62.5 166.5t-156.5 65.5q-90 0 -146.5 -58t-56.5 -159z" />
<glyph unicode="&#xf5;" horiz-adv-x="1187" d="M59 492q0 231 147 381.5t398 150.5q123 0 223.5 -42t165.5 -114t100 -166.5t35 -201.5q0 -231 -146.5 -381t-397.5 -150q-122 0 -223 43t-166 116t-100.5 166.5t-35.5 197.5zM256 1196v297q76 47 174 47q76 0 180 -37q72 -28 152 -28q75 0 158 51v-297q-79 -49 -175 -49 q-69 0 -178 39q-72 28 -151 28q-77 0 -160 -51zM383 504q0 -100 63 -166t158 -66q90 0 145.5 58t55.5 159t-62.5 166.5t-156.5 65.5q-90 0 -146.5 -58t-56.5 -159z" />
<glyph unicode="&#xf6;" horiz-adv-x="1187" d="M59 492q0 231 147 381.5t398 150.5q123 0 223.5 -42t165.5 -114t100 -166.5t35 -201.5q0 -231 -146.5 -381t-397.5 -150q-122 0 -223 43t-166 116t-100.5 166.5t-35.5 197.5zM158 1350q0 84 55 137t139 53t137.5 -53t53.5 -137q0 -85 -54 -140t-137 -55q-84 0 -139 55.5 t-55 139.5zM383 504q0 -100 63 -166t158 -66q90 0 145.5 58t55.5 159t-62.5 166.5t-156.5 65.5q-90 0 -146.5 -58t-56.5 -159zM635 1350q0 84 54 137t138 53q85 0 139 -53t54 -137q0 -85 -54 -140t-139 -55q-83 0 -137.5 55t-54.5 140z" />
<glyph unicode="&#xf7;" d="M125 602v287h993v-287h-993zM426 317q0 84 55.5 138.5t139.5 54.5q83 0 136.5 -54t53.5 -139q0 -83 -53.5 -137.5t-136.5 -54.5q-84 0 -139.5 54.5t-55.5 137.5zM426 1176q0 84 55.5 137t139.5 53t137 -53t53 -137q0 -85 -53.5 -140t-136.5 -55q-84 0 -139.5 55.5 t-55.5 139.5z" />
<glyph unicode="&#xf8;" horiz-adv-x="1247" d="M0 0l182 182q-92 133 -92 310q0 151 63.5 270.5t188 190.5t291.5 71q175 0 305 -86l55 55h254l-180 -180q92 -140 92 -313q0 -230 -147.5 -380.5t-397.5 -150.5q-176 0 -307 86l-53 -55h-254zM393 504q0 -62 17 -109l317 318q-55 30 -111 30q-101 0 -162 -63t-61 -176z M516 279q54 -31 117 -31q100 0 161.5 64.5t61.5 176.5q0 52 -20 107z" />
<glyph unicode="&#xf9;" horiz-adv-x="1185" d="M115 342v651h323v-565q0 -139 123 -139q97 0 176 76v628h324v-665l20 -328h-321l-8 201q-125 -232 -318 -232q-152 0 -235.5 98.5t-83.5 274.5zM190 1540h375l232 -410h-281z" />
<glyph unicode="&#xfa;" horiz-adv-x="1185" d="M115 342v651h323v-565q0 -139 123 -139q97 0 176 76v628h324v-665l20 -328h-321l-8 201q-125 -232 -318 -232q-152 0 -235.5 98.5t-83.5 274.5zM365 1130l231 410h375l-326 -410h-280z" />
<glyph unicode="&#xfb;" horiz-adv-x="1185" d="M115 342v651h323v-565q0 -139 123 -139q97 0 176 76v628h324v-665l20 -328h-321l-8 201q-125 -232 -318 -232q-152 0 -235.5 98.5t-83.5 274.5zM201 1130l231 410h318l231 -410h-254l-135 158l-137 -158h-254z" />
<glyph unicode="&#xfc;" horiz-adv-x="1185" d="M115 342v651h323v-565q0 -139 123 -139q97 0 176 76v628h324v-665l20 -328h-321l-8 201q-125 -232 -318 -232q-152 0 -235.5 98.5t-83.5 274.5zM162 1350q0 84 55 137t139 53t137.5 -53t53.5 -137q0 -85 -54 -140t-137 -55q-84 0 -139 55.5t-55 139.5zM639 1350 q0 84 54 137t138 53q85 0 139 -53t54 -137q0 -85 -54 -140t-139 -55q-83 0 -137.5 55t-54.5 140z" />
<glyph unicode="&#xfd;" horiz-adv-x="1075" d="M0 993h352l97 -303l94 -287l90 283l96 307h346l-559 -1491h-377l217 490zM313 1130l232 410h375l-326 -410h-281z" />
<glyph unicode="&#xfe;" horiz-adv-x="1202" d="M125 -498v2038l328 10l-7 -557v-139q66 82 137.5 126t172.5 44q169 0 279 -138.5t110 -363.5q0 -174 -75.5 -301t-199 -189.5t-278.5 -62.5q-69 0 -146 15v-482h-321zM446 289q65 -21 134 -21q107 0 171 63t64 181q0 96 -53 152.5t-137 56.5q-101 0 -179 -59v-373z" />
<glyph unicode="&#xff;" horiz-adv-x="1075" d="M0 993h352l97 -303l94 -287l90 283l96 307h346l-559 -1491h-377l217 490zM111 1350q0 84 55 137t139 53t137.5 -53t53.5 -137q0 -85 -54 -140t-137 -55t-138.5 55.5t-55.5 139.5zM588 1350q0 84 54 137t138 53q85 0 139 -53t54 -137q0 -85 -54 -140t-139 -55 q-83 0 -137.5 55t-54.5 140z" />
<glyph unicode="&#x100;" horiz-adv-x="1456" d="M10 0l514 1491h414l508 -1491h-385l-68 225h-538l-64 -225h-381zM395 1630v303h664v-303h-664zM543 528h364l-184 547z" />
<glyph unicode="&#x101;" horiz-adv-x="1050" d="M66 229q0 115 63.5 191.5t208.5 111.5q108 26 270 39v15q0 68 -39.5 101.5t-132.5 33.5q-156 0 -340 -78v311q160 70 371 70q227 0 346 -109t119 -329v-307l78 -271l-340 -39l-35 187q-51 -99 -121 -143t-172 -44q-124 0 -200 73t-76 187zM180 1206v303h664v-303h-664z M381 285q0 -41 26 -68t66 -27q88 0 135 105v151q-84 -7 -135 -30q-92 -44 -92 -131z" />
<glyph unicode="&#x102;" horiz-adv-x="1456" d="M10 0l514 1491h414l508 -1491h-385l-68 225h-538l-64 -225h-381zM324 1982h241q39 -112 164 -112q127 0 166 112h240q-6 -184 -110.5 -289.5t-295.5 -105.5q-192 0 -297 106t-108 289zM543 528h364l-184 547z" />
<glyph unicode="&#x103;" horiz-adv-x="1050" d="M66 229q0 115 63.5 191.5t208.5 111.5q108 26 270 39v15q0 68 -39.5 101.5t-132.5 33.5q-156 0 -340 -78v311q160 70 371 70q227 0 346 -109t119 -329v-307l78 -271l-340 -39l-35 187q-51 -99 -121 -143t-172 -44q-124 0 -200 73t-76 187zM121 1540h235q8 -63 47 -102 t109 -39q68 0 107 39t47 102h235q-3 -190 -105.5 -300t-283.5 -110q-182 0 -285.5 110.5t-105.5 299.5zM381 285q0 -41 26 -68t66 -27q88 0 135 105v151q-84 -7 -135 -30q-92 -44 -92 -131z" />
<glyph unicode="&#x104;" horiz-adv-x="1456" d="M10 0l514 1491h414l508 -1491q-186 0 -275.5 -50.5t-89.5 -129.5q0 -53 31.5 -83t83.5 -30q36 0 80 12v-204q-93 -13 -127 -13q-145 0 -223 64.5t-78 169.5q0 87 53.5 149t159.5 115l-68 225h-538l-64 -225h-381zM543 530h362l-182 545z" />
<glyph unicode="&#x105;" horiz-adv-x="1040" d="M66 229q0 230 272 303q60 16 260 39v15q0 68 -39.5 101.5t-132.5 33.5q-146 0 -330 -78v311q160 70 361 70q227 0 346 -109t119 -329v-307l77 -271q-132 -19 -197 -71t-65 -119q0 -54 31 -82.5t84 -28.5q40 0 80 12v-204q-60 -13 -109 -13q-157 0 -238 64t-81 170 q0 140 155 233l-34 187q-50 -99 -118.5 -143t-164.5 -44q-124 0 -200 73t-76 187zM381 289q0 -44 24 -71.5t64 -27.5q82 0 129 105v151q-68 -8 -125 -30q-92 -38 -92 -127z" />
<glyph unicode="&#x106;" horiz-adv-x="1306" d="M84 745q0 164 61.5 308t169.5 247t261 162.5t329 59.5q183 0 332 -41v-377q-168 67 -332 67q-201 0 -327.5 -114.5t-126.5 -311.5t128.5 -310t338.5 -113q164 0 329 69v-377q-152 -45 -329 -45q-242 0 -432 98.5t-296 275.5t-106 402zM674 1614l225 334h381l-315 -334 h-291z" />
<glyph unicode="&#x107;" horiz-adv-x="905" d="M59 492q0 235 157.5 383.5t420.5 148.5q126 0 205 -16v-336q-92 39 -205 39q-117 0 -183.5 -57.5t-66.5 -155.5q0 -90 73 -152.5t195 -62.5q103 0 195 28v-319q-101 -23 -205 -23q-271 0 -428.5 144.5t-157.5 378.5zM381 1130l231 410h375l-325 -410h-281z" />
<glyph unicode="&#x108;" horiz-adv-x="1306" d="M84 745q0 164 61.5 308t169.5 247t261 162.5t329 59.5q183 0 332 -41v-377q-168 67 -332 67q-201 0 -327.5 -114.5t-126.5 -311.5t128.5 -310t338.5 -113q164 0 329 69v-377q-152 -45 -329 -45q-242 0 -432 98.5t-296 275.5t-106 402zM487 1614l256 334h318l256 -334 h-264l-150 96l-151 -96h-265z" />
<glyph unicode="&#x109;" horiz-adv-x="905" d="M59 492q0 235 157.5 383.5t420.5 148.5q126 0 205 -16v-336q-92 39 -205 39q-117 0 -183.5 -57.5t-66.5 -155.5q0 -90 73 -152.5t195 -62.5q103 0 195 28v-319q-101 -23 -205 -23q-271 0 -428.5 144.5t-157.5 378.5zM219 1130l232 410h317l231 -410h-254l-135 158 l-137 -158h-254z" />
<glyph unicode="&#x10a;" horiz-adv-x="1306" d="M84 745q0 164 61.5 308t169.5 247t261 162.5t329 59.5q183 0 332 -41v-377q-168 67 -332 67q-201 0 -327.5 -114.5t-126.5 -311.5t128.5 -310t338.5 -113q164 0 329 69v-377q-152 -45 -329 -45q-242 0 -432 98.5t-296 275.5t-106 402zM700 1815q0 86 58 143t145 57 q86 0 143.5 -57t57.5 -143t-57.5 -143.5t-143.5 -57.5t-144.5 57.5t-58.5 143.5z" />
<glyph unicode="&#x10b;" horiz-adv-x="905" d="M59 492q0 235 157.5 383.5t420.5 148.5q126 0 205 -16v-336q-92 39 -205 39q-117 0 -183.5 -57.5t-66.5 -155.5q0 -90 73 -152.5t195 -62.5q103 0 195 28v-319q-101 -23 -205 -23q-271 0 -428.5 144.5t-157.5 378.5zM408 1339q0 86 58 143.5t144 57.5t143.5 -57.5 t57.5 -143.5t-57.5 -143t-143.5 -57t-144 57t-58 143z" />
<glyph unicode="&#x10c;" horiz-adv-x="1306" d="M84 745q0 164 61.5 308t169.5 247t261 162.5t329 59.5q183 0 332 -41v-377q-168 67 -332 67q-201 0 -327.5 -114.5t-126.5 -311.5t128.5 -310t338.5 -113q164 0 329 69v-377q-152 -45 -329 -45q-242 0 -432 98.5t-296 275.5t-106 402zM487 1948h265l151 -97l150 97h264 l-256 -334h-318z" />
<glyph unicode="&#x10d;" horiz-adv-x="905" d="M59 492q0 235 157.5 383.5t420.5 148.5q126 0 205 -16v-336q-92 39 -205 39q-117 0 -183.5 -57.5t-66.5 -155.5q0 -90 73 -152.5t195 -62.5q103 0 195 28v-319q-101 -23 -205 -23q-271 0 -428.5 144.5t-157.5 378.5zM219 1540h254l137 -156l135 156h254l-231 -410h-317z " />
<glyph unicode="&#x10e;" horiz-adv-x="1523" d="M150 0v1491h503q249 0 427.5 -91.5t269 -255t90.5 -384.5q0 -356 -206 -558t-591 -202h-493zM231 1948h265l151 -97l150 97h264l-256 -334h-318zM498 313h123q217 0 332.5 114.5t115.5 324.5q0 203 -114.5 314.5t-327.5 111.5h-129v-865z" />
<glyph unicode="&#x10f;" horiz-adv-x="1615" d="M59 473q0 164 74 290t204 193.5t294 67.5q16 0 127 -6v522l327 10l-4 -557v-665l33 -328h-330l-12 174q-45 -95 -120.5 -150t-176.5 -55q-192 0 -304 136.5t-112 367.5zM391 485q0 -103 54 -161t147 -58q90 0 166 68v375q-58 12 -125 12q-105 0 -173.5 -63t-68.5 -173z M1190 1364q0 77 53 126.5t135 49.5q111 0 181.5 -75.5t70.5 -198.5q0 -81 -39 -151t-104 -114h-152q43 67 43 117q0 27 -15 46t-52 36q-65 28 -93 66t-28 98z" />
<glyph unicode="&#x110;" horiz-adv-x="1607" d="M10 662v178h223v651h504q249 0 427.5 -91.5t269 -255t90.5 -384.5q0 -355 -206 -557.5t-589 -202.5h-496v662h-223zM582 313h125q217 0 331.5 114t114.5 325q0 204 -114 315t-328 111h-129v-338h333v-178h-333v-349z" />
<glyph unicode="&#x111;" horiz-adv-x="1206" d="M59 473q0 164 74 290t204 193.5t294 67.5q16 0 127 -6v176h-432v178h432v168l327 10l-2 -178h222v-178h-224v-866l33 -328h-328l-14 174q-97 -205 -297 -205q-192 0 -304 136.5t-112 367.5zM391 485q0 -103 54 -161t147 -58q90 0 166 68v375q-58 12 -131 12 q-101 0 -168.5 -63t-67.5 -173z" />
<glyph unicode="&#x112;" horiz-adv-x="1159" d="M150 0v1491h899v-313h-551v-263h501v-313h-501v-289h575v-313h-923zM272 1630v303h664v-303h-664z" />
<glyph unicode="&#x113;" horiz-adv-x="1124" d="M59 492q0 231 149 381.5t374 150.5q221 0 350 -127t129 -334v-133h-690q44 -158 282 -158q159 0 346 68v-317q-164 -54 -350 -54q-282 0 -436 143t-154 380zM258 1206v303h664v-303h-664zM373 586h385q0 74 -46.5 121t-131.5 47q-88 0 -139.5 -47t-67.5 -121z" />
<glyph unicode="&#x114;" horiz-adv-x="1159" d="M150 0v1491h899v-313h-551v-263h501v-313h-501v-289h575v-313h-923zM199 1982h241q39 -112 164 -112q127 0 166 112h240q-6 -184 -110.5 -289.5t-295.5 -105.5q-192 0 -297 106t-108 289z" />
<glyph unicode="&#x115;" horiz-adv-x="1124" d="M59 492q0 231 149 381.5t374 150.5q221 0 350 -127t129 -334v-133h-690q44 -158 282 -158q159 0 346 68v-317q-164 -54 -350 -54q-282 0 -436 143t-154 380zM199 1540h235q8 -63 47 -102t109 -39q68 0 106.5 39t46.5 102h236q-3 -190 -105.5 -300t-283.5 -110 q-182 0 -285.5 110.5t-105.5 299.5zM373 586h385q0 74 -46.5 121t-131.5 47q-88 0 -139.5 -47t-67.5 -121z" />
<glyph unicode="&#x116;" horiz-adv-x="1159" d="M150 0v1491h899v-313h-551v-263h501v-313h-501v-289h575v-313h-923zM401 1815q0 86 58 143t145 57q86 0 143.5 -57t57.5 -143t-57.5 -143.5t-143.5 -57.5t-144.5 57.5t-58.5 143.5z" />
<glyph unicode="&#x117;" horiz-adv-x="1124" d="M59 492q0 231 149 381.5t374 150.5q221 0 350 -127t129 -334v-133h-690q44 -158 282 -158q159 0 346 68v-317q-164 -54 -350 -54q-282 0 -436 143t-154 380zM373 586h385q0 74 -46.5 121t-131.5 47q-88 0 -139.5 -47t-67.5 -121zM387 1339q0 86 58.5 143.5t144.5 57.5 t143.5 -57.5t57.5 -143.5t-57.5 -143t-143.5 -57q-87 0 -145 57t-58 143z" />
<glyph unicode="&#x118;" horiz-adv-x="1159" d="M150 0v1491h899v-313h-551v-263h501v-313h-501v-289h575v-313q-139 -100 -139 -197q0 -44 32 -70t83 -26q39 0 79 12v-202q-66 -15 -112 -15q-154 0 -235 64t-81 170q0 170 211 264h-761z" />
<glyph unicode="&#x119;" horiz-adv-x="1124" d="M59 492q0 231 149 381.5t374 150.5q221 0 350 -127t129 -334v-133h-690q44 -158 282 -158q149 0 346 68v-317q-163 -114 -163 -220q0 -44 31.5 -70t82.5 -26q37 0 78 12v-204q-67 -13 -117 -13q-146 0 -227.5 65t-81.5 169q0 78 43 135t127 106q-74 -8 -123 -8 q-282 0 -436 143t-154 380zM373 586h385q0 74 -46.5 121t-131.5 47q-88 0 -139.5 -47t-67.5 -121z" />
<glyph unicode="&#x11a;" horiz-adv-x="1159" d="M150 0v1491h899v-313h-551v-263h501v-313h-501v-289h575v-313h-923zM188 1948h265l151 -97l150 97h264l-256 -334h-318z" />
<glyph unicode="&#x11b;" horiz-adv-x="1124" d="M59 492q0 231 149 381.5t374 150.5q221 0 350 -127t129 -334v-133h-690q44 -158 282 -158q159 0 346 68v-317q-164 -54 -350 -54q-282 0 -436 143t-154 380zM199 1540h254l137 -156l135 156h254l-231 -410h-318zM373 586h385q0 74 -46.5 121t-131.5 47q-88 0 -139.5 -47 t-67.5 -121z" />
<glyph unicode="&#x11c;" horiz-adv-x="1484" d="M84 735q0 170 60.5 315t171 249.5t274 163.5t360.5 59q226 0 424 -54v-383q-222 86 -432 86q-227 0 -357 -114.5t-130 -321.5q0 -193 130 -307.5t349 -114.5q53 0 86 4v66l-8 346h342v-725l-109 -12q-20 -2 -67 -7t-78.5 -8t-76.5 -5.5t-83 -2.5q-252 0 -447.5 98.5 t-302 273t-106.5 394.5zM549 1614l256 334h317l256 -334h-264l-149 96l-152 -96h-264z" />
<glyph unicode="&#x11d;" horiz-adv-x="1210" d="M66 473q0 129 45 234t123 174t181.5 106t221.5 37q153 0 332 -31l116 -18v-903q0 -98 -21 -182t-67.5 -156.5t-117 -123t-174.5 -79.5t-234 -29q-193 0 -367 47v326q186 -63 353 -63q307 0 307 290v37q-64 -85 -131 -127.5t-156 -42.5q-184 0 -297.5 137.5t-113.5 366.5z M262 1130l232 410h317l231 -410h-254l-135 158l-137 -158h-254zM395 492q0 -104 55 -165t148 -61t166 64v377q-72 14 -133 14q-102 0 -169 -60t-67 -169z" />
<glyph unicode="&#x11e;" horiz-adv-x="1484" d="M84 735q0 170 60.5 315t171 249.5t274 163.5t360.5 59q226 0 424 -54v-383q-222 86 -432 86q-227 0 -357 -114.5t-130 -321.5q0 -193 130 -307.5t349 -114.5q53 0 86 4v66l-8 346h342v-725l-109 -12q-20 -2 -67 -7t-78.5 -8t-76.5 -5.5t-83 -2.5q-252 0 -447.5 98.5 t-302 273t-106.5 394.5zM559 1982h242q39 -112 164 -112q126 0 165 112h240q-6 -184 -110 -289.5t-295 -105.5q-192 0 -297.5 106t-108.5 289z" />
<glyph unicode="&#x11f;" horiz-adv-x="1210" d="M66 473q0 129 45 234t123 174t181.5 106t221.5 37q153 0 332 -31l116 -18v-903q0 -98 -21 -182t-67.5 -156.5t-117 -123t-174.5 -79.5t-234 -29q-193 0 -367 47v326q186 -63 353 -63q307 0 307 290v37q-64 -85 -131 -127.5t-156 -42.5q-184 0 -297.5 137.5t-113.5 366.5z M262 1540h236q8 -63 46.5 -102t108.5 -39q68 0 107 39t47 102h235q-3 -190 -105.5 -300t-283.5 -110q-182 0 -285.5 110.5t-105.5 299.5zM395 492q0 -104 55 -165t148 -61t166 64v377q-72 14 -133 14q-102 0 -169 -60t-67 -169z" />
<glyph unicode="&#x120;" horiz-adv-x="1484" d="M84 735q0 170 60.5 315t171 249.5t274 163.5t360.5 59q226 0 424 -54v-383q-222 86 -432 86q-227 0 -357 -114.5t-130 -321.5q0 -193 130 -307.5t349 -114.5q53 0 86 4v66l-8 346h342v-725l-109 -12q-20 -2 -67 -7t-78.5 -8t-76.5 -5.5t-83 -2.5q-252 0 -447.5 98.5 t-302 273t-106.5 394.5zM762 1815q0 86 58 143t145 57q86 0 143 -57t57 -143t-57 -143.5t-143 -57.5t-144.5 57.5t-58.5 143.5z" />
<glyph unicode="&#x121;" horiz-adv-x="1210" d="M66 473q0 129 45 234t123 174t181.5 106t221.5 37q153 0 332 -31l116 -18v-903q0 -98 -21 -182t-67.5 -156.5t-117 -123t-174.5 -79.5t-234 -29q-193 0 -367 47v326q186 -63 353 -63q307 0 307 290v37q-64 -85 -131 -127.5t-156 -42.5q-184 0 -297.5 137.5t-113.5 366.5z M395 492q0 -104 55 -165t148 -61t166 64v377q-72 14 -133 14q-102 0 -169 -60t-67 -169zM451 1339q0 86 58 143.5t144 57.5t143.5 -57.5t57.5 -143.5t-57.5 -143t-143.5 -57t-144 57t-58 143z" />
<glyph unicode="&#x122;" horiz-adv-x="1484" d="M84 735q0 170 60.5 315t171 249.5t274 163.5t360.5 59q226 0 424 -54v-383q-222 86 -432 86q-227 0 -357 -114.5t-130 -321.5q0 -193 130 -307.5t349 -114.5q53 0 86 4v66l-8 346h342v-725l-109 -12q-20 -2 -67 -7t-78.5 -8t-76.5 -5.5t-83 -2.5q-252 0 -447.5 98.5 t-302 273t-106.5 394.5zM674 -276q0 77 53 126.5t135 49.5q111 0 181.5 -75.5t70.5 -199.5q0 -81 -39 -150.5t-104 -113.5h-152q43 67 43 117q0 27 -15 46t-52 36q-65 28 -93 66t-28 98z" />
<glyph unicode="&#x123;" horiz-adv-x="1210" d="M66 473q0 129 45 234t123 174t181.5 106t221.5 37q153 0 332 -31l116 -18v-903q0 -98 -21 -182t-67.5 -156.5t-117 -123t-174.5 -79.5t-234 -29q-193 0 -367 47v326q186 -63 353 -63q307 0 307 290v37q-64 -85 -131 -127.5t-156 -42.5q-184 0 -297.5 137.5t-113.5 366.5z M375 1384q0 81 39 151t104 114h152q-43 -67 -43 -117q0 -27 15 -46t52 -36q65 -28 93 -66t28 -98q0 -77 -53 -126.5t-135 -49.5q-111 0 -181.5 75.5t-70.5 198.5zM395 492q0 -104 55 -165t148 -61t166 64v377q-72 14 -133 14q-102 0 -169 -60t-67 -169z" />
<glyph unicode="&#x124;" horiz-adv-x="1591" d="M150 0v1491h348v-576h598v576h346v-1491h-346v602h-598v-602h-348zM381 1614l256 334h317l256 -334h-264l-149 96l-152 -96h-264z" />
<glyph unicode="&#x125;" horiz-adv-x="1196" d="M-135 1614l256 334h317l256 -334h-264l-149 96l-152 -96h-264zM125 0v1540l328 10l-7 -557v-190q63 106 139.5 163.5t182.5 57.5q144 0 228.5 -107.5t84.5 -298.5v-618h-323v567q0 67 -34 103.5t-101 36.5q-93 0 -177 -78v-629h-321z" />
<glyph unicode="&#x126;" horiz-adv-x="1759" d="M10 1114v178h223v199h349v-199h598v199h346v-199h223v-178h-223v-1114h-346v602h-598v-602h-349v1114h-223zM582 915h598v199h-598v-199z" />
<glyph unicode="&#x127;" horiz-adv-x="1196" d="M-100 1194v178h225v168l328 10l-2 -178h430v-178h-435v-391q58 102 138.5 161.5t181.5 59.5q146 0 230.5 -107t84.5 -299v-618h-323v561q0 67 -34 106.5t-95 39.5q-99 0 -183 -78v-629h-321v1194h-225z" />
<glyph unicode="&#x128;" horiz-adv-x="647" d="M-10 1628v299q82 47 174 47q79 0 180 -39q72 -28 152 -28q74 0 157 51v-297q-76 -47 -174 -47q-74 0 -178 37q-72 28 -151 28q-77 0 -160 -51zM150 0v1491h348v-1491h-348z" />
<glyph unicode="&#x129;" horiz-adv-x="571" d="M-45 1196v297q76 47 174 47q76 0 180 -37q72 -28 152 -28q74 0 157 51v-297q-79 -49 -174 -49q-69 0 -178 39q-72 28 -151 28q-77 0 -160 -51zM125 0v993h321v-993h-321z" />
<glyph unicode="&#x12a;" horiz-adv-x="647" d="M-10 1630v303h663v-303h-663zM150 0v1491h348v-1491h-348z" />
<glyph unicode="&#x12b;" horiz-adv-x="571" d="M-45 1206v303h663v-303h-663zM125 0v993h321v-993h-321z" />
<glyph unicode="&#x12c;" horiz-adv-x="647" d="M-82 1982h242q39 -112 164 -112q126 0 165 112h240q-6 -184 -110 -289.5t-295 -105.5q-192 0 -297.5 106t-108.5 289zM150 0v1491h348v-1491h-348z" />
<glyph unicode="&#x12d;" horiz-adv-x="571" d="M-104 1540h235q8 -63 47 -102t109 -39q68 0 106.5 39t46.5 102h236q-3 -190 -105.5 -300t-283.5 -110q-182 0 -285.5 110.5t-105.5 299.5zM125 0v993h321v-993h-321z" />
<glyph unicode="&#x12e;" horiz-adv-x="647" d="M2 -260q0 146 148 229v1522h348v-1491q-127 0 -194.5 -54t-67.5 -126q0 -55 31.5 -84t84.5 -29q34 0 78 12v-202q-62 -15 -123 -15q-142 0 -223.5 66t-81.5 172z" />
<glyph unicode="&#x12f;" horiz-adv-x="571" d="M-23 -270q0 141 148 217v1046h321v-993q-109 0 -172 -53t-63 -131q0 -52 32 -80.5t83 -28.5q40 0 80 12v-204q-54 -13 -115 -13q-152 0 -233 63.5t-81 164.5zM84 1339q0 86 58.5 143.5t144.5 57.5q85 0 142.5 -57.5t57.5 -143.5t-57.5 -143t-142.5 -57q-87 0 -145 57 t-58 143z" />
<glyph unicode="&#x130;" horiz-adv-x="647" d="M121 1815q0 86 58 143t145 57q86 0 143 -57t57 -143t-57 -143.5t-143 -57.5t-144.5 57.5t-58.5 143.5zM150 0v1491h348v-1491h-348z" />
<glyph unicode="&#x131;" horiz-adv-x="571" d="M125 0v993h321v-993h-321z" />
<glyph unicode="&#x132;" horiz-adv-x="1464" d="M150 0v1491h348v-1491h-348zM721 -12v338q54 -13 100 -13q172 0 172 172v1006h342v-1024q0 -251 -120.5 -374.5t-342.5 -123.5q-86 0 -151 19z" />
<glyph unicode="&#x133;" horiz-adv-x="1173" d="M84 1339q0 86 58.5 143.5t144.5 57.5t143 -57.5t57 -143.5t-57 -143t-143 -57q-87 0 -145 57t-58 143zM125 0v993h321v-993h-321zM440 -178q79 -17 119 -17q78 0 122 46.5t44 136.5v1005h324v-1005q0 -235 -121.5 -360.5t-337.5 -125.5q-80 0 -150 17v303zM680 1339 q0 86 58.5 143.5t144.5 57.5t143 -57.5t57 -143.5t-57 -143t-143 -57q-87 0 -145 57t-58 143z" />
<glyph unicode="&#x134;" horiz-adv-x="817" d="M74 -12v338q54 -13 100 -13q172 0 172 172v1006h342v-1024q0 -251 -120.5 -374.5t-342.5 -123.5q-86 0 -151 19zM100 1614l256 334h318l256 -334h-264l-150 96l-151 -96h-265z" />
<glyph unicode="&#x135;" horiz-adv-x="602" d="M-131 -178q79 -17 119 -17q78 0 122 46.5t44 136.5v1005h323v-1005q0 -235 -121.5 -360.5t-337.5 -125.5q-79 0 -149 17v303zM-80 1130l232 410h317l231 -410h-254l-135 158l-137 -158h-254z" />
<glyph unicode="&#x136;" horiz-adv-x="1501" d="M150 0v1491h348v-651l307 366l231 285h451l-580 -655l619 -836h-453l-209 291l-198 266l-168 -192v-365h-348zM580 -276q0 77 53 126.5t135 49.5q111 0 181.5 -75.5t70.5 -199.5q0 -81 -39 -150.5t-104 -113.5h-152q43 67 43 117q0 27 -15.5 46t-52.5 36q-64 28 -92 66 t-28 98z" />
<glyph unicode="&#x137;" horiz-adv-x="1167" d="M125 0v1540l328 10l-7 -557v-360l113 137l186 223h414l-414 -426l433 -567h-428l-140 207l-92 129l-72 -72v-264h-321zM393 -276q0 76 53.5 126t135.5 50q111 0 181.5 -75.5t70.5 -199.5q0 -81 -39.5 -150.5t-104.5 -113.5h-151q43 67 43 117q0 27 -15.5 46t-52.5 36 q-65 28 -93 66t-28 98z" />
<glyph unicode="&#x138;" horiz-adv-x="1167" d="M125 0v993h321v-360l113 137l186 223h414l-414 -426l433 -567h-428l-140 207l-92 129l-72 -72v-264h-321z" />
<glyph unicode="&#x139;" horiz-adv-x="1118" d="M98 1614l226 334h381l-316 -334h-291zM150 0v1491h348v-1178h551v-313h-899z" />
<glyph unicode="&#x13a;" horiz-adv-x="571" d="M55 1614l226 334h381l-316 -334h-291zM125 0v1540l328 10l-7 -557v-993h-321z" />
<glyph unicode="&#x13b;" horiz-adv-x="1118" d="M150 0v1491h348v-1178h551v-313h-899zM389 -276q0 76 53.5 126t135.5 50q111 0 181 -75.5t70 -199.5q0 -81 -39 -150.5t-104 -113.5h-151q43 67 43 117q0 27 -15.5 46t-52.5 36q-65 28 -93 66t-28 98z" />
<glyph unicode="&#x13c;" horiz-adv-x="571" d="M70 -276q0 77 53 126.5t135 49.5q111 0 181.5 -75.5t70.5 -199.5q0 -81 -39 -150.5t-104 -113.5h-152q43 67 43 117q0 27 -15.5 46t-52.5 36q-64 28 -92 66t-28 98zM125 0v1540l328 10l-7 -557v-993h-321z" />
<glyph unicode="&#x13d;" horiz-adv-x="1118" d="M150 0v1491h348v-1178h551v-313h-899zM616 1343q0 77 53.5 127t135.5 50q111 0 181.5 -75.5t70.5 -199.5q0 -81 -39.5 -150.5t-104.5 -113.5h-151q43 67 43 117q0 27 -15.5 46t-52.5 36q-65 28 -93 65.5t-28 97.5z" />
<glyph unicode="&#x13e;" horiz-adv-x="980" d="M125 0v1540l328 10l-7 -557v-993h-321zM557 1364q0 77 53 126.5t135 49.5q111 0 181.5 -75.5t70.5 -198.5q0 -81 -39 -151t-104 -114h-152q43 67 43 117q0 27 -15 46t-52 36q-65 28 -93 66t-28 98z" />
<glyph unicode="&#x13f;" horiz-adv-x="1118" d="M150 0v1491h348v-1178h551v-313h-899zM678 737q0 86 58.5 143.5t144.5 57.5t143 -57.5t57 -143.5t-57 -143t-143 -57q-87 0 -145 57t-58 143z" />
<glyph unicode="&#x140;" horiz-adv-x="974" d="M125 0v1540l328 10l-7 -557v-993h-321zM571 520q0 86 58.5 143.5t144.5 57.5t143.5 -57.5t57.5 -143.5t-57.5 -143.5t-143.5 -57.5t-144.5 57.5t-58.5 143.5z" />
<glyph unicode="&#x141;" horiz-adv-x="1202" d="M10 307v213l223 129v842h349v-672l393 230v-209l-393 -228v-299h551v-313h-900v438z" />
<glyph unicode="&#x142;" horiz-adv-x="839" d="M35 281v211l223 129v919l328 10l-4 -557v-215l223 129v-211l-223 -129v-567h-324v410z" />
<glyph unicode="&#x143;" horiz-adv-x="1689" d="M150 0v1491h352l706 -932v932h332v-1491h-352l-707 928v-928h-331zM633 1614l225 334h381l-315 -334h-291z" />
<glyph unicode="&#x144;" horiz-adv-x="1196" d="M119 989l323 10v-198q132 223 324 223q146 0 230.5 -107t84.5 -299v-618h-323v567q0 65 -36.5 102.5t-98.5 37.5q-93 0 -177 -78v-629h-321v686zM367 1130l231 410h375l-326 -410h-280z" />
<glyph unicode="&#x145;" horiz-adv-x="1689" d="M150 0v1491h352l706 -932v932h332v-1491h-352l-707 928v-928h-331zM645 -276q0 76 53.5 126t135.5 50q111 0 181 -75.5t70 -199.5q0 -81 -39 -150.5t-104 -113.5h-151q43 67 43 117q0 27 -15.5 46t-52.5 36q-65 28 -93 66t-28 98z" />
<glyph unicode="&#x146;" horiz-adv-x="1196" d="M119 989l323 10v-198q132 223 324 223q146 0 230.5 -107t84.5 -299v-618h-323v567q0 65 -36.5 102.5t-98.5 37.5q-93 0 -177 -78v-629h-321v686zM387 -276q0 77 53 126.5t135 49.5q111 0 181.5 -75.5t70.5 -199.5q0 -81 -39 -150.5t-104 -113.5h-152q43 67 43 117 q0 27 -15 46t-52 36q-65 28 -93 66t-28 98z" />
<glyph unicode="&#x147;" horiz-adv-x="1689" d="M150 0v1491h352l706 -932v932h332v-1491h-352l-707 928v-928h-331zM444 1948h265l151 -97l150 97h264l-256 -334h-318z" />
<glyph unicode="&#x148;" horiz-adv-x="1196" d="M119 989l323 10v-198q132 223 324 223q146 0 230.5 -107t84.5 -299v-618h-323v567q0 65 -36.5 102.5t-98.5 37.5q-93 0 -177 -78v-629h-321v686zM207 1540h254l137 -156l135 156h254l-231 -410h-318z" />
<glyph unicode="&#x14a;" horiz-adv-x="1689" d="M150 0v1491h352l706 -932v932h332v-1491q0 -251 -120 -374.5t-341 -123.5q-92 0 -151 17v340q50 -13 98 -13q157 0 180 129l-725 953v-928h-331z" />
<glyph unicode="&#x14b;" horiz-adv-x="1196" d="M119 989l323 10v-198q126 223 324 223q146 0 230.5 -107t84.5 -299v-630q0 -234 -119 -360t-325 -126q-105 0 -164 17v303q79 -17 119 -17q78 0 122 46.5t44 136.5v579q0 66 -37 103t-100 37q-91 0 -175 -78v-629h-321v686z" />
<glyph unicode="&#x14c;" horiz-adv-x="1742" d="M84 748q0 225 103.5 402.5t283.5 274.5t403 97q225 0 403.5 -99t279 -275.5t100.5 -399.5q0 -169 -60.5 -315t-166 -247.5t-252 -159t-314.5 -57.5q-224 0 -402 99t-278 277t-100 403zM451 748q0 -189 119 -313t302 -124q180 0 300 119.5t120 312.5q0 191 -122 313 t-306 122q-178 0 -295.5 -118.5t-117.5 -311.5zM539 1630v303h663v-303h-663z" />
<glyph unicode="&#x14d;" horiz-adv-x="1187" d="M59 492q0 231 147 381.5t398 150.5q123 0 223.5 -42t165.5 -114t100 -166.5t35 -201.5q0 -231 -146.5 -381t-397.5 -150q-122 0 -223 43t-166 116t-100.5 166.5t-35.5 197.5zM260 1206v303h664v-303h-664zM383 504q0 -100 63 -166t158 -66q90 0 145.5 58t55.5 159 t-62.5 166.5t-156.5 65.5q-90 0 -146.5 -58t-56.5 -159z" />
<glyph unicode="&#x14e;" horiz-adv-x="1742" d="M84 748q0 225 103.5 402.5t283.5 274.5t403 97q225 0 403.5 -99t279 -275.5t100.5 -399.5q0 -169 -60.5 -315t-166 -247.5t-252 -159t-314.5 -57.5q-224 0 -402 99t-278 277t-100 403zM451 748q0 -189 119 -313t302 -124q180 0 300 119.5t120 312.5q0 191 -122 313 t-306 122q-178 0 -295.5 -118.5t-117.5 -311.5zM465 1982h242q39 -112 163 -112q127 0 166 112h240q-6 -184 -110.5 -289.5t-295.5 -105.5q-192 0 -297 106t-108 289z" />
<glyph unicode="&#x14f;" horiz-adv-x="1187" d="M59 492q0 231 147 381.5t398 150.5q123 0 223.5 -42t165.5 -114t100 -166.5t35 -201.5q0 -231 -146.5 -381t-397.5 -150q-122 0 -223 43t-166 116t-100.5 166.5t-35.5 197.5zM203 1540h235q8 -63 47 -102t109 -39q68 0 107 39t47 102h235q-3 -190 -105.5 -300 t-283.5 -110q-182 0 -285.5 110.5t-105.5 299.5zM383 504q0 -100 63 -166t158 -66q90 0 145.5 58t55.5 159t-62.5 166.5t-156.5 65.5q-90 0 -146.5 -58t-56.5 -159z" />
<glyph unicode="&#x150;" horiz-adv-x="1742" d="M84 748q0 225 103.5 402.5t283.5 274.5t403 97q225 0 403.5 -99t279 -275.5t100.5 -399.5q0 -169 -60.5 -315t-166 -247.5t-252 -159t-314.5 -57.5q-224 0 -402 99t-278 277t-100 403zM403 1614l228 334h379l-316 -334h-291zM451 748q0 -189 119 -313t302 -124 q180 0 300 119.5t120 312.5q0 191 -122 313t-306 122q-178 0 -295.5 -118.5t-117.5 -311.5zM877 1614l225 334h381l-316 -334h-290z" />
<glyph unicode="&#x151;" horiz-adv-x="1187" d="M59 492q0 231 147 381.5t398 150.5q123 0 223.5 -42t165.5 -114t100 -166.5t35 -201.5q0 -231 -146.5 -381t-397.5 -150q-122 0 -223 43t-166 116t-100.5 166.5t-35.5 197.5zM129 1130l231 410h375l-325 -410h-281zM383 504q0 -100 63 -166t158 -66q90 0 145.5 58 t55.5 159t-62.5 166.5t-156.5 65.5q-90 0 -146.5 -58t-56.5 -159zM602 1130l232 410h374l-325 -410h-281z" />
<glyph unicode="&#x152;" horiz-adv-x="2301" d="M84 748q0 225 103.5 402.5t283.5 274.5t403 97q258 0 418 -129v98h899v-313h-551v-263h502v-313h-502v-289h578v-313h-926v106q-72 -63 -181.5 -100t-223.5 -37q-234 0 -417.5 99t-284.5 276.5t-101 403.5zM451 748q0 -189 119 -313t302 -124q180 0 300 119.5t120 312.5 q0 191 -122 313t-306 122q-178 0 -295.5 -118.5t-117.5 -311.5z" />
<glyph unicode="&#x153;" horiz-adv-x="1869" d="M59 492q0 231 147 381.5t398 150.5q222 0 369 -150q147 150 358 150q221 0 348 -133t127 -363v-98h-690q44 -158 283 -158q149 0 346 68v-317q-164 -54 -350 -54q-270 0 -426 156q-144 -156 -385 -156q-122 0 -223 43t-166 116t-100.5 166.5t-35.5 197.5zM383 504 q0 -100 63 -166t158 -66q90 0 145.5 58t55.5 159t-62.5 166.5t-156.5 65.5q-90 0 -146.5 -58t-56.5 -159zM1118 586h385q0 74 -46.5 121t-131.5 47q-88 0 -139.5 -47t-67.5 -121z" />
<glyph unicode="&#x154;" horiz-adv-x="1345" d="M150 0v1491h546q250 0 393.5 -129.5t143.5 -337.5q0 -299 -307 -410l420 -614h-426l-199 315l-150 236h-73v-551h-348zM393 1614l225 334h381l-315 -334h-291zM498 864h176q188 0 188 162q0 73 -48 112.5t-136 39.5h-180v-314z" />
<glyph unicode="&#x155;" horiz-adv-x="849" d="M119 989l323 10v-223q118 248 326 248q46 0 82 -8v-340q-66 8 -121 8q-165 0 -283 -90v-295l11 -299h-332v686zM252 1130l231 410h375l-326 -410h-280z" />
<glyph unicode="&#x156;" horiz-adv-x="1345" d="M150 0v1491h546q250 0 393.5 -129.5t143.5 -337.5q0 -299 -307 -410l420 -614h-426l-199 315l-150 236h-73v-551h-348zM498 864h176q188 0 188 162q0 73 -48 112.5t-136 39.5h-180v-314zM516 -276q0 76 53.5 126t135.5 50q111 0 181 -75.5t70 -199.5q0 -81 -39 -150.5 t-104 -113.5h-151q43 67 43 117q0 27 -15.5 46t-52.5 36q-65 28 -93 66t-28 98z" />
<glyph unicode="&#x157;" horiz-adv-x="849" d="M70 -276q0 77 53 126.5t135 49.5q111 0 181.5 -75.5t70.5 -199.5q0 -81 -39 -150.5t-104 -113.5h-152q43 67 43 117q0 27 -15.5 46t-52.5 36q-64 28 -92 66t-28 98zM119 989l323 10v-223q118 248 326 248q46 0 82 -8v-340q-66 8 -121 8q-165 0 -283 -90v-295l11 -299 h-332v686z" />
<glyph unicode="&#x158;" horiz-adv-x="1345" d="M150 0v1491h546q250 0 393.5 -129.5t143.5 -337.5q0 -299 -307 -410l420 -614h-426l-199 315l-150 236h-73v-551h-348zM207 1948h264l152 -97l149 97h264l-256 -334h-317zM498 864h176q188 0 188 162q0 73 -48 112.5t-136 39.5h-180v-314z" />
<glyph unicode="&#x159;" horiz-adv-x="849" d="M90 1540h254l137 -156l135 156h254l-231 -410h-317zM119 989l323 10v-223q118 248 326 248q46 0 82 -8v-340q-66 8 -121 8q-165 0 -283 -90v-295l11 -299h-332v686z" />
<glyph unicode="&#x15a;" horiz-adv-x="1114" d="M72 1061q0 202 141.5 331.5t376.5 129.5q198 0 375 -56v-381q-107 46 -194 69.5t-189 23.5q-82 0 -124 -30t-42 -77q0 -39 26.5 -66.5t87.5 -52.5l185 -75q172 -71 250.5 -182.5t78.5 -278.5q0 -209 -131.5 -328t-396.5 -119q-253 0 -432 76v375q117 -55 214 -82t218 -27 q91 0 137.5 32t46.5 87q0 46 -28.5 78t-100.5 59l-168 64q-175 66 -253 171t-78 259zM346 1614l225 334h381l-315 -334h-291z" />
<glyph unicode="&#x15b;" horiz-adv-x="886" d="M78 698q0 138 108.5 232t302.5 94q152 0 283 -39v-334q-165 70 -297 70q-113 0 -113 -55q0 -19 16 -33.5t44 -20.5l127 -30q143 -34 209.5 -106t66.5 -193q0 -145 -108.5 -229.5t-308.5 -84.5q-96 0 -164 12.5t-148 38.5v342q184 -90 338 -90q107 0 107 56q0 41 -62 57 l-143 37q-258 67 -258 276zM229 1130l232 410h375l-326 -410h-281z" />
<glyph unicode="&#x15c;" horiz-adv-x="1114" d="M72 1061q0 202 141.5 331.5t376.5 129.5q198 0 375 -56v-381q-107 46 -194 69.5t-189 23.5q-82 0 -124 -30t-42 -77q0 -39 26.5 -66.5t87.5 -52.5l185 -75q172 -71 250.5 -182.5t78.5 -278.5q0 -209 -131.5 -328t-396.5 -119q-253 0 -432 76v375q117 -55 214 -82t218 -27 q91 0 137.5 32t46.5 87q0 46 -28.5 78t-100.5 59l-168 64q-175 66 -253 171t-78 259zM160 1614l256 334h317l256 -334h-264l-150 96l-151 -96h-264z" />
<glyph unicode="&#x15d;" horiz-adv-x="886" d="M68 1130l231 410h317l232 -410h-254l-135 158l-137 -158h-254zM78 698q0 138 108.5 232t302.5 94q152 0 283 -39v-334q-165 70 -297 70q-113 0 -113 -55q0 -19 16 -33.5t44 -20.5l127 -30q143 -34 209.5 -106t66.5 -193q0 -145 -108.5 -229.5t-308.5 -84.5 q-96 0 -164 12.5t-148 38.5v342q184 -90 338 -90q107 0 107 56q0 41 -62 57l-143 37q-258 67 -258 276z" />
<glyph unicode="&#x15e;" horiz-adv-x="1114" d="M72 1061q0 202 141.5 331.5t376.5 129.5q201 0 375 -58v-379q-103 46 -191 69.5t-192 23.5q-82 0 -124 -30t-42 -77q0 -39 27 -66.5t98 -56.5l176 -71q167 -67 247 -181t80 -280q0 -203 -123.5 -321.5t-371.5 -125.5l-4 -55q112 -12 169.5 -66.5t57.5 -136.5 q0 -98 -70.5 -153.5t-201.5 -55.5q-82 0 -162 17v168q61 -17 119 -17q41 0 61.5 14t20.5 37q0 29 -35 49t-113 23l21 180q-184 9 -328 72v375q117 -55 214 -82t218 -27q91 0 137.5 32t46.5 87q0 90 -129 137l-168 64q-175 66 -253 171t-78 259z" />
<glyph unicode="&#x15f;" horiz-adv-x="862" d="M66 698q0 138 108.5 232t302.5 94q152 0 283 -39v-334q-165 70 -297 70q-113 0 -113 -55q0 -19 16 -33.5t44 -20.5l127 -30q143 -34 209.5 -106t66.5 -193q0 -137 -97.5 -220t-279.5 -92l-6 -57q112 -12 169.5 -66.5t57.5 -136.5q0 -98 -70.5 -153.5t-201.5 -55.5 q-82 0 -162 17v168q61 -17 119 -17q41 0 61.5 14t20.5 37q0 29 -35.5 49t-114.5 23l25 180q-81 8 -215 47v342q184 -90 338 -90q106 0 106 56q0 41 -61 57l-143 37q-258 67 -258 276z" />
<glyph unicode="&#x160;" horiz-adv-x="1114" d="M72 1061q0 202 141.5 331.5t376.5 129.5q198 0 375 -56v-381q-107 46 -194 69.5t-189 23.5q-82 0 -124 -30t-42 -77q0 -39 26.5 -66.5t87.5 -52.5l185 -75q172 -71 250.5 -182.5t78.5 -278.5q0 -209 -131.5 -328t-396.5 -119q-253 0 -432 76v375q117 -55 214 -82t218 -27 q91 0 137.5 32t46.5 87q0 46 -28.5 78t-100.5 59l-168 64q-175 66 -253 171t-78 259zM160 1948h264l151 -97l150 97h264l-256 -334h-317z" />
<glyph unicode="&#x161;" horiz-adv-x="886" d="M68 1540h254l137 -156l135 156h254l-232 -410h-317zM78 698q0 138 108.5 232t302.5 94q152 0 283 -39v-334q-165 70 -297 70q-113 0 -113 -55q0 -19 16 -33.5t44 -20.5l127 -30q143 -34 209.5 -106t66.5 -193q0 -145 -108.5 -229.5t-308.5 -84.5q-96 0 -164 12.5 t-148 38.5v342q184 -90 338 -90q107 0 107 56q0 41 -62 57l-143 37q-258 67 -258 276z" />
<glyph unicode="&#x162;" horiz-adv-x="1208" d="M31 1178v313h1147v-313h-400v-1178h-110l-9 -86q112 -12 170 -66.5t58 -136.5q0 -98 -71 -153.5t-202 -55.5q-81 0 -161 17v168q61 -17 118 -17q41 0 61.5 14t20.5 37q0 67 -149 72l28 207h-102v1178h-399z" />
<glyph unicode="&#x163;" horiz-adv-x="792" d="M12 729v189l451 325v-250h285v-264h-285v-334q0 -116 131 -116q77 0 170 43v-308q-119 -45 -252 -45h-23l-4 -61q112 -9 170 -62t58 -135q0 -98 -71 -153.5t-202 -55.5q-81 0 -161 17v168q61 -17 118 -17q41 0 61.5 14t20.5 37q0 67 -149 72l28 203q-105 33 -162 124.5 t-57 237.5v371h-127z" />
<glyph unicode="&#x164;" horiz-adv-x="1208" d="M31 1178v313h1147v-313h-400v-1178h-348v1178h-399zM188 1948h265l151 -97l150 97h264l-256 -334h-318z" />
<glyph unicode="&#x165;" horiz-adv-x="792" d="M12 729v189l451 325v-250h285v-264h-285v-334q0 -116 131 -116q77 0 170 43v-308q-119 -45 -252 -45q-174 0 -273.5 98t-99.5 291v371h-127zM455 1450q0 77 53 126.5t135 49.5q111 0 181.5 -75.5t70.5 -198.5q0 -81 -39 -151t-104 -114h-152q43 67 43 117q0 27 -15.5 46 t-52.5 36q-64 28 -92 66t-28 98z" />
<glyph unicode="&#x166;" horiz-adv-x="1208" d="M31 1178v313h1147v-313h-400v-363h295v-178h-295v-637h-348v637h-295v178h295v363h-399z" />
<glyph unicode="&#x167;" horiz-adv-x="841" d="M37 420v178h127v131h-127v189l450 325v-250h285v-264h-285v-131h269v-178h-269v-25q0 -116 131 -116q77 0 170 43v-308q-60 -23 -113.5 -34t-137.5 -11q-174 0 -273.5 98t-99.5 291v62h-127z" />
<glyph unicode="&#x168;" horiz-adv-x="1497" d="M139 573v918h350v-901q0 -126 68.5 -201.5t198.5 -75.5q132 0 200 74.5t68 198.5v905h334v-918q0 -133 -37.5 -242.5t-111.5 -190.5t-191.5 -126t-269.5 -45q-151 0 -268.5 45t-191 126t-111.5 190.5t-38 242.5zM414 1628v299q82 47 174 47q79 0 180 -39q72 -28 152 -28 q74 0 157 51v-297q-76 -47 -174 -47q-74 0 -178 37q-72 28 -152 28q-76 0 -159 -51z" />
<glyph unicode="&#x169;" horiz-adv-x="1185" d="M115 342v651h323v-565q0 -139 123 -139q97 0 176 76v628h324v-665l20 -328h-321l-8 201q-125 -232 -318 -232q-152 0 -235.5 98.5t-83.5 274.5zM260 1196v297q76 47 174 47q76 0 180 -37q72 -28 152 -28q75 0 158 51v-297q-79 -49 -174 -49q-70 0 -179 39q-72 28 -151 28 q-77 0 -160 -51z" />
<glyph unicode="&#x16a;" horiz-adv-x="1497" d="M139 573v918h350v-901q0 -126 68.5 -201.5t198.5 -75.5q132 0 200 74.5t68 198.5v905h334v-918q0 -133 -37.5 -242.5t-111.5 -190.5t-191.5 -126t-269.5 -45q-151 0 -268.5 45t-191 126t-111.5 190.5t-38 242.5zM414 1630v303h663v-303h-663z" />
<glyph unicode="&#x16b;" horiz-adv-x="1185" d="M115 342v651h323v-565q0 -139 123 -139q97 0 176 76v628h324v-665l20 -328h-321l-8 201q-125 -232 -318 -232q-152 0 -235.5 98.5t-83.5 274.5zM260 1206v303h664v-303h-664z" />
<glyph unicode="&#x16c;" horiz-adv-x="1497" d="M139 573v918h350v-901q0 -126 68.5 -201.5t198.5 -75.5q132 0 200 74.5t68 198.5v905h334v-918q0 -133 -37.5 -242.5t-111.5 -190.5t-191.5 -126t-269.5 -45q-151 0 -268.5 45t-191 126t-111.5 190.5t-38 242.5zM344 1982h242q39 -112 164 -112q126 0 165 112h240 q-6 -184 -110 -289.5t-295 -105.5q-192 0 -297.5 106t-108.5 289z" />
<glyph unicode="&#x16d;" horiz-adv-x="1185" d="M115 342v651h323v-565q0 -139 123 -139q97 0 176 76v628h324v-665l20 -328h-321l-8 201q-125 -232 -318 -232q-152 0 -235.5 98.5t-83.5 274.5zM201 1540h235q8 -63 47 -102t109 -39q68 0 106.5 39t46.5 102h236q-3 -190 -105.5 -300t-283.5 -110q-182 0 -285.5 110.5 t-105.5 299.5z" />
<glyph unicode="&#x16e;" horiz-adv-x="1497" d="M139 573v918h350v-901q0 -126 68.5 -201.5t198.5 -75.5q132 0 200 74.5t68 198.5v905h334v-918q0 -133 -37.5 -242.5t-111.5 -190.5t-191.5 -126t-269.5 -45q-151 0 -268.5 45t-191 126t-111.5 190.5t-38 242.5zM449 1702q0 129 86 215t215 86q128 0 214.5 -86t86.5 -215 q0 -128 -86.5 -214.5t-214.5 -86.5q-129 0 -215 86.5t-86 214.5zM649 1702q0 -42 29 -70t72 -28q40 0 68 28t28 70q0 41 -28 69.5t-68 28.5q-43 0 -72 -28.5t-29 -69.5z" />
<glyph unicode="&#x16f;" horiz-adv-x="1185" d="M115 342v651h323v-565q0 -139 123 -139q97 0 176 76v628h324v-665l20 -328h-321l-8 201q-125 -232 -318 -232q-152 0 -235.5 98.5t-83.5 274.5zM291 1405q0 128 86 214.5t215 86.5q128 0 214.5 -87t86.5 -214q0 -129 -86.5 -215t-214.5 -86q-129 0 -215 86t-86 215z M492 1405q0 -43 28.5 -71.5t71.5 -28.5q40 0 68 29t28 71q0 40 -28 68t-68 28q-42 0 -71 -28t-29 -68z" />
<glyph unicode="&#x170;" horiz-adv-x="1497" d="M139 573v918h350v-901q0 -126 68.5 -201.5t198.5 -75.5q132 0 200 74.5t68 198.5v905h334v-918q0 -133 -37.5 -242.5t-111.5 -190.5t-191.5 -126t-269.5 -45q-151 0 -268.5 45t-191 126t-111.5 190.5t-38 242.5zM283 1614l227 334h379l-316 -334h-290zM756 1614l225 334 h381l-315 -334h-291z" />
<glyph unicode="&#x171;" horiz-adv-x="1185" d="M115 342v651h323v-565q0 -139 123 -139q97 0 176 76v628h324v-665l20 -328h-321l-8 201q-125 -232 -318 -232q-152 0 -235.5 98.5t-83.5 274.5zM127 1130l231 410h375l-325 -410h-281zM600 1130l231 410h375l-325 -410h-281z" />
<glyph unicode="&#x172;" horiz-adv-x="1497" d="M139 573v918h350v-901q0 -126 68.5 -201.5t198.5 -75.5q132 0 200 74.5t68 198.5v905h334v-918q0 -253 -135 -415t-394 -183q-100 -76 -100 -172q0 -44 31.5 -70t81.5 -26q40 0 80 12v-202q-62 -15 -113 -15q-154 0 -233.5 64t-79.5 170q0 138 159 239 q-255 24 -385.5 184.5t-130.5 413.5z" />
<glyph unicode="&#x173;" horiz-adv-x="1185" d="M115 342v651h323v-565q0 -139 123 -139q90 0 176 76v628h324v-665l20 -328q-138 0 -207 -56t-69 -130q0 -53 31.5 -80t83.5 -27q38 0 79 12v-204q-89 -13 -127 -13q-145 0 -223 64.5t-78 169.5q0 160 189 252l-8 213q-125 -232 -318 -232q-152 0 -235.5 98.5t-83.5 274.5 z" />
<glyph unicode="&#x174;" horiz-adv-x="2256" d="M0 1491h397l103 -381l164 -580l297 961h344l292 -959l175 607l94 352h391l-469 -1491h-387l-273 874l-276 -874h-385zM713 1614l256 334h317l256 -334h-264l-150 96l-151 -96h-264z" />
<glyph unicode="&#x175;" horiz-adv-x="1683" d="M0 993h348l84 -305l78 -287l172 592h334l170 -587l80 290l84 297h333l-313 -993h-358l-172 516l-168 -516h-359zM449 1130l231 410h317l232 -410h-254l-135 158l-138 -158h-253z" />
<glyph unicode="&#x176;" horiz-adv-x="1337" d="M0 1491h406l155 -313l113 -209l110 209l162 313h391l-497 -887v-604h-348v612zM254 1614l256 334h317l256 -334h-264l-149 96l-152 -96h-264z" />
<glyph unicode="&#x177;" horiz-adv-x="1075" d="M0 993h352l97 -303l94 -287l90 283l96 307h346l-559 -1491h-377l217 490zM145 1130l232 410h317l232 -410h-254l-135 158l-138 -158h-254z" />
<glyph unicode="&#x178;" horiz-adv-x="1337" d="M0 1491h406l155 -313l113 -209l110 209l162 313h391l-497 -887v-604h-348v612zM244 1806q0 84 55 138.5t139 54.5q83 0 137 -54t54 -139q0 -83 -54 -137.5t-137 -54.5t-138.5 54.5t-55.5 137.5zM721 1806q0 84 54.5 138.5t137.5 54.5q85 0 139 -54t54 -139 q0 -84 -54 -138t-139 -54q-83 0 -137.5 54.5t-54.5 137.5z" />
<glyph unicode="&#x179;" horiz-adv-x="1372" d="M31 0l686 1178h-633v313h1223l-689 -1178h705v-313h-1292zM449 1614l225 334h381l-316 -334h-290z" />
<glyph unicode="&#x17a;" horiz-adv-x="1054" d="M14 0l449 694h-412v299h946l-444 -692h451v-301h-990zM279 1130l231 410h375l-326 -410h-280z" />
<glyph unicode="&#x17b;" horiz-adv-x="1372" d="M31 0l686 1178h-633v313h1223l-689 -1178h705v-313h-1292zM473 1815q0 86 58 143t145 57q86 0 143.5 -57t57.5 -143t-57.5 -143.5t-143.5 -57.5t-144.5 57.5t-58.5 143.5z" />
<glyph unicode="&#x17c;" horiz-adv-x="1054" d="M14 0l449 694h-412v299h946l-444 -692h451v-301h-990zM305 1339q0 86 58.5 143.5t144.5 57.5t143.5 -57.5t57.5 -143.5t-57.5 -143t-143.5 -57q-87 0 -145 57t-58 143z" />
<glyph unicode="&#x17d;" horiz-adv-x="1372" d="M31 0l686 1178h-633v313h1223l-689 -1178h705v-313h-1292zM260 1948h264l152 -97l149 97h265l-256 -334h-318z" />
<glyph unicode="&#x17e;" horiz-adv-x="1054" d="M14 0l449 694h-412v299h946l-444 -692h451v-301h-990zM117 1540h254l137 -156l135 156h254l-231 -410h-318z" />
<glyph unicode="&#x192;" d="M-51 -475l33 295q47 -15 84 -15q144 0 176 158l157 758h-135l43 197l154 75l10 58q40 235 186 362t383 127q70 0 144 -12l-33 -328q-53 12 -111 12q-103 0 -166 -46t-77 -117l-13 -56h312l-60 -272h-311l-164 -782q-49 -231 -162 -334t-311 -103q-75 0 -139 23z" />
<glyph unicode="&#x218;" horiz-adv-x="1114" d="M72 1061q0 202 141.5 331.5t376.5 129.5q198 0 375 -56v-381q-107 46 -194 69.5t-189 23.5q-82 0 -124 -30t-42 -77q0 -39 26.5 -66.5t87.5 -52.5l185 -75q172 -71 250.5 -182.5t78.5 -278.5q0 -209 -131.5 -328t-396.5 -119q-253 0 -432 76v375q117 -55 214 -82t218 -27 q91 0 137.5 32t46.5 87q0 46 -28.5 78t-100.5 59l-168 64q-175 66 -253 171t-78 259zM291 -276q0 77 53 126.5t135 49.5q111 0 181.5 -75.5t70.5 -199.5q0 -81 -39 -150.5t-104 -113.5h-152q43 67 43 117q0 27 -15 46t-52 36q-65 28 -93 66t-28 98z" />
<glyph unicode="&#x219;" horiz-adv-x="886" d="M78 698q0 138 108.5 232t302.5 94q152 0 283 -39v-334q-165 70 -297 70q-113 0 -113 -55q0 -19 16 -33.5t44 -20.5l127 -30q143 -34 209.5 -106t66.5 -193q0 -145 -108.5 -229.5t-308.5 -84.5q-96 0 -164 12.5t-148 38.5v342q184 -90 338 -90q107 0 107 56q0 41 -62 57 l-143 37q-258 67 -258 276zM209 -276q0 77 53 126.5t135 49.5q111 0 181.5 -75.5t70.5 -199.5q0 -81 -39 -150.5t-104 -113.5h-152q43 67 43 117q0 27 -15 46t-52 36q-65 28 -93 66t-28 98z" />
<glyph unicode="&#x21a;" horiz-adv-x="1208" d="M31 1178v313h1147v-313h-400v-1178h-348v1178h-399zM387 -276q0 77 53 126.5t135 49.5q111 0 181.5 -75.5t70.5 -199.5q0 -81 -39 -150.5t-104 -113.5h-152q43 67 43 117q0 27 -15 46t-52 36q-65 28 -93 66t-28 98z" />
<glyph unicode="&#x21b;" horiz-adv-x="792" d="M12 729v189l451 325v-250h285v-264h-285v-334q0 -116 131 -116q77 0 170 43v-308q-119 -45 -252 -45q-174 0 -273.5 98t-99.5 291v371h-127zM227 -276q0 76 53.5 126t135.5 50q111 0 181.5 -75.5t70.5 -199.5q0 -81 -39.5 -150.5t-104.5 -113.5h-151q43 67 43 117 q0 27 -15.5 46t-52.5 36q-65 28 -93 66t-28 98z" />
<glyph unicode="&#x2b0;" horiz-adv-x="876" d="M100 496v1028l258 8l-12 -436q93 127 215 127q102 0 160.5 -71t58.5 -208v-448h-256v403q0 37 -19.5 59.5t-58.5 22.5q-47 0 -90 -43v-442h-256z" />
<glyph unicode="&#x2b2;" horiz-adv-x="460" d="M-35 174v240q44 -13 74 -13q76 0 76 82v717h256v-721q0 -153 -80 -235t-228 -82q-57 0 -98 12zM61 1405q0 58 47 92.5t130 34.5q86 0 134 -34.5t48 -92.5q0 -59 -47.5 -92t-134.5 -33q-84 0 -130.5 33t-46.5 92z" />
<glyph unicode="&#x2b7;" horiz-adv-x="1284" d="M12 1204h273l61 -221l47 -139l117 360h272l115 -366l49 151l62 215h264l-223 -708h-293l-115 344l-113 -344h-295z" />
<glyph unicode="&#x2b8;" horiz-adv-x="815" d="M4 1204h283l73 -217v2l52 -147l49 139l74 223h276l-391 -1042h-295l135 315z" />
<glyph unicode="&#x2c6;" horiz-adv-x="1024" d="M121 1130l231 410h318l231 -410h-254l-135 158l-137 -158h-254z" />
<glyph unicode="&#x2c7;" horiz-adv-x="1024" d="M121 1540h254l137 -156l135 156h254l-231 -410h-318z" />
<glyph unicode="&#x2d8;" horiz-adv-x="1024" d="M121 1540h235q8 -63 47 -102t109 -39q68 0 107 39t47 102h235q-3 -190 -105.5 -300t-283.5 -110q-182 0 -285.5 110.5t-105.5 299.5z" />
<glyph unicode="&#x2d9;" horiz-adv-x="1024" d="M309 1339q0 86 58.5 143.5t144.5 57.5t143.5 -57.5t57.5 -143.5t-57.5 -143t-143.5 -57q-87 0 -145 57t-58 143z" />
<glyph unicode="&#x2da;" horiz-adv-x="1024" d="M211 1405q0 128 86 214.5t215 86.5q128 0 214.5 -87t86.5 -214q0 -129 -86.5 -215t-214.5 -86q-129 0 -215 86t-86 215zM412 1405q0 -43 28.5 -71.5t71.5 -28.5q40 0 68 29t28 71q0 40 -28 68t-68 28q-42 0 -71 -28t-29 -68z" />
<glyph unicode="&#x2db;" horiz-adv-x="1024" d="M297 -268q0 89 57.5 155.5t167.5 120.5h158q-150 -105 -150 -205q0 -44 32 -70t83 -26q37 0 80 12v-204q-54 -13 -119 -13q-146 0 -227.5 63t-81.5 167z" />
<glyph unicode="&#x2dc;" horiz-adv-x="1024" d="M180 1196v297q76 47 174 47q77 0 181 -37q72 -28 151 -28q75 0 158 51v-297q-79 -49 -174 -49q-69 0 -178 39q-72 28 -152 28q-77 0 -160 -51z" />
<glyph unicode="&#x2dd;" horiz-adv-x="1024" d="M-27 1130l232 410h375l-326 -410h-281zM446 1130l232 410h375l-326 -410h-281z" />
<glyph unicode="&#x2e3;" horiz-adv-x="811" d="M2 496l244 372l-232 336h320l86 -141l80 141h293l-226 -352l244 -356h-322l-102 161l-86 -161h-299z" />
<glyph unicode="&#x3c0;" horiz-adv-x="1333" d="M25 721v272h1255v-272h-170v-340q0 -109 98 -109q20 0 72 9v-295q-60 -17 -121 -17q-185 0 -279 101.5t-94 289.5v361h-270v-721h-321v721h-170z" />
<glyph unicode="&#x2000;" horiz-adv-x="1007" />
<glyph unicode="&#x2001;" horiz-adv-x="2015" />
<glyph unicode="&#x2002;" horiz-adv-x="1024" />
<glyph unicode="&#x2003;" horiz-adv-x="2048" />
<glyph unicode="&#x2004;" horiz-adv-x="671" />
<glyph unicode="&#x2005;" horiz-adv-x="503" />
<glyph unicode="&#x2006;" horiz-adv-x="335" />
<glyph unicode="&#x2007;" />
<glyph unicode="&#x2008;" horiz-adv-x="620" />
<glyph unicode="&#x2009;" horiz-adv-x="307" />
<glyph unicode="&#x200a;" horiz-adv-x="204" />
<glyph unicode="&#x2010;" horiz-adv-x="620" d="M49 336v323h522v-323h-522z" />
<glyph unicode="&#x2011;" horiz-adv-x="620" d="M49 336v323h522v-323h-522z" />
<glyph unicode="&#x2012;" horiz-adv-x="620" d="M49 336v323h522v-323h-522z" />
<glyph unicode="&#x2013;" horiz-adv-x="1024" d="M0 336v323h1024v-323h-1024z" />
<glyph unicode="&#x2014;" horiz-adv-x="2048" d="M0 336v323h2048v-323h-2048z" />
<glyph unicode="&#x2018;" horiz-adv-x="620" d="M43 1049q0 146 42 247.5t122 194.5h237q-61 -65 -84.5 -121.5t-23.5 -116.5q0 -57 23 -97.5t77 -84.5q53 -43 78 -88.5t25 -103.5q0 -83 -57 -136t-138 -53q-128 0 -214.5 101.5t-86.5 257.5z" />
<glyph unicode="&#x2019;" horiz-adv-x="620" d="M82 1331q0 83 56.5 136t137.5 53q129 0 215.5 -101.5t86.5 -257.5q0 -146 -42 -247.5t-122 -194.5h-238q61 65 85 121t24 116q0 57 -23.5 98t-77.5 85q-102 83 -102 192z" />
<glyph unicode="&#x201a;" horiz-adv-x="620" d="M82 211q0 83 55.5 134.5t138.5 51.5q127 0 214.5 -101.5t87.5 -256.5q0 -301 -207 -483h-234q148 145 148 278q0 56 -23 96t-78 86q-55 47 -78.5 91.5t-23.5 103.5z" />
<glyph unicode="&#x201c;" horiz-adv-x="1218" d="M43 1051q0 146 42 247.5t122 194.5h237q-61 -65 -84.5 -121.5t-23.5 -116.5q0 -57 23 -97.5t77 -84.5q53 -43 78 -88.5t25 -103.5q0 -83 -57 -136t-138 -53q-128 0 -214.5 101.5t-86.5 257.5zM641 1051q0 146 42 247.5t122 194.5h237q-61 -65 -84.5 -121.5t-23.5 -116.5 q0 -57 23 -97.5t77 -84.5q53 -43 78 -88.5t25 -103.5q0 -83 -57 -136t-138 -53q-128 0 -214.5 101.5t-86.5 257.5z" />
<glyph unicode="&#x201d;" horiz-adv-x="1218" d="M82 1331q0 83 56.5 136t137.5 53q129 0 215.5 -101.5t86.5 -257.5q0 -146 -42 -247.5t-122 -194.5h-238q61 65 85 121t24 116q0 57 -23.5 98t-77.5 85q-102 83 -102 192zM678 1331q0 83 56.5 136t137.5 53q129 0 215.5 -101.5t86.5 -257.5q0 -146 -42 -247.5t-122 -194.5 h-238q61 65 85 121t24 116q0 57 -23.5 98t-77.5 85q-102 83 -102 192z" />
<glyph unicode="&#x201e;" horiz-adv-x="1218" d="M82 211q0 83 55.5 134.5t138.5 51.5q127 0 214.5 -101.5t87.5 -256.5q0 -301 -207 -483h-234q148 145 148 278q0 56 -23 96t-78 86q-55 47 -78.5 91.5t-23.5 103.5zM678 211q0 83 55.5 134.5t138.5 51.5q127 0 214.5 -101.5t87.5 -256.5q0 -301 -207 -483h-234 q148 145 148 278q0 56 -23 96t-78 86q-55 47 -78.5 91.5t-23.5 103.5z" />
<glyph unicode="&#x2020;" d="M125 707v286h352v498h289v-498h352v-286h-352v-1205h-289v1205h-352z" />
<glyph unicode="&#x2021;" d="M125 0v289h352v418h-352v286h352v498h289v-498h352v-286h-352v-418h352v-289h-352v-498h-289v498h-352z" />
<glyph unicode="&#x2022;" d="M199 748q0 181 121 302t301 121q181 0 302 -120.5t121 -302.5q0 -180 -121 -301t-302 -121q-180 0 -301 121t-121 301z" />
<glyph unicode="&#x2026;" horiz-adv-x="2013" d="M96 184q0 91 61.5 152t153.5 61q91 0 152 -61t61 -152q0 -92 -61 -153.5t-152 -61.5q-92 0 -153.5 61.5t-61.5 153.5zM793 184q0 91 61.5 152t153.5 61q91 0 152 -61t61 -152q0 -92 -61 -153.5t-152 -61.5q-92 0 -153.5 61.5t-61.5 153.5zM1489 184q0 91 61 152t152 61 q92 0 153.5 -61t61.5 -152q0 -92 -61.5 -153.5t-153.5 -61.5q-91 0 -152 61.5t-61 153.5z" />
<glyph unicode="&#x202f;" horiz-adv-x="403" />
<glyph unicode="&#x2030;" horiz-adv-x="3158" d="M90 1104q0 181 117.5 299.5t296.5 118.5q182 0 300 -118t118 -300q0 -180 -118.5 -298t-299.5 -118q-179 0 -296.5 118t-117.5 298zM336 1104q0 -71 49 -120.5t119 -49.5q73 0 121.5 49.5t48.5 120.5q0 72 -48.5 120t-121.5 48q-71 0 -119.5 -48t-48.5 -120zM539 0 l860 1491h301l-860 -1491h-301zM1317 387q0 180 118.5 298t299.5 118q180 0 297.5 -118t117.5 -298t-117.5 -299t-297.5 -119q-181 0 -299.5 119t-118.5 299zM1567 387q0 -72 48 -120t120 -48q71 0 120.5 48.5t49.5 119.5t-49.5 120.5t-120.5 49.5t-119.5 -49.5 t-48.5 -120.5zM2236 387q0 180 118.5 298t299.5 118q180 0 298 -118t118 -298t-118 -299t-298 -119q-181 0 -299.5 119t-118.5 299zM2486 387q0 -72 48 -120t120 -48q71 0 120.5 48.5t49.5 119.5t-50 120.5t-120 49.5q-71 0 -119.5 -49.5t-48.5 -120.5z" />
<glyph unicode="&#x2039;" horiz-adv-x="706" d="M20 492l314 501h350l-307 -501l307 -492h-350z" />
<glyph unicode="&#x203a;" horiz-adv-x="706" d="M23 0l305 492l-305 501h350l313 -501l-313 -492h-350z" />
<glyph unicode="&#x2044;" horiz-adv-x="729" d="M-104 0l649 1491h289l-650 -1491h-288z" />
<glyph unicode="&#x205f;" horiz-adv-x="503" />
<glyph unicode="&#x2070;" horiz-adv-x="964" d="M82 1018q0 255 109.5 398t287.5 143q183 0 293.5 -142.5t110.5 -398.5q0 -257 -110.5 -399t-293.5 -142q-178 0 -287.5 142.5t-109.5 398.5zM350 1018q0 -139 35 -213t94 -74q62 0 97.5 74t35.5 213q0 141 -35.5 214t-97.5 73q-59 0 -94 -73t-35 -214z" />
<glyph unicode="&#x2074;" horiz-adv-x="954" d="M31 680l501 858h273v-643h84v-215h-84v-184h-262v184h-512zM352 895h191v332z" />
<glyph unicode="&#x2075;" horiz-adv-x="917" d="M131 518v264q142 -55 254 -55q158 0 158 102q0 48 -47.5 76.5t-149.5 28.5q-104 0 -205 -16l33 620h586v-266h-383l-4 -115h37q199 0 301 -90.5t102 -237.5q0 -165 -107.5 -258.5t-297.5 -93.5q-140 0 -277 41z" />
<glyph unicode="&#x2076;" horiz-adv-x="952" d="M74 899q0 131 48.5 256t118 215.5t160.5 167.5h433q-191 -120 -297 -224t-150 -214q78 55 176 55q131 0 215 -88.5t84 -226.5q0 -157 -99.5 -260t-277.5 -103q-188 0 -299.5 115.5t-111.5 306.5zM352 856q0 -69 37 -107t96 -38q58 0 92.5 35t34.5 92q0 56 -34.5 92.5 t-90.5 36.5q-67 0 -127 -54q-8 -28 -8 -57z" />
<glyph unicode="&#x2077;" horiz-adv-x="897" d="M86 1274v266h778l-401 -1044h-311l358 778h-424z" />
<glyph unicode="&#x2078;" horiz-adv-x="919" d="M72 762q0 81 45 140.5t125 92.5q-66 47 -103 114.5t-37 139.5q0 136 101.5 224t249.5 88q161 0 261.5 -83.5t100.5 -207.5q0 -130 -133 -201q79 -45 122.5 -122t43.5 -167q0 -138 -99 -220.5t-280 -82.5t-289 80.5t-108 204.5zM328 801q0 -47 40 -79t105 -32q51 0 81 24 t30 60q0 51 -82 92l-99 52q-38 -27 -56.5 -54t-18.5 -63zM360 1260q0 -48 50 -70l100 -45q57 47 57 98q0 39 -29.5 64.5t-82.5 25.5q-44 0 -69.5 -21t-25.5 -52z" />
<glyph unicode="&#x2079;" horiz-adv-x="952" d="M90 1194q0 159 99.5 262t277.5 103q188 0 299 -116t111 -308q0 -201 -78 -362.5t-213 -276.5h-428q320 216 411 440q-89 -64 -182 -64q-129 0 -213 92t-84 230zM340 1198q0 -57 36.5 -93t92.5 -36q37 0 64 11.5t59 39.5q6 21 6 58q0 69 -36.5 108t-94.5 39q-59 0 -93 -35 t-34 -92z" />
<glyph unicode="&#x207a;" horiz-adv-x="909" d="M100 899v236h238v237h233v-237h236v-236h-236v-235h-233v235h-238z" />
<glyph unicode="&#x207c;" horiz-adv-x="909" d="M100 721v233h707v-233h-707zM100 1081v234h707v-234h-707z" />
<glyph unicode="&#x207d;" horiz-adv-x="604" d="M86 1018q0 403 242 688h288q-266 -304 -266 -688q0 -191 62.5 -360.5t203.5 -327.5h-288q-242 285 -242 688z" />
<glyph unicode="&#x207e;" horiz-adv-x="604" d="M-10 330q268 304 268 688q0 382 -268 688h291q241 -284 241 -688t-241 -688h-291z" />
<glyph unicode="&#x207f;" horiz-adv-x="876" d="M96 1202l256 6l-6 -112q81 127 221 127q98 0 155.5 -69.5t57.5 -205.5v-452h-256v403q0 37 -19.5 59.5t-58.5 22.5q-47 0 -90 -43v-442h-256v481z" />
<glyph unicode="&#x2080;" horiz-adv-x="964" d="M82 25q0 255 109.5 397.5t287.5 142.5q183 0 293.5 -142t110.5 -398q0 -257 -110.5 -399t-293.5 -142q-178 0 -287.5 142.5t-109.5 398.5zM350 25q0 -139 35 -213t94 -74q62 0 97.5 74t35.5 213q0 141 -35.5 213.5t-97.5 72.5q-59 0 -94 -73t-35 -213z" />
<glyph unicode="&#x2081;" horiz-adv-x="696" d="M82 154v190l264 203h221v-1045h-266v738z" />
<glyph unicode="&#x2082;" horiz-adv-x="909" d="M59 -498l289 404q104 144 133 198.5t29 106.5q0 44 -34 72t-93 28q-64 0 -121 -19t-137 -61v263q115 71 278 71q178 0 275.5 -95.5t97.5 -248.5q0 -90 -48 -168t-157 -194l-88 -92h328v-265h-752z" />
<glyph unicode="&#x2083;" horiz-adv-x="882" d="M102 -201q137 -67 275 -67q70 0 104.5 26.5t34.5 69.5q0 46 -36.5 71t-106.5 25h-131v213h114q121 0 121 84q0 44 -33 68t-96 24q-113 0 -239 -57v254q113 55 260 55q168 0 271 -83.5t103 -221.5q0 -142 -149 -215q184 -74 184 -264q0 -137 -100.5 -217t-282.5 -80 q-168 0 -293 49v266z" />
<glyph unicode="&#x2084;" horiz-adv-x="954" d="M31 -313l501 858h273v-643h84v-215h-84v-185h-262v185h-512zM352 -98h191v331z" />
<glyph unicode="&#x2085;" horiz-adv-x="917" d="M131 -211q142 -55 254 -55q158 0 158 102q0 48 -47.5 76.5t-149.5 28.5q-97 0 -205 -17l33 621h586v-266h-383l-4 -115h37q199 0 301 -90.5t102 -237.5q0 -165 -107.5 -258.5t-297.5 -93.5q-140 0 -277 41v264z" />
<glyph unicode="&#x2086;" horiz-adv-x="952" d="M74 -94q0 131 48.5 256t118 215.5t160.5 167.5h433q-190 -120 -296.5 -224.5t-150.5 -214.5q79 56 176 56q131 0 215 -89t84 -227q0 -157 -99.5 -259.5t-277.5 -102.5q-188 0 -299.5 115.5t-111.5 306.5zM352 -137q0 -69 37 -107.5t96 -38.5q58 0 92.5 35t34.5 92 q0 56 -34.5 92.5t-90.5 36.5q-68 0 -127 -53q-8 -28 -8 -57z" />
<glyph unicode="&#x2087;" horiz-adv-x="897" d="M86 281v266h778l-401 -1045h-311l358 779h-424z" />
<glyph unicode="&#x2088;" horiz-adv-x="919" d="M72 -231q0 81 45 140.5t125 92.5q-66 47 -103 114.5t-37 139.5q0 136 101.5 223.5t249.5 87.5q161 0 261.5 -83.5t100.5 -207.5q0 -129 -133 -200q79 -45 122.5 -122t43.5 -167q0 -138 -99 -220.5t-280 -82.5t-289 80.5t-108 204.5zM328 -193q0 -47 40 -78.5t105 -31.5 q51 0 81 24t30 60q0 51 -82 92l-99 51q-38 -27 -56.5 -54t-18.5 -63zM360 266q0 -47 50 -69l100 -45q57 47 57 98q0 39 -29.5 64.5t-82.5 25.5q-44 0 -69.5 -21.5t-25.5 -52.5z" />
<glyph unicode="&#x2089;" horiz-adv-x="952" d="M90 201q0 159 99.5 261.5t277.5 102.5q188 0 299 -116t111 -308q0 -201 -78 -362.5t-213 -276.5h-428q319 215 411 441q-89 -64 -182 -64q-129 0 -213 92t-84 230zM340 205q0 -57 36.5 -93t92.5 -36q37 0 64 11.5t59 39.5q6 21 6 57q0 69 -36.5 108.5t-94.5 39.5 q-59 0 -93 -35t-34 -92z" />
<glyph unicode="&#x208d;" horiz-adv-x="604" d="M86 25q0 403 242 688h288q-266 -304 -266 -688q0 -191 62.5 -361t203.5 -328h-288q-242 285 -242 689z" />
<glyph unicode="&#x208e;" horiz-adv-x="604" d="M-10 -664q268 304 268 689q0 382 -268 688h291q241 -284 241 -688q0 -405 -241 -689h-291z" />
<glyph unicode="&#x20ac;" d="M55 631v229h111q26 201 135 352.5t274 230.5t363 79q110 0 229 -25v-369q-110 43 -229 43q-152 0 -260 -85t-141 -226h538l-82 -229h-456q26 -137 138 -223t265 -86q128 0 238 43v-367q-138 -29 -238 -29q-147 0 -282 48.5t-238.5 134.5t-171.5 210.5t-82 268.5h-111z " />
<glyph unicode="&#x2116;" horiz-adv-x="2562" d="M150 0v1491h352l706 -932v932h332v-1491h-352l-707 928v-928h-331zM1747 799q0 164 103 269.5t282 105.5q173 0 273 -107t100 -264q0 -163 -104.5 -269t-282.5 -106q-115 0 -201 52t-128 135.5t-42 183.5zM2003 805q0 -60 36.5 -98.5t92.5 -38.5q52 0 84.5 34.5 t32.5 92.5q0 59 -37 98t-92 39q-52 0 -84.5 -33.5t-32.5 -93.5z" />
<glyph unicode="&#x2122;" horiz-adv-x="1978" d="M43 1243v248h713v-248h-221v-653h-269v653h-223zM834 590v901h251l250 -361l248 361h260v-901h-264v438l-250 -360l-239 348v-426h-256z" />
<glyph unicode="&#x2190;" horiz-adv-x="2048" d="M0 745l825 588v-311l-276 -152l1499 39v-323l-1499 37l276 -154v-311z" />
<glyph unicode="&#x2191;" horiz-adv-x="2048" d="M436 944l588 825l588 -825h-312l-151 277l39 -1500h-324l37 1500l-153 -277h-312z" />
<glyph unicode="&#x2192;" horiz-adv-x="2048" d="M0 586v323l1499 -39l-276 152v311l825 -588l-825 -587v311l276 154z" />
<glyph unicode="&#x2193;" horiz-adv-x="2048" d="M436 547h312l153 -277l-37 1499h324l-39 -1499l151 277h312l-588 -826z" />
<glyph unicode="&#x2196;" horiz-adv-x="2048" d="M299 1470l999 -167l-219 -222l-303 88l1088 -1032l-230 -229l-1032 1087l86 -305l-221 -219z" />
<glyph unicode="&#x2197;" horiz-adv-x="2048" d="M299 137l1087 1032l-303 -88l-219 222l1000 167l-168 -999l-221 219l86 305l-1033 -1087z" />
<glyph unicode="&#x2198;" horiz-adv-x="2048" d="M299 1241l229 229l1033 -1087l-86 305l221 219l168 -999l-1000 168l219 221l303 -88z" />
<glyph unicode="&#x2199;" horiz-adv-x="2048" d="M299 -92l168 999l221 -219l-86 -305l1032 1087l230 -229l-1088 -1032l303 88l219 -221z" />
<glyph unicode="&#x2202;" horiz-adv-x="1218" d="M59 492q0 229 140 369t348 140q93 0 170 -24q-129 287 -512 563h493q85 -84 161 -186.5t141.5 -225.5t104 -266.5t38.5 -283.5q0 -295 -142.5 -452t-404.5 -157q-123 0 -226 43t-170 115.5t-104 167t-37 197.5zM383 498q0 -96 63 -161t158 -65q90 0 143.5 64.5 t53.5 183.5q0 53 -8 94q-51 47 -98 70t-113 23q-87 0 -143 -59t-56 -150z" />
<glyph unicode="&#x2206;" horiz-adv-x="1456" d="M10 0l514 1491h414l508 -1491h-1436zM473 313h504l-254 762z" />
<glyph unicode="&#x220f;" horiz-adv-x="1591" d="M150 -498v1989h1292v-1989h-346v1676h-598v-1676h-348z" />
<glyph unicode="&#x2211;" horiz-adv-x="1372" d="M31 -498l585 1012l-569 977h1223v-313h-633l385 -664l-404 -698h705v-314h-1292z" />
<glyph unicode="&#x221a;" d="M6 989h328l178 -418l567 1205h324l-891 -1807z" />
<glyph unicode="&#x221e;" d="M39 756q0 177 91.5 274.5t227.5 97.5q83 0 152 -40.5t131 -133.5q44 85 110 129.5t146 44.5q129 0 217 -102t88 -291q0 -176 -88.5 -274.5t-214.5 -98.5q-95 0 -165 39t-136 134q-45 -88 -105.5 -130.5t-146.5 -42.5q-58 0 -112 25t-98 72t-70.5 124t-26.5 173zM293 754 q0 -107 94 -107q61 0 105 53l-46 76q-18 31 -35.5 47.5t-28 19.5t-24.5 3q-27 0 -46 -25.5t-19 -66.5zM752 784l51 -77q40 -60 82 -60q28 0 46.5 24.5t18.5 65.5q0 50 -25.5 79.5t-66.5 29.5q-56 0 -106 -62z" />
<glyph unicode="&#x222b;" horiz-adv-x="671" d="M-111 -178q79 -17 119 -17q78 0 122 46.5t44 136.5v1302q0 235 121.5 360.5t337.5 125.5q79 0 149 -17v-303q-79 17 -118 17q-78 0 -122 -46.5t-44 -136.5v-1302q0 -235 -121.5 -360.5t-337.5 -125.5q-80 0 -150 17v303z" />
<glyph unicode="&#x2248;" d="M125 328v301q120 82 266 82q130 0 260 -58q124 -53 221 -53q123 0 246 94v-301q-120 -82 -266 -82q-130 0 -260 58q-124 53 -221 53q-123 0 -246 -94zM125 821v301q120 82 266 82q132 0 260 -57q124 -53 221 -53q123 0 246 94v-301q-120 -82 -266 -82q-132 0 -260 57 q-124 53 -221 53q-123 0 -246 -94z" />
<glyph unicode="&#x2260;" d="M125 352v289h326l49 209h-375v289h442l76 323h295l-78 -323h258v-289h-325l-48 -209h373v-289h-440l-74 -321h-297l76 321h-258z" />
<glyph unicode="&#x2264;" d="M100 909l1018 613v-344l-491 -269l491 -268v-342zM125 0v289h993v-289h-993z" />
<glyph unicode="&#x2265;" d="M125 0v289h993v-289h-993zM125 299v342l491 268l-491 269v344l1018 -613z" />
<glyph unicode="&#x25ca;" d="M84 745l537 777l538 -777l-538 -776zM416 745l205 -294l206 294l-206 295z" />
<glyph unicode="&#x25fc;" horiz-adv-x="993" d="M0 0v993h993v-993h-993z" />
<glyph unicode="&#xf6e1;" horiz-adv-x="466" d="M59 -346q0 66 45.5 112t114.5 46q88 0 149.5 -74.5t61.5 -188.5q0 -220 -162 -348h-196q141 126 141 207q0 33 -15 55t-53 50q-45 31 -65.5 64t-20.5 77z" />
<glyph unicode="&#xf6e2;" horiz-adv-x="466" d="M59 647q0 66 45.5 112t114.5 46q88 0 149.5 -74t61.5 -188q0 -220 -162 -348h-196q141 126 141 206q0 33 -15 55t-53 50q-45 31 -65.5 64t-20.5 77z" />
<glyph unicode="&#xf6e5;" horiz-adv-x="466" d="M37 -10h389v-252h-389v252z" />
<glyph unicode="&#xf6e6;" horiz-adv-x="466" d="M37 731v252h389v-252h-389z" />
<glyph unicode="&#xf6e7;" horiz-adv-x="466" d="M70 -352q0 70 45.5 117t115.5 47t116 -47t46 -117q0 -71 -46 -117.5t-116 -46.5t-115.5 46.5t-45.5 117.5z" />
<glyph unicode="&#xf6e8;" horiz-adv-x="466" d="M70 641q0 70 45.5 117t115.5 47t116 -47t46 -117q0 -71 -46 -117.5t-116 -46.5t-115.5 46.5t-45.5 117.5z" />
<glyph unicode="&#xf6e9;" horiz-adv-x="776" d="M59 670q0 165 205 215q45 11 164 24q0 84 -113 84q-102 0 -229 -55v229q128 56 264 56q162 0 248 -79t86 -235v-200l57 -205l-254 -27l-30 137q-26 -65 -76.5 -101t-112.5 -36q-98 0 -153.5 54t-55.5 139zM285 715q0 -25 17 -41.5t44 -16.5q53 0 82 56v98 q-69 -6 -106 -32t-37 -64z" />
<glyph unicode="&#xf6ea;" horiz-adv-x="909" d="M100 518v1006l258 8l-16 -420q98 109 215 109q124 0 208.5 -98.5t84.5 -256.5q0 -185 -120 -287t-308 -102q-109 0 -238 25zM356 711q48 -6 74 -6q76 0 116 40t40 111q0 58 -34.5 94.5t-88.5 36.5q-55 0 -107 -31v-245z" />
<glyph unicode="&#xf6eb;" horiz-adv-x="907" d="M57 834q0 93 34 169t92 124t132.5 74t157.5 26q36 0 76 -4v301l262 8l-6 -395v-400l29 -241h-254l-17 96q-69 -111 -201 -111q-129 0 -217 98t-88 255zM317 844q0 -58 38 -93.5t102 -35.5q53 0 92 26v248q-27 6 -74 6q-76 0 -117 -40t-41 -111z" />
<glyph unicode="&#xf6ec;" horiz-adv-x="849" d="M57 848q0 163 105 269t268 106q157 0 260 -94t103 -238v-84h-488q7 -42 51.5 -70t124.5 -28q116 0 271 57v-242q-128 -47 -275 -47q-208 0 -314 100t-106 271zM307 913h238q-3 42 -33 71.5t-80 29.5t-83.5 -28t-41.5 -73z" />
<glyph unicode="&#xf6ed;" horiz-adv-x="440" d="M45 1405q0 58 46.5 92.5t129.5 34.5q86 0 134 -34.5t48 -92.5q0 -59 -47.5 -92t-134.5 -33q-84 0 -130 33t-46 92zM94 496v704h256v-704h-256z" />
<glyph unicode="&#xf6ee;" horiz-adv-x="440" d="M96 496v1028l256 8l-2 -395v-641h-254z" />
<glyph unicode="&#xf6ef;" horiz-adv-x="1282" d="M102 1202l256 6l-8 -114q85 129 215 129q140 0 183 -129q46 64 98.5 96.5t124.5 32.5q95 0 155 -74t60 -201v-452h-256v417q0 31 -17.5 49.5t-44.5 18.5q-50 0 -96 -43v-442h-256v417q0 32 -17 50t-46 18q-53 0 -93 -43v-442h-256v481z" />
<glyph unicode="&#xf6f0;" horiz-adv-x="872" d="M57 848q0 164 103 269.5t282 105.5q173 0 273 -107t100 -264q0 -163 -104.5 -269t-282.5 -106q-115 0 -201 52t-128 135.5t-42 183.5zM313 854q0 -60 36.5 -98.5t92.5 -38.5q52 0 84.5 34.5t32.5 92.5q0 59 -37 98t-92 39q-52 0 -84.5 -33.5t-32.5 -93.5z" />
<glyph unicode="&#xf6f1;" horiz-adv-x="632" d="M90 1202l254 6l-6 -147q36 74 100 118t140 44q23 0 47 -4v-271q-62 8 -101 8q-100 0 -172 -45v-415h-252v481z" />
<glyph unicode="&#xf6f2;" horiz-adv-x="643" d="M57 1004q0 88 79 153.5t216 65.5q116 0 211 -23v-262q-115 43 -215 43q-72 0 -72 -29q0 -24 46 -32l94 -25q96 -26 139 -77.5t43 -131.5q0 -99 -73.5 -154t-225.5 -55q-129 0 -227 33v260q128 -53 239 -53q72 0 72 33q0 25 -47 34l-90 23q-101 26 -145 73t-44 124z" />
<glyph unicode="&#xf6f3;" horiz-adv-x="593" d="M20 981v139l342 271v-187h195v-223h-195v-195q0 -65 80 -65q48 0 125 22v-241q-89 -25 -172 -25q-128 0 -208.5 77.5t-80.5 215.5v211h-86z" />
<glyph horiz-adv-x="784" d="M12 729v189l138 75v35q0 104 35 196.5t100 163t165.5 111.5t223.5 41q78 0 127 -8v-332q-56 12 -117 12q-96 0 -153.5 -50t-57.5 -134v-35h311v-264h-311v-377l4 -352h-327v729h-138z" />
<glyph horiz-adv-x="1742" d="M84 748q0 225 103.5 402.5t283.5 274.5t403 97q225 0 403.5 -99t279 -275.5t100.5 -399.5q0 -285 -151.5 -470.5t-420.5 -254.5q299 -82 730 -103l-66 -364q-309 46 -610.5 156t-548.5 261q-258 157 -382 349t-124 426zM451 748q0 -189 119 -313t302 -124 q180 0 300 119.5t120 312.5q0 191 -122 313t-306 122q-178 0 -295.5 -118.5t-117.5 -311.5z" />
<glyph horiz-adv-x="1302" d="M94 745q0 183 42.5 331.5t117.5 245t176.5 148.5t220.5 52t220.5 -52t176.5 -148.5t117.5 -245t42.5 -331.5t-42.5 -331.5t-117.5 -245t-176.5 -148t-220.5 -51.5t-220.5 51.5t-176.5 148t-117.5 245t-42.5 331.5zM440 745q0 -221 57 -337.5t154 -116.5t154 116.5 t57 337.5t-57 338t-154 117t-154 -117t-57 -338z" />
<glyph horiz-adv-x="937" d="M100 954v252l373 285h291v-1491h-336v1106z" />
<glyph d="M90 0l397 549q156 217 200 303t44 172q0 83 -51.5 129.5t-144.5 46.5q-100 0 -188.5 -32t-184.5 -95v342q173 107 393 107q243 0 380.5 -130.5t137.5 -351.5q0 -146 -66 -273.5t-264 -346.5l-75 -84h456v-336h-1034z" />
<glyph horiz-adv-x="1202" d="M135 37v344q177 -94 381 -94q114 0 174 40.5t60 116.5q0 73 -62 116.5t-180 43.5h-166v303h141q102 0 156.5 39.5t54.5 110.5q0 68 -55 108.5t-158 40.5q-149 0 -334 -80v320q155 76 365 76q236 0 378 -117t142 -309q0 -220 -239 -324q137 -39 217 -133t80 -240 q0 -199 -146 -314.5t-407 -115.5q-237 0 -402 68z" />
<glyph horiz-adv-x="1306" d="M41 272l715 1219h360v-920h125v-299h-125v-272h-336v272h-739zM498 571h282v504z" />
<glyph horiz-adv-x="1253" d="M172 31v329q168 -71 348 -71q129 0 195.5 46.5t66.5 131.5t-77 133.5t-244 48.5q-130 0 -277 -24l52 866h815v-336h-539l-12 -201h35q279 0 435 -127t156 -360t-151.5 -365.5t-433.5 -132.5q-206 0 -369 62z" />
<glyph horiz-adv-x="1259" d="M86 569q0 545 506 922h575q-313 -169 -494 -356.5t-229 -378.5q117 153 295 153q181 0 297.5 -125t116.5 -331q0 -212 -137.5 -348t-360.5 -136q-267 0 -418 163.5t-151 436.5zM444 510q0 -103 58 -167t147 -64q80 0 129 52.5t49 133.5q0 73 -48.5 122.5t-123.5 49.5 q-117 0 -211 -100v-27z" />
<glyph horiz-adv-x="1224" d="M104 1155v336h1090l-580 -1491h-401l532 1155h-641z" />
<glyph horiz-adv-x="1257" d="M102 381q0 121 62 207.5t190 148.5q-105 83 -153.5 166.5t-48.5 188.5q0 189 140 310.5t347 121.5q113 0 204.5 -33t150.5 -88.5t90.5 -128.5t31.5 -154q0 -215 -233 -315q142 -75 210 -174t68 -238q0 -193 -136.5 -308.5t-385.5 -115.5q-252 0 -394.5 115.5 t-142.5 296.5zM422 422q0 -73 60.5 -120.5t158.5 -47.5q95 0 142.5 38.5t47.5 98.5q0 45 -31 80.5t-110 77.5l-137 72q-131 -91 -131 -199zM475 1098q0 -71 90 -117l123 -63q56 31 87.5 73.5t31.5 89.5q0 62 -45.5 100t-124.5 38q-76 0 -119 -34.5t-43 -86.5z" />
<glyph d="M90 1020q0 221 142.5 361.5t365.5 140.5q254 0 405.5 -173t151.5 -456q0 -290 -116 -513.5t-320 -379.5h-596q612 322 684 745q-55 -73 -135.5 -117t-179.5 -44q-167 0 -284.5 121.5t-117.5 314.5zM416 1026q0 -75 50.5 -123.5t125.5 -48.5q60 0 108 25.5t97 74.5v27 q0 104 -54.5 167.5t-142.5 63.5q-79 0 -131.5 -51.5t-52.5 -134.5z" />
<glyph horiz-adv-x="1114" d="M72 1061q0 169 103 291t280 157v226h229v-215q135 -11 281 -58v-377q-107 46 -194 69.5t-189 23.5q-82 0 -124 -30t-42 -77q0 -38 28 -65.5t95 -55.5l153 -61q181 -73 266.5 -185.5t85.5 -287.5q0 -177 -92.5 -289t-279.5 -143v-228h-230v217q-205 6 -358 72v375 q117 -55 214 -82t218 -27q94 0 139 32t45 87q0 50 -31 82t-110 61l-156 58q-174 65 -252.5 170t-78.5 260z" />
<glyph horiz-adv-x="1396" d="M31 1491h403l158 -313l110 -209l113 209l162 313h389l-311 -557h252v-227h-379l-58 -103v-67h437v-230h-437v-307h-348v307h-442v230h442v75l-55 95h-387v227h260z" />
<glyph horiz-adv-x="1474" d="M25 631v229h233q27 191 137 341.5t286.5 235.5t389.5 85q175 0 334 -43v-375q-172 67 -334 67q-168 0 -287.5 -82.5t-154.5 -228.5h641l-121 -229h-520q35 -147 156 -228t298 -81q164 0 332 69v-377q-155 -45 -344 -45q-327 0 -550 183.5t-263 478.5h-233z" />
<glyph horiz-adv-x="888" d="M59 748q0 192 103.5 328t290.5 181v234h229v-213q53 -2 141 -14v-336q-92 39 -196 39q-117 0 -180.5 -56t-63.5 -157q0 -93 68.5 -154t185.5 -61q100 0 192 28v-319q-62 -17 -147 -23v-225h-229v244q-188 44 -291 177.5t-103 326.5z" />
<glyph horiz-adv-x="1167" d="M68 -31v238q96 66 135.5 153t50.5 254l2 39h-150v230h175l8 75q26 265 184 414.5t418 149.5q105 0 213 -23v-356q-102 24 -195 24q-249 0 -272 -260l-2 -24h330v-230h-355l-8 -67q-19 -155 -108 -250q60 0 106 -10q169 -33 244 -33q122 0 243 65v-342q-120 -47 -253 -47 q-92 0 -254 29q-18 3 -64 11.5t-66.5 11.5t-55.5 6.5t-66 3.5q-69 0 -124 -14t-136 -48z" />
<glyph d="M66 512q0 159 72.5 283.5t198.5 192t284 67.5t285 -67.5t199.5 -192t72.5 -283.5t-72.5 -283.5t-199.5 -192t-285 -67.5t-284 67.5t-198.5 192t-72.5 283.5zM399 512q0 -103 62 -167t160 -64t159.5 64t61.5 167t-61.5 167t-159.5 64t-160 -64t-62 -167z" />
<glyph d="M270 496v256l348 272h291v-1024h-336v639z" />
<glyph d="M147 0l349 336q111 106 145.5 159.5t34.5 110.5q0 56 -43 91.5t-123 35.5q-148 0 -313 -104v342q150 84 348 84q222 0 346.5 -104t124.5 -267q0 -106 -56 -182t-190 -166h297v-336h-920z" />
<glyph d="M162 -86q177 -94 381 -94q114 0 173.5 40t59.5 117q0 73 -61.5 116.5t-179.5 43.5h-166v303h141q102 0 156.5 39.5t54.5 110.5q0 68 -55 108.5t-158 40.5q-149 0 -334 -80v320q155 76 365 76q236 0 378 -117t142 -309q0 -220 -240 -324q137 -39 217 -133t80 -240 q0 -199 -146 -314.5t-407 -115.5q-236 0 -401 68v344z" />
<glyph d="M0 0l692 1024h385v-725h125v-299h-125v-498h-336v498h-741zM481 299h260v412z" />
<glyph d="M172 -106q171 -72 348 -72q129 0 195.5 46.5t66.5 131.5t-77 133.5t-244 48.5q-130 0 -277 -24l52 866h815v-336h-539l-12 -201h35q279 0 435 -127t156 -360t-151.5 -365.5t-433.5 -132.5q-206 0 -369 62v330z" />
<glyph d="M80 569q0 545 506 922h575q-313 -169 -494 -356.5t-229 -378.5q117 153 295 153q181 0 297.5 -125t116.5 -331q0 -212 -137.5 -348t-360.5 -136q-267 0 -418 163.5t-151 436.5zM438 510q0 -103 58 -167t147 -64q80 0 129 52.5t49 133.5q0 73 -48.5 122.5t-123.5 49.5 q-117 0 -211 -100v-27z" />
<glyph d="M109 688v336h1089l-577 -1522h-402l531 1186h-641z" />
<glyph d="M104 381q0 121 62 207.5t190 148.5q-105 83 -153.5 166.5t-48.5 188.5q0 189 140 310.5t347 121.5q113 0 204.5 -33t150.5 -88.5t90.5 -128.5t31.5 -154q0 -215 -233 -315q142 -75 210 -174t68 -238q0 -193 -136.5 -308.5t-385.5 -115.5q-252 0 -394.5 115.5 t-142.5 296.5zM424 422q0 -73 60.5 -120.5t158.5 -47.5q95 0 143 38.5t48 98.5q0 45 -31.5 80.5t-110.5 77.5l-137 72q-131 -91 -131 -199zM477 1098q0 -71 90 -117l123 -63q56 31 87.5 73.5t31.5 89.5q0 62 -45.5 100t-124.5 38q-76 0 -119 -34.5t-43 -86.5z" />
<glyph d="M86 553q0 221 142.5 361.5t365.5 140.5q254 0 405.5 -173t151.5 -456q0 -290 -123.5 -529t-327.5 -395h-596q313 164 488.5 366.5t210.5 410.5q-55 -72 -134.5 -117t-172.5 -45q-172 0 -291 121.5t-119 314.5zM412 559q0 -75 50.5 -123.5t125.5 -48.5q60 0 108 25.5 t97 74.5v27q0 104 -54.5 167.5t-142.5 63.5q-81 0 -132.5 -51t-51.5 -135z" />
<glyph horiz-adv-x="673" d="M47 848q0 165 112 270t298 105q89 0 155 -13v-272q-84 35 -157 35q-70 0 -110 -33.5t-40 -89.5q0 -53 44 -89t118 -36q55 0 149 23v-254q-87 -17 -163 -17q-187 0 -296.5 102.5t-109.5 268.5z" />
<glyph horiz-adv-x="589" d="M12 961v139l94 78v12q0 97 41.5 178t127 132.5t200.5 51.5q58 0 103 -10v-246q-61 9 -93 9q-56 0 -89.5 -30.5t-33.5 -78.5v-12h209v-223h-209v-465h-256v465h-94z" />
<glyph horiz-adv-x="937" d="M66 827q0 176 122 286t328 110q106 0 236 -21l88 -14v-610q0 -92 -24.5 -165.5t-77 -131t-142.5 -88.5t-213 -31q-159 0 -287 41v252q168 -54 283 -54q103 0 158 44t55 120v58q-79 -117 -227 -117q-131 0 -215 87.5t-84 233.5zM332 858q0 -57 35 -89t98 -32q73 0 119 31 v219q-48 6 -82 6q-77 0 -123.5 -37t-46.5 -98z" />
<glyph horiz-adv-x="892" d="M102 496v1028l256 8l-2 -395v-158l62 68l131 153h332l-291 -303l303 -401h-346l-101 147l-40 68l-50 -47v-168h-254z" />
<glyph horiz-adv-x="907" d="M96 1200l246 4v-104q73 121 215 121q122 0 206.5 -99t84.5 -256q0 -93 -34 -168.5t-91 -123.5t-129 -73.5t-152 -25.5q-50 0 -86 4l2 -325h-258v819zM356 711q48 -6 74 -6q76 0 116 40t40 111q0 58 -34.5 94.5t-88.5 36.5q-55 0 -107 -31v-245z" />
<glyph horiz-adv-x="911" d="M59 831q0 185 120 288.5t308 103.5q108 0 234 -21l90 -14v-1026h-260l10 426q-37 -56 -86.5 -82.5t-122.5 -26.5q-124 0 -208.5 97.5t-84.5 254.5zM324 842q0 -57 34 -93t88 -36q61 0 109 30v244q-54 6 -76 6q-75 0 -115 -39.5t-40 -111.5z" />
<glyph horiz-adv-x="870" d="M92 758v446h256v-401q0 -37 19.5 -59.5t58.5 -22.5q46 0 90 41v442h256v-479l21 -225l-248 -6l-15 116q-93 -131 -215 -131q-105 0 -164 71t-59 208z" />
<glyph horiz-adv-x="817" d="M4 1204h283l73 -217l52 -149l53 145l78 221h270l-252 -708h-305z" />
<glyph horiz-adv-x="778" d="M8 496l293 465h-252v243h688l-286 -467h280v-241h-723z" />
<glyph horiz-adv-x="1445" d="M12 729v189l138 75v35q0 104 35 196.5t100 163t165.5 111.5t223.5 41q78 0 127 -8v-332q-62 12 -117 12q-96 0 -153.5 -50t-57.5 -134v-35h338v35q0 104 35 196.5t100 163t165.5 111.5t223.5 41q75 0 127 -8v-332q-62 12 -116 12q-98 0 -155.5 -50t-57.5 -134v-35h313 v-264h-313v-377l6 -352h-328v729h-338v-377l4 -352h-327v729h-138z" />
<glyph horiz-adv-x="806" d="M106 745q0 595 340 994h361q-365 -419 -365 -994q0 -576 365 -995h-361q-340 403 -340 995z" />
<glyph horiz-adv-x="806" d="M0 -250q365 416 365 995q0 578 -365 994h360q340 -399 340 -994q0 -592 -340 -995h-360z" />
<glyph horiz-adv-x="806" d="M104 606v279h66q100 0 100 92q0 29 -24 147l-13 56q-22 90 -22 176q0 170 113.5 276.5t281.5 106.5h166v-281h-96q-71 0 -109.5 -40.5t-38.5 -110.5q0 -40 17 -117l12 -57q14 -66 14 -148q0 -94 -49.5 -155t-136.5 -85q88 -26 137 -86.5t49 -154.5q0 -82 -14 -148 l-12 -57q-17 -76 -17 -117q0 -69 38.5 -110t109.5 -41h96v-281h-166q-168 0 -281.5 106.5t-113.5 276.5q0 86 22 176l13 56q24 118 24 149q0 41 -24.5 66.5t-75.5 25.5h-66z" />
<glyph horiz-adv-x="806" d="M35 31h96q72 0 110 41t38 110q0 20 -2.5 41.5t-7 46t-5.5 29.5l-14 57q-14 82 -14 148q0 94 49.5 154.5t136.5 86.5q-86 24 -136 85t-50 155q0 66 14 148l14 57q1 5 5.5 29.5t7 46t2.5 41.5q0 70 -38 110.5t-110 40.5h-96v281h166q168 0 281.5 -106.5t113.5 -276.5 q0 -82 -23 -176l-12 -56q-24 -118 -24 -147q0 -42 25 -67t77 -25h63v-279h-63q-51 0 -76.5 -25.5t-25.5 -66.5q0 -31 24 -149l12 -56q23 -94 23 -176q0 -170 -113.5 -276.5t-281.5 -106.5h-166v281z" />
<glyph horiz-adv-x="806" d="M131 -250v1989h641v-180h-328v-1627h328v-182h-641z" />
<glyph horiz-adv-x="806" d="M35 -68h327v1627h-327v180h641v-1989h-641v182z" />
<glyph horiz-adv-x="620" d="M49 584v323h522v-323h-522z" />
<glyph horiz-adv-x="620" d="M49 584v323h522v-323h-522z" />
<glyph horiz-adv-x="1024" d="M0 584v323h1024v-323h-1024z" />
<glyph horiz-adv-x="2048" d="M0 584v323h2048v-323h-2048z" />
<glyph d="M20 748l314 501h350l-307 -501l307 -492h-350zM557 748l313 501h351l-306 -501l306 -492h-351z" />
<glyph d="M23 256l305 492l-305 501h350l313 -501l-313 -492h-350zM559 256l305 492l-305 501h350l314 -501l-314 -492h-350z" />
<glyph horiz-adv-x="706" d="M20 748l314 501h350l-307 -501l307 -492h-350z" />
<glyph horiz-adv-x="706" d="M23 256l305 492l-305 501h350l313 -501l-313 -492h-350z" />
<glyph d="M66 745q0 184 42 332t116.5 244.5t176 148.5t220.5 52q120 0 221.5 -51.5t176.5 -148.5t117 -245t42 -332t-42 -331.5t-117 -244.5t-176.5 -148.5t-221.5 -51.5q-119 0 -220.5 51.5t-176 148t-116.5 244.5t-42 332zM410 745q0 -63 2 -92l383 383q-27 81 -72.5 122.5 t-101.5 41.5q-96 0 -153.5 -117t-57.5 -338zM453 444q56 -153 168 -153q97 0 155 116.5t58 337.5q0 14 -1.5 38.5t-1.5 35.5z" />
<glyph horiz-adv-x="1159" d="M-86 -475l33 295q47 -15 84 -15q144 0 176 158l158 758h-136l43 197l154 75l10 58q40 235 186 362t384 127q69 0 143 -12l-33 -328q-52 12 -110 12q-103 0 -166.5 -46t-77.5 -117l-12 -56h311l-60 -272h-311l-164 -782q-49 -231 -162 -334t-311 -103q-75 0 -139 23z" />
<glyph horiz-adv-x="776" d="M59 621q0 165 205 215q45 11 164 24q0 84 -113 84q-102 0 -229 -55v229q128 56 264 56q162 0 248 -79t86 -235v-201l57 -204l-254 -27l-30 137q-26 -65 -76.5 -101t-112.5 -36q-98 0 -153.5 54t-55.5 139zM285 666q0 -25 17 -41.5t44 -16.5q53 0 82 56v98 q-69 -6 -106 -32t-37 -64z" />
<glyph horiz-adv-x="909" d="M100 469v1006l258 8l-16 -420q97 108 215 108q124 0 208.5 -98t84.5 -256q0 -185 -120 -287t-308 -102q-109 0 -238 25zM356 662q56 -7 74 -7q76 0 116 40.5t40 111.5q0 58 -34.5 94.5t-88.5 36.5q-55 0 -107 -31v-245z" />
<glyph horiz-adv-x="673" d="M47 799q0 165 112 270t298 105q89 0 155 -13v-272q-84 35 -157 35q-70 0 -110 -33.5t-40 -89.5q0 -53 44 -89t118 -36q59 0 149 22v-254q-82 -16 -163 -16q-187 0 -296.5 102.5t-109.5 268.5z" />
<glyph horiz-adv-x="907" d="M57 784q0 123 59 214.5t152 135.5t205 44q36 0 76 -4v301l262 8l-6 -396v-399l29 -242h-254l-17 97q-69 -111 -201 -111q-129 0 -217 98t-88 254zM317 795q0 -58 38 -93.5t102 -35.5q53 0 92 26v248q-27 6 -74 6q-76 0 -117 -40t-41 -111z" />
<glyph horiz-adv-x="849" d="M57 799q0 163 105 269t268 106q157 0 260 -94t103 -238v-84h-488q7 -42 51.5 -70.5t124.5 -28.5q113 0 271 58v-242q-128 -47 -275 -47q-208 0 -314 100t-106 271zM307 864h238q-3 42 -33 71.5t-80 29.5t-83.5 -28t-41.5 -73z" />
<glyph horiz-adv-x="589" d="M12 911v140l94 77v13q0 97 41.5 178t127 132.5t200.5 51.5q58 0 103 -10v-246q-54 8 -93 8q-56 0 -89.5 -30t-33.5 -78v-12h209v-224h-209v-465h-256v465h-94z" />
<glyph horiz-adv-x="937" d="M66 778q0 176 122 286t328 110q106 0 236 -21l88 -14v-611q0 -92 -24.5 -165.5t-77 -130.5t-142.5 -88t-213 -31q-159 0 -287 41v252q168 -54 283 -54q103 0 158 44t55 120v57q-78 -116 -227 -116q-131 0 -215 87.5t-84 233.5zM332 809q0 -57 35 -89t98 -32q73 0 119 31 v219q-48 6 -82 6q-77 0 -123.5 -37t-46.5 -98z" />
<glyph horiz-adv-x="876" d="M100 446v1029l258 8l-12 -436q93 127 215 127q102 0 160.5 -71t58.5 -208v-449h-256v404q0 37 -19.5 59.5t-58.5 22.5q-47 0 -90 -43v-443h-256z" />
<glyph horiz-adv-x="440" d="M45 1356q0 58 46.5 92.5t129.5 34.5q86 0 134 -34.5t48 -92.5q0 -59 -47.5 -92t-134.5 -33q-84 0 -130 33t-46 92zM94 446v705h256v-705h-256z" />
<glyph horiz-adv-x="460" d="M-35 125v240q44 -13 74 -13q76 0 76 82v717h256v-721q0 -153 -80 -235t-228 -82q-57 0 -98 12zM61 1356q0 58 47 92.5t130 34.5q86 0 134 -34.5t48 -92.5q0 -59 -47.5 -92t-134.5 -33q-84 0 -130.5 33t-46.5 92z" />
<glyph horiz-adv-x="892" d="M102 446v1029l256 8l-2 -396v-157l62 67l131 154h332l-291 -303l303 -402h-346l-101 148l-40 68l-50 -48v-168h-254z" />
<glyph horiz-adv-x="440" d="M96 446v1029l256 8l-2 -396v-641h-254z" />
<glyph horiz-adv-x="1282" d="M102 1153l256 6l-8 -115q86 130 215 130q139 0 183 -130q47 64 99 97t124 33q95 0 155 -74t60 -201v-453h-256v418q0 31 -17.5 49.5t-44.5 18.5q-50 0 -96 -43v-443h-256v418q0 32 -17 50t-46 18q-53 0 -93 -43v-443h-256v482z" />
<glyph horiz-adv-x="876" d="M96 1153l256 6l-6 -112q81 127 221 127q98 0 155.5 -69.5t57.5 -205.5v-453h-256v404q0 37 -19.5 59.5t-58.5 22.5q-47 0 -90 -43v-443h-256v482z" />
<glyph horiz-adv-x="872" d="M57 799q0 164 103 269.5t282 105.5q173 0 273 -107t100 -264q0 -163 -104.5 -269t-282.5 -106q-115 0 -201 52t-128 135.5t-42 183.5zM313 805q0 -60 36.5 -98.5t92.5 -38.5q52 0 84.5 34.5t32.5 92.5q0 59 -37 98t-92 39q-52 0 -84.5 -33.5t-32.5 -93.5z" />
<glyph horiz-adv-x="907" d="M96 1151l246 4v-104q72 120 215 120q122 0 206.5 -98.5t84.5 -255.5q0 -93 -34 -168.5t-91 -123.5t-129 -73.5t-152 -25.5q-50 0 -86 4l2 -326h-258v820zM356 662q56 -7 74 -7q76 0 116 40.5t40 111.5q0 58 -34.5 94.5t-88.5 36.5q-55 0 -107 -31v-245z" />
<glyph horiz-adv-x="911" d="M59 782q0 185 120 288.5t308 103.5q108 0 234 -21l90 -14v-1026h-260l10 426q-37 -56 -86.5 -82.5t-122.5 -26.5q-124 0 -208.5 97.5t-84.5 254.5zM324 793q0 -57 34 -93t88 -36q61 0 109 30v244q-54 6 -76 6q-75 0 -115 -40t-40 -111z" />
<glyph horiz-adv-x="632" d="M90 1153l254 6l-6 -147q36 74 100 118t140 44q17 0 47 -5v-270q-62 8 -101 8q-100 0 -172 -45v-416h-252v482z" />
<glyph horiz-adv-x="643" d="M57 954q0 88 79 154t216 66q116 0 211 -23v-262q-115 43 -215 43q-72 0 -72 -29q0 -25 46 -33l94 -24q96 -26 139 -77.5t43 -131.5q0 -99 -73.5 -154t-225.5 -55q-129 0 -227 33v260q128 -53 239 -53q72 0 72 32q0 26 -47 35l-90 23q-101 26 -145 73t-44 123z" />
<glyph horiz-adv-x="593" d="M20 932v139l342 270v-186h195v-223h-195v-195q0 -65 80 -65q48 0 125 22v-241q-89 -25 -172 -25q-128 0 -208.5 77.5t-80.5 215.5v211h-86z" />
<glyph horiz-adv-x="870" d="M92 709v446h256v-401q0 -37 19.5 -59.5t58.5 -22.5q46 0 90 41v442h256v-479l21 -225l-248 -7l-15 117q-93 -131 -215 -131q-105 0 -164 71t-59 208z" />
<glyph horiz-adv-x="817" d="M4 1155h283l73 -217l52 -150l53 146l78 221h270l-252 -709h-305z" />
<glyph horiz-adv-x="1284" d="M12 1155h273l61 -221l47 -139l117 360h272l115 -367l49 152l62 215h264l-223 -709h-293l-115 345l-113 -345h-295z" />
<glyph horiz-adv-x="811" d="M2 446l244 373l-232 336h320l86 -141l80 141h293l-226 -352l244 -357h-322l-102 162l-86 -162h-299z" />
<glyph horiz-adv-x="815" d="M4 1155h283l73 -217v2l52 -147l49 139l74 223h276l-391 -1042h-295l135 315z" />
<glyph horiz-adv-x="778" d="M8 446l293 465h-252v244h688l-286 -467h280v-242h-723z" />
<glyph horiz-adv-x="604" d="M86 969q0 403 242 688h288q-266 -304 -266 -688q0 -191 62.5 -360.5t203.5 -327.5h-288q-242 285 -242 688z" />
<glyph horiz-adv-x="604" d="M-10 281q268 304 268 688q0 382 -268 688h291q241 -284 241 -688t-241 -688h-291z" />
<glyph horiz-adv-x="466" d="M37 682v252h389v-252h-389z" />
<glyph horiz-adv-x="466" d="M59 598q0 66 45.5 112t114.5 46q88 0 149.5 -74t61.5 -188q0 -221 -162 -349h-196q141 126 141 207q0 33 -15 55t-53 50q-45 31 -65.5 64t-20.5 77z" />
<glyph horiz-adv-x="466" d="M70 592q0 70 45.5 117t115.5 47t116 -47t46 -117q0 -71 -46 -117.5t-116 -46.5t-115.5 46.5t-45.5 117.5z" />
<glyph horiz-adv-x="909" d="M100 850v235h238v238h233v-238h236v-235h-236v-236h-233v236h-238z" />
<glyph horiz-adv-x="909" d="M100 672v233h707v-233h-707zM100 1032v234h707v-234h-707z" />
<glyph horiz-adv-x="776" d="M59 -324q0 165 205 215q53 13 164 25q0 84 -113 84q-102 0 -229 -55v229q126 55 264 55q162 0 248 -78.5t86 -234.5v-201l57 -204l-254 -27l-30 137q-26 -65 -76.5 -101t-112.5 -36q-98 0 -153.5 53.5t-55.5 138.5zM285 -279q0 -25 17 -41t44 -16q54 0 82 55v99 q-68 -6 -105.5 -32.5t-37.5 -64.5z" />
<glyph horiz-adv-x="909" d="M100 -475v1005l258 9l-16 -420q97 108 215 108q124 0 208.5 -98t84.5 -256q0 -185 -120 -287t-308 -102q-115 0 -238 24zM356 -37v-246q48 -6 74 -6q76 0 116 40.5t40 111.5q0 58 -34.5 94.5t-88.5 36.5q-55 0 -107 -31z" />
<glyph horiz-adv-x="673" d="M47 -145q0 165 111.5 269.5t298.5 104.5q94 0 155 -12v-272q-84 35 -157 35q-70 0 -110 -33.5t-40 -89.5q0 -53 44 -89t118 -36q59 0 149 22v-254q-82 -16 -163 -16q-187 0 -296.5 102.5t-109.5 268.5z" />
<glyph horiz-adv-x="907" d="M57 -160q0 93 34 169t92 124t132.5 74t157.5 26q36 0 76 -4v301l262 9l-6 -396v-399l29 -242h-254l-17 97q-69 -111 -201 -111q-129 0 -217 98t-88 254zM317 -150q0 -58 38 -93.5t102 -35.5q51 0 92 27v248q-27 6 -74 6q-76 0 -117 -40.5t-41 -111.5z" />
<glyph horiz-adv-x="849" d="M57 -145q0 163 105 268.5t268 105.5q157 0 260 -93.5t103 -237.5v-84h-488q7 -42 51.5 -70.5t124.5 -28.5q113 0 271 58v-242q-128 -47 -275 -47q-208 0 -314 100t-106 271zM307 -80h238q-3 42 -33 71t-80 29t-83.5 -27.5t-41.5 -72.5z" />
<glyph horiz-adv-x="589" d="M12 -33v139l94 78v13q0 97 41.5 178t127 132.5t200.5 51.5q58 0 103 -10v-246q-54 8 -93 8q-56 0 -89.5 -30t-33.5 -78v-13h209v-223h-209v-465h-256v465h-94z" />
<glyph horiz-adv-x="937" d="M66 -166q0 176 122 285.5t328 109.5q113 0 236 -20l88 -14v-611q0 -92 -24.5 -165.5t-77 -130.5t-142.5 -88t-213 -31q-162 0 -287 40v252q164 -53 283 -53q103 0 158 44t55 120v57q-78 -116 -227 -116q-131 0 -215 87.5t-84 233.5zM332 -135q0 -57 35 -89t98 -32 q73 0 119 31v219q-48 6 -82 6q-77 0 -123.5 -37t-46.5 -98z" />
<glyph horiz-adv-x="876" d="M100 -498v1028l258 9l-12 -437q93 127 215 127q102 0 160.5 -71t58.5 -207v-449h-256v404q0 37 -19.5 59.5t-58.5 22.5q-47 0 -90 -43v-443h-256z" />
<glyph horiz-adv-x="440" d="M45 412q0 58 46.5 92.5t129.5 34.5q86 0 134 -34.5t48 -92.5q0 -59 -47.5 -92t-134.5 -33q-84 0 -130 33t-46 92zM94 207h256v-705h-256v705z" />
<glyph horiz-adv-x="460" d="M-35 -580q41 -12 74 -12q76 0 76 82v717h256v-721q0 -153 -80 -235t-228 -82q-57 0 -98 12v239zM61 412q0 58 47 92.5t130 34.5q86 0 134 -34.5t48 -92.5q0 -59 -47.5 -92t-134.5 -33q-84 0 -130.5 33t-46.5 92z" />
<glyph horiz-adv-x="892" d="M102 -498v1028l256 9l-2 -396v-157l62 67l131 154h332l-291 -303l303 -402h-346l-101 148l-40 67l-50 -47v-168h-254z" />
<glyph horiz-adv-x="440" d="M96 -498v1028l256 9l-2 -396v-641h-254z" />
<glyph horiz-adv-x="1282" d="M102 209l256 6l-8 -115q85 129 215 129q140 0 183 -129q46 64 98.5 96.5t124.5 32.5q96 0 155.5 -73.5t59.5 -200.5v-453h-256v418q0 31 -17.5 49.5t-44.5 18.5q-50 0 -96 -43v-443h-256v418q0 32 -17 50t-46 18q-53 0 -93 -43v-443h-256v482z" />
<glyph horiz-adv-x="876" d="M96 209l256 6l-6 -113q81 127 221 127q99 0 156 -69.5t57 -204.5v-453h-256v404q0 37 -19.5 59.5t-58.5 22.5q-47 0 -90 -43v-443h-256v482z" />
<glyph horiz-adv-x="872" d="M57 -145q0 164 103 269t282 105q173 0 273 -107t100 -263q0 -163 -104.5 -269t-282.5 -106q-115 0 -201 52t-128 135.5t-42 183.5zM313 -139q0 -60 36.5 -98.5t92.5 -38.5q52 0 84.5 34t32.5 92q0 59 -37.5 98.5t-91.5 39.5q-52 0 -84.5 -33.5t-32.5 -93.5z" />
<glyph horiz-adv-x="907" d="M96 207l246 4v-105q73 121 215 121q122 0 206.5 -98.5t84.5 -255.5q0 -93 -34 -168.5t-91 -123.5t-129 -73.5t-152 -25.5q-50 0 -86 4l2 -326h-258v820zM356 -37v-246q48 -6 74 -6q76 0 116 40.5t40 111.5q0 58 -34.5 94.5t-88.5 36.5q-55 0 -107 -31z" />
<glyph horiz-adv-x="911" d="M59 -162q0 185 120 288t308 103q114 0 234 -20l90 -14v-1026h-260l10 425q-37 -56 -86.5 -82t-122.5 -26q-124 0 -208.5 97.5t-84.5 254.5zM324 -152q0 -57 34 -93t88 -36q59 0 109 31v244q-54 6 -76 6q-75 0 -115 -40t-40 -112z" />
<glyph horiz-adv-x="632" d="M90 209l254 6l-6 -147q36 73 99.5 117t140.5 44q23 0 47 -4v-270q-62 8 -101 8q-100 0 -172 -45v-416h-252v482z" />
<glyph horiz-adv-x="643" d="M57 10q0 88 79 153.5t216 65.5q120 0 211 -22v-262q-115 43 -215 43q-72 0 -72 -29q0 -25 46 -33l94 -24q96 -26 139 -77.5t43 -131.5q0 -99 -73.5 -154t-225.5 -55q-129 0 -227 33v260q128 -53 239 -53q72 0 72 32q0 26 -47 35l-90 23q-101 26 -145 73t-44 123z" />
<glyph horiz-adv-x="593" d="M20 -12v139l342 270v-186h195v-223h-195v-195q0 -65 80 -65q48 0 125 22v-242q-86 -24 -172 -24q-128 0 -208.5 77.5t-80.5 215.5v211h-86z" />
<glyph horiz-adv-x="870" d="M92 211h256v-401q0 -37 19.5 -59.5t58.5 -22.5q46 0 90 41v442h256v-479l21 -226l-248 -6l-15 117q-93 -131 -215 -131q-105 0 -164 70.5t-59 207.5v447z" />
<glyph horiz-adv-x="817" d="M4 211h283l73 -217l52 -150l53 146l78 221h270l-252 -709h-305z" />
<glyph horiz-adv-x="1284" d="M12 211h273l61 -221l47 -140l117 361h272l115 -367l49 152l62 215h264l-223 -709h-293l-115 344l-113 -344h-295z" />
<glyph horiz-adv-x="811" d="M2 -498l244 373l-232 336h320l86 -141l80 141h293l-226 -352l244 -357h-322l-102 162l-86 -162h-299z" />
<glyph horiz-adv-x="815" d="M4 211h283l73 -217v2l52 -148l49 140l74 223h276l-391 -1042h-295l135 315z" />
<glyph horiz-adv-x="778" d="M8 -498l293 465h-252v244h688l-286 -467h280v-242h-723z" />
<glyph horiz-adv-x="964" d="M82 969q0 255 109.5 397.5t287.5 142.5q183 0 293.5 -142t110.5 -398q0 -257 -110.5 -399t-293.5 -142q-178 0 -287.5 142.5t-109.5 398.5zM350 969q0 -139 35 -213t94 -74q62 0 97.5 74t35.5 213q0 141 -35.5 213.5t-97.5 72.5q-59 0 -94 -73t-35 -213z" />
<glyph horiz-adv-x="696" d="M82 1098v190l264 203h221v-1045h-266v738z" />
<glyph horiz-adv-x="909" d="M59 446l289 404q104 144 133 198.5t29 106.5q0 44 -34 72t-93 28q-64 0 -121.5 -19t-136.5 -60v262q115 71 278 71q178 0 275.5 -95.5t97.5 -248.5q0 -90 -48 -168t-157 -194l-88 -92h328v-265h-752z" />
<glyph horiz-adv-x="882" d="M102 477v266q137 -67 275 -67q70 0 104.5 26.5t34.5 69.5q0 46 -36.5 71t-106.5 25h-131v213h114q121 0 121 84q0 44 -33 68t-96 24q-113 0 -239 -57v254q113 55 260 55q168 0 271 -83.5t103 -221.5q0 -142 -149 -215q184 -74 184 -264q0 -137 -100.5 -217t-282.5 -80 q-168 0 -293 49z" />
<glyph horiz-adv-x="954" d="M31 631l501 858h273v-643h84v-215h-84v-185h-262v185h-512zM352 846h191v332z" />
<glyph horiz-adv-x="917" d="M131 469v264q142 -55 254 -55q158 0 158 102q0 48 -47.5 76.5t-149.5 28.5q-97 0 -205 -17l33 621h586v-266h-383l-4 -115h37q199 0 301 -90.5t102 -237.5q0 -165 -107.5 -258.5t-297.5 -93.5q-140 0 -277 41z" />
<glyph horiz-adv-x="952" d="M74 850q0 131 48.5 256t118 215.5t160.5 167.5h433q-191 -120 -297 -224t-150 -214q78 55 176 55q131 0 215 -88.5t84 -226.5q0 -157 -99.5 -260t-277.5 -103q-188 0 -299.5 115.5t-111.5 306.5zM352 807q0 -69 37 -107t96 -38q58 0 92.5 34.5t34.5 91.5q0 56 -34.5 93 t-90.5 37q-67 0 -127 -54q-8 -28 -8 -57z" />
<glyph horiz-adv-x="897" d="M86 1225v266h778l-401 -1045h-311l358 779h-424z" />
<glyph horiz-adv-x="919" d="M72 713q0 81 45 140.5t125 92.5q-66 47 -103 114.5t-37 139.5q0 136 101.5 223.5t249.5 87.5q161 0 261.5 -83t100.5 -207q0 -130 -133 -201q79 -45 122.5 -122t43.5 -167q0 -138 -99 -220.5t-280 -82.5t-289 80.5t-108 204.5zM328 752q0 -47 40 -79t105 -32q51 0 81 24 t30 60q0 51 -82 92l-99 51q-38 -27 -56.5 -53.5t-18.5 -62.5zM360 1210q0 -47 50 -69l100 -45q57 47 57 98q0 39 -29.5 64.5t-82.5 25.5q-44 0 -69.5 -21.5t-25.5 -52.5z" />
<glyph horiz-adv-x="952" d="M90 1145q0 159 99.5 261.5t277.5 102.5q188 0 299 -116t111 -308q0 -201 -78 -362.5t-213 -276.5h-428q319 215 411 441q-89 -64 -182 -64q-129 0 -213 92t-84 230zM340 1149q0 -57 36.5 -93t92.5 -36q37 0 64 11.5t59 39.5q6 21 6 57q0 69 -36.5 108.5t-94.5 39.5 q-59 0 -93 -35t-34 -92z" />
<glyph horiz-adv-x="964" d="M82 522q0 255 109.5 398t287.5 143q183 0 293.5 -142.5t110.5 -398.5q0 -257 -110.5 -398.5t-293.5 -141.5q-178 0 -287.5 142t-109.5 398zM350 522q0 -139 35 -212.5t94 -73.5q62 0 97.5 73.5t35.5 212.5q0 141 -35.5 214t-97.5 73q-59 0 -94 -73t-35 -214z" />
<glyph horiz-adv-x="696" d="M82 651v191l264 202h221v-1044h-266v737z" />
<glyph horiz-adv-x="909" d="M59 0l289 403q103 143 132.5 198.5t29.5 107.5q0 44 -34 72t-93 28q-64 0 -121 -19t-137 -61v262q116 72 278 72q178 0 275.5 -95.5t97.5 -248.5q0 -90 -48 -169t-157 -194l-88 -92h328v-264h-752z" />
<glyph horiz-adv-x="882" d="M102 31v266q139 -68 275 -68q70 0 104.5 27t34.5 70q0 46 -36.5 71t-106.5 25h-131v213h114q121 0 121 84q0 44 -33 68t-96 24q-113 0 -239 -57v254q113 55 260 55q168 0 271 -83.5t103 -221.5q0 -142 -149 -215q184 -74 184 -264q0 -137 -100.5 -217t-282.5 -80 q-168 0 -293 49z" />
<glyph horiz-adv-x="954" d="M31 184l501 858h273v-643h84v-215h-84v-184h-262v184h-512zM352 399h191v332z" />
<glyph horiz-adv-x="917" d="M131 23v264q145 -56 254 -56q158 0 158 103q0 47 -47.5 75.5t-149.5 28.5q-104 0 -205 -16l33 620h586v-266h-383l-4 -114h37q199 0 301 -90.5t102 -237.5q0 -165 -107.5 -258.5t-297.5 -93.5q-140 0 -277 41z" />
<glyph horiz-adv-x="952" d="M74 403q0 131 48.5 256t118 215.5t160.5 167.5h433q-191 -120 -297 -224t-150 -214q78 55 176 55q131 0 215 -88.5t84 -226.5q0 -157 -99.5 -259.5t-277.5 -102.5q-188 0 -299.5 115t-111.5 306zM352 360q0 -69 37 -107t96 -38q58 0 92.5 35t34.5 92q0 56 -34.5 92.5 t-90.5 36.5q-68 0 -127 -53q-8 -28 -8 -58z" />
<glyph horiz-adv-x="897" d="M86 778v266h778l-401 -1044h-311l358 778h-424z" />
<glyph horiz-adv-x="919" d="M72 266q0 81 45 141t125 93q-66 47 -103 114.5t-37 139.5q0 136 101.5 223.5t249.5 87.5q161 0 261.5 -83.5t100.5 -207.5q0 -130 -133 -201q79 -45 122.5 -121.5t43.5 -166.5q0 -138 -99 -220.5t-280 -82.5t-289 80t-108 204zM328 305q0 -47 40 -78.5t105 -31.5 q51 0 81 24t30 60q0 51 -82 92l-99 51q-38 -27 -56.5 -54t-18.5 -63zM360 764q0 -48 50 -70l100 -45q57 47 57 99q0 39 -29.5 64.5t-82.5 25.5q-44 0 -69.5 -21.5t-25.5 -52.5z" />
<glyph horiz-adv-x="952" d="M90 698q0 159 99.5 262t277.5 103q188 0 299 -116t111 -308q0 -201 -78 -362.5t-213 -276.5h-428q320 216 411 440q-88 -63 -182 -63q-130 0 -213.5 91.5t-83.5 229.5zM340 702q0 -57 36.5 -93t92.5 -36q37 0 63.5 12t59.5 40q6 21 6 57q0 69 -36.5 108t-94.5 39 q-59 0 -93 -35t-34 -92z" />
<glyph horiz-adv-x="620" d="M96 741q0 91 61.5 152t153.5 61q91 0 152 -61t61 -152q0 -92 -61 -153.5t-152 -61.5q-92 0 -153.5 61.5t-61.5 153.5z" />
<glyph horiz-adv-x="3205" d="M150 0v1491h352l706 -932v932h332v-1491h-352l-707 928v-928h-331zM1747 799q0 164 103 269.5t282 105.5q173 0 273 -107t100 -264q0 -163 -104.5 -269t-282.5 -106q-115 0 -201 52t-128 135.5t-42 183.5zM2003 805q0 -60 36.5 -98.5t92.5 -38.5q52 0 84.5 34.5 t32.5 92.5q0 59 -37 98t-92 39q-52 0 -84.5 -33.5t-32.5 -93.5zM2619 954q0 88 79 154t216 66q116 0 211 -23v-262q-115 43 -215 43q-71 0 -71 -29q0 -25 45 -33l94 -24q96 -26 139 -77.5t43 -131.5q0 -99 -73.5 -154t-225.5 -55q-129 0 -227 33v260q128 -53 239 -53 q72 0 72 32q0 26 -47 35l-90 23q-101 26 -145 73t-44 123z" />
<glyph horiz-adv-x="2068" d="M119 989l323 10v-198q132 223 324 223q146 0 230.5 -107t84.5 -299v-618h-323v567q0 65 -36.5 102.5t-98.5 37.5q-93 0 -177 -78v-629h-321v686zM1253 799q0 164 103 269.5t282 105.5q173 0 273 -107t100 -264q0 -163 -104.5 -269t-282.5 -106q-115 0 -201 52t-128 135.5 t-42 183.5zM1509 805q0 -60 36.5 -98.5t92.5 -38.5q52 0 84.5 34.5t32.5 92.5q0 59 -37 98t-92 39q-52 0 -84.5 -33.5t-32.5 -93.5z" />
<glyph horiz-adv-x="2711" d="M119 989l323 10v-198q132 223 324 223q146 0 230.5 -107t84.5 -299v-618h-323v567q0 65 -36.5 102.5t-98.5 37.5q-93 0 -177 -78v-629h-321v686zM1253 799q0 164 103 269.5t282 105.5q173 0 273 -107t100 -264q0 -163 -104.5 -269t-282.5 -106q-115 0 -201 52t-128 135.5 t-42 183.5zM1509 805q0 -60 36.5 -98.5t92.5 -38.5q52 0 84.5 34.5t32.5 92.5q0 59 -37 98t-92 39q-52 0 -84.5 -33.5t-32.5 -93.5zM2126 954q0 88 79 154t216 66q116 0 211 -23v-262q-115 43 -215 43q-72 0 -72 -29q0 -25 45 -33l94 -24q96 -26 139 -77.5t43 -131.5 q0 -99 -73.5 -154t-225.5 -55q-129 0 -227 33v260q128 -53 240 -53q71 0 71 32q0 26 -47 35l-90 23q-101 26 -144.5 72.5t-43.5 123.5z" />
<glyph horiz-adv-x="571" d="M84 1339q0 86 58.5 143.5t144.5 57.5t143 -57.5t57 -143.5t-57 -143t-143 -57q-87 0 -145 57t-58 143zM125 0v993h321v-993h-321z" />
</font>
</defs>
</svg>
