<?xml version="1.0" standalone="no"?>
<!DOCTYPE svg PUBLIC "-//W3C//DTD SVG 1.1//EN" "http://www.w3.org/Graphics/SVG/1.1/DTD/svg11.dtd" >
<svg xmlns="http://www.w3.org/2000/svg" xmlns:xlink="http://www.w3.org/1999/xlink" version="1.1">
<metadata></metadata>
<defs>
<font id="cosimoregular" horiz-adv-x="1243" >
<font-face units-per-em="2048" ascent="1550" descent="-498" />
<missing-glyph horiz-adv-x="620" />
<glyph unicode="&#xfb00;" horiz-adv-x="1249" d="M49 819v99l127 75v68q0 132 57 240.5t165.5 173.5t248.5 65q35 0 82 -6v-207q-46 10 -104 10q-113 0 -181.5 -72t-68.5 -190v-82h379v31q0 224 140.5 370t383.5 146q88 0 152 -18v-205q-82 20 -177 20q-144 0 -222.5 -80t-78.5 -219v-45h297v-174h-297v-448l4 -371h-202 v819h-379v-448l6 -371h-205v819h-127z" />
<glyph unicode="&#xfb01;" horiz-adv-x="1105" d="M49 819v99l127 75v11q0 237 149 386.5t400 149.5q119 0 227 -24v-220q-118 41 -239 41q-165 0 -251.5 -84.5t-86.5 -240.5v-19h577v-993h-198v819h-379v-448l6 -371h-205v819h-127z" />
<glyph unicode="&#xfb02;" horiz-adv-x="1105" d="M49 819v99l127 75v11q0 237 149.5 386.5t403.5 149.5h25l202 10l-4 -557v-993h-198v1337h-41q-165 0 -251.5 -84.5t-86.5 -240.5v-19h250v-174h-250v-448l6 -371h-205v819h-127z" />
<glyph unicode="&#xfb03;" horiz-adv-x="1683" d="M49 819v99l127 75v68q0 132 57 240.5t165.5 173.5t248.5 65q35 0 82 -6v-207q-41 10 -98 10q-117 0 -186.5 -71.5t-69.5 -190.5v-82h379v11q0 237 149 386.5t400 149.5q119 0 225 -29v-215q-115 41 -238 41q-165 0 -251.5 -84.5t-86.5 -240.5v-19h576v-993h-199v819h-377 v-448l4 -371h-202v819h-379v-448l6 -371h-205v819h-127z" />
<glyph unicode="&#xfb04;" horiz-adv-x="1683" d="M49 819v99l127 75v68q0 132 57 240.5t165.5 173.5t248.5 65q35 0 82 -6v-205q-49 8 -104 8q-113 0 -181.5 -72t-68.5 -190v-82h379v11q0 237 149 386.5t402 149.5h24l205 10l-6 -557v-993h-199v1337h-39q-165 0 -251.5 -84.5t-86.5 -240.5v-19h248v-174h-248v-448l4 -371 h-202v819h-379v-448l6 -371h-205v819h-127z" />
<glyph unicode="ch" horiz-adv-x="2015" d="M80 492q0 233 153 382.5t396 149.5q117 0 229 -33v-223q-125 57 -240 57q-150 0 -242.5 -87.5t-92.5 -239.5q0 -140 95.5 -234t252.5 -94q127 0 239 41v-209q-125 -33 -245 -33q-247 0 -396 145.5t-149 377.5zM1028 0v1540l205 10l-6 -557v-104q139 135 301 135 q164 0 256 -99t92 -282v-643h-199v625q0 98 -50 151t-138 53q-143 0 -262 -116v-713h-199z" />
<glyph unicode="ck" horiz-adv-x="1970" d="M80 492q0 233 153 382.5t396 149.5q117 0 229 -33v-223q-125 57 -240 57q-150 0 -242.5 -87.5t-92.5 -239.5q0 -140 95.5 -234t252.5 -94q127 0 239 41v-209q-125 -33 -245 -33q-247 0 -396 145.5t-149 377.5zM1028 0v1540l205 10l-6 -569v-389l170 174l215 227h276 l-418 -426l490 -567h-274l-187 225l-168 199l-104 -107v-317h-199z" />
<glyph unicode="fb" horiz-adv-x="1826" d="M49 819v99l127 75v11q0 237 149.5 386.5t403.5 149.5h25l204 10l-6 -557v-104q132 135 297 135q185 0 302.5 -135t117.5 -354q0 -262 -146 -414t-403 -152q-112 0 -274 27l-92 16v1325h-41q-165 0 -251.5 -84.5t-86.5 -240.5v-19h250v-174h-250v-448l6 -371h-205v819 h-127zM952 195q87 -31 170 -31q160 0 251 90t91 268q0 140 -71 223.5t-195 83.5q-136 0 -246 -110v-524z" />
<glyph unicode="ffb" horiz-adv-x="2500" d="M49 819v99l127 75v68q0 132 57 240.5t165.5 173.5t248.5 65q35 0 82 -6v-205q-49 8 -104 8q-113 0 -181.5 -72t-68.5 -190v-82h379v11q0 237 149 386.5t402 149.5h24l205 10l-6 -557v-104q132 135 297 135q185 0 302.5 -135t117.5 -354q0 -262 -146 -414t-403 -152 q-113 0 -275 27l-92 16v1325h-39q-165 0 -251.5 -84.5t-86.5 -240.5v-19h248v-174h-248v-448l4 -371h-202v819h-379v-448l6 -371h-205v819h-127zM1528 195q87 -31 170 -31q160 0 251 90t91 268q0 140 -71 223.5t-195 83.5q-136 0 -246 -110v-524z" />
<glyph unicode="fh" horiz-adv-x="1814" d="M49 819v99l127 75v11q0 237 149.5 386.5t403.5 149.5h25l204 10l-6 -557v-104q139 135 301 135q164 0 256.5 -99t92.5 -282v-643h-199v625q0 97 -50 150.5t-139 53.5q-143 0 -262 -116v-713h-198v1337h-41q-165 0 -251.5 -84.5t-86.5 -240.5v-19h250v-174h-250v-448 l6 -371h-205v819h-127z" />
<glyph unicode="ffh" horiz-adv-x="2488" d="M49 819v99l127 75v68q0 132 57 240.5t165.5 173.5t248.5 65q35 0 82 -6v-205q-49 8 -104 8q-113 0 -181.5 -72t-68.5 -190v-82h379v11q0 237 149 386.5t402 149.5h24l205 10l-6 -557v-104q139 135 301 135q164 0 256 -99t92 -282v-643h-199v625q0 98 -50 151t-138 53 q-143 0 -262 -116v-713h-199v1337h-39q-165 0 -251.5 -84.5t-86.5 -240.5v-19h248v-174h-248v-448l4 -371h-202v819h-379v-448l6 -371h-205v819h-127z" />
<glyph unicode="fj" horiz-adv-x="1091" d="M49 819v99l127 75v11q0 237 149 386.5t400 149.5q119 0 227 -24v-220q-118 41 -239 41q-165 0 -251.5 -84.5t-86.5 -240.5v-19h577v-1108q0 -184 -92 -283.5t-272 -99.5q-60 0 -119 17v202q65 -14 119 -14q166 0 166 180v932h-379v-448l6 -371h-205v819h-127z" />
<glyph unicode="ffj" horiz-adv-x="1667" d="M49 819v99l127 75v68q0 132 57 240.5t165.5 173.5t248.5 65q35 0 82 -6v-207q-41 10 -98 10q-117 0 -186.5 -71.5t-69.5 -190.5v-82h379v11q0 237 149 386.5t400 149.5q119 0 225 -29v-215q-115 41 -238 41q-165 0 -251.5 -84.5t-86.5 -240.5v-19h576v-1108 q0 -184 -92 -283.5t-273 -99.5q-59 0 -119 17v202q65 -14 119 -14q166 0 166 180v932h-377v-448l4 -371h-202v819h-379v-448l6 -371h-205v819h-127z" />
<glyph unicode="fk" horiz-adv-x="1769" d="M49 819v99l127 75v11q0 237 149.5 386.5t403.5 149.5h25l204 10l-6 -569v-389l170 174l215 227h277l-418 -426l490 -567h-283l-182 221l-168 199l-101 -103v-317h-198v1337h-41q-165 0 -251.5 -84.5t-86.5 -240.5v-19h250v-174h-250v-448l6 -371h-205v819h-127z" />
<glyph unicode="ffk" horiz-adv-x="2443" d="M49 819v99l127 75v68q0 132 57 240.5t165.5 173.5t248.5 65q35 0 82 -6v-205q-49 8 -104 8q-113 0 -181.5 -72t-68.5 -190v-82h379v11q0 237 149 386.5t402 149.5h24l205 10l-6 -569v-389l170 174l215 227h276l-417 -426l489 -567h-283l-182 221l-168 199l-100 -103v-317 h-199v1337h-39q-165 0 -251.5 -84.5t-86.5 -240.5v-19h248v-174h-248v-448l4 -371h-202v819h-379v-448l6 -371h-205v819h-127z" />
<glyph horiz-adv-x="0" />
<glyph horiz-adv-x="682" />
<glyph horiz-adv-x="0" />
<glyph horiz-adv-x="0" />
<glyph unicode="&#xd;" horiz-adv-x="620" />
<glyph unicode=" "  horiz-adv-x="620" />
<glyph unicode="&#x09;" horiz-adv-x="620" />
<glyph unicode="&#xa0;" horiz-adv-x="620" />
<glyph unicode="!" horiz-adv-x="620" d="M160 121q0 66 42.5 108.5t108.5 42.5q65 0 108.5 -42.5t43.5 -108.5q0 -65 -43.5 -108.5t-108.5 -43.5q-66 0 -108.5 43.5t-42.5 108.5zM211 848v643h199v-643q0 -144 -24.5 -246.5t-74.5 -195.5q-52 91 -76 193.5t-24 248.5z" />
<glyph unicode="&#x22;" horiz-adv-x="1093" d="M207 1380q0 65 33 103.5t88 38.5t89 -38.5t34 -103.5q0 -27 -5 -62.5t-17.5 -98.5t-18.5 -101l-45 -278h-74l-45 278q-5 32 -14 80.5t-13.5 74t-8 55.5t-3.5 52zM643 1380q0 65 34 103.5t89 38.5t88 -38.5t33 -103.5q0 -22 -3.5 -52t-8 -55.5t-13.5 -74t-14 -80.5 l-45 -278h-74l-45 278q-6 38 -18.5 101t-17.5 98.5t-5 62.5z" />
<glyph unicode="#" horiz-adv-x="1341" d="M90 428v188h223l70 258h-174v189h225l115 428h194l-114 -428h256l114 428h195l-115 -428h174v-189h-227l-70 -258h177v-188h-226l-114 -428h-195l115 428h-256l-115 -428h-192l114 428h-174zM508 616h256l70 258h-256z" />
<glyph unicode="$" d="M172 47v260q116 -56 209.5 -82t208.5 -26q122 0 189 50.5t67 131.5q0 73 -43 127t-152 108l-188 97q-150 76 -218.5 170.5t-68.5 232.5q0 150 102.5 259.5t270.5 137.5v222h180v-215q148 -12 287 -56v-258q-100 43 -189 64.5t-198 21.5q-107 0 -165 -48t-58 -120 q0 -69 38.5 -115t151.5 -104l170 -88q161 -83 234 -188t73 -252q0 -152 -94 -257t-262 -136v-228h-180v213q-200 8 -365 78z" />
<glyph unicode="%" horiz-adv-x="2086" d="M119 1141q0 164 108 272.5t271 108.5q164 0 271.5 -108.5t107.5 -272.5q0 -163 -107.5 -270t-271.5 -107q-163 0 -271 107t-108 270zM315 1141q0 -77 53.5 -130t129.5 -53q77 0 128.5 53t51.5 130q0 78 -51 130t-129 52q-77 0 -130 -52t-53 -130zM510 0l860 1491h217 l-858 -1491h-219zM1210 348q0 164 107.5 272.5t269.5 108.5q164 0 272.5 -108.5t108.5 -272.5q0 -163 -108.5 -271t-272.5 -108q-161 0 -269 108t-108 271zM1407 348q0 -76 52.5 -129t127.5 -53q78 0 130 52.5t52 129.5q0 78 -52 129t-130 51q-76 0 -128 -51.5t-52 -128.5z " />
<glyph unicode="&#x26;" horiz-adv-x="1648" d="M86 438q0 310 342 467q-94 129 -94 262q0 151 105 253t270 102q163 0 263.5 -98t100.5 -250q0 -121 -66.5 -204t-213.5 -143l266 -278l276 444h248l-375 -600l74 -78l315 -315h-315l-197 207q-96 -122 -206 -180t-267 -58q-235 0 -380.5 132.5t-145.5 336.5zM330 463 q0 -119 81 -193.5t218 -74.5q103 0 177.5 40.5t135.5 122.5l-381 400q-231 -97 -231 -295zM555 1165q0 -45 22.5 -88.5t84.5 -107.5q101 42 140.5 88.5t39.5 107.5q0 60 -39 101t-105 41t-104.5 -40t-38.5 -102z" />
<glyph unicode="'" horiz-adv-x="620" d="M188 1380q0 65 34 103.5t89 38.5t88 -38.5t33 -103.5q0 -27 -5.5 -63.5t-16.5 -96.5t-17 -102l-45 -278h-76l-43 278q-7 45 -18 103t-17 95t-6 64z" />
<glyph unicode="(" horiz-adv-x="745" d="M106 498q0 290 101.5 543t284.5 450h253q-428 -428 -428 -993q0 -568 428 -996h-253q-182 196 -284 451t-102 545z" />
<glyph unicode=")" horiz-adv-x="745" d="M0 -498q428 428 428 996q0 565 -428 993h254q182 -196 283.5 -449.5t101.5 -543.5t-101.5 -545t-283.5 -451h-254z" />
<glyph unicode="*" horiz-adv-x="1167" d="M125 862l317 152l-317 157l100 170l291 -204l-27 354h197l-24 -350l284 200l98 -174l-315 -153l315 -154l-94 -172l-288 207l24 -352h-197l25 352l-289 -207z" />
<glyph unicode="+" d="M125 651v189h401v403h191v-403h401v-189h-401v-403h-191v403h-401z" />
<glyph unicode="," horiz-adv-x="620" d="M135 -399q98 87 142.5 151t44.5 123q0 40 -20 68.5t-66 62.5q-46 32 -64 61t-18 70q0 60 39.5 97.5t99.5 37.5q88 0 148.5 -79.5t60.5 -196.5q0 -122 -42 -212.5t-143 -182.5h-182z" />
<glyph unicode="-" horiz-adv-x="620" d="M74 397v199h473v-199h-473z" />
<glyph unicode="." horiz-adv-x="620" d="M160 121q0 66 42.5 108.5t108.5 42.5q65 0 108.5 -42.5t43.5 -108.5q0 -65 -43.5 -108.5t-108.5 -43.5q-66 0 -108.5 43.5t-42.5 108.5z" />
<glyph unicode="/" horiz-adv-x="702" d="M55 0l400 1491h194l-401 -1491h-193z" />
<glyph unicode="0" d="M102 745q0 365 145.5 571t373.5 206q112 0 206.5 -52t164.5 -148.5t109.5 -244.5t39.5 -332t-39.5 -332t-109.5 -244.5t-164.5 -148t-206.5 -51.5q-111 0 -205.5 51.5t-164.5 148t-109.5 245t-39.5 331.5zM324 748q0 -277 80.5 -423.5t216.5 -146.5q137 0 218 146.5 t81 423.5q0 276 -80.5 420.5t-218.5 144.5q-136 0 -216.5 -145t-80.5 -420z" />
<glyph unicode="1" d="M233 1049v182l422 260h168v-1491h-211v1249z" />
<glyph unicode="2" d="M113 0l372 473q194 245 256 368t62 232q0 105 -66.5 171.5t-181.5 66.5q-100 0 -186 -32t-185 -95v227q167 111 379 111q213 0 336 -126t123 -323q0 -138 -70 -273t-276 -380l-178 -209h585v-211h-970z" />
<glyph unicode="3" d="M195 37v237q173 -92 354 -92q137 0 211 61.5t74 174.5q0 109 -75 173t-216 64h-117v199h90q125 0 193.5 62t68.5 167q0 102 -66.5 165t-187.5 63q-153 0 -317 -82v213q153 80 332 80q195 0 323.5 -115t128.5 -305q0 -232 -219 -330q125 -31 201 -125t76 -248 q0 -190 -137.5 -310t-360.5 -120q-203 0 -356 68z" />
<glyph unicode="4" d="M49 373l729 1118h195v-920h172v-198h-172v-373h-213v373h-711zM393 571h367v570z" />
<glyph unicode="5" d="M190 39v237q156 -94 361 -94q135 0 221 72.5t86 202.5q0 131 -90.5 208.5t-265.5 77.5q-142 0 -295 -26l51 774h748v-211h-566l-22 -334q74 8 125 8q240 0 388 -133t148 -360q0 -219 -145.5 -355.5t-382.5 -136.5q-114 0 -194 16t-167 54z" />
<glyph unicode="6" d="M131 551q0 145 44.5 283t124.5 255.5t181.5 217t225.5 184.5h383q-297 -157 -475.5 -345.5t-243.5 -395.5q55 59 137.5 95t169.5 36q180 0 293.5 -126.5t113.5 -330.5q0 -198 -124 -326.5t-324 -128.5q-235 0 -370.5 161t-135.5 421zM365 512q0 -147 74 -240.5t192 -93.5 q111 0 172 68.5t61 177.5q0 115 -63.5 183.5t-169.5 68.5q-156 0 -266 -137v-27z" />
<glyph unicode="7" d="M131 1280v211h1014l-602 -1491h-250l573 1280h-735z" />
<glyph unicode="8" d="M160 373q0 123 64.5 221.5t207.5 181.5q-116 81 -165.5 167t-49.5 194q0 75 28.5 144t80.5 123t132 86t175 32q93 0 172 -32t132 -86t82.5 -125t29.5 -149q0 -121 -61 -205t-185 -149q150 -103 218.5 -197t68.5 -223q0 -169 -124.5 -278t-332.5 -109q-224 0 -348.5 114 t-124.5 290zM373 387q0 -96 67 -158.5t189 -62.5q115 0 179 53t64 141q0 79 -61 147t-233 167q-103 -63 -154 -132.5t-51 -154.5zM418 1137q0 -68 50.5 -130t182.5 -137q99 57 147 116.5t48 137.5q0 83 -58 138t-159 55q-93 0 -152 -52.5t-59 -127.5z" />
<glyph unicode="9" d="M135 1057q0 204 128.5 334.5t334.5 130.5q150 0 262 -74.5t171 -206t59 -301.5q0 -144 -39 -278.5t-112.5 -251.5t-160 -215t-198.5 -195h-373q273 181 430 361t215 382q-58 -58 -139.5 -94.5t-161.5 -36.5q-185 0 -300.5 123.5t-115.5 321.5zM356 1057q0 -107 63 -176.5 t163 -69.5q81 0 144 34.5t128 100.5v33q0 146 -72 240t-184 94q-114 0 -178 -70t-64 -186z" />
<glyph unicode=":" horiz-adv-x="620" d="M160 121q0 66 42.5 108.5t108.5 42.5q65 0 108.5 -42.5t43.5 -108.5q0 -65 -43.5 -108.5t-108.5 -43.5q-66 0 -108.5 43.5t-42.5 108.5zM160 872q0 66 42.5 109t108.5 43q65 0 108.5 -43t43.5 -109q0 -64 -43.5 -107.5t-108.5 -43.5q-66 0 -108.5 43t-42.5 108z" />
<glyph unicode=";" horiz-adv-x="620" d="M135 -399q98 87 142.5 151t44.5 123q0 40 -20 68.5t-66 62.5q-46 32 -64 61t-18 70q0 60 39.5 97.5t99.5 37.5q88 0 148.5 -79.5t60.5 -196.5q0 -122 -42 -212.5t-143 -182.5h-182zM160 872q0 66 42.5 109t108.5 43q65 0 108.5 -43t43.5 -109q0 -64 -43.5 -107.5 t-108.5 -43.5q-66 0 -108.5 43t-42.5 108z" />
<glyph unicode="&#x3c;" d="M100 745l1018 488v-225l-604 -263l604 -260v-227z" />
<glyph unicode="=" d="M125 428v188h993v-188h-993zM125 874v189h993v-189h-993z" />
<glyph unicode="&#x3e;" d="M125 258v227l604 260l-604 263v225l1018 -488z" />
<glyph unicode="?" horiz-adv-x="811" d="M70 1266v202q121 54 266 54q177 0 283 -104t106 -277q0 -96 -37.5 -183t-116.5 -182l-57 -69q-63 -76 -93 -141.5t-50 -159.5q-42 35 -65 87t-23 101q0 67 21.5 122.5t70.5 123.5l47 65q36 48 51.5 72t31 66t15.5 85q0 90 -55 142.5t-148 52.5q-117 0 -247 -57zM213 121 q0 66 43.5 108.5t108.5 42.5q66 0 108.5 -42.5t42.5 -108.5q0 -65 -42.5 -108.5t-108.5 -43.5q-65 0 -108.5 43.5t-43.5 108.5z" />
<glyph unicode="@" horiz-adv-x="2152" d="M139 508q0 216 78 405t212.5 322.5t321.5 210t398 76.5q191 0 356.5 -65t283 -179.5t184.5 -276.5t67 -350q0 -165 -38.5 -297t-105 -215t-152.5 -126.5t-183 -43.5q-114 0 -180 43.5t-101 124.5q-121 -168 -295 -168q-124 0 -198 73t-74 189q0 240 286 308 q107 24 256 39v75q0 166 -206 166q-149 0 -304 -71v206q151 70 312 70q186 0 291.5 -93t105.5 -280v-352q0 -137 109 -137q117 0 191.5 124.5t74.5 354.5q0 143 -48.5 268.5t-136 218t-217.5 146t-284 53.5q-170 0 -317 -60.5t-252 -167.5t-164.5 -260t-59.5 -331 q0 -172 57.5 -320t163.5 -256.5t267 -170.5t358 -62q121 0 261.5 31t256.5 84v-220q-267 -92 -516 -92q-242 0 -442.5 78t-335 213.5t-208 319t-73.5 395.5zM918 256q0 -52 32 -80.5t88 -28.5q114 0 217 129v179q-139 -17 -227 -56q-55 -22 -82.5 -60.5t-27.5 -82.5z" />
<glyph unicode="A" horiz-adv-x="1351" d="M31 0l542 1491h207l543 -1491h-248l-121 356h-563l-123 -356h-237zM463 555h420l-209 600z" />
<glyph unicode="B" horiz-adv-x="1222" d="M178 0v1491h428q228 0 352.5 -113.5t124.5 -287.5q0 -219 -219 -314q130 -34 207.5 -127.5t77.5 -242.5q0 -185 -128.5 -295.5t-377.5 -110.5h-465zM403 199h224q295 0 295 233q0 105 -76 166t-205 61h-238v-460zM403 858h179q138 0 207 57t69 164q0 99 -71 156t-193 57 h-191v-434z" />
<glyph unicode="C" horiz-adv-x="1312" d="M90 737q0 226 103 405t287.5 279.5t416.5 100.5q180 0 338 -43v-256q-156 69 -338 69q-254 0 -407.5 -146t-153.5 -401q0 -113 40.5 -212.5t114 -173.5t184 -117t243.5 -43q163 0 335 59v-246q-162 -43 -335 -43q-188 0 -344 56.5t-262 158t-164 243.5t-58 310z" />
<glyph unicode="D" horiz-adv-x="1484" d="M178 0v1491h443q365 0 569.5 -198t204.5 -533q0 -355 -204 -557.5t-579 -202.5h-434zM403 199h183q274 0 418.5 143.5t144.5 409.5q0 256 -145 398t-412 142h-189v-1093z" />
<glyph unicode="E" horiz-adv-x="1148" d="M178 0v1491h850v-199h-625v-434h576v-199h-576v-460h652v-199h-877z" />
<glyph unicode="F" horiz-adv-x="1044" d="M178 0v1491h801v-199h-576v-434h527v-199h-527v-659h-225z" />
<glyph unicode="G" horiz-adv-x="1484" d="M90 731q0 229 104 409t293.5 281t434.5 101q221 0 424 -52v-266q-219 88 -424 88q-271 0 -428.5 -147.5t-157.5 -413.5q0 -108 41 -204t116 -169.5t190 -116t255 -42.5q72 0 170 12v229l-6 234h229v-666l-96 -14q-166 -25 -303 -25q-198 0 -357.5 56.5t-265.5 158 t-162.5 241t-56.5 306.5z" />
<glyph unicode="H" horiz-adv-x="1574" d="M178 0v1491h225v-633h771v633h223v-1491h-223v659h-771v-659h-225z" />
<glyph unicode="I" horiz-adv-x="581" d="M178 0v1491h225v-1491h-225z" />
<glyph unicode="J" horiz-adv-x="733" d="M74 -14v227q61 -14 114 -14q75 0 116.5 43t41.5 129v1120h223v-1131q0 -180 -95.5 -285.5t-276.5 -105.5q-63 0 -123 17z" />
<glyph unicode="K" horiz-adv-x="1431" d="M178 0v1491h225v-727l381 424l267 303h290l-618 -678l709 -813h-308l-247 291l-308 356l-166 -184v-463h-225z" />
<glyph unicode="L" horiz-adv-x="1073" d="M178 0v1491h225v-1292h601v-199h-826z" />
<glyph unicode="M" horiz-adv-x="1851" d="M154 0v1491h213l551 -860l552 860h228v-1491h-223v1116l-566 -876l-547 852v-1092h-208z" />
<glyph unicode="N" horiz-adv-x="1626" d="M178 0v1491h225l834 -1135v1135h209v-1491h-223l-836 1133v-1133h-209z" />
<glyph unicode="O" horiz-adv-x="1701" d="M90 748q0 225 100.5 402.5t274.5 274.5t389 97q162 0 303 -58t241.5 -159.5t158 -245.5t57.5 -311q0 -135 -38 -256.5t-107.5 -216t-164 -164t-212 -106t-246.5 -36.5q-162 0 -302 58t-240 160t-157 247t-57 314zM330 752q0 -243 149 -400t375 -157q222 0 370 152 t148 398q0 242 -150 396.5t-376 154.5q-221 0 -368.5 -150t-147.5 -394z" />
<glyph unicode="P" horiz-adv-x="1269" d="M178 0v1491h508q247 0 385.5 -120.5t138.5 -323.5q0 -219 -136 -337t-400 -118h-271v-592h-225zM403 791h265q301 0 301 256q0 116 -77 180.5t-216 64.5h-273v-501z" />
<glyph unicode="Q" horiz-adv-x="1701" d="M90 748q0 225 100.5 402.5t274.5 274.5t389 97q162 0 303 -58t241.5 -159.5t158 -245.5t57.5 -311q0 -306 -178 -508t-480 -240q557 -276 1067 -276q271 0 504 81v-221q-236 -82 -504 -82q-225 0 -423.5 45t-470.5 167.5t-668 353.5q-173 100 -272 277t-99 403zM330 752 q0 -243 149 -400t375 -157q222 0 370 152t148 398q0 242 -150 396.5t-376 154.5q-221 0 -368.5 -150t-147.5 -394z" />
<glyph unicode="R" horiz-adv-x="1329" d="M178 0v1491h490q236 0 369.5 -116.5t133.5 -311.5q0 -158 -89 -268.5t-259 -147.5l488 -647h-295l-201 291l-244 336h-168v-627h-225zM403 825h248q279 0 279 238q0 109 -72 169t-203 60h-252v-467z" />
<glyph unicode="S" horiz-adv-x="1058" d="M82 47v260q116 -56 209.5 -82t208.5 -26q124 0 190 48.5t66 133.5q0 73 -43 127t-152 108l-188 97q-150 76 -218.5 170.5t-68.5 232.5q0 172 133 289t340 117q193 0 369 -58v-258q-101 43 -188 64.5t-187 21.5q-113 0 -175.5 -48t-62.5 -120q0 -68 39 -114.5t154 -104.5 l168 -88q163 -83 236 -187t73 -253q0 -182 -132.5 -295t-360.5 -113q-219 0 -410 78z" />
<glyph unicode="T" horiz-adv-x="1107" d="M31 1292v199h1048v-199h-413v-1292h-224v1292h-411z" />
<glyph unicode="U" horiz-adv-x="1497" d="M164 537v954h223v-944q0 -163 96.5 -263t272.5 -100q174 0 271 100t97 261v946h207v-954q0 -124 -37 -227.5t-107.5 -179.5t-180.5 -118.5t-250 -42.5q-145 0 -258.5 42.5t-186 119t-110 179.5t-37.5 227z" />
<glyph unicode="V" horiz-adv-x="1292" d="M0 1491h246l112 -330l291 -813l291 813l115 330h237l-544 -1491h-205z" />
<glyph unicode="W" horiz-adv-x="2127" d="M0 1491h246l110 -358l248 -771l363 1129h198l363 -1129l252 771l108 358h240l-500 -1491h-207l-358 1073l-361 -1073h-204z" />
<glyph unicode="X" horiz-adv-x="1361" d="M35 0l512 764l-492 727h273l366 -559l365 559h254l-498 -739l512 -752h-276l-383 582l-375 -582h-258z" />
<glyph unicode="Y" d="M0 1491h264l154 -272l209 -357l211 357l155 272h250l-512 -864v-627h-223v631z" />
<glyph unicode="Z" horiz-adv-x="1302" d="M31 0l831 1292h-778v199h1173l-831 -1292h846v-199h-1241z" />
<glyph unicode="[" horiz-adv-x="745" d="M156 -498v1989h555v-180h-365v-1626h365v-183h-555z" />
<glyph unicode="\" horiz-adv-x="702" d="M55 1491h193l401 -1491h-194z" />
<glyph unicode="]" horiz-adv-x="745" d="M35 -315h364v1626h-364v180h555v-1989h-555v183z" />
<glyph unicode="^" d="M135 502l486 1020l487 -1020h-225l-262 604l-261 -604h-225z" />
<glyph unicode="_" horiz-adv-x="1024" d="M0 -299h1024v-199h-1024v199z" />
<glyph unicode="`" horiz-adv-x="1024" d="M270 1550h252l230 -409h-156z" />
<glyph unicode="a" horiz-adv-x="954" d="M70 236q0 247 286 313q101 23 256 35v69q0 166 -204 166q-151 0 -306 -71v206q151 70 310 70q188 0 293.5 -93t105.5 -280v-397l76 -246l-211 -39l-39 168q-124 -168 -297 -168q-122 0 -196 75.5t-74 191.5zM272 256q0 -52 33.5 -80.5t89.5 -28.5q114 0 217 129v179 q-129 -16 -227 -56q-56 -24 -84.5 -62t-28.5 -81z" />
<glyph unicode="b" horiz-adv-x="1153" d="M154 12v1528l204 10l-6 -557v-104q132 135 297 135q185 0 302.5 -135t117.5 -354q0 -262 -146 -414t-403 -152q-112 0 -274 27zM352 195q87 -31 170 -31q160 0 251 90t91 268q0 140 -71 223.5t-195 83.5q-136 0 -246 -110v-524z" />
<glyph unicode="c" horiz-adv-x="923" d="M80 492q0 233 153 382.5t396 149.5q117 0 229 -33v-223q-125 57 -240 57q-150 0 -242.5 -87.5t-92.5 -239.5q0 -140 95.5 -234t252.5 -94q127 0 239 41v-209q-125 -33 -245 -33q-247 0 -396 145.5t-149 377.5z" />
<glyph unicode="d" horiz-adv-x="1153" d="M84 475q0 151 66 276.5t187 199t271 73.5q90 0 193 -23v539l203 10l-5 -557v-739l25 -254h-201l-10 117q-117 -148 -297 -148q-197 0 -314.5 139t-117.5 367zM293 475q0 -136 69.5 -223.5t192.5 -87.5q134 0 246 115v516q-83 34 -183 34q-149 0 -237 -97t-88 -257z" />
<glyph unicode="e" horiz-adv-x="1075" d="M84 492q0 229 142 380.5t347 151.5q203 0 314.5 -126t111.5 -335v-108h-712q13 -127 100 -206t234 -79q160 0 309 66v-216q-155 -51 -309 -51q-245 0 -391 145t-146 378zM291 612h506q0 103 -62.5 162.5t-163.5 59.5q-106 0 -180 -59t-100 -163z" />
<glyph unicode="f" horiz-adv-x="673" d="M49 819v99l127 75v31q0 109 35.5 203t101.5 163.5t165.5 109.5t221.5 40q78 0 152 -16v-211q-84 24 -176 24q-144 0 -222.5 -80t-78.5 -219v-45h299v-174h-299v-448l6 -371h-205v819h-127z" />
<glyph unicode="g" horiz-adv-x="1153" d="M90 465q0 239 160.5 399t413.5 160q119 0 264 -23l71 -12v-997q0 -104 -33 -192t-97.5 -155.5t-168.5 -105t-237 -37.5q-167 0 -334 35v217q167 -47 326 -47q185 0 265.5 77t80.5 222v100q-115 -137 -287 -137q-198 0 -311 134t-113 362zM301 465q0 -131 66.5 -216 t187.5 -85q134 0 246 115v528q-79 18 -146 18q-162 0 -258 -97t-96 -263z" />
<glyph unicode="h" horiz-adv-x="1140" d="M154 0v1540l204 10l-6 -557v-104q139 135 301 135q164 0 256 -99t92 -282v-643h-198v625q0 97 -50 150.5t-139 53.5q-143 0 -262 -116v-713h-198z" />
<glyph unicode="i" horiz-adv-x="507" d="M115 1399q0 60 39.5 99.5t99.5 39.5t99.5 -39.5t39.5 -99.5q0 -59 -39.5 -98t-99.5 -39t-99.5 39t-39.5 98zM154 0v993h198v-993h-198z" />
<glyph unicode="j" horiz-adv-x="491" d="M-131 -279q65 -14 119 -14q166 0 166 180v1106h198v-1108q0 -184 -92 -283.5t-272 -99.5q-59 0 -119 17v202zM115 1401q0 60 39.5 99.5t99.5 39.5t99.5 -39.5t39.5 -99.5q0 -59 -39.5 -98t-99.5 -39t-99.5 39t-39.5 98z" />
<glyph unicode="k" horiz-adv-x="1095" d="M154 0v1540l204 10l-6 -569v-389l170 174l215 227h277l-418 -426l489 -567h-274l-186 225l-168 199l-105 -107v-317h-198z" />
<glyph unicode="l" horiz-adv-x="507" d="M154 0v1540l204 10l-6 -557v-993h-198z" />
<glyph unicode="m" horiz-adv-x="1699" d="M150 989l198 10v-104q56 56 131.5 92.5t161.5 36.5q186 0 266 -147q69 69 143.5 108t172.5 39q159 0 248.5 -95.5t89.5 -269.5v-659h-199v641q0 86 -43 137t-125 51q-65 0 -127.5 -30.5t-110.5 -85.5v-713h-198v641q0 86 -43 137t-125 51q-131 0 -238 -116v-713h-198v686 z" />
<glyph unicode="n" horiz-adv-x="1140" d="M150 989l198 10v-114q132 139 305 139q164 0 256 -99t92 -282v-643h-198v625q0 97 -50 150.5t-139 53.5q-143 0 -262 -116v-713h-198v686z" />
<glyph unicode="o" horiz-adv-x="1177" d="M80 492q0 231 148.5 381.5t369.5 150.5q216 0 358 -148.5t142 -375.5q0 -231 -148 -381t-370 -150q-216 0 -358 148t-142 375zM281 508q0 -145 92.5 -244.5t230.5 -99.5q126 0 209.5 90t83.5 233t-92 242.5t-225 99.5q-130 0 -214.5 -89.5t-84.5 -231.5z" />
<glyph unicode="p" horiz-adv-x="1153" d="M150 989l198 10v-114q132 139 295 139q189 0 307.5 -140.5t118.5 -369.5q0 -235 -134.5 -390t-361.5 -155q-113 0 -221 41v-41l6 -467h-204v1184zM352 221q102 -57 219 -57q136 0 214.5 91t78.5 255q0 147 -72.5 233t-193.5 86q-130 0 -246 -110v-498z" />
<glyph unicode="q" horiz-adv-x="1153" d="M90 463q0 119 42 222.5t116.5 178t182 117.5t233.5 43q133 0 280 -25l55 -10v-1487h-204l6 467v137q-115 -137 -287 -137q-198 0 -311 134.5t-113 359.5zM301 465q0 -131 66.5 -216t187.5 -85q134 0 246 115v528q-79 18 -146 18q-162 0 -258 -97t-96 -263z" />
<glyph unicode="r" horiz-adv-x="772" d="M147 989l201 10v-139q138 164 328 164q45 0 78 -8v-213q-66 12 -107 12q-171 0 -295 -147v-312l6 -356h-204v686z" />
<glyph unicode="s" horiz-adv-x="743" d="M74 735q0 126 87.5 207.5t235.5 81.5q127 0 258 -41v-219q-137 70 -258 70q-70 0 -103.5 -27t-33.5 -66q0 -36 22 -62t89 -63l133 -71q190 -102 190 -285q0 -135 -90 -213t-254 -78q-140 0 -270 54v221q143 -82 282 -82q144 0 144 100q0 77 -107 133l-151 80 q-174 89 -174 260z" />
<glyph unicode="t" horiz-adv-x="741" d="M49 819v99l326 325v-250h299v-174h-299v-538q0 -55 33.5 -86t101.5 -31q95 0 201 47v-193q-111 -49 -234 -49q-141 0 -221 76t-80 227v547h-127z" />
<glyph unicode="u" horiz-adv-x="1136" d="M139 346v647h199v-622q0 -98 48 -152.5t136 -54.5q140 0 260 117v712h199v-739l25 -254h-201l-10 117q-144 -148 -314 -148q-163 0 -252.5 97t-89.5 280z" />
<glyph unicode="v" horiz-adv-x="980" d="M0 993h223l117 -315l156 -420l155 420l117 315h213l-387 -993h-207z" />
<glyph unicode="w" horiz-adv-x="1601" d="M0 993h217l105 -315l139 -412l250 727h188l250 -727l137 412l105 315h211l-355 -993h-207l-239 676l-242 -676h-207z" />
<glyph unicode="x" horiz-adv-x="993" d="M31 0l350 508l-336 485h248l215 -329l211 329h231l-338 -485l353 -508h-248l-230 350l-227 -350h-229z" />
<glyph unicode="y" horiz-adv-x="980" d="M0 993h221l117 -315l154 -387l159 387l117 315h213l-606 -1491h-234l240 521z" />
<glyph unicode="z" horiz-adv-x="940" d="M31 0l528 805h-491v188h831l-526 -805h536v-188h-878z" />
<glyph unicode="{" horiz-adv-x="745" d="M104 408v178h56q65 0 100 35.5t35 97.5q0 42 -25 158l-12 55q-22 90 -22 176q0 172 102.5 277.5t267.5 105.5h105v-180h-80q-98 0 -149.5 -56t-51.5 -153q0 -63 21 -160l10 -49q20 -98 20 -158q0 -173 -141 -237q141 -64 141 -240q0 -36 -20 -158l-10 -49 q-21 -97 -21 -157q0 -97 51.5 -153t149.5 -56h80v-183h-105q-165 0 -267.5 105.5t-102.5 277.5q0 86 22 176l12 56q25 116 25 159q0 62 -35 97t-100 35h-56z" />
<glyph unicode="|" horiz-adv-x="620" d="M217 -498v1989h189v-1989h-189z" />
<glyph unicode="}" horiz-adv-x="745" d="M35 -315h80q98 0 149 56t51 153q0 65 -20 157l-8 49q-23 113 -23 158q0 176 142 240q-142 64 -142 237q0 47 23 160l8 47q20 92 20 160q0 97 -51 153t-149 56h-80v180h104q165 0 268 -105.5t103 -277.5q0 -82 -23 -176l-12 -55q-24 -111 -24 -158q0 -62 35 -97.5 t100 -35.5h55v-178h-55q-65 0 -100 -35t-35 -97q0 -48 24 -159l12 -56q23 -94 23 -176q0 -172 -103 -277.5t-268 -105.5h-104v183z" />
<glyph unicode="~" d="M125 594v213q116 98 260 98q65 0 123.5 -16t134.5 -53q128 -64 238 -64q140 0 237 123v-213q-116 -98 -260 -98q-65 0 -123.5 16t-136.5 53q-125 64 -236 64q-140 0 -237 -123z" />
<glyph unicode="&#xa1;" horiz-adv-x="620" d="M158 1370q0 65 43.5 108.5t107.5 43.5q66 0 109 -43.5t43 -108.5q0 -66 -43 -108.5t-109 -42.5q-65 0 -108 42.5t-43 108.5zM211 0v643q0 145 24 247t74 195q52 -92 76.5 -194.5t24.5 -247.5v-643h-199z" />
<glyph unicode="&#xa2;" d="M195 748q0 199 116 341.5t307 180.5v221h181v-213q80 -3 174 -31v-219q-116 53 -240 53q-150 0 -243 -88t-93 -239q0 -141 94.5 -234.5t253.5 -93.5q125 0 240 39v-207q-93 -25 -186 -33v-225h-181v233q-194 35 -308.5 174.5t-114.5 340.5z" />
<glyph unicode="&#xa3;" d="M92 -31v187q81 45 125.5 95t71 135t39.5 228l6 64h-203v180h221l10 100q26 264 179 414t399 150q104 0 188 -19v-235q-105 24 -194 24q-150 0 -238.5 -87.5t-105.5 -262.5l-8 -84h407v-180h-428l-10 -92q-16 -142 -49.5 -220.5t-89.5 -136.5q127 -9 204 -24 q159 -35 252 -35q127 0 242 63v-217q-117 -47 -252 -47q-92 0 -254 29q-18 3 -64 11.5t-66.5 11.5t-55.5 6.5t-66 3.5q-47 0 -90.5 -8.5t-72 -18t-97.5 -35.5z" />
<glyph unicode="&#xa5;" d="M0 1491h264l154 -272l209 -357l211 357l155 272h250l-332 -557h283v-178h-389l-74 -129v-90h463v-179h-463v-358h-223v358h-459v179h459v94l-76 125h-383v178h277z" />
<glyph unicode="&#xa6;" horiz-adv-x="620" d="M217 229h189v-727h-189v727zM217 766v725h189v-725h-189z" />
<glyph unicode="&#xa7;" horiz-adv-x="1107" d="M94 606q0 171 125 299q-72 93 -72 228q0 166 125.5 277.5t331.5 111.5q180 0 354 -58v-254q-191 82 -356 82q-112 0 -170.5 -43.5t-58.5 -109.5q0 -57 37 -102t135 -95l198 -102q144 -72 214.5 -180.5t70.5 -243.5q0 -162 -123 -281q74 -95 74 -239q0 -177 -120 -285.5 t-335 -108.5q-123 0 -218 18.5t-191 59.5v260q114 -56 207 -82t210 -26q112 0 164 44.5t52 121.5q0 59 -39 104.5t-125 87.5l-211 100q-148 71 -213.5 174t-65.5 242zM315 618q0 -72 34.5 -123t127.5 -98l275 -137q55 52 55 150q0 73 -39 127.5t-129 99.5l-268 135 q-56 -66 -56 -154z" />
<glyph unicode="&#xa8;" horiz-adv-x="1024" d="M180 1360q0 57 38 94t97 37q57 0 94 -37t37 -94q0 -59 -37 -97t-94 -38q-59 0 -97 38.5t-38 96.5zM578 1360q0 57 38 94t97 37q57 0 94 -37t37 -94q0 -59 -37 -97t-94 -38q-59 0 -97 38.5t-38 96.5z" />
<glyph unicode="&#xa9;" horiz-adv-x="1740" d="M90 748q0 217 103.5 395t282 278.5t392.5 100.5q166 0 312 -60t249 -163t162.5 -246.5t59.5 -304.5q0 -162 -60 -307t-162.5 -248t-244.5 -163.5t-299 -60.5q-230 0 -412 100t-282.5 277.5t-100.5 401.5zM264 748q0 -273 174.5 -445t448.5 -172q120 0 228.5 47.5 t188 128.5t126.5 196.5t47 244.5q0 172 -78 312t-218 220t-313 80q-166 0 -304.5 -79.5t-219 -220t-80.5 -312.5zM426 748q0 206 135.5 339.5t347.5 133.5q112 0 217 -31v-197q-112 45 -217 45q-132 0 -213.5 -76t-81.5 -208q0 -122 84 -204.5t222 -82.5q110 0 217 39v-187 q-105 -32 -215 -32q-228 0 -362 127.5t-134 333.5z" />
<glyph unicode="&#xaa;" horiz-adv-x="708" d="M59 616q0 77 50.5 137t154.5 85q36 8 166 22v45q0 54 -31 78.5t-100 24.5q-102 0 -217 -56v166q111 53 223 53q133 0 209 -67.5t76 -200.5v-270l57 -178l-172 -27l-33 113q-81 -113 -194 -113q-84 0 -136.5 52t-52.5 136zM223 637q0 -30 18.5 -48t51.5 -18q69 0 137 74 v119q-87 -12 -139 -39q-68 -35 -68 -88z" />
<glyph unicode="&#xab;" d="M82 492l371 501h231l-362 -501l364 -492h-231zM557 492l373 501h229l-360 -501l362 -492h-229z" />
<glyph unicode="&#xac;" d="M125 874v189h993v-635h-188v446h-805z" />
<glyph unicode="&#xad;" horiz-adv-x="620" d="M74 397v199h473v-199h-473z" />
<glyph unicode="&#xae;" horiz-adv-x="1740" d="M90 748q0 217 103.5 395t282 278.5t392.5 100.5q166 0 312 -60t249 -163t162.5 -246.5t59.5 -304.5q0 -162 -60 -307t-162.5 -248t-244.5 -163.5t-299 -60.5q-230 0 -412 100t-282.5 277.5t-100.5 401.5zM264 748q0 -273 174.5 -445t448.5 -172q120 0 228.5 47.5 t188 128.5t126.5 196.5t47 244.5q0 172 -78 312t-218 220t-313 80q-166 0 -304.5 -79.5t-219 -220t-80.5 -312.5zM547 303v899h303q147 0 230 -72.5t83 -195.5q0 -191 -178 -250l283 -381h-234l-119 176l-133 180h-57v-356h-178zM725 823h117q133 0 133 111q0 51 -33.5 77.5 t-95.5 26.5h-121v-215z" />
<glyph unicode="&#xaf;" horiz-adv-x="1024" d="M180 1268v178h664v-178h-664z" />
<glyph unicode="&#xb0;" horiz-adv-x="993" d="M119 1141q0 164 108 272.5t271 108.5q164 0 271.5 -108.5t107.5 -272.5q0 -163 -107.5 -270t-271.5 -107q-163 0 -271 107t-108 270zM315 1141q0 -77 53.5 -130t129.5 -53q77 0 128.5 53t51.5 130q0 78 -51 130t-129 52q-77 0 -130 -52t-53 -130z" />
<glyph unicode="&#xb1;" d="M125 164v188h401v383h-401v189h401v403h191v-403h401v-189h-401v-383h401v-188h-993z" />
<glyph unicode="&#xb2;" horiz-adv-x="874" d="M68 496l297 376q110 137 150 218t40 153q0 68 -42.5 108t-117.5 40q-116 0 -266 -93v185q123 76 270 76q152 0 239 -88t87 -228q0 -97 -53.5 -191.5t-196.5 -265.5l-104 -122h397v-168h-700z" />
<glyph unicode="&#xb3;" horiz-adv-x="874" d="M129 535v182q129 -72 254 -72q87 0 133.5 39.5t46.5 110.5q0 68 -47.5 108.5t-138.5 40.5h-90v162h75q78 0 122 39.5t44 103.5q0 65 -41 103.5t-118 38.5q-111 0 -232 -62v170q114 60 240 60q138 0 228.5 -82t90.5 -217q0 -78 -33.5 -129.5t-101.5 -90.5 q174 -67 174 -258q0 -137 -97 -221t-255 -84q-150 0 -254 58z" />
<glyph unicode="&#xb4;" horiz-adv-x="1024" d="M270 1141l232 409h250l-326 -409h-156z" />
<glyph unicode="&#xb5;" horiz-adv-x="1146" d="M150 -498v1491h198v-622q0 -98 48 -152.5t136 -54.5q141 0 261 117v712h198v-739l25 -254h-201l-10 117q-144 -148 -313 -148q-90 0 -168 33l24 -500h-198z" />
<glyph unicode="&#xb6;" horiz-adv-x="1417" d="M104 1001q0 104 36.5 192.5t108 155t185.5 104.5t260 38h543v-1989h-188v1809h-179v-1809h-188v1002q-118 0 -219.5 29t-183 87t-128.5 155.5t-47 225.5z" />
<glyph unicode="&#xb7;" horiz-adv-x="620" d="M160 489q0 66 42.5 109t108.5 43q65 0 108.5 -43t43.5 -109q0 -64 -43.5 -107.5t-108.5 -43.5q-66 0 -108.5 43t-42.5 108z" />
<glyph unicode="&#xb8;" horiz-adv-x="1024" d="M317 -342q66 -20 132 -20q102 0 102 75q0 97 -180 97l39 280h118l-22 -172q93 -11 146 -64.5t53 -140.5q0 -98 -65 -154.5t-185 -56.5q-70 0 -138 19v137z" />
<glyph unicode="&#xb9;" horiz-adv-x="663" d="M80 1210v144l297 186h127v-1044h-168v847z" />
<glyph unicode="&#xba;" horiz-adv-x="864" d="M68 795q0 163 104.5 269.5t261.5 106.5q152 0 251 -105t99 -265q0 -163 -103 -268t-261 -105q-151 0 -251.5 104t-100.5 263zM229 805q0 -96 58 -158.5t151 -62.5q81 0 135 58.5t54 150.5q0 95 -59 158t-148 63q-83 0 -137 -58t-54 -151z" />
<glyph unicode="&#xbb;" d="M82 0l362 492l-360 501h229l373 -501l-375 -492h-229zM557 0l365 492l-363 501h232l370 -501l-373 -492h-231z" />
<glyph unicode="&#xbc;" horiz-adv-x="2078" d="M80 1161v144l297 186h127v-1045h-168v848zM569 0l650 1491h188l-649 -1491h-189zM1206 254l512 790h152v-628h119v-162h-119v-254h-168v254h-496zM1481 416h221v340z" />
<glyph unicode="&#xbd;" horiz-adv-x="2187" d="M80 1161v144l297 186h127v-1045h-168v848zM569 0l650 1491h188l-649 -1491h-189zM1380 0l297 377q110 138 150.5 218.5t40.5 152.5q0 68 -42.5 107.5t-117.5 39.5q-118 0 -266 -92v184q123 76 270 76q152 0 239 -87.5t87 -227.5q0 -97 -53.5 -191.5t-196.5 -265.5 l-105 -123h398v-168h-701z" />
<glyph unicode="&#xbe;" horiz-adv-x="2287" d="M129 485v183q129 -72 254 -72q87 0 133.5 39t46.5 110q0 68 -47.5 109t-138.5 41h-90v162h75q78 0 122 39.5t44 103.5q0 65 -41 103t-118 38q-113 0 -232 -61v170q112 59 240 59q138 0 228.5 -82t90.5 -217q0 -78 -33.5 -129t-101.5 -90q174 -67 174 -258 q0 -137 -97 -221t-255 -84q-152 0 -254 57zM778 0l649 1491h189l-649 -1491h-189zM1415 254l512 790h152v-628h119v-162h-119v-254h-168v254h-496zM1690 416h221v340z" />
<glyph unicode="&#xbf;" horiz-adv-x="811" d="M86 350q0 96 37.5 183t116.5 182l57 69q63 76 93 141.5t50 159.5q42 -35 65 -87t23 -101q0 -67 -21.5 -122.5t-70.5 -123.5l-47 -65q-35 -48 -51 -72t-31.5 -66.5t-15.5 -85.5q0 -90 55 -142t148 -52q117 0 247 57v-202q-121 -54 -266 -54q-177 0 -283 104t-106 277z M295 1370q0 65 42.5 108.5t108.5 43.5q64 0 108 -44t44 -108q0 -66 -43.5 -108.5t-108.5 -42.5q-66 0 -108.5 42.5t-42.5 108.5z" />
<glyph unicode="&#xc0;" horiz-adv-x="1351" d="M31 0l542 1491h207l543 -1491h-248l-121 356h-563l-123 -356h-237zM360 1948h256l226 -334h-166zM463 555h420l-209 600z" />
<glyph unicode="&#xc1;" horiz-adv-x="1351" d="M31 0l542 1491h207l543 -1491h-248l-121 356h-563l-123 -356h-237zM463 555h420l-209 600zM510 1614l225 334h256l-315 -334h-166z" />
<glyph unicode="&#xc2;" horiz-adv-x="1351" d="M31 0l542 1491h207l543 -1491h-248l-121 356h-563l-123 -356h-237zM309 1614l279 334h174l278 -334h-168l-196 168l-199 -168h-168zM463 555h420l-209 600z" />
<glyph unicode="&#xc3;" horiz-adv-x="1351" d="M31 0l542 1491h207l543 -1491h-248l-121 356h-563l-123 -356h-237zM342 1653v196q77 64 174 64q80 0 174 -47q79 -39 158 -39q96 0 158 80v-197q-78 -65 -175 -65q-80 0 -174 47q-78 41 -155 41q-95 0 -160 -80zM463 555h420l-209 600z" />
<glyph unicode="&#xc4;" horiz-adv-x="1351" d="M31 0l542 1491h207l543 -1491h-248l-121 356h-563l-123 -356h-237zM342 1782q0 58 38 94.5t97 36.5q57 0 94 -36.5t37 -94.5q0 -57 -37 -95t-94 -38q-58 0 -96.5 38t-38.5 95zM463 555h420l-209 600zM739 1782q0 58 38 94.5t97 36.5q57 0 94.5 -36.5t37.5 -94.5 q0 -57 -37.5 -95t-94.5 -38q-58 0 -96.5 38t-38.5 95z" />
<glyph unicode="&#xc5;" horiz-adv-x="1351" d="M31 0l538 1477q-77 29 -121.5 96.5t-44.5 157.5q0 117 78 194.5t195 77.5q118 0 196 -77.5t78 -194.5q0 -89 -45 -156.5t-121 -97.5l539 -1477h-248l-121 356h-563l-123 -356h-237zM463 555h420l-209 600zM545 1731q0 -57 37.5 -95.5t93.5 -38.5q57 0 93 38t36 96 q0 56 -36 92.5t-93 36.5q-56 0 -93.5 -37t-37.5 -92z" />
<glyph unicode="&#xc6;" horiz-adv-x="1906" d="M31 0l770 1491h987v-199h-627v-434h576v-199h-576v-460h651v-199h-874v356h-475l-180 -356h-252zM563 555h375v737z" />
<glyph unicode="&#xc7;" horiz-adv-x="1312" d="M90 737q0 226 103 405t287.5 279.5t416.5 100.5q182 0 338 -43v-256q-172 69 -338 69q-254 0 -407.5 -146t-153.5 -401q0 -113 40.5 -212.5t114 -173.5t184 -117t243.5 -43q153 0 335 59v-246q-145 -37 -323 -43l-6 -51q93 -11 146.5 -64.5t53.5 -140.5q0 -98 -66 -154.5 t-186 -56.5q-69 0 -137 19v137q66 -20 133 -20q48 0 74.5 19.5t26.5 55.5q0 97 -181 97l23 163q-328 23 -524.5 233t-196.5 531z" />
<glyph unicode="&#xc8;" horiz-adv-x="1148" d="M178 0v1491h850v-199h-625v-434h576v-199h-576v-460h652v-199h-877zM283 1948h256l225 -334h-166z" />
<glyph unicode="&#xc9;" horiz-adv-x="1148" d="M178 0v1491h850v-199h-625v-434h576v-199h-576v-460h652v-199h-877zM432 1614l225 334h256l-315 -334h-166z" />
<glyph unicode="&#xca;" horiz-adv-x="1148" d="M178 0v1491h850v-199h-625v-434h576v-199h-576v-460h652v-199h-877zM238 1614l278 334h174l279 -334h-168l-197 168l-198 -168h-168z" />
<glyph unicode="&#xcb;" horiz-adv-x="1148" d="M178 0v1491h850v-199h-625v-434h576v-199h-576v-460h652v-199h-877zM291 1782q0 58 38 94.5t97 36.5q57 0 94 -36.5t37 -94.5q0 -57 -37 -95t-94 -38q-58 0 -96.5 38t-38.5 95zM688 1782q0 58 38 94.5t97 36.5q57 0 94 -36.5t37 -94.5q0 -57 -37 -95t-94 -38 q-58 0 -96.5 38t-38.5 95z" />
<glyph unicode="&#xcc;" horiz-adv-x="581" d="M-25 1948h256l226 -334h-166zM178 0v1491h225v-1491h-225z" />
<glyph unicode="&#xcd;" horiz-adv-x="581" d="M125 1614l225 334h256l-315 -334h-166zM178 0v1491h225v-1491h-225z" />
<glyph unicode="&#xce;" horiz-adv-x="581" d="M-76 1614l279 334h174l278 -334h-168l-196 168l-199 -168h-168zM178 0v1491h225v-1491h-225z" />
<glyph unicode="&#xcf;" horiz-adv-x="581" d="M-39 1782q0 58 38 94.5t97 36.5q57 0 94 -36.5t37 -94.5q0 -57 -37 -95t-94 -38q-58 0 -96.5 38t-38.5 95zM178 0v1491h225v-1491h-225zM358 1782q0 58 38.5 94.5t97.5 36.5q57 0 94 -36.5t37 -94.5q0 -57 -37 -95t-94 -38q-58 0 -97 38t-39 95z" />
<glyph unicode="&#xd0;" horiz-adv-x="1538" d="M10 662v178h223v651h443q364 0 569 -198t205 -533q0 -355 -204 -557.5t-580 -202.5h-433v662h-223zM457 199h184q273 0 417 143.5t144 409.5q0 256 -144.5 398t-410.5 142h-190v-452h458v-178h-458v-463z" />
<glyph unicode="&#xd1;" horiz-adv-x="1626" d="M178 0v1491h225l834 -1135v1135h209v-1491h-223l-836 1133v-1133h-209zM504 1653v196q77 64 174 64q80 0 174 -47q79 -39 158 -39q95 0 157 80v-197q-78 -65 -174 -65q-80 0 -174 47q-78 41 -155 41q-95 0 -160 -80z" />
<glyph unicode="&#xd2;" horiz-adv-x="1701" d="M90 748q0 225 100.5 402.5t274.5 274.5t389 97q162 0 303 -58t241.5 -159.5t158 -245.5t57.5 -311q0 -135 -38 -256.5t-107.5 -216t-164 -164t-212 -106t-246.5 -36.5q-162 0 -302 58t-240 160t-157 247t-57 314zM330 752q0 -243 149 -400t375 -157q222 0 370 152 t148 398q0 242 -150 396.5t-376 154.5q-221 0 -368.5 -150t-147.5 -394zM535 1948h256l225 -334h-166z" />
<glyph unicode="&#xd3;" horiz-adv-x="1701" d="M90 748q0 225 100.5 402.5t274.5 274.5t389 97q162 0 303 -58t241.5 -159.5t158 -245.5t57.5 -311q0 -135 -38 -256.5t-107.5 -216t-164 -164t-212 -106t-246.5 -36.5q-162 0 -302 58t-240 160t-157 247t-57 314zM330 752q0 -243 149 -400t375 -157q222 0 370 152 t148 398q0 242 -150 396.5t-376 154.5q-221 0 -368.5 -150t-147.5 -394zM684 1614l225 334h256l-315 -334h-166z" />
<glyph unicode="&#xd4;" horiz-adv-x="1701" d="M90 748q0 225 100.5 402.5t274.5 274.5t389 97q162 0 303 -58t241.5 -159.5t158 -245.5t57.5 -311q0 -135 -38 -256.5t-107.5 -216t-164 -164t-212 -106t-246.5 -36.5q-162 0 -302 58t-240 160t-157 247t-57 314zM330 752q0 -243 149 -400t375 -157q222 0 370 152 t148 398q0 242 -150 396.5t-376 154.5q-221 0 -368.5 -150t-147.5 -394zM483 1614l279 334h174l278 -334h-167l-197 168l-199 -168h-168z" />
<glyph unicode="&#xd5;" horiz-adv-x="1701" d="M90 748q0 225 100.5 402.5t274.5 274.5t389 97q162 0 303 -58t241.5 -159.5t158 -245.5t57.5 -311q0 -135 -38 -256.5t-107.5 -216t-164 -164t-212 -106t-246.5 -36.5q-162 0 -302 58t-240 160t-157 247t-57 314zM330 752q0 -243 149 -400t375 -157q222 0 370 152 t148 398q0 242 -150 396.5t-376 154.5q-221 0 -368.5 -150t-147.5 -394zM518 1653v196q77 64 174 64q80 0 174 -47q79 -39 158 -39q96 0 158 80v-197q-78 -65 -174 -65q-80 0 -174 47q-78 41 -156 41q-95 0 -160 -80z" />
<glyph unicode="&#xd6;" horiz-adv-x="1701" d="M90 748q0 225 100.5 402.5t274.5 274.5t389 97q162 0 303 -58t241.5 -159.5t158 -245.5t57.5 -311q0 -135 -38 -256.5t-107.5 -216t-164 -164t-212 -106t-246.5 -36.5q-162 0 -302 58t-240 160t-157 247t-57 314zM330 752q0 -243 149 -400t375 -157q222 0 370 152 t148 398q0 242 -150 396.5t-376 154.5q-221 0 -368.5 -150t-147.5 -394zM520 1782q0 58 38 94.5t97 36.5q57 0 94 -36.5t37 -94.5q0 -57 -37 -95t-94 -38q-58 0 -96.5 38t-38.5 95zM918 1782q0 58 38 94.5t97 36.5q57 0 94 -36.5t37 -94.5q0 -57 -37 -95t-94 -38 q-58 0 -96.5 38t-38.5 95z" />
<glyph unicode="&#xd7;" d="M205 461l282 284l-282 287l131 131l285 -282l286 282l131 -131l-282 -287l282 -284l-131 -133l-286 284l-285 -284z" />
<glyph unicode="&#xd8;" horiz-adv-x="1701" d="M-27 0l267 266q-150 202 -150 482q0 225 100.5 402.5t274.5 274.5t389 97q278 0 477 -162l133 131h254l-260 -258q156 -205 156 -485q0 -135 -38 -256.5t-107.5 -216t-164 -164t-212 -106t-246.5 -36.5q-280 0 -486 166l-135 -135h-252zM330 752q0 -174 82 -312l753 754 q-133 102 -319 102q-221 0 -368.5 -150t-147.5 -394zM528 303q139 -108 326 -108q222 0 370 152t148 398q0 176 -88 314z" />
<glyph unicode="&#xd9;" horiz-adv-x="1497" d="M164 537v954h223v-944q0 -163 96.5 -263t272.5 -100q174 0 271 100t97 261v946h207v-954q0 -124 -37 -227.5t-107.5 -179.5t-180.5 -118.5t-250 -42.5q-145 0 -258.5 42.5t-186 119t-110 179.5t-37.5 227zM432 1948h256l225 -334h-165z" />
<glyph unicode="&#xda;" horiz-adv-x="1497" d="M164 537v954h223v-944q0 -163 96.5 -263t272.5 -100q174 0 271 100t97 261v946h207v-954q0 -124 -37 -227.5t-107.5 -179.5t-180.5 -118.5t-250 -42.5q-145 0 -258.5 42.5t-186 119t-110 179.5t-37.5 227zM582 1614l225 334h256l-315 -334h-166z" />
<glyph unicode="&#xdb;" horiz-adv-x="1497" d="M164 537v954h223v-944q0 -163 96.5 -263t272.5 -100q174 0 271 100t97 261v946h207v-954q0 -124 -37 -227.5t-107.5 -179.5t-180.5 -118.5t-250 -42.5q-145 0 -258.5 42.5t-186 119t-110 179.5t-37.5 227zM383 1614l279 334h174l278 -334h-168l-196 168l-199 -168h-168z " />
<glyph unicode="&#xdc;" horiz-adv-x="1497" d="M164 537v954h223v-944q0 -163 96.5 -263t272.5 -100q174 0 271 100t97 261v946h207v-954q0 -124 -37 -227.5t-107.5 -179.5t-180.5 -118.5t-250 -42.5q-145 0 -258.5 42.5t-186 119t-110 179.5t-37.5 227zM416 1782q0 58 38 94.5t97 36.5q57 0 94 -36.5t37 -94.5 q0 -57 -37 -95t-94 -38q-58 0 -96.5 38t-38.5 95zM813 1782q0 58 38 94.5t97 36.5q57 0 94 -36.5t37 -94.5q0 -57 -37 -95t-94 -38q-58 0 -96.5 38t-38.5 95z" />
<glyph unicode="&#xdd;" d="M0 1491h264l154 -272l209 -357l211 357l155 272h250l-512 -864v-627h-223v631zM461 1614l225 334h256l-315 -334h-166z" />
<glyph unicode="&#xde;" horiz-adv-x="1294" d="M178 0v1491h225v-297h283q247 0 385.5 -121.5t138.5 -324.5q0 -219 -134.5 -337t-401.5 -118h-271v-293h-225zM403 492h265q301 0 301 256q0 117 -76.5 181t-216.5 64h-273v-501z" />
<glyph unicode="&#xdf;" horiz-adv-x="1138" d="M49 819v99l127 75v43q0 138 58 252.5t167.5 183t249.5 68.5q162 0 259.5 -93.5t97.5 -236.5q0 -74 -23 -131.5t-60 -99.5t-106 -98q-61 -52 -61 -113q0 -29 16.5 -59t65.5 -76l104 -96q146 -134 146 -285q0 -126 -81 -204.5t-231 -78.5q-130 0 -227 39v215 q115 -61 223 -61q57 0 90 26t33 68q0 36 -19.5 69t-72.5 83l-92 84q-79 72 -111.5 137t-32.5 137q0 75 36 131.5t106 116.5q51 44 72.5 78.5t21.5 87.5q0 70 -46 113.5t-126 43.5q-115 0 -186.5 -82t-71.5 -217v-1038h-199v819h-127z" />
<glyph unicode="&#xe0;" horiz-adv-x="954" d="M70 236q0 247 286 313q101 23 256 35v69q0 166 -204 166q-151 0 -306 -71v206q151 70 310 70q188 0 293.5 -93t105.5 -280v-397l76 -246l-211 -39l-39 168q-124 -168 -297 -168q-122 0 -196 75.5t-74 191.5zM137 1550h252l229 -409h-155zM272 256q0 -52 33.5 -80.5 t89.5 -28.5q114 0 217 129v179q-129 -16 -227 -56q-56 -24 -84.5 -62t-28.5 -81z" />
<glyph unicode="&#xe1;" horiz-adv-x="954" d="M70 236q0 247 286 313q101 23 256 35v69q0 166 -204 166q-151 0 -306 -71v206q151 70 310 70q188 0 293.5 -93t105.5 -280v-397l76 -246l-211 -39l-39 168q-124 -168 -297 -168q-122 0 -196 75.5t-74 191.5zM272 256q0 -52 33.5 -80.5t89.5 -28.5q114 0 217 129v179 q-129 -16 -227 -56q-56 -24 -84.5 -62t-28.5 -81zM287 1141l231 409h250l-326 -409h-155z" />
<glyph unicode="&#xe2;" horiz-adv-x="954" d="M70 236q0 247 286 313q101 23 256 35v69q0 166 -204 166q-151 0 -306 -71v206q151 70 310 70q188 0 293.5 -93t105.5 -280v-397l76 -246l-211 -39l-39 168q-124 -168 -297 -168q-122 0 -196 75.5t-74 191.5zM100 1141l254 409h174l254 -409h-155l-185 229l-184 -229h-158 zM272 256q0 -52 33.5 -80.5t89.5 -28.5q114 0 217 129v179q-129 -16 -227 -56q-56 -24 -84.5 -62t-28.5 -81z" />
<glyph unicode="&#xe3;" horiz-adv-x="954" d="M70 236q0 247 286 313q101 23 256 35v69q0 166 -204 166q-151 0 -306 -71v206q151 70 310 70q188 0 293.5 -93t105.5 -280v-397l76 -246l-211 -39l-39 168q-124 -168 -297 -168q-122 0 -196 75.5t-74 191.5zM119 1233v194q77 64 174 64q80 0 174 -47q79 -39 158 -39 q95 0 157 80v-195q-75 -65 -174 -65q-80 0 -174 47q-78 41 -155 41q-93 0 -160 -80zM272 256q0 -52 33.5 -80.5t89.5 -28.5q114 0 217 129v179q-129 -16 -227 -56q-56 -24 -84.5 -62t-28.5 -81z" />
<glyph unicode="&#xe4;" horiz-adv-x="954" d="M70 236q0 247 286 313q101 23 256 35v69q0 166 -204 166q-151 0 -306 -71v206q151 70 310 70q188 0 293.5 -93t105.5 -280v-397l76 -246l-211 -39l-39 168q-124 -168 -297 -168q-122 0 -196 75.5t-74 191.5zM119 1360q0 57 38 94t97 37q57 0 94 -37t37 -94q0 -59 -37 -97 t-94 -38q-58 0 -96.5 38.5t-38.5 96.5zM272 256q0 -52 33.5 -80.5t89.5 -28.5q114 0 217 129v179q-129 -16 -227 -56q-56 -24 -84.5 -62t-28.5 -81zM516 1360q0 57 38 94t97 37q57 0 94 -37t37 -94q0 -59 -37 -97t-94 -38q-59 0 -97 38.5t-38 96.5z" />
<glyph unicode="&#xe5;" horiz-adv-x="954" d="M70 236q0 247 286 313q101 23 256 35v69q0 166 -204 166q-151 0 -306 -71v206q151 70 310 70q188 0 293.5 -93t105.5 -280v-397l76 -246l-211 -39l-39 168q-124 -168 -297 -168q-122 0 -196 75.5t-74 191.5zM178 1415q0 117 78.5 195t196.5 78q117 0 194.5 -78t77.5 -195 q0 -118 -77.5 -196t-194.5 -78q-119 0 -197 78t-78 196zM272 256q0 -52 33.5 -80.5t89.5 -28.5q114 0 217 129v179q-129 -16 -227 -56q-56 -24 -84.5 -62t-28.5 -81zM319 1415q0 -57 38.5 -95t95.5 -38q55 0 92 38t37 95q0 55 -37 92t-92 37q-57 0 -95.5 -37t-38.5 -92z" />
<glyph unicode="&#xe6;" horiz-adv-x="1601" d="M70 236q0 247 286 313q101 23 256 35v69q0 166 -204 166q-151 0 -306 -71v206q151 70 310 70q227 0 333 -156q146 156 353 156q203 0 314.5 -126t111.5 -335v-108h-713q13 -127 100 -206t234 -79q160 0 309 66v-211q-158 -56 -309 -56q-283 0 -432 193 q-76 -97 -156.5 -145t-191.5 -48q-134 0 -214.5 75.5t-80.5 191.5zM272 260q0 -52 33 -80t90 -28q66 0 124 34t120 117q-27 79 -27 152q-129 -16 -227 -56q-113 -48 -113 -139zM813 612h506q0 103 -62 162.5t-163 59.5q-106 0 -180.5 -59t-100.5 -163z" />
<glyph unicode="&#xe7;" horiz-adv-x="923" d="M80 492q0 233 153 382.5t396 149.5q117 0 229 -33v-223q-125 57 -240 57q-150 0 -242.5 -87.5t-92.5 -239.5q0 -140 95.5 -234t252.5 -94q118 0 239 41v-209q-125 -33 -245 -33h-13l-6 -51q93 -11 146 -64.5t53 -140.5q0 -98 -65 -154.5t-185 -56.5q-69 0 -137 19v137 q64 -20 131 -20q102 0 102 75q0 97 -182 97l27 174q-192 35 -304 172t-112 336z" />
<glyph unicode="&#xe8;" horiz-adv-x="1075" d="M84 492q0 229 142 380.5t347 151.5q203 0 314.5 -126t111.5 -335v-108h-712q13 -127 100 -206t234 -79q160 0 309 66v-216q-155 -51 -309 -51q-245 0 -391 145t-146 378zM250 1550h252l229 -409h-156zM291 612h506q0 103 -62.5 162.5t-163.5 59.5q-106 0 -180 -59 t-100 -163z" />
<glyph unicode="&#xe9;" horiz-adv-x="1075" d="M84 492q0 229 142 380.5t347 151.5q203 0 314.5 -126t111.5 -335v-108h-712q13 -127 100 -206t234 -79q160 0 309 66v-216q-155 -51 -309 -51q-245 0 -391 145t-146 378zM291 612h506q0 103 -62.5 162.5t-163.5 59.5q-106 0 -180 -59t-100 -163zM420 1141l231 409h250 l-326 -409h-155z" />
<glyph unicode="&#xea;" horiz-adv-x="1075" d="M84 492q0 229 142 380.5t347 151.5q203 0 314.5 -126t111.5 -335v-108h-712q13 -127 100 -206t234 -79q160 0 309 66v-216q-155 -51 -309 -51q-245 0 -391 145t-146 378zM248 1141l254 409h174l254 -409h-156l-184 229l-184 -229h-158zM291 612h506q0 103 -62.5 162.5 t-163.5 59.5q-106 0 -180 -59t-100 -163z" />
<glyph unicode="&#xeb;" horiz-adv-x="1075" d="M84 492q0 229 142 380.5t347 151.5q203 0 314.5 -126t111.5 -335v-108h-712q13 -127 100 -206t234 -79q160 0 309 66v-216q-155 -51 -309 -51q-245 0 -391 145t-146 378zM256 1360q0 57 38 94t97 37q57 0 94 -37t37 -94q0 -59 -37 -97t-94 -38q-59 0 -97 38.5t-38 96.5z M291 612h506q0 103 -62.5 162.5t-163.5 59.5q-106 0 -180 -59t-100 -163zM653 1360q0 57 38 94t97 37q57 0 94.5 -37t37.5 -94q0 -58 -37.5 -96.5t-94.5 -38.5q-58 0 -96.5 38.5t-38.5 96.5z" />
<glyph unicode="&#xec;" horiz-adv-x="507" d="M-61 1550h251l230 -409h-156zM154 0v993h198v-993h-198z" />
<glyph unicode="&#xed;" horiz-adv-x="507" d="M86 1141l231 409h250l-325 -409h-156zM154 0v993h198v-993h-198z" />
<glyph unicode="&#xee;" horiz-adv-x="507" d="M-88 1141l254 409h174l254 -409h-156l-184 229l-184 -229h-158zM154 0v993h198v-993h-198z" />
<glyph unicode="&#xef;" horiz-adv-x="507" d="M-78 1360q0 57 38 94t97 37q57 0 94 -37t37 -94q0 -59 -37 -97t-94 -38q-59 0 -97 38.5t-38 96.5zM154 0v993h198v-993h-198zM319 1360q0 57 38.5 94t97.5 37q57 0 94 -37t37 -94q0 -59 -37 -97t-94 -38q-59 0 -97.5 38.5t-38.5 96.5z" />
<glyph unicode="&#xf0;" horiz-adv-x="1210" d="M84 467q0 213 128.5 346t332.5 133q175 0 317 -121q-44 177 -145 326l-383 -88v186l260 58q-117 130 -248 233h326q68 -66 162 -178l272 61v-186l-166 -37q166 -292 166 -606q0 -182 -63 -323.5t-182.5 -221.5t-278.5 -80q-223 0 -360.5 139t-137.5 359zM293 469 q0 -130 83.5 -216.5t205.5 -86.5q130 0 215.5 108.5t85.5 270.5v55q-152 152 -332 152q-118 0 -188 -79t-70 -204z" />
<glyph unicode="&#xf1;" horiz-adv-x="1140" d="M150 989l198 10v-114q132 139 305 139q164 0 256 -99t92 -282v-643h-198v625q0 97 -50 150.5t-139 53.5q-143 0 -262 -116v-713h-198v686zM238 1233v194q77 64 174 64q80 0 174 -47q79 -39 157 -39q96 0 158 80v-195q-75 -65 -174 -65q-80 0 -174 47q-78 41 -156 41 q-92 0 -159 -80z" />
<glyph unicode="&#xf2;" horiz-adv-x="1177" d="M80 492q0 231 148.5 381.5t369.5 150.5q216 0 358 -148.5t142 -375.5q0 -231 -148 -381t-370 -150q-216 0 -358 148t-142 375zM274 1550h252l230 -409h-156zM281 508q0 -145 92.5 -244.5t230.5 -99.5q126 0 209.5 90t83.5 233t-92 242.5t-225 99.5q-130 0 -214.5 -89.5 t-84.5 -231.5z" />
<glyph unicode="&#xf3;" horiz-adv-x="1177" d="M80 492q0 231 148.5 381.5t369.5 150.5q216 0 358 -148.5t142 -375.5q0 -231 -148 -381t-370 -150q-216 0 -358 148t-142 375zM281 508q0 -145 92.5 -244.5t230.5 -99.5q126 0 209.5 90t83.5 233t-92 242.5t-225 99.5q-130 0 -214.5 -89.5t-84.5 -231.5zM422 1141 l231 409h250l-325 -409h-156z" />
<glyph unicode="&#xf4;" horiz-adv-x="1177" d="M80 492q0 231 148.5 381.5t369.5 150.5q216 0 358 -148.5t142 -375.5q0 -231 -148 -381t-370 -150q-216 0 -358 148t-142 375zM248 1141l254 409h174l254 -409h-156l-184 229l-184 -229h-158zM281 508q0 -145 92.5 -244.5t230.5 -99.5q126 0 209.5 90t83.5 233t-92 242.5 t-225 99.5q-130 0 -214.5 -89.5t-84.5 -231.5z" />
<glyph unicode="&#xf5;" horiz-adv-x="1177" d="M80 492q0 231 148.5 381.5t369.5 150.5q216 0 358 -148.5t142 -375.5q0 -231 -148 -381t-370 -150q-216 0 -358 148t-142 375zM256 1233v194q77 64 174 64q80 0 174 -47q79 -39 158 -39q96 0 158 80v-195q-75 -65 -175 -65q-80 0 -174 47q-78 41 -155 41q-93 0 -160 -80z M281 508q0 -145 92.5 -244.5t230.5 -99.5q126 0 209.5 90t83.5 233t-92 242.5t-225 99.5q-130 0 -214.5 -89.5t-84.5 -231.5z" />
<glyph unicode="&#xf6;" horiz-adv-x="1177" d="M80 492q0 231 148.5 381.5t369.5 150.5q216 0 358 -148.5t142 -375.5q0 -231 -148 -381t-370 -150q-216 0 -358 148t-142 375zM256 1360q0 57 38 94t97 37q57 0 94 -37t37 -94q0 -59 -37 -97t-94 -38q-59 0 -97 38.5t-38 96.5zM281 508q0 -145 92.5 -244.5t230.5 -99.5 q126 0 209.5 90t83.5 233t-92 242.5t-225 99.5q-130 0 -214.5 -89.5t-84.5 -231.5zM653 1360q0 57 38 94t97 37q57 0 94.5 -37t37.5 -94q0 -58 -37.5 -96.5t-94.5 -38.5q-58 0 -96.5 38.5t-38.5 96.5z" />
<glyph unicode="&#xf7;" d="M125 651v189h993v-189h-993zM481 352q0 60 40.5 100t99.5 40q60 0 99.5 -40t39.5 -100t-39.5 -99.5t-99.5 -39.5q-59 0 -99.5 39.5t-40.5 99.5zM481 1139q0 60 40.5 99.5t99.5 39.5q60 0 99.5 -39.5t39.5 -99.5t-39.5 -100t-99.5 -40q-59 0 -99.5 40t-40.5 100z" />
<glyph unicode="&#xf8;" horiz-adv-x="1247" d="M0 0l197 197q-80 134 -80 295q0 115 40 214t109 169t165.5 109.5t205.5 39.5q166 0 293 -94l63 63h254l-196 -194q86 -128 86 -299q0 -231 -149.5 -381t-371.5 -150q-169 0 -299 97l-63 -66h-254zM317 508q0 -88 35 -166l436 436q-79 51 -172 51q-130 0 -214.5 -89.5 t-84.5 -231.5zM463 219q77 -55 178 -55q126 0 209.5 90t83.5 233q0 91 -39 164z" />
<glyph unicode="&#xf9;" horiz-adv-x="1136" d="M139 346v647h199v-622q0 -98 48 -152.5t136 -54.5q140 0 260 117v712h199v-739l25 -254h-201l-10 117q-144 -148 -314 -148q-163 0 -252.5 97t-89.5 280zM225 1550h252l230 -409h-156z" />
<glyph unicode="&#xfa;" horiz-adv-x="1136" d="M139 346v647h199v-622q0 -98 48 -152.5t136 -54.5q140 0 260 117v712h199v-739l25 -254h-201l-10 117q-144 -148 -314 -148q-163 0 -252.5 97t-89.5 280zM399 1141l232 409h250l-326 -409h-156z" />
<glyph unicode="&#xfb;" horiz-adv-x="1136" d="M139 346v647h199v-622q0 -98 48 -152.5t136 -54.5q140 0 260 117v712h199v-739l25 -254h-201l-10 117q-144 -148 -314 -148q-163 0 -252.5 97t-89.5 280zM225 1141l254 409h174l254 -409h-155l-185 229l-184 -229h-158z" />
<glyph unicode="&#xfc;" horiz-adv-x="1136" d="M139 346v647h199v-622q0 -98 48 -152.5t136 -54.5q140 0 260 117v712h199v-739l25 -254h-201l-10 117q-144 -148 -314 -148q-163 0 -252.5 97t-89.5 280zM236 1360q0 57 38 94t97 37q57 0 94 -37t37 -94q0 -59 -37 -97t-94 -38q-59 0 -97 38.5t-38 96.5zM633 1360 q0 57 38 94t97 37q57 0 94 -37t37 -94q0 -59 -37 -97t-94 -38q-58 0 -96.5 38.5t-38.5 96.5z" />
<glyph unicode="&#xfd;" horiz-adv-x="980" d="M0 993h221l117 -315l154 -387l159 387l117 315h213l-606 -1491h-234l240 521zM326 1141l231 409h250l-326 -409h-155z" />
<glyph unicode="&#xfe;" horiz-adv-x="1153" d="M154 -498v2038l204 10l-6 -557v-104q132 135 297 135q185 0 302.5 -135t117.5 -354q0 -262 -146 -414t-403 -152q-36 0 -168 15v-31l6 -451h-204zM352 188q77 -24 170 -24q160 0 251 90t91 268q0 140 -71 223.5t-195 83.5q-133 0 -246 -110v-531z" />
<glyph unicode="&#xff;" horiz-adv-x="980" d="M0 993h221l117 -315l154 -387l159 387l117 315h213l-606 -1491h-234l240 521zM160 1360q0 57 38 94t97 37q57 0 94 -37t37 -94q0 -59 -37 -97t-94 -38q-59 0 -97 38.5t-38 96.5zM557 1360q0 57 38 94t97 37q57 0 94 -37t37 -94q0 -59 -37 -97t-94 -38q-58 0 -96.5 38.5 t-38.5 96.5z" />
<glyph unicode="&#x100;" horiz-adv-x="1351" d="M31 0l542 1491h207l543 -1491h-248l-121 356h-563l-123 -356h-237zM342 1692v180h664v-180h-664zM463 555h420l-209 600z" />
<glyph unicode="&#x101;" horiz-adv-x="954" d="M70 236q0 247 286 313q101 23 256 35v69q0 166 -204 166q-151 0 -306 -71v206q151 70 310 70q188 0 293.5 -93t105.5 -280v-397l76 -246l-211 -39l-39 168q-124 -168 -297 -168q-122 0 -196 75.5t-74 191.5zM121 1268v178h663v-178h-663zM272 256q0 -52 33.5 -80.5 t89.5 -28.5q114 0 217 129v179q-129 -16 -227 -56q-56 -24 -84.5 -62t-28.5 -81z" />
<glyph unicode="&#x102;" horiz-adv-x="1351" d="M31 0l542 1491h207l543 -1491h-248l-121 356h-563l-123 -356h-237zM334 1948h133q38 -158 209 -158t209 158h131q-19 -159 -107.5 -246.5t-232.5 -87.5q-145 0 -233.5 87.5t-108.5 246.5zM463 555h420l-209 600z" />
<glyph unicode="&#x103;" horiz-adv-x="954" d="M70 236q0 247 286 313q101 23 256 35v69q0 166 -204 166q-151 0 -306 -71v206q151 70 310 70q188 0 293.5 -93t105.5 -280v-397l76 -246l-211 -39l-39 168q-124 -168 -297 -168q-122 0 -196 75.5t-74 191.5zM111 1550h137q45 -223 205 -223t202 223h138 q-10 -201 -100.5 -305t-239.5 -104q-150 0 -240 104t-102 305zM272 256q0 -52 33.5 -80.5t89.5 -28.5q114 0 217 129v179q-129 -16 -227 -56q-56 -24 -84.5 -62t-28.5 -81z" />
<glyph unicode="&#x104;" horiz-adv-x="1351" d="M31 0l542 1491h207l543 -1491q-138 -21 -210.5 -81.5t-72.5 -147.5q0 -58 34.5 -90.5t96.5 -32.5t119 16v-147q-66 -15 -116 -15q-133 0 -207 65t-74 169q0 86 49.5 152.5t132.5 111.5l-121 356h-563l-123 -356h-237zM463 555h420l-209 600z" />
<glyph unicode="&#x105;" horiz-adv-x="954" d="M70 236q0 247 286 313q101 23 256 35v69q0 166 -204 166q-151 0 -306 -71v206q151 70 310 70q188 0 293.5 -93t105.5 -280v-397l76 -246q-205 -114 -205 -248q0 -52 34.5 -82t96.5 -30t119 16v-145q-79 -17 -127 -17q-126 0 -198 65t-72 169q0 146 139 239l-37 162 q-124 -168 -297 -168q-122 0 -196 75.5t-74 191.5zM272 256q0 -52 33.5 -80.5t89.5 -28.5q114 0 217 129v179q-129 -16 -227 -56q-56 -24 -84.5 -62t-28.5 -81z" />
<glyph unicode="&#x106;" horiz-adv-x="1312" d="M90 737q0 226 103 405t287.5 279.5t416.5 100.5q180 0 338 -43v-256q-156 69 -338 69q-254 0 -407.5 -146t-153.5 -401q0 -113 40.5 -212.5t114 -173.5t184 -117t243.5 -43q163 0 335 59v-246q-162 -43 -335 -43q-188 0 -344 56.5t-262 158t-164 243.5t-58 310zM737 1614 l226 334h256l-316 -334h-166z" />
<glyph unicode="&#x107;" horiz-adv-x="923" d="M80 492q0 233 153 382.5t396 149.5q117 0 229 -33v-223q-125 57 -240 57q-150 0 -242.5 -87.5t-92.5 -239.5q0 -140 95.5 -234t252.5 -94q127 0 239 41v-209q-125 -33 -245 -33q-247 0 -396 145.5t-149 377.5zM446 1141l232 409h250l-326 -409h-156z" />
<glyph unicode="&#x108;" horiz-adv-x="1312" d="M90 737q0 226 103 405t287.5 279.5t416.5 100.5q180 0 338 -43v-256q-156 69 -338 69q-254 0 -407.5 -146t-153.5 -401q0 -113 40.5 -212.5t114 -173.5t184 -117t243.5 -43q163 0 335 59v-246q-162 -43 -335 -43q-188 0 -344 56.5t-262 158t-164 243.5t-58 310zM539 1614 l278 334h174l279 -334h-168l-197 168l-198 -168h-168z" />
<glyph unicode="&#x109;" horiz-adv-x="923" d="M80 492q0 233 153 382.5t396 149.5q117 0 229 -33v-223q-125 57 -240 57q-150 0 -242.5 -87.5t-92.5 -239.5q0 -140 95.5 -234t252.5 -94q127 0 239 41v-209q-125 -33 -245 -33q-247 0 -396 145.5t-149 377.5zM252 1141l254 409h174l254 -409h-156l-184 229l-184 -229 h-158z" />
<glyph unicode="&#x10a;" horiz-adv-x="1312" d="M90 737q0 226 103 405t287.5 279.5t416.5 100.5q180 0 338 -43v-256q-156 69 -338 69q-254 0 -407.5 -146t-153.5 -401q0 -113 40.5 -212.5t114 -173.5t184 -117t243.5 -43q163 0 335 59v-246q-162 -43 -335 -43q-188 0 -344 56.5t-262 158t-164 243.5t-58 310zM766 1782 q0 60 39.5 99.5t99.5 39.5t99.5 -39.5t39.5 -99.5t-39.5 -100t-99.5 -40t-99.5 40t-39.5 100z" />
<glyph unicode="&#x10b;" horiz-adv-x="923" d="M80 492q0 233 153 382.5t396 149.5q117 0 229 -33v-223q-125 57 -240 57q-150 0 -242.5 -87.5t-92.5 -239.5q0 -140 95.5 -234t252.5 -94q127 0 239 41v-209q-125 -33 -245 -33q-247 0 -396 145.5t-149 377.5zM475 1401q0 60 39.5 99.5t99.5 39.5t100 -39.5t40 -99.5 q0 -59 -40 -98t-100 -39t-99.5 39t-39.5 98z" />
<glyph unicode="&#x10c;" horiz-adv-x="1312" d="M90 737q0 226 103 405t287.5 279.5t416.5 100.5q180 0 338 -43v-256q-156 69 -338 69q-254 0 -407.5 -146t-153.5 -401q0 -113 40.5 -212.5t114 -173.5t184 -117t243.5 -43q163 0 335 59v-246q-162 -43 -335 -43q-188 0 -344 56.5t-262 158t-164 243.5t-58 310zM539 1948 h168l198 -168l197 168h168l-279 -334h-174z" />
<glyph unicode="&#x10d;" horiz-adv-x="923" d="M80 492q0 233 153 382.5t396 149.5q117 0 229 -33v-223q-125 57 -240 57q-150 0 -242.5 -87.5t-92.5 -239.5q0 -140 95.5 -234t252.5 -94q127 0 239 41v-209q-125 -33 -245 -33q-247 0 -396 145.5t-149 377.5zM252 1550h158l184 -227l184 227h156l-254 -409h-174z" />
<glyph unicode="&#x10e;" horiz-adv-x="1484" d="M178 0v1491h443q365 0 569.5 -198t204.5 -533q0 -355 -204 -557.5t-579 -202.5h-434zM274 1948h168l199 -168l197 168h168l-279 -334h-174zM403 199h183q274 0 418.5 143.5t144.5 409.5q0 256 -145 398t-412 142h-189v-1093z" />
<glyph unicode="&#x10f;" horiz-adv-x="1400" d="M84 475q0 151 66 276.5t187 199t271 73.5q90 0 193 -23v539l203 10l-5 -557v-739l25 -254h-201l-10 117q-117 -148 -297 -148q-197 0 -314.5 139t-117.5 367zM293 475q0 -136 69.5 -223.5t192.5 -87.5q134 0 246 115v516q-83 34 -183 34q-149 0 -237 -97t-88 -257z M1108 1427q0 50 34.5 81.5t92.5 31.5q78 0 130 -59.5t52 -157.5q0 -121 -102 -209h-107q37 60 37 109q0 57 -69 96q-68 38 -68 108z" />
<glyph unicode="&#x110;" horiz-adv-x="1538" d="M10 662v178h223v651h443q364 0 569 -198t205 -533q0 -355 -204 -557.5t-580 -202.5h-433v662h-223zM457 199h184q273 0 417 143.5t144 409.5q0 256 -144.5 398t-410.5 142h-190v-452h458v-178h-458v-463z" />
<glyph unicode="&#x111;" horiz-adv-x="1153" d="M84 485q0 110 39 208.5t107.5 171.5t166.5 116t211 43q90 0 193 -23v193h-430v178h430v168l203 10l-3 -178h224v-178h-226v-940l25 -254h-201l-10 117q-125 -148 -297 -148q-198 0 -315 140.5t-117 375.5zM293 475q0 -136 69.5 -223.5t192.5 -87.5q137 0 246 112v519 q-83 34 -183 34q-149 0 -237 -97t-88 -257z" />
<glyph unicode="&#x112;" horiz-adv-x="1148" d="M178 0v1491h850v-199h-625v-434h576v-199h-576v-460h652v-199h-877zM272 1692v180h664v-180h-664z" />
<glyph unicode="&#x113;" horiz-adv-x="1075" d="M84 492q0 229 142 380.5t347 151.5q203 0 314.5 -126t111.5 -335v-108h-712q13 -127 100 -206t234 -79q160 0 309 66v-216q-155 -51 -309 -51q-245 0 -391 145t-146 378zM238 1268v178h663v-178h-663zM291 612h506q0 103 -62.5 162.5t-163.5 59.5q-106 0 -180 -59 t-100 -163z" />
<glyph unicode="&#x114;" horiz-adv-x="1148" d="M178 0v1491h850v-199h-625v-434h576v-199h-576v-460h652v-199h-877zM262 1948h133q38 -158 209 -158t209 158h131q-19 -159 -107.5 -246.5t-232.5 -87.5q-145 0 -233.5 87.5t-108.5 246.5z" />
<glyph unicode="&#x115;" horiz-adv-x="1075" d="M84 492q0 229 142 380.5t347 151.5q203 0 314.5 -126t111.5 -335v-108h-712q13 -127 100 -206t234 -79q160 0 309 66v-216q-155 -51 -309 -51q-245 0 -391 145t-146 378zM248 1550h137q45 -223 205 -223q161 0 203 223h137q-10 -201 -100.5 -305t-239.5 -104 q-150 0 -240 104t-102 305zM291 612h506q0 103 -62.5 162.5t-163.5 59.5q-106 0 -180 -59t-100 -163z" />
<glyph unicode="&#x116;" horiz-adv-x="1148" d="M178 0v1491h850v-199h-625v-434h576v-199h-576v-460h652v-199h-877zM465 1782q0 60 39.5 99.5t99.5 39.5t99.5 -39.5t39.5 -99.5t-39.5 -100t-99.5 -40t-99.5 40t-39.5 100z" />
<glyph unicode="&#x117;" horiz-adv-x="1075" d="M84 492q0 229 142 380.5t347 151.5q203 0 314.5 -126t111.5 -335v-108h-712q13 -127 100 -206t234 -79q160 0 309 66v-216q-155 -51 -309 -51q-245 0 -391 145t-146 378zM291 612h506q0 103 -62.5 162.5t-163.5 59.5q-106 0 -180 -59t-100 -163zM451 1401q0 60 39.5 99.5 t99.5 39.5t99.5 -39.5t39.5 -99.5q0 -59 -39.5 -98t-99.5 -39t-99.5 39t-39.5 98z" />
<glyph unicode="&#x118;" horiz-adv-x="1148" d="M178 0v1491h850v-199h-625v-434h576v-199h-576v-460h652v-199q-193 -106 -193 -240q0 -52 34 -82t95 -30q64 0 119 16v-149q-54 -13 -117 -13q-132 0 -206 65t-74 169q0 162 182 264h-717z" />
<glyph unicode="&#x119;" horiz-adv-x="1075" d="M84 492q0 229 142 380.5t347 151.5q203 0 314.5 -126t111.5 -335v-108h-712q13 -127 101 -206t241 -79q159 0 301 66v-211q-230 -131 -230 -265q0 -52 35.5 -82t100.5 -30q49 0 114 18v-149q-66 -15 -119 -15q-132 0 -206 65t-74 169q0 143 137 237q-12 0 -34 -2t-33 -2 q-245 0 -391 145t-146 378zM291 612h506q0 103 -62.5 162.5t-163.5 59.5q-106 0 -180 -59t-100 -163z" />
<glyph unicode="&#x11a;" horiz-adv-x="1148" d="M178 0v1491h850v-199h-625v-434h576v-199h-576v-460h652v-199h-877zM238 1948h168l198 -168l197 168h168l-279 -334h-174z" />
<glyph unicode="&#x11b;" horiz-adv-x="1075" d="M84 492q0 229 142 380.5t347 151.5q203 0 314.5 -126t111.5 -335v-108h-712q13 -127 100 -206t234 -79q160 0 309 66v-216q-155 -51 -309 -51q-245 0 -391 145t-146 378zM248 1550h158l184 -227l184 227h156l-254 -409h-174zM291 612h506q0 103 -62.5 162.5t-163.5 59.5 q-106 0 -180 -59t-100 -163z" />
<glyph unicode="&#x11c;" horiz-adv-x="1484" d="M90 731q0 229 104 409t293.5 281t434.5 101q221 0 424 -52v-266q-219 88 -424 88q-271 0 -428.5 -147.5t-157.5 -413.5q0 -108 41 -204t116 -169.5t190 -116t255 -42.5q72 0 170 12v229l-6 234h229v-666l-96 -14q-166 -25 -303 -25q-198 0 -357.5 56.5t-265.5 158 t-162.5 241t-56.5 306.5zM551 1614l278 334h175l278 -334h-168l-196 168l-199 -168h-168z" />
<glyph unicode="&#x11d;" horiz-adv-x="1153" d="M90 465q0 239 160.5 399t413.5 160q119 0 264 -23l71 -12v-997q0 -104 -33 -192t-97.5 -155.5t-168.5 -105t-237 -37.5q-167 0 -334 35v217q167 -47 326 -47q185 0 265.5 77t80.5 222v100q-115 -137 -287 -137q-198 0 -311 134t-113 362zM285 1141l254 409h174l254 -409 h-156l-184 229l-185 -229h-157zM301 465q0 -131 66.5 -216t187.5 -85q134 0 246 115v528q-79 18 -146 18q-162 0 -258 -97t-96 -263z" />
<glyph unicode="&#x11e;" horiz-adv-x="1484" d="M90 731q0 229 104 409t293.5 281t434.5 101q221 0 424 -52v-266q-219 88 -424 88q-271 0 -428.5 -147.5t-157.5 -413.5q0 -108 41 -204t116 -169.5t190 -116t255 -42.5q72 0 170 12v229l-6 234h229v-666l-96 -14q-166 -25 -303 -25q-198 0 -357.5 56.5t-265.5 158 t-162.5 241t-56.5 306.5zM575 1948h134q38 -158 209 -158q170 0 208 158h131q-19 -159 -107 -246.5t-232 -87.5q-145 0 -234 87.5t-109 246.5z" />
<glyph unicode="&#x11f;" horiz-adv-x="1153" d="M90 465q0 239 160.5 399t413.5 160q119 0 264 -23l71 -12v-997q0 -104 -33 -192t-97.5 -155.5t-168.5 -105t-237 -37.5q-167 0 -334 35v217q167 -47 326 -47q185 0 265.5 77t80.5 222v100q-115 -137 -287 -137q-198 0 -311 134t-113 362zM285 1550h137q45 -223 205 -223 t202 223h138q-10 -201 -100.5 -305t-239.5 -104q-150 0 -240 104t-102 305zM301 465q0 -131 66.5 -216t187.5 -85q134 0 246 115v528q-79 18 -146 18q-162 0 -258 -97t-96 -263z" />
<glyph unicode="&#x120;" horiz-adv-x="1484" d="M90 731q0 229 104 409t293.5 281t434.5 101q221 0 424 -52v-266q-219 88 -424 88q-271 0 -428.5 -147.5t-157.5 -413.5q0 -108 41 -204t116 -169.5t190 -116t255 -42.5q72 0 170 12v229l-6 234h229v-666l-96 -14q-166 -25 -303 -25q-198 0 -357.5 56.5t-265.5 158 t-162.5 241t-56.5 306.5zM778 1782q0 60 40 99.5t100 39.5t99.5 -39.5t39.5 -99.5t-39.5 -100t-99.5 -40t-100 40t-40 100z" />
<glyph unicode="&#x121;" horiz-adv-x="1153" d="M90 465q0 239 160.5 399t413.5 160q119 0 264 -23l71 -12v-997q0 -104 -33 -192t-97.5 -155.5t-168.5 -105t-237 -37.5q-167 0 -334 35v217q167 -47 326 -47q185 0 265.5 77t80.5 222v100q-115 -137 -287 -137q-198 0 -311 134t-113 362zM301 465q0 -131 66.5 -216 t187.5 -85q134 0 246 115v528q-79 18 -146 18q-162 0 -258 -97t-96 -263zM487 1401q0 60 40 99.5t100 39.5t99.5 -39.5t39.5 -99.5q0 -59 -39.5 -98t-99.5 -39t-100 39t-40 98z" />
<glyph unicode="&#x122;" horiz-adv-x="1484" d="M90 731q0 229 104 409t293.5 281t434.5 101q221 0 424 -52v-266q-219 88 -424 88q-271 0 -428.5 -147.5t-157.5 -413.5q0 -108 41 -204t116 -169.5t190 -116t255 -42.5q72 0 170 12v229l-6 234h229v-666l-96 -14q-166 -25 -303 -25q-198 0 -357.5 56.5t-265.5 158 t-162.5 241t-56.5 306.5zM713 -248q0 50 34.5 81.5t92.5 31.5q78 0 130 -59.5t52 -157.5q0 -121 -102 -209h-107q37 60 37 108q0 57 -70 97q-67 37 -67 108z" />
<glyph unicode="&#x123;" horiz-adv-x="1153" d="M90 465q0 239 160.5 399t413.5 160q119 0 264 -23l71 -12v-997q0 -104 -33 -192t-97.5 -155.5t-168.5 -105t-237 -37.5q-167 0 -334 35v217q167 -47 326 -47q185 0 265.5 77t80.5 222v100q-115 -137 -287 -137q-198 0 -311 134t-113 362zM301 465q0 -131 66.5 -216 t187.5 -85q134 0 246 115v528q-79 18 -146 18q-162 0 -258 -97t-96 -263zM485 1331q0 120 103 209h106q-37 -60 -37 -108q0 -57 70 -97q68 -38 68 -108q0 -50 -34.5 -81.5t-92.5 -31.5q-78 0 -130.5 59.5t-52.5 157.5z" />
<glyph unicode="&#x124;" horiz-adv-x="1574" d="M178 0v1491h225v-633h771v633h223v-1491h-223v659h-771v-659h-225zM422 1614l278 334h174l279 -334h-168l-197 168l-198 -168h-168z" />
<glyph unicode="&#x125;" horiz-adv-x="1140" d="M-115 1614l279 334h174l278 -334h-167l-197 168l-199 -168h-168zM154 0v1540l204 10l-6 -557v-104q139 135 301 135q164 0 256 -99t92 -282v-643h-198v625q0 97 -50 150.5t-139 53.5q-143 0 -262 -116v-713h-198z" />
<glyph unicode="&#x126;" horiz-adv-x="1685" d="M10 1090v178h223v223h224v-223h772v223h223v-223h223v-178h-223v-1090h-223v659h-772v-659h-224v1090h-223zM457 858h772v232h-772v-232z" />
<glyph unicode="&#x127;" horiz-adv-x="1140" d="M-70 1194v178h224v168l204 10l-2 -178h428v-178h-432v-305q135 135 310 135q159 0 249 -98.5t90 -280.5v-645h-198v625q0 97 -50 150.5t-139 53.5q-143 0 -262 -116v-713h-198v1194h-224z" />
<glyph unicode="&#x128;" horiz-adv-x="581" d="M-41 1653v196q77 64 174 64q80 0 174 -47q79 -39 158 -39q96 0 158 80v-197q-78 -65 -174 -65q-81 0 -175 47q-78 41 -155 41q-95 0 -160 -80zM178 0v1491h225v-1491h-225z" />
<glyph unicode="&#x129;" horiz-adv-x="507" d="M-78 1233v194q77 64 174 64q80 0 174 -47q79 -39 158 -39q96 0 158 80v-195q-75 -65 -174 -65q-80 0 -174 47q-78 41 -156 41q-93 0 -160 -80zM154 0v993h198v-993h-198z" />
<glyph unicode="&#x12a;" horiz-adv-x="581" d="M-41 1692v180h664v-180h-664zM178 0v1491h225v-1491h-225z" />
<glyph unicode="&#x12b;" horiz-adv-x="507" d="M-78 1268v178h664v-178h-664zM154 0v993h198v-993h-198z" />
<glyph unicode="&#x12c;" horiz-adv-x="581" d="M-51 1948h133q38 -158 209 -158t209 158h131q-19 -159 -107.5 -246.5t-232.5 -87.5q-145 0 -233.5 87.5t-108.5 246.5zM178 0v1491h225v-1491h-225z" />
<glyph unicode="&#x12d;" horiz-adv-x="507" d="M-88 1550h137q45 -223 205 -223q161 0 203 223h137q-10 -201 -100.5 -305t-239.5 -104q-150 0 -240 104t-102 305zM154 0v993h198v-993h-198z" />
<glyph unicode="&#x12e;" horiz-adv-x="581" d="M37 -248q0 137 141 225v1514h225v-1491q-107 -30 -163 -88t-56 -131q0 -65 39.5 -99t112.5 -34q48 0 98 16v-147q-58 -15 -106 -15q-140 0 -215.5 69t-75.5 181z" />
<glyph unicode="&#x12f;" horiz-adv-x="507" d="M-31 -264q0 86 50.5 153t134.5 111v993h198v-993q-117 -24 -175 -89.5t-58 -139.5q0 -59 35.5 -91t103.5 -32q54 0 109 18v-147q-56 -17 -115 -17q-133 0 -208 65t-75 169zM115 1401q0 60 39.5 99.5t99.5 39.5t99.5 -39.5t39.5 -99.5q0 -59 -39.5 -98t-99.5 -39t-99.5 39 t-39.5 98z" />
<glyph unicode="&#x130;" horiz-adv-x="581" d="M152 1782q0 60 39.5 99.5t99.5 39.5t99.5 -39.5t39.5 -99.5t-39.5 -100t-99.5 -40t-99.5 40t-39.5 100zM178 0v1491h225v-1491h-225z" />
<glyph unicode="&#x131;" horiz-adv-x="507" d="M154 0v993h198v-993h-198z" />
<glyph unicode="&#x132;" horiz-adv-x="1314" d="M178 0v1491h225v-1491h-225zM655 -14v227q61 -14 115 -14q75 0 116.5 43t41.5 129v1120h223v-1131q0 -180 -96 -285.5t-277 -105.5q-64 0 -123 17z" />
<glyph unicode="&#x133;" horiz-adv-x="999" d="M115 1401q0 60 39.5 99.5t99.5 39.5t99.5 -39.5t39.5 -99.5q0 -59 -39.5 -98t-99.5 -39t-99.5 39t-39.5 98zM154 0v993h198v-993h-198zM377 -279q65 -14 119 -14q166 0 166 180v1106h198v-1108q0 -184 -92 -283.5t-272 -99.5q-60 0 -119 17v202zM623 1401q0 60 39.5 99.5 t99.5 39.5t99.5 -39.5t39.5 -99.5q0 -59 -39.5 -98t-99.5 -39t-99.5 39t-39.5 98z" />
<glyph unicode="&#x134;" horiz-adv-x="733" d="M74 -14v227q61 -14 114 -14q75 0 116.5 43t41.5 129v1120h223v-1131q0 -180 -95.5 -285.5t-276.5 -105.5q-63 0 -123 17zM88 1614l279 334h174l278 -334h-168l-196 168l-199 -168h-168z" />
<glyph unicode="&#x135;" horiz-adv-x="491" d="M-131 -279q65 -14 119 -14q166 0 166 180v1106h198v-1108q0 -184 -92 -283.5t-272 -99.5q-59 0 -119 17v202zM-96 1141l254 409h174l254 -409h-156l-184 229l-185 -229h-157z" />
<glyph unicode="&#x136;" horiz-adv-x="1431" d="M178 0v1491h225v-727l381 424l267 303h290l-618 -678l709 -813h-308l-247 291l-308 356l-166 -184v-463h-225zM602 -248q0 50 34.5 81.5t92.5 31.5q78 0 130 -59.5t52 -157.5q0 -121 -102 -209h-107q37 60 37 108q0 58 -69 97q-68 38 -68 108z" />
<glyph unicode="&#x137;" horiz-adv-x="1095" d="M154 0v1540l204 10l-6 -569v-389l170 174l215 227h277l-418 -426l489 -567h-274l-186 225l-168 199l-105 -107v-317h-198zM428 -248q0 50 34.5 81.5t92.5 31.5q78 0 130 -59.5t52 -157.5q0 -121 -102 -209h-107q37 60 37 108q0 58 -69 97q-68 38 -68 108z" />
<glyph unicode="&#x138;" horiz-adv-x="1095" d="M154 0v993h198v-401l170 174l215 227h277l-418 -426l489 -567h-274l-186 225l-168 199l-105 -107v-317h-198z" />
<glyph unicode="&#x139;" horiz-adv-x="1073" d="M125 1614l225 334h256l-315 -334h-166zM178 0v1491h225v-1292h601v-199h-826z" />
<glyph unicode="&#x13a;" horiz-adv-x="507" d="M86 1614l225 334h256l-315 -334h-166zM154 0v1540l204 10l-6 -557v-993h-198z" />
<glyph unicode="&#x13b;" horiz-adv-x="1073" d="M178 0v1491h225v-1292h601v-199h-826zM442 -248q0 50 34.5 81.5t92.5 31.5q78 0 130.5 -59.5t52.5 -157.5q0 -120 -103 -209h-106q37 60 37 108q0 57 -70 97q-68 38 -68 108z" />
<glyph unicode="&#x13c;" horiz-adv-x="507" d="M96 -248q0 50 34.5 81.5t92.5 31.5q78 0 130.5 -59.5t52.5 -157.5q0 -120 -103 -209h-106q36 58 36 108q0 58 -69 97q-68 38 -68 108zM154 0v1540l204 10l-6 -557v-993h-198z" />
<glyph unicode="&#x13d;" horiz-adv-x="1073" d="M178 0v1491h225v-1292h601v-199h-826zM549 1407q0 50 34.5 81.5t92.5 31.5q78 0 130 -59.5t52 -157.5q0 -121 -102 -209h-107q37 60 37 108q0 56 -70 96q-67 37 -67 109z" />
<glyph unicode="&#x13e;" horiz-adv-x="753" d="M154 0v1540l204 10l-6 -557v-993h-198zM459 1427q0 50 34.5 81.5t92.5 31.5q78 0 130 -59.5t52 -157.5q0 -121 -102 -209h-107q37 60 37 109q0 56 -70 96q-67 37 -67 108z" />
<glyph unicode="&#x13f;" horiz-adv-x="1073" d="M178 0v1491h225v-1292h601v-199h-826zM678 786q0 60 39.5 100t99.5 40t99.5 -40t39.5 -100q0 -59 -39.5 -98t-99.5 -39t-99.5 39t-39.5 98z" />
<glyph unicode="&#x140;" horiz-adv-x="786" d="M154 0v1540l204 10l-6 -557v-993h-198zM508 496q0 60 39.5 99.5t99.5 39.5t99.5 -39.5t39.5 -99.5q0 -59 -39.5 -98.5t-99.5 -39.5t-99.5 39.5t-39.5 98.5z" />
<glyph unicode="&#x141;" horiz-adv-x="1128" d="M10 307v213l223 129v842h224v-741l458 266v-209l-458 -266v-342h602v-199h-826v438z" />
<glyph unicode="&#x142;" horiz-adv-x="724" d="M39 307v213l225 129v891l205 10l-6 -557v-250l223 129v-210l-223 -130v-532h-199v438z" />
<glyph unicode="&#x143;" horiz-adv-x="1626" d="M178 0v1491h225l834 -1135v1135h209v-1491h-223l-836 1133v-1133h-209zM668 1614l225 334h256l-315 -334h-166z" />
<glyph unicode="&#x144;" horiz-adv-x="1140" d="M150 989l198 10v-114q132 139 305 139q164 0 256 -99t92 -282v-643h-198v625q0 97 -50 150.5t-139 53.5q-143 0 -262 -116v-713h-198v686zM403 1141l232 409h250l-326 -409h-156z" />
<glyph unicode="&#x145;" horiz-adv-x="1626" d="M178 0v1491h225l834 -1135v1135h209v-1491h-223l-836 1133v-1133h-209zM670 -248q0 50 34.5 81.5t92.5 31.5q78 0 130 -59.5t52 -157.5q0 -121 -102 -209h-107q37 60 37 108q0 57 -70 97q-67 37 -67 108z" />
<glyph unicode="&#x146;" horiz-adv-x="1140" d="M150 989l198 10v-114q132 139 305 139q164 0 256 -99t92 -282v-643h-198v625q0 97 -50 150.5t-139 53.5q-143 0 -262 -116v-713h-198v686zM434 -248q0 50 34.5 81.5t92.5 31.5q78 0 130 -59.5t52 -157.5q0 -121 -102 -209h-106q36 58 36 108q0 58 -69 97q-68 38 -68 108z " />
<glyph unicode="&#x147;" horiz-adv-x="1626" d="M178 0v1491h225l834 -1135v1135h209v-1491h-223l-836 1133v-1133h-209zM469 1948h168l199 -168l196 168h168l-278 -334h-174z" />
<glyph unicode="&#x148;" horiz-adv-x="1140" d="M150 989l198 10v-114q132 139 305 139q164 0 256 -99t92 -282v-643h-198v625q0 97 -50 150.5t-139 53.5q-143 0 -262 -116v-713h-198v686zM227 1550h158l184 -227l185 227h155l-254 -409h-174z" />
<glyph unicode="&#x14a;" horiz-adv-x="1626" d="M178 0v1491h225l834 -1135v1135h209v-1600q0 -180 -95 -285.5t-278 -105.5q-69 0 -121 15v229q61 -14 115 -14q81 0 125.5 46t44.5 138v70l-850 1149v-1133h-209z" />
<glyph unicode="&#x14b;" horiz-adv-x="1140" d="M150 989l198 10v-114q139 139 305 139q165 0 256.5 -96.5t91.5 -278.5v-764q0 -176 -93 -279.5t-271 -103.5q-61 0 -121 17v202q68 -14 121 -14q77 0 121.5 45.5t44.5 134.5v738q0 97 -50 150.5t-139 53.5q-143 0 -262 -116v-713h-198v686z" />
<glyph unicode="&#x14c;" horiz-adv-x="1701" d="M90 748q0 225 100.5 402.5t274.5 274.5t389 97q162 0 303 -58t241.5 -159.5t158 -245.5t57.5 -311q0 -135 -38 -256.5t-107.5 -216t-164 -164t-212 -106t-246.5 -36.5q-162 0 -302 58t-240 160t-157 247t-57 314zM330 752q0 -243 149 -400t375 -157q222 0 370 152 t148 398q0 242 -150 396.5t-376 154.5q-221 0 -368.5 -150t-147.5 -394zM518 1692v180h664v-180h-664z" />
<glyph unicode="&#x14d;" horiz-adv-x="1177" d="M80 492q0 231 148.5 381.5t369.5 150.5q216 0 358 -148.5t142 -375.5q0 -231 -148 -381t-370 -150q-216 0 -358 148t-142 375zM256 1268v178h664v-178h-664zM281 508q0 -145 92.5 -244.5t230.5 -99.5q126 0 209.5 90t83.5 233t-92 242.5t-225 99.5q-130 0 -214.5 -89.5 t-84.5 -231.5z" />
<glyph unicode="&#x14e;" horiz-adv-x="1701" d="M90 748q0 225 100.5 402.5t274.5 274.5t389 97q162 0 303 -58t241.5 -159.5t158 -245.5t57.5 -311q0 -135 -38 -256.5t-107.5 -216t-164 -164t-212 -106t-246.5 -36.5q-162 0 -302 58t-240 160t-157 247t-57 314zM330 752q0 -243 149 -400t375 -157q222 0 370 152 t148 398q0 242 -150 396.5t-376 154.5q-221 0 -368.5 -150t-147.5 -394zM508 1948h133q38 -158 209 -158t209 158h131q-19 -159 -107.5 -246.5t-232.5 -87.5q-145 0 -233.5 87.5t-108.5 246.5z" />
<glyph unicode="&#x14f;" horiz-adv-x="1177" d="M80 492q0 231 148.5 381.5t369.5 150.5q216 0 358 -148.5t142 -375.5q0 -231 -148 -381t-370 -150q-216 0 -358 148t-142 375zM248 1550h137q45 -223 205 -223q161 0 203 223h137q-10 -201 -100.5 -305t-239.5 -104q-150 0 -240 104t-102 305zM281 508 q0 -145 92.5 -244.5t230.5 -99.5q126 0 209.5 90t83.5 233t-92 242.5t-225 99.5q-130 0 -214.5 -89.5t-84.5 -231.5z" />
<glyph unicode="&#x150;" horiz-adv-x="1701" d="M90 748q0 225 100.5 402.5t274.5 274.5t389 97q162 0 303 -58t241.5 -159.5t158 -245.5t57.5 -311q0 -135 -38 -256.5t-107.5 -216t-164 -164t-212 -106t-246.5 -36.5q-162 0 -302 58t-240 160t-157 247t-57 314zM330 752q0 -243 149 -400t375 -157q222 0 370 152 t148 398q0 242 -150 396.5t-376 154.5q-221 0 -368.5 -150t-147.5 -394zM485 1614l226 334h256l-316 -334h-166zM883 1614l227 334h256l-317 -334h-166z" />
<glyph unicode="&#x151;" horiz-adv-x="1177" d="M80 492q0 231 148.5 381.5t369.5 150.5q216 0 358 -148.5t142 -375.5q0 -231 -148 -381t-370 -150q-216 0 -358 148t-142 375zM223 1141l232 409h250l-326 -409h-156zM281 508q0 -145 92.5 -244.5t230.5 -99.5q126 0 209.5 90t83.5 233t-92 242.5t-225 99.5 q-130 0 -214.5 -89.5t-84.5 -231.5zM621 1141l231 409h252l-326 -409h-157z" />
<glyph unicode="&#x152;" horiz-adv-x="2340" d="M90 748q0 225 100.5 402.5t274.5 274.5t389 97q308 0 518 -222v191h850v-199h-627v-434h578v-199h-578v-460h652v-199h-875v188q-210 -219 -526 -219q-162 0 -302 58t-240 160t-157 247t-57 314zM330 752q0 -243 149 -400t375 -157q222 0 370 152t148 398 q0 242 -150 396.5t-376 154.5q-221 0 -368.5 -150t-147.5 -394z" />
<glyph unicode="&#x153;" horiz-adv-x="1888" d="M80 492q0 231 148.5 381.5t369.5 150.5q123 0 226.5 -53t172.5 -146q67 95 168 147t221 52q203 0 314.5 -126t111.5 -335v-108h-714q14 -129 104.5 -210t247.5 -81q142 0 293 67v-206q-148 -56 -309 -56q-146 0 -258 52.5t-183 148.5q-71 -95 -178.5 -148t-234.5 -53 q-216 0 -358 148t-142 375zM281 508q0 -145 92.5 -244.5t230.5 -99.5q126 0 209.5 90t83.5 233t-92 245t-225 102q-129 0 -214 -92t-85 -234zM1102 612h506q0 103 -62.5 162.5t-163.5 59.5q-106 0 -180 -59t-100 -163z" />
<glyph unicode="&#x154;" horiz-adv-x="1329" d="M178 0v1491h490q236 0 369.5 -116.5t133.5 -311.5q0 -158 -89 -268.5t-259 -147.5l488 -647h-295l-201 291l-244 336h-168v-627h-225zM403 825h248q279 0 279 238q0 109 -72 169t-203 60h-252v-467zM422 1614l225 334h256l-315 -334h-166z" />
<glyph unicode="&#x155;" horiz-adv-x="772" d="M147 989l201 10v-139q138 164 328 164q45 0 78 -8v-213q-66 12 -107 12q-171 0 -295 -147v-312l6 -356h-204v686zM268 1141l232 409h250l-326 -409h-156z" />
<glyph unicode="&#x156;" horiz-adv-x="1329" d="M178 0v1491h490q236 0 369.5 -116.5t133.5 -311.5q0 -158 -89 -268.5t-259 -147.5l488 -647h-295l-201 291l-244 336h-168v-627h-225zM403 825h248q279 0 279 238q0 109 -72 169t-203 60h-252v-467zM561 -248q0 50 34.5 81.5t92.5 31.5q78 0 130 -59.5t52 -157.5 q0 -121 -102 -209h-106q36 58 36 108q0 58 -69 97q-68 38 -68 108z" />
<glyph unicode="&#x157;" horiz-adv-x="772" d="M111 -248q0 50 34.5 81.5t92.5 31.5q78 0 130 -59.5t52 -157.5q0 -120 -103 -209h-106q37 60 37 108q0 57 -70 97q-67 37 -67 108zM147 989l201 10v-139q138 164 328 164q45 0 78 -8v-213q-66 12 -107 12q-171 0 -295 -147v-312l6 -356h-204v686z" />
<glyph unicode="&#x158;" horiz-adv-x="1329" d="M178 0v1491h490q236 0 369.5 -116.5t133.5 -311.5q0 -158 -89 -268.5t-259 -147.5l488 -647h-295l-201 291l-244 336h-168v-627h-225zM223 1948h168l199 -168l196 168h168l-278 -334h-174zM403 825h248q279 0 279 238q0 109 -72 169t-203 60h-252v-467z" />
<glyph unicode="&#x159;" horiz-adv-x="772" d="M94 1550h158l184 -227l185 227h155l-254 -409h-174zM147 989l201 10v-139q138 164 328 164q45 0 78 -8v-213q-66 12 -107 12q-171 0 -295 -147v-312l6 -356h-204v686z" />
<glyph unicode="&#x15a;" horiz-adv-x="1058" d="M82 47v260q116 -56 209.5 -82t208.5 -26q124 0 190 48.5t66 133.5q0 73 -43 127t-152 108l-188 97q-150 76 -218.5 170.5t-68.5 232.5q0 172 133 289t340 117q193 0 369 -58v-258q-101 43 -188 64.5t-187 21.5q-113 0 -175.5 -48t-62.5 -120q0 -68 39 -114.5t154 -104.5 l168 -88q163 -83 236 -187t73 -253q0 -182 -132.5 -295t-360.5 -113q-219 0 -410 78zM393 1614l225 334h256l-315 -334h-166z" />
<glyph unicode="&#x15b;" horiz-adv-x="743" d="M74 735q0 126 87.5 207.5t235.5 81.5q127 0 258 -41v-219q-137 70 -258 70q-70 0 -103.5 -27t-33.5 -66q0 -36 22 -62t89 -63l133 -71q190 -102 190 -285q0 -135 -90 -213t-254 -78q-140 0 -270 54v221q143 -82 282 -82q144 0 144 100q0 77 -107 133l-151 80 q-174 89 -174 260zM229 1141l232 409h250l-326 -409h-156z" />
<glyph unicode="&#x15c;" horiz-adv-x="1058" d="M82 47v260q116 -56 209.5 -82t208.5 -26q124 0 190 48.5t66 133.5q0 73 -43 127t-152 108l-188 97q-150 76 -218.5 170.5t-68.5 232.5q0 172 133 289t340 117q193 0 369 -58v-258q-101 43 -188 64.5t-187 21.5q-113 0 -175.5 -48t-62.5 -120q0 -68 39 -114.5t154 -104.5 l168 -88q163 -83 236 -187t73 -253q0 -182 -132.5 -295t-360.5 -113q-219 0 -410 78zM193 1614l278 334h174l279 -334h-168l-197 168l-199 -168h-167z" />
<glyph unicode="&#x15d;" horiz-adv-x="743" d="M53 1141l254 409h174l254 -409h-155l-185 229l-184 -229h-158zM74 735q0 126 87.5 207.5t235.5 81.5q127 0 258 -41v-219q-137 70 -258 70q-70 0 -103.5 -27t-33.5 -66q0 -36 22 -62t89 -63l133 -71q190 -102 190 -285q0 -135 -90 -213t-254 -78q-140 0 -270 54v221 q143 -82 282 -82q144 0 144 100q0 77 -107 133l-151 80q-174 89 -174 260z" />
<glyph unicode="&#x15e;" horiz-adv-x="1058" d="M82 47v260q116 -56 209.5 -82t208.5 -26q122 0 189 50.5t67 131.5q0 73 -43 127t-152 108l-188 97q-150 76 -218.5 170.5t-68.5 232.5q0 172 132.5 289t338.5 117q197 0 371 -58v-258q-102 43 -190.5 64.5t-198.5 21.5q-106 0 -165 -48.5t-59 -119.5q0 -68 39 -114.5 t154 -104.5l168 -88q162 -83 235.5 -188t73.5 -252q0 -173 -122 -284t-331 -120l-8 -55q93 -11 146 -64.5t53 -140.5q0 -98 -65.5 -154.5t-184.5 -56.5q-72 0 -137 19v137q64 -20 131 -20q102 0 102 75q0 97 -182 97l23 163q-179 8 -328 74z" />
<glyph unicode="&#x15f;" horiz-adv-x="743" d="M74 735q0 127 86 208t237 81q120 0 258 -41v-215q-148 66 -258 66q-66 0 -99.5 -26t-33.5 -65q0 -36 21.5 -60t89.5 -62l133 -72q186 -105 186 -289q0 -124 -78.5 -200.5t-222.5 -86.5l-8 -55q93 -11 146 -64.5t53 -140.5q0 -98 -65 -154.5t-185 -56.5q-76 0 -137 17v139 q75 -20 131 -20q102 0 102 75q0 43 -43 70t-139 27l22 165q-101 12 -190 48v221q143 -82 282 -82q72 0 106 27.5t34 72.5q0 39 -24 69t-83 62l-151 80q-170 87 -170 262z" />
<glyph unicode="&#x160;" horiz-adv-x="1058" d="M82 47v260q116 -56 209.5 -82t208.5 -26q124 0 190 48.5t66 133.5q0 73 -43 127t-152 108l-188 97q-150 76 -218.5 170.5t-68.5 232.5q0 172 133 289t340 117q193 0 369 -58v-258q-101 43 -188 64.5t-187 21.5q-113 0 -175.5 -48t-62.5 -120q0 -68 39 -114.5t154 -104.5 l168 -88q163 -83 236 -187t73 -253q0 -182 -132.5 -295t-360.5 -113q-219 0 -410 78zM193 1948h167l199 -168l197 168h168l-279 -334h-174z" />
<glyph unicode="&#x161;" horiz-adv-x="743" d="M53 1550h158l184 -227l185 227h155l-254 -409h-174zM74 735q0 126 87.5 207.5t235.5 81.5q127 0 258 -41v-219q-137 70 -258 70q-70 0 -103.5 -27t-33.5 -66q0 -36 22 -62t89 -63l133 -71q190 -102 190 -285q0 -135 -90 -213t-254 -78q-140 0 -270 54v221 q143 -82 282 -82q144 0 144 100q0 77 -107 133l-151 80q-174 89 -174 260z" />
<glyph unicode="&#x162;" horiz-adv-x="1107" d="M31 1292v199h1048v-199h-413v-1292h-48l-10 -82q93 -11 146 -64.5t53 -140.5q0 -98 -65 -154.5t-185 -56.5q-69 0 -137 19v137q66 -20 131 -20q102 0 102 75q0 97 -180 97l27 190h-58v1292h-411z" />
<glyph unicode="&#x163;" horiz-adv-x="741" d="M49 819v99l326 325v-250h299v-174h-299v-538q0 -55 33.5 -86t101.5 -31q90 0 201 49v-190q-111 -49 -224 -54l-6 -51q93 -11 147 -64.5t54 -140.5q0 -98 -66 -154.5t-186 -56.5q-69 0 -137 19v137q59 -20 133 -20q48 0 74 19.5t26 55.5q0 97 -180 97l25 176 q-92 22 -143.5 94t-51.5 192v547h-127z" />
<glyph unicode="&#x164;" horiz-adv-x="1107" d="M31 1292v199h1048v-199h-413v-1292h-224v1292h-411zM188 1948h168l199 -168l197 168h168l-279 -334h-174z" />
<glyph unicode="&#x165;" horiz-adv-x="741" d="M49 819v99l326 325v-250h299v-174h-299v-538q0 -55 33.5 -86t101.5 -31q95 0 201 47v-193q-111 -49 -234 -49q-141 0 -221 76t-80 227v547h-127zM403 1427q0 50 34.5 81.5t92.5 31.5q78 0 130.5 -59.5t52.5 -157.5q0 -120 -103 -209h-106q37 60 37 109q0 56 -70 96 q-68 38 -68 108z" />
<glyph unicode="&#x166;" horiz-adv-x="1107" d="M31 1292v199h1048v-199h-413v-452h309v-178h-309v-662h-224v662h-307v178h307v452h-411z" />
<glyph unicode="&#x167;" horiz-adv-x="741" d="M49 434v180h127v205h-127v99l326 325v-250h299v-174h-299v-205h280v-180h-280v-153q0 -55 33.5 -86t101.5 -31q90 0 201 49v-190q-110 -54 -234 -54q-141 0 -221 76t-80 227v162h-127z" />
<glyph unicode="&#x168;" horiz-adv-x="1497" d="M164 537v954h223v-944q0 -163 96.5 -263t272.5 -100q174 0 271 100t97 261v946h207v-954q0 -124 -37 -227.5t-107.5 -179.5t-180.5 -118.5t-250 -42.5q-145 0 -258.5 42.5t-186 119t-110 179.5t-37.5 227zM414 1653v196q77 64 174 64q80 0 174 -47q79 -39 158 -39 q95 0 157 80v-197q-78 -65 -174 -65q-80 0 -174 47q-78 41 -156 41q-94 0 -159 -80z" />
<glyph unicode="&#x169;" horiz-adv-x="1136" d="M139 346v647h199v-622q0 -98 48 -152.5t136 -54.5q140 0 260 117v712h199v-739l25 -254h-201l-10 117q-144 -148 -314 -148q-163 0 -252.5 97t-89.5 280zM236 1233v194q77 64 174 64q80 0 174 -47q79 -39 157 -39q96 0 158 80v-195q-75 -65 -174 -65q-80 0 -174 47 q-78 41 -156 41q-92 0 -159 -80z" />
<glyph unicode="&#x16a;" horiz-adv-x="1497" d="M164 537v954h223v-944q0 -163 96.5 -263t272.5 -100q174 0 271 100t97 261v946h207v-954q0 -124 -37 -227.5t-107.5 -179.5t-180.5 -118.5t-250 -42.5q-145 0 -258.5 42.5t-186 119t-110 179.5t-37.5 227zM414 1692v180h663v-180h-663z" />
<glyph unicode="&#x16b;" horiz-adv-x="1136" d="M139 346v647h199v-622q0 -98 48 -152.5t136 -54.5q140 0 260 117v712h199v-739l25 -254h-201l-10 117q-144 -148 -314 -148q-163 0 -252.5 97t-89.5 280zM236 1268v178h663v-178h-663z" />
<glyph unicode="&#x16c;" horiz-adv-x="1497" d="M164 537v954h223v-944q0 -163 96.5 -263t272.5 -100q174 0 271 100t97 261v946h207v-954q0 -124 -37 -227.5t-107.5 -179.5t-180.5 -118.5t-250 -42.5q-145 0 -258.5 42.5t-186 119t-110 179.5t-37.5 227zM408 1948h133q38 -158 209 -158q170 0 208 158h132 q-19 -159 -107.5 -246.5t-232.5 -87.5q-145 0 -233.5 87.5t-108.5 246.5z" />
<glyph unicode="&#x16d;" horiz-adv-x="1136" d="M139 346v647h199v-622q0 -98 48 -152.5t136 -54.5q140 0 260 117v712h199v-739l25 -254h-201l-10 117q-144 -148 -314 -148q-163 0 -252.5 97t-89.5 280zM225 1550h137q45 -223 205 -223q161 0 203 223h137q-10 -201 -100.5 -305t-239.5 -104q-150 0 -240 104t-102 305z " />
<glyph unicode="&#x16e;" horiz-adv-x="1497" d="M164 537v954h223v-944q0 -163 96.5 -263t272.5 -100q174 0 271 100t97 261v946h207v-954q0 -124 -37 -227.5t-107.5 -179.5t-180.5 -118.5t-250 -42.5q-145 0 -258.5 42.5t-186 119t-110 179.5t-37.5 227zM475 1731q0 117 78.5 194.5t196.5 77.5q117 0 194.5 -77.5 t77.5 -194.5q0 -118 -77.5 -196.5t-194.5 -78.5q-118 0 -196.5 78t-78.5 197zM616 1731q0 -57 38.5 -95.5t95.5 -38.5q55 0 92 38.5t37 95.5q0 55 -36.5 92t-92.5 37q-57 0 -95.5 -37t-38.5 -92z" />
<glyph unicode="&#x16f;" horiz-adv-x="1136" d="M139 346v647h199v-622q0 -98 48 -152.5t136 -54.5q140 0 260 117v712h199v-739l25 -254h-201l-10 117q-144 -148 -314 -148q-163 0 -252.5 97t-89.5 280zM293 1415q0 117 78 195t196 78q117 0 195 -78t78 -195q0 -118 -78 -196t-195 -78q-119 0 -196.5 77.5t-77.5 196.5z M434 1415q0 -57 38 -95t95 -38q55 0 92 38t37 95q0 55 -37 92t-92 37q-57 0 -95 -37t-38 -92z" />
<glyph unicode="&#x170;" horiz-adv-x="1497" d="M164 537v954h223v-944q0 -163 96.5 -263t272.5 -100q174 0 271 100t97 261v946h207v-954q0 -124 -37 -227.5t-107.5 -179.5t-180.5 -118.5t-250 -42.5q-145 0 -258.5 42.5t-186 119t-110 179.5t-37.5 227zM383 1614l225 334h256l-315 -334h-166zM780 1614l228 334h256 l-318 -334h-166z" />
<glyph unicode="&#x171;" horiz-adv-x="1136" d="M139 346v647h199v-622q0 -98 48 -152.5t136 -54.5q140 0 260 117v712h199v-739l25 -254h-201l-10 117q-144 -148 -314 -148q-163 0 -252.5 97t-89.5 280zM201 1141l231 409h250l-326 -409h-155zM598 1141l231 409h252l-325 -409h-158z" />
<glyph unicode="&#x172;" horiz-adv-x="1497" d="M164 537v954h223v-944q0 -163 96.5 -263t272.5 -100q174 0 271 100t97 261v946h207v-954q0 -242 -135 -394.5t-391 -169.5q-143 -101 -143 -213q0 -52 34 -82t95 -30q63 0 118 16v-147q-77 -15 -118 -15q-131 0 -205 65t-74 169q0 141 141 239q-238 26 -363.5 177.5 t-125.5 384.5z" />
<glyph unicode="&#x173;" horiz-adv-x="1136" d="M139 346v647h199v-622q0 -98 48 -152.5t136 -54.5q143 0 260 117v712h199v-739l20 -254q-116 -33 -173.5 -96.5t-57.5 -136.5q0 -56 34 -87.5t95 -31.5q64 0 121 16v-149q-57 -13 -115 -13q-134 0 -209 65t-75 169q0 86 50 153t134 111l-10 117q-152 -148 -314 -148 q-163 0 -252.5 97t-89.5 280z" />
<glyph unicode="&#x174;" horiz-adv-x="2127" d="M0 1491h246l110 -358l248 -771l363 1129h198l363 -1129l252 771l108 358h240l-500 -1491h-207l-358 1073l-361 -1073h-204zM698 1614l279 334h174l279 -334h-168l-197 168l-199 -168h-168z" />
<glyph unicode="&#x175;" horiz-adv-x="1601" d="M0 993h217l105 -315l139 -412l250 727h188l250 -727l137 412l105 315h211l-355 -993h-207l-239 676l-242 -676h-207zM459 1141l254 409h174l254 -409h-156l-184 229l-185 -229h-157z" />
<glyph unicode="&#x176;" d="M0 1491h264l154 -272l209 -357l211 357l155 272h250l-512 -864v-627h-223v631zM256 1614l279 334h174l278 -334h-168l-196 168l-199 -168h-168z" />
<glyph unicode="&#x177;" horiz-adv-x="980" d="M0 993h221l117 -315l154 -387l159 387l117 315h213l-606 -1491h-234l240 521zM147 1141l254 409h174l254 -409h-155l-185 229l-184 -229h-158z" />
<glyph unicode="&#x178;" d="M0 1491h264l154 -272l209 -357l211 357l155 272h250l-512 -864v-627h-223v631zM293 1782q0 58 38 94.5t97 36.5q57 0 94 -36.5t37 -94.5q0 -57 -37 -95t-94 -38q-58 0 -96.5 38t-38.5 95zM690 1782q0 58 38 94.5t97 36.5q57 0 94 -36.5t37 -94.5q0 -57 -37 -95t-94 -38 q-58 0 -96.5 38t-38.5 95z" />
<glyph unicode="&#x179;" horiz-adv-x="1302" d="M31 0l831 1292h-778v199h1173l-831 -1292h846v-199h-1241zM485 1614l226 334h256l-316 -334h-166z" />
<glyph unicode="&#x17a;" horiz-adv-x="940" d="M31 0l528 805h-491v188h831l-526 -805h536v-188h-878zM303 1141l232 409h249l-325 -409h-156z" />
<glyph unicode="&#x17b;" horiz-adv-x="1302" d="M31 0l831 1292h-778v199h1173l-831 -1292h846v-199h-1241zM512 1782q0 60 39.5 99.5t99.5 39.5t100 -39.5t40 -99.5t-40 -100t-100 -40t-99.5 40t-39.5 100z" />
<glyph unicode="&#x17c;" horiz-adv-x="940" d="M31 0l528 805h-491v188h831l-526 -805h536v-188h-878zM332 1401q0 60 39.5 99.5t99.5 39.5t99.5 -39.5t39.5 -99.5q0 -59 -39.5 -98t-99.5 -39t-99.5 39t-39.5 98z" />
<glyph unicode="&#x17d;" horiz-adv-x="1302" d="M31 0l831 1292h-778v199h1173l-831 -1292h846v-199h-1241zM285 1948h168l198 -168l197 168h168l-279 -334h-174z" />
<glyph unicode="&#x17e;" horiz-adv-x="940" d="M31 0l528 805h-491v188h831l-526 -805h536v-188h-878zM129 1550h158l184 -227l184 227h156l-254 -409h-174z" />
<glyph unicode="&#x192;" d="M0 -477l20 198q47 -14 91 -14q72 0 110.5 40t54.5 118l201 954h-127l21 99l143 75l31 133q42 190 174.5 302t329.5 112q53 0 98 -10l-23 -205q-47 12 -100 12q-116 0 -191 -64t-100 -181l-20 -99h299l-37 -174h-299l-211 -1014q-31 -145 -111 -224t-225 -79 q-68 0 -129 21z" />
<glyph unicode="&#x218;" horiz-adv-x="1058" d="M82 47v260q116 -56 209.5 -82t208.5 -26q124 0 190 48.5t66 133.5q0 73 -43 127t-152 108l-188 97q-150 76 -218.5 170.5t-68.5 232.5q0 172 133 289t340 117q193 0 369 -58v-258q-101 43 -188 64.5t-187 21.5q-113 0 -175.5 -48t-62.5 -120q0 -68 39 -114.5t154 -104.5 l168 -88q163 -83 236 -187t73 -253q0 -182 -132.5 -295t-360.5 -113q-219 0 -410 78zM330 -248q0 50 34.5 81.5t92.5 31.5q78 0 130 -59.5t52 -157.5q0 -121 -102 -209h-107q37 60 37 108q0 57 -70 97q-67 37 -67 108z" />
<glyph unicode="&#x219;" horiz-adv-x="743" d="M74 735q0 126 87.5 207.5t235.5 81.5q127 0 258 -41v-219q-137 70 -258 70q-70 0 -103.5 -27t-33.5 -66q0 -36 22 -62t89 -63l133 -71q190 -102 190 -285q0 -135 -90 -213t-254 -78q-140 0 -270 54v221q143 -82 282 -82q144 0 144 100q0 77 -107 133l-151 80 q-174 89 -174 260zM203 -248q0 50 34.5 81.5t92.5 31.5q78 0 130 -59.5t52 -157.5q0 -121 -102 -209h-107q37 60 37 108q0 57 -70 97q-67 37 -67 108z" />
<glyph unicode="&#x21a;" horiz-adv-x="1107" d="M31 1292v199h1048v-199h-413v-1292h-224v1292h-411zM403 -248q0 50 34.5 81.5t92.5 31.5q78 0 130.5 -59.5t52.5 -157.5q0 -120 -103 -209h-106q37 60 37 108q0 57 -70 97q-68 38 -68 108z" />
<glyph unicode="&#x21b;" horiz-adv-x="741" d="M49 819v99l326 325v-250h299v-174h-299v-538q0 -55 33.5 -86t101.5 -31q95 0 201 47v-193q-111 -49 -234 -49q-141 0 -221 76t-80 227v547h-127zM287 -248q0 50 34.5 81.5t92.5 31.5q78 0 130 -59.5t52 -157.5q0 -121 -102 -209h-107q37 60 37 108q0 57 -70 97 q-67 37 -67 108z" />
<glyph unicode="&#x2b0;" horiz-adv-x="837" d="M117 496v1028l164 8l-11 -412q93 101 209 101q111 0 176.5 -70t65.5 -199v-456h-160v440q0 61 -31 94t-86 33q-87 0 -168 -68v-499h-159z" />
<glyph unicode="&#x2b2;" horiz-adv-x="385" d="M-57 168v166q47 -15 82 -15q42 0 66 25t24 76v780h157v-786q0 -120 -61 -189t-180 -69q-51 0 -88 12zM86 1417q0 46 31 76.5t78 30.5q46 0 77 -30.5t31 -76.5q0 -47 -31 -76.5t-77 -29.5q-48 0 -78.5 29.5t-30.5 76.5z" />
<glyph unicode="&#x2b7;" horiz-adv-x="1161" d="M10 1200h176l74 -223l80 -227l158 450h155l158 -444l78 221l76 223h174l-252 -704h-158l-158 434l-153 -434h-162z" />
<glyph unicode="&#x2b8;" horiz-adv-x="724" d="M4 1200h180l82 -223l94 -232l95 232l84 223h174l-422 -1044h-189l166 368z" />
<glyph unicode="&#x2c6;" horiz-adv-x="1024" d="M170 1141l254 409h174l254 -409h-156l-184 229l-184 -229h-158z" />
<glyph unicode="&#x2c7;" horiz-adv-x="1024" d="M170 1550h158l184 -227l184 227h156l-254 -409h-174z" />
<glyph unicode="&#x2d8;" horiz-adv-x="1024" d="M170 1550h137q45 -223 205 -223q161 0 203 223h137q-10 -201 -100.5 -305t-239.5 -104q-150 0 -240 104t-102 305z" />
<glyph unicode="&#x2d9;" horiz-adv-x="1024" d="M373 1401q0 60 39.5 99.5t99.5 39.5t99.5 -39.5t39.5 -99.5q0 -59 -39.5 -98t-99.5 -39t-99.5 39t-39.5 98z" />
<glyph unicode="&#x2da;" horiz-adv-x="1024" d="M238 1415q0 117 78 195t196 78q117 0 194.5 -78t77.5 -195q0 -118 -77.5 -196t-194.5 -78q-118 0 -196 77.5t-78 196.5zM379 1415q0 -57 38 -95t95 -38q55 0 92 38t37 95q0 55 -36.5 92t-92.5 37q-57 0 -95 -37t-38 -92z" />
<glyph unicode="&#x2db;" horiz-adv-x="1024" d="M313 -264q0 89 53 157.5t142 114.5h158q-205 -114 -205 -248q0 -52 34.5 -82t96.5 -30t119 16v-145q-79 -17 -127 -17q-126 0 -198.5 65t-72.5 169z" />
<glyph unicode="&#x2dc;" horiz-adv-x="1024" d="M180 1233v194q77 64 174 64q80 0 174 -47q79 -39 158 -39q96 0 158 80v-195q-75 -65 -174 -65q-80 0 -174 47q-78 41 -156 41q-93 0 -160 -80z" />
<glyph unicode="&#x2dd;" horiz-adv-x="1024" d="M72 1141l231 409h250l-326 -409h-155zM469 1141l231 409h252l-325 -409h-158z" />
<glyph unicode="&#x2e3;" horiz-adv-x="735" d="M20 496l248 358l-235 346h200l138 -213l137 213h188l-241 -346l254 -358h-201l-152 229l-147 -229h-189z" />
<glyph unicode="&#x3c0;" horiz-adv-x="1208" d="M31 819v174h1147v-174h-170v-536q0 -109 98 -109q26 0 72 8v-200q-44 -13 -91 -13q-137 0 -207.5 76.5t-70.5 216.5v557h-410v-819h-198v819h-170z" />
<glyph unicode="&#x2000;" horiz-adv-x="1001" />
<glyph unicode="&#x2001;" horiz-adv-x="2003" />
<glyph unicode="&#x2002;" horiz-adv-x="1024" />
<glyph unicode="&#x2003;" horiz-adv-x="2048" />
<glyph unicode="&#x2004;" horiz-adv-x="667" />
<glyph unicode="&#x2005;" horiz-adv-x="500" />
<glyph unicode="&#x2006;" horiz-adv-x="333" />
<glyph unicode="&#x2007;" />
<glyph unicode="&#x2008;" horiz-adv-x="620" />
<glyph unicode="&#x2009;" horiz-adv-x="307" />
<glyph unicode="&#x200a;" horiz-adv-x="204" />
<glyph unicode="&#x2010;" horiz-adv-x="620" d="M74 397v199h473v-199h-473z" />
<glyph unicode="&#x2011;" horiz-adv-x="620" d="M74 397v199h473v-199h-473z" />
<glyph unicode="&#x2012;" horiz-adv-x="620" d="M74 397v199h473v-199h-473z" />
<glyph unicode="&#x2013;" horiz-adv-x="1024" d="M0 397v199h1024v-199h-1024z" />
<glyph unicode="&#x2014;" horiz-adv-x="2048" d="M0 397v199h2048v-199h-2048z" />
<glyph unicode="&#x2018;" horiz-adv-x="620" d="M119 1157q0 111 32 196.5t107 168.5h166q-119 -138 -119 -230q0 -42 18 -70.5t62 -62.5q45 -34 63.5 -64t18.5 -71q0 -60 -39.5 -97.5t-99.5 -37.5q-85 0 -147 76t-62 192z" />
<glyph unicode="&#x2019;" horiz-adv-x="620" d="M154 1386q0 61 39.5 98.5t99.5 37.5q85 0 147 -76.5t62 -192.5q0 -110 -32 -195t-108 -169h-165q118 137 118 229q0 42 -18 70.5t-61 62.5q-45 34 -63.5 64t-18.5 71z" />
<glyph unicode="&#x201a;" horiz-adv-x="620" d="M135 -399q98 87 142.5 151t44.5 123q0 40 -20 68.5t-66 62.5q-46 32 -64 61t-18 70q0 60 39.5 97.5t99.5 37.5q88 0 148.5 -79.5t60.5 -196.5q0 -122 -42 -212.5t-143 -182.5h-182z" />
<glyph unicode="&#x201c;" horiz-adv-x="1093" d="M119 1157q0 111 32 196.5t107 168.5h166q-119 -138 -119 -230q0 -42 18 -70.5t62 -62.5q45 -34 63.5 -64t18.5 -71q0 -60 -39.5 -97.5t-99.5 -37.5q-85 0 -147 76t-62 192zM592 1157q0 111 32 196.5t107 168.5h166q-119 -138 -119 -230q0 -42 18 -70.5t62 -62.5 q45 -34 63.5 -64t18.5 -71q0 -60 -39.5 -97.5t-99.5 -37.5q-85 0 -147 76t-62 192z" />
<glyph unicode="&#x201d;" horiz-adv-x="1093" d="M154 1386q0 61 39.5 98.5t99.5 37.5q85 0 147 -76.5t62 -192.5q0 -110 -32 -195t-108 -169h-165q118 137 118 229q0 42 -18 70.5t-61 62.5q-45 34 -63.5 64t-18.5 71zM627 1386q0 61 39.5 98.5t99.5 37.5q85 0 147 -76.5t62 -192.5q0 -111 -32 -196t-107 -168h-166 q118 137 118 229q0 42 -18 70.5t-61 62.5q-45 34 -63.5 64t-18.5 71z" />
<glyph unicode="&#x201e;" horiz-adv-x="1093" d="M135 -399q98 87 142.5 151t44.5 123q0 40 -20 68.5t-66 62.5q-46 32 -64 61t-18 70q0 60 39.5 97.5t99.5 37.5q88 0 148.5 -79.5t60.5 -196.5q0 -122 -42 -212.5t-143 -182.5h-182zM608 -399q98 87 142.5 151t44.5 123q0 40 -20 68.5t-66 62.5q-46 32 -64 61t-18 70 q0 60 39.5 97.5t99.5 37.5q88 0 148.5 -79.5t60.5 -196.5q0 -122 -42 -212.5t-142 -182.5h-183z" />
<glyph unicode="&#x2020;" d="M125 805v188h401v498h191v-498h401v-188h-401v-1303h-191v1303h-401z" />
<glyph unicode="&#x2021;" d="M125 0v188h401v617h-401v188h401v498h191v-498h401v-188h-401v-617h401v-188h-401v-498h-191v498h-401z" />
<glyph unicode="&#x2022;" d="M199 748q0 181 121 302t301 121q181 0 302 -120.5t121 -302.5q0 -180 -121 -301t-302 -121q-180 0 -301 121t-121 301z" />
<glyph unicode="&#x2026;" horiz-adv-x="2013" d="M160 121q0 66 42.5 108.5t108.5 42.5q65 0 108.5 -42.5t43.5 -108.5q0 -65 -43.5 -108.5t-108.5 -43.5q-66 0 -108.5 43.5t-42.5 108.5zM854 121q0 66 44 108.5t110 42.5q65 0 108 -42.5t43 -108.5q0 -65 -43.5 -108.5t-107.5 -43.5q-66 0 -110 43.5t-44 108.5zM1550 121 q0 66 43.5 108.5t108.5 42.5q66 0 108.5 -42.5t42.5 -108.5q0 -65 -42.5 -108.5t-108.5 -43.5q-64 0 -108 43.5t-44 108.5z" />
<glyph unicode="&#x202f;" horiz-adv-x="400" />
<glyph unicode="&#x2030;" horiz-adv-x="2942" d="M119 1141q0 164 108 272.5t271 108.5q164 0 271.5 -108.5t107.5 -272.5q0 -163 -107.5 -270t-271.5 -107q-163 0 -271 107t-108 270zM315 1141q0 -77 53.5 -130t129.5 -53q77 0 128.5 53t51.5 130q0 78 -51 130t-129 52q-77 0 -130 -52t-53 -130zM510 0l860 1491h217 l-858 -1491h-219zM1210 348q0 164 107.5 272.5t269.5 108.5q164 0 272.5 -108.5t108.5 -272.5q0 -163 -108.5 -271t-272.5 -108q-161 0 -269 108t-108 271zM1407 348q0 -76 52.5 -129t127.5 -53q78 0 130 52.5t52 129.5q0 78 -52 129t-130 51q-76 0 -128 -51.5t-52 -128.5z M2064 348q0 164 108 272.5t271 108.5q164 0 272.5 -108.5t108.5 -272.5q0 -163 -108.5 -271t-272.5 -108q-163 0 -271 108t-108 271zM2261 348q0 -76 52.5 -129t129.5 -53q78 0 130.5 52.5t52.5 129.5q0 78 -52.5 129t-130.5 51q-77 0 -129.5 -51.5t-52.5 -128.5z" />
<glyph unicode="&#x2039;" horiz-adv-x="768" d="M82 492l371 501h231l-362 -501l364 -492h-231z" />
<glyph unicode="&#x203a;" horiz-adv-x="768" d="M82 0l362 492l-360 501h229l373 -501l-375 -492h-229z" />
<glyph unicode="&#x2044;" horiz-adv-x="649" d="M-94 0l649 1491h188l-649 -1491h-188z" />
<glyph unicode="&#x205f;" horiz-adv-x="500" />
<glyph unicode="&#x2070;" horiz-adv-x="909" d="M84 1018q0 254 102.5 397.5t264.5 143.5q161 0 262.5 -143.5t101.5 -397.5q0 -256 -101 -398.5t-263 -142.5t-264.5 143t-102.5 398zM258 1022q0 -185 52 -282t141 -97q87 0 138.5 97t51.5 282q0 180 -51.5 276.5t-138.5 96.5q-89 0 -141 -96.5t-52 -276.5z" />
<glyph unicode="&#x2074;" horiz-adv-x="909" d="M37 750l512 790h151v-629h119v-161h-119v-254h-168v254h-495zM311 911h221v340z" />
<glyph unicode="&#x2075;" horiz-adv-x="882" d="M139 528v195q119 -78 256 -78q92 0 141.5 44.5t49.5 131.5q0 85 -59.5 134t-164.5 49q-87 0 -212 -25l36 561h531v-172h-383l-19 -199q45 5 76 5q171 0 273 -97.5t102 -255.5q0 -152 -103.5 -248t-267.5 -96q-154 0 -256 51z" />
<glyph unicode="&#x2076;" horiz-adv-x="874" d="M86 885q0 192 107.5 358.5t279.5 296.5h303q-213 -124 -327 -244t-164 -256q85 78 190 78q127 0 209 -86.5t82 -226.5q0 -145 -89 -236.5t-233 -91.5q-164 0 -261 110.5t-97 297.5zM272 848q0 -91 46.5 -148t121.5 -57q70 0 108 44.5t38 117.5q0 69 -37 111t-105 42 q-87 0 -172 -75v-35z" />
<glyph unicode="&#x2077;" horiz-adv-x="864" d="M86 1368v172h727l-422 -1044h-207l400 872h-498z" />
<glyph unicode="&#x2078;" horiz-adv-x="864" d="M96 762q0 174 180 276q-139 97 -139 240q0 119 83 201t214 82q132 0 214.5 -82t82.5 -199q0 -83 -39 -139.5t-121 -102.5q103 -70 145 -137t42 -156q0 -121 -89.5 -194.5t-234.5 -73.5q-156 0 -247 80t-91 205zM268 780q0 -62 43 -103.5t119 -41.5q72 0 113 34.5t41 88.5 q0 48 -38.5 89t-150.5 107q-64 -40 -95.5 -81t-31.5 -93zM299 1280q0 -41 29 -78.5t118 -85.5q121 67 121 158q0 53 -37 89t-100 36q-57 0 -94 -35.5t-37 -83.5z" />
<glyph unicode="&#x2079;" horiz-adv-x="874" d="M76 496q213 124 327 244t164 255q-84 -77 -190 -77q-127 0 -209 86.5t-82 226.5q0 145 89 236.5t233 91.5q164 0 261 -110.5t97 -297.5q0 -192 -107.5 -358.5t-279.5 -296.5h-303zM266 1231q0 -69 37.5 -111.5t104.5 -42.5q50 0 89.5 19t82.5 57v35q0 91 -46.5 148 t-121.5 57q-70 0 -108 -44.5t-38 -117.5z" />
<glyph unicode="&#x207a;" horiz-adv-x="909" d="M96 942v154h277v272h153v-272h275v-154h-275v-276h-153v276h-277z" />
<glyph unicode="&#x207c;" horiz-adv-x="909" d="M96 786v158h705v-158h-705zM96 1094v153h705v-153h-705z" />
<glyph unicode="&#x207d;" horiz-adv-x="561" d="M84 1018q0 201 71.5 379t200.5 313h207q-309 -309 -309 -692q0 -381 309 -690h-207q-129 135 -200.5 312.5t-71.5 377.5z" />
<glyph unicode="&#x207e;" horiz-adv-x="561" d="M-10 328q311 311 311 690q0 381 -311 692h209q130 -135 202 -312.5t72 -379.5q0 -200 -72 -377.5t-202 -312.5h-209z" />
<glyph unicode="&#x207f;" horiz-adv-x="837" d="M115 1198l157 4l-4 -74q105 93 215 93t174 -70t64 -199v-456h-160v440q0 61 -31 94t-86 33q-87 0 -168 -68v-499h-159v481z" />
<glyph unicode="&#x2080;" horiz-adv-x="909" d="M84 25q0 254 102.5 397t264.5 143q161 0 262.5 -143t101.5 -397q0 -256 -101 -398.5t-263 -142.5t-264.5 143t-102.5 398zM258 29q0 -185 52 -282t141 -97q87 0 138.5 97t51.5 282q0 180 -51.5 276t-138.5 96q-89 0 -141 -96t-52 -276z" />
<glyph unicode="&#x2081;" horiz-adv-x="663" d="M80 217v143l297 187h127v-1045h-168v848z" />
<glyph unicode="&#x2082;" horiz-adv-x="874" d="M68 -498l297 377q110 137 150 218t40 153q0 68 -42.5 107.5t-117.5 39.5q-118 0 -266 -92v184q123 76 270 76q152 0 239 -87.5t87 -227.5q0 -97 -53.5 -191.5t-196.5 -265.5l-104 -123h397v-168h-700z" />
<glyph unicode="&#x2083;" horiz-adv-x="874" d="M129 -276q129 -72 254 -72q87 0 133.5 39t46.5 110q0 68 -47.5 109t-138.5 41h-90v162h75q78 0 122 39.5t44 103.5q0 65 -41 103t-118 38q-113 0 -232 -61v170q112 59 240 59q138 0 228.5 -82t90.5 -217q0 -78 -33.5 -129t-101.5 -90q174 -67 174 -258q0 -137 -97 -221 t-255 -84q-152 0 -254 57v183z" />
<glyph unicode="&#x2084;" horiz-adv-x="909" d="M37 -244l512 791h151v-629h119v-162h-119v-254h-168v254h-495zM311 -82h221v340z" />
<glyph unicode="&#x2085;" horiz-adv-x="882" d="M139 -270q119 -78 256 -78q92 0 141.5 44.5t49.5 131.5q0 85 -59.5 133.5t-164.5 48.5q-92 0 -212 -24l36 561h531v-172h-383l-19 -199q36 4 76 4q171 0 273 -97t102 -255q0 -152 -103.5 -248t-267.5 -96q-154 0 -256 51v195z" />
<glyph unicode="&#x2086;" horiz-adv-x="874" d="M86 -109q0 192 107.5 359t279.5 297h303q-213 -124 -327 -244t-164 -256q85 78 190 78q127 0 209 -86.5t82 -226.5q0 -145 -89 -236.5t-233 -91.5q-164 0 -261 110t-97 297zM272 -111v-34q0 -91 46.5 -148t121.5 -57q70 0 108 44.5t38 117.5q0 69 -37 111t-105 42 q-50 0 -89.5 -19t-82.5 -57z" />
<glyph unicode="&#x2087;" horiz-adv-x="864" d="M86 375v172h727l-422 -1045h-207l400 873h-498z" />
<glyph unicode="&#x2088;" horiz-adv-x="864" d="M96 -231q0 174 180 276q-139 97 -139 240q0 119 83 200.5t214 81.5q132 0 214.5 -81.5t82.5 -198.5q0 -83 -39 -139.5t-121 -102.5q103 -70 145 -137t42 -156q0 -121 -89.5 -194.5t-234.5 -73.5q-156 0 -247 80t-91 205zM268 -213q0 -62 43 -103.5t119 -41.5q72 0 113 34 t41 88q0 48 -38.5 89.5t-150.5 107.5q-64 -40 -95.5 -81t-31.5 -93zM299 287q0 -41 29 -78.5t118 -85.5q121 67 121 158q0 53 -37 89t-100 36q-57 0 -94 -35.5t-37 -83.5z" />
<glyph unicode="&#x2089;" horiz-adv-x="874" d="M76 -498q213 124 327 244t164 256q-85 -78 -190 -78q-127 0 -209 87t-82 227q0 145 89 236t233 91q164 0 261 -110t97 -297q0 -192 -107.5 -359t-279.5 -297h-303zM266 238q0 -69 37.5 -111.5t104.5 -42.5q50 0 89.5 19t82.5 57v35q0 91 -46.5 147.5t-121.5 56.5 q-70 0 -108 -44t-38 -117z" />
<glyph unicode="&#x208d;" horiz-adv-x="561" d="M84 25q0 201 71.5 379t200.5 313h207q-309 -309 -309 -692q0 -382 309 -691h-207q-129 135 -200.5 313t-71.5 378z" />
<glyph unicode="&#x208e;" horiz-adv-x="561" d="M-10 -666q311 311 311 691q0 381 -311 692h209q130 -135 202 -312.5t72 -379.5q0 -201 -72 -378.5t-202 -312.5h-209z" />
<glyph unicode="&#x20ac;" d="M55 457v180h109q-4 54 -4 100q0 76 2 117h-107v180h152q77 218 257 353t419 135q152 0 270 -33v-252q-118 55 -270 55q-135 0 -250 -71t-176 -187h626l-67 -180h-606q-7 -61 -7 -109q0 -54 7 -108h534l-61 -180h-416q61 -116 179.5 -187t248.5 -71q148 0 276 55v-252 q-129 -33 -276 -33q-266 0 -439.5 128.5t-256.5 359.5h-144z" />
<glyph unicode="&#x2116;" horiz-adv-x="2490" d="M178 0v1491h225l834 -1135v1135h209v-1491h-223l-836 1133v-1133h-209zM1694 795q0 163 104.5 269.5t261.5 106.5q152 0 251 -105t99 -265q0 -163 -103 -268t-261 -105q-151 0 -251.5 104t-100.5 263zM1855 805q0 -96 58 -158.5t151 -62.5q81 0 135 58.5t54 150.5 q0 95 -59 158t-148 63q-83 0 -137 -58t-54 -151z" />
<glyph unicode="&#x2122;" horiz-adv-x="1875" d="M43 1329v162h645v-162h-233v-737h-174v737h-238zM799 592v899h159l302 -471l303 471h161v-899h-174v579l-297 -458l-288 448v-569h-166z" />
<glyph unicode="&#x2190;" horiz-adv-x="2048" d="M0 741l825 588v-231l-424 -269l1647 15v-199l-1649 14l426 -278v-244z" />
<glyph unicode="&#x2191;" horiz-adv-x="2048" d="M428 932l604 825l588 -825h-231l-269 424l15 -1647h-199l14 1649l-278 -426h-244z" />
<glyph unicode="&#x2192;" horiz-adv-x="2048" d="M0 645v199l1647 -15l-424 269v231l825 -588l-825 -604v244l426 278z" />
<glyph unicode="&#x2193;" horiz-adv-x="2048" d="M428 535h244l278 -426l-14 1648h199l-15 -1646l269 424h231l-588 -826z" />
<glyph unicode="&#x2196;" horiz-adv-x="2048" d="M305 1462l1000 -168l-164 -164l-490 111l1176 -1153l-141 -141l-1156 1175l105 -497l-172 -172z" />
<glyph unicode="&#x2197;" horiz-adv-x="2048" d="M305 88l1176 1153l-490 -111l-164 164l1000 168l-158 -1009l-172 172l105 497l-1156 -1175z" />
<glyph unicode="&#x2198;" horiz-adv-x="2048" d="M305 1321l141 141l1156 -1175l-105 497l172 172l158 -1009l-1000 168l164 164l490 -111z" />
<glyph unicode="&#x2199;" horiz-adv-x="2048" d="M305 -53l158 1009l172 -172l-105 -497l1156 1175l141 -141l-1176 -1153l490 111l164 -164z" />
<glyph unicode="&#x2202;" horiz-adv-x="1210" d="M84 467q0 213 128.5 346t332.5 133q175 0 317 -121q-28 112 -78.5 213t-121 189t-144.5 160.5t-172 152.5h326q195 -186 314.5 -434.5t119.5 -511.5q0 -182 -63 -323.5t-182.5 -221.5t-278.5 -80q-223 0 -360.5 139t-137.5 359zM293 469q0 -130 83.5 -216.5t205.5 -86.5 q130 0 215.5 108.5t85.5 270.5v55q-152 152 -332 152q-118 0 -188 -79t-70 -204z" />
<glyph unicode="&#x2206;" horiz-adv-x="1351" d="M31 0l542 1491h207l543 -1491h-1292zM336 199h674l-336 944z" />
<glyph unicode="&#x220f;" horiz-adv-x="1574" d="M178 -498v1989h1219v-1989h-223v1790h-771v-1790h-225z" />
<glyph unicode="&#x2211;" horiz-adv-x="1302" d="M31 -498l649 1002l-635 987h1174v-199h-779l502 -782l-516 -809h846v-199h-1241z" />
<glyph unicode="&#x221a;" d="M20 989h226l260 -604l633 1391h225l-858 -1807z" />
<glyph unicode="&#x221e;" d="M61 756q0 143 81 228t204 85q144 0 262 -166q55 82 119 124t147 42q122 0 199.5 -87t77.5 -239q0 -145 -77 -229t-204 -84q-159 0 -266 166q-105 -166 -256 -166q-123 0 -205 90t-82 236zM242 754q0 -66 31.5 -106t82.5 -40q86 0 156 121q-58 94 -95 127t-77 33t-69 -36 t-29 -99zM700 776q59 -95 97 -131.5t75 -36.5q101 0 101 137q0 68 -30.5 106t-84.5 38q-87 0 -158 -113z" />
<glyph unicode="&#x222b;" horiz-adv-x="505" d="M-131 -279q65 -14 119 -14q166 0 166 180v1506q0 184 92 283.5t272 99.5q60 0 119 -17v-203q-69 15 -119 15q-166 0 -166 -180v-1506q0 -184 -92 -283.5t-272 -99.5q-59 0 -119 17v202z" />
<glyph unicode="&#x2248;" d="M125 395v213q121 99 260 99q65 0 123 -16t135 -54q128 -64 238 -64q140 0 237 123v-215q-117 -96 -260 -96q-64 0 -122.5 16t-137.5 54q-119 61 -236 61q-142 0 -237 -121zM125 819v215q117 96 260 96q65 0 123.5 -16t134.5 -53q124 -62 238 -62q142 0 237 121v-213 q-117 -96 -260 -96q-66 0 -124.5 16t-135.5 54q-125 61 -236 61q-140 0 -237 -123z" />
<glyph unicode="&#x2260;" d="M125 428v188h356l82 258h-438v189h500l108 348h197l-111 -348h299v-189h-358l-82 -258h440v-188h-500l-108 -348h-197l109 348h-297z" />
<glyph unicode="&#x2264;" d="M100 874l1018 488v-225l-604 -263l604 -260v-227zM125 129v188h993v-188h-993z" />
<glyph unicode="&#x2265;" d="M125 129v188h993v-188h-993zM125 387v227l604 260l-604 263v225l1018 -488z" />
<glyph unicode="&#x25ca;" d="M135 745l486 777l487 -777l-487 -776zM360 745l261 -411l262 411l-262 414z" />
<glyph unicode="&#x25fc;" horiz-adv-x="993" d="M0 0v993h993v-993h-993z" />
<glyph unicode="&#xf6e1;" horiz-adv-x="466" d="M84 -770q141 127 141 201q0 43 -53 82q-59 43 -59 102q0 46 30 73t76 27q66 0 110 -57.5t44 -142.5q0 -87 -33 -153t-111 -132h-145z" />
<glyph unicode="&#xf6e2;" horiz-adv-x="466" d="M84 223q141 127 141 201q0 43 -53 82q-59 43 -59 102q0 46 30 73.5t76 27.5q66 0 110 -58t44 -143q0 -87 -33 -153t-111 -132h-145z" />
<glyph unicode="&#xf6e5;" horiz-adv-x="466" d="M57 -61h349v-158h-349v158z" />
<glyph unicode="&#xf6e6;" horiz-adv-x="466" d="M57 774v158h349v-158h-349z" />
<glyph unicode="&#xf6e7;" horiz-adv-x="466" d="M119 -401q0 51 31.5 83.5t80.5 32.5q51 0 84 -32.5t33 -83.5q0 -48 -33.5 -81.5t-83.5 -33.5q-49 0 -80.5 33.5t-31.5 81.5z" />
<glyph unicode="&#xf6e8;" horiz-adv-x="466" d="M119 592q0 51 31.5 84t80.5 33q51 0 84 -33t33 -84q0 -48 -33.5 -81.5t-83.5 -33.5q-49 0 -80.5 33.5t-31.5 81.5z" />
<glyph unicode="&#xf6e9;" horiz-adv-x="708" d="M59 666q0 77 50 136.5t155 84.5q36 8 166 22v45q0 54 -31 78.5t-100 24.5q-102 0 -217 -56v166q114 54 223 54q133 0 209 -68t76 -201v-270l57 -178l-172 -27l-33 113q-81 -113 -194 -113q-84 0 -136.5 52.5t-52.5 136.5zM223 686q0 -30 18.5 -47.5t51.5 -17.5 q70 0 137 73v119q-87 -12 -139 -39q-68 -35 -68 -88z" />
<glyph unicode="&#xf6ea;" horiz-adv-x="847" d="M117 506v1018l166 8l-11 -399q95 88 197 88q131 0 215 -96.5t84 -252.5q0 -184 -102.5 -289.5t-284.5 -105.5q-98 0 -195 17zM279 645q81 -12 104 -12q102 0 161.5 57.5t59.5 173.5q0 91 -45 145t-125 54q-76 0 -155 -62v-356z" />
<glyph unicode="&#xf6eb;" horiz-adv-x="847" d="M70 840q0 159 105 270t265 111q59 0 119 -13v336l164 8l-4 -364v-490l22 -202h-159l-11 73q-89 -92 -194 -92q-141 0 -224 98.5t-83 264.5zM240 834q0 -89 42 -145t121 -56q84 0 156 59v350q-53 21 -113 21q-96 0 -151 -62.5t-55 -166.5z" />
<glyph unicode="&#xf6ec;" horiz-adv-x="792" d="M70 844q0 162 100 269.5t248 107.5q143 0 222 -90t79 -236v-88h-488q11 -76 69 -122t151 -46q117 0 221 49v-172q-100 -39 -221 -39q-173 0 -277 102t-104 265zM233 924h326q-3 64 -45 101.5t-104 37.5q-64 0 -112 -38t-65 -101z" />
<glyph unicode="&#xf6ed;" horiz-adv-x="395" d="M86 1438q0 45 32 75.5t77 30.5q46 0 77 -30t31 -76q0 -47 -31 -77t-77 -30q-45 0 -77 30.5t-32 76.5zM115 496v704h157v-704h-157z" />
<glyph unicode="&#xf6ee;" horiz-adv-x="395" d="M115 496v1028l164 8l-7 -344v-692h-157z" />
<glyph unicode="&#xf6ef;" horiz-adv-x="1230" d="M117 1198l159 4l-6 -74q93 93 199 93q57 0 105.5 -26.5t74.5 -74.5q108 101 221 101q108 0 172 -70t64 -195v-460h-160v450q0 53 -26.5 85t-77.5 32q-76 0 -152 -62v-505h-158v456q0 51 -25.5 81t-76.5 30q-71 0 -151 -62v-505h-160v481z" />
<glyph unicode="&#xf6f0;" horiz-adv-x="864" d="M68 844q0 164 104.5 270.5t261.5 106.5q152 0 251 -105.5t99 -265.5q0 -163 -103 -268t-261 -105q-151 0 -251.5 104t-100.5 263zM229 854q0 -96 58 -158.5t151 -62.5q81 0 135 58.5t54 150.5q0 95 -59 158t-148 63q-83 0 -137 -58t-54 -151z" />
<glyph unicode="&#xf6f1;" horiz-adv-x="581" d="M113 1198l155 4v-98q95 117 221 117q20 0 60 -7v-172q-49 11 -92 11q-107 0 -181 -80v-477h-159v481z" />
<glyph unicode="&#xf6f2;" horiz-adv-x="559" d="M61 1012q0 90 65.5 149.5t168.5 59.5q84 0 190 -29v-178q-113 49 -190 49q-37 0 -57.5 -14t-20.5 -33q0 -20 13.5 -33.5t56.5 -38.5l88 -49q69 -38 101 -88.5t32 -122.5q0 -93 -65.5 -150t-182.5 -57q-113 0 -194 37v174q92 -57 204 -57q82 0 82 57q0 26 -13.5 43.5 t-53.5 38.5l-99 51q-125 64 -125 191z" />
<glyph unicode="&#xf6f3;" horiz-adv-x="559" d="M45 1057v86l248 246v-189h205v-143h-205v-357q0 -67 78 -67t149 41v-160q-83 -37 -172 -37q-102 0 -159.5 55t-57.5 164v361h-86z" />
<glyph horiz-adv-x="673" d="M49 819v99l127 75v68q0 132 57 240.5t165.5 173.5t248.5 65q41 0 82 -6v-207q-51 10 -104 10q-113 0 -181.5 -72t-68.5 -190v-82h299v-174h-299v-448l6 -371h-205v819h-127z" />
<glyph horiz-adv-x="1701" d="M90 748q0 225 100.5 402.5t274.5 274.5t389 97q162 0 303 -58t241.5 -159.5t158 -245.5t57.5 -311q0 -306 -182 -510t-494 -250q170 -54 346 -82t408 -49l-47 -267q-333 53 -582 147t-524 267q-449 284 -449 744zM330 752q0 -243 149 -400t375 -157q222 0 370 152 t148 398q0 242 -150 396.5t-376 154.5q-221 0 -368.5 -150t-147.5 -394z" />
<glyph d="M102 745q0 365 145.5 571t373.5 206q112 0 206.5 -52t164.5 -148.5t109.5 -244.5t39.5 -332t-39.5 -332t-109.5 -244.5t-164.5 -148t-206.5 -51.5q-111 0 -205.5 51.5t-164.5 148t-109.5 245t-39.5 331.5zM324 748q0 -277 80.5 -423.5t216.5 -146.5q137 0 218 146.5 t81 423.5q0 276 -80.5 420.5t-218.5 144.5q-136 0 -216.5 -145t-80.5 -420z" />
<glyph horiz-adv-x="892" d="M100 1051v180l422 260h166v-1491h-211v1249z" />
<glyph horiz-adv-x="1193" d="M100 0l373 473q194 245 256 368t62 232q0 105 -66.5 171.5t-181.5 66.5q-100 0 -186 -32t-185 -95v227q167 111 379 111q213 0 336 -126t123 -323q0 -138 -70 -273t-276 -380l-179 -209h586v-211h-971z" />
<glyph horiz-adv-x="1193" d="M170 37v237q173 -92 354 -92q137 0 211 61.5t74 174.5q0 109 -75 173t-216 64h-117v199h91q125 0 193.5 62t68.5 167q0 102 -66.5 165t-187.5 63q-154 0 -318 -82v213q153 80 332 80q127 0 229.5 -50.5t163 -147t60.5 -222.5q0 -232 -219 -330q125 -31 200.5 -125 t75.5 -248q0 -190 -137.5 -310t-360.5 -120q-203 0 -356 68z" />
<glyph d="M49 373l729 1118h195v-920h172v-198h-172v-373h-213v373h-711zM393 571h367v570z" />
<glyph horiz-adv-x="1206" d="M184 39v237q156 -94 361 -94q135 0 221 72.5t86 202.5q0 131 -90.5 208.5t-265.5 77.5q-142 0 -295 -26l51 774h747v-211h-565l-22 -334q74 8 125 8q240 0 388 -133t148 -360q0 -219 -145.5 -355.5t-382.5 -136.5q-114 0 -194 16t-167 54z" />
<glyph horiz-adv-x="1193" d="M109 551q0 145 44.5 283t124.5 255.5t181 217t225 184.5h383q-297 -157 -475.5 -345.5t-243.5 -395.5q55 59 137.5 95t169.5 36q180 0 294 -126.5t114 -330.5q0 -197 -124.5 -326t-324.5 -129q-235 0 -370 161t-135 421zM342 512q0 -147 74 -240.5t192 -93.5 q111 0 172.5 68.5t61.5 177.5q0 115 -64 183.5t-170 68.5q-156 0 -266 -137v-27z" />
<glyph horiz-adv-x="1177" d="M113 1280v211h1013l-604 -1491h-250l576 1280h-735z" />
<glyph horiz-adv-x="1177" d="M125 373q0 123 64.5 221.5t207.5 181.5q-116 81 -165.5 167t-49.5 194q0 75 28.5 144t80.5 123t132 86t175 32q93 0 172 -32t132 -86t82.5 -125t29.5 -149q0 -121 -61 -205t-185 -149q150 -103 218.5 -197t68.5 -223q0 -169 -124.5 -278t-332.5 -109q-224 0 -348.5 114 t-124.5 290zM338 387q0 -96 67 -158.5t189 -62.5q115 0 179.5 53t64.5 141q0 78 -61.5 146.5t-233.5 167.5q-103 -63 -154 -132.5t-51 -154.5zM383 1137q0 -68 50.5 -130t182.5 -137q99 57 147 116.5t48 137.5q0 83 -58 138t-159 55q-93 0 -152 -52.5t-59 -127.5z" />
<glyph horiz-adv-x="1193" d="M111 1057q0 204 128 334.5t334 130.5q150 0 262 -74.5t171 -206t59 -301.5q0 -144 -39 -278.5t-112.5 -251.5t-160 -215t-198.5 -195h-373q273 181 430 361t215 382q-58 -58 -139.5 -94.5t-161.5 -36.5q-185 0 -300 123.5t-115 321.5zM332 1057q0 -107 62.5 -176.5 t162.5 -69.5q81 0 144 34.5t128 100.5v33q0 146 -72 240t-184 94q-114 0 -177.5 -70t-63.5 -186z" />
<glyph horiz-adv-x="1058" d="M82 47v260q116 -56 209.5 -82t208.5 -26q122 0 189 50.5t67 131.5q0 80 -41.5 130t-153.5 105l-188 97q-150 76 -218.5 170.5t-68.5 232.5q0 150 103 259.5t272 137.5v222h178v-215q150 -12 289 -56v-258q-102 43 -189 64.5t-188 21.5q-110 0 -173 -48.5t-63 -119.5 q0 -68 39 -114.5t154 -104.5l168 -88q162 -83 235.5 -188t73.5 -252q0 -152 -95 -257t-263 -136v-228h-181v213q-196 8 -364 78z" />
<glyph horiz-adv-x="1316" d="M37 1491h264l154 -272l209 -357l210 357l158 272h248l-330 -557h281v-178h-389l-74 -129v-90h463v-179h-463v-358h-223v358h-459v179h459v94l-76 125h-383v178h276z" />
<glyph horiz-adv-x="1474" d="M25 457v180h231q-4 29 -4 100q0 61 6 117h-233v180h278q86 222 288 355t468 133q179 0 338 -43v-252q-162 65 -338 65q-167 0 -297 -68t-199 -190h731l-96 -180h-694q-6 -52 -6 -109q0 -56 10 -108h571l-98 -180h-408q73 -118 204.5 -188t301.5 -70q173 0 336 59v-246 q-159 -43 -340 -43q-293 0 -496.5 131.5t-283.5 356.5h-270z" />
<glyph horiz-adv-x="923" d="M80 748q0 199 117 342.5t307 181.5v219h180v-213q80 -3 174 -31v-223q-125 57 -240 57q-150 0 -242.5 -87.5t-92.5 -239.5q0 -140 95.5 -234t252.5 -94q118 0 239 41v-209q-94 -25 -186 -33v-225h-180v233q-194 35 -309 174.5t-115 340.5z" />
<glyph horiz-adv-x="1167" d="M68 -31v187q82 46 127 95t72 135.5t36 227.5l4 64h-201v180h222l10 100q26 265 178 414.5t399 149.5q88 0 189 -19v-235q-105 24 -195 24q-151 0 -242 -89t-104 -263l-6 -82h408v-180h-428l-11 -92q-16 -142 -50 -220t-91 -137q128 -9 207 -24q159 -35 250 -35 q128 0 243 63v-217q-117 -47 -251 -47q-97 0 -254 29q-18 3 -64 11.5t-66.5 11.5t-55.5 6.5t-66 3.5q-47 0 -90.5 -8.5t-72 -18t-97.5 -35.5z" />
<glyph d="M102 512q0 240 147.5 391.5t371.5 151.5q225 0 372.5 -151t147.5 -392t-147.5 -392t-372.5 -151q-224 0 -371.5 151.5t-147.5 391.5zM324 514q0 -149 82.5 -242.5t214.5 -93.5q133 0 216 93.5t83 242.5q0 147 -83 239.5t-216 92.5q-132 0 -214.5 -92.5t-82.5 -239.5z" />
<glyph d="M233 584v180l422 260h168v-1024h-211v782z" />
<glyph d="M164 0l227 219q219 209 284.5 292t65.5 165q0 76 -51 121t-145 45q-160 0 -332 -113v227q153 99 342 99q183 0 294.5 -107t111.5 -266q0 -113 -50 -191.5t-166 -177.5l-120 -102h395v-211h-856z" />
<glyph d="M195 -193q173 -92 354 -92q137 0 211 61.5t74 174.5q0 109 -75 173t-216 64h-117v199h90q125 0 193.5 62t68.5 167q0 102 -66.5 165t-187.5 63q-153 0 -317 -82v213q153 80 332 80q195 0 323.5 -115t128.5 -305q0 -232 -219 -330q125 -31 201 -125t76 -248 q0 -190 -137.5 -310t-360.5 -120q-203 0 -356 68v237z" />
<glyph d="M49 0l729 1024h195v-825h172v-199h-172v-498h-213v498h-711zM397 199h363v499z" />
<glyph d="M190 -190q158 -95 361 -95q135 0 221 72.5t86 202.5q0 131 -90.5 208.5t-265.5 77.5q-142 0 -295 -26l51 774h748v-211h-566l-22 -334q74 8 125 8q240 0 388 -133t148 -360q0 -219 -145.5 -355.5t-382.5 -136.5q-114 0 -194 16t-167 54v238z" />
<glyph d="M131 551q0 145 44.5 283t124.5 255.5t181.5 217t225.5 184.5h383q-297 -157 -475.5 -345.5t-243.5 -395.5q55 59 137.5 95t169.5 36q180 0 293.5 -126.5t113.5 -330.5q0 -198 -124 -326.5t-324 -128.5q-235 0 -370.5 161t-135.5 421zM365 512q0 -147 74 -240.5t192 -93.5 q111 0 172 68.5t61 177.5q0 115 -63.5 183.5t-169.5 68.5q-156 0 -266 -137v-27z" />
<glyph d="M131 813v211h1014l-617 -1522h-249l587 1311h-735z" />
<glyph d="M160 373q0 123 64.5 221.5t207.5 181.5q-116 81 -165.5 167t-49.5 194q0 75 28.5 144t80.5 123t132 86t175 32q93 0 172 -32t132 -86t82.5 -125t29.5 -149q0 -121 -61 -205t-185 -149q150 -103 218.5 -197t68.5 -223q0 -169 -124.5 -278t-332.5 -109q-224 0 -348.5 114 t-124.5 290zM373 387q0 -96 67 -158.5t189 -62.5q115 0 179 53t64 141q0 79 -61 147t-233 167q-103 -63 -154 -132.5t-51 -154.5zM418 1137q0 -68 50.5 -130t182.5 -137q99 57 147 116.5t48 137.5q0 83 -58 138t-159 55q-93 0 -152 -52.5t-59 -127.5z" />
<glyph d="M135 590q0 204 128.5 334.5t334.5 130.5q150 0 262 -74.5t171 -206t59 -301.5q0 -123 -30 -241t-78.5 -214t-121 -192t-145.5 -170.5t-164 -153.5h-373q283 188 448 372t226 402q-58 -58 -139.5 -94.5t-161.5 -36.5q-185 0 -300.5 123.5t-115.5 321.5zM356 590 q0 -107 63 -176.5t163 -69.5q81 0 144 34.5t128 100.5v33q0 146 -72 240t-184 94q-114 0 -178 -70t-64 -186z" />
<glyph horiz-adv-x="686" d="M66 844q0 162 110.5 269.5t276.5 107.5q95 0 168 -21v-176q-89 35 -168 35q-100 0 -161 -56.5t-61 -154.5q0 -89 62.5 -149t169.5 -60q72 0 168 29v-166q-71 -25 -170 -25q-177 0 -286 102.5t-109 264.5z" />
<glyph horiz-adv-x="512" d="M45 1057v86l86 51v12q0 144 92.5 241t245.5 97q36 0 63 -6v-164q-39 8 -69 8q-78 0 -124 -46.5t-46 -121.5v-14h205v-143h-205v-561h-162v561h-86z" />
<glyph horiz-adv-x="847" d="M72 825q0 170 113 283t292 113q85 0 182 -17l60 -10v-678q0 -164 -98.5 -262t-290.5 -98q-129 0 -230 32v174q110 -43 236 -43q120 0 170.5 52t50.5 155v43q-71 -92 -186 -92q-137 0 -218 95t-81 253zM244 827q0 -85 40.5 -139.5t118.5 -54.5q85 0 154 63v353 q-33 10 -84 10q-105 0 -167 -62.5t-62 -169.5z" />
<glyph horiz-adv-x="806" d="M117 496v1028l166 8l-4 -354v-244l247 266h222l-297 -303l342 -401h-224l-231 284l-59 -59v-225h-162z" />
<glyph horiz-adv-x="847" d="M115 1198l155 4v-76q92 95 203 95q129 0 212 -97t83 -258q0 -170 -94.5 -279.5t-257.5 -109.5q-78 0 -137 19l2 -340h-164v821zM279 664q67 -31 137 -31q86 0 137 58.5t51 162.5q0 98 -44.5 153.5t-125.5 55.5q-78 0 -155 -64v-335z" />
<glyph horiz-adv-x="847" d="M72 825q0 170 113 283t292 113q101 0 195 -15l47 -8v-1042h-162v405q-74 -84 -192 -84q-133 0 -213 95.5t-80 252.5zM244 827q0 -85 40.5 -139.5t118.5 -54.5q89 0 154 65v353q-40 8 -84 8q-105 0 -167 -62.5t-62 -169.5z" />
<glyph horiz-adv-x="835" d="M106 745v455h162v-440q0 -62 29 -94.5t84 -32.5q83 0 166 69v498h160v-520l14 -184h-150l-10 75q-91 -94 -205 -94q-120 0 -185 68.5t-65 199.5z" />
<glyph horiz-adv-x="724" d="M4 1200h182l82 -223l92 -240l95 240l84 223h174l-273 -704h-161z" />
<glyph horiz-adv-x="698" d="M23 496l354 551h-320v153h602l-354 -553h350v-151h-632z" />
<glyph horiz-adv-x="909" d="M84 969q0 254 102.5 397t264.5 143q161 0 262.5 -143t101.5 -397q0 -256 -101 -398.5t-263 -142.5t-264.5 143t-102.5 398zM258 973q0 -185 52 -282t141 -97q87 0 138.5 97t51.5 282q0 180 -51.5 276.5t-138.5 96.5q-89 0 -141 -96.5t-52 -276.5z" />
<glyph horiz-adv-x="663" d="M80 1161v144l297 186h127v-1045h-168v848z" />
<glyph horiz-adv-x="874" d="M68 446l297 377q110 137 150 218t40 153q0 68 -42.5 107.5t-117.5 39.5q-118 0 -266 -92v185q121 75 270 75q152 0 239 -87.5t87 -227.5q0 -97 -53.5 -191.5t-196.5 -265.5l-104 -123h397v-168h-700z" />
<glyph horiz-adv-x="874" d="M129 485v183q129 -72 254 -72q87 0 133.5 39t46.5 110q0 68 -47.5 109t-138.5 41h-90v162h75q78 0 122 39.5t44 103.5q0 65 -41 103t-118 38q-113 0 -232 -61v170q112 59 240 59q138 0 228.5 -82t90.5 -217q0 -78 -33.5 -129t-101.5 -90q174 -67 174 -258 q0 -137 -97 -221t-255 -84q-152 0 -254 57z" />
<glyph horiz-adv-x="909" d="M37 700l512 791h151v-629h119v-162h-119v-254h-168v254h-495zM311 862h221v340z" />
<glyph horiz-adv-x="882" d="M139 479v195q119 -78 256 -78q92 0 141.5 44.5t49.5 131.5q0 85 -59.5 133.5t-164.5 48.5q-92 0 -212 -24l36 561h531v-172h-383l-19 -199q36 4 76 4q171 0 273 -97t102 -255q0 -152 -103.5 -248t-267.5 -96q-154 0 -256 51z" />
<glyph horiz-adv-x="874" d="M86 836q0 192 107.5 358.5t279.5 296.5h303q-213 -124 -327 -244t-164 -256q85 78 190 78q127 0 209 -86.5t82 -226.5q0 -145 -89 -236.5t-233 -91.5q-164 0 -261 110.5t-97 297.5zM272 799q0 -91 46.5 -148t121.5 -57q70 0 108 44.5t38 117.5q0 69 -37 111t-105 42 q-87 0 -172 -75v-35z" />
<glyph horiz-adv-x="864" d="M86 1319v172h727l-422 -1045h-207l400 873h-498z" />
<glyph horiz-adv-x="864" d="M96 713q0 174 180 276q-139 97 -139 240q0 119 83 200.5t214 81.5q132 0 214.5 -81.5t82.5 -198.5q0 -83 -39 -139.5t-121 -102.5q103 -70 145 -137t42 -156q0 -121 -89.5 -194.5t-234.5 -73.5q-156 0 -247 80t-91 205zM268 731q0 -62 43 -103.5t119 -41.5q72 0 113 34.5 t41 88.5q0 48 -38.5 89t-150.5 107q-64 -40 -95.5 -81t-31.5 -93zM299 1231q0 -41 29 -78.5t118 -85.5q121 67 121 158q0 53 -37 89t-100 36q-57 0 -94 -35.5t-37 -83.5z" />
<glyph horiz-adv-x="874" d="M76 446q213 124 327 244t164 256q-85 -78 -190 -78q-127 0 -209 87t-82 227q0 145 89 236t233 91q164 0 261 -110t97 -297q0 -192 -107.5 -359t-279.5 -297h-303zM266 1182q0 -69 37.5 -111.5t104.5 -42.5q50 0 89.5 19t82.5 57v35q0 91 -46.5 147.5t-121.5 56.5 q-70 0 -108 -44t-38 -117z" />
<glyph horiz-adv-x="909" d="M84 522q0 254 102.5 397.5t264.5 143.5q161 0 262.5 -143.5t101.5 -397.5q0 -255 -101 -397.5t-263 -142.5t-264.5 142.5t-102.5 397.5zM258 526q0 -185 52 -282t141 -97q87 0 138.5 97t51.5 282q0 180 -51.5 276.5t-138.5 96.5q-89 0 -141 -96.5t-52 -276.5z" />
<glyph horiz-adv-x="663" d="M80 715v143l297 186h127v-1044h-168v848z" />
<glyph horiz-adv-x="874" d="M68 0l297 377q110 137 150 218t40 153q0 68 -42.5 107.5t-117.5 39.5q-118 0 -266 -92v184q123 76 270 76q152 0 239 -87.5t87 -227.5q0 -97 -53.5 -191.5t-196.5 -265.5l-104 -123h397v-168h-700z" />
<glyph horiz-adv-x="874" d="M129 39v182q127 -71 254 -71q87 0 133.5 39t46.5 110q0 68 -47.5 109t-138.5 41h-90v161h75q78 0 122 40t44 104q0 65 -41 103t-118 38q-113 0 -232 -61v170q112 59 240 59q138 0 228.5 -82t90.5 -217q0 -78 -33.5 -129t-101.5 -90q174 -67 174 -258q0 -137 -97 -221 t-255 -84q-152 0 -254 57z" />
<glyph horiz-adv-x="909" d="M37 254l512 790h151v-628h119v-162h-119v-254h-168v254h-495zM311 416h221v340z" />
<glyph horiz-adv-x="882" d="M139 33v194q118 -77 256 -77q92 0 141.5 44.5t49.5 131.5q0 85 -59.5 133.5t-164.5 48.5q-87 0 -212 -25l36 561h531v-172h-383l-19 -198q36 4 76 4q171 0 273 -97t102 -255q0 -152 -103.5 -248t-267.5 -96q-154 0 -256 51z" />
<glyph horiz-adv-x="874" d="M86 389q0 192 107.5 358.5t279.5 296.5h303q-213 -124 -327 -244t-164 -255q85 78 190 78q127 0 209 -87t82 -227q0 -145 -89 -236t-233 -91q-164 0 -261 110t-97 297zM272 352q0 -91 46.5 -148t121.5 -57q70 0 108 44.5t38 117.5q0 69 -37.5 111.5t-104.5 42.5 q-50 0 -89.5 -19t-82.5 -57v-35z" />
<glyph horiz-adv-x="864" d="M86 872v172h727l-422 -1044h-207l400 872h-498z" />
<glyph horiz-adv-x="864" d="M96 266q0 175 180 277q-139 97 -139 239q0 119 83 201t214 82q132 0 214.5 -82t82.5 -199q0 -82 -39 -138.5t-121 -102.5q103 -70 145 -137t42 -156q0 -121 -89.5 -194.5t-234.5 -73.5q-156 0 -247 79.5t-91 204.5zM268 285q0 -62 43 -104t119 -42q72 0 113 34.5t41 88.5 q0 48 -38.5 89.5t-150.5 107.5q-64 -40 -95.5 -81t-31.5 -93zM299 784q0 -41 29 -78t118 -85q121 67 121 157q0 53 -37 89t-100 36q-57 0 -94 -35.5t-37 -83.5z" />
<glyph horiz-adv-x="874" d="M76 0q213 124 327 244t164 256q-85 -78 -190 -78q-127 0 -209 86.5t-82 226.5q0 145 89 236.5t233 91.5q164 0 261 -110.5t97 -297.5q0 -192 -107.5 -358.5t-279.5 -296.5h-303zM266 735q0 -69 37 -111t105 -42q87 0 172 75v35q0 91 -46.5 148t-121.5 57 q-70 0 -108 -44.5t-38 -117.5z" />
<glyph horiz-adv-x="1249" d="M49 819v99l127 75v68q0 132 57 240.5t165.5 173.5t248.5 65q35 0 82 -6v-207q-51 10 -104 10q-113 0 -181.5 -72t-68.5 -190v-82h379v68q0 203 130 341t339 138q39 0 82 -6v-207q-49 10 -105 10q-112 0 -180 -71.5t-68 -190.5v-82h297v-174h-297v-448l4 -371h-202v819 h-379v-448l6 -371h-205v819h-127z" />
<glyph horiz-adv-x="745" d="M106 745q0 290 102 544t284 450h253q-428 -428 -428 -994q0 -567 428 -995h-253q-182 196 -284 450.5t-102 544.5z" />
<glyph horiz-adv-x="745" d="M0 -250q428 428 428 995q0 566 -428 994h254q182 -196 283.5 -450t101.5 -544t-101.5 -544.5t-283.5 -450.5h-254z" />
<glyph horiz-adv-x="745" d="M104 655v179h56q65 0 100 35.5t35 97.5q0 41 -25 157l-12 56q-22 90 -22 176q0 172 102.5 277.5t267.5 105.5h105v-180h-80q-98 0 -149.5 -56t-51.5 -153q0 -63 21 -160l10 -49q20 -98 20 -158q0 -174 -141 -238q141 -64 141 -239q0 -36 -20 -158l-10 -49 q-21 -97 -21 -158q0 -97 51.5 -153t149.5 -56h80v-182h-105q-165 0 -267.5 105.5t-102.5 277.5q0 86 22 176l12 56q25 116 25 159q0 62 -35 96.5t-100 34.5h-56z" />
<glyph horiz-adv-x="745" d="M35 -68h80q98 0 149 56t51 153q0 65 -20 158l-8 49q-23 113 -23 158q0 175 142 239q-142 64 -142 238q0 47 23 160l8 47q20 92 20 160q0 97 -51 153t-149 56h-80v180h104q165 0 268 -105.5t103 -277.5q0 -82 -23 -176l-12 -56q-24 -111 -24 -157q0 -62 35 -97.5 t100 -35.5h55v-179h-55q-65 0 -100 -34.5t-35 -96.5q0 -48 24 -159l12 -56q23 -94 23 -176q0 -172 -103 -277.5t-268 -105.5h-104v182z" />
<glyph horiz-adv-x="745" d="M156 -250v1989h555v-180h-365v-1627h365v-182h-555z" />
<glyph horiz-adv-x="745" d="M35 -68h364v1627h-364v180h555v-1989h-555v182z" />
<glyph horiz-adv-x="620" d="M74 645v199h473v-199h-473z" />
<glyph horiz-adv-x="620" d="M74 645v199h473v-199h-473z" />
<glyph horiz-adv-x="1024" d="M0 645v199h1024v-199h-1024z" />
<glyph horiz-adv-x="2048" d="M0 645v199h2048v-199h-2048z" />
<glyph d="M82 748l371 501h231l-362 -501l364 -492h-231zM557 748l373 501h229l-360 -501l362 -492h-229z" />
<glyph d="M82 256l362 492l-360 501h229l373 -501l-375 -492h-229zM557 256l365 492l-363 501h232l370 -501l-373 -492h-231z" />
<glyph horiz-adv-x="768" d="M82 748l371 501h231l-362 -501l364 -492h-231z" />
<glyph horiz-adv-x="768" d="M82 256l362 492l-360 501h229l373 -501l-375 -492h-229z" />
<glyph d="M102 745q0 365 145.5 571t373.5 206q112 0 206.5 -52t164.5 -148.5t109.5 -244.5t39.5 -332t-39.5 -332t-109.5 -244.5t-164.5 -148t-206.5 -51.5q-111 0 -205.5 51.5t-164.5 148t-109.5 245t-39.5 331.5zM324 748q0 -97 8 -162l530 530q-80 197 -241 197 q-136 0 -216.5 -145t-80.5 -420zM379 379q38 -100 100.5 -150.5t141.5 -50.5q137 0 218 146.5t81 423.5q0 71 -11 161z" />
<glyph horiz-adv-x="1024" d="M-123 -477l21 198q47 -14 90 -14q72 0 111 40t55 118l200 954h-127l21 99l143 75l31 133q42 190 174.5 302t329.5 112q53 0 98 -10l-23 -205q-47 12 -100 12q-116 0 -191 -64t-100 -181l-20 -99h299l-37 -174h-299l-211 -1014q-31 -145 -111 -224t-225 -79q-67 0 -129 21 z" />
<glyph horiz-adv-x="708" d="M59 616q0 77 50.5 137t154.5 85q36 8 166 22v45q0 54 -31 78.5t-100 24.5q-102 0 -217 -56v166q111 53 223 53q133 0 209 -67.5t76 -200.5v-270l57 -178l-172 -27l-33 113q-81 -113 -194 -113q-84 0 -136.5 52t-52.5 136zM223 637q0 -30 18.5 -48t51.5 -18q69 0 137 74 v119q-87 -12 -139 -39q-68 -35 -68 -88z" />
<glyph horiz-adv-x="847" d="M117 457v1018l166 8l-11 -400q95 88 197 88q131 0 215 -96t84 -252q0 -184 -102.5 -289.5t-284.5 -105.5q-104 0 -195 16zM279 596q81 -12 104 -12q102 0 161.5 57.5t59.5 173.5q0 91 -45 145t-125 54q-76 0 -155 -62v-356z" />
<glyph horiz-adv-x="686" d="M66 795q0 162 110.5 269t276.5 107q98 0 168 -20v-176q-89 35 -168 35q-100 0 -161 -56.5t-61 -154.5q0 -89 62.5 -149t169.5 -60q75 0 168 28v-165q-71 -25 -170 -25q-177 0 -286 102.5t-109 264.5z" />
<glyph horiz-adv-x="847" d="M70 791q0 159 105 269.5t265 110.5q64 0 119 -12v336l164 8l-4 -364v-490l22 -203h-159l-11 74q-89 -92 -194 -92q-141 0 -224 98.5t-83 264.5zM240 784q0 -89 42 -144.5t121 -55.5q84 0 156 59v350q-53 21 -113 21q-96 0 -151 -63t-55 -167z" />
<glyph horiz-adv-x="792" d="M70 795q0 162 100 269t248 107q143 0 222 -89.5t79 -235.5v-88h-488q11 -76 69 -122t151 -46q117 0 221 49v-172q-100 -39 -221 -39q-173 0 -277 102t-104 265zM233 874h326q-3 64 -45 102t-104 38q-64 0 -112 -38t-65 -102z" />
<glyph horiz-adv-x="512" d="M45 1008v86l86 51v12q0 144 92.5 241t245.5 97q36 0 63 -6v-164q-39 8 -69 8q-78 0 -124 -46.5t-46 -121.5v-14h205v-143h-205v-562h-162v562h-86z" />
<glyph horiz-adv-x="847" d="M72 776q0 170 113 282.5t292 112.5q91 0 182 -16l60 -10v-678q0 -164 -98.5 -262.5t-290.5 -98.5q-126 0 -230 33v174q110 -43 236 -43q120 0 170.5 52t50.5 155v43q-71 -92 -186 -92q-137 0 -218 95t-81 253zM244 778q0 -85 40.5 -139.5t118.5 -54.5q85 0 154 63v352 q-37 11 -84 11q-105 0 -167 -62.5t-62 -169.5z" />
<glyph horiz-adv-x="837" d="M117 446v1029l164 8l-11 -412q92 100 209 100q111 0 176.5 -69.5t65.5 -198.5v-457h-160v441q0 61 -31 94t-86 33q-87 0 -168 -68v-500h-159z" />
<glyph horiz-adv-x="395" d="M86 1389q0 45 32 75.5t77 30.5q46 0 77 -30t31 -76q0 -47 -31 -77t-77 -30q-45 0 -77 30.5t-32 76.5zM115 446v705h157v-705h-157z" />
<glyph horiz-adv-x="385" d="M-57 119v166q47 -15 82 -15q42 0 66 25t24 76v780h157v-786q0 -120 -61.5 -189.5t-179.5 -69.5q-48 0 -88 13zM86 1368q0 46 31 76.5t78 30.5q46 0 77 -30.5t31 -76.5q0 -47 -31 -76.5t-77 -29.5q-48 0 -78.5 29.5t-30.5 76.5z" />
<glyph horiz-adv-x="806" d="M117 446v1029l166 8l-4 -355v-243l247 266h222l-297 -303l342 -402h-224l-231 285l-59 -59v-226h-162z" />
<glyph horiz-adv-x="395" d="M115 446v1029l164 8l-7 -344v-693h-157z" />
<glyph horiz-adv-x="1230" d="M117 1149l159 4l-6 -74q92 92 199 92q57 0 105.5 -26t74.5 -74q107 100 221 100q109 0 172.5 -69.5t63.5 -194.5v-461h-160v451q0 53 -26.5 85t-77.5 32q-76 0 -152 -62v-506h-158v457q0 51 -25.5 81t-76.5 30q-71 0 -151 -62v-506h-160v482z" />
<glyph horiz-adv-x="837" d="M115 1149l157 4l-4 -74q104 92 215 92q110 0 174 -69.5t64 -198.5v-457h-160v441q0 61 -31 94t-86 33q-87 0 -168 -68v-500h-159v482z" />
<glyph horiz-adv-x="864" d="M68 795q0 163 104.5 269.5t261.5 106.5q152 0 251 -105t99 -265q0 -163 -103 -268t-261 -105q-151 0 -251.5 104t-100.5 263zM229 805q0 -96 58 -158.5t151 -62.5q81 0 135 58.5t54 150.5q0 95 -59 158t-148 63q-83 0 -137 -58t-54 -151z" />
<glyph horiz-adv-x="847" d="M115 1149l155 4v-76q91 94 203 94q129 0 212 -96.5t83 -257.5q0 -170 -94.5 -279.5t-257.5 -109.5q-82 0 -137 18l2 -340h-164v822zM279 614q65 -30 137 -30q86 0 137 58.5t51 162.5q0 98 -44.5 153.5t-125.5 55.5q-78 0 -155 -64v-336z" />
<glyph horiz-adv-x="847" d="M72 776q0 170 113 282.5t292 112.5q107 0 195 -14l47 -8v-1043h-162v406q-74 -84 -192 -84q-133 0 -213 95.5t-80 252.5zM244 778q0 -85 40.5 -139.5t118.5 -54.5q89 0 154 65v352q-45 9 -84 9q-105 0 -167 -62.5t-62 -169.5z" />
<glyph horiz-adv-x="581" d="M113 1149l155 4v-98q94 116 221 116q25 0 60 -6v-172q-49 11 -92 11q-107 0 -181 -80v-478h-159v482z" />
<glyph horiz-adv-x="559" d="M61 963q0 90 65.5 149t168.5 59q87 0 190 -28v-178q-113 49 -190 49q-37 0 -57.5 -14t-20.5 -33q0 -20 13.5 -33.5t56.5 -38.5l88 -49q69 -38 101 -88.5t32 -122.5q0 -93 -65.5 -150t-182.5 -57q-113 0 -194 37v174q92 -57 204 -57q82 0 82 57q0 26 -13.5 43.5 t-53.5 38.5l-99 51q-125 64 -125 191z" />
<glyph horiz-adv-x="559" d="M45 1008v86l248 245v-188h205v-143h-205v-357q0 -67 78 -67t149 41v-160q-83 -37 -172 -37q-102 0 -159.5 55t-57.5 164v361h-86z" />
<glyph horiz-adv-x="835" d="M106 696v455h162v-440q0 -62 29 -94.5t84 -32.5q83 0 166 69v498h160v-520l14 -185h-150l-10 76q-91 -94 -205 -94q-120 0 -185 68.5t-65 199.5z" />
<glyph horiz-adv-x="724" d="M4 1151h182l82 -223l92 -240l95 240l84 223h174l-273 -705h-161z" />
<glyph horiz-adv-x="1161" d="M10 1151h176l74 -223l80 -228l158 451h155l158 -444l78 221l76 223h174l-252 -705h-158l-158 435l-153 -435h-162z" />
<glyph horiz-adv-x="735" d="M20 446l248 359l-235 346h200l138 -213l137 213h188l-241 -346l254 -359h-201l-152 230l-147 -230h-189z" />
<glyph horiz-adv-x="724" d="M4 1151h180l82 -223l94 -232l95 232l84 223h174l-422 -1045h-189l166 369z" />
<glyph horiz-adv-x="698" d="M23 446l354 551h-320v154h602l-354 -553h350v-152h-632z" />
<glyph horiz-adv-x="561" d="M84 969q0 201 71.5 379t200.5 313h207q-309 -309 -309 -692q0 -381 309 -690h-207q-129 135 -200.5 312.5t-71.5 377.5z" />
<glyph horiz-adv-x="561" d="M-10 279q311 311 311 690q0 381 -311 692h209q130 -135 202 -312.5t72 -379.5q0 -200 -72 -377.5t-202 -312.5h-209z" />
<glyph horiz-adv-x="466" d="M57 725v158h349v-158h-349z" />
<glyph horiz-adv-x="466" d="M84 174q141 127 141 201q0 43 -53 82q-59 43 -59 102q0 46 30 73t76 27q66 0 110 -57.5t44 -142.5q0 -87 -33 -153t-111 -132h-145z" />
<glyph horiz-adv-x="466" d="M119 543q0 51 31.5 83.5t80.5 32.5q51 0 84 -32.5t33 -83.5q0 -48 -33.5 -81.5t-83.5 -33.5q-49 0 -80.5 33.5t-31.5 81.5z" />
<glyph horiz-adv-x="909" d="M96 893v154h277v272h153v-272h275v-154h-275v-277h-153v277h-277z" />
<glyph horiz-adv-x="909" d="M96 737v158h705v-158h-705zM96 1044v154h705v-154h-705z" />
<glyph horiz-adv-x="708" d="M59 -328q0 77 50.5 137t154.5 85q36 8 166 22v45q0 54 -31 78t-100 24q-104 0 -217 -55v166q111 53 223 53q133 0 209 -67.5t76 -200.5v-270l57 -178l-172 -27l-33 113q-81 -113 -194 -113q-84 0 -136.5 52t-52.5 136zM223 -307q0 -30 18.5 -48t51.5 -18q69 0 137 74v119 q-87 -12 -139 -39q-68 -35 -68 -88z" />
<glyph horiz-adv-x="847" d="M117 -487v1017l166 9l-11 -400q95 88 197 88q131 0 215 -96t84 -252q0 -184 -102.5 -289.5t-284.5 -105.5q-104 0 -195 16zM279 8v-356q81 -12 104 -12q102 0 161.5 57.5t59.5 173.5q0 91 -45 145t-125 54q-76 0 -155 -62z" />
<glyph horiz-adv-x="686" d="M66 -150q0 162 110.5 269.5t276.5 107.5q98 0 168 -20v-176q-89 35 -168 35q-100 0 -161 -56.5t-61 -154.5q0 -89 62.5 -149t169.5 -60q75 0 168 28v-166q-68 -24 -170 -24q-177 0 -286 102t-109 264z" />
<glyph horiz-adv-x="847" d="M70 -154q0 159 105 270t265 111q64 0 119 -12v336l164 8l-4 -364v-490l22 -203h-159l-11 74q-89 -92 -194 -92q-141 0 -224 98t-83 264zM240 -160q0 -89 42 -144.5t121 -55.5q84 0 156 59v350q-52 21 -113 21q-96 0 -151 -63t-55 -167z" />
<glyph horiz-adv-x="792" d="M70 -150q0 162 100 269.5t248 107.5q143 0 222 -89.5t79 -235.5v-88h-488q11 -76 69 -122t151 -46q117 0 221 49v-172q-100 -39 -221 -39q-173 0 -277 101.5t-104 264.5zM233 -70h326q-3 64 -45 102t-104 38q-64 0 -112 -38t-65 -102z" />
<glyph horiz-adv-x="512" d="M45 63v87l86 51v12q0 144 92.5 241t245.5 97q36 0 63 -6v-164q-39 8 -69 8q-78 0 -124 -46.5t-46 -121.5v-14h205v-144h-205v-561h-162v561h-86z" />
<glyph horiz-adv-x="847" d="M72 -168q0 170 113 282.5t292 112.5q91 0 182 -16l60 -10v-678q0 -164 -98.5 -262.5t-290.5 -98.5q-126 0 -230 33v174q110 -43 236 -43q120 0 170.5 52t50.5 155v43q-71 -92 -186 -92q-137 0 -218 95t-81 253zM244 -166q0 -85 40.5 -139.5t118.5 -54.5q85 0 154 63v352 q-37 11 -84 11q-105 0 -167 -62.5t-62 -169.5z" />
<glyph horiz-adv-x="837" d="M117 -498v1028l164 9l-11 -412q92 100 209 100q111 0 176.5 -69.5t65.5 -198.5v-457h-160v441q0 61 -31 94t-86 33q-87 0 -168 -68v-500h-159z" />
<glyph horiz-adv-x="395" d="M86 444q0 45 32 76t77 31q46 0 77 -30.5t31 -76.5q0 -47 -31 -76.5t-77 -29.5q-45 0 -77 30t-32 76zM115 207h157v-705h-157v705z" />
<glyph horiz-adv-x="385" d="M-57 -659q47 -15 82 -15q42 0 66 25t24 76v780h157v-787q0 -120 -61 -189t-180 -69q-48 0 -88 13v166zM86 424q0 46 31 76t78 30q46 0 77 -30t31 -76q0 -47 -31 -77t-77 -30q-47 0 -78 30t-31 77z" />
<glyph horiz-adv-x="806" d="M117 -498v1028l166 9l-4 -355v-243l247 266h222l-297 -303l342 -402h-224l-231 285l-59 -59v-226h-162z" />
<glyph horiz-adv-x="395" d="M115 -498v1028l164 9l-7 -344v-693h-157z" />
<glyph horiz-adv-x="1230" d="M117 205l159 4l-6 -74q92 92 199 92q57 0 105.5 -26t74.5 -74q107 100 221 100q109 0 172.5 -69.5t63.5 -194.5v-461h-160v451q0 53 -26.5 85t-77.5 32q-76 0 -152 -62v-506h-158v457q0 51 -25.5 81t-76.5 30q-71 0 -151 -62v-506h-160v482z" />
<glyph horiz-adv-x="837" d="M115 205l157 4l-4 -74q104 92 215 92q110 0 174 -69.5t64 -198.5v-457h-160v441q0 61 -31 94t-86 33q-87 0 -168 -68v-500h-159v482z" />
<glyph horiz-adv-x="864" d="M68 -150q0 164 104.5 270.5t261.5 106.5q152 0 251 -105t99 -265q0 -163 -103 -268t-261 -105q-151 0 -251.5 103.5t-100.5 262.5zM229 -139q0 -96 58 -158.5t151 -62.5q81 0 135 58t54 150q0 95 -59 158.5t-148 63.5q-83 0 -137 -58t-54 -151z" />
<glyph horiz-adv-x="847" d="M115 205l155 4v-76q91 94 203 94q129 0 212 -96.5t83 -257.5q0 -170 -94.5 -279.5t-257.5 -109.5q-82 0 -137 18l2 -340h-164v822zM279 6v-336q65 -30 137 -30q86 0 137 58.5t51 162.5q0 98 -44.5 153.5t-125.5 55.5q-78 0 -155 -64z" />
<glyph horiz-adv-x="847" d="M72 -168q0 170 113 282.5t292 112.5q107 0 195 -14l47 -8v-1043h-162v406q-74 -84 -192 -84q-133 0 -213 95.5t-80 252.5zM244 -166q0 -85 40.5 -139.5t118.5 -54.5q89 0 154 65v352q-45 9 -84 9q-105 0 -167 -62.5t-62 -169.5z" />
<glyph horiz-adv-x="581" d="M113 205l155 4v-98q94 116 221 116q25 0 60 -6v-172q-45 10 -92 10q-108 0 -181 -79v-478h-159v482z" />
<glyph horiz-adv-x="559" d="M61 18q0 90 65.5 149.5t168.5 59.5q87 0 190 -28v-179q-115 50 -190 50q-37 0 -57.5 -14t-20.5 -33q0 -20 13.5 -33.5t56.5 -38.5l88 -49q69 -38 101 -88.5t32 -122.5q0 -93 -65.5 -150t-182.5 -57q-113 0 -194 37v174q92 -57 204 -57q82 0 82 57q0 26 -13.5 43.5 t-53.5 38.5l-99 51q-125 64 -125 190z" />
<glyph horiz-adv-x="559" d="M45 63v87l248 245v-188h205v-144h-205v-356q0 -67 78 -67t149 41v-160q-83 -37 -172 -37q-102 0 -159.5 55t-57.5 164v360h-86z" />
<glyph horiz-adv-x="835" d="M106 207h162v-440q0 -62 29 -94.5t84 -32.5q83 0 166 69v498h160v-520l14 -185h-150l-10 76q-91 -94 -205 -94q-120 0 -185 68.5t-65 199.5v455z" />
<glyph horiz-adv-x="724" d="M4 207h182l82 -223l92 -240l95 240l84 223h174l-273 -705h-161z" />
<glyph horiz-adv-x="1161" d="M10 207h176l74 -223l80 -228l158 451h155l158 -445l78 222l76 223h174l-252 -705h-158l-158 435l-153 -435h-162z" />
<glyph horiz-adv-x="735" d="M20 -498l248 359l-235 346h200l138 -213l137 213h188l-241 -346l254 -359h-201l-152 230l-147 -230h-189z" />
<glyph horiz-adv-x="724" d="M4 207h180l82 -223l94 -232l95 232l84 223h174l-422 -1045h-189l166 369z" />
<glyph horiz-adv-x="698" d="M23 -498l354 551h-320v154h602l-354 -553h350v-152h-632z" />
<glyph horiz-adv-x="620" d="M160 745q0 66 42.5 109t108.5 43q65 0 108.5 -43t43.5 -109q0 -64 -43.5 -107.5t-108.5 -43.5q-66 0 -108.5 43t-42.5 108z" />
<glyph horiz-adv-x="3049" d="M178 0v1491h225l834 -1135v1135h209v-1491h-223l-836 1133v-1133h-209zM1694 795q0 163 104.5 269.5t261.5 106.5q152 0 251 -105t99 -265q0 -163 -103 -268t-261 -105q-151 0 -251.5 104t-100.5 263zM1855 805q0 -96 58 -158.5t151 -62.5q81 0 135 58.5t54 150.5 q0 95 -59 158t-148 63q-83 0 -137 -58t-54 -151zM2552 963q0 90 65 149t168 59q88 0 191 -28v-178q-113 49 -191 49q-37 0 -57.5 -14t-20.5 -33q0 -20 13.5 -33.5t56.5 -38.5l88 -49q69 -38 101 -88.5t32 -122.5q0 -93 -65.5 -150t-182.5 -57q-113 0 -194 37v174 q92 -57 205 -57q82 0 82 57q0 26 -14 43.5t-54 38.5l-98 51q-125 64 -125 191z" />
<glyph horiz-adv-x="2004" d="M150 989l198 10v-114q132 139 305 139q164 0 256 -99t92 -282v-643h-198v625q0 97 -50 150.5t-139 53.5q-143 0 -262 -116v-713h-198v686zM1208 795q0 163 104.5 269.5t262.5 106.5q152 0 251 -105t99 -265q0 -163 -103 -268t-261 -105q-151 0 -252 104t-101 263z M1370 805q0 -96 58 -158.5t151 -62.5q81 0 134.5 58t53.5 151q0 95 -58.5 158t-147.5 63q-83 0 -137 -58t-54 -151z" />
<glyph horiz-adv-x="2564" d="M150 989l198 10v-114q132 139 305 139q164 0 256 -99t92 -282v-643h-198v625q0 97 -50 150.5t-139 53.5q-143 0 -262 -116v-713h-198v686zM1208 795q0 163 104.5 269.5t262.5 106.5q152 0 251 -105t99 -265q0 -163 -103 -268t-261 -105q-151 0 -252 104t-101 263z M1370 805q0 -96 58 -158.5t151 -62.5q81 0 134.5 58t53.5 151q0 95 -58.5 158t-147.5 63q-83 0 -137 -58t-54 -151zM2066 963q0 90 65.5 149t168.5 59q87 0 190 -28v-178q-113 49 -190 49q-37 0 -57.5 -14t-20.5 -33q0 -20 13.5 -33.5t56.5 -38.5l88 -49q69 -38 101 -88.5 t32 -122.5q0 -93 -65.5 -150t-182.5 -57q-113 0 -194 37v174q92 -57 204 -57q82 0 82 57q0 26 -13.5 43.5t-53.5 38.5l-99 51q-125 64 -125 191z" />
<glyph horiz-adv-x="507" d="M115 1399q0 60 39.5 99.5t99.5 39.5t99.5 -39.5t39.5 -99.5q0 -59 -39.5 -98t-99.5 -39t-99.5 39t-39.5 98zM154 0v993h198v-993h-198z" />
</font>
</defs>
</svg>
