<?xml version="1.0" standalone="no"?>
<!DOCTYPE svg
  PUBLIC '-//W3C//DTD SVG 1.1//EN'
  'http://www.w3.org/Graphics/SVG/1.1/DTD/svg11.dtd'><svg version="1.1" xmlns="http://www.w3.org/2000/svg"><defs><font horiz-adv-x="0" id="font"><font-face ascent="730" bbox="-142 -225 1103 818" cap-height="512" descent="-270" font-family="Unistra A" font-stretch="normal" font-style="normal" font-weight="512" units-per-em="1000" x-height="415" /><missing-glyph d="" horiz-adv-x="200" /><glyph d="" glyph-name=".null" horiz-adv-x="0" unicode="" /><glyph d="" glyph-name="CR" horiz-adv-x="0" unicode="" /><glyph d="" glyph-name="space" horiz-adv-x="158" unicode=" " /><glyph d="" glyph-name="uni00A0" horiz-adv-x="158" unicode=" " /><glyph d="M-41 0 238 512H366L465 0H348L335 79H125L84 0ZM176 175 318 175L283 380Z" glyph-name="A" horiz-adv-x="497" unicode="A" /><glyph d="M19 0 110 512H306Q395 512 440 473Q485 434 475 373Q468 332 445 305Q422 278 379 261Q423 243 440.5 210.5Q458 178 450 131Q439 65 385 32.5Q331 0 233 0ZM353 362Q358 389 342.5 404.5Q327 420 294 420H213L156 93H243Q283 93 305.5 108Q328 123 333 154Q339 189 311.5 203.5Q284 218 211 218L221 299Q293 304 320 316.5Q347 329 353 362Z" glyph-name="B" horiz-adv-x="493" unicode="B" /><glyph d="M34 200 54 312Q71 408 137 465.5Q203 523 301 523Q338 523 372 515.5Q406 508 438 493L393 399Q371 409 346.5 415Q322 421 302 421Q250 421 216.5 392Q183 363 174 312L154 200Q145 147 168 119Q191 91 244 91Q263 91 286 96Q309 101 341 113L373 18Q331 2 298 -4.5Q265 -11 230 -11Q126 -11 71.5 46Q17 103 34 200Z" glyph-name="C" horiz-adv-x="410" unicode="C" /><glyph d="M19 0 109 512H287Q390 512 441 456Q492 400 476 305L458 207Q441 108 375 54Q309 0 203 0ZM338 207 356 305Q365 359 343.5 387Q322 415 271 415H212L156 97H215Q266 97 297.5 125Q329 153 338 207Z" glyph-name="D" horiz-adv-x="494" unicode="D" /><glyph d="M19 0 110 512H442L424 415H212L193 307H381L364 210H176L156 97H375L358 0Z" glyph-name="E" horiz-adv-x="429" unicode="E" /><glyph d="M19 0 110 512H442L424 415H212L190 286H378L361 189H173L139 0Z" glyph-name="F" horiz-adv-x="415" unicode="F" /><glyph d="M34 200 54 312Q71 410 139.5 466.5Q208 523 313 523Q351 523 386.5 515.5Q422 508 452 493L407 399Q380 411 356.5 416Q333 421 309 421Q254 421 217 391Q180 361 171 312L151 200Q142 147 166 118.5Q190 90 244 90Q258 90 273.5 91.5Q289 93 301 95L318 196H248L265 290H442L396 28Q364 9 321.5 -1Q279 -11 230 -11Q126 -11 71.5 46.5Q17 104 34 200Z" glyph-name="G" horiz-adv-x="476" unicode="G" /><glyph d="M371 307 408 512H528L437 0H317L354 207H176L139 0H19L110 512H230L193 307Z" glyph-name="H" horiz-adv-x="530" unicode="H" /><glyph d="M19 0 110 512H230L139 0Z" glyph-name="I" horiz-adv-x="232" unicode="I" /><glyph d="M162 184 220 512H340L285 197Q266 88 215.5 38.5Q165 -11 73 -11Q43 -11 15 -5.5Q-13 0 -39 12L-1 108Q16 102 32 99Q48 96 66 96Q107 96 130.5 118Q154 140 162 184Z" glyph-name="J" horiz-adv-x="333" unicode="J" /><glyph d="M188 282 385 512H531L331 292L447 0H320L244 196L158 101L139 0H19L110 512H230Z" glyph-name="K" horiz-adv-x="471" unicode="K" /><glyph d="M19 0 110 512H230L157 103H357L339 0Z" glyph-name="L" horiz-adv-x="396" unicode="L" /><glyph d="M328 189 537 512H672L582 0H463L521 317L364 74H259L192 319L138 0H19L109 512H241Z" glyph-name="M" horiz-adv-x="674" unicode="M" /><glyph d="M362 176 418 512H536L445 0H319L195 337L137 0H19L110 512H238Z" glyph-name="N" horiz-adv-x="538" unicode="N" /><glyph d="M34 200 54 312Q71 412 135 467.5Q199 523 300 523Q399 523 448.5 464.5Q498 406 482 312L462 200Q444 99 380.5 44Q317 -11 216 -11Q117 -11 67 48Q17 107 34 200ZM342 200 362 312Q371 366 352 394Q333 422 287 422Q241 422 212.5 394Q184 366 174 312L154 200Q144 146 163 118.5Q182 91 229 91Q275 91 303.5 118.5Q332 146 342 200Z" glyph-name="O" horiz-adv-x="499" unicode="O" /><glyph d="M19 0 110 512H305Q395 512 441.5 462.5Q488 413 475 337L467 293Q453 212 400.5 166.5Q348 121 266 121Q244 121 226 123.5Q208 126 190 132L214 221Q227 219 236 218.5Q245 218 254 218Q291 218 316 239Q341 260 348 298L355 337Q362 375 342 395Q322 415 277 415H212L139 0Z" glyph-name="P" horiz-adv-x="482" unicode="P" /><glyph d="M34 200 54 312Q72 413 135.5 468Q199 523 300 523Q399 523 449 464.5Q499 406 482 312L463 204Q454 153 433.5 119Q413 85 373 52L306 117Q321 136 329 155.5Q337 175 343 204L362 312Q371 366 352 394Q333 422 287 422Q241 422 212.5 394Q184 366 174 312L154 200Q145 147 166 118Q187 89 246 77Q306 65 346.5 37.5Q387 10 425 -42L340 -109Q303 -66 274.5 -48Q246 -30 207 -22Q106 -1 62 55Q18 111 34 200Z" glyph-name="Q" horiz-adv-x="499" unicode="Q" /><glyph d="M19 0 110 512H298Q384 512 431 463.5Q478 415 466 345L459 305Q451 262 428.5 227.5Q406 193 372 171L423 0H299L264 143Q243 143 225 145.5Q207 148 194 152L218 241Q230 239 238.5 238.5Q247 238 257 238Q289 238 311.5 257Q334 276 340 310L346 345Q352 378 331.5 396.5Q311 415 270 415H212L139 0Z" glyph-name="R" horiz-adv-x="482" unicode="R" /><glyph d="M77 290Q59 312 53.5 337.5Q48 363 54 395Q66 455 118 489Q170 523 249 523Q289 523 326 514.5Q363 506 411 483L364 389Q327 406 300.5 413Q274 420 247 420Q216 420 197 409.5Q178 399 174 380Q171 364 180.5 352Q190 340 241 306Q285 276 302.5 262Q320 248 332 235Q352 211 358 185.5Q364 160 358 127Q345 58 294 23.5Q243 -11 154 -11Q112 -11 73 -2.5Q34 6 -17 26L25 125Q75 107 104.5 100Q134 93 162 93Q191 93 212 105Q233 117 237 136Q240 154 226 172Q212 190 166 220Q124 248 106.5 262.5Q89 277 77 290Z" glyph-name="S" horiz-adv-x="395" unicode="S" /><glyph d="M76 290Q56 312 50 337.5Q44 363 50 395Q62 455 110 489Q158 523 230 523Q272 523 307.5 511Q343 499 391 462Q427 435 446.5 425Q466 415 487 415Q513 415 529 438Q545 461 559 512H650L633 415H707L690 318H616L586 147Q582 123 589 111Q596 99 615 99Q619 99 623.5 99.5Q628 100 639 101L650 -5Q638 -7 627 -7.5Q616 -8 604 -8Q528 -8 491 36Q454 80 467 152L496 318Q462 318 422.5 333Q383 348 342 376Q304 402 280 411Q256 420 230 420Q205 420 189.5 409.5Q174 399 170 380Q167 366 175.5 355Q184 344 241 306Q285 276 302.5 262Q320 248 332 235Q352 211 358 185.5Q364 160 358 127Q345 58 294 23.5Q243 -11 154 -11Q112 -11 73 -2.5Q34 6 -17 26L28 125Q80 106 107.5 99.5Q135 93 162 93Q191 93 212 105Q233 117 237 136Q240 154 226 172Q212 190 166 220Q120 250 103.5 263.5Q87 277 76 290Z" glyph-name="S_t" horiz-adv-x="704" unicode="" /><glyph d="M47 415 64 512H450L433 415H300L227 0H107L180 415Z" glyph-name="T" horiz-adv-x="406" unicode="T" /><glyph d="M337 205 391 512H511L457 205Q436 91 378.5 40Q321 -11 218 -11Q115 -11 70.5 45Q26 101 45 205L99 512H219L165 205Q154 144 169.5 117Q185 90 230 90Q275 90 300.5 117.5Q326 145 337 205Z" glyph-name="U" horiz-adv-x="502" unicode="U" /><glyph d="M214 119 392 512H519L279 0H114L56 512H175Z" glyph-name="V" horiz-adv-x="468" unicode="V" /><glyph d="M498 107 616 512H735L584 0H419L363 246L215 0H49L78 512H194L166 109L325 374H438Z" glyph-name="W" horiz-adv-x="706" unicode="W" /><glyph d="M251 366 361 512H503L299 263L419 0H288L218 161L97 0H-45L172 268L54 512H186Z" glyph-name="X" horiz-adv-x="448" unicode="X" /><glyph d="M231 279 378 512H510L274 153L247 0H127L154 153L44 512H165Z" glyph-name="Y" horiz-adv-x="446" unicode="Y" /><glyph d="M63 413 80 512H432L415 413L145 99H362L345 0H-13L4 99L274 413Z" glyph-name="Z" horiz-adv-x="407" unicode="Z" /><glyph d="M-69 1 327 512H691L674 415H484L465 307H631L613 210H447L428 97H625L607 0H298L313 80H126L64 0ZM196 173 329 173L369 399Z" glyph-name="AE" horiz-adv-x="678" unicode="Æ" /><glyph d="M304 512 674 512L657 415H467L448 307H614L597 210H431L411 97H608L591 0H228Q124 0 71 56Q18 112 34 203L53 309Q70 407 134.5 459.5Q199 512 304 512ZM240 97 299 97L355 415H296Q245 415 213.5 388Q182 361 173 309L154 203Q145 151 167 124Q189 97 240 97Z" glyph-name="OE" horiz-adv-x="662" unicode="Œ" /><glyph d="M127 280 168 512H288L259 349L338 390L368 315L241 249L216 103H416L398 0H78L109 180L67 158L38 234Z" glyph-name="Lslash" horiz-adv-x="455" unicode="Ł" /><glyph d="M300 523Q315 523 329 521.5Q343 520 356 517L398 589L477 543L437 476Q467 448 478.5 405.5Q490 363 482 312L462 200Q444 99 380.5 44Q317 -11 216 -11Q201 -11 187 -9.5Q173 -8 160 -5L118 -77L39 -31L78 36Q48 65 36.5 107.5Q25 150 34 200L54 312Q71 412 135 467.5Q199 523 300 523ZM342 200 362 312Q371 366 352 394Q333 422 287 422Q241 422 212.5 394Q184 366 174 312L154 200Q144 146 163 118.5Q182 91 229 91Q275 91 303.5 118.5Q332 146 342 200Z" glyph-name="Oslash" horiz-adv-x="499" unicode="Ø" /><glyph d="M72 301 109 512H287Q390 512 441 456Q492 400 476 305L458 207Q441 108 375 54Q309 0 203 0H19L57 216H1L16 301ZM338 207 356 305Q365 359 343.5 387Q322 415 271 415H212L192 301H281L266 216H177L156 97H215Q266 97 297.5 125Q329 153 338 207Z" glyph-name="Eth" horiz-adv-x="494" unicode="Ð" /><glyph d="M19 0 110 512H230L219 454H294Q384 454 431 404Q478 354 464 279L457 235Q442 154 389 108.5Q336 63 255 63Q234 63 217 65.5Q200 68 180 74L204 163Q217 161 225.5 160.5Q234 160 243 160Q280 160 305.5 181Q331 202 338 240L344 279Q351 318 331.5 337.5Q312 357 267 357H202L139 0Z" glyph-name="Thorn" horiz-adv-x="482" unicode="Þ" /><glyph d="M34 177 43 236Q56 323 106 374.5Q156 426 231 426Q270 426 300 411.5Q330 397 343 372L368 415H453L380 0H295L292 47Q264 17 234 3Q204 -11 170 -11Q94 -11 57.5 41Q21 93 34 177ZM291 174 302 243Q308 281 293 303Q278 325 246 325Q211 325 190.5 303.5Q170 282 163 239L153 175Q146 133 159 112Q172 91 206 91Q239 91 262 113.5Q285 136 291 174Z" glyph-name="a" horiz-adv-x="472" unicode="a" /><glyph d="M19 0 124 595H244L170 177Q163 137 177 114.5Q191 92 223 92Q258 92 279 113Q300 134 308 177L321 250Q327 285 316.5 305Q306 325 282 325Q274 325 266 323.5Q258 322 244 318L225 406Q260 419 278.5 422.5Q297 426 314 426Q386 426 419.5 377.5Q453 329 440 250L428 176Q414 88 365 38.5Q316 -11 241 -11Q204 -11 175.5 3.5Q147 18 129 45L104 0Z" glyph-name="b" horiz-adv-x="471" unicode="b" /><glyph d="M32 175 43 240Q58 327 114 376.5Q170 426 257 426Q289 426 322 418Q355 410 380 397L338 308Q313 320 295 324.5Q277 329 260 329Q220 329 195 306Q170 283 163 240L152 175Q144 130 159 108Q174 86 214 86Q230 86 250 91Q270 96 298 107L329 16Q289 0 261.5 -5.5Q234 -11 199 -11Q105 -11 60.5 38Q16 87 32 175Z" glyph-name="c" horiz-adv-x="372" unicode="c" /><glyph d="M289 167 364 595H484L379 0H294L291 47Q263 17 233 3Q203 -11 169 -11Q93 -11 56.5 41Q20 93 33 177L43 239Q57 326 105 376Q153 426 226 426Q247 426 267.5 421Q288 416 305 407L276 321Q269 323 260 324Q251 325 244 325Q209 325 189.5 304.5Q170 284 163 239L152 175Q145 133 158.5 112Q172 91 205 91Q239 91 261 110.5Q283 130 289 167Z" glyph-name="d" horiz-adv-x="471" unicode="d" /><glyph d="M32 175 43 240Q59 331 115.5 378.5Q172 426 264 426Q349 426 392 373.5Q435 321 419 235Q417 221 414 208.5Q411 196 404 165H149Q141 122 157 102.5Q173 83 216 83Q240 83 272.5 90.5Q305 98 324 106L353 19Q318 4 279.5 -3.5Q241 -11 199 -11Q105 -11 60.5 38Q16 87 32 175ZM303 249 304 255Q311 297 298.5 318Q286 339 253 339Q217 339 194.5 317.5Q172 296 165 255L164 249Z" glyph-name="e" horiz-adv-x="445" unicode="e" /><glyph d="M126 415 129 431Q144 513 195 559.5Q246 606 327 606Q343 606 358 604Q373 602 387 599L361 496Q349 498 341 499Q333 500 324 500Q293 500 274 482.5Q255 465 249 431L246 415H340L323 318H229L173 0H53L109 318H35L52 415Z" glyph-name="f" horiz-adv-x="329" unicode="f" /><glyph d="M31 165 43 239Q57 327 106 376.5Q155 426 230 426Q267 426 295.5 411.5Q324 397 342 370L367 415H452L379 0Q361 -104 308 -147.5Q255 -191 157 -191Q120 -191 81.5 -183.5Q43 -176 10 -162L43 -67Q80 -80 104 -85.5Q128 -91 147 -91Q198 -91 224 -71Q250 -51 259 0L301 238Q308 278 294 300.5Q280 323 248 323Q213 323 192 302Q171 281 163 238L150 165Q144 130 154.5 110Q165 90 189 90Q197 90 205 91.5Q213 93 227 97L246 9Q211 -4 192.5 -7.5Q174 -11 157 -11Q85 -11 51.5 37.5Q18 86 31 165Z" glyph-name="g" horiz-adv-x="473" unicode="g" /><glyph d="M19 0 124 595H244L209 395Q232 411 254.5 418.5Q277 426 302 426Q379 426 415.5 373.5Q452 321 437 238L395 0H275L317 238Q325 282 312.5 303Q300 324 267 324Q234 324 211 301.5Q188 279 181 240L139 0Z" glyph-name="h" horiz-adv-x="479" unicode="h" /><glyph d="M19 0 92 415H212L139 0ZM158 463 83 556L184 641L260 548Z" glyph-name="i" horiz-adv-x="231" unicode="i" /><glyph d="M13 -28 92 415H212L133 -30Q120 -108 77.5 -149.5Q35 -191 -31 -191Q-45 -191 -60 -189.5Q-75 -188 -92 -185L-74 -85Q-65 -86 -59 -86.5Q-53 -87 -47 -87Q-19 -87 -5.5 -73Q8 -59 13 -28ZM158 463 83 556L184 641L260 548Z" glyph-name="j" horiz-adv-x="230" unicode="j" /><glyph d="M19 0 124 595H238L178 253L330 415H474L298 234L403 0H276L212 145L147 78L133 0Z" glyph-name="k" horiz-adv-x="448" unicode="k" /><glyph d="M19 0 124 595H244L139 0Z" glyph-name="l" horiz-adv-x="231" unicode="l" /><glyph d="M302 426Q345 426 376 408.5Q407 391 419 360Q446 392 479.5 409Q513 426 551 426Q626 426 658.5 375.5Q691 325 675 238L633 0H513L555 240Q563 284 552.5 304Q542 324 512 324Q480 324 457.5 301.5Q435 279 428 240L386 0H266L308 240Q316 284 305.5 304Q295 324 265 324Q233 324 210.5 301.5Q188 279 181 240L139 0H19L92 415H176L180 368Q208 398 238 412Q268 426 302 426Z" glyph-name="m" horiz-adv-x="717" unicode="m" /><glyph d="M177 415 180 368Q207 397 238 411.5Q269 426 304 426Q380 426 416 373.5Q452 321 437 238L395 0H275L317 238Q325 282 312.5 303Q300 324 267 324Q234 324 211 301.5Q188 279 181 240L139 0H19L92 415Z" glyph-name="n" horiz-adv-x="479" unicode="n" /><glyph d="M32 175 43 240Q59 332 113.5 379Q168 426 259 426Q348 426 391 376.5Q434 327 419 240L408 175Q391 83 336.5 36Q282 -11 192 -11Q103 -11 59.5 39Q16 89 32 175ZM288 172 301 243Q309 288 295.5 309.5Q282 331 247 331Q212 331 191.5 309.5Q171 288 163 243L150 172Q142 126 154.5 105Q167 84 203 84Q239 84 259.5 105Q280 126 288 172Z" glyph-name="o" horiz-adv-x="451" unicode="o" /><glyph d="M177 415 180 368Q208 398 238 412Q268 426 302 426Q378 426 414.5 374Q451 322 438 238L428 176Q414 89 366 39Q318 -11 245 -11Q224 -11 203.5 -6Q183 -1 166 8L195 94Q202 92 211 91Q220 90 227 90Q262 90 281.5 110.5Q301 131 308 176L319 240Q326 282 312.5 303Q299 324 266 324Q232 324 210 304.5Q188 285 182 248L107 -180H-13L92 415Z" glyph-name="p" horiz-adv-x="471" unicode="p" /><glyph d="M31 165 43 239Q57 327 106 376.5Q155 426 230 426Q267 426 295.5 411.5Q324 397 342 370L367 415H452L347 -180H227L301 238Q308 278 294 300.5Q280 323 248 323Q213 323 192 302Q171 281 163 238L150 165Q144 130 154.5 110Q165 90 189 90Q197 90 205 91.5Q213 93 227 97L246 9Q211 -4 192.5 -7.5Q174 -11 157 -11Q85 -11 51.5 37.5Q18 86 31 165Z" glyph-name="q" horiz-adv-x="471" unicode="q" /><glyph d="M176 415 183 348Q211 387 242 405Q273 423 312 423Q325 423 338 421Q351 419 364 415L333 300Q320 303 310.5 304.5Q301 306 290 306Q243 306 212 273Q181 240 170 177L139 0H19L92 415Z" glyph-name="r" horiz-adv-x="335" unicode="r" /><glyph d="M123 184Q75 212 57.5 244Q40 276 49 318Q60 369 106 397.5Q152 426 221 426Q254 426 291.5 417Q329 408 359 392L317 303Q289 316 265 322Q241 328 220 328Q196 328 181.5 321.5Q167 315 166 303Q164 289 176.5 277.5Q189 266 230 242Q282 212 302 179.5Q322 147 316 106Q307 50 260 19.5Q213 -11 140 -11Q99 -11 64.5 -4.5Q30 2 -7 16L26 111Q54 99 84.5 93Q115 87 143 87Q169 87 183 93.5Q197 100 199 113Q201 129 187.5 141.5Q174 154 123 184Z" glyph-name="s" horiz-adv-x="360" unicode="s" /><glyph d="M166 512 257 512L240 415H314L297 318H223L193 147Q188 123 195.5 110.5Q203 98 222 98Q226 98 230.5 98.5Q235 99 246 100L257 -5Q245 -7 234 -7.5Q223 -8 211 -8Q135 -8 98 36Q61 80 74 152L103 318H29L46 415H66Q109 415 130.5 437.5Q152 460 166 512Z" glyph-name="t" horiz-adv-x="311" unicode="t" /><glyph d="M298 175 340 415H460L387 0H302L299 47Q272 18 241 3.5Q210 -11 175 -11Q99 -11 63 41.5Q27 94 42 177L84 415H204L162 177Q154 133 166.5 112Q179 91 212 91Q245 91 268 113.5Q291 136 298 175Z" glyph-name="u" horiz-adv-x="479" unicode="u" /><glyph d="M203 117 347 415H476L266 0H107L43 415H162Z" glyph-name="v" horiz-adv-x="446" unicode="v" /><glyph d="M485 111 601 415H728L561 0H393L371 267L255 0H87L66 415H183L193 111L330 415H454Z" glyph-name="w" horiz-adv-x="721" unicode="w" /><glyph d="M242 302 335 415H480L300 209L415 0H280L216 131L116 0H-30L156 221L52 415H188Z" glyph-name="x" horiz-adv-x="458" unicode="x" /><glyph d="M209 141 350 415H483L215 -72Q179 -138 142 -164.5Q105 -191 54 -191Q41 -191 27.5 -190Q14 -189 -1 -186L17 -85Q27 -86 32.5 -86.5Q38 -87 43 -87Q67 -87 82 -76.5Q97 -66 108 -43L126 -5L41 415H164Z" glyph-name="y" horiz-adv-x="451" unicode="y" /><glyph d="M55 317 72 415H389L372 317L154 98H338L321 0H-6L11 98L228 317Z" glyph-name="z" horiz-adv-x="400" unicode="z" /><glyph d="M223 426Q260 426 289.5 412.5Q319 399 338 374Q358 398 393 412Q428 426 470 426Q550 426 593.5 375Q637 324 623 242Q617 209 614.5 196Q612 183 609 172H364Q356 126 371 105Q386 84 428 84Q448 84 475.5 90Q503 96 531 107L560 20Q519 2 487.5 -4.5Q456 -11 414 -11Q367 -11 337 4Q307 19 287 52Q265 22 226.5 5.5Q188 -11 140 -11Q73 -11 33.5 26Q-6 63 4 122Q17 193 74.5 222Q132 251 261 251L265 272Q271 303 256.5 317Q242 331 206 331Q183 331 157 324.5Q131 318 108 306L73 390Q121 410 154.5 418Q188 426 223 426ZM161 76Q192 76 214 96.5Q236 117 243 150L248 176Q176 175 147.5 163Q119 151 114 121Q111 102 124.5 89Q138 76 161 76ZM508 249 511 266Q517 299 503 317.5Q489 336 458 336Q426 336 405.5 317.5Q385 299 379 266L376 249Z" glyph-name="ae" horiz-adv-x="647" unicode="æ" /><glyph d="M244 426Q282 426 313 412.5Q344 399 362 375Q385 398 422.5 412Q460 426 502 426Q580 426 622.5 375Q665 324 651 242Q647 216 643.5 198.5Q640 181 636 167H391Q383 120 397.5 102Q412 84 458 84Q479 84 505 90Q531 96 559 107L588 20Q547 2 515.5 -4.5Q484 -11 443 -11Q399 -11 367 1.5Q335 14 318 37Q294 13 260.5 1Q227 -11 186 -11Q102 -11 59.5 39.5Q17 90 32 175L43 240Q59 328 112 377Q165 426 244 426ZM276 172 289 246Q296 289 284.5 309.5Q273 330 241 330Q210 330 191 309Q172 288 164 246L150 169Q142 126 154 105.5Q166 85 199 85Q232 85 250 105.5Q268 126 276 172ZM536 249 539 266Q545 299 531 317.5Q517 336 486 336Q454 336 433.5 317.5Q413 299 407 266L404 249Z" glyph-name="oe" horiz-adv-x="676" unicode="œ" /><glyph d="M64 280 120 595H240L196 348L244 373L275 307L180 257L135 0H15L48 188L0 163L-31 230Z" glyph-name="lslash" horiz-adv-x="230" unicode="ł" /><glyph d="M256 426Q269 426 281.5 424.5Q294 423 305 420L346 490L425 444L384 375Q408 350 416.5 315.5Q425 281 419 240L408 175Q391 82 337.5 35.5Q284 -11 195 -11Q182 -11 170 -9.5Q158 -8 147 -5L107 -75L28 -29L68 39Q44 65 34.5 100Q25 135 32 175L43 240Q59 332 112.5 379Q166 426 256 426ZM288 172 301 243Q309 288 295.5 309.5Q282 331 247 331Q212 331 191.5 309.5Q171 288 163 243L150 172Q142 126 154.5 105Q167 84 203 84Q239 84 259.5 105Q280 126 288 172Z" glyph-name="oslash" horiz-adv-x="451" unicode="ø" /><glyph d="M211 533 267 625Q296 608 319 590.5Q342 573 360 555L437 595L468 529L404 496Q428 452 433.5 397.5Q439 343 427 276L409 169Q393 82 337.5 35.5Q282 -11 192 -11Q104 -11 60.5 39.5Q17 90 31 169L36 196Q50 275 97.5 324.5Q145 374 215 374Q235 374 253 370Q271 366 291 357L265 269Q258 271 249 272Q240 273 233 273Q199 273 180.5 254.5Q162 236 156 196L150 167Q143 126 156 106.5Q169 87 203 87Q238 87 260 107.5Q282 128 288 167L308 280Q318 343 316.5 379.5Q315 416 302 443L227 404L195 470L256 502Q245 511 234 519Q223 527 211 533Z" glyph-name="eth" horiz-adv-x="466" unicode="ð" /><glyph d="M-13 -180 124 595H244L209 394Q230 410 253 418Q276 426 302 426Q378 426 414.5 374Q451 322 438 238L428 176Q414 89 366 39Q318 -11 245 -11Q224 -11 203.5 -6Q183 -1 166 8L195 94Q202 92 211 91Q220 90 227 90Q262 90 281.5 110.5Q301 131 308 176L319 240Q326 282 312.5 303Q299 324 266 324Q236 324 215 307.5Q194 291 185 261L107 -180Z" glyph-name="thorn" horiz-adv-x="471" unicode="þ" /><glyph d="M194 512 197 465Q225 494 260.5 508.5Q296 523 338 523Q411 523 448.5 478.5Q486 434 474 369Q468 335 443 307.5Q418 280 379 266Q419 248 437.5 213Q456 178 449 133Q439 68 389 28.5Q339 -11 264 -11Q240 -11 214 -5.5Q188 0 166 10L195 96Q211 92 223 90.5Q235 89 246 89Q285 89 307.5 105Q330 121 335 151Q341 188 310.5 206Q280 224 212 224L222 305Q296 310 325.5 325Q355 340 360 374Q364 401 349.5 416.5Q335 432 305 432Q265 432 235.5 406Q206 380 197 332L107 -180H-13L109 512Z" glyph-name="germandbls" horiz-adv-x="493" unicode="ß" /><glyph d="M19 0 92 415H212L139 0Z" glyph-name="dotlessi" horiz-adv-x="231" unicode="ı" /><glyph d="M13 -28 92 415H212L133 -30Q120 -108 77.5 -149.5Q35 -191 -31 -191Q-45 -191 -60 -189.5Q-75 -188 -92 -185L-74 -85Q-65 -86 -59 -86.5Q-53 -87 -47 -87Q-19 -87 -5.5 -73Q8 -59 13 -28Z" glyph-name="dotlessj" horiz-adv-x="230" unicode="ȷ" /><glyph d="M126 415 129 431Q144 513 195 559.5Q246 606 327 606Q343 606 358 604Q373 602 387 599L361 496Q349 498 341 499Q333 500 324 500Q293 500 274 482.5Q255 465 249 431L246 415H340L323 318H229L173 0H53L109 318H35L52 415ZM348 0 421 415H541L468 0ZM487 463 412 556L513 641L589 548Z" glyph-name="fi" horiz-adv-x="560" unicode="ﬁ" /><glyph d="M126 415 129 431Q144 513 195 559.5Q246 606 327 606Q343 606 358 604Q373 602 387 599L361 496Q349 498 341 499Q333 500 324 500Q293 500 274 482.5Q255 465 249 431L246 415H340L323 318H229L173 0H53L109 318H35L52 415ZM348 0 453 595H573L468 0Z" glyph-name="fl" horiz-adv-x="560" unicode="ﬂ" /><glyph d="M34 200 54 312Q72 413 135.5 468Q199 523 300 523Q399 523 449 464.5Q499 406 482 312L463 204Q454 153 433.5 119Q413 85 373 52L306 117Q321 136 329 155.5Q337 175 343 204L362 312Q371 366 352 394Q333 422 287 422Q241 422 212.5 394Q184 366 174 312L154 200Q145 147 166 118Q187 89 246 77Q292 68 330 46.5Q368 25 394 -6Q425 -43 464 -58.5Q503 -74 586 -81L572 -184Q469 -174 422 -157.5Q375 -141 338 -103Q300 -63 271.5 -46Q243 -29 207 -22Q106 -1 62 55Q18 111 34 200ZM806 175 848 415H968L895 0H810L807 47Q779 17 749 3Q719 -11 685 -11Q608 -11 571.5 41.5Q535 94 550 177L592 415H712L670 177Q662 133 674.5 112Q687 91 720 91Q753 91 776 113.5Q799 136 806 175Z" glyph-name="Q_u" horiz-adv-x="987" unicode="" /><glyph d="M-41 0 238 512H366L465 0H348L335 79H125L84 0ZM176 175 318 175L283 380ZM266 562 223 639L376 735L424 648Z" glyph-name="Aacute" horiz-adv-x="497" unicode="Á" /><glyph d="M-41 0 238 512H366L465 0H348L335 79H125L84 0ZM176 175 318 175L283 380ZM212 574 179 650L328 730L452 648L405 574L318 624Z" glyph-name="Acircumflex" horiz-adv-x="497" unicode="Â" /><glyph d="M-41 0 238 512H366L465 0H348L335 79H125L84 0ZM176 175 318 175L283 380ZM400 569 330 656L424 735L495 648ZM202 569 132 656L226 735L297 648Z" glyph-name="Adieresis" horiz-adv-x="497" unicode="Ä" /><glyph d="M-41 0 238 512H366L465 0H348L335 79H125L84 0ZM176 175 318 175L283 380ZM358 562 218 656L278 742L411 636Z" glyph-name="Agrave" horiz-adv-x="497" unicode="À" /><glyph d="M-41 0 238 512H366L465 0H348L335 79H125L84 0ZM176 175 318 175L283 380ZM209 671 211 686Q220 735 255.5 764Q291 793 345 793Q398 793 427 762Q456 731 448 686L446 671Q437 622 401 593Q365 564 311 564Q258 564 229.5 595Q201 626 209 671ZM367 672 369 684Q373 707 366 717.5Q359 728 338 728Q317 728 305.5 717.5Q294 707 290 684L288 672Q284 648 291.5 637.5Q299 627 320 627Q341 627 352 637.5Q363 648 367 672Z" glyph-name="Aring" horiz-adv-x="497" unicode="Å" /><glyph d="M-41 0 238 512H366L465 0H348L335 79H125L84 0ZM176 175 318 175L283 380ZM358 684Q368 684 374 691.5Q380 699 383 716H462Q455 657 430.5 623.5Q406 590 369 590Q358 590 346.5 593.5Q335 597 315 607Q299 615 292 617.5Q285 620 279 620Q269 620 263 612.5Q257 605 254 588H175Q182 647 206.5 680.5Q231 714 268 714Q279 714 290.5 710.5Q302 707 322 697Q338 689 345 686.5Q352 684 358 684Z" glyph-name="Atilde" horiz-adv-x="497" unicode="Ã" /><glyph d="M-41 0 238 512H366L465 0H348L335 79H125L84 0ZM176 175 318 175L283 380ZM328 671Q346 671 358 683.5Q370 696 376 721H457Q447 657 410 620.5Q373 584 318 584Q264 584 235 622.5Q206 661 216 721H298Q295 696 302.5 683.5Q310 671 328 671Z" glyph-name="Abreve" horiz-adv-x="497" unicode="Ă" /><glyph d="M-41 0 238 512H366L465 0H348L335 79H125L84 0ZM176 175 318 175L283 380ZM209 596 225 686H438L422 596Z" glyph-name="Amacron" horiz-adv-x="497" unicode="Ā" /><glyph d="M176 175 318 175L283 380ZM310 -98Q314 -73 333 -47Q352 -21 380 0H348L335 79H125L84 0H-41L238 512H366L465 0Q434 -28 421.5 -45Q409 -62 406 -76Q404 -91 412.5 -98Q421 -105 442 -105L427 -191Q362 -191 332 -167Q302 -143 310 -98Z" glyph-name="Aogonek" horiz-adv-x="497" unicode="Ą" /><glyph d="M34 200 54 312Q71 408 137 465.5Q203 523 301 523Q338 523 372 515.5Q406 508 438 493L393 399Q371 409 346.5 415Q322 421 302 421Q250 421 216.5 392Q183 363 174 312L154 200Q145 147 168 119Q191 91 244 91Q263 91 286 96Q309 101 341 113L373 18Q331 2 298 -4.5Q265 -11 230 -11Q126 -11 71.5 46Q17 103 34 200ZM178 -225 100 -187L169 -41L257 -83Z" glyph-name="Ccedilla" horiz-adv-x="410" unicode="Ç" /><glyph d="M34 200 54 312Q71 408 137 465.5Q203 523 301 523Q338 523 372 515.5Q406 508 438 493L393 399Q371 409 346.5 415Q322 421 302 421Q250 421 216.5 392Q183 363 174 312L154 200Q145 147 168 119Q191 91 244 91Q263 91 286 96Q309 101 341 113L373 18Q331 2 298 -4.5Q265 -11 230 -11Q126 -11 71.5 46Q17 103 34 200ZM260 562 217 639L370 735L418 648Z" glyph-name="Cacute" horiz-adv-x="410" unicode="Ć" /><glyph d="M34 200 54 312Q71 408 137 465.5Q203 523 301 523Q338 523 372 515.5Q406 508 438 493L393 399Q371 409 346.5 415Q322 421 302 421Q250 421 216.5 392Q183 363 174 312L154 200Q145 147 168 119Q191 91 244 91Q263 91 286 96Q309 101 341 113L373 18Q331 2 298 -4.5Q265 -11 230 -11Q126 -11 71.5 46Q17 103 34 200ZM230 730 318 680L423 730L460 656L308 574L185 656Z" glyph-name="Ccaron" horiz-adv-x="410" unicode="Č" /><glyph d="M34 200 54 312Q71 408 137 465.5Q203 523 301 523Q338 523 372 515.5Q406 508 438 493L393 399Q371 409 346.5 415Q322 421 302 421Q250 421 216.5 392Q183 363 174 312L154 200Q145 147 168 119Q191 91 244 91Q263 91 286 96Q309 101 341 113L373 18Q331 2 298 -4.5Q265 -11 230 -11Q126 -11 71.5 46Q17 103 34 200ZM200 574 167 650L316 730L440 648L393 574L306 624Z" glyph-name="Ccircumflex" horiz-adv-x="410" unicode="Ĉ" /><glyph d="M34 200 54 312Q71 408 137 465.5Q203 523 301 523Q338 523 372 515.5Q406 508 438 493L393 399Q371 409 346.5 415Q322 421 302 421Q250 421 216.5 392Q183 363 174 312L154 200Q145 147 168 119Q191 91 244 91Q263 91 286 96Q309 101 341 113L373 18Q331 2 298 -4.5Q265 -11 230 -11Q126 -11 71.5 46Q17 103 34 200ZM301 560 226 653L327 738L403 645Z" glyph-name="Cdotaccent" horiz-adv-x="410" unicode="Ċ" /><glyph d="M19 0 109 512H287Q390 512 441 456Q492 400 476 305L458 207Q441 108 375 54Q309 0 203 0ZM338 207 356 305Q365 359 343.5 387Q322 415 271 415H212L156 97H215Q266 97 297.5 125Q329 153 338 207ZM216 730 304 680L409 730L446 656L294 574L171 656Z" glyph-name="Dcaron" horiz-adv-x="494" unicode="Ď" /><glyph d="M72 301 109 512H287Q390 512 441 456Q492 400 476 305L458 207Q441 108 375 54Q309 0 203 0H19L57 216H1L16 301ZM338 207 356 305Q365 359 343.5 387Q322 415 271 415H212L192 301H281L266 216H177L156 97H215Q266 97 297.5 125Q329 153 338 207Z" glyph-name="Dcroat" horiz-adv-x="494" unicode="Đ" /><glyph d="M19 0 110 512H442L424 415H212L193 307H381L364 210H176L156 97H375L358 0ZM243 562 200 639L353 735L401 648Z" glyph-name="Eacute" horiz-adv-x="429" unicode="É" /><glyph d="M19 0 110 512H442L424 415H212L193 307H381L364 210H176L156 97H375L358 0ZM189 574 156 650L305 730L429 648L382 574L295 624Z" glyph-name="Ecircumflex" horiz-adv-x="429" unicode="Ê" /><glyph d="M19 0 110 512H442L424 415H212L193 307H381L364 210H176L156 97H375L358 0ZM377 569 307 656L401 735L472 648ZM179 569 109 656L203 735L274 648Z" glyph-name="Edieresis" horiz-adv-x="429" unicode="Ë" /><glyph d="M19 0 110 512H442L424 415H212L193 307H381L364 210H176L156 97H375L358 0ZM335 562 195 656L255 742L388 636Z" glyph-name="Egrave" horiz-adv-x="429" unicode="È" /><glyph d="M19 0 110 512H442L424 415H212L193 307H381L364 210H176L156 97H375L358 0ZM313 671Q331 671 343 683.5Q355 696 361 721H442Q432 657 395 620.5Q358 584 303 584Q249 584 220 622.5Q191 661 201 721H283Q280 696 287.5 683.5Q295 671 313 671Z" glyph-name="Ebreve" horiz-adv-x="429" unicode="Ĕ" /><glyph d="M19 0 110 512H442L424 415H212L193 307H381L364 210H176L156 97H375L358 0ZM213 730 301 680L406 730L443 656L291 574L168 656Z" glyph-name="Ecaron" horiz-adv-x="429" unicode="Ě" /><glyph d="M19 0 110 512H442L424 415H212L193 307H381L364 210H176L156 97H375L358 0ZM284 560 209 653L310 738L386 645Z" glyph-name="Edotaccent" horiz-adv-x="429" unicode="Ė" /><glyph d="M19 0 110 512H442L424 415H212L193 307H381L364 210H176L156 97H375L358 0ZM186 596 202 686H415L399 596Z" glyph-name="Emacron" horiz-adv-x="429" unicode="Ē" /><glyph d="M203 -98Q207 -73 226 -47Q245 -21 273 0H19L110 512H442L424 415H212L193 307H381L364 210H176L156 97H375L358 0Q327 -28 314.5 -45Q302 -62 299 -76Q297 -91 305.5 -98Q314 -105 335 -105L320 -191Q255 -191 225 -167Q195 -143 203 -98Z" glyph-name="Eogonek" horiz-adv-x="429" unicode="Ę" /><glyph d="M34 200 54 312Q71 410 139.5 466.5Q208 523 313 523Q351 523 386.5 515.5Q422 508 452 493L407 399Q380 411 356.5 416Q333 421 309 421Q254 421 217 391Q180 361 171 312L151 200Q142 147 166 118.5Q190 90 244 90Q258 90 273.5 91.5Q289 93 301 95L318 196H248L265 290H442L396 28Q364 9 321.5 -1Q279 -11 230 -11Q126 -11 71.5 46.5Q17 104 34 200ZM334 671Q352 671 364 683.5Q376 696 382 721H463Q453 657 416 620.5Q379 584 324 584Q270 584 241 622.5Q212 661 222 721H304Q301 696 308.5 683.5Q316 671 334 671Z" glyph-name="Gbreve" horiz-adv-x="476" unicode="Ğ" /><glyph d="M34 200 54 312Q71 410 139.5 466.5Q208 523 313 523Q351 523 386.5 515.5Q422 508 452 493L407 399Q380 411 356.5 416Q333 421 309 421Q254 421 217 391Q180 361 171 312L151 200Q142 147 166 118.5Q190 90 244 90Q258 90 273.5 91.5Q289 93 301 95L318 196H248L265 290H442L396 28Q364 9 321.5 -1Q279 -11 230 -11Q126 -11 71.5 46.5Q17 104 34 200ZM190 574 157 650L306 730L430 648L383 574L296 624Z" glyph-name="Gcircumflex" horiz-adv-x="475" unicode="Ĝ" /><glyph d="M34 200 54 312Q71 410 139.5 466.5Q208 523 313 523Q351 523 386.5 515.5Q422 508 452 493L407 399Q380 411 356.5 416Q333 421 309 421Q254 421 217 391Q180 361 171 312L151 200Q142 147 166 118.5Q190 90 244 90Q258 90 273.5 91.5Q289 93 301 95L318 196H248L265 290H442L396 28Q364 9 321.5 -1Q279 -11 230 -11Q126 -11 71.5 46.5Q17 104 34 200ZM193 -225 115 -187L184 -41L272 -83Z" glyph-name="Gcommaaccent" horiz-adv-x="476" unicode="Ģ" /><glyph d="M34 200 54 312Q71 410 139.5 466.5Q208 523 313 523Q351 523 386.5 515.5Q422 508 452 493L407 399Q380 411 356.5 416Q333 421 309 421Q254 421 217 391Q180 361 171 312L151 200Q142 147 166 118.5Q190 90 244 90Q258 90 273.5 91.5Q289 93 301 95L318 196H248L265 290H442L396 28Q364 9 321.5 -1Q279 -11 230 -11Q126 -11 71.5 46.5Q17 104 34 200ZM313 560 238 653L339 738L415 645Z" glyph-name="Gdotaccent" horiz-adv-x="476" unicode="Ġ" /><glyph d="M421 450 432 512H552L541 450H598L583 365H526L462 0H342L378 207H200L164 0H44L108 365H51L66 450H123L134 512H254L243 450ZM218 307 396 307L406 365H228Z" glyph-name="Hbar" horiz-adv-x="578" unicode="Ħ" /><glyph d="M371 307 408 512H528L437 0H317L354 207H176L139 0H19L110 512H230L193 307ZM232 574 199 650L348 730L472 648L425 574L338 624Z" glyph-name="Hcircumflex" horiz-adv-x="530" unicode="Ĥ" /><glyph d="M19 0 110 512H230L139 0ZM134 562 91 639L244 735L292 648Z" glyph-name="Iacute" horiz-adv-x="232" unicode="Í" /><glyph d="M19 0 110 512H230L139 0ZM80 574 47 650L196 730L320 648L273 574L186 624Z" glyph-name="Icircumflex" horiz-adv-x="232" unicode="Î" /><glyph d="M19 0 110 512H230L139 0ZM268 569 198 656L292 735L363 648ZM70 569 0 656L94 735L165 648Z" glyph-name="Idieresis" horiz-adv-x="232" unicode="Ï" /><glyph d="M19 0 110 512H230L139 0ZM226 562 86 656L146 742L279 636Z" glyph-name="Igrave" horiz-adv-x="232" unicode="Ì" /><glyph d="M19 0 110 512H230L139 0ZM192 671Q210 671 222 683.5Q234 696 240 721H321Q311 657 274 620.5Q237 584 182 584Q128 584 99 622.5Q70 661 80 721H162Q159 696 166.5 683.5Q174 671 192 671Z" glyph-name="Ibreve" horiz-adv-x="232" unicode="Ĭ" /><glyph d="M19 0 110 512H230L139 0ZM175 560 100 653L201 738L277 645Z" glyph-name="Idotaccent" horiz-adv-x="232" unicode="İ" /><glyph d="M19 0 110 512H230L139 0ZM77 596 93 686H306L290 596Z" glyph-name="Imacron" horiz-adv-x="232" unicode="Ī" /><glyph d="M-16 -98Q-12 -73 7 -47Q26 -21 54 0H19L110 512H230L139 0Q108 -28 95.5 -45Q83 -62 80 -76Q78 -91 86.5 -98Q95 -105 116 -105L101 -191Q36 -191 6 -167Q-24 -143 -16 -98Z" glyph-name="Iogonek" horiz-adv-x="232" unicode="Į" /><glyph d="M19 0 110 512H230L139 0ZM231 681Q241 681 247 688.5Q253 696 256 713H335Q328 654 303.5 620.5Q279 587 242 587Q231 587 219.5 590.5Q208 594 188 604Q172 612 165 614.5Q158 617 152 617Q142 617 136 609.5Q130 602 127 585H48Q55 644 79.5 677.5Q104 711 141 711Q152 711 163.5 707.5Q175 704 195 694Q211 686 218 683.5Q225 681 231 681Z" glyph-name="Itilde" horiz-adv-x="232" unicode="Ĩ" /><glyph d="M162 184 220 512H340L285 197Q266 88 215.5 38.5Q165 -11 73 -11Q43 -11 15 -5.5Q-13 0 -39 12L-1 108Q16 102 32 99Q48 96 66 96Q107 96 130.5 118Q154 140 162 184ZM195 574 162 650L311 730L435 648L388 574L301 624Z" glyph-name="Jcircumflex" horiz-adv-x="334" unicode="Ĵ" /><glyph d="M19 0 110 512H230L139 0ZM394 184 452 512H572L517 197Q498 88 447.5 38.5Q397 -11 305 -11Q275 -11 247 -5.5Q219 0 193 12L231 108Q248 102 264 99Q280 96 298 96Q339 96 362.5 118Q386 140 394 184Z" glyph-name="IJ" horiz-adv-x="565" unicode="Ĳ" /><glyph d="M188 282 385 512H531L331 292L447 0H320L244 196L158 101L139 0H19L110 512H230ZM185 -225 107 -187L176 -41L264 -83Z" glyph-name="Kcommaaccent" horiz-adv-x="471" unicode="Ķ" /><glyph d="M19 0 110 512H230L157 103H357L339 0ZM134 562 91 639L244 735L292 648Z" glyph-name="Lacute" horiz-adv-x="396" unicode="Ĺ" /><glyph d="M19 0 110 512H230L157 103H357L339 0ZM338 356 260 395Q288 456 305.5 495.5Q323 535 330 553L418 517Q410 498 390 458Q370 418 338 356Z" glyph-name="Lcaron" horiz-adv-x="396" unicode="Ľ" /><glyph d="M19 0 110 512H230L157 103H357L339 0ZM154 -225 76 -187L145 -41L233 -83Z" glyph-name="Lcommaaccent" horiz-adv-x="396" unicode="Ļ" /><glyph d="M20 0 110 512H230L158 103H358L340 0ZM291 174 223 258L315 334L383 250Z" glyph-name="Ldot" horiz-adv-x="397" unicode="Ŀ" /><glyph d="M354 189 408 512H528L433 -30Q418 -110 373 -150.5Q328 -191 253 -191Q240 -191 226.5 -190Q213 -189 198 -186L226 -85Q235 -86 241 -86.5Q247 -87 253 -87Q282 -87 297.5 -72.5Q313 -58 318 -28L320 -15L191 331L136 0H19L109 512H237Z" glyph-name="Eng" horiz-adv-x="530" unicode="Ŋ" /><glyph d="M362 176 418 512H536L445 0H319L195 337L137 0H19L110 512H238ZM388 684Q398 684 404 691.5Q410 699 413 716H492Q485 657 460.5 623.5Q436 590 399 590Q388 590 376.5 593.5Q365 597 345 607Q329 615 322 617.5Q315 620 309 620Q299 620 293 612.5Q287 605 284 588H205Q212 647 236.5 680.5Q261 714 298 714Q309 714 320.5 710.5Q332 707 352 697Q368 689 375 686.5Q382 684 388 684Z" glyph-name="Ntilde" horiz-adv-x="538" unicode="Ñ" /><glyph d="M362 176 418 512H536L445 0H319L195 337L137 0H19L110 512H238ZM296 562 253 639L406 735L454 648Z" glyph-name="Nacute" horiz-adv-x="538" unicode="Ń" /><glyph d="M362 176 418 512H536L445 0H319L195 337L137 0H19L110 512H238ZM266 730 354 680L459 730L496 656L344 574L221 656Z" glyph-name="Ncaron" horiz-adv-x="538" unicode="Ň" /><glyph d="M362 176 418 512H536L445 0H319L195 337L137 0H19L110 512H238ZM194 -225 116 -187L185 -41L273 -83Z" glyph-name="Ncommaaccent" horiz-adv-x="538" unicode="Ņ" /><glyph d="M34 200 54 312Q71 412 135 467.5Q199 523 300 523Q399 523 448.5 464.5Q498 406 482 312L462 200Q444 99 380.5 44Q317 -11 216 -11Q117 -11 67 48Q17 107 34 200ZM342 200 362 312Q371 366 352 394Q333 422 287 422Q241 422 212.5 394Q184 366 174 312L154 200Q144 146 163 118.5Q182 91 229 91Q275 91 303.5 118.5Q332 146 342 200ZM268 558 225 635L378 731L426 644Z" glyph-name="Oacute" horiz-adv-x="499" unicode="Ó" /><glyph d="M34 200 54 312Q71 412 135 467.5Q199 523 300 523Q399 523 448.5 464.5Q498 406 482 312L462 200Q444 99 380.5 44Q317 -11 216 -11Q117 -11 67 48Q17 107 34 200ZM342 200 362 312Q371 366 352 394Q333 422 287 422Q241 422 212.5 394Q184 366 174 312L154 200Q144 146 163 118.5Q182 91 229 91Q275 91 303.5 118.5Q332 146 342 200ZM214 570 181 646L330 726L454 644L407 570L320 620Z" glyph-name="Ocircumflex" horiz-adv-x="499" unicode="Ô" /><glyph d="M34 200 54 312Q71 412 135 467.5Q199 523 300 523Q399 523 448.5 464.5Q498 406 482 312L462 200Q444 99 380.5 44Q317 -11 216 -11Q117 -11 67 48Q17 107 34 200ZM342 200 362 312Q371 366 352 394Q333 422 287 422Q241 422 212.5 394Q184 366 174 312L154 200Q144 146 163 118.5Q182 91 229 91Q275 91 303.5 118.5Q332 146 342 200ZM402 565 332 652L426 731L497 644ZM204 565 134 652L228 731L299 644Z" glyph-name="Odieresis" horiz-adv-x="499" unicode="Ö" /><glyph d="M34 200 54 312Q71 412 135 467.5Q199 523 300 523Q399 523 448.5 464.5Q498 406 482 312L462 200Q444 99 380.5 44Q317 -11 216 -11Q117 -11 67 48Q17 107 34 200ZM342 200 362 312Q371 366 352 394Q333 422 287 422Q241 422 212.5 394Q184 366 174 312L154 200Q144 146 163 118.5Q182 91 229 91Q275 91 303.5 118.5Q332 146 342 200ZM360 558 220 652L280 738L413 632Z" glyph-name="Ograve" horiz-adv-x="499" unicode="Ò" /><glyph d="M34 200 54 312Q71 412 135 467.5Q199 523 300 523Q399 523 448.5 464.5Q498 406 482 312L462 200Q444 99 380.5 44Q317 -11 216 -11Q117 -11 67 48Q17 107 34 200ZM342 200 362 312Q371 366 352 394Q333 422 287 422Q241 422 212.5 394Q184 366 174 312L154 200Q144 146 163 118.5Q182 91 229 91Q275 91 303.5 118.5Q332 146 342 200ZM360 680Q370 680 376 687.5Q382 695 385 712H464Q457 653 432.5 619.5Q408 586 371 586Q360 586 348.5 589.5Q337 593 317 603Q301 611 294 613.5Q287 616 281 616Q271 616 265 608.5Q259 601 256 584H177Q184 643 208.5 676.5Q233 710 270 710Q281 710 292.5 706.5Q304 703 324 693Q340 685 347 682.5Q354 680 360 680Z" glyph-name="Otilde" horiz-adv-x="499" unicode="Õ" /><glyph d="M34 200 54 312Q71 412 135 467.5Q199 523 300 523Q399 523 448.5 464.5Q498 406 482 312L462 200Q444 99 380.5 44Q317 -11 216 -11Q117 -11 67 48Q17 107 34 200ZM342 200 362 312Q371 366 352 394Q333 422 287 422Q241 422 212.5 394Q184 366 174 312L154 200Q144 146 163 118.5Q182 91 229 91Q275 91 303.5 118.5Q332 146 342 200ZM324 671Q342 671 354 683.5Q366 696 372 721H453Q443 657 406 620.5Q369 584 314 584Q260 584 231 622.5Q202 661 212 721H294Q291 696 298.5 683.5Q306 671 324 671Z" glyph-name="Obreve" horiz-adv-x="499" unicode="Ŏ" /><glyph d="M34 200 54 312Q71 412 135 467.5Q199 523 300 523Q399 523 448.5 464.5Q498 406 482 312L462 200Q444 99 380.5 44Q317 -11 216 -11Q117 -11 67 48Q17 107 34 200ZM342 200 362 312Q371 366 352 394Q333 422 287 422Q241 422 212.5 394Q184 366 174 312L154 200Q144 146 163 118.5Q182 91 229 91Q275 91 303.5 118.5Q332 146 342 200ZM378 559 326 620L447 734L507 667ZM205 559 154 621L274 734L334 668Z" glyph-name="Ohungarumlaut" horiz-adv-x="499" unicode="Ő" /><glyph d="M34 200 54 312Q71 412 135 467.5Q199 523 300 523Q399 523 448.5 464.5Q498 406 482 312L462 200Q444 99 380.5 44Q317 -11 216 -11Q117 -11 67 48Q17 107 34 200ZM342 200 362 312Q371 366 352 394Q333 422 287 422Q241 422 212.5 394Q184 366 174 312L154 200Q144 146 163 118.5Q182 91 229 91Q275 91 303.5 118.5Q332 146 342 200ZM211 592 227 682H440L424 592Z" glyph-name="Omacron" horiz-adv-x="499" unicode="Ō" /><glyph d="M19 0 110 512H298Q384 512 431 463.5Q478 415 466 345L459 305Q451 262 428.5 227.5Q406 193 372 171L423 0H299L264 143Q243 143 225 145.5Q207 148 194 152L218 241Q230 239 238.5 238.5Q247 238 257 238Q289 238 311.5 257Q334 276 340 310L346 345Q352 378 331.5 396.5Q311 415 270 415H212L139 0ZM248 562 205 639L358 735L406 648Z" glyph-name="Racute" horiz-adv-x="482" unicode="Ŕ" /><glyph d="M19 0 110 512H298Q384 512 431 463.5Q478 415 466 345L459 305Q451 262 428.5 227.5Q406 193 372 171L423 0H299L264 143Q243 143 225 145.5Q207 148 194 152L218 241Q230 239 238.5 238.5Q247 238 257 238Q289 238 311.5 257Q334 276 340 310L346 345Q352 378 331.5 396.5Q311 415 270 415H212L139 0ZM218 730 306 680L411 730L448 656L296 574L173 656Z" glyph-name="Rcaron" horiz-adv-x="482" unicode="Ř" /><glyph d="M19 0 110 512H298Q384 512 431 463.5Q478 415 466 345L459 305Q451 262 428.5 227.5Q406 193 372 171L423 0H299L264 143Q243 143 225 145.5Q207 148 194 152L218 241Q230 239 238.5 238.5Q247 238 257 238Q289 238 311.5 257Q334 276 340 310L346 345Q352 378 331.5 396.5Q311 415 270 415H212L139 0ZM185 -225 107 -187L176 -41L264 -83Z" glyph-name="Rcommaaccent" horiz-adv-x="482" unicode="Ŗ" /><glyph d="M77 290Q59 312 53.5 337.5Q48 363 54 395Q66 455 118 489Q170 523 249 523Q289 523 326 514.5Q363 506 411 483L364 389Q327 406 300.5 413Q274 420 247 420Q216 420 197 409.5Q178 399 174 380Q171 364 180.5 352Q190 340 241 306Q285 276 302.5 262Q320 248 332 235Q352 211 358 185.5Q364 160 358 127Q345 58 294 23.5Q243 -11 154 -11Q112 -11 73 -2.5Q34 6 -17 26L25 125Q75 107 104.5 100Q134 93 162 93Q191 93 212 105Q233 117 237 136Q240 154 226 172Q212 190 166 220Q124 248 106.5 262.5Q89 277 77 290ZM196 730 284 680L389 730L426 656L274 574L151 656Z" glyph-name="Scaron" horiz-adv-x="395" unicode="Š" /><glyph d="M77 290Q59 312 53.5 337.5Q48 363 54 395Q66 455 118 489Q170 523 249 523Q289 523 326 514.5Q363 506 411 483L364 389Q327 406 300.5 413Q274 420 247 420Q216 420 197 409.5Q178 399 174 380Q171 364 180.5 352Q190 340 241 306Q285 276 302.5 262Q320 248 332 235Q352 211 358 185.5Q364 160 358 127Q345 58 294 23.5Q243 -11 154 -11Q112 -11 73 -2.5Q34 6 -17 26L25 125Q75 107 104.5 100Q134 93 162 93Q191 93 212 105Q233 117 237 136Q240 154 226 172Q212 190 166 220Q124 248 106.5 262.5Q89 277 77 290ZM226 562 183 639L336 735L384 648Z" glyph-name="Sacute" horiz-adv-x="395" unicode="Ś" /><glyph d="M77 290Q59 312 53.5 337.5Q48 363 54 395Q66 455 118 489Q170 523 249 523Q289 523 326 514.5Q363 506 411 483L364 389Q327 406 300.5 413Q274 420 247 420Q216 420 197 409.5Q178 399 174 380Q171 364 180.5 352Q190 340 241 306Q285 276 302.5 262Q320 248 332 235Q352 211 358 185.5Q364 160 358 127Q345 58 294 23.5Q243 -11 154 -11Q112 -11 73 -2.5Q34 6 -17 26L25 125Q75 107 104.5 100Q134 93 162 93Q191 93 212 105Q233 117 237 136Q240 154 226 172Q212 190 166 220Q124 248 106.5 262.5Q89 277 77 290ZM146 574 113 650L262 730L386 648L339 574L252 624Z" glyph-name="Scircumflex" horiz-adv-x="395" unicode="Ŝ" /><glyph d="M77 290Q59 312 53.5 337.5Q48 363 54 395Q66 455 118 489Q170 523 249 523Q289 523 326 514.5Q363 506 411 483L364 389Q327 406 300.5 413Q274 420 247 420Q216 420 197 409.5Q178 399 174 380Q171 364 180.5 352Q190 340 241 306Q285 276 302.5 262Q320 248 332 235Q352 211 358 185.5Q364 160 358 127Q345 58 294 23.5Q243 -11 154 -11Q112 -11 73 -2.5Q34 6 -17 26L25 125Q75 107 104.5 100Q134 93 162 93Q191 93 212 105Q233 117 237 136Q240 154 226 172Q212 190 166 220Q124 248 106.5 262.5Q89 277 77 290ZM119 -225 41 -187L110 -41L198 -83Z" glyph-name="Scedilla" horiz-adv-x="395" unicode="Ş" /><glyph d="M77 290Q59 312 53.5 337.5Q48 363 54 395Q66 455 118 489Q170 523 249 523Q289 523 326 514.5Q363 506 411 483L364 389Q327 406 300.5 413Q274 420 247 420Q216 420 197 409.5Q178 399 174 380Q171 364 180.5 352Q190 340 241 306Q285 276 302.5 262Q320 248 332 235Q352 211 358 185.5Q364 160 358 127Q345 58 294 23.5Q243 -11 154 -11Q112 -11 73 -2.5Q34 6 -17 26L25 125Q75 107 104.5 100Q134 93 162 93Q191 93 212 105Q233 117 237 136Q240 154 226 172Q212 190 166 220Q124 248 106.5 262.5Q89 277 77 290ZM119 -225 41 -187L110 -41L198 -83Z" glyph-name="uni0218" horiz-adv-x="395" unicode="Ș" /><glyph d="M47 415 64 512H450L433 415H300L290 357H376L361 272H275L227 0H107L155 272H69L84 357H170L180 415Z" glyph-name="Tbar" horiz-adv-x="406" unicode="Ŧ" /><glyph d="M47 415 64 512H450L433 415H300L227 0H107L180 415ZM191 730 279 680L384 730L421 656L269 574L146 656Z" glyph-name="Tcaron" horiz-adv-x="406" unicode="Ť" /><glyph d="M47 415 64 512H450L433 415H300L227 0H107L180 415ZM133 -225 55 -187L124 -41L212 -83Z" glyph-name="uni0162" horiz-adv-x="406" unicode="Ţ" /><glyph d="M47 415 64 512H450L433 415H300L227 0H107L180 415ZM133 -225 55 -187L124 -41L212 -83Z" glyph-name="uni021A" horiz-adv-x="406" unicode="Ț" /><glyph d="M337 205 391 512H511L457 205Q436 91 378.5 40Q321 -11 218 -11Q115 -11 70.5 45Q26 101 45 205L99 512H219L165 205Q154 144 169.5 117Q185 90 230 90Q275 90 300.5 117.5Q326 145 337 205ZM269 562 226 639L379 735L427 648Z" glyph-name="Uacute" horiz-adv-x="502" unicode="Ú" /><glyph d="M337 205 391 512H511L457 205Q436 91 378.5 40Q321 -11 218 -11Q115 -11 70.5 45Q26 101 45 205L99 512H219L165 205Q154 144 169.5 117Q185 90 230 90Q275 90 300.5 117.5Q326 145 337 205ZM215 574 182 650L331 730L455 648L408 574L321 624Z" glyph-name="Ucircumflex" horiz-adv-x="502" unicode="Û" /><glyph d="M337 205 391 512H511L457 205Q436 91 378.5 40Q321 -11 218 -11Q115 -11 70.5 45Q26 101 45 205L99 512H219L165 205Q154 144 169.5 117Q185 90 230 90Q275 90 300.5 117.5Q326 145 337 205ZM403 569 333 656L427 735L498 648ZM205 569 135 656L229 735L300 648Z" glyph-name="Udieresis" horiz-adv-x="502" unicode="Ü" /><glyph d="M337 205 391 512H511L457 205Q436 91 378.5 40Q321 -11 218 -11Q115 -11 70.5 45Q26 101 45 205L99 512H219L165 205Q154 144 169.5 117Q185 90 230 90Q275 90 300.5 117.5Q326 145 337 205ZM361 562 221 656L281 742L414 636Z" glyph-name="Ugrave" horiz-adv-x="502" unicode="Ù" /><glyph d="M337 205 391 512H511L457 205Q436 91 378.5 40Q321 -11 218 -11Q115 -11 70.5 45Q26 101 45 205L99 512H219L165 205Q154 144 169.5 117Q185 90 230 90Q275 90 300.5 117.5Q326 145 337 205ZM326 671Q344 671 356 683.5Q368 696 374 721H455Q445 657 408 620.5Q371 584 316 584Q262 584 233 622.5Q204 661 214 721H296Q293 696 300.5 683.5Q308 671 326 671Z" glyph-name="Ubreve" horiz-adv-x="502" unicode="Ŭ" /><glyph d="M337 205 391 512H511L457 205Q436 91 378.5 40Q321 -11 218 -11Q115 -11 70.5 45Q26 101 45 205L99 512H219L165 205Q154 144 169.5 117Q185 90 230 90Q275 90 300.5 117.5Q326 145 337 205ZM379 563 327 624L448 738L508 671ZM206 563 155 625L275 738L335 672Z" glyph-name="Uhungarumlaut" horiz-adv-x="502" unicode="Ű" /><glyph d="M337 205 391 512H511L457 205Q436 91 378.5 40Q321 -11 218 -11Q115 -11 70.5 45Q26 101 45 205L99 512H219L165 205Q154 144 169.5 117Q185 90 230 90Q275 90 300.5 117.5Q326 145 337 205ZM212 596 228 686H441L425 596Z" glyph-name="Umacron" horiz-adv-x="502" unicode="Ū" /><glyph d="M281 -105 266 -191Q201 -191 171 -167Q141 -143 149 -98Q152 -76 167 -53.5Q182 -31 205 -11Q109 -8 68 48Q27 104 45 205L99 512H219L165 205Q154 144 169.5 117Q185 90 230 90Q275 90 300.5 117.5Q326 145 337 205L391 512H511L457 205Q441 118 404 68Q367 18 304 0V0Q273 -28 260.5 -45Q248 -62 245 -76Q243 -91 251.5 -98Q260 -105 281 -105Z" glyph-name="Uogonek" horiz-adv-x="502" unicode="Ų" /><glyph d="M337 205 391 512H511L457 205Q436 91 378.5 40Q321 -11 218 -11Q115 -11 70.5 45Q26 101 45 205L99 512H219L165 205Q154 144 169.5 117Q185 90 230 90Q275 90 300.5 117.5Q326 145 337 205ZM212 671 214 686Q223 735 258.5 764Q294 793 348 793Q401 793 430 762Q459 731 451 686L449 671Q440 622 404 593Q368 564 314 564Q261 564 232.5 595Q204 626 212 671ZM370 672 372 684Q376 707 369 717.5Q362 728 341 728Q320 728 308.5 717.5Q297 707 293 684L291 672Q287 648 294.5 637.5Q302 627 323 627Q344 627 355 637.5Q366 648 370 672Z" glyph-name="Uring" horiz-adv-x="502" unicode="Ů" /><glyph d="M337 205 391 512H511L457 205Q436 91 378.5 40Q321 -11 218 -11Q115 -11 70.5 45Q26 101 45 205L99 512H219L165 205Q154 144 169.5 117Q185 90 230 90Q275 90 300.5 117.5Q326 145 337 205ZM368 681Q378 681 384 688.5Q390 696 393 713H472Q465 654 440.5 620.5Q416 587 379 587Q368 587 356.5 590.5Q345 594 325 604Q309 612 302 614.5Q295 617 289 617Q279 617 273 609.5Q267 602 264 585H185Q192 644 216.5 677.5Q241 711 278 711Q289 711 300.5 707.5Q312 704 332 694Q348 686 355 683.5Q362 681 368 681Z" glyph-name="Utilde" horiz-adv-x="502" unicode="Ũ" /><glyph d="M498 107 616 512H735L584 0H419L363 246L215 0H49L78 512H194L166 109L325 374H438ZM364 562 321 639L474 735L522 648Z" glyph-name="Wacute" horiz-adv-x="706" unicode="Ẃ" /><glyph d="M498 107 616 512H735L584 0H419L363 246L215 0H49L78 512H194L166 109L325 374H438ZM310 574 277 650L426 730L550 648L503 574L416 624Z" glyph-name="Wcircumflex" horiz-adv-x="706" unicode="Ŵ" /><glyph d="M498 107 616 512H735L584 0H419L363 246L215 0H49L78 512H194L166 109L325 374H438ZM498 569 428 656L522 735L593 648ZM300 569 230 656L324 735L395 648Z" glyph-name="Wdieresis" horiz-adv-x="706" unicode="Ẅ" /><glyph d="M498 107 616 512H735L584 0H419L363 246L215 0H49L78 512H194L166 109L325 374H438ZM456 562 316 656L376 742L509 636Z" glyph-name="Wgrave" horiz-adv-x="706" unicode="Ẁ" /><glyph d="M231 279 378 512H510L274 153L247 0H127L154 153L44 512H165ZM241 562 198 639L351 735L399 648Z" glyph-name="Yacute" horiz-adv-x="446" unicode="Ý" /><glyph d="M231 279 378 512H510L274 153L247 0H127L154 153L44 512H165ZM375 569 305 656L399 735L470 648ZM177 569 107 656L201 735L272 648Z" glyph-name="Ydieresis" horiz-adv-x="446" unicode="Ÿ" /><glyph d="M231 279 378 512H510L274 153L247 0H127L154 153L44 512H165ZM187 574 154 650L303 730L427 648L380 574L293 624Z" glyph-name="Ycircumflex" horiz-adv-x="446" unicode="Ŷ" /><glyph d="M231 279 378 512H510L274 153L247 0H127L154 153L44 512H165ZM333 562 193 656L253 742L386 636Z" glyph-name="Ygrave" horiz-adv-x="446" unicode="Ỳ" /><glyph d="M63 413 80 512H432L415 413L145 99H362L345 0H-13L4 99L274 413ZM179 730 267 680L372 730L409 656L257 574L134 656Z" glyph-name="Zcaron" horiz-adv-x="407" unicode="Ž" /><glyph d="M63 413 80 512H432L415 413L145 99H362L345 0H-13L4 99L274 413ZM209 562 166 639L319 735L367 648Z" glyph-name="Zacute" horiz-adv-x="407" unicode="Ź" /><glyph d="M63 413 80 512H432L415 413L145 99H362L345 0H-13L4 99L274 413ZM250 560 175 653L276 738L352 645Z" glyph-name="Zdotaccent" horiz-adv-x="407" unicode="Ż" /><glyph d="M34 177 43 236Q56 323 106 374.5Q156 426 231 426Q270 426 300 411.5Q330 397 343 372L368 415H453L380 0H295L292 47Q264 17 234 3Q204 -11 170 -11Q94 -11 57.5 41Q21 93 34 177ZM291 174 302 243Q308 281 293 303Q278 325 246 325Q211 325 190.5 303.5Q170 282 163 239L153 175Q146 133 159 112Q172 91 206 91Q239 91 262 113.5Q285 136 291 174ZM218 465 175 542L328 638L376 551Z" glyph-name="aacute" horiz-adv-x="472" unicode="á" /><glyph d="M34 177 43 236Q56 323 106 374.5Q156 426 231 426Q270 426 300 411.5Q330 397 343 372L368 415H453L380 0H295L292 47Q264 17 234 3Q204 -11 170 -11Q94 -11 57.5 41Q21 93 34 177ZM291 174 302 243Q308 281 293 303Q278 325 246 325Q211 325 190.5 303.5Q170 282 163 239L153 175Q146 133 159 112Q172 91 206 91Q239 91 262 113.5Q285 136 291 174ZM164 477 131 553L280 633L404 551L357 477L270 527Z" glyph-name="acircumflex" horiz-adv-x="472" unicode="â" /><glyph d="M34 177 43 236Q56 323 106 374.5Q156 426 231 426Q270 426 300 411.5Q330 397 343 372L368 415H453L380 0H295L292 47Q264 17 234 3Q204 -11 170 -11Q94 -11 57.5 41Q21 93 34 177ZM291 174 302 243Q308 281 293 303Q278 325 246 325Q211 325 190.5 303.5Q170 282 163 239L153 175Q146 133 159 112Q172 91 206 91Q239 91 262 113.5Q285 136 291 174ZM352 472 282 559L376 638L447 551ZM154 472 84 559L178 638L249 551Z" glyph-name="adieresis" horiz-adv-x="472" unicode="ä" /><glyph d="M34 177 43 236Q56 323 106 374.5Q156 426 231 426Q270 426 300 411.5Q330 397 343 372L368 415H453L380 0H295L292 47Q264 17 234 3Q204 -11 170 -11Q94 -11 57.5 41Q21 93 34 177ZM291 174 302 243Q308 281 293 303Q278 325 246 325Q211 325 190.5 303.5Q170 282 163 239L153 175Q146 133 159 112Q172 91 206 91Q239 91 262 113.5Q285 136 291 174ZM310 465 170 559L230 645L363 539Z" glyph-name="agrave" horiz-adv-x="472" unicode="à" /><glyph d="M34 177 43 236Q56 323 106 374.5Q156 426 231 426Q270 426 300 411.5Q330 397 343 372L368 415H453L380 0H295L292 47Q264 17 234 3Q204 -11 170 -11Q94 -11 57.5 41Q21 93 34 177ZM291 174 302 243Q308 281 293 303Q278 325 246 325Q211 325 190.5 303.5Q170 282 163 239L153 175Q146 133 159 112Q172 91 206 91Q239 91 262 113.5Q285 136 291 174ZM161 574 163 589Q172 638 207.5 667Q243 696 297 696Q350 696 379 665Q408 634 400 589L398 574Q389 525 353 496Q317 467 263 467Q210 467 181.5 498Q153 529 161 574ZM319 575 321 587Q325 610 318 620.5Q311 631 290 631Q269 631 257.5 620.5Q246 610 242 587L240 575Q236 551 243.5 540.5Q251 530 272 530Q293 530 304 540.5Q315 551 319 575Z" glyph-name="aring" horiz-adv-x="472" unicode="å" /><glyph d="M34 177 43 236Q56 323 106 374.5Q156 426 231 426Q270 426 300 411.5Q330 397 343 372L368 415H453L380 0H295L292 47Q264 17 234 3Q204 -11 170 -11Q94 -11 57.5 41Q21 93 34 177ZM291 174 302 243Q308 281 293 303Q278 325 246 325Q211 325 190.5 303.5Q170 282 163 239L153 175Q146 133 159 112Q172 91 206 91Q239 91 262 113.5Q285 136 291 174ZM310 587Q320 587 326 594.5Q332 602 335 619H414Q407 560 382.5 526.5Q358 493 321 493Q310 493 298.5 496.5Q287 500 267 510Q251 518 244 520.5Q237 523 231 523Q221 523 215 515.5Q209 508 206 491H127Q134 550 158.5 583.5Q183 617 220 617Q231 617 242.5 613.5Q254 610 274 600Q290 592 297 589.5Q304 587 310 587Z" glyph-name="atilde" horiz-adv-x="472" unicode="ã" /><glyph d="M34 177 43 236Q56 323 106 374.5Q156 426 231 426Q270 426 300 411.5Q330 397 343 372L368 415H453L380 0H295L292 47Q264 17 234 3Q204 -11 170 -11Q94 -11 57.5 41Q21 93 34 177ZM291 174 302 243Q308 281 293 303Q278 325 246 325Q211 325 190.5 303.5Q170 282 163 239L153 175Q146 133 159 112Q172 91 206 91Q239 91 262 113.5Q285 136 291 174ZM280 574Q298 574 310 586.5Q322 599 328 624H409Q399 560 362 523.5Q325 487 270 487Q216 487 187 525.5Q158 564 168 624H250Q247 599 254.5 586.5Q262 574 280 574Z" glyph-name="abreve" horiz-adv-x="472" unicode="ă" /><glyph d="M34 177 43 236Q56 323 106 374.5Q156 426 231 426Q270 426 300 411.5Q330 397 343 372L368 415H453L380 0H295L292 47Q264 17 234 3Q204 -11 170 -11Q94 -11 57.5 41Q21 93 34 177ZM291 174 302 243Q308 281 293 303Q278 325 246 325Q211 325 190.5 303.5Q170 282 163 239L153 175Q146 133 159 112Q172 91 206 91Q239 91 262 113.5Q285 136 291 174ZM161 499 177 589H390L374 499Z" glyph-name="amacron" horiz-adv-x="472" unicode="ā" /><glyph d="M291 174 302 243Q308 281 293 303Q278 325 246 325Q211 325 190.5 303.5Q170 282 163 239L153 175Q146 133 159 112Q172 91 206 91Q239 91 262 113.5Q285 136 291 174ZM225 -98Q229 -73 248 -47Q267 -21 295 0L292 47Q264 17 234 3Q204 -11 170 -11Q94 -11 57.5 41Q21 93 34 177L43 236Q56 323 106 374.5Q156 426 231 426Q270 426 300 411.5Q330 397 343 372L368 415H453L380 0Q349 -28 336.5 -45Q324 -62 321 -76Q319 -91 327.5 -98Q336 -105 357 -105L342 -191Q277 -191 247 -167Q217 -143 225 -98Z" glyph-name="aogonek" horiz-adv-x="472" unicode="ą" /><glyph d="M32 175 43 240Q58 327 114 376.5Q170 426 257 426Q289 426 322 418Q355 410 380 397L338 308Q313 320 295 324.5Q277 329 260 329Q220 329 195 306Q170 283 163 240L152 175Q144 130 159 108Q174 86 214 86Q230 86 250 91Q270 96 298 107L329 16Q289 0 261.5 -5.5Q234 -11 199 -11Q105 -11 60.5 38Q16 87 32 175ZM136 -225 58 -187L127 -41L215 -83Z" glyph-name="ccedilla" horiz-adv-x="372" unicode="ç" /><glyph d="M32 175 43 240Q58 327 114 376.5Q170 426 257 426Q289 426 322 418Q355 410 380 397L338 308Q313 320 295 324.5Q277 329 260 329Q220 329 195 306Q170 283 163 240L152 175Q144 130 159 108Q174 86 214 86Q230 86 250 91Q270 96 298 107L329 16Q289 0 261.5 -5.5Q234 -11 199 -11Q105 -11 60.5 38Q16 87 32 175ZM207 465 164 542L317 638L365 551Z" glyph-name="cacute" horiz-adv-x="372" unicode="ć" /><glyph d="M32 175 43 240Q58 327 114 376.5Q170 426 257 426Q289 426 322 418Q355 410 380 397L338 308Q313 320 295 324.5Q277 329 260 329Q220 329 195 306Q170 283 163 240L152 175Q144 130 159 108Q174 86 214 86Q230 86 250 91Q270 96 298 107L329 16Q289 0 261.5 -5.5Q234 -11 199 -11Q105 -11 60.5 38Q16 87 32 175ZM177 633 265 583L370 633L407 559L255 477L132 559Z" glyph-name="ccaron" horiz-adv-x="372" unicode="č" /><glyph d="M32 175 43 240Q58 327 114 376.5Q170 426 257 426Q289 426 322 418Q355 410 380 397L338 308Q313 320 295 324.5Q277 329 260 329Q220 329 195 306Q170 283 163 240L152 175Q144 130 159 108Q174 86 214 86Q230 86 250 91Q270 96 298 107L329 16Q289 0 261.5 -5.5Q234 -11 199 -11Q105 -11 60.5 38Q16 87 32 175ZM155 477 122 553L271 633L395 551L348 477L261 527Z" glyph-name="ccircumflex" horiz-adv-x="372" unicode="ĉ" /><glyph d="M32 175 43 240Q58 327 114 376.5Q170 426 257 426Q289 426 322 418Q355 410 380 397L338 308Q313 320 295 324.5Q277 329 260 329Q220 329 195 306Q170 283 163 240L152 175Q144 130 159 108Q174 86 214 86Q230 86 250 91Q270 96 298 107L329 16Q289 0 261.5 -5.5Q234 -11 199 -11Q105 -11 60.5 38Q16 87 32 175ZM248 463 173 556L274 641L350 548Z" glyph-name="cdotaccent" horiz-adv-x="372" unicode="ċ" /><glyph d="M289 167 364 595H484L379 0H294L291 47Q263 17 233 3Q203 -11 169 -11Q93 -11 56.5 41Q20 93 33 177L43 239Q57 326 105 376Q153 426 226 426Q247 426 267.5 421Q288 416 305 407L276 321Q269 323 260 324Q251 325 244 325Q209 325 189.5 304.5Q170 284 163 239L152 175Q145 133 158.5 112Q172 91 205 91Q239 91 261 110.5Q283 130 289 167ZM583 440 505 479Q533 540 550.5 579.5Q568 619 575 637L663 601Q655 582 635 542Q615 502 583 440Z" glyph-name="dcaron" horiz-adv-x="471" unicode="ď" /><glyph d="M355 543 364 595H484L475 543H531L519 472H462L379 0H294L291 47Q263 17 233 3Q203 -11 169 -11Q93 -11 56.5 41Q20 93 33 177L43 239Q57 326 105 376Q153 426 226 426Q247 426 267.5 421Q288 416 305 407L276 321Q269 323 260 324Q251 325 244 325Q209 325 189.5 304.5Q170 284 163 239L152 175Q145 133 158.5 112Q172 91 205 91Q239 91 261 110.5Q283 130 289 167L342 472H234L246 543Z" glyph-name="dcroat" horiz-adv-x="471" unicode="đ" /><glyph d="M32 175 43 240Q59 331 115.5 378.5Q172 426 264 426Q349 426 392 373.5Q435 321 419 235Q417 221 414 208.5Q411 196 404 165H149Q141 122 157 102.5Q173 83 216 83Q240 83 272.5 90.5Q305 98 324 106L353 19Q318 4 279.5 -3.5Q241 -11 199 -11Q105 -11 60.5 38Q16 87 32 175ZM303 249 304 255Q311 297 298.5 318Q286 339 253 339Q217 339 194.5 317.5Q172 296 165 255L164 249ZM223 465 180 542L333 638L381 551Z" glyph-name="eacute" horiz-adv-x="445" unicode="é" /><glyph d="M32 175 43 240Q59 331 115.5 378.5Q172 426 264 426Q349 426 392 373.5Q435 321 419 235Q417 221 414 208.5Q411 196 404 165H149Q141 122 157 102.5Q173 83 216 83Q240 83 272.5 90.5Q305 98 324 106L353 19Q318 4 279.5 -3.5Q241 -11 199 -11Q105 -11 60.5 38Q16 87 32 175ZM303 249 304 255Q311 297 298.5 318Q286 339 253 339Q217 339 194.5 317.5Q172 296 165 255L164 249ZM169 477 136 553L285 633L409 551L362 477L275 527Z" glyph-name="ecircumflex" horiz-adv-x="445" unicode="ê" /><glyph d="M32 175 43 240Q59 331 115.5 378.5Q172 426 264 426Q349 426 392 373.5Q435 321 419 235Q417 221 414 208.5Q411 196 404 165H149Q141 122 157 102.5Q173 83 216 83Q240 83 272.5 90.5Q305 98 324 106L353 19Q318 4 279.5 -3.5Q241 -11 199 -11Q105 -11 60.5 38Q16 87 32 175ZM303 249 304 255Q311 297 298.5 318Q286 339 253 339Q217 339 194.5 317.5Q172 296 165 255L164 249ZM368 472 298 559L392 638L463 551ZM170 472 100 559L194 638L265 551Z" glyph-name="edieresis" horiz-adv-x="445" unicode="ë" /><glyph d="M32 175 43 240Q59 331 115.5 378.5Q172 426 264 426Q349 426 392 373.5Q435 321 419 235Q417 221 414 208.5Q411 196 404 165H149Q141 122 157 102.5Q173 83 216 83Q240 83 272.5 90.5Q305 98 324 106L353 19Q318 4 279.5 -3.5Q241 -11 199 -11Q105 -11 60.5 38Q16 87 32 175ZM303 249 304 255Q311 297 298.5 318Q286 339 253 339Q217 339 194.5 317.5Q172 296 165 255L164 249ZM315 465 175 559L235 645L368 539Z" glyph-name="egrave" horiz-adv-x="445" unicode="è" /><glyph d="M32 175 43 240Q59 331 115.5 378.5Q172 426 264 426Q349 426 392 373.5Q435 321 419 235Q417 221 414 208.5Q411 196 404 165H149Q141 122 157 102.5Q173 83 216 83Q240 83 272.5 90.5Q305 98 324 106L353 19Q318 4 279.5 -3.5Q241 -11 199 -11Q105 -11 60.5 38Q16 87 32 175ZM303 249 304 255Q311 297 298.5 318Q286 339 253 339Q217 339 194.5 317.5Q172 296 165 255L164 249ZM290 574Q308 574 320 586.5Q332 599 338 624H419Q409 560 372 523.5Q335 487 280 487Q226 487 197 525.5Q168 564 178 624H260Q257 599 264.5 586.5Q272 574 290 574Z" glyph-name="ebreve" horiz-adv-x="445" unicode="ĕ" /><glyph d="M32 175 43 240Q59 331 115.5 378.5Q172 426 264 426Q349 426 392 373.5Q435 321 419 235Q417 221 414 208.5Q411 196 404 165H149Q141 122 157 102.5Q173 83 216 83Q240 83 272.5 90.5Q305 98 324 106L353 19Q318 4 279.5 -3.5Q241 -11 199 -11Q105 -11 60.5 38Q16 87 32 175ZM303 249 304 255Q311 297 298.5 318Q286 339 253 339Q217 339 194.5 317.5Q172 296 165 255L164 249ZM193 633 281 583L386 633L423 559L271 477L148 559Z" glyph-name="ecaron" horiz-adv-x="445" unicode="ě" /><glyph d="M32 175 43 240Q59 331 115.5 378.5Q172 426 264 426Q349 426 392 373.5Q435 321 419 235Q417 221 414 208.5Q411 196 404 165H149Q141 122 157 102.5Q173 83 216 83Q240 83 272.5 90.5Q305 98 324 106L353 19Q318 4 279.5 -3.5Q241 -11 199 -11Q105 -11 60.5 38Q16 87 32 175ZM303 249 304 255Q311 297 298.5 318Q286 339 253 339Q217 339 194.5 317.5Q172 296 165 255L164 249ZM264 463 189 556L290 641L366 548Z" glyph-name="edotaccent" horiz-adv-x="445" unicode="ė" /><glyph d="M32 175 43 240Q59 331 115.5 378.5Q172 426 264 426Q349 426 392 373.5Q435 321 419 235Q417 221 414 208.5Q411 196 404 165H149Q141 122 157 102.5Q173 83 216 83Q240 83 272.5 90.5Q305 98 324 106L353 19Q318 4 279.5 -3.5Q241 -11 199 -11Q105 -11 60.5 38Q16 87 32 175ZM303 249 304 255Q311 297 298.5 318Q286 339 253 339Q217 339 194.5 317.5Q172 296 165 255L164 249ZM166 499 182 589H395L379 499Z" glyph-name="emacron" horiz-adv-x="445" unicode="ē" /><glyph d="M32 175 43 240Q59 331 115.5 378.5Q172 426 264 426Q349 426 392 373.5Q435 321 419 235Q417 221 414 208.5Q411 196 404 165H149Q141 122 157 102.5Q173 83 216 83Q240 83 272.5 90.5Q305 98 324 106L353 19Q311 -19 294 -39Q277 -59 274 -76Q272 -91 280.5 -98Q289 -105 310 -105L295 -191Q230 -191 200 -167Q170 -143 178 -98Q182 -77 196 -55.5Q210 -34 235 -10Q229 -11 221.5 -11Q214 -11 199 -11Q105 -11 60.5 38Q16 87 32 175ZM303 249 304 255Q311 297 298.5 318Q286 339 253 339Q217 339 194.5 317.5Q172 296 165 255L164 249Z" glyph-name="eogonek" horiz-adv-x="445" unicode="ę" /><glyph d="M31 165 43 239Q57 327 106 376.5Q155 426 230 426Q267 426 295.5 411.5Q324 397 342 370L367 415H452L379 0Q361 -104 308 -147.5Q255 -191 157 -191Q120 -191 81.5 -183.5Q43 -176 10 -162L43 -67Q80 -80 104 -85.5Q128 -91 147 -91Q198 -91 224 -71Q250 -51 259 0L301 238Q308 278 294 300.5Q280 323 248 323Q213 323 192 302Q171 281 163 238L150 165Q144 130 154.5 110Q165 90 189 90Q197 90 205 91.5Q213 93 227 97L246 9Q211 -4 192.5 -7.5Q174 -11 157 -11Q85 -11 51.5 37.5Q18 86 31 165ZM270 574Q288 574 300 586.5Q312 599 318 624H399Q389 560 352 523.5Q315 487 260 487Q206 487 177 525.5Q148 564 158 624H240Q237 599 244.5 586.5Q252 574 270 574Z" glyph-name="gbreve" horiz-adv-x="473" unicode="ğ" /><glyph d="M31 165 43 239Q57 327 106 376.5Q155 426 230 426Q267 426 295.5 411.5Q324 397 342 370L367 415H452L379 0Q361 -104 308 -147.5Q255 -191 157 -191Q120 -191 81.5 -183.5Q43 -176 10 -162L43 -67Q80 -80 104 -85.5Q128 -91 147 -91Q198 -91 224 -71Q250 -51 259 0L301 238Q308 278 294 300.5Q280 323 248 323Q213 323 192 302Q171 281 163 238L150 165Q144 130 154.5 110Q165 90 189 90Q197 90 205 91.5Q213 93 227 97L246 9Q211 -4 192.5 -7.5Q174 -11 157 -11Q85 -11 51.5 37.5Q18 86 31 165ZM163 477 130 553L279 633L403 551L356 477L269 527Z" glyph-name="gcircumflex" horiz-adv-x="473" unicode="ĝ" /><glyph d="M31 165 43 239Q57 327 106 376.5Q155 426 230 426Q267 426 295.5 411.5Q324 397 342 370L367 415H452L379 0Q361 -104 308 -147.5Q255 -191 157 -191Q120 -191 81.5 -183.5Q43 -176 10 -162L43 -67Q80 -80 104 -85.5Q128 -91 147 -91Q198 -91 224 -71Q250 -51 259 0L301 238Q308 278 294 300.5Q280 323 248 323Q213 323 192 302Q171 281 163 238L150 165Q144 130 154.5 110Q165 90 189 90Q197 90 205 91.5Q213 93 227 97L246 9Q211 -4 192.5 -7.5Q174 -11 157 -11Q85 -11 51.5 37.5Q18 86 31 165ZM277 635 355 597L289 456L201 498Z" glyph-name="gcommaaccent" horiz-adv-x="473" unicode="ģ" /><glyph d="M31 165 43 239Q57 327 106 376.5Q155 426 230 426Q267 426 295.5 411.5Q324 397 342 370L367 415H452L379 0Q361 -104 308 -147.5Q255 -191 157 -191Q120 -191 81.5 -183.5Q43 -176 10 -162L43 -67Q80 -80 104 -85.5Q128 -91 147 -91Q198 -91 224 -71Q250 -51 259 0L301 238Q308 278 294 300.5Q280 323 248 323Q213 323 192 302Q171 281 163 238L150 165Q144 130 154.5 110Q165 90 189 90Q197 90 205 91.5Q213 93 227 97L246 9Q211 -4 192.5 -7.5Q174 -11 157 -11Q85 -11 51.5 37.5Q18 86 31 165ZM249 463 174 556L275 641L351 548Z" glyph-name="gdotaccent" horiz-adv-x="473" unicode="ġ" /><glyph d="M115 543 124 595H244L235 543H344L332 472H222L209 395Q232 411 254.5 418.5Q277 426 302 426Q379 426 415.5 373.5Q452 321 437 238L395 0H275L317 238Q325 282 312.5 303Q300 324 267 324Q234 324 211 301.5Q188 279 181 240L139 0H19L102 472H46L58 543Z" glyph-name="hbar" horiz-adv-x="479" unicode="ħ" /><glyph d="M19 0 124 595H244L209 395Q232 411 254.5 418.5Q277 426 302 426Q379 426 415.5 373.5Q452 321 437 238L395 0H275L317 238Q325 282 312.5 303Q300 324 267 324Q234 324 211 301.5Q188 279 181 240L139 0ZM198 644 165 720L314 800L438 718L391 644L304 694Z" glyph-name="hcircumflex" horiz-adv-x="479" unicode="ĥ" /><glyph d="M19 0 92 415H212L139 0ZM117 465 74 542L227 638L275 551Z" glyph-name="iacute" horiz-adv-x="231" unicode="í" /><glyph d="M19 0 92 415H212L139 0ZM63 477 30 553L179 633L303 551L256 477L169 527Z" glyph-name="icircumflex" horiz-adv-x="231" unicode="î" /><glyph d="M19 0 92 415H212L139 0ZM251 472 181 559L275 638L346 551ZM53 472 -17 559L77 638L148 551Z" glyph-name="idieresis" horiz-adv-x="231" unicode="ï" /><glyph d="M19 0 92 415H212L139 0ZM209 465 69 559L129 645L262 539Z" glyph-name="igrave" horiz-adv-x="231" unicode="ì" /><glyph d="M19 0 92 415H212L139 0ZM180 574Q198 574 210 586.5Q222 599 228 624H309Q299 560 262 523.5Q225 487 170 487Q116 487 87 525.5Q58 564 68 624H150Q147 599 154.5 586.5Q162 574 180 574Z" glyph-name="ibreve" horiz-adv-x="231" unicode="ĭ" /><glyph d="M19 0 92 415H212L139 0ZM158 463 83 556L184 641L260 548Z" glyph-name="i.dot" horiz-adv-x="231" unicode="" /><glyph d="M19 0 92 415H212L139 0ZM60 499 76 589H289L273 499Z" glyph-name="imacron" horiz-adv-x="231" unicode="ī" /><glyph d="M-16 -98Q-12 -73 7 -47Q26 -21 54 0H19L92 415H212L139 0Q108 -28 95.5 -45Q83 -62 80 -76Q78 -91 86.5 -98Q95 -105 116 -105L101 -191Q36 -191 6 -167Q-24 -143 -16 -98ZM158 463 83 556L184 641L260 548Z" glyph-name="iogonek" horiz-adv-x="231" unicode="į" /><glyph d="M19 0 92 415H212L139 0ZM213 584Q223 584 229 591.5Q235 599 238 616H317Q310 557 285.5 523.5Q261 490 224 490Q213 490 201.5 493.5Q190 497 170 507Q154 515 147 517.5Q140 520 134 520Q124 520 118 512.5Q112 505 109 488H30Q37 547 61.5 580.5Q86 614 123 614Q134 614 145.5 610.5Q157 607 177 597Q193 589 200 586.5Q207 584 213 584Z" glyph-name="itilde" horiz-adv-x="231" unicode="ĩ" /><glyph d="M13 -28 92 415H212L133 -30Q120 -108 77.5 -149.5Q35 -191 -31 -191Q-45 -191 -60 -189.5Q-75 -188 -92 -185L-74 -85Q-65 -86 -59 -86.5Q-53 -87 -47 -87Q-19 -87 -5.5 -73Q8 -59 13 -28ZM65 477 32 553L181 633L305 551L258 477L171 527Z" glyph-name="jcircumflex" horiz-adv-x="230" unicode="ĵ" /><glyph d="M19 0 92 415H212L139 0ZM158 463 83 556L184 641L260 548ZM244 -28 323 415H443L364 -30Q351 -108 308.5 -149.5Q266 -191 200 -191Q186 -191 171 -189.5Q156 -188 139 -185L157 -85Q166 -86 172 -86.5Q178 -87 184 -87Q212 -87 225.5 -73Q239 -59 244 -28ZM389 463 314 556L415 641L491 548Z" glyph-name="ij" horiz-adv-x="461" unicode="ĳ" /><glyph d="M19 0 124 595H238L178 253L330 415H474L298 234L403 0H276L212 145L147 78L133 0ZM169 -225 91 -187L160 -41L248 -83Z" glyph-name="kcommaaccent" horiz-adv-x="448" unicode="ķ" /><glyph d="M19 0 124 595H244L139 0ZM148 645 105 722L258 818L306 731Z" glyph-name="lacute" horiz-adv-x="231" unicode="ĺ" /><glyph d="M19 0 124 595H244L139 0ZM343 440 265 479Q293 540 310.5 579.5Q328 619 335 637L423 601Q415 582 395 542Q375 502 343 440Z" glyph-name="lcaron" horiz-adv-x="231" unicode="ľ" /><glyph d="M19 0 124 595H244L139 0ZM45 -225 -33 -187L36 -41L124 -83Z" glyph-name="lcommaaccent" horiz-adv-x="231" unicode="ļ" /><glyph d="M19 0 124 595H244L139 0ZM291 175 223 260L314 337L384 252Z" glyph-name="ldot" horiz-adv-x="335" unicode="ŀ" /><glyph d="M177 415 180 368Q208 398 238 412Q268 426 302 426Q380 426 416 374Q452 322 437 238L395 0L390 -30Q377 -108 334.5 -149.5Q292 -191 226 -191Q212 -191 197 -189.5Q182 -188 165 -185L183 -85Q192 -86 198 -86.5Q204 -87 210 -87Q238 -87 251.5 -73Q265 -59 270 -28L275 0L317 238Q325 282 312.5 303Q300 324 267 324Q234 324 211 301.5Q188 279 181 240L139 0H19L92 415Z" glyph-name="eng" horiz-adv-x="479" unicode="ŋ" /><glyph d="M177 415 180 368Q207 397 238 411.5Q269 426 304 426Q380 426 416 373.5Q452 321 437 238L395 0H275L317 238Q325 282 312.5 303Q300 324 267 324Q234 324 211 301.5Q188 279 181 240L139 0H19L92 415ZM341 587Q351 587 357 594.5Q363 602 366 619H445Q438 560 413.5 526.5Q389 493 352 493Q341 493 329.5 496.5Q318 500 298 510Q282 518 275 520.5Q268 523 262 523Q252 523 246 515.5Q240 508 237 491H158Q165 550 189.5 583.5Q214 617 251 617Q262 617 273.5 613.5Q285 610 305 600Q321 592 328 589.5Q335 587 341 587Z" glyph-name="ntilde" horiz-adv-x="479" unicode="ñ" /><glyph d="M177 415 180 368Q207 397 238 411.5Q269 426 304 426Q380 426 416 373.5Q452 321 437 238L395 0H275L317 238Q325 282 312.5 303Q300 324 267 324Q234 324 211 301.5Q188 279 181 240L139 0H19L92 415ZM249 465 206 542L359 638L407 551Z" glyph-name="nacute" horiz-adv-x="479" unicode="ń" /><glyph d="M177 415 180 368Q207 397 238 411.5Q269 426 304 426Q380 426 416 373.5Q452 321 437 238L395 0H275L317 238Q325 282 312.5 303Q300 324 267 324Q234 324 211 301.5Q188 279 181 240L139 0H19L92 415ZM219 633 307 583L412 633L449 559L297 477L174 559Z" glyph-name="ncaron" horiz-adv-x="479" unicode="ň" /><glyph d="M177 415 180 368Q207 397 238 411.5Q269 426 304 426Q380 426 416 373.5Q452 321 437 238L395 0H275L317 238Q325 282 312.5 303Q300 324 267 324Q234 324 211 301.5Q188 279 181 240L139 0H19L92 415ZM181 -225 103 -187L172 -41L260 -83Z" glyph-name="ncommaaccent" horiz-adv-x="479" unicode="ņ" /><glyph d="M32 175 43 240Q59 332 113.5 379Q168 426 259 426Q348 426 391 376.5Q434 327 419 240L408 175Q391 83 336.5 36Q282 -11 192 -11Q103 -11 59.5 39Q16 89 32 175ZM288 172 301 243Q309 288 295.5 309.5Q282 331 247 331Q212 331 191.5 309.5Q171 288 163 243L150 172Q142 126 154.5 105Q167 84 203 84Q239 84 259.5 105Q280 126 288 172ZM226 465 183 542L336 638L384 551Z" glyph-name="oacute" horiz-adv-x="451" unicode="ó" /><glyph d="M32 175 43 240Q59 332 113.5 379Q168 426 259 426Q348 426 391 376.5Q434 327 419 240L408 175Q391 83 336.5 36Q282 -11 192 -11Q103 -11 59.5 39Q16 89 32 175ZM288 172 301 243Q309 288 295.5 309.5Q282 331 247 331Q212 331 191.5 309.5Q171 288 163 243L150 172Q142 126 154.5 105Q167 84 203 84Q239 84 259.5 105Q280 126 288 172ZM172 477 139 553L288 633L412 551L365 477L278 527Z" glyph-name="ocircumflex" horiz-adv-x="451" unicode="ô" /><glyph d="M32 175 43 240Q59 332 113.5 379Q168 426 259 426Q348 426 391 376.5Q434 327 419 240L408 175Q391 83 336.5 36Q282 -11 192 -11Q103 -11 59.5 39Q16 89 32 175ZM288 172 301 243Q309 288 295.5 309.5Q282 331 247 331Q212 331 191.5 309.5Q171 288 163 243L150 172Q142 126 154.5 105Q167 84 203 84Q239 84 259.5 105Q280 126 288 172ZM360 472 290 559L384 638L455 551ZM162 472 92 559L186 638L257 551Z" glyph-name="odieresis" horiz-adv-x="451" unicode="ö" /><glyph d="M32 175 43 240Q59 332 113.5 379Q168 426 259 426Q348 426 391 376.5Q434 327 419 240L408 175Q391 83 336.5 36Q282 -11 192 -11Q103 -11 59.5 39Q16 89 32 175ZM288 172 301 243Q309 288 295.5 309.5Q282 331 247 331Q212 331 191.5 309.5Q171 288 163 243L150 172Q142 126 154.5 105Q167 84 203 84Q239 84 259.5 105Q280 126 288 172ZM318 465 178 559L238 645L371 539Z" glyph-name="ograve" horiz-adv-x="451" unicode="ò" /><glyph d="M32 175 43 240Q59 332 113.5 379Q168 426 259 426Q348 426 391 376.5Q434 327 419 240L408 175Q391 83 336.5 36Q282 -11 192 -11Q103 -11 59.5 39Q16 89 32 175ZM288 172 301 243Q309 288 295.5 309.5Q282 331 247 331Q212 331 191.5 309.5Q171 288 163 243L150 172Q142 126 154.5 105Q167 84 203 84Q239 84 259.5 105Q280 126 288 172ZM318 587Q328 587 334 594.5Q340 602 343 619H422Q415 560 390.5 526.5Q366 493 329 493Q318 493 306.5 496.5Q295 500 275 510Q259 518 252 520.5Q245 523 239 523Q229 523 223 515.5Q217 508 214 491H135Q142 550 166.5 583.5Q191 617 228 617Q239 617 250.5 613.5Q262 610 282 600Q298 592 305 589.5Q312 587 318 587Z" glyph-name="otilde" horiz-adv-x="451" unicode="õ" /><glyph d="M32 175 43 240Q59 332 113.5 379Q168 426 259 426Q348 426 391 376.5Q434 327 419 240L408 175Q391 83 336.5 36Q282 -11 192 -11Q103 -11 59.5 39Q16 89 32 175ZM288 172 301 243Q309 288 295.5 309.5Q282 331 247 331Q212 331 191.5 309.5Q171 288 163 243L150 172Q142 126 154.5 105Q167 84 203 84Q239 84 259.5 105Q280 126 288 172ZM285 574Q303 574 315 586.5Q327 599 333 624H414Q404 560 367 523.5Q330 487 275 487Q221 487 192 525.5Q163 564 173 624H255Q252 599 259.5 586.5Q267 574 285 574Z" glyph-name="obreve" horiz-adv-x="451" unicode="ŏ" /><glyph d="M32 175 43 240Q59 332 113.5 379Q168 426 259 426Q348 426 391 376.5Q434 327 419 240L408 175Q391 83 336.5 36Q282 -11 192 -11Q103 -11 59.5 39Q16 89 32 175ZM288 172 301 243Q309 288 295.5 309.5Q282 331 247 331Q212 331 191.5 309.5Q171 288 163 243L150 172Q142 126 154.5 105Q167 84 203 84Q239 84 259.5 105Q280 126 288 172ZM336 466 284 527L405 641L465 574ZM163 466 112 528L232 641L292 575Z" glyph-name="ohungarumlaut" horiz-adv-x="451" unicode="ő" /><glyph d="M32 175 43 240Q59 332 113.5 379Q168 426 259 426Q348 426 391 376.5Q434 327 419 240L408 175Q391 83 336.5 36Q282 -11 192 -11Q103 -11 59.5 39Q16 89 32 175ZM288 172 301 243Q309 288 295.5 309.5Q282 331 247 331Q212 331 191.5 309.5Q171 288 163 243L150 172Q142 126 154.5 105Q167 84 203 84Q239 84 259.5 105Q280 126 288 172ZM169 499 185 589H398L382 499Z" glyph-name="omacron" horiz-adv-x="451" unicode="ō" /><glyph d="M176 415 183 348Q211 387 242 405Q273 423 312 423Q325 423 338 421Q351 419 364 415L333 300Q320 303 310.5 304.5Q301 306 290 306Q243 306 212 273Q181 240 170 177L139 0H19L92 415ZM195 465 152 542L305 638L353 551Z" glyph-name="racute" horiz-adv-x="335" unicode="ŕ" /><glyph d="M176 415 183 348Q211 387 242 405Q273 423 312 423Q325 423 338 421Q351 419 364 415L333 300Q320 303 310.5 304.5Q301 306 290 306Q243 306 212 273Q181 240 170 177L139 0H19L92 415ZM165 633 253 583L358 633L395 559L243 477L120 559Z" glyph-name="rcaron" horiz-adv-x="335" unicode="ř" /><glyph d="M176 415 183 348Q211 387 242 405Q273 423 312 423Q325 423 338 421Q351 419 364 415L333 300Q320 303 310.5 304.5Q301 306 290 306Q243 306 212 273Q181 240 170 177L139 0H19L92 415ZM45 -225 -33 -187L36 -41L124 -83Z" glyph-name="rcommaaccent" horiz-adv-x="335" unicode="ŗ" /><glyph d="M123 184Q75 212 57.5 244Q40 276 49 318Q60 369 106 397.5Q152 426 221 426Q254 426 291.5 417Q329 408 359 392L317 303Q289 316 265 322Q241 328 220 328Q196 328 181.5 321.5Q167 315 166 303Q164 289 176.5 277.5Q189 266 230 242Q282 212 302 179.5Q322 147 316 106Q307 50 260 19.5Q213 -11 140 -11Q99 -11 64.5 -4.5Q30 2 -7 16L26 111Q54 99 84.5 93Q115 87 143 87Q169 87 183 93.5Q197 100 199 113Q201 129 187.5 141.5Q174 154 123 184ZM141 633 229 583L334 633L371 559L219 477L96 559Z" glyph-name="scaron" horiz-adv-x="360" unicode="š" /><glyph d="M123 184Q75 212 57.5 244Q40 276 49 318Q60 369 106 397.5Q152 426 221 426Q254 426 291.5 417Q329 408 359 392L317 303Q289 316 265 322Q241 328 220 328Q196 328 181.5 321.5Q167 315 166 303Q164 289 176.5 277.5Q189 266 230 242Q282 212 302 179.5Q322 147 316 106Q307 50 260 19.5Q213 -11 140 -11Q99 -11 64.5 -4.5Q30 2 -7 16L26 111Q54 99 84.5 93Q115 87 143 87Q169 87 183 93.5Q197 100 199 113Q201 129 187.5 141.5Q174 154 123 184ZM171 465 128 542L281 638L329 551Z" glyph-name="sacute" horiz-adv-x="360" unicode="ś" /><glyph d="M123 184Q75 212 57.5 244Q40 276 49 318Q60 369 106 397.5Q152 426 221 426Q254 426 291.5 417Q329 408 359 392L317 303Q289 316 265 322Q241 328 220 328Q196 328 181.5 321.5Q167 315 166 303Q164 289 176.5 277.5Q189 266 230 242Q282 212 302 179.5Q322 147 316 106Q307 50 260 19.5Q213 -11 140 -11Q99 -11 64.5 -4.5Q30 2 -7 16L26 111Q54 99 84.5 93Q115 87 143 87Q169 87 183 93.5Q197 100 199 113Q201 129 187.5 141.5Q174 154 123 184ZM133 477 100 553L249 633L373 551L326 477L239 527Z" glyph-name="scircumflex" horiz-adv-x="360" unicode="ŝ" /><glyph d="M123 184Q75 212 57.5 244Q40 276 49 318Q60 369 106 397.5Q152 426 221 426Q254 426 291.5 417Q329 408 359 392L317 303Q289 316 265 322Q241 328 220 328Q196 328 181.5 321.5Q167 315 166 303Q164 289 176.5 277.5Q189 266 230 242Q282 212 302 179.5Q322 147 316 106Q307 50 260 19.5Q213 -11 140 -11Q99 -11 64.5 -4.5Q30 2 -7 16L26 111Q54 99 84.5 93Q115 87 143 87Q169 87 183 93.5Q197 100 199 113Q201 129 187.5 141.5Q174 154 123 184ZM112 -225 34 -187L103 -41L191 -83Z" glyph-name="scedilla" horiz-adv-x="360" unicode="ş" /><glyph d="M123 184Q75 212 57.5 244Q40 276 49 318Q60 369 106 397.5Q152 426 221 426Q254 426 291.5 417Q329 408 359 392L317 303Q289 316 265 322Q241 328 220 328Q196 328 181.5 321.5Q167 315 166 303Q164 289 176.5 277.5Q189 266 230 242Q282 212 302 179.5Q322 147 316 106Q307 50 260 19.5Q213 -11 140 -11Q99 -11 64.5 -4.5Q30 2 -7 16L26 111Q54 99 84.5 93Q115 87 143 87Q169 87 183 93.5Q197 100 199 113Q201 129 187.5 141.5Q174 154 123 184ZM112 -225 34 -187L103 -41L191 -83Z" glyph-name="uni0219" horiz-adv-x="360" unicode="ș" /><glyph d="M169 512 260 512L243 415H317L300 318H226L217 267H288L275 196H205L196 147Q191 123 198.5 111Q206 99 225 99Q229 99 233.5 99.5Q238 100 249 101L260 -5Q248 -7 237 -7.5Q226 -8 214 -8Q138 -8 101 36Q64 80 77 152L85 196H14L27 267H97L106 318H32L49 415H69Q112 415 133.5 437.5Q155 460 169 512Z" glyph-name="tbar" horiz-adv-x="314" unicode="ŧ" /><glyph d="M166 512 257 512L240 415H314L297 318H223L193 147Q188 123 195.5 110.5Q203 98 222 98Q226 98 230.5 98.5Q235 99 246 100L257 -5Q245 -7 234 -7.5Q223 -8 211 -8Q135 -8 98 36Q61 80 74 152L103 318H29L46 415H66Q109 415 130.5 437.5Q152 460 166 512ZM367 443 289 482Q317 543 334.5 582.5Q352 622 359 640L447 604Q439 585 419 545Q399 505 367 443Z" glyph-name="tcaron" horiz-adv-x="311" unicode="ť" /><glyph d="M166 512 257 512L240 415H314L297 318H223L193 147Q188 123 195.5 110.5Q203 98 222 98Q226 98 230.5 98.5Q235 99 246 100L257 -5Q245 -7 234 -7.5Q223 -8 211 -8Q135 -8 98 36Q61 80 74 152L103 318H29L46 415H66Q109 415 130.5 437.5Q152 460 166 512ZM122 -225 44 -187L113 -41L201 -83Z" glyph-name="uni0163" horiz-adv-x="311" unicode="ţ" /><glyph d="M166 512 257 512L240 415H314L297 318H223L193 147Q188 123 195.5 110.5Q203 98 222 98Q226 98 230.5 98.5Q235 99 246 100L257 -5Q245 -7 234 -7.5Q223 -8 211 -8Q135 -8 98 36Q61 80 74 152L103 318H29L46 415H66Q109 415 130.5 437.5Q152 460 166 512ZM122 -225 44 -187L113 -41L201 -83Z" glyph-name="uni021B" horiz-adv-x="311" unicode="ț" /><glyph d="M298 175 340 415H460L387 0H302L299 47Q272 18 241 3.5Q210 -11 175 -11Q99 -11 63 41.5Q27 94 42 177L84 415H204L162 177Q154 133 166.5 112Q179 91 212 91Q245 91 268 113.5Q291 136 298 175ZM236 465 193 542L346 638L394 551Z" glyph-name="uacute" horiz-adv-x="479" unicode="ú" /><glyph d="M298 175 340 415H460L387 0H302L299 47Q272 18 241 3.5Q210 -11 175 -11Q99 -11 63 41.5Q27 94 42 177L84 415H204L162 177Q154 133 166.5 112Q179 91 212 91Q245 91 268 113.5Q291 136 298 175ZM182 477 149 553L298 633L422 551L375 477L288 527Z" glyph-name="ucircumflex" horiz-adv-x="479" unicode="û" /><glyph d="M298 175 340 415H460L387 0H302L299 47Q272 18 241 3.5Q210 -11 175 -11Q99 -11 63 41.5Q27 94 42 177L84 415H204L162 177Q154 133 166.5 112Q179 91 212 91Q245 91 268 113.5Q291 136 298 175ZM370 472 300 559L394 638L465 551ZM172 472 102 559L196 638L267 551Z" glyph-name="udieresis" horiz-adv-x="479" unicode="ü" /><glyph d="M298 175 340 415H460L387 0H302L299 47Q272 18 241 3.5Q210 -11 175 -11Q99 -11 63 41.5Q27 94 42 177L84 415H204L162 177Q154 133 166.5 112Q179 91 212 91Q245 91 268 113.5Q291 136 298 175ZM328 465 188 559L248 645L381 539Z" glyph-name="ugrave" horiz-adv-x="479" unicode="ù" /><glyph d="M298 175 340 415H460L387 0H302L299 47Q272 18 241 3.5Q210 -11 175 -11Q99 -11 63 41.5Q27 94 42 177L84 415H204L162 177Q154 133 166.5 112Q179 91 212 91Q245 91 268 113.5Q291 136 298 175ZM301 574Q319 574 331 586.5Q343 599 349 624H430Q420 560 383 523.5Q346 487 291 487Q237 487 208 525.5Q179 564 189 624H271Q268 599 275.5 586.5Q283 574 301 574Z" glyph-name="ubreve" horiz-adv-x="479" unicode="ŭ" /><glyph d="M298 175 340 415H460L387 0H302L299 47Q272 18 241 3.5Q210 -11 175 -11Q99 -11 63 41.5Q27 94 42 177L84 415H204L162 177Q154 133 166.5 112Q179 91 212 91Q245 91 268 113.5Q291 136 298 175ZM346 466 294 527L415 641L475 574ZM173 466 122 528L242 641L302 575Z" glyph-name="uhungarumlaut" horiz-adv-x="479" unicode="ű" /><glyph d="M298 175 340 415H460L387 0H302L299 47Q272 18 241 3.5Q210 -11 175 -11Q99 -11 63 41.5Q27 94 42 177L84 415H204L162 177Q154 133 166.5 112Q179 91 212 91Q245 91 268 113.5Q291 136 298 175ZM179 499 195 589H408L392 499Z" glyph-name="umacron" horiz-adv-x="479" unicode="ū" /><glyph d="M232 -98Q236 -73 255 -47Q274 -21 302 0L299 47Q272 18 241 3.5Q210 -11 175 -11Q99 -11 63 41.5Q27 94 42 177L84 415H204L162 177Q154 133 166.5 112Q179 91 212 91Q245 91 268 113.5Q291 136 298 175L340 415H460L387 0Q356 -28 343.5 -45Q331 -62 328 -76Q326 -91 334.5 -98Q343 -105 364 -105L349 -191Q284 -191 254 -167Q224 -143 232 -98Z" glyph-name="uogonek" horiz-adv-x="479" unicode="ų" /><glyph d="M298 175 340 415H460L387 0H302L299 47Q272 18 241 3.5Q210 -11 175 -11Q99 -11 63 41.5Q27 94 42 177L84 415H204L162 177Q154 133 166.5 112Q179 91 212 91Q245 91 268 113.5Q291 136 298 175ZM179 574 181 589Q190 638 225.5 667Q261 696 315 696Q368 696 397 665Q426 634 418 589L416 574Q407 525 371 496Q335 467 281 467Q228 467 199.5 498Q171 529 179 574ZM337 575 339 587Q343 610 336 620.5Q329 631 308 631Q287 631 275.5 620.5Q264 610 260 587L258 575Q254 551 261.5 540.5Q269 530 290 530Q311 530 322 540.5Q333 551 337 575Z" glyph-name="uring" horiz-adv-x="479" unicode="ů" /><glyph d="M298 175 340 415H460L387 0H302L299 47Q272 18 241 3.5Q210 -11 175 -11Q99 -11 63 41.5Q27 94 42 177L84 415H204L162 177Q154 133 166.5 112Q179 91 212 91Q245 91 268 113.5Q291 136 298 175ZM333 584Q343 584 349 591.5Q355 599 358 616H437Q430 557 405.5 523.5Q381 490 344 490Q333 490 321.5 493.5Q310 497 290 507Q274 515 267 517.5Q260 520 254 520Q244 520 238 512.5Q232 505 229 488H150Q157 547 181.5 580.5Q206 614 243 614Q254 614 265.5 610.5Q277 607 297 597Q313 589 320 586.5Q327 584 333 584Z" glyph-name="utilde" horiz-adv-x="479" unicode="ũ" /><glyph d="M485 111 601 415H728L561 0H393L371 267L255 0H87L66 415H183L193 111L330 415H454ZM356 465 313 542L466 638L514 551Z" glyph-name="wacute" horiz-adv-x="721" unicode="ẃ" /><glyph d="M485 111 601 415H728L561 0H393L371 267L255 0H87L66 415H183L193 111L330 415H454ZM302 477 269 553L418 633L542 551L495 477L408 527Z" glyph-name="wcircumflex" horiz-adv-x="721" unicode="ŵ" /><glyph d="M485 111 601 415H728L561 0H393L371 267L255 0H87L66 415H183L193 111L330 415H454ZM490 472 420 559L514 638L585 551ZM292 472 222 559L316 638L387 551Z" glyph-name="wdieresis" horiz-adv-x="721" unicode="ẅ" /><glyph d="M485 111 601 415H728L561 0H393L371 267L255 0H87L66 415H183L193 111L330 415H454ZM448 465 308 559L368 645L501 539Z" glyph-name="wgrave" horiz-adv-x="721" unicode="ẁ" /><glyph d="M209 141 350 415H483L215 -72Q179 -138 142 -164.5Q105 -191 54 -191Q41 -191 27.5 -190Q14 -189 -1 -186L17 -85Q27 -86 32.5 -86.5Q38 -87 43 -87Q67 -87 82 -76.5Q97 -66 108 -43L126 -5L41 415H164ZM221 465 178 542L331 638L379 551Z" glyph-name="yacute" horiz-adv-x="451" unicode="ý" /><glyph d="M209 141 350 415H483L215 -72Q179 -138 142 -164.5Q105 -191 54 -191Q41 -191 27.5 -190Q14 -189 -1 -186L17 -85Q27 -86 32.5 -86.5Q38 -87 43 -87Q67 -87 82 -76.5Q97 -66 108 -43L126 -5L41 415H164ZM355 472 285 559L379 638L450 551ZM157 472 87 559L181 638L252 551Z" glyph-name="ydieresis" horiz-adv-x="451" unicode="ÿ" /><glyph d="M209 141 350 415H483L215 -72Q179 -138 142 -164.5Q105 -191 54 -191Q41 -191 27.5 -190Q14 -189 -1 -186L17 -85Q27 -86 32.5 -86.5Q38 -87 43 -87Q67 -87 82 -76.5Q97 -66 108 -43L126 -5L41 415H164ZM167 477 134 553L283 633L407 551L360 477L273 527Z" glyph-name="ycircumflex" horiz-adv-x="451" unicode="ŷ" /><glyph d="M209 141 350 415H483L215 -72Q179 -138 142 -164.5Q105 -191 54 -191Q41 -191 27.5 -190Q14 -189 -1 -186L17 -85Q27 -86 32.5 -86.5Q38 -87 43 -87Q67 -87 82 -76.5Q97 -66 108 -43L126 -5L41 415H164ZM313 465 173 559L233 645L366 539Z" glyph-name="ygrave" horiz-adv-x="451" unicode="ỳ" /><glyph d="M55 317 72 415H389L372 317L154 98H338L321 0H-6L11 98L228 317ZM155 633 243 583L348 633L385 559L233 477L110 559Z" glyph-name="zcaron" horiz-adv-x="400" unicode="ž" /><glyph d="M55 317 72 415H389L372 317L154 98H338L321 0H-6L11 98L228 317ZM185 465 142 542L295 638L343 551Z" glyph-name="zacute" horiz-adv-x="400" unicode="ź" /><glyph d="M55 317 72 415H389L372 317L154 98H338L321 0H-6L11 98L228 317ZM226 463 151 556L252 641L328 548Z" glyph-name="zdotaccent" horiz-adv-x="400" unicode="ż" /><glyph d="M185 465 142 542L295 638L343 551Z" glyph-name="acute" horiz-adv-x="245" unicode="´" /><glyph d="M313 465 173 559L233 645L366 539Z" glyph-name="grave" horiz-adv-x="310" unicode="`" /><glyph d="M167 477 134 553L283 633L407 551L360 477L273 527Z" glyph-name="circumflex" horiz-adv-x="356" unicode="ˆ" /><glyph d="M155 633 243 583L348 633L385 559L233 477L110 559Z" glyph-name="caron" horiz-adv-x="357" unicode="ˇ" /><glyph d="M333 584Q343 584 349 591.5Q355 599 358 616H437Q430 557 405.5 523.5Q381 490 344 490Q333 490 321.5 493.5Q310 497 290 507Q274 515 267 517.5Q260 520 254 520Q244 520 238 512.5Q232 505 229 488H150Q157 547 181.5 580.5Q206 614 243 614Q254 614 265.5 610.5Q277 607 297 597Q313 589 320 586.5Q327 584 333 584Z" glyph-name="tilde" horiz-adv-x="349" unicode="˜" /><glyph d="M355 472 285 559L379 638L450 551ZM157 472 87 559L181 638L252 551Z" glyph-name="dieresis" horiz-adv-x="471" unicode="¨" /><glyph d="M179 574 181 589Q190 638 225.5 667Q261 696 315 696Q368 696 397 665Q426 634 418 589L416 574Q407 525 371 496Q335 467 281 467Q228 467 199.5 498Q171 529 179 574ZM337 575 339 587Q343 610 336 620.5Q329 631 308 631Q287 631 275.5 620.5Q264 610 260 587L258 575Q254 551 261.5 540.5Q269 530 290 530Q311 530 322 540.5Q333 551 337 575Z" glyph-name="ring" horiz-adv-x="351" unicode="˚" /><glyph d="M112 -225 34 -187L103 -41L191 -83Z" glyph-name="cedilla" horiz-adv-x="105" unicode="¸" /><glyph d="M346 466 294 527L415 641L475 574ZM173 466 122 528L242 641L302 575Z" glyph-name="hungarumlaut" horiz-adv-x="422" unicode="˝" /><glyph d="M301 574Q319 574 331 586.5Q343 599 349 624H430Q420 560 383 523.5Q346 487 291 487Q237 487 208 525.5Q179 564 189 624H271Q268 599 275.5 586.5Q283 574 301 574Z" glyph-name="breve" horiz-adv-x="284" unicode="˘" /><glyph d="M179 499 195 589H408L392 499Z" glyph-name="macron" horiz-adv-x="361" unicode="¯" /><glyph d="M226 463 151 556L252 641L328 548Z" glyph-name="dotaccent" horiz-adv-x="279" unicode="˙" /><glyph d="M118 163 39 260L145 349L225 252Z" glyph-name="periodcentered" horiz-adv-x="247" unicode="·" /><glyph d="M12 -98Q16 -73 35 -47Q54 -21 82 0H167Q136 -28 123.5 -45Q111 -62 108 -76Q106 -91 114.5 -98Q123 -105 144 -105L129 -191Q64 -191 34 -167Q4 -143 12 -98Z" glyph-name="ogonek" horiz-adv-x="158" unicode="˛" /><glyph d="M122 -225 44 -187L113 -41L201 -83Z" glyph-name="commaaccent" horiz-adv-x="105" unicode="" /><glyph d="M277 635 355 597L289 456L201 498Z" glyph-name="revcommaaccent" horiz-adv-x="105" unicode="" /><glyph d="M367 443 289 482Q317 543 334.5 582.5Q352 622 359 640L447 604Q439 585 419 545Q399 505 367 443Z" glyph-name="caron.alt" horiz-adv-x="134" unicode="" /><glyph d="M75 -32 -3 65L102 154L182 57Z" glyph-name="period" horiz-adv-x="230" unicode="." /><glyph d="M56 -144 -33 -100Q-11 -49 22.5 36Q56 121 61 134L174 86Q146 28 116.5 -30Q87 -88 56 -144Z" glyph-name="comma" horiz-adv-x="230" unicode="," /><glyph d="M126 258 48 355L154 444L233 347ZM76 -32 -2 65L104 154L183 57Z" glyph-name="colon" horiz-adv-x="230" unicode=":" /><glyph d="M54 -144 -35 -100Q-13 -49 20.5 36Q54 121 59 134L172 86Q144 28 114.5 -30Q85 -88 54 -144ZM126 258 47 355L153 444L233 347Z" glyph-name="semicolon" horiz-adv-x="230" unicode=";" /><glyph d="M516 -23 445 66L541 146L613 57ZM76 -23 5 66L101 146L173 57ZM296 -23 225 66L321 146L393 57Z" glyph-name="ellipsis" horiz-adv-x="669" unicode="…" /><glyph d="M84 394 49 489Q106 513 142 520.5Q178 528 218 528Q296 528 342 484.5Q388 441 377 377Q370 332 340.5 292Q311 252 228 191L195 167L138 249L173 274Q221 308 239 329Q257 350 260 371Q264 396 247.5 411Q231 426 202 426Q179 426 154 419.5Q129 413 84 394ZM131 -28 55 64L155 150L232 58Z" glyph-name="question" horiz-adv-x="378" unicode="?" /><glyph d="M61 194 115 512H239L181 194ZM85 -30 9 62L109 148L186 56Z" glyph-name="exclam" horiz-adv-x="247" unicode="!" /><glyph d="M-5 34Q2 79 31.5 119Q61 159 144 220L177 244L234 162L199 137Q151 103 133 82Q115 61 112 40Q108 15 124.5 0Q141 -15 170 -15Q193 -15 218 -8.5Q243 -2 288 17L323 -78Q266 -102 230 -109.5Q194 -117 154 -117Q76 -117 30 -73.5Q-16 -30 -5 34ZM217 261 140 353L241 439L317 347Z" glyph-name="questiondown" horiz-adv-x="345" unicode="¿" /><glyph d="M4 -116 62 202H182L128 -116ZM135 248 58 340L159 426L235 334Z" glyph-name="exclamdown" horiz-adv-x="247" unicode="¡" /><glyph d="M263 631 295 649L349 555L319 537Q268 506 237 459Q206 412 195 349L161 157Q150 93 164 44.5Q178 -4 217 -34L240 -52L172 -139L144 -118Q78 -71 52.5 4Q27 79 44 172L78 364Q94 459 138.5 522.5Q183 586 263 631Z" glyph-name="parenleft" horiz-adv-x="291" unicode="(" /><glyph d="M90 537 67 555L135 642L163 621Q229 574 254.5 499Q280 424 263 331L229 139Q213 44 168.5 -19.5Q124 -83 44 -128L12 -146L-42 -52L-12 -34Q39 -3 70 44Q101 91 112 154L146 346Q157 410 143 458.5Q129 507 90 537Z" glyph-name="parenright" horiz-adv-x="291" unicode=")" /><glyph d="M154 -139 30 267L290 665L387 600L159 250L266 -102Z" glyph-name="parenleft.alt" horiz-adv-x="334" unicode="" /><glyph d="M190 248 83 600L195 637L319 231L59 -167L-38 -102Z" glyph-name="parenright.alt" horiz-adv-x="334" unicode="" /><glyph d="M348 636 375 636L357 536H331Q302 536 283 520Q264 504 259 476L243 386Q233 329 211 299Q189 269 147 250Q182 232 194 204Q206 176 197 125L181 34Q176 6 189.5 -9.5Q203 -25 233 -25H259L241 -125H214Q131 -125 90.5 -81.5Q50 -38 64 38L81 136Q87 168 73 185.5Q59 203 23 208L39 303Q76 308 96.5 325.5Q117 343 123 375L140 472Q155 555 206.5 595.5Q258 636 348 636Z" glyph-name="braceleft" horiz-adv-x="320" unicode="{" /><glyph d="M78 536 96 636H123Q206 636 246.5 592.5Q287 549 273 473L256 375Q250 343 264 325.5Q278 308 314 303L298 208Q261 203 240.5 185.5Q220 168 214 136L197 39Q182 -44 130.5 -84.5Q79 -125 -11 -125H-38L-20 -25H6Q35 -25 54 -9Q73 7 78 35L94 125Q104 182 126 212Q148 242 190 261Q155 279 143 307Q131 335 140 386L156 477Q161 505 147.5 520.5Q134 536 104 536Z" glyph-name="braceright" horiz-adv-x="320" unicode="}" /><glyph d="M390 636 417 636L399 536H373Q344 536 325.5 520.5Q307 505 301 476L291 425Q277 352 230 304Q183 256 68 205L28 299Q113 341 140 367Q167 393 174 429L182 472Q198 556 249 596Q300 636 390 636ZM118 192 216 230Q232 195 236 163Q240 131 233 92L223 34Q218 6 231.5 -9.5Q245 -25 275 -25H301L283 -125H256Q173 -125 132.5 -81.5Q92 -38 106 38L115 92Q123 139 123 157Q123 175 118 192Z" glyph-name="braceleft.alt" horiz-adv-x="362" unicode="" /><glyph d="M78 35 88 86Q102 159 149 207Q196 255 311 306L351 212Q266 170 239 144Q212 118 205 82L197 39Q181 -45 130 -85Q79 -125 -11 -125H-38L-20 -25H6Q35 -25 53.5 -9.5Q72 6 78 35ZM78 536 96 636H123Q206 636 246.5 592.5Q287 549 273 473L264 419Q256 372 256 354Q256 336 261 319L163 281Q147 316 143 348Q139 380 146 419L156 477Q161 505 147.5 520.5Q134 536 104 536Z" glyph-name="braceright.alt" horiz-adv-x="362" unicode="" /><glyph d="M-1 -125 133 636H351L333 536H233L135 -25H235L217 -125Z" glyph-name="bracketleft" horiz-adv-x="296" unicode="[" /><glyph d="M78 536 96 636H314L180 -125H-38L-20 -25H80L178 536Z" glyph-name="bracketright" horiz-adv-x="296" unicode="]" /><glyph d="M94 415 133 636H351L333 536H233L212 415ZM-1 -125 38 96H156L135 -25H235L217 -125Z" glyph-name="bracketleft.alt" horiz-adv-x="296" unicode="" /><glyph d="M80 -25 101 96H219L180 -125H-38L-20 -25ZM78 536 96 636H314L275 415H157L178 536Z" glyph-name="bracketright.alt" horiz-adv-x="296" unicode="" /><glyph d="M-28 -86 260 595H381L94 -86Z" glyph-name="slash" horiz-adv-x="339" unicode="/" /><glyph d="M139 -86 91 595H200L248 -86Z" glyph-name="backslash" horiz-adv-x="322" unicode="\" /><glyph d="M-41 -146 -24 -51H281L264 -146Z" glyph-name="underscore" horiz-adv-x="348" unicode="_" /><glyph d="M35 205 53 308H281L263 205Z" glyph-name="hyphen" horiz-adv-x="298" unicode="-" /><glyph d="" glyph-name="uni00AD" horiz-adv-x="0" unicode="­" /><glyph d="M35 205 53 308H403L385 205Z" glyph-name="endash" horiz-adv-x="420" unicode="–" /><glyph d="M35 205 53 308H560L542 205Z" glyph-name="emdash" horiz-adv-x="577" unicode="—" /><glyph d="M82 357 124 595H237L195 357ZM4 -86 46 152H159L117 -86Z" glyph-name="brokenbar" horiz-adv-x="224" unicode="¦" /><glyph d="M3 -86 123 594H154L34 -86Z" glyph-name="bar" horiz-adv-x="141" unicode="|" /><glyph d="M3 -86 123 595H236L116 -86Z" glyph-name="bar.alt" horiz-adv-x="223" unicode="" /><glyph d="M162 418 73 445Q88 500 99.5 552.5Q111 605 121 657L234 629Q219 577 201.5 525Q184 473 162 418Z" glyph-name="apostrophe" horiz-adv-x="158" unicode="ʼ" /><glyph d="M335 87 245 264L394 426L462 360L366 255L420 129ZM135 87 45 264L194 426L262 360L166 255L220 129Z" glyph-name="guillemotleft" horiz-adv-x="475" unicode="«" /><glyph d="M326 256 272 382L357 424L447 247L298 85L230 151ZM126 256 72 382L157 424L247 247L98 85L30 151Z" glyph-name="guillemotright" horiz-adv-x="475" unicode="»" /><glyph d="M135 87 45 264L194 426L262 360L166 255L220 129Z" glyph-name="guilsinglleft" horiz-adv-x="275" unicode="‹" /><glyph d="M126 256 72 382L157 424L247 247L98 85L30 151Z" glyph-name="guilsinglright" horiz-adv-x="275" unicode="›" /><glyph d="M40 -139 -44 -99Q-18 -39 2.5 10.5Q23 60 41 108L147 63Q127 21 104 -22.5Q81 -66 40 -139Z" glyph-name="quotesinglbase" horiz-adv-x="208" unicode="‚" /><glyph d="M223 -139 140 -99Q166 -39 186.5 10.5Q207 60 225 108L331 63Q309 17 284 -29.5Q259 -76 223 -139ZM40 -139 -44 -99Q-18 -39 2.5 10.5Q23 60 41 108L147 63Q127 21 104 -22.5Q81 -66 40 -139Z" glyph-name="quotedblbase" horiz-adv-x="392" unicode="„" /><glyph d="M173 380 67 425Q89 471 114 517.5Q139 564 175 627L258 587Q232 527 211.5 477.5Q191 428 173 380Z" glyph-name="quoteleft" horiz-adv-x="208" unicode="‘" /><glyph d="M357 380 251 425Q271 467 294 510.5Q317 554 358 627L442 587Q416 527 395.5 477.5Q375 428 357 380ZM173 380 67 425Q89 471 114 517.5Q139 564 175 627L258 587Q232 527 211.5 477.5Q191 428 173 380Z" glyph-name="quotedblleft" horiz-adv-x="392" unicode="“" /><glyph d="M154 380 70 420Q96 480 116.5 529.5Q137 579 155 627L261 582Q241 540 218 496.5Q195 453 154 380Z" glyph-name="quoteright" horiz-adv-x="208" unicode="’" /><glyph d="M337 380 254 420Q280 480 300.5 529.5Q321 579 339 627L445 582Q423 536 398 489.5Q373 443 337 380ZM154 380 70 420Q96 480 116.5 529.5Q137 579 155 627L261 582Q241 540 218 496.5Q195 453 154 380Z" glyph-name="quotedblright" horiz-adv-x="392" unicode="”" /><glyph d="M154 380 70 420Q96 480 116.5 529.5Q137 579 155 627L261 582Q241 540 218 496.5Q195 453 154 380Z" glyph-name="quotesingle" horiz-adv-x="208" unicode="'" /><glyph d="M337 380 254 420Q280 480 300.5 529.5Q321 579 339 627L445 582Q423 536 398 489.5Q373 443 337 380ZM154 380 70 420Q96 480 116.5 529.5Q137 579 155 627L261 582Q241 540 218 496.5Q195 453 154 380Z" glyph-name="quotedbl" horiz-adv-x="392" unicode="&quot;" /><glyph d="M181 89 40 264L231 423L374 248Z" glyph-name="bullet" horiz-adv-x="397" unicode="•" /><glyph d="M31 231 39 277Q51 344 89.5 377.5Q128 411 193 411Q259 411 289.5 375Q320 339 309 277L301 231Q290 165 251.5 131Q213 97 148 97Q83 97 52 133Q21 169 31 231Z" glyph-name="bullet.alt" horiz-adv-x="324" unicode="" /><glyph d="M121 278Q90 295 76 323Q62 351 68 386Q79 450 133.5 486.5Q188 523 270 523Q304 523 340 515Q376 507 405 494L360 400Q335 412 312.5 417.5Q290 423 267 423Q233 423 211.5 409Q190 395 186 370Q182 344 200 327Q218 310 253 305L242 224Q199 221 174 204.5Q149 188 143 158Q137 127 158 108.5Q179 90 220 90Q243 90 262.5 92.5Q282 95 296 100L330 290H504L487 193H420L391 30Q359 11 311.5 0Q264 -11 211 -11Q109 -11 59 36.5Q9 84 21 158Q27 196 52 225.5Q77 255 121 278Z" glyph-name="ampersand" horiz-adv-x="500" unicode="&amp;" /><glyph d="M305 512 617 512L509 -102H408L499 415H436L345 -102H244L335 415H293Q241 415 215.5 395Q190 375 182 329L176 294Q170 260 180.5 240.5Q191 221 215 221Q223 221 231 222.5Q239 224 253 228L272 140Q237 127 218.5 123.5Q200 120 183 120Q110 120 76.5 168.5Q43 217 56 294L62 329Q78 427 136 469.5Q194 512 305 512Z" glyph-name="paragraph" horiz-adv-x="621" unicode="¶" /><glyph d="M182 476 203 595H323L302 476H417L400 376H285L219 0H99L165 376H50L67 476Z" glyph-name="dagger" horiz-adv-x="390" unicode="†" /><glyph d="M182 476 203 595H323L302 476H417L400 376H285L241 130H356L339 30H224L203 -89H83L104 30H-11L6 130H121L165 376H50L67 476Z" glyph-name="daggerdbl" horiz-adv-x="390" unicode="‡" /><glyph d="M120 412Q107 426 102.5 450Q98 474 103 498Q114 549 159 577.5Q204 606 273 606Q306 606 343.5 597Q381 588 411 572L369 483Q343 495 317.5 502Q292 509 270 509Q247 509 234.5 502.5Q222 496 220 483Q219 470 229.5 460.5Q240 451 277 435Q362 397 386 366.5Q410 336 402 290Q397 258 378 233Q359 208 326 188Q340 170 345.5 148.5Q351 127 347 105Q337 48 291.5 18.5Q246 -11 171 -11Q130 -11 95.5 -4.5Q61 2 24 16L57 111Q87 99 117 92.5Q147 86 174 86Q198 86 213.5 93.5Q229 101 230 113Q232 130 219.5 141Q207 152 175 164Q97 192 67 226.5Q37 261 46 309Q52 343 69.5 367.5Q87 392 120 412ZM250 237Q269 247 279.5 259Q290 271 293 285Q298 309 278 325Q258 341 196 363Q180 356 169.5 343Q159 330 156 315Q151 291 168.5 276.5Q186 262 250 237Z" glyph-name="section" horiz-adv-x="416" unicode="§" /><glyph d="M193 350 115 419L201 508L271 450ZM198 518 81 552L118 652L236 602ZM332 345 283 451L359 498L422 396ZM247 606 259 729H365L336 606ZM362 510 346 599L465 640L490 542Z" glyph-name="asterisk" horiz-adv-x="451" unicode="*" /><glyph d="M389 407 456 512H525L489 312H435L456 431L406 354H358L336 431L315 312H261L297 512H362ZM90 465 99 512H263L254 465H199L172 312H118L145 465Z" glyph-name="trademark" horiz-adv-x="528" unicode="™" /><glyph d="M70 391 70 428Q70 515 125.5 571Q181 627 274 627Q368 627 424 571Q480 515 480 428V391Q480 304 424 248Q368 192 274 192Q181 192 125.5 248Q70 304 70 391ZM425 389 425 429Q425 499 385.5 538.5Q346 578 274 578Q202 578 162.5 538.5Q123 499 123 429V389Q123 319 163 279Q203 239 274 239Q346 239 385.5 279Q425 319 425 389ZM200 312 200 512H280Q317 512 338 493.5Q359 475 359 445V431Q359 413 352.5 399.5Q346 386 334 378L366 312H309L285 366Q279 366 273 366.5Q267 367 262 369L268 410Q272 409 276 408.5Q280 408 283 408Q293 408 299 414.5Q305 421 305 433V441Q305 453 297.5 459Q290 465 274 465H254V312Z" glyph-name="registered" horiz-adv-x="479" unicode="®" /><glyph d="M42 173 42 239Q42 395 141 494.5Q240 594 407 594Q574 594 673.5 494.5Q773 395 773 239V173Q773 18 673.5 -81.5Q574 -181 407 -181Q241 -181 141.5 -81.5Q42 18 42 173ZM257 178 257 237Q257 314 302 360Q347 406 426 406Q459 406 489.5 399Q520 392 543 379L506 301Q486 310 468.5 314Q451 318 435 318Q400 318 383 298Q366 278 366 237V178Q366 137 383.5 117Q401 97 437 97Q452 97 471.5 102Q491 107 513 117L549 38Q521 23 493 16Q465 9 434 9Q349 9 303 52.5Q257 96 257 178ZM676 170 676 241Q676 366 605.5 436.5Q535 507 407 507Q279 507 208.5 436.5Q138 366 138 241V170Q138 45 208.5 -26Q279 -97 407 -97Q535 -97 605.5 -26Q676 45 676 170Z" glyph-name="copyright" horiz-adv-x="815" unicode="©" /><glyph d="M31 173 43 239Q72 403 186 498.5Q300 594 475 594Q648 594 734 499Q820 404 793 250L785 208Q769 115 719.5 62.5Q670 10 600 10Q561 10 534 27Q507 44 498 74Q478 45 442 27Q406 9 366 9Q293 9 258.5 53.5Q224 98 237 169L249 238Q262 313 307.5 359.5Q353 406 417 406Q453 406 477.5 393.5Q502 381 515 355L535 396H614L569 145Q564 117 574.5 103.5Q585 90 612 90Q642 90 664.5 121.5Q687 153 696 208L704 252Q726 375 664 441Q602 507 464 507Q328 507 245 438.5Q162 370 139 241L127 170Q105 43 166.5 -28.5Q228 -100 358 -100Q397 -100 434.5 -92.5Q472 -85 510 -69L538 -146Q488 -165 441 -174Q394 -183 348 -183Q182 -183 93 -82Q4 19 31 173ZM470 185 480 239Q487 279 476 298.5Q465 318 436 318Q403 318 382.5 297.5Q362 277 355 235L343 166Q337 131 348 112.5Q359 94 387 94Q420 94 441 116.5Q462 139 470 185Z" glyph-name="at" horiz-adv-x="823" unicode="@" /><glyph d="M60 362 66 400Q74 453 106.5 486Q139 519 184 519Q207 519 226 508.5Q245 498 253 481L266 512H329L282 249H219L218 280Q203 262 183.5 252Q164 242 142 242Q94 242 72.5 274Q51 306 60 362ZM217 361 224 401Q228 422 221 434.5Q214 447 199 447Q179 447 167.5 435.5Q156 424 152 400L146 362Q142 338 147.5 327Q153 316 171 316Q189 316 201 327.5Q213 339 217 361Z" glyph-name="ordfeminine" horiz-adv-x="320" unicode="ª" /><glyph d="M59 361 66 400Q77 457 112.5 488Q148 519 203 519Q261 519 289.5 487Q318 455 308 400L301 361Q291 304 255.5 273Q220 242 164 242Q106 242 78 274Q50 306 59 361ZM215 359 223 402Q228 428 221.5 439.5Q215 451 196 451Q178 451 168 439.5Q158 428 153 402L145 359Q140 332 146 321Q152 310 171 310Q190 310 200.5 321.5Q211 333 215 359Z" glyph-name="ordmasculine" horiz-adv-x="306" unicode="º" /><glyph d="M431 415 460 512H573L544 415H626L609 320H516L477 192H555L538 97H449L420 0H307L336 97H220L191 0H79L108 97H25L42 192H136L175 320H96L113 415H203L232 512H344L315 415ZM248 192 364 192L403 320H287Z" glyph-name="numbersign" horiz-adv-x="634" unicode="#" /><glyph d="M41 351 107 351Q132 431 190 477Q248 523 327 523Q364 523 398 515.5Q432 508 464 493L419 399Q397 409 372.5 415Q348 421 328 421Q294 421 268 403Q242 385 228 351H354L341 277H210L202 235H333L320 161H193Q196 127 216 109Q236 91 270 91Q289 91 312 96Q335 101 367 113L399 18Q357 2 324 -4.5Q291 -11 256 -11Q172 -11 122 35.5Q72 82 74 161H7L20 235H84L92 277H28Z" glyph-name="Euro" horiz-adv-x="436" unicode="€" /><glyph d="M203 520 215 594H308L295 520Q320 516 344.5 508.5Q369 501 407 483L360 389Q323 406 296.5 413Q270 420 243 420Q212 420 193 409.5Q174 399 170 380Q167 366 175.5 355Q184 344 241 306Q285 276 302.5 262Q320 248 332 235Q352 211 358 185.5Q364 160 358 127Q347 68 307.5 34Q268 0 201 -8L187 -85H94L108 -8Q79 -5 50.5 2.5Q22 10 -17 26L28 125Q80 106 107.5 99.5Q135 93 162 93Q191 93 212 105Q233 117 237 136Q240 154 226 172Q212 190 166 220Q120 250 103.5 263.5Q87 277 76 290Q56 312 50 337.5Q44 363 50 395Q60 446 100 478.5Q140 511 203 520Z" glyph-name="dollar" horiz-adv-x="395" unicode="$" /><glyph d="M230 274 378 512H510L357 279H407L394 205H308L281 163H387L374 89H263L247 0H127L143 89H32L45 163H151L138 205H52L65 279H115L44 512H165Z" glyph-name="yen" horiz-adv-x="446" unicode="¥" /><glyph d="M94 284 99 312Q116 409 177 466Q238 523 328 523Q363 523 397.5 515.5Q432 508 462 493L417 399Q392 410 370.5 415.5Q349 421 329 421Q283 421 254 393Q225 365 216 312L211 284H341L325 193H194Q187 164 172 139Q157 114 138 98Q152 98 166.5 97Q181 96 205 93Q223 90 232 89.5Q241 89 248 89Q275 89 297 93Q319 97 359 112L391 17Q353 4 312 -3.5Q271 -11 233 -11Q220 -11 206 -9.5Q192 -8 165 -2Q138 3 122 5Q106 7 91 7Q79 7 66.5 5.5Q54 4 17 -4L1 83Q34 103 50 127Q66 151 77 193H12L28 284Z" glyph-name="sterling" horiz-adv-x="427" unicode="£" /><glyph d="M208 421 221 497H314L301 422Q323 419 344 412Q365 405 380 397L338 308Q313 320 295 324.5Q277 329 260 329Q220 329 195 306Q170 283 163 240L152 175Q144 130 159 108Q174 86 214 86Q230 86 250 91Q270 96 298 107L329 16Q297 3 275.5 -2.5Q254 -8 230 -10L217 -85H124L139 -5Q75 10 47 56.5Q19 103 32 175L43 240Q56 314 99 361.5Q142 409 208 421Z" glyph-name="cent" horiz-adv-x="372" unicode="¢" /><glyph d="M123 284 132 322Q154 416 214.5 469.5Q275 523 362 523Q398 523 431.5 515Q465 507 497 491L452 397Q428 409 405 415Q382 421 360 421Q316 421 288 396.5Q260 372 248 322L239 284H372L356 193H215L165 0Q137 -107 89.5 -148.5Q42 -190 -38 -190Q-65 -190 -92 -185.5Q-119 -181 -142 -172L-110 -78Q-89 -85 -74.5 -87.5Q-60 -90 -41 -90Q-6 -90 15 -69.5Q36 -49 49 0L99 193H43L59 284Z" glyph-name="florin" horiz-adv-x="440" unicode="ƒ" /><glyph d="M247 426Q276 426 302.5 420Q329 414 350 402L397 449L464 383L415 334Q425 315 430 292Q435 269 435 242V223Q435 196 430 173Q425 150 415 131L464 82L397 16L350 63Q329 51 302.5 45Q276 39 247 39Q218 39 191.5 45Q165 51 144 63L97 16L30 82L79 131Q69 150 64 173Q59 196 59 223V242Q59 269 64 292Q69 315 79 334L30 383L97 449L144 402Q165 414 191.5 420Q218 426 247 426ZM321 220 321 245Q321 291 303 312Q285 333 247 333Q209 333 191 312Q173 291 173 245V220Q173 173 190.5 152.5Q208 132 247 132Q286 132 303.5 152.5Q321 173 321 220Z" glyph-name="currency" horiz-adv-x="495" unicode="¤" /><glyph d="M60 362 66 400Q74 453 106.5 486Q139 519 184 519Q207 519 226 508.5Q245 498 253 481L266 512H329L282 249H219L218 280Q203 262 183.5 252Q164 242 142 242Q94 242 72.5 274Q51 306 60 362ZM217 361 224 401Q228 422 221 434.5Q214 447 199 447Q179 447 167.5 435.5Q156 424 152 400L146 362Q142 338 147.5 327Q153 316 171 316Q189 316 201 327.5Q213 339 217 361Z" glyph-name="a.sup" horiz-adv-x="320" unicode="" /><glyph d="M216 361 261 622H347L282 249H219L218 280Q203 261 184 251.5Q165 242 143 242Q94 242 72 274.5Q50 307 60 362L66 400Q77 458 107 488.5Q137 519 184 519Q196 519 206.5 517Q217 515 227 511L205 445Q201 446 197.5 446.5Q194 447 191 447Q174 447 164.5 436Q155 425 151 400L145 362Q140 338 146 327Q152 316 170 316Q188 316 200.5 328Q213 340 216 361Z" glyph-name="d.sup" horiz-adv-x="320" unicode="" /><glyph d="M60 361 66 400Q77 458 112 488.5Q147 519 203 519Q259 519 288.5 486Q318 453 308 397Q306 386 304 376Q302 366 298 351H142Q138 330 150 320Q162 310 190 310Q202 310 219 314.5Q236 319 253 326L276 264Q250 252 225 247Q200 242 170 242Q109 242 79.5 273.5Q50 305 60 361ZM229 405 230 411Q234 435 226.5 446Q219 457 199 457Q178 457 167 446Q156 435 152 411L151 405Z" glyph-name="e.sup" horiz-adv-x="305" unicode="" /><glyph d="M52 249 118 622H204L181 498Q194 508 208.5 513.5Q223 519 239 519Q289 519 310.5 487.5Q332 456 322 399L296 249H210L236 399Q240 425 234.5 436Q229 447 211 447Q192 447 180 435.5Q168 424 164 400L138 249Z" glyph-name="h.sup" horiz-adv-x="324" unicode="" /><glyph d="M52 249 118 622H204L138 249Z" glyph-name="l.sup" horiz-adv-x="176" unicode="" /><glyph d="M237 519Q260 519 277 509Q294 499 303 479Q319 499 339 509Q359 519 384 519Q433 519 455 486.5Q477 454 467 399L441 249H355L381 399Q385 425 380 436Q375 447 358 447Q342 447 330.5 434.5Q319 422 315 399L289 249H208L234 399Q238 425 232.5 436Q227 447 208 447Q191 447 180 434.5Q169 422 165 399L139 249H53L100 512H163L164 481Q179 499 197.5 509Q216 519 237 519Z" glyph-name="m.sup" horiz-adv-x="469" unicode="" /><glyph d="M163 512 164 481Q179 499 198.5 509Q218 519 240 519Q290 519 311.5 487.5Q333 456 323 399L297 249H211L237 399Q241 425 235.5 436Q230 447 212 447Q193 447 181 435.5Q169 424 165 400L139 249H53L100 512Z" glyph-name="n.sup" horiz-adv-x="325" unicode="" /><glyph d="M59 361 66 400Q77 457 112.5 488Q148 519 203 519Q261 519 289.5 487Q318 455 308 400L301 361Q291 304 255.5 273Q220 242 164 242Q106 242 78 274Q50 306 59 361ZM215 359 223 402Q228 428 221.5 439.5Q215 451 196 451Q178 451 168 439.5Q158 428 153 402L145 359Q140 332 146 321Q152 310 171 310Q190 310 200.5 321.5Q211 333 215 359Z" glyph-name="o.sup" horiz-adv-x="306" unicode="" /><glyph d="M161 512 162 470Q178 494 197.5 506Q217 518 240 518Q251 518 258.5 517Q266 516 276 513L253 430Q246 432 240 433Q234 434 226 434Q199 434 182.5 418Q166 402 160 370L139 249H53L99 512Z" glyph-name="r.sup" horiz-adv-x="234" unicode="" /><glyph d="M122 361Q90 380 77.5 401.5Q65 423 71 448Q79 481 108.5 500Q138 519 181 519Q204 519 230 512.5Q256 506 275 496L246 432Q231 440 212.5 445Q194 450 181 450Q169 450 163 447.5Q157 445 155 438Q154 432 158.5 427Q163 422 193 404Q230 381 242 362Q254 343 250 318Q244 282 213 262Q182 242 136 242Q112 242 89.5 246.5Q67 251 38 263L63 331Q83 321 102.5 316Q122 311 138 311Q152 311 158.5 313.5Q165 316 166 322Q167 329 160.5 335.5Q154 342 122 361Z" glyph-name="s.sup" horiz-adv-x="254" unicode="" /><glyph d="M141 571 208 571L198 512H243L231 443H186L169 348Q167 335 171.5 327.5Q176 320 187 320Q193 320 196 320Q199 320 203 321L207 246Q199 245 190 244Q181 243 173 243Q123 243 99 271.5Q75 300 83 346L100 443H54L66 512H85Q110 512 121 525Q132 538 141 571Z" glyph-name="t.sup" horiz-adv-x="224" unicode="" /><glyph d="M60 361 66 400Q77 458 112 488.5Q147 519 203 519Q259 519 288.5 486Q318 453 308 397Q306 386 304 376Q302 366 298 351H142Q138 330 150 320Q162 310 190 310Q202 310 219 314.5Q236 319 253 326L276 264Q250 252 225 247Q200 242 170 242Q109 242 79.5 273.5Q50 305 60 361ZM229 405 230 411Q234 435 226.5 446Q219 457 199 457Q178 457 167 446Q156 435 152 411L151 405ZM253 542 152 609L196 670L289 595Z" glyph-name="egrave.sup" horiz-adv-x="303" unicode="" /><glyph d="M35 195 57 317Q75 423 128 473Q181 523 272 523Q363 523 402.5 469Q442 415 424 317L402 195Q384 89 331.5 39Q279 -11 188 -11Q96 -11 56.5 42.5Q17 96 35 195ZM282 195 304 317Q314 373 303.5 397.5Q293 422 259 422Q225 422 206 397.5Q187 373 177 317L155 195Q145 139 155.5 115Q166 91 201 91Q235 91 253.5 114.5Q272 138 282 195Z" glyph-name="zero" horiz-adv-x="442" unicode="0" /><glyph d="M73 413 263 512H363L290 100H406L389 0H37L54 100H170L217 372L116 320Z" glyph-name="one" horiz-adv-x="442" unicode="1" /><glyph d="M113 389 78 484Q135 508 171 515.5Q207 523 247 523Q326 523 372 477.5Q418 432 406 366Q398 321 371 282Q344 243 283 197Q231 157 205.5 135.5Q180 114 168 99H358L341 0H5L20 89Q47 128 93.5 172.5Q140 217 214 273Q253 303 269 322Q285 341 288 362Q292 388 276 404.5Q260 421 231 421Q208 421 183 414.5Q158 408 113 389Z" glyph-name="two" horiz-adv-x="442" unicode="2" /><glyph d="M111 394 77 488Q128 508 163.5 515.5Q199 523 237 523Q320 523 364 481.5Q408 440 401 382Q396 344 370.5 314Q345 284 306 270Q349 251 368.5 215.5Q388 180 381 136Q369 67 315 28Q261 -11 174 -11Q139 -11 96.5 -1Q54 9 9 27L49 124Q90 106 118 99.5Q146 93 176 93Q212 93 235 108Q258 123 262 150Q268 187 242 203Q216 219 150 219L151 303Q215 309 247 326Q279 343 282 372Q285 396 269 409Q253 422 221 422Q201 422 177 416.5Q153 411 111 394Z" glyph-name="three" horiz-adv-x="442" unicode="3" /><glyph d="M23 211 250 512H414L358 192H419L401 94H341L325 0H213L229 94H2ZM119 192 247 192L286 414Z" glyph-name="four" horiz-adv-x="442" unicode="4" /><glyph d="M77 306 134 512H425L407 412H222L198 325Q206 327 218.5 328Q231 329 244 329Q316 329 355.5 284Q395 239 384 168Q371 86 312 37.5Q253 -11 161 -11Q128 -11 87 -1Q46 9 7 27L47 124Q91 107 118.5 100Q146 93 169 93Q208 93 233 112Q258 131 264 167Q270 201 252 218.5Q234 236 192 236Q173 236 151 232.5Q129 229 112 223Z" glyph-name="five" horiz-adv-x="442" unicode="5" /><glyph d="M44 173 69 315Q88 419 144.5 471Q201 523 296 523Q329 523 361.5 515.5Q394 508 425 492L379 400Q349 413 330 417.5Q311 422 290 422Q246 422 219.5 395.5Q193 369 184 315L159 169Q151 126 164 105.5Q177 85 212 85Q241 85 258 101.5Q275 118 282 154L286 174Q293 207 284 223Q275 239 251 239Q244 239 235.5 237.5Q227 236 219 234L201 321Q221 329 241 333Q261 337 286 337Q346 337 379 289Q412 241 400 173L397 155Q382 72 333 30.5Q284 -11 200 -11Q111 -11 70 39Q29 89 44 173Z" glyph-name="six" horiz-adv-x="442" unicode="6" /><glyph d="M70 412 87 512H460L443 413Q359 322 294.5 218.5Q230 115 186 0H63Q108 117 168 220.5Q228 324 302 412Z" glyph-name="seven" horiz-adv-x="442" unicode="7" /><glyph d="M127 283Q99 304 88 332.5Q77 361 83 394Q93 452 142 487.5Q191 523 269 523Q348 523 390.5 481Q433 439 424 380Q419 346 400 318Q381 290 345 261Q375 240 388.5 206Q402 172 395 135Q382 68 328.5 28.5Q275 -11 190 -11Q103 -11 57.5 37Q12 85 26 152Q35 195 60 227.5Q85 260 127 283ZM200 84Q233 84 254.5 100.5Q276 117 281 148Q287 182 271.5 200.5Q256 219 205 237Q179 222 162.5 199Q146 176 141 148Q136 117 151.5 100.5Q167 84 200 84ZM261 304Q284 324 295.5 342Q307 360 310 380Q314 404 301 418Q288 432 261 432Q234 432 216 418Q198 404 195 380Q192 356 205.5 340.5Q219 325 261 304Z" glyph-name="eight" horiz-adv-x="442" unicode="8" /><glyph d="M59 338 62 356Q77 438 126.5 480.5Q176 523 259 523Q348 523 389 473Q430 423 415 339L390 197Q370 87 317.5 38Q265 -11 171 -11Q134 -11 101 -4.5Q68 2 30 18L70 115Q108 101 130.5 96Q153 91 177 91Q219 91 242 115.5Q265 140 275 197L300 342Q308 385 295 405.5Q282 426 247 426Q218 426 201.5 409.5Q185 393 177 357L173 338Q166 306 174.5 289.5Q183 273 207 273Q215 273 223.5 274.5Q232 276 240 278L258 191Q238 183 218 179Q198 175 173 175Q113 175 80 222.5Q47 270 59 338Z" glyph-name="nine" horiz-adv-x="442" unicode="9" /><glyph d="M43 195 65 317Q83 423 137.5 473Q192 523 287 523Q382 523 423 469.5Q464 416 447 317L425 195Q407 89 352.5 39Q298 -11 203 -11Q108 -11 67 42.5Q26 96 43 195ZM305 195 327 317Q337 373 324.5 398.5Q312 424 274 424Q236 424 215.5 399Q195 374 185 317L163 195Q153 138 165 113.5Q177 89 216 89Q254 89 274.5 113Q295 137 305 195Z" glyph-name="zero.plf" horiz-adv-x="473" unicode="" /><glyph d="M33 413 223 512H323L233 0H113L177 372L76 320Z" glyph-name="one.plf" horiz-adv-x="329" unicode="" /><glyph d="M100 389 65 484Q122 508 158 515.5Q194 523 234 523Q313 523 359 477.5Q405 432 393 366Q385 321 358 282Q331 243 270 197Q218 157 192.5 135.5Q167 114 155 99H345L328 0H-8L7 89Q34 128 80.5 172.5Q127 217 201 273Q240 303 256 322Q272 341 275 362Q279 388 263 404.5Q247 421 218 421Q195 421 170 414.5Q145 408 100 389Z" glyph-name="two.plf" horiz-adv-x="410" unicode="" /><glyph d="M99 394 65 488Q116 508 151.5 515.5Q187 523 225 523Q308 523 352 481.5Q396 440 389 382Q384 344 358.5 314Q333 284 294 270Q337 251 356.5 215.5Q376 180 369 136Q357 67 303 28Q249 -11 162 -11Q127 -11 84.5 -1Q42 9 -3 27L37 124Q78 106 106 99.5Q134 93 164 93Q200 93 223 108Q246 123 250 150Q256 187 230 203Q204 219 138 219L139 303Q203 309 235 326Q267 343 270 372Q273 396 257 409Q241 422 209 422Q189 422 165 416.5Q141 411 99 394Z" glyph-name="three.plf" horiz-adv-x="415" unicode="" /><glyph d="M21 192 275 512H437L381 192H450L432 94H363L347 0H229L245 94H3ZM132 192 263 192L300 404Z" glyph-name="four.plf" horiz-adv-x="478" unicode="" /><glyph d="M67 306 124 512H415L397 412H212L188 325Q196 327 208.5 328Q221 329 234 329Q306 329 345.5 284Q385 239 374 168Q361 86 302 37.5Q243 -11 151 -11Q118 -11 77 -1Q36 9 -3 27L37 124Q81 107 108.5 100Q136 93 159 93Q198 93 223 112Q248 131 254 167Q260 201 242 218.5Q224 236 182 236Q163 236 141 232.5Q119 229 102 223Z" glyph-name="five.plf" horiz-adv-x="417" unicode="" /><glyph d="M39 173 64 315Q83 419 140.5 471Q198 523 293 523Q326 523 358.5 515.5Q391 508 422 492L376 400Q348 412 329 416.5Q310 421 287 421Q243 421 217 395Q191 369 181 315L156 170Q148 127 161 106.5Q174 86 209 86Q239 86 256.5 103Q274 120 282 155L286 174Q293 206 283 222.5Q273 239 248 239Q241 239 232.5 237.5Q224 236 216 234L198 321Q218 329 238 333Q258 337 283 337Q346 337 380 290.5Q414 244 402 176L399 158Q385 76 333.5 32.5Q282 -11 197 -11Q108 -11 66 39.5Q24 90 39 173Z" glyph-name="six.plf" horiz-adv-x="441" unicode="" /><glyph d="M43 412 60 512H400L383 407Q312 334 257.5 242.5Q203 151 145 0H24Q86 160 136 250Q186 340 247 412Z" glyph-name="seven.plf" horiz-adv-x="371" unicode="" /><glyph d="M134 283Q105 304 93.5 332.5Q82 361 88 394Q98 451 147.5 487Q197 523 276 523Q355 523 398.5 480.5Q442 438 433 380Q428 346 409 318Q390 290 352 261Q383 240 397 206Q411 172 404 135Q391 68 336.5 28.5Q282 -11 197 -11Q110 -11 63.5 37.5Q17 86 31 152Q40 193 65.5 225.5Q91 258 134 283ZM207 84Q241 84 262 100.5Q283 117 289 148Q295 181 279 200Q263 219 212 237Q185 222 168.5 198.5Q152 175 147 148Q142 117 157.5 100.5Q173 84 207 84ZM268 304Q292 324 303.5 341.5Q315 359 318 380Q322 405 308.5 418.5Q295 432 268 432Q240 432 222 418Q204 404 201 380Q198 356 212 341Q226 326 268 304Z" glyph-name="eight.plf" horiz-adv-x="457" unicode="" /><glyph d="M56 336 59 354Q73 436 124.5 479.5Q176 523 261 523Q350 523 392 472.5Q434 422 419 339L394 197Q374 89 320.5 39Q267 -11 173 -11Q136 -11 103 -4.5Q70 2 32 18L72 115Q110 101 132.5 96Q155 91 179 91Q221 91 244 115.5Q267 140 277 197L302 342Q310 385 297 405.5Q284 426 249 426Q219 426 201.5 409Q184 392 176 357L172 338Q165 306 175 289.5Q185 273 209 273Q217 273 225.5 274.5Q234 276 242 278L260 191Q240 183 220 179Q200 175 175 175Q112 175 78 221.5Q44 268 56 336Z" glyph-name="nine.plf" horiz-adv-x="441" unicode="" /><glyph d="M35 195 57 317Q75 423 128 473Q181 523 272 523Q363 523 402.5 469Q442 415 424 317L402 195Q384 89 331.5 39Q279 -11 188 -11Q96 -11 56.5 42.5Q17 96 35 195ZM282 195 304 317Q314 373 303.5 397.5Q293 422 259 422Q225 422 206 397.5Q187 373 177 317L155 195Q145 139 155.5 115Q166 91 201 91Q235 91 253.5 114.5Q272 138 282 195Z" glyph-name="zero.tlf" horiz-adv-x="442" unicode="" /><glyph d="M73 413 263 512H363L290 100H406L389 0H37L54 100H170L217 372L116 320Z" glyph-name="one.tlf" horiz-adv-x="442" unicode="" /><glyph d="M113 389 78 484Q135 508 171 515.5Q207 523 247 523Q326 523 372 477.5Q418 432 406 366Q398 321 371 282Q344 243 283 197Q231 157 205.5 135.5Q180 114 168 99H358L341 0H5L20 89Q47 128 93.5 172.5Q140 217 214 273Q253 303 269 322Q285 341 288 362Q292 388 276 404.5Q260 421 231 421Q208 421 183 414.5Q158 408 113 389Z" glyph-name="two.tlf" horiz-adv-x="442" unicode="" /><glyph d="M111 394 77 488Q128 508 163.5 515.5Q199 523 237 523Q320 523 364 481.5Q408 440 401 382Q396 344 370.5 314Q345 284 306 270Q349 251 368.5 215.5Q388 180 381 136Q369 67 315 28Q261 -11 174 -11Q139 -11 96.5 -1Q54 9 9 27L49 124Q90 106 118 99.5Q146 93 176 93Q212 93 235 108Q258 123 262 150Q268 187 242 203Q216 219 150 219L151 303Q215 309 247 326Q279 343 282 372Q285 396 269 409Q253 422 221 422Q201 422 177 416.5Q153 411 111 394Z" glyph-name="three.tlf" horiz-adv-x="442" unicode="" /><glyph d="M23 211 250 512H414L358 192H419L401 94H341L325 0H213L229 94H2ZM119 192 247 192L286 414Z" glyph-name="four.tlf" horiz-adv-x="442" unicode="" /><glyph d="M77 306 134 512H425L407 412H222L198 325Q206 327 218.5 328Q231 329 244 329Q316 329 355.5 284Q395 239 384 168Q371 86 312 37.5Q253 -11 161 -11Q128 -11 87 -1Q46 9 7 27L47 124Q91 107 118.5 100Q146 93 169 93Q208 93 233 112Q258 131 264 167Q270 201 252 218.5Q234 236 192 236Q173 236 151 232.5Q129 229 112 223Z" glyph-name="five.tlf" horiz-adv-x="442" unicode="" /><glyph d="M44 173 69 315Q88 419 144.5 471Q201 523 296 523Q329 523 361.5 515.5Q394 508 425 492L379 400Q349 413 330 417.5Q311 422 290 422Q246 422 219.5 395.5Q193 369 184 315L159 169Q151 126 164 105.5Q177 85 212 85Q241 85 258 101.5Q275 118 282 154L286 174Q293 207 284 223Q275 239 251 239Q244 239 235.5 237.5Q227 236 219 234L201 321Q221 329 241 333Q261 337 286 337Q346 337 379 289Q412 241 400 173L397 155Q382 72 333 30.5Q284 -11 200 -11Q111 -11 70 39Q29 89 44 173Z" glyph-name="six.tlf" horiz-adv-x="442" unicode="" /><glyph d="M70 412 87 512H460L443 413Q359 322 294.5 218.5Q230 115 186 0H63Q108 117 168 220.5Q228 324 302 412Z" glyph-name="seven.tlf" horiz-adv-x="442" unicode="" /><glyph d="M127 283Q99 304 88 332.5Q77 361 83 394Q93 452 142 487.5Q191 523 269 523Q348 523 390.5 481Q433 439 424 380Q419 346 400 318Q381 290 345 261Q375 240 388.5 206Q402 172 395 135Q382 68 328.5 28.5Q275 -11 190 -11Q103 -11 57.5 37Q12 85 26 152Q35 195 60 227.5Q85 260 127 283ZM200 84Q233 84 254.5 100.5Q276 117 281 148Q287 182 271.5 200.5Q256 219 205 237Q179 222 162.5 199Q146 176 141 148Q136 117 151.5 100.5Q167 84 200 84ZM261 304Q284 324 295.5 342Q307 360 310 380Q314 404 301 418Q288 432 261 432Q234 432 216 418Q198 404 195 380Q192 356 205.5 340.5Q219 325 261 304Z" glyph-name="eight.tlf" horiz-adv-x="442" unicode="" /><glyph d="M59 338 62 356Q77 438 126.5 480.5Q176 523 259 523Q348 523 389 473Q430 423 415 339L390 197Q370 87 317.5 38Q265 -11 171 -11Q134 -11 101 -4.5Q68 2 30 18L70 115Q108 101 130.5 96Q153 91 177 91Q219 91 242 115.5Q265 140 275 197L300 342Q308 385 295 405.5Q282 426 247 426Q218 426 201.5 409.5Q185 393 177 357L173 338Q166 306 174.5 289.5Q183 273 207 273Q215 273 223.5 274.5Q232 276 240 278L258 191Q238 183 218 179Q198 175 173 175Q113 175 80 222.5Q47 270 59 338Z" glyph-name="nine.tlf" horiz-adv-x="442" unicode="" /><glyph d="M38 195 42 220Q61 327 115 376.5Q169 426 262 426Q358 426 400 372Q442 318 424 220L420 195Q401 88 347 38.5Q293 -11 200 -11Q104 -11 62 43Q20 97 38 195ZM300 195 304 220Q314 276 301.5 301Q289 326 251 326Q213 326 192.5 301.5Q172 277 162 220L158 195Q148 139 160 114.5Q172 90 211 90Q249 90 269.5 114Q290 138 300 195Z" glyph-name="zero.posf" horiz-adv-x="462" unicode="" /><glyph d="M21 314 215 415H315L241 0H121L170 275L65 221Z" glyph-name="one.posf" horiz-adv-x="338" unicode="" /><glyph d="M89 292 54 387Q106 409 144.5 417.5Q183 426 226 426Q300 426 343.5 385.5Q387 345 379 288Q373 243 348 209.5Q323 176 270 144L188 95H344L327 0H2L19 95Q41 111 75.5 133Q110 155 161 185Q215 217 235 236.5Q255 256 258 278Q261 300 248.5 312Q236 324 209 324Q184 324 156.5 316.5Q129 309 89 292Z" glyph-name="two.posf" horiz-adv-x="408" unicode="" /><glyph d="M80 297 46 391Q97 411 132.5 418.5Q168 426 206 426Q289 426 333 384.5Q377 343 370 285Q365 247 339.5 217Q314 187 275 173Q318 154 337.5 118.5Q357 83 350 39Q338 -30 284 -69Q230 -108 143 -108Q108 -108 65.5 -98Q23 -88 -22 -70L18 27Q59 9 87 2.5Q115 -4 145 -4Q181 -4 204 11Q227 26 231 53Q237 90 211 106Q185 122 119 122L120 206Q184 212 216 229Q248 246 251 275Q254 299 238 312Q222 325 190 325Q170 325 146 319.5Q122 314 80 297Z" glyph-name="three.posf" horiz-adv-x="416" unicode="" /><glyph d="M4 98 258 415H419L363 98H435L418 0H346L329 -97H211L228 0H-13ZM117 98 245 98L282 307Z" glyph-name="four.posf" horiz-adv-x="480" unicode="" /><glyph d="M55 209 112 415H403L385 315H200L176 228Q184 230 196.5 231Q209 232 222 232Q294 232 333.5 187Q373 142 362 71Q349 -11 290 -59.5Q231 -108 139 -108Q106 -108 65 -98Q24 -88 -15 -70L25 27Q69 10 96.5 3Q124 -4 147 -4Q186 -4 211 15Q236 34 242 70Q248 104 230 121.5Q212 139 170 139Q151 139 129 135.5Q107 132 90 126Z" glyph-name="five.posf" horiz-adv-x="427" unicode="" /><glyph d="M39 173 64 315Q83 419 140 471Q197 523 292 523Q325 523 357.5 515.5Q390 508 421 492L375 400Q345 413 326 417.5Q307 422 286 422Q242 422 216 396Q190 370 180 315L155 170Q147 127 160 106Q173 85 208 85Q237 85 255 102.5Q273 120 281 155L285 174Q292 206 282 222.5Q272 239 247 239Q240 239 231.5 237.5Q223 236 215 234L197 321Q217 329 237 333Q257 337 282 337Q345 337 379 290.5Q413 244 401 176L398 158Q384 76 332.5 32.5Q281 -11 196 -11Q108 -11 66 39.5Q24 90 39 173Z" glyph-name="six.posf" horiz-adv-x="440" unicode="" /><glyph d="M29 315 46 415H386L369 310Q298 237 243.5 145.5Q189 54 131 -97H10Q72 63 122 153Q172 243 233 315Z" glyph-name="seven.posf" horiz-adv-x="371" unicode="" /><glyph d="M131 283Q102 304 90.5 332.5Q79 361 85 394Q95 451 144.5 487Q194 523 273 523Q352 523 395.5 480.5Q439 438 430 380Q425 346 406 318Q387 290 349 261Q380 240 394 206Q408 172 401 135Q388 68 333.5 28.5Q279 -11 194 -11Q107 -11 60.5 37.5Q14 86 28 152Q37 193 62.5 225.5Q88 258 131 283ZM204 84Q238 84 259 100.5Q280 117 286 148Q292 181 276 200Q260 219 209 237Q182 222 165.5 198.5Q149 175 144 148Q139 117 154.5 100.5Q170 84 204 84ZM265 304Q289 324 300.5 341.5Q312 359 315 380Q319 405 305.5 418.5Q292 432 265 432Q237 432 219 418Q201 404 198 380Q195 356 209 341Q223 326 265 304Z" glyph-name="eight.posf" horiz-adv-x="452" unicode="" /><glyph d="M39 239 42 257Q56 339 107.5 382.5Q159 426 244 426Q333 426 374.5 376Q416 326 401 242L376 100Q356 -9 302.5 -58.5Q249 -108 156 -108Q119 -108 86 -101.5Q53 -95 15 -79L55 18Q93 4 115.5 -1Q138 -6 162 -6Q204 -6 227 18.5Q250 43 260 100L285 245Q293 288 280 308.5Q267 329 232 329Q202 329 184.5 312Q167 295 159 260L155 241Q148 209 158 192.5Q168 176 192 176Q200 176 208.5 177.5Q217 179 225 181L243 94Q223 86 203 82Q183 78 158 78Q95 78 61 124.5Q27 171 39 239Z" glyph-name="nine.posf" horiz-adv-x="440" unicode="" /><glyph d="M32 195 36 220Q55 326 108 376Q161 426 252 426Q346 426 387 372Q428 318 410 220L406 195Q387 89 334 39Q281 -11 190 -11Q96 -11 55 43Q14 97 32 195ZM286 195 290 220Q300 275 288.5 300.5Q277 326 241 326Q206 326 186 301Q166 276 156 220L152 195Q142 139 153.5 114.5Q165 90 201 90Q237 90 256.5 114.5Q276 139 286 195Z" glyph-name="zero.tosf" horiz-adv-x="442" unicode="" /><glyph d="M53 314 247 415H347L290 95H406L389 0H37L54 95H170L202 277L96 223Z" glyph-name="one.tosf" horiz-adv-x="442" unicode="" /><glyph d="M109 292 74 387Q126 409 164.5 417.5Q203 426 246 426Q320 426 363.5 385.5Q407 345 399 288Q393 243 368 209.5Q343 176 290 144L208 95H364L347 0H22L39 95Q61 111 95.5 133Q130 155 181 185Q235 217 255 236.5Q275 256 278 278Q281 300 268.5 312Q256 324 229 324Q204 324 176.5 316.5Q149 309 109 292Z" glyph-name="two.tosf" horiz-adv-x="442" unicode="" /><glyph d="M96 297 62 391Q113 411 148.5 418.5Q184 426 222 426Q305 426 349 384.5Q393 343 386 285Q381 247 355.5 217Q330 187 291 173Q334 154 353.5 118.5Q373 83 366 39Q354 -30 300 -69Q246 -108 159 -108Q124 -108 81.5 -98Q39 -88 -6 -70L34 27Q75 9 103 2.5Q131 -4 161 -4Q197 -4 220 11Q243 26 247 53Q253 90 227 106Q201 122 135 122L136 206Q200 212 232 229Q264 246 267 275Q270 299 254 312Q238 325 206 325Q186 325 162 319.5Q138 314 96 297Z" glyph-name="three.tosf" horiz-adv-x="442" unicode="" /><glyph d="M8 117 233 415H399L343 98H404L386 0H326L309 -97H197L214 0H-13ZM104 98 232 98L271 320Z" glyph-name="four.tosf" horiz-adv-x="442" unicode="" /><glyph d="M60 209 117 415H408L390 315H205L181 228Q189 230 201.5 231Q214 232 227 232Q299 232 338.5 187Q378 142 367 71Q354 -11 295 -59.5Q236 -108 144 -108Q111 -108 70 -98Q29 -88 -10 -70L30 27Q74 10 101.5 3Q129 -4 152 -4Q191 -4 216 15Q241 34 247 70Q253 104 235 121.5Q217 139 175 139Q156 139 134 135.5Q112 132 95 126Z" glyph-name="five.tosf" horiz-adv-x="442" unicode="" /><glyph d="M41 173 66 315Q85 419 141.5 471Q198 523 293 523Q326 523 358.5 515.5Q391 508 422 492L376 400Q346 413 327 417.5Q308 422 287 422Q243 422 216.5 395.5Q190 369 181 315L156 169Q148 126 161 105.5Q174 85 209 85Q238 85 255 101.5Q272 118 279 154L283 174Q290 207 281 223Q272 239 248 239Q241 239 232.5 237.5Q224 236 216 234L198 321Q218 329 238 333Q258 337 283 337Q343 337 376 289Q409 241 397 173L394 155Q379 72 330 30.5Q281 -11 197 -11Q108 -11 67 39Q26 89 41 173Z" glyph-name="six.tosf" horiz-adv-x="442" unicode="" /><glyph d="M48 315 65 415H438L421 316Q337 225 272.5 121.5Q208 18 164 -97H41Q86 20 146 123.5Q206 227 280 315Z" glyph-name="seven.tosf" horiz-adv-x="442" unicode="" /><glyph d="M127 283Q99 304 88 332.5Q77 361 83 394Q93 453 141.5 488Q190 523 268 523Q347 523 389.5 481Q432 439 423 380Q418 346 399.5 317.5Q381 289 345 261Q374 240 387 206Q400 172 393 135Q380 67 326.5 28Q273 -11 189 -11Q103 -11 58 37Q13 85 27 152Q37 196 61.5 228Q86 260 127 283ZM199 84Q232 84 253.5 100.5Q275 117 280 148Q286 182 270.5 201Q255 220 205 237Q179 222 162.5 199Q146 176 141 148Q136 117 151 100.5Q166 84 199 84ZM261 304Q284 324 295 341.5Q306 359 309 380Q313 404 300 418Q287 432 260 432Q233 432 215.5 418Q198 404 195 380Q192 356 205.5 340.5Q219 325 261 304Z" glyph-name="eight.tosf" horiz-adv-x="442" unicode="" /><glyph d="M45 241 48 259Q63 341 112.5 383.5Q162 426 245 426Q334 426 375 376Q416 326 401 242L376 100Q356 -10 303.5 -59Q251 -108 157 -108Q120 -108 87 -101.5Q54 -95 16 -79L56 18Q94 4 116.5 -1Q139 -6 163 -6Q205 -6 228 18.5Q251 43 261 100L286 245Q294 288 281 308.5Q268 329 233 329Q204 329 187.5 312.5Q171 296 163 260L159 241Q152 209 160.5 192.5Q169 176 193 176Q201 176 209.5 177.5Q218 179 226 181L244 94Q224 86 204 82Q184 78 159 78Q99 78 66 125.5Q33 173 45 241Z" glyph-name="nine.tosf" horiz-adv-x="442" unicode="" /><glyph d="M99 487 101 501Q110 550 144.5 578Q179 606 233 606Q288 606 315.5 576Q343 546 335 501L333 487Q324 437 290 409Q256 381 201 381Q146 381 118.5 411Q91 441 99 487ZM259 489 261 499Q264 518 255 528.5Q246 539 225 539Q204 539 191 528.5Q178 518 175 499L173 489Q170 469 179 458.5Q188 448 209 448Q230 448 243 458.5Q256 469 259 489Z" glyph-name="degree" horiz-adv-x="333" unicode="°" /><glyph d="M259 -44 200 2L618 556L677 510ZM82 312 96 386Q107 452 142.5 484.5Q178 517 239 517Q299 517 325.5 482Q352 447 342 386L328 312Q317 246 281.5 213.5Q246 181 185 181Q125 181 98.5 216Q72 251 82 312ZM241 312 255 386Q260 419 254.5 431.5Q249 444 229 444Q208 444 198 431Q188 418 183 386L169 312Q164 279 169.5 267Q175 255 195 255Q216 255 226 268Q236 281 241 312ZM694 126 708 200Q713 233 707.5 245Q702 257 682 257Q661 257 651 244Q641 231 636 200L622 126Q617 93 622.5 80.5Q628 68 648 68Q669 68 679 81Q689 94 694 126ZM535 126 549 200Q560 266 595.5 298.5Q631 331 692 331Q752 331 778.5 296Q805 261 795 200L781 126Q770 60 734.5 27.5Q699 -5 638 -5Q578 -5 551.5 30Q525 65 535 126Z" glyph-name="percent" horiz-adv-x="860" unicode="%" /><glyph d="M259 -44 200 2L618 556L677 510ZM82 312 96 386Q107 452 142.5 484.5Q178 517 239 517Q299 517 325.5 482Q352 447 342 386L328 312Q317 246 281.5 213.5Q246 181 185 181Q125 181 98.5 216Q72 251 82 312ZM241 312 255 386Q260 419 254.5 431.5Q249 444 229 444Q208 444 198 431Q188 418 183 386L169 312Q164 279 169.5 267Q175 255 195 255Q216 255 226 268Q236 281 241 312ZM694 126 708 200Q713 233 707.5 245Q702 257 682 257Q661 257 651 244Q641 231 636 200L622 126Q617 93 622.5 80.5Q628 68 648 68Q669 68 679 81Q689 94 694 126ZM535 126 549 200Q560 266 595.5 298.5Q631 331 692 331Q752 331 778.5 296Q805 261 795 200L781 126Q770 60 734.5 27.5Q699 -5 638 -5Q578 -5 551.5 30Q525 65 535 126ZM1000 126 1014 200Q1019 233 1013.5 245Q1008 257 988 257Q967 257 957 244Q947 231 942 200L928 126Q923 93 928.5 80.5Q934 68 954 68Q975 68 985 81Q995 94 1000 126ZM841 126 855 200Q866 266 901.5 298.5Q937 331 998 331Q1058 331 1084.5 296Q1111 261 1101 200L1087 126Q1076 60 1040.5 27.5Q1005 -5 944 -5Q884 -5 857.5 30Q831 65 841 126Z" glyph-name="perthousand" horiz-adv-x="1166" unicode="‰" /><glyph d="M-63 -44 -126 -3L296 556L359 515Z" glyph-name="fraction" horiz-adv-x="233" unicode="⁄" /><glyph d="M-63 -44 -126 -3L296 556L359 515Z" glyph-name="uni2215" horiz-adv-x="233" unicode="∕" /><glyph d="M63 312 77 386Q88 452 123.5 484.5Q159 517 220 517Q280 517 306.5 482Q333 447 323 386L309 312Q298 246 262.5 213.5Q227 181 166 181Q106 181 79.5 216Q53 251 63 312ZM222 312 236 386Q241 419 235.5 431.5Q230 444 210 444Q189 444 179 431Q169 418 164 386L150 312Q145 279 150.5 267Q156 255 176 255Q197 255 207 268Q217 281 222 312Z" glyph-name="zero.numerator" horiz-adv-x="336" unicode="" /><glyph d="M39 446 165 512H234L178 190H92L130 411L70 380Z" glyph-name="one.numerator" horiz-adv-x="240" unicode="" /><glyph d="M89 427 66 493Q100 507 123.5 512Q147 517 174 517Q226 517 255.5 489.5Q285 462 278 419Q274 389 258.5 365.5Q243 342 200 307Q181 293 166 281Q151 269 140 259H249L237 187H19L29 249Q45 273 73.5 300Q102 327 150 363Q175 382 183 393Q191 404 193 417Q195 429 186.5 436.5Q178 444 162 444Q146 444 131.5 441Q117 438 89 427Z" glyph-name="two.numerator" horiz-adv-x="286" unicode="" /><glyph d="M89 428 66 493Q100 507 123.5 512Q147 517 172 517Q225 517 254 489Q283 461 278 424Q275 401 261 383.5Q247 366 224 357Q248 346 259.5 324Q271 302 266 275Q258 232 223 206.5Q188 181 133 181Q110 181 81.5 188Q53 195 24 207L54 278Q80 265 97.5 260.5Q115 256 135 256Q154 256 165 263Q176 270 179 285Q183 306 168 314Q153 322 112 321V379Q153 382 171.5 391Q190 400 192 419Q193 432 185.5 438.5Q178 445 162 445Q147 445 131.5 441.5Q116 438 89 428Z" glyph-name="three.numerator" horiz-adv-x="287" unicode="" /><glyph d="M46 320 198 512H310L276 318H318L306 247H264L254 190H172L182 247H33ZM119 318 194 318L215 438Z" glyph-name="four.numerator" horiz-adv-x="321" unicode="" /><glyph d="M77 381 113 512H302L290 442H177L165 398Q169 399 175.5 399.5Q182 400 188 400Q237 400 260.5 372.5Q284 345 277 297Q270 246 231.5 214.5Q193 183 135 183Q114 183 86.5 190Q59 197 32 209L62 279Q97 266 112 262Q127 258 140 258Q162 258 175 268.5Q188 279 191 298Q194 317 184.5 325.5Q175 334 153 334Q144 334 133 332Q122 330 101 324Z" glyph-name="five.numerator" horiz-adv-x="294" unicode="" /><glyph d="M61 299 76 385Q87 446 126 481.5Q165 517 222 517Q245 517 264.5 512.5Q284 508 310 495L278 430Q267 436 252 440.5Q237 445 224 445Q196 445 181.5 431.5Q167 418 162 386L145 295Q141 272 148 261.5Q155 251 174 251Q192 251 203 260Q214 269 217 286L219 299Q222 315 215.5 323.5Q209 332 194 332Q191 332 188 331.5Q185 331 180 330L173 393Q186 398 198 400Q210 402 222 402Q264 402 287 372.5Q310 343 302 301L299 285Q289 235 255 208Q221 181 166 181Q109 181 80.5 214.5Q52 248 61 299Z" glyph-name="six.numerator" horiz-adv-x="319" unicode="" /><glyph d="M50 442 62 512H285L273 444Q226 396 190.5 336.5Q155 277 122 190H36Q67 273 100 333Q133 393 172 442Z" glyph-name="seven.numerator" horiz-adv-x="252" unicode="" /><glyph d="M114 366Q99 379 92.5 396.5Q86 414 89 434Q96 470 128.5 493.5Q161 517 210 517Q261 517 290 488.5Q319 460 313 423Q309 403 298 385.5Q287 368 267 352Q283 338 290.5 317.5Q298 297 295 275Q287 233 252 207Q217 181 163 181Q108 181 77 213Q46 245 55 287Q60 311 75 331Q90 351 114 366ZM169 249Q189 249 201 258.5Q213 268 215 286Q217 306 208.5 316Q200 326 173 336Q157 326 147.5 313Q138 300 135 284Q133 268 142 258.5Q151 249 169 249ZM205 380Q218 391 225 401.5Q232 412 234 426Q236 441 229 448.5Q222 456 207 456Q190 456 179.5 448.5Q169 441 167 426Q165 411 173 402Q181 393 205 380Z" glyph-name="eight.numerator" horiz-adv-x="323" unicode="" /><glyph d="M66 397 69 413Q79 463 113 490Q147 517 202 517Q259 517 287.5 483.5Q316 450 307 399L292 313Q281 252 242 216.5Q203 181 146 181Q125 181 106 185Q87 189 58 202L84 268Q110 259 122 256Q134 253 144 253Q172 253 186.5 266.5Q201 280 206 312L223 403Q227 426 220 436.5Q213 447 194 447Q176 447 165 438Q154 429 151 412L149 399Q146 383 152.5 374.5Q159 366 174 366Q177 366 180 366.5Q183 367 188 368L195 305Q182 300 170 298Q158 296 146 296Q104 296 81 325.5Q58 355 66 397Z" glyph-name="nine.numerator" horiz-adv-x="318" unicode="" /><glyph d="M30 122 44 196Q55 262 90.5 294.5Q126 327 187 327Q247 327 273.5 292Q300 257 290 196L276 122Q265 56 229.5 23.5Q194 -9 133 -9Q73 -9 46.5 26Q20 61 30 122ZM189 122 203 196Q208 229 202.5 241.5Q197 254 177 254Q156 254 146 241Q136 228 131 196L117 122Q112 89 117.5 77Q123 65 143 65Q164 65 174 78Q184 91 189 122Z" glyph-name="zero.denominator" horiz-adv-x="336" unicode="" /><glyph d="M6 256 132 322H201L145 0H59L97 221L37 190Z" glyph-name="one.denominator" horiz-adv-x="240" unicode="" /><glyph d="M56 237 33 303Q67 317 90.5 322Q114 327 141 327Q193 327 222.5 299.5Q252 272 245 229Q241 199 225.5 175.5Q210 152 167 117Q148 103 133 91Q118 79 107 69H216L204 -3H-14L-4 59Q12 83 40.5 110Q69 137 117 173Q142 192 150 203Q158 214 160 227Q162 239 153.5 246.5Q145 254 129 254Q113 254 98.5 251Q84 248 56 237Z" glyph-name="two.denominator" horiz-adv-x="286" unicode="" /><glyph d="M56 238 33 303Q67 317 90.5 322Q114 327 139 327Q192 327 221 299Q250 271 245 234Q242 211 228 193.5Q214 176 191 167Q215 156 226.5 134Q238 112 233 85Q225 42 190 16.5Q155 -9 100 -9Q77 -9 48.5 -2Q20 5 -9 17L21 88Q47 75 64.5 70.5Q82 66 102 66Q121 66 132 73Q143 80 146 95Q150 116 135 124Q120 132 79 131V189Q120 192 138.5 201Q157 210 159 229Q160 242 152.5 248.5Q145 255 129 255Q114 255 98.5 251.5Q83 248 56 238Z" glyph-name="three.denominator" horiz-adv-x="287" unicode="" /><glyph d="M13 130 165 322H277L243 128H285L273 57H231L221 0H139L149 57H0ZM86 128 161 128L182 248Z" glyph-name="four.denominator" horiz-adv-x="321" unicode="" /><glyph d="M44 191 80 322H269L257 252H144L132 208Q136 209 142.5 209.5Q149 210 155 210Q204 210 227.5 182.5Q251 155 244 107Q237 56 198.5 24.5Q160 -7 102 -7Q81 -7 53.5 0Q26 7 -1 19L29 89Q64 76 79 72Q94 68 107 68Q129 68 142 78.5Q155 89 158 108Q161 127 151.5 135.5Q142 144 120 144Q111 144 100 142Q89 140 68 134Z" glyph-name="five.denominator" horiz-adv-x="294" unicode="" /><glyph d="M28 109 43 195Q54 256 93 291.5Q132 327 189 327Q212 327 231.5 322.5Q251 318 277 305L245 240Q234 246 219 250.5Q204 255 191 255Q163 255 148.5 241.5Q134 228 129 196L112 105Q108 82 115 71.5Q122 61 141 61Q159 61 170 70Q181 79 184 96L186 109Q189 125 182.5 133.5Q176 142 161 142Q158 142 155 141.5Q152 141 147 140L140 203Q153 208 165 210Q177 212 189 212Q231 212 254 182.5Q277 153 269 111L266 95Q256 45 222 18Q188 -9 133 -9Q76 -9 47.5 24.5Q19 58 28 109Z" glyph-name="six.denominator" horiz-adv-x="319" unicode="" /><glyph d="M17 252 29 322H252L240 254Q193 206 157.5 146.5Q122 87 89 0H3Q34 83 67 143Q100 203 139 252Z" glyph-name="seven.denominator" horiz-adv-x="252" unicode="" /><glyph d="M81 176Q66 189 59.5 206.5Q53 224 56 244Q63 280 95.5 303.5Q128 327 177 327Q228 327 257 298.5Q286 270 280 233Q276 213 265 195.5Q254 178 234 162Q250 148 257.5 127.5Q265 107 262 85Q254 43 219 17Q184 -9 130 -9Q75 -9 44 23Q13 55 22 97Q27 121 42 141Q57 161 81 176ZM136 59Q156 59 168 68.5Q180 78 182 96Q184 116 175.5 126Q167 136 140 146Q124 136 114.5 123Q105 110 102 94Q100 78 109 68.5Q118 59 136 59ZM172 190Q185 201 192 211.5Q199 222 201 236Q203 251 196 258.5Q189 266 174 266Q157 266 146.5 258.5Q136 251 134 236Q132 221 140 212Q148 203 172 190Z" glyph-name="eight.denominator" horiz-adv-x="323" unicode="" /><glyph d="M33 207 36 223Q46 273 80 300Q114 327 169 327Q226 327 254.5 293.5Q283 260 274 209L259 123Q248 62 209 26.5Q170 -9 113 -9Q92 -9 73 -5Q54 -1 25 12L51 78Q77 69 89 66Q101 63 111 63Q139 63 153.5 76.5Q168 90 173 122L190 213Q194 236 187 246.5Q180 257 161 257Q143 257 132 248Q121 239 118 222L116 209Q113 193 119.5 184.5Q126 176 141 176Q144 176 147 176.5Q150 177 155 178L162 115Q149 110 137 108Q125 106 113 106Q71 106 48 135.5Q25 165 33 207Z" glyph-name="nine.denominator" horiz-adv-x="318" unicode="" /><glyph d="M80 412 94 486Q105 552 140.5 584.5Q176 617 237 617Q297 617 323.5 582Q350 547 340 486L326 412Q315 346 279.5 313.5Q244 281 183 281Q123 281 96.5 316Q70 351 80 412ZM239 412 253 486Q258 519 252.5 531.5Q247 544 227 544Q206 544 196 531Q186 518 181 486L167 412Q162 379 167.5 367Q173 355 193 355Q214 355 224 368Q234 381 239 412Z" glyph-name="zerosuperior" horiz-adv-x="336" unicode="⁰" /><glyph d="M56 546 182 612H251L195 290H109L147 511L87 480Z" glyph-name="onesuperior" horiz-adv-x="240" unicode="¹" /><glyph d="M106 527 83 593Q117 607 140.5 612Q164 617 191 617Q243 617 272.5 589.5Q302 562 295 519Q291 489 275.5 465.5Q260 442 217 407Q198 393 183 381Q168 369 157 359H266L254 287H36L46 349Q62 373 90.5 400Q119 427 167 463Q192 482 200 493Q208 504 210 517Q212 529 203.5 536.5Q195 544 179 544Q163 544 148.5 541Q134 538 106 527Z" glyph-name="twosuperior" horiz-adv-x="286" unicode="²" /><glyph d="M106 528 83 593Q117 607 140.5 612Q164 617 189 617Q242 617 271 589Q300 561 295 524Q292 501 278 483.5Q264 466 241 457Q265 446 276.5 424Q288 402 283 375Q275 332 240 306.5Q205 281 150 281Q127 281 98.5 288Q70 295 41 307L71 378Q97 365 114.5 360.5Q132 356 152 356Q171 356 182 363Q193 370 196 385Q200 406 185 414Q170 422 129 421V479Q170 482 188.5 491Q207 500 209 519Q210 532 202.5 538.5Q195 545 179 545Q164 545 148.5 541.5Q133 538 106 528Z" glyph-name="threesuperior" horiz-adv-x="287" unicode="³" /><glyph d="M63 420 215 612H327L293 418H335L323 347H281L271 290H189L199 347H50ZM136 418 211 418L232 538Z" glyph-name="foursuperior" horiz-adv-x="321" unicode="⁴" /><glyph d="M94 481 130 612H319L307 542H194L182 498Q186 499 192.5 499.5Q199 500 205 500Q254 500 277.5 472.5Q301 445 294 397Q287 346 248.5 314.5Q210 283 152 283Q131 283 103.5 290Q76 297 49 309L79 379Q114 366 129 362Q144 358 157 358Q179 358 192 368.5Q205 379 208 398Q211 417 201.5 425.5Q192 434 170 434Q161 434 150 432Q139 430 118 424Z" glyph-name="fivesuperior" horiz-adv-x="294" unicode="⁵" /><glyph d="M78 399 93 485Q104 546 143 581.5Q182 617 239 617Q262 617 281.5 612.5Q301 608 327 595L295 530Q284 536 269 540.5Q254 545 241 545Q213 545 198.5 531.5Q184 518 179 486L162 395Q158 372 165 361.5Q172 351 191 351Q209 351 220 360Q231 369 234 386L236 399Q239 415 232.5 423.5Q226 432 211 432Q208 432 205 431.5Q202 431 197 430L190 493Q203 498 215 500Q227 502 239 502Q281 502 304 472.5Q327 443 319 401L316 385Q306 335 272 308Q238 281 183 281Q126 281 97.5 314.5Q69 348 78 399Z" glyph-name="sixsuperior" horiz-adv-x="319" unicode="⁶" /><glyph d="M67 542 79 612H302L290 544Q243 496 207.5 436.5Q172 377 139 290H53Q84 373 117 433Q150 493 189 542Z" glyph-name="sevensuperior" horiz-adv-x="252" unicode="⁷" /><glyph d="M131 466Q116 479 109.5 496.5Q103 514 106 534Q113 570 145.5 593.5Q178 617 227 617Q278 617 307 588.5Q336 560 330 523Q326 503 315 485.5Q304 468 284 452Q300 438 307.5 417.5Q315 397 312 375Q304 333 269 307Q234 281 180 281Q125 281 94 313Q63 345 72 387Q77 411 92 431Q107 451 131 466ZM186 349Q206 349 218 358.5Q230 368 232 386Q234 406 225.5 416Q217 426 190 436Q174 426 164.5 413Q155 400 152 384Q150 368 159 358.5Q168 349 186 349ZM222 480Q235 491 242 501.5Q249 512 251 526Q253 541 246 548.5Q239 556 224 556Q207 556 196.5 548.5Q186 541 184 526Q182 511 190 502Q198 493 222 480Z" glyph-name="eightsuperior" horiz-adv-x="323" unicode="⁸" /><glyph d="M83 497 86 513Q96 563 130 590Q164 617 219 617Q276 617 304.5 583.5Q333 550 324 499L309 413Q298 352 259 316.5Q220 281 163 281Q142 281 123 285Q104 289 75 302L101 368Q127 359 139 356Q151 353 161 353Q189 353 203.5 366.5Q218 380 223 412L240 503Q244 526 237 536.5Q230 547 211 547Q193 547 182 538Q171 529 168 512L166 499Q163 483 169.5 474.5Q176 466 191 466Q194 466 197 466.5Q200 467 205 468L212 405Q199 400 187 398Q175 396 163 396Q121 396 98 425.5Q75 455 83 497Z" glyph-name="ninesuperior" horiz-adv-x="318" unicode="⁹" /><glyph d="M12 22 26 96Q37 162 72.5 194.5Q108 227 169 227Q229 227 255.5 192Q282 157 272 96L258 22Q247 -44 211.5 -76.5Q176 -109 115 -109Q55 -109 28.5 -74Q2 -39 12 22ZM171 22 185 96Q190 129 184.5 141.5Q179 154 159 154Q138 154 128 141Q118 128 113 96L99 22Q94 -11 99.5 -23Q105 -35 125 -35Q146 -35 156 -22Q166 -9 171 22Z" glyph-name="zeroinferior" horiz-adv-x="336" unicode="₀" /><glyph d="M-12 156 114 222H183L127 -100H41L79 121L19 90Z" glyph-name="oneinferior" horiz-adv-x="240" unicode="₁" /><glyph d="M38 137 15 203Q49 217 72.5 222Q96 227 123 227Q175 227 204.5 199.5Q234 172 227 129Q223 99 207.5 75.5Q192 52 149 17Q130 3 115 -9Q100 -21 89 -31H198L186 -103H-32L-22 -41Q-6 -17 22.5 10Q51 37 99 73Q124 92 132 103Q140 114 142 127Q144 139 135.5 146.5Q127 154 111 154Q95 154 80.5 151Q66 148 38 137Z" glyph-name="twoinferior" horiz-adv-x="286" unicode="₂" /><glyph d="M38 138 15 203Q49 217 72.5 222Q96 227 121 227Q174 227 203 199Q232 171 227 134Q224 111 210 93.5Q196 76 173 67Q197 56 208.5 34Q220 12 215 -15Q207 -58 172 -83.5Q137 -109 82 -109Q59 -109 30.5 -102Q2 -95 -27 -83L3 -12Q29 -25 46.5 -29.5Q64 -34 84 -34Q103 -34 114 -27Q125 -20 128 -5Q132 16 117 24Q102 32 61 31V89Q102 92 120.5 101Q139 110 141 129Q142 142 134.5 148.5Q127 155 111 155Q96 155 80.5 151.5Q65 148 38 138Z" glyph-name="threeinferior" horiz-adv-x="287" unicode="₃" /><glyph d="M-5 30 147 222H259L225 28H267L255 -43H213L203 -100H121L131 -43H-18ZM68 28 143 28L164 148Z" glyph-name="fourinferior" horiz-adv-x="321" unicode="₄" /><glyph d="M26 91 62 222H251L239 152H126L114 108Q118 109 124.5 109.5Q131 110 137 110Q186 110 209.5 82.5Q233 55 226 7Q219 -44 180.5 -75.5Q142 -107 84 -107Q63 -107 35.5 -100Q8 -93 -19 -81L11 -11Q46 -24 61 -28Q76 -32 89 -32Q111 -32 124 -21.5Q137 -11 140 8Q143 27 133.5 35.5Q124 44 102 44Q93 44 82 42Q71 40 50 34Z" glyph-name="fiveinferior" horiz-adv-x="294" unicode="₅" /><glyph d="M10 9 25 95Q36 156 75 191.5Q114 227 171 227Q194 227 213.5 222.5Q233 218 259 205L227 140Q216 146 201 150.5Q186 155 173 155Q145 155 130.5 141.5Q116 128 111 96L94 5Q90 -18 97 -28.5Q104 -39 123 -39Q141 -39 152 -30Q163 -21 166 -4L168 9Q171 25 164.5 33.5Q158 42 143 42Q140 42 137 41.5Q134 41 129 40L122 103Q135 108 147 110Q159 112 171 112Q213 112 236 82.5Q259 53 251 11L248 -5Q238 -55 204 -82Q170 -109 115 -109Q58 -109 29.5 -75.5Q1 -42 10 9Z" glyph-name="sixinferior" horiz-adv-x="319" unicode="₆" /><glyph d="M-1 152 11 222H234L222 154Q175 106 139.5 46.5Q104 -13 71 -100H-15Q16 -17 49 43Q82 103 121 152Z" glyph-name="seveninferior" horiz-adv-x="252" unicode="₇" /><glyph d="M63 76Q48 89 41.5 106.5Q35 124 38 144Q45 180 77.5 203.5Q110 227 159 227Q210 227 239 198.5Q268 170 262 133Q258 113 247 95.5Q236 78 216 62Q232 48 239.5 27.5Q247 7 244 -15Q236 -57 201 -83Q166 -109 112 -109Q57 -109 26 -77Q-5 -45 4 -3Q9 21 24 41Q39 61 63 76ZM118 -41Q138 -41 150 -31.5Q162 -22 164 -4Q166 16 157.5 26Q149 36 122 46Q106 36 96.5 23Q87 10 84 -6Q82 -22 91 -31.5Q100 -41 118 -41ZM154 90Q167 101 174 111.5Q181 122 183 136Q185 151 178 158.5Q171 166 156 166Q139 166 128.5 158.5Q118 151 116 136Q114 121 122 112Q130 103 154 90Z" glyph-name="eightinferior" horiz-adv-x="323" unicode="₈" /><glyph d="M15 107 18 123Q28 173 62 200Q96 227 151 227Q208 227 236.5 193.5Q265 160 256 109L241 23Q230 -38 191 -73.5Q152 -109 95 -109Q74 -109 55 -105Q36 -101 7 -88L33 -22Q59 -31 71 -34Q83 -37 93 -37Q121 -37 135.5 -23.5Q150 -10 155 22L172 113Q176 136 169 146.5Q162 157 143 157Q125 157 114 148Q103 139 100 122L98 109Q95 93 101.5 84.5Q108 76 123 76Q126 76 129 76.5Q132 77 137 78L144 15Q131 10 119 8Q107 6 95 6Q53 6 30 35.5Q7 65 15 107Z" glyph-name="nineinferior" horiz-adv-x="318" unicode="₉" /><glyph d="M39 446 165 512H234L178 190H92L130 411L70 380ZM177 -44 114 -3L536 556L599 515ZM529 237 506 303Q540 317 563.5 322Q587 327 614 327Q666 327 695.5 299.5Q725 272 718 229Q714 199 698.5 175.5Q683 152 640 117Q621 103 606 91Q591 79 580 69H689L677 -3H459L469 59Q485 83 513.5 110Q542 137 590 173Q615 192 623 203Q631 214 633 227Q635 239 626.5 246.5Q618 254 602 254Q586 254 571.5 251Q557 248 529 237Z" glyph-name="onehalf" horiz-adv-x="760" unicode="½" /><glyph d="M39 446 165 512H234L178 190H92L130 411L70 380ZM177 -44 114 -3L536 556L599 515ZM529 238 506 303Q540 317 563.5 322Q587 327 612 327Q665 327 694 299Q723 271 718 234Q715 211 701 193.5Q687 176 664 167Q688 156 699.5 134Q711 112 706 85Q698 42 663 16.5Q628 -9 573 -9Q550 -9 521.5 -2Q493 5 464 17L494 88Q520 75 537.5 70.5Q555 66 575 66Q594 66 605 73Q616 80 619 95Q623 116 608 124Q593 132 552 131V189Q593 192 611.5 201Q630 210 632 229Q633 242 625.5 248.5Q618 255 602 255Q587 255 571.5 251.5Q556 248 529 238Z" glyph-name="onethird" horiz-adv-x="760" unicode="⅓" /><glyph d="M39 446 165 512H234L178 190H92L130 411L70 380ZM177 -44 114 -3L536 556L599 515ZM426 130 578 322H690L656 128H698L686 57H644L634 0H552L562 57H413ZM499 128 574 128L595 248Z" glyph-name="onequarter" horiz-adv-x="735" unicode="¼" /><glyph d="M39 446 165 512H234L178 190H92L130 411L70 380ZM177 -44 114 -3L536 556L599 515ZM497 191 533 322H722L710 252H597L585 208Q589 209 595.5 209.5Q602 210 608 210Q657 210 680.5 182.5Q704 155 697 107Q690 56 651.5 24.5Q613 -7 555 -7Q534 -7 506.5 0Q479 7 452 19L482 89Q517 76 532 72Q547 68 560 68Q582 68 595 78.5Q608 89 611 108Q614 127 604.5 135.5Q595 144 573 144Q564 144 553 142Q542 140 521 134Z" glyph-name="onefifth" horiz-adv-x="747" unicode="" /><glyph d="M39 446 165 512H234L178 190H92L130 411L70 380ZM177 -44 114 -3L536 556L599 515ZM461 109 476 195Q487 256 526 291.5Q565 327 622 327Q645 327 664.5 322.5Q684 318 710 305L678 240Q667 246 652 250.5Q637 255 624 255Q596 255 581.5 241.5Q567 228 562 196L545 105Q541 82 548 71.5Q555 61 574 61Q592 61 603 70Q614 79 617 96L619 109Q622 125 615.5 133.5Q609 142 594 142Q591 142 588 141.5Q585 141 580 140L573 203Q586 208 598 210Q610 212 622 212Q664 212 687 182.5Q710 153 702 111L699 95Q689 45 655 18Q621 -9 566 -9Q509 -9 480.5 24.5Q452 58 461 109Z" glyph-name="onesixth" horiz-adv-x="763" unicode="" /><glyph d="M39 446 165 512H234L178 190H92L130 411L70 380ZM177 -44 114 -3L536 556L599 515ZM510 252 522 322H745L733 254Q686 206 650.5 146.5Q615 87 582 0H496Q527 83 560 143Q593 203 632 252Z" glyph-name="oneseventh" horiz-adv-x="745" unicode="" /><glyph d="M39 446 165 512H234L178 190H92L130 411L70 380ZM177 -44 114 -3L536 556L599 515ZM524 176Q509 189 502.5 206.5Q496 224 499 244Q506 280 538.5 303.5Q571 327 620 327Q671 327 700 298.5Q729 270 723 233Q719 213 708 195.5Q697 178 677 162Q693 148 700.5 127.5Q708 107 705 85Q697 43 662 17Q627 -9 573 -9Q518 -9 487 23Q456 55 465 97Q470 121 485 141Q500 161 524 176ZM579 59Q599 59 611 68.5Q623 78 625 96Q627 116 618.5 126Q610 136 583 146Q567 136 557.5 123Q548 110 545 94Q543 78 552 68.5Q561 59 579 59ZM615 190Q628 201 635 211.5Q642 222 644 236Q646 251 639 258.5Q632 266 617 266Q600 266 589.5 258.5Q579 251 577 236Q575 221 583 212Q591 203 615 190Z" glyph-name="oneeighth" horiz-adv-x="766" unicode="⅛" /><glyph d="M39 446 165 512H234L178 190H92L130 411L70 380ZM177 -44 114 -3L536 556L599 515ZM486 207 489 223Q499 273 533 300Q567 327 622 327Q679 327 707.5 293.5Q736 260 727 209L712 123Q701 62 662 26.5Q623 -9 566 -9Q545 -9 526 -5Q507 -1 478 12L504 78Q530 69 542 66Q554 63 564 63Q592 63 606.5 76.5Q621 90 626 122L643 213Q647 236 640 246.5Q633 257 614 257Q596 257 585 248Q574 239 571 222L569 209Q566 193 572.5 184.5Q579 176 594 176Q597 176 600 176.5Q603 177 608 178L615 115Q602 110 590 108Q578 106 566 106Q524 106 501 135.5Q478 165 486 207Z" glyph-name="oneninth" horiz-adv-x="771" unicode="" /><glyph d="M89 427 66 493Q100 507 123.5 512Q147 517 174 517Q226 517 255.5 489.5Q285 462 278 419Q274 389 258.5 365.5Q243 342 200 307Q181 293 166 281Q151 269 140 259H249L237 187H19L29 249Q45 273 73.5 300Q102 327 150 363Q175 382 183 393Q191 404 193 417Q195 429 186.5 436.5Q178 444 162 444Q146 444 131.5 441Q117 438 89 427ZM223 -44 160 -3L582 556L645 515ZM575 238 552 303Q586 317 609.5 322Q633 327 658 327Q711 327 740 299Q769 271 764 234Q761 211 747 193.5Q733 176 710 167Q734 156 745.5 134Q757 112 752 85Q744 42 709 16.5Q674 -9 619 -9Q596 -9 567.5 -2Q539 5 510 17L540 88Q566 75 583.5 70.5Q601 66 621 66Q640 66 651 73Q662 80 665 95Q669 116 654 124Q639 132 598 131V189Q639 192 657.5 201Q676 210 678 229Q679 242 671.5 248.5Q664 255 648 255Q633 255 617.5 251.5Q602 248 575 238Z" glyph-name="twothirds" horiz-adv-x="806" unicode="⅔" /><glyph d="M89 427 66 493Q100 507 123.5 512Q147 517 174 517Q226 517 255.5 489.5Q285 462 278 419Q274 389 258.5 365.5Q243 342 200 307Q181 293 166 281Q151 269 140 259H249L237 187H19L29 249Q45 273 73.5 300Q102 327 150 363Q175 382 183 393Q191 404 193 417Q195 429 186.5 436.5Q178 444 162 444Q146 444 131.5 441Q117 438 89 427ZM223 -44 160 -3L582 556L645 515ZM543 191 579 322H768L756 252H643L631 208Q635 209 641.5 209.5Q648 210 654 210Q703 210 726.5 182.5Q750 155 743 107Q736 56 697.5 24.5Q659 -7 601 -7Q580 -7 552.5 0Q525 7 498 19L528 89Q563 76 578 72Q593 68 606 68Q628 68 641 78.5Q654 89 657 108Q660 127 650.5 135.5Q641 144 619 144Q610 144 599 142Q588 140 567 134Z" glyph-name="twofifths" horiz-adv-x="793" unicode="" /><glyph d="M89 427 66 493Q100 507 123.5 512Q147 517 174 517Q226 517 255.5 489.5Q285 462 278 419Q274 389 258.5 365.5Q243 342 200 307Q181 293 166 281Q151 269 140 259H249L237 187H19L29 249Q45 273 73.5 300Q102 327 150 363Q175 382 183 393Q191 404 193 417Q195 429 186.5 436.5Q178 444 162 444Q146 444 131.5 441Q117 438 89 427ZM223 -44 160 -3L582 556L645 515ZM556 252 568 322H791L779 254Q732 206 696.5 146.5Q661 87 628 0H542Q573 83 606 143Q639 203 678 252Z" glyph-name="twosevenths" horiz-adv-x="791" unicode="" /><glyph d="M89 427 66 493Q100 507 123.5 512Q147 517 174 517Q226 517 255.5 489.5Q285 462 278 419Q274 389 258.5 365.5Q243 342 200 307Q181 293 166 281Q151 269 140 259H249L237 187H19L29 249Q45 273 73.5 300Q102 327 150 363Q175 382 183 393Q191 404 193 417Q195 429 186.5 436.5Q178 444 162 444Q146 444 131.5 441Q117 438 89 427ZM223 -44 160 -3L582 556L645 515ZM532 207 535 223Q545 273 579 300Q613 327 668 327Q725 327 753.5 293.5Q782 260 773 209L758 123Q747 62 708 26.5Q669 -9 612 -9Q591 -9 572 -5Q553 -1 524 12L550 78Q576 69 588 66Q600 63 610 63Q638 63 652.5 76.5Q667 90 672 122L689 213Q693 236 686 246.5Q679 257 660 257Q642 257 631 248Q620 239 617 222L615 209Q612 193 618.5 184.5Q625 176 640 176Q643 176 646 176.5Q649 177 654 178L661 115Q648 110 636 108Q624 106 612 106Q570 106 547 135.5Q524 165 532 207Z" glyph-name="twoninths" horiz-adv-x="817" unicode="" /><glyph d="M89 428 66 493Q100 507 123.5 512Q147 517 172 517Q225 517 254 489Q283 461 278 424Q275 401 261 383.5Q247 366 224 357Q248 346 259.5 324Q271 302 266 275Q258 232 223 206.5Q188 181 133 181Q110 181 81.5 188Q53 195 24 207L54 278Q80 265 97.5 260.5Q115 256 135 256Q154 256 165 263Q176 270 179 285Q183 306 168 314Q153 322 112 321V379Q153 382 171.5 391Q190 400 192 419Q193 432 185.5 438.5Q178 445 162 445Q147 445 131.5 441.5Q116 438 89 428ZM224 -44 161 -3L583 556L646 515ZM473 130 625 322H737L703 128H745L733 57H691L681 0H599L609 57H460ZM546 128 621 128L642 248Z" glyph-name="threequarters" horiz-adv-x="782" unicode="¾" /><glyph d="M89 428 66 493Q100 507 123.5 512Q147 517 172 517Q225 517 254 489Q283 461 278 424Q275 401 261 383.5Q247 366 224 357Q248 346 259.5 324Q271 302 266 275Q258 232 223 206.5Q188 181 133 181Q110 181 81.5 188Q53 195 24 207L54 278Q80 265 97.5 260.5Q115 256 135 256Q154 256 165 263Q176 270 179 285Q183 306 168 314Q153 322 112 321V379Q153 382 171.5 391Q190 400 192 419Q193 432 185.5 438.5Q178 445 162 445Q147 445 131.5 441.5Q116 438 89 428ZM224 -44 161 -3L583 556L646 515ZM544 191 580 322H769L757 252H644L632 208Q636 209 642.5 209.5Q649 210 655 210Q704 210 727.5 182.5Q751 155 744 107Q737 56 698.5 24.5Q660 -7 602 -7Q581 -7 553.5 0Q526 7 499 19L529 89Q564 76 579 72Q594 68 607 68Q629 68 642 78.5Q655 89 658 108Q661 127 651.5 135.5Q642 144 620 144Q611 144 600 142Q589 140 568 134Z" glyph-name="threefifths" horiz-adv-x="794" unicode="" /><glyph d="M89 428 66 493Q100 507 123.5 512Q147 517 172 517Q225 517 254 489Q283 461 278 424Q275 401 261 383.5Q247 366 224 357Q248 346 259.5 324Q271 302 266 275Q258 232 223 206.5Q188 181 133 181Q110 181 81.5 188Q53 195 24 207L54 278Q80 265 97.5 260.5Q115 256 135 256Q154 256 165 263Q176 270 179 285Q183 306 168 314Q153 322 112 321V379Q153 382 171.5 391Q190 400 192 419Q193 432 185.5 438.5Q178 445 162 445Q147 445 131.5 441.5Q116 438 89 428ZM224 -44 161 -3L583 556L646 515ZM557 252 569 322H792L780 254Q733 206 697.5 146.5Q662 87 629 0H543Q574 83 607 143Q640 203 679 252Z" glyph-name="threesevenths" horiz-adv-x="792" unicode="" /><glyph d="M89 428 66 493Q100 507 123.5 512Q147 517 172 517Q225 517 254 489Q283 461 278 424Q275 401 261 383.5Q247 366 224 357Q248 346 259.5 324Q271 302 266 275Q258 232 223 206.5Q188 181 133 181Q110 181 81.5 188Q53 195 24 207L54 278Q80 265 97.5 260.5Q115 256 135 256Q154 256 165 263Q176 270 179 285Q183 306 168 314Q153 322 112 321V379Q153 382 171.5 391Q190 400 192 419Q193 432 185.5 438.5Q178 445 162 445Q147 445 131.5 441.5Q116 438 89 428ZM224 -44 161 -3L583 556L646 515ZM571 176Q556 189 549.5 206.5Q543 224 546 244Q553 280 585.5 303.5Q618 327 667 327Q718 327 747 298.5Q776 270 770 233Q766 213 755 195.5Q744 178 724 162Q740 148 747.5 127.5Q755 107 752 85Q744 43 709 17Q674 -9 620 -9Q565 -9 534 23Q503 55 512 97Q517 121 532 141Q547 161 571 176ZM626 59Q646 59 658 68.5Q670 78 672 96Q674 116 665.5 126Q657 136 630 146Q614 136 604.5 123Q595 110 592 94Q590 78 599 68.5Q608 59 626 59ZM662 190Q675 201 682 211.5Q689 222 691 236Q693 251 686 258.5Q679 266 664 266Q647 266 636.5 258.5Q626 251 624 236Q622 221 630 212Q638 203 662 190Z" glyph-name="threeeighths" horiz-adv-x="813" unicode="⅜" /><glyph d="M46 320 198 512H310L276 318H318L306 247H264L254 190H172L182 247H33ZM119 318 194 318L215 438ZM258 -44 195 -3L617 556L680 515ZM578 191 614 322H803L791 252H678L666 208Q670 209 676.5 209.5Q683 210 689 210Q738 210 761.5 182.5Q785 155 778 107Q771 56 732.5 24.5Q694 -7 636 -7Q615 -7 587.5 0Q560 7 533 19L563 89Q598 76 613 72Q628 68 641 68Q663 68 676 78.5Q689 89 692 108Q695 127 685.5 135.5Q676 144 654 144Q645 144 634 142Q623 140 602 134Z" glyph-name="fourfifths" horiz-adv-x="828" unicode="" /><glyph d="M46 320 198 512H310L276 318H318L306 247H264L254 190H172L182 247H33ZM119 318 194 318L215 438ZM258 -44 195 -3L617 556L680 515ZM591 252 603 322H826L814 254Q767 206 731.5 146.5Q696 87 663 0H577Q608 83 641 143Q674 203 713 252Z" glyph-name="foursevenths" horiz-adv-x="826" unicode="" /><glyph d="M46 320 198 512H310L276 318H318L306 247H264L254 190H172L182 247H33ZM119 318 194 318L215 438ZM258 -44 195 -3L617 556L680 515ZM567 207 570 223Q580 273 614 300Q648 327 703 327Q760 327 788.5 293.5Q817 260 808 209L793 123Q782 62 743 26.5Q704 -9 647 -9Q626 -9 607 -5Q588 -1 559 12L585 78Q611 69 623 66Q635 63 645 63Q673 63 687.5 76.5Q702 90 707 122L724 213Q728 236 721 246.5Q714 257 695 257Q677 257 666 248Q655 239 652 222L650 209Q647 193 653.5 184.5Q660 176 675 176Q678 176 681 176.5Q684 177 689 178L696 115Q683 110 671 108Q659 106 647 106Q605 106 582 135.5Q559 165 567 207Z" glyph-name="fourninths" horiz-adv-x="852" unicode="" /><glyph d="M77 381 113 512H302L290 442H177L165 398Q169 399 175.5 399.5Q182 400 188 400Q237 400 260.5 372.5Q284 345 277 297Q270 246 231.5 214.5Q193 183 135 183Q114 183 86.5 190Q59 197 32 209L62 279Q97 266 112 262Q127 258 140 258Q162 258 175 268.5Q188 279 191 298Q194 317 184.5 325.5Q175 334 153 334Q144 334 133 332Q122 330 101 324ZM231 -44 168 -3L590 556L653 515ZM515 109 530 195Q541 256 580 291.5Q619 327 676 327Q699 327 718.5 322.5Q738 318 764 305L732 240Q721 246 706 250.5Q691 255 678 255Q650 255 635.5 241.5Q621 228 616 196L599 105Q595 82 602 71.5Q609 61 628 61Q646 61 657 70Q668 79 671 96L673 109Q676 125 669.5 133.5Q663 142 648 142Q645 142 642 141.5Q639 141 634 140L627 203Q640 208 652 210Q664 212 676 212Q718 212 741 182.5Q764 153 756 111L753 95Q743 45 709 18Q675 -9 620 -9Q563 -9 534.5 24.5Q506 58 515 109Z" glyph-name="fivesixths" horiz-adv-x="806" unicode="" /><glyph d="M77 381 113 512H302L290 442H177L165 398Q169 399 175.5 399.5Q182 400 188 400Q237 400 260.5 372.5Q284 345 277 297Q270 246 231.5 214.5Q193 183 135 183Q114 183 86.5 190Q59 197 32 209L62 279Q97 266 112 262Q127 258 140 258Q162 258 175 268.5Q188 279 191 298Q194 317 184.5 325.5Q175 334 153 334Q144 334 133 332Q122 330 101 324ZM231 -44 168 -3L590 556L653 515ZM564 252 576 322H799L787 254Q740 206 704.5 146.5Q669 87 636 0H550Q581 83 614 143Q647 203 686 252Z" glyph-name="fivesevenths" horiz-adv-x="799" unicode="" /><glyph d="M77 381 113 512H302L290 442H177L165 398Q169 399 175.5 399.5Q182 400 188 400Q237 400 260.5 372.5Q284 345 277 297Q270 246 231.5 214.5Q193 183 135 183Q114 183 86.5 190Q59 197 32 209L62 279Q97 266 112 262Q127 258 140 258Q162 258 175 268.5Q188 279 191 298Q194 317 184.5 325.5Q175 334 153 334Q144 334 133 332Q122 330 101 324ZM231 -44 168 -3L590 556L653 515ZM578 176Q563 189 556.5 206.5Q550 224 553 244Q560 280 592.5 303.5Q625 327 674 327Q725 327 754 298.5Q783 270 777 233Q773 213 762 195.5Q751 178 731 162Q747 148 754.5 127.5Q762 107 759 85Q751 43 716 17Q681 -9 627 -9Q572 -9 541 23Q510 55 519 97Q524 121 539 141Q554 161 578 176ZM633 59Q653 59 665 68.5Q677 78 679 96Q681 116 672.5 126Q664 136 637 146Q621 136 611.5 123Q602 110 599 94Q597 78 606 68.5Q615 59 633 59ZM669 190Q682 201 689 211.5Q696 222 698 236Q700 251 693 258.5Q686 266 671 266Q654 266 643.5 258.5Q633 251 631 236Q629 221 637 212Q645 203 669 190Z" glyph-name="fiveeighths" horiz-adv-x="820" unicode="⅝" /><glyph d="M77 381 113 512H302L290 442H177L165 398Q169 399 175.5 399.5Q182 400 188 400Q237 400 260.5 372.5Q284 345 277 297Q270 246 231.5 214.5Q193 183 135 183Q114 183 86.5 190Q59 197 32 209L62 279Q97 266 112 262Q127 258 140 258Q162 258 175 268.5Q188 279 191 298Q194 317 184.5 325.5Q175 334 153 334Q144 334 133 332Q122 330 101 324ZM231 -44 168 -3L590 556L653 515ZM540 207 543 223Q553 273 587 300Q621 327 676 327Q733 327 761.5 293.5Q790 260 781 209L766 123Q755 62 716 26.5Q677 -9 620 -9Q599 -9 580 -5Q561 -1 532 12L558 78Q584 69 596 66Q608 63 618 63Q646 63 660.5 76.5Q675 90 680 122L697 213Q701 236 694 246.5Q687 257 668 257Q650 257 639 248Q628 239 625 222L623 209Q620 193 626.5 184.5Q633 176 648 176Q651 176 654 176.5Q657 177 662 178L669 115Q656 110 644 108Q632 106 620 106Q578 106 555 135.5Q532 165 540 207Z" glyph-name="fiveninths" horiz-adv-x="825" unicode="" /><glyph d="M61 299 76 385Q87 446 126 481.5Q165 517 222 517Q245 517 264.5 512.5Q284 508 310 495L278 430Q267 436 252 440.5Q237 445 224 445Q196 445 181.5 431.5Q167 418 162 386L145 295Q141 272 148 261.5Q155 251 174 251Q192 251 203 260Q214 269 217 286L219 299Q222 315 215.5 323.5Q209 332 194 332Q191 332 188 331.5Q185 331 180 330L173 393Q186 398 198 400Q210 402 222 402Q264 402 287 372.5Q310 343 302 301L299 285Q289 235 255 208Q221 181 166 181Q109 181 80.5 214.5Q52 248 61 299ZM256 -44 193 -3L615 556L678 515ZM589 252 601 322H824L812 254Q765 206 729.5 146.5Q694 87 661 0H575Q606 83 639 143Q672 203 711 252Z" glyph-name="sixsevenths" horiz-adv-x="824" unicode="" /><glyph d="M50 442 62 512H285L273 444Q226 396 190.5 336.5Q155 277 122 190H36Q67 273 100 333Q133 393 172 442ZM149 -44 86 -3L508 556L571 515ZM496 176Q481 189 474.5 206.5Q468 224 471 244Q478 280 510.5 303.5Q543 327 592 327Q643 327 672 298.5Q701 270 695 233Q691 213 680 195.5Q669 178 649 162Q665 148 672.5 127.5Q680 107 677 85Q669 43 634 17Q599 -9 545 -9Q490 -9 459 23Q428 55 437 97Q442 121 457 141Q472 161 496 176ZM551 59Q571 59 583 68.5Q595 78 597 96Q599 116 590.5 126Q582 136 555 146Q539 136 529.5 123Q520 110 517 94Q515 78 524 68.5Q533 59 551 59ZM587 190Q600 201 607 211.5Q614 222 616 236Q618 251 611 258.5Q604 266 589 266Q572 266 561.5 258.5Q551 251 549 236Q547 221 555 212Q563 203 587 190Z" glyph-name="seveneighths" horiz-adv-x="738" unicode="⅞" /><glyph d="M50 442 62 512H285L273 444Q226 396 190.5 336.5Q155 277 122 190H36Q67 273 100 333Q133 393 172 442ZM149 -44 86 -3L508 556L571 515ZM458 207 461 223Q471 273 505 300Q539 327 594 327Q651 327 679.5 293.5Q708 260 699 209L684 123Q673 62 634 26.5Q595 -9 538 -9Q517 -9 498 -5Q479 -1 450 12L476 78Q502 69 514 66Q526 63 536 63Q564 63 578.5 76.5Q593 90 598 122L615 213Q619 236 612 246.5Q605 257 586 257Q568 257 557 248Q546 239 543 222L541 209Q538 193 544.5 184.5Q551 176 566 176Q569 176 572 176.5Q575 177 580 178L587 115Q574 110 562 108Q550 106 538 106Q496 106 473 135.5Q450 165 458 207Z" glyph-name="sevenninths" horiz-adv-x="743" unicode="" /><glyph d="M114 366Q99 379 92.5 396.5Q86 414 89 434Q96 470 128.5 493.5Q161 517 210 517Q261 517 290 488.5Q319 460 313 423Q309 403 298 385.5Q287 368 267 352Q283 338 290.5 317.5Q298 297 295 275Q287 233 252 207Q217 181 163 181Q108 181 77 213Q46 245 55 287Q60 311 75 331Q90 351 114 366ZM169 249Q189 249 201 258.5Q213 268 215 286Q217 306 208.5 316Q200 326 173 336Q157 326 147.5 313Q138 300 135 284Q133 268 142 258.5Q151 249 169 249ZM205 380Q218 391 225 401.5Q232 412 234 426Q236 441 229 448.5Q222 456 207 456Q190 456 179.5 448.5Q169 441 167 426Q165 411 173 402Q181 393 205 380ZM250 -44 187 -3L609 556L672 515ZM559 207 562 223Q572 273 606 300Q640 327 695 327Q752 327 780.5 293.5Q809 260 800 209L785 123Q774 62 735 26.5Q696 -9 639 -9Q618 -9 599 -5Q580 -1 551 12L577 78Q603 69 615 66Q627 63 637 63Q665 63 679.5 76.5Q694 90 699 122L716 213Q720 236 713 246.5Q706 257 687 257Q669 257 658 248Q647 239 644 222L642 209Q639 193 645.5 184.5Q652 176 667 176Q670 176 673 176.5Q676 177 681 178L688 115Q675 110 663 108Q651 106 639 106Q597 106 574 135.5Q551 165 559 207Z" glyph-name="eightninths" horiz-adv-x="844" unicode="" /><glyph d="M189 303 209 415H306L286 303H398L382 209H270L250 97H153L173 209H61L77 303Z" glyph-name="plus" horiz-adv-x="442" unicode="+" /><glyph d="M62 209 78 303H397L381 209Z" glyph-name="minus" horiz-adv-x="442" unicode="−" /><glyph d="M158 416 237 320L351 416L408 348L294 252L373 156L301 95L222 191L108 95L51 163L165 259L86 355Z" glyph-name="multiply" horiz-adv-x="442" unicode="×" /><glyph d="M56 209 72 303H403L387 209ZM194 -2 122 87L219 168L291 79ZM244 344 172 433L269 514L341 425Z" glyph-name="divide" horiz-adv-x="442" unicode="÷" /><glyph d="M77 288 93 382H410L394 288ZM49 130 65 224H382L366 130Z" glyph-name="equal" horiz-adv-x="442" unicode="=" /><glyph d="M62 209 78 303H397L361 97H265L285 209Z" glyph-name="logicalnot" horiz-adv-x="442" unicode="¬" /><glyph d="M236 302Q257 295 266.5 293Q276 291 284 291Q300 291 309 299.5Q318 308 322 327L411 312Q398 255 368.5 225.5Q339 196 296 196Q282 196 267.5 199Q253 202 227 212Q206 219 196 221.5Q186 224 177 224Q162 224 152.5 215.5Q143 207 139 189L49 204Q61 260 91.5 288.5Q122 317 167 317Q180 317 194 314Q208 311 236 302Z" glyph-name="asciitilde" horiz-adv-x="442" unicode="~" /><glyph d="M72 203 90 309L409 433L390 327L188 251L364 175L347 79Z" glyph-name="less" horiz-adv-x="442" unicode="&lt;" /><glyph d="M271 261 95 337L112 433L387 309L369 203L50 79L69 185Z" glyph-name="greater" horiz-adv-x="442" unicode="&gt;" /><glyph d="M208 405 226 512H322L304 405H416L399 311H287L268 204H172L191 311H79L96 405ZM36 53 52 147H368L352 53Z" glyph-name="plusminus" horiz-adv-x="442" unicode="±" /><glyph d="M29 372 191 595H304L388 372H287L238 509L140 372Z" glyph-name="asciicircum" horiz-adv-x="359" unicode="^" /><glyph d="M93 382 243 382L283 466L360 431L337 382H410L394 288H292L261 224H382L366 130H216L176 46L99 81L122 130H49L65 224H167L198 288H77Z" glyph-name="notequal" horiz-adv-x="442" unicode="≠" /><glyph d="M250 386Q271 379 280.5 377Q290 375 298 375Q314 375 323 383.5Q332 392 336 411L425 396Q412 339 382.5 309.5Q353 280 310 280Q296 280 281.5 283Q267 286 242 296Q221 303 211 305.5Q201 308 192 308Q177 308 167.5 299.5Q158 291 154 273L64 288Q76 344 106.5 372.5Q137 401 182 401Q195 401 209 398Q223 395 250 386ZM221 219Q242 212 251.5 210Q261 208 269 208Q285 208 294 216.5Q303 225 307 244L396 229Q383 172 353.5 142.5Q324 113 281 113Q267 113 252.5 116Q238 119 213 129Q192 136 182 138.5Q172 141 163 141Q148 141 138.5 132.5Q129 124 125 106L35 121Q47 177 77.5 205.5Q108 234 153 234Q166 234 180 231Q194 228 221 219Z" glyph-name="approxequal" horiz-adv-x="442" unicode="≈" /><glyph d="M84 268 104 383L418 487L400 387L194 322L377 256L361 164ZM46 53 62 147H358L342 53Z" glyph-name="lessequal" horiz-adv-x="442" unicode="≤" /><glyph d="M290 331 106 396L122 487L400 383L380 268L65 164L83 265ZM46 53 62 147H358L342 53Z" glyph-name="greaterequal" horiz-adv-x="442" unicode="≥" /><glyph d="M209 381Q241 381 269.5 365Q298 349 320 319Q350 348 384.5 364.5Q419 381 452 381Q515 381 547.5 345.5Q580 310 571 255Q560 193 521.5 160.5Q483 128 418 128Q388 128 359.5 144Q331 160 306 191Q278 161 244 144.5Q210 128 174 128Q111 128 78.5 163.5Q46 199 55 255Q65 316 104.5 348.5Q144 381 209 381ZM185 213Q204 213 223 223Q242 233 263 255Q249 277 233.5 287Q218 297 199 297Q175 297 160 286Q145 275 142 255Q139 235 150 224Q161 213 185 213ZM426 213Q450 213 465 224Q480 235 483 255Q486 275 475 286Q464 297 440 297Q422 297 404 287.5Q386 278 362 255Q379 232 393.5 222.5Q408 213 426 213Z" glyph-name="infinity" horiz-adv-x="610" unicode="∞" /><glyph d="M39 257 249 512H342L463 257L252 0H159ZM222 124 339 264L280 388L162 250Z" glyph-name="lozenge" horiz-adv-x="484" unicode="◊" /><glyph d="M214 117 447 595H570L278 0H124L78 236H5L22 330H174Z" glyph-name="radical" horiz-adv-x="502" unicode="√" /><glyph d="M47 -16 125 431Q140 513 191 559.5Q242 606 323 606Q339 606 354 604Q369 602 383 599L357 496Q345 498 337 499Q329 500 320 500Q289 500 270 482.5Q251 465 245 431L167 -16Q152 -98 101 -144.5Q50 -191 -31 -191Q-47 -191 -62 -189Q-77 -187 -91 -184L-65 -81Q-53 -83 -45 -84Q-37 -85 -28 -85Q3 -85 22 -67.5Q41 -50 47 -16Z" glyph-name="integral" horiz-adv-x="321" unicode="∫" /><glyph d="M296 370Q292 391 278 408Q264 425 221 455L279 546Q377 484 401 417Q425 350 396 248L370 157Q345 71 292.5 30Q240 -11 155 -11Q66 -11 27.5 44Q-11 99 16 183L24 208Q46 276 87.5 309.5Q129 343 190 342Q212 342 231.5 337.5Q251 333 270 322L234 239Q227 242 217.5 243.5Q208 245 198 245Q172 246 156 230.5Q140 215 129 180L122 158Q112 128 124.5 108.5Q137 89 166 89Q198 89 217.5 106Q237 123 250 163L279 255Q292 296 296 323.5Q300 351 296 370Z" glyph-name="partialdiff" horiz-adv-x="435" unicode="∂" /><glyph d="M63 415 80 512H609L592 415H521L430 -97H310L401 415H254L163 -97H42L134 415Z" glyph-name="product" horiz-adv-x="582" unicode="∏" /><glyph d="M30 319 46 415H527L511 319H440L411 155Q405 125 412.5 112Q420 99 446 99Q454 99 458.5 99Q463 99 468 100L469 -5Q458 -7 447.5 -7.5Q437 -8 427 -8Q349 -8 313 35Q277 78 290 152L320 319H219L162 0H42L99 319Z" glyph-name="pi" horiz-adv-x="527" unicode="π" /><glyph d="M305 173 348 415H468L395 0H310L307 47Q288 18 263.5 3.5Q239 -11 210 -11Q189 -11 172 -3Q155 5 142 20L107 -180H-13L92 415H212L169 173Q162 135 176.5 114Q191 93 223 93Q255 92 276.5 113Q298 134 305 173Z" glyph-name="mu" horiz-adv-x="487" unicode="µ" /><glyph d="M83 496 100 595H470L453 496H213L348 197L116 -81H362L345 -180H-46L-29 -81L214 208Z" glyph-name="summation" horiz-adv-x="435" unicode="∑" /><glyph d="M49 239 61 312Q77 412 141 467.5Q205 523 307 523Q407 523 457 464.5Q507 406 489 312L475 235Q466 183 445.5 146.5Q425 110 395 92H472L456 0H254L270 92Q303 108 324 143.5Q345 179 355 235L369 312Q378 366 359 394Q340 422 294 422Q248 422 219.5 394Q191 366 181 312L167 235Q157 177 164 144.5Q171 112 199 92L183 0H-16L0 92H86Q61 118 51.5 156Q42 194 49 239Z" glyph-name="Omega" horiz-adv-x="513" unicode="Ω" /><glyph d="M10 97 260 512H394L495 97L478 0H-7ZM133 97 384 97L311 397Z" glyph-name="Delta" horiz-adv-x="545" unicode="∆" /><glyph d="M790 314 790 305H207Q204 305 203 304Q202 303 202 301V125Q202 119 204 114Q206 109 210 105Q254 59 311 34Q368 9 431 9Q498 9 558 37Q618 65 663 116H715Q664 57 589 23.5Q514 -10 430 -10Q281 -10 175.5 85Q70 180 70 314Q70 448 175.5 543Q281 638 430 638Q579 638 684.5 543Q790 448 790 314ZM658 328 658 506Q658 512 656 517.5Q654 523 649 527Q605 571 548.5 595Q492 619 431 619Q369 619 312 594.5Q255 570 211 524Q206 519 204 514Q202 509 202 502V328Q202 326 203.5 324.5Q205 323 207 323H654Q656 323 657 324.5Q658 326 658 328Z" glyph-name="estimated" horiz-adv-x="861" unicode="℮" /><glyph d="M300 -31 17 256L300 542L369 476L201 306H609V206H201L368 34Z" glyph-name="arrowleft" horiz-adv-x="640" unicode="←" /><glyph d="M99 254 35 324L320 605L605 324L541 254L374 420V0H266V420Z" glyph-name="arrowup" horiz-adv-x="640" unicode="↑" /><glyph d="M439 306 271 476L340 542L623 256L340 -31L272 34L439 206H31V306Z" glyph-name="arrowright" horiz-adv-x="640" unicode="→" /><glyph d="M266 175 266 594H374V175L541 341L605 271L320 -10L35 271L99 341Z" glyph-name="arrowdown" horiz-adv-x="640" unicode="↓" /><glyph d="M639 306 471 476L540 542L823 256L540 -31L472 34L639 206H201L368 34L300 -31L17 256L300 542L369 476L201 306Z" glyph-name="arrowboth" horiz-adv-x="840" unicode="↔" /><glyph d="M99 254 35 324L320 605L605 324L541 254L374 420V-5L541 161L605 91L320 -190L35 91L99 161L266 -5V420Z" glyph-name="arrowupdn" horiz-adv-x="640" unicode="↕" /><glyph d="M115 109 115 512H518V417H283L570 130L497 57L213 343V109Z" glyph-name="uni2196" horiz-adv-x="640" unicode="↖" /><glyph d="M122 417 122 512H525V109H427V343L143 57L70 130L357 417Z" glyph-name="uni2197" horiz-adv-x="640" unicode="↗" /><glyph d="M357 157 70 444L143 517L427 231V465H525V62H122V157Z" glyph-name="uni2198" horiz-adv-x="640" unicode="↘" /><glyph d="M213 465 213 231L497 517L570 444L283 157H518V62H115V465Z" glyph-name="uni2199" horiz-adv-x="640" unicode="↙" /><glyph d="M31 215 31 297Q99 332 158 377Q217 422 298 502L364 436Q320 391 283 360Q246 329 208 306H609V206H208Q246 183 283 152Q320 121 364 76L298 10Q217 90 158 135Q99 180 31 215Z" glyph-name="arrowleft.alt" horiz-adv-x="640" unicode="⇐" /><glyph d="M277 594 363 594Q399 526 444 467Q489 408 571 327L506 262Q456 311 425.5 347Q395 383 374 417V0H266V417Q245 383 214.5 347Q184 311 134 262L69 327Q151 408 196 467Q241 526 277 594Z" glyph-name="arrowup.alt" horiz-adv-x="640" unicode="⇑" /><glyph d="M276 436 342 502Q423 422 482 377Q541 332 609 297V215Q541 180 482 135Q423 90 342 10L276 76Q320 121 357 152Q394 183 432 206H31V306H432Q394 329 357 360Q320 391 276 436Z" glyph-name="arrowright.alt" horiz-adv-x="640" unicode="⇒" /><glyph d="M266 177 266 594H374V177Q395 211 425.5 247Q456 283 506 332L571 267Q489 186 444 127Q399 68 363 0H277Q241 68 196 127Q151 186 69 267L134 332Q184 283 214.5 247Q245 211 266 177Z" glyph-name="arrowdown.alt" horiz-adv-x="640" unicode="⇓" /><glyph d="M476 436 542 502Q623 422 682 377Q741 332 809 297V215Q741 180 682 135Q623 90 542 10L476 76Q520 121 557 152Q594 183 632 206H208Q246 183 283 152Q320 121 364 76L298 10Q217 90 158 135Q99 180 31 215V297Q99 332 158 377Q217 422 298 502L364 436Q320 391 283 360Q246 329 208 306H632Q594 329 557 360Q520 391 476 436Z" glyph-name="arrowboth.alt" horiz-adv-x="840" unicode="⇔" /><glyph d="M277 594 363 594Q399 526 444 467Q489 408 571 327L506 262Q456 311 425.5 347Q395 383 374 417V-3Q395 31 425.5 67Q456 103 506 152L571 87Q489 6 444 -53Q399 -112 363 -180H277Q241 -112 196 -53Q151 6 69 87L134 152Q184 103 214.5 67Q245 31 266 -3V417Q245 383 214.5 347Q184 311 134 262L69 327Q151 408 196 467Q241 526 277 594Z" glyph-name="arrowupdn.alt" horiz-adv-x="640" unicode="⇕" /><glyph d="M95 457 153 515Q227 491 301 481Q375 471 487 471V378Q428 377 380.5 381.5Q333 386 285 397L570 113L497 40L213 324Q224 274 228.5 226Q233 178 232 123H139Q139 231 129 306Q119 381 95 457Z" glyph-name="uni21D6" horiz-adv-x="640" unicode="⇖" /><glyph d="M153 378 153 471Q265 471 339 481Q413 491 487 515L545 457Q521 381 511 306Q501 231 501 123H408Q407 178 411.5 226Q416 274 427 324L143 40L70 113L355 397Q307 386 259.5 381.5Q212 377 153 378Z" glyph-name="uni21D7" horiz-adv-x="640" unicode="⇗" /><glyph d="M355 158 70 442L143 515L427 231Q416 281 411.5 329Q407 377 408 432H501Q501 324 511 249Q521 174 545 98L487 40Q413 64 339 74Q265 84 153 84V177Q212 178 259.5 173.5Q307 169 355 158Z" glyph-name="uni21D8" horiz-adv-x="640" unicode="⇘" /><glyph d="M213 231 497 515L570 442L285 158Q333 169 380.5 173.5Q428 178 487 177V84Q375 84 301 74Q227 64 153 40L95 98Q119 174 129 249Q139 324 139 432H232Q233 377 228.5 329Q224 281 213 231Z" glyph-name="uni21D9" horiz-adv-x="640" unicode="⇙" /></font>
</defs>
</svg>
